%TF.GenerationSoftware,KiCad,Pcbnew,10.0.6*%
%TF.CreationDate,2026-09-26T01:34:44+02:00*%
%TF.ProjectId,p4eregrine,70346572-6567-4726-996e-652e6b696361,rev?*%
%TF.SameCoordinates,Original*%
%TF.FileFunction,Paste,Bot*%
%TF.FilePolarity,Positive*%
%FSLAX46Y46*%
G04 Gerber Fmt 4.6, Leading zero omitted, Abs format (unit mm)*
G04 Created by KiCad (PCBNEW 10.0.6) date 2026-09-26 01:34:44*
%MOMM*%
%LPD*%
G01*
G04 APERTURE LIST*
G04 Aperture macros list*
%AMRoundRect*
0 Rectangle with rounded corners*
0 $1 Rounding radius*
0 $2 $3 $4 $5 $6 $7 $8 $9 X,Y pos of 4 corners*
0 Add a 4 corners polygon primitive as box body*
4,1,4,$2,$3,$4,$5,$6,$7,$8,$9,$2,$3,0*
0 Add four circle primitives for the rounded corners*
1,1,$1+$1,$2,$3*
1,1,$1+$1,$4,$5*
1,1,$1+$1,$6,$7*
1,1,$1+$1,$8,$9*
0 Add four rect primitives between the rounded corners*
20,1,$1+$1,$2,$3,$4,$5,0*
20,1,$1+$1,$4,$5,$6,$7,0*
20,1,$1+$1,$6,$7,$8,$9,0*
20,1,$1+$1,$8,$9,$2,$3,0*%
%AMHorizOval*
0 Thick line with rounded ends*
0 $1 width*
0 $2 $3 position (X,Y) of the first rounded end (center of the circle)*
0 $4 $5 position (X,Y) of the second rounded end (center of the circle)*
0 Add line between two ends*
20,1,$1,$2,$3,$4,$5,0*
0 Add two circle primitives to create the rounded ends*
1,1,$1,$2,$3*
1,1,$1,$4,$5*%
%AMRotRect*
0 Rectangle, with rotation*
0 The origin of the aperture is its center*
0 $1 length*
0 $2 width*
0 $3 Rotation angle, in degrees counterclockwise*
0 Add horizontal line*
21,1,$1,$2,0,0,$3*%
%AMFreePoly0*
4,1,14,0.185240,0.435354,0.199885,0.399999,0.199885,-0.275057,0.185240,-0.310412,0.149885,-0.325057,0.099899,-0.325057,0.064544,-0.310414,-0.185492,-0.060401,-0.200139,-0.025046,-0.200140,0.399999,-0.185494,0.435354,-0.150139,0.449999,0.149885,0.449999,0.185240,0.435354,0.185240,0.435354,$1*%
%AMFreePoly1*
4,1,14,0.185240,0.435354,0.199885,0.399999,0.199885,-0.024968,0.185239,-0.060325,-0.064799,-0.310337,-0.100152,-0.324980,-0.150139,-0.324980,-0.185494,-0.310335,-0.200139,-0.274980,-0.200140,0.399999,-0.185494,0.435354,-0.150139,0.449999,0.149885,0.449999,0.185240,0.435354,0.185240,0.435354,$1*%
%AMFreePoly2*
4,1,14,0.435354,0.185240,0.449999,0.149885,0.449999,-0.150139,0.435354,-0.185494,0.399999,-0.200140,-0.275057,-0.200139,-0.310411,-0.185494,-0.325057,-0.150139,-0.325057,-0.100152,-0.310414,-0.064798,-0.060401,0.185239,-0.025046,0.199885,0.399999,0.199885,0.435354,0.185240,0.435354,0.185240,$1*%
%AMFreePoly3*
4,1,14,0.435354,0.185240,0.449999,0.149885,0.449999,-0.150139,0.435354,-0.185494,0.399999,-0.200140,-0.024968,-0.200140,-0.060325,-0.185493,-0.310337,0.064544,-0.324980,0.099898,-0.324980,0.149885,-0.310335,0.185239,-0.274980,0.199885,0.399999,0.199885,0.435354,0.185240,0.435354,0.185240,$1*%
%AMFreePoly4*
4,1,14,-0.064798,0.310414,0.185239,0.060401,0.199885,0.025046,0.199885,-0.399999,0.185240,-0.435354,0.149885,-0.449999,-0.150139,-0.449999,-0.185494,-0.435354,-0.200140,-0.399999,-0.200139,0.275057,-0.185494,0.310411,-0.150139,0.325057,-0.100152,0.325057,-0.064798,0.310414,-0.064798,0.310414,$1*%
%AMFreePoly5*
4,1,14,0.185215,0.310335,0.199860,0.274982,0.199885,-0.399998,0.185242,-0.435353,0.149887,-0.449999,-0.150139,-0.449999,-0.185494,-0.435354,-0.200140,-0.399999,-0.200140,0.024968,-0.185493,0.060325,0.064544,0.310337,0.099898,0.324980,0.149860,0.324981,0.185215,0.310335,0.185215,0.310335,$1*%
%AMFreePoly6*
4,1,14,0.310412,0.185266,0.325057,0.149911,0.325057,0.099899,0.310414,0.064544,0.060401,-0.185492,0.025046,-0.200139,-0.400002,-0.200114,-0.435356,-0.185467,-0.449999,-0.150114,-0.449999,0.149911,-0.435354,0.185266,-0.399999,0.199910,0.275057,0.199911,0.310412,0.185266,0.310412,0.185266,$1*%
%AMFreePoly7*
4,1,15,0.060323,0.185240,0.060325,0.185239,0.310337,-0.064799,0.324980,-0.100152,0.324980,-0.150139,0.310335,-0.185494,0.274980,-0.200139,-0.399999,-0.200140,-0.435354,-0.185494,-0.449999,-0.150139,-0.449999,0.149885,-0.435354,0.185240,-0.399999,0.199885,0.024968,0.199885,0.060323,0.185240,0.060323,0.185240,$1*%
G04 Aperture macros list end*
%ADD10RoundRect,0.079500X0.127279X0.014849X0.014849X0.127279X-0.127279X-0.014849X-0.014849X-0.127279X0*%
%ADD11RoundRect,0.079500X-0.127279X-0.014849X-0.014849X-0.127279X0.127279X0.014849X0.014849X0.127279X0*%
%ADD12RoundRect,0.140000X0.219203X0.021213X0.021213X0.219203X-0.219203X-0.021213X-0.021213X-0.219203X0*%
%ADD13RoundRect,0.140000X-0.021213X0.219203X-0.219203X0.021213X0.021213X-0.219203X0.219203X-0.021213X0*%
%ADD14RoundRect,0.079500X-0.014849X0.127279X-0.127279X0.014849X0.014849X-0.127279X0.127279X-0.014849X0*%
%ADD15RoundRect,0.140000X0.021213X-0.219203X0.219203X-0.021213X-0.021213X0.219203X-0.219203X0.021213X0*%
%ADD16RoundRect,0.225000X-0.335876X-0.017678X-0.017678X-0.335876X0.335876X0.017678X0.017678X0.335876X0*%
%ADD17RoundRect,0.140000X-0.219203X-0.021213X-0.021213X-0.219203X0.219203X0.021213X0.021213X0.219203X0*%
%ADD18RoundRect,0.250000X-0.475000X0.250000X-0.475000X-0.250000X0.475000X-0.250000X0.475000X0.250000X0*%
%ADD19RoundRect,0.079500X0.014849X-0.127279X0.127279X-0.014849X-0.014849X0.127279X-0.127279X0.014849X0*%
%ADD20RoundRect,0.225000X0.017678X-0.335876X0.335876X-0.017678X-0.017678X0.335876X-0.335876X0.017678X0*%
%ADD21RoundRect,0.250000X-0.275000X-0.250000X0.275000X-0.250000X0.275000X0.250000X-0.275000X0.250000X0*%
%ADD22RoundRect,0.250000X-0.850000X-0.275000X0.850000X-0.275000X0.850000X0.275000X-0.850000X0.275000X0*%
%ADD23RoundRect,0.250000X0.475000X-0.250000X0.475000X0.250000X-0.475000X0.250000X-0.475000X-0.250000X0*%
%ADD24RoundRect,0.087500X0.026517X0.150260X-0.150260X-0.026517X-0.026517X-0.150260X0.150260X0.026517X0*%
%ADD25RoundRect,0.087500X-0.026517X0.150260X-0.150260X0.026517X0.026517X-0.150260X0.150260X-0.026517X0*%
%ADD26FreePoly0,135.000000*%
%ADD27RotRect,0.300000X0.700000X135.000000*%
%ADD28FreePoly1,135.000000*%
%ADD29FreePoly2,135.000000*%
%ADD30RotRect,0.700000X0.300000X135.000000*%
%ADD31FreePoly3,135.000000*%
%ADD32FreePoly4,135.000000*%
%ADD33FreePoly5,135.000000*%
%ADD34FreePoly6,135.000000*%
%ADD35FreePoly7,135.000000*%
%ADD36RotRect,0.200000X0.300000X225.000000*%
%ADD37RotRect,0.200000X0.250000X135.000000*%
%ADD38RotRect,0.200000X0.300000X45.000000*%
%ADD39RoundRect,0.250000X-0.159099X0.512652X-0.512652X0.159099X0.159099X-0.512652X0.512652X-0.159099X0*%
%ADD40RotRect,0.700000X0.200000X45.000000*%
%ADD41RotRect,0.200000X0.700000X45.000000*%
%ADD42RotRect,2.600000X2.600000X45.000000*%
%ADD43RoundRect,0.087500X0.097227X0.220971X-0.220971X-0.097227X-0.097227X-0.220971X0.220971X0.097227X0*%
%ADD44RoundRect,0.087500X-0.097227X0.220971X-0.220971X0.097227X0.097227X-0.220971X0.220971X-0.097227X0*%
%ADD45RoundRect,0.147500X0.226274X0.017678X0.017678X0.226274X-0.226274X-0.017678X-0.017678X-0.226274X0*%
%ADD46RoundRect,0.225000X0.335876X0.017678X0.017678X0.335876X-0.335876X-0.017678X-0.017678X-0.335876X0*%
%ADD47RoundRect,0.079500X-0.100500X0.079500X-0.100500X-0.079500X0.100500X-0.079500X0.100500X0.079500X0*%
%ADD48RoundRect,0.250000X-0.406586X0.053033X0.053033X-0.406586X0.406586X-0.053033X-0.053033X0.406586X0*%
%ADD49HorizOval,0.200000X-0.159099X0.159099X0.159099X-0.159099X0*%
%ADD50HorizOval,0.200000X0.159099X0.159099X-0.159099X-0.159099X0*%
%ADD51RotRect,1.700000X1.700000X135.000000*%
%ADD52RoundRect,0.150000X0.150000X-0.512500X0.150000X0.512500X-0.150000X0.512500X-0.150000X-0.512500X0*%
%ADD53RoundRect,0.079500X0.079500X0.100500X-0.079500X0.100500X-0.079500X-0.100500X0.079500X-0.100500X0*%
%ADD54RotRect,0.375000X0.350000X225.000000*%
%ADD55RotRect,0.375000X0.350000X135.000000*%
%ADD56RotRect,0.700000X0.200000X225.000000*%
%ADD57RotRect,0.200000X0.700000X225.000000*%
%ADD58RotRect,2.600000X2.600000X225.000000*%
%ADD59RoundRect,0.225000X-0.017678X0.335876X-0.335876X0.017678X0.017678X-0.335876X0.335876X-0.017678X0*%
%ADD60RoundRect,0.079500X0.100500X-0.079500X0.100500X0.079500X-0.100500X0.079500X-0.100500X-0.079500X0*%
%ADD61RoundRect,0.250000X0.000000X-0.523259X0.523259X0.000000X0.000000X0.523259X-0.523259X0.000000X0*%
%ADD62RoundRect,0.050000X-0.212132X-0.282843X0.282843X0.212132X0.212132X0.282843X-0.282843X-0.212132X0*%
%ADD63RoundRect,0.050000X0.212132X-0.282843X0.282843X-0.212132X-0.212132X0.282843X-0.282843X0.212132X0*%
%ADD64RoundRect,0.200000X0.318198X-0.035355X-0.035355X0.318198X-0.318198X0.035355X0.035355X-0.318198X0*%
%ADD65RoundRect,0.225000X0.250000X-0.225000X0.250000X0.225000X-0.250000X0.225000X-0.250000X-0.225000X0*%
%ADD66RotRect,0.700000X0.350000X45.000000*%
%ADD67RotRect,0.350000X0.700000X45.000000*%
%ADD68RotRect,2.400000X1.900000X45.000000*%
%ADD69FreePoly0,315.000000*%
%ADD70RotRect,0.300000X0.700000X315.000000*%
%ADD71FreePoly1,315.000000*%
%ADD72FreePoly2,315.000000*%
%ADD73RotRect,0.700000X0.300000X315.000000*%
%ADD74FreePoly3,315.000000*%
%ADD75FreePoly4,315.000000*%
%ADD76FreePoly5,315.000000*%
%ADD77FreePoly6,315.000000*%
%ADD78FreePoly7,315.000000*%
%ADD79RoundRect,0.079500X-0.079500X-0.100500X0.079500X-0.100500X0.079500X0.100500X-0.079500X0.100500X0*%
%ADD80RoundRect,0.062500X-0.134350X0.045962X0.045962X-0.134350X0.134350X-0.045962X-0.045962X0.134350X0*%
%ADD81RoundRect,0.125000X-0.176777X0.000000X0.000000X-0.176777X0.176777X0.000000X0.000000X0.176777X0*%
%ADD82RoundRect,0.250000X-0.375000X-0.850000X0.375000X-0.850000X0.375000X0.850000X-0.375000X0.850000X0*%
G04 APERTURE END LIST*
D10*
%TO.C,R139*%
X158740205Y-86540339D03*
X158252301Y-86052435D03*
%TD*%
%TO.C,R27*%
X152869189Y-101451627D03*
X152381285Y-100963723D03*
%TD*%
D11*
%TO.C,R26*%
X150482703Y-102713812D03*
X150970607Y-103201716D03*
%TD*%
D12*
%TO.C,C180*%
X160975075Y-88795182D03*
X160296253Y-88116360D03*
%TD*%
D13*
%TO.C,C12*%
X157436713Y-73234695D03*
X156757891Y-73913517D03*
%TD*%
D14*
%TO.C,D15*%
X157438985Y-97826161D03*
X156951081Y-98314065D03*
%TD*%
D15*
%TO.C,C175*%
X134320032Y-101957998D03*
X134998854Y-101279176D03*
%TD*%
D11*
%TO.C,R115*%
X136639342Y-87458931D03*
X137127246Y-87946835D03*
%TD*%
D16*
%TO.C,C89*%
X151248245Y-91948379D03*
X152344261Y-93044395D03*
%TD*%
D17*
%TO.C,C157*%
X131145123Y-86327561D03*
X131823945Y-87006383D03*
%TD*%
D10*
%TO.C,R104*%
X162338986Y-101966613D03*
X161851082Y-101478709D03*
%TD*%
D11*
%TO.C,R146*%
X141354795Y-93277435D03*
X141842699Y-93765339D03*
%TD*%
D18*
%TO.C,C153*%
X131598747Y-89021387D03*
X131598747Y-90921387D03*
%TD*%
D16*
%TO.C,C50*%
X155409947Y-99658607D03*
X156505963Y-100754623D03*
%TD*%
D19*
%TO.C,R88*%
X164349807Y-91115339D03*
X164837711Y-90627435D03*
%TD*%
D10*
%TO.C,R90*%
X163453164Y-92333843D03*
X162965260Y-91845939D03*
%TD*%
D12*
%TO.C,C135*%
X167674591Y-97849275D03*
X166995769Y-97170453D03*
%TD*%
D19*
%TO.C,C91*%
X152927301Y-93940339D03*
X153415205Y-93452435D03*
%TD*%
D13*
%TO.C,C33*%
X145735664Y-71056976D03*
X145056842Y-71735798D03*
%TD*%
D11*
%TO.C,R66*%
X163498084Y-78340609D03*
X163985988Y-78828513D03*
%TD*%
D10*
%TO.C,R46*%
X148666479Y-87466613D03*
X148178575Y-86978709D03*
%TD*%
D20*
%TO.C,C8*%
X159848245Y-78244395D03*
X160944261Y-77148379D03*
%TD*%
D19*
%TO.C,C62*%
X156456048Y-84843952D03*
X156943952Y-84356048D03*
%TD*%
D14*
%TO.C,C48*%
X155817824Y-102010240D03*
X155329920Y-102498144D03*
%TD*%
D18*
%TO.C,C177*%
X131598747Y-102021387D03*
X131598747Y-103921387D03*
%TD*%
D17*
%TO.C,C131*%
X166654348Y-91331976D03*
X167333170Y-92010798D03*
%TD*%
D13*
%TO.C,C7*%
X160635664Y-79256976D03*
X159956842Y-79935798D03*
%TD*%
D10*
%TO.C,R79*%
X162341480Y-88991613D03*
X161853576Y-88503709D03*
%TD*%
%TO.C,R116*%
X136596916Y-88477165D03*
X136109012Y-87989261D03*
%TD*%
D11*
%TO.C,C44*%
X152904544Y-99330306D03*
X153392448Y-99818210D03*
%TD*%
D10*
%TO.C,C215*%
X140712278Y-92864605D03*
X140224374Y-92376701D03*
%TD*%
%TO.C,R23*%
X146745643Y-94140143D03*
X146257739Y-93652239D03*
%TD*%
%TO.C,R65*%
X163455658Y-79358843D03*
X162967754Y-78870939D03*
%TD*%
D19*
%TO.C,R63*%
X164352301Y-78140339D03*
X164840205Y-77652435D03*
%TD*%
D10*
%TO.C,R105*%
X162833960Y-101471638D03*
X162346056Y-100983734D03*
%TD*%
D11*
%TO.C,R135*%
X135254795Y-80327435D03*
X135742699Y-80815339D03*
%TD*%
D13*
%TO.C,C93*%
X144983689Y-88066927D03*
X144304867Y-88745749D03*
%TD*%
D21*
%TO.C,J5*%
X157632955Y-106056615D03*
D22*
X159157955Y-104581614D03*
X159157955Y-107531616D03*
%TD*%
D10*
%TO.C,R158*%
X136741425Y-92814065D03*
X136253521Y-92326161D03*
%TD*%
D14*
%TO.C,R9*%
X161247312Y-74800963D03*
X160759408Y-75288867D03*
%TD*%
D23*
%TO.C,C105*%
X168496253Y-77796386D03*
X168496253Y-75896388D03*
%TD*%
D24*
%TO.C,U2*%
X148233645Y-91030441D03*
X148587199Y-91383995D03*
D25*
X148763975Y-91932003D03*
X148410422Y-92285556D03*
X148056869Y-92639109D03*
D24*
X147508861Y-92462333D03*
X147155307Y-92108779D03*
D25*
X146978531Y-91560771D03*
X147332084Y-91207218D03*
X147685637Y-90853665D03*
%TD*%
D10*
%TO.C,R25*%
X147244154Y-93648703D03*
X146756250Y-93160799D03*
%TD*%
%TO.C,R81*%
X166404293Y-85065195D03*
X165916389Y-84577291D03*
%TD*%
%TO.C,R153*%
X137242699Y-92315339D03*
X136754795Y-91827435D03*
%TD*%
D26*
%TO.C,U23*%
X161031323Y-100490319D03*
D27*
X160642415Y-100172121D03*
X160288861Y-99818567D03*
X159935308Y-99465014D03*
X159581755Y-99111461D03*
X159228201Y-98757907D03*
D28*
X158910003Y-98368999D03*
D29*
X158910003Y-97831597D03*
D30*
X159228201Y-97442689D03*
X159581755Y-97089135D03*
X159935308Y-96735582D03*
X160288861Y-96382029D03*
X160642415Y-96028475D03*
D31*
X161031323Y-95710277D03*
D32*
X161568725Y-95710277D03*
D27*
X161957633Y-96028475D03*
X162311187Y-96382029D03*
X162664740Y-96735582D03*
X163018293Y-97089135D03*
X163371847Y-97442689D03*
D33*
X163690045Y-97831597D03*
D34*
X163690045Y-98368999D03*
D30*
X163368311Y-98754372D03*
X163018293Y-99111461D03*
X162664740Y-99465014D03*
X162311187Y-99818567D03*
X161957633Y-100172121D03*
D35*
X161568725Y-100490319D03*
%TD*%
D10*
%TO.C,R141*%
X136596916Y-101477165D03*
X136109012Y-100989261D03*
%TD*%
D36*
%TO.C,U5*%
X152954042Y-104025495D03*
X153307595Y-103671942D03*
X153661148Y-103318389D03*
D37*
X154177336Y-103438597D03*
D38*
X154297544Y-103954785D03*
D36*
X153943991Y-104308338D03*
X153590438Y-104661891D03*
D37*
X153074250Y-104541683D03*
%TD*%
D19*
%TO.C,C53*%
X151759031Y-100447535D03*
X152246935Y-99959631D03*
%TD*%
D11*
%TO.C,R91*%
X163495590Y-91315609D03*
X163983494Y-91803513D03*
%TD*%
D13*
%TO.C,C35*%
X143616697Y-101317276D03*
X142937875Y-101996098D03*
%TD*%
D11*
%TO.C,R100*%
X158228575Y-96353709D03*
X158716479Y-96841613D03*
%TD*%
D10*
%TO.C,R28*%
X155401907Y-105800567D03*
X154914003Y-105312663D03*
%TD*%
D39*
%TO.C,C1*%
X155971751Y-83428249D03*
X154628249Y-84771751D03*
%TD*%
D17*
%TO.C,C18*%
X145456842Y-83906976D03*
X146135664Y-84585798D03*
%TD*%
D10*
%TO.C,R151*%
X142515205Y-96090339D03*
X142027301Y-95602435D03*
%TD*%
%TO.C,R6*%
X147540205Y-72690339D03*
X147052301Y-72202435D03*
%TD*%
D11*
%TO.C,R51*%
X157206903Y-81037618D03*
X157694807Y-81525522D03*
%TD*%
%TO.C,R134*%
X135754795Y-79827435D03*
X136242699Y-80315339D03*
%TD*%
D19*
%TO.C,C85*%
X148252301Y-89590339D03*
X148740205Y-89102435D03*
%TD*%
D40*
%TO.C,U25*%
X134030118Y-100444789D03*
X133747275Y-100161947D03*
X133464432Y-99879104D03*
X133181590Y-99596261D03*
X132898747Y-99313419D03*
X132615904Y-99030576D03*
X132333062Y-98747733D03*
D41*
X132333062Y-97687073D03*
X132615904Y-97404230D03*
X132898747Y-97121387D03*
X133181590Y-96838545D03*
X133464432Y-96555702D03*
X133747275Y-96272859D03*
X134030118Y-95990017D03*
D40*
X135090778Y-95990017D03*
X135373621Y-96272859D03*
X135656464Y-96555702D03*
X135939306Y-96838545D03*
X136222149Y-97121387D03*
X136504992Y-97404230D03*
X136787834Y-97687073D03*
D41*
X136787834Y-98747733D03*
X136504992Y-99030576D03*
X136222149Y-99313419D03*
X135939306Y-99596261D03*
X135656464Y-99879104D03*
X135373621Y-100161947D03*
X135090778Y-100444789D03*
D42*
X134560448Y-98217403D03*
%TD*%
D43*
%TO.C,U13*%
X144117484Y-85044045D03*
X144471037Y-85397599D03*
X144824590Y-85751152D03*
X145178144Y-86104705D03*
D44*
X144824590Y-86688069D03*
X144471037Y-87041622D03*
X144117484Y-87395175D03*
D43*
X143534120Y-87748729D03*
X143180567Y-87395175D03*
X142827014Y-87041622D03*
X142473460Y-86688069D03*
D44*
X142827014Y-86104705D03*
X143180567Y-85751152D03*
X143534120Y-85397599D03*
%TD*%
D10*
%TO.C,C20*%
X149240708Y-72137362D03*
X148752804Y-71649458D03*
%TD*%
D45*
%TO.C,L2*%
X154679382Y-101041505D03*
X153993488Y-100355611D03*
%TD*%
D11*
%TO.C,R108*%
X163351081Y-99978709D03*
X163838985Y-100466613D03*
%TD*%
D15*
%TO.C,C29*%
X145892431Y-73500209D03*
X146571253Y-72821387D03*
%TD*%
D12*
%TO.C,C133*%
X168947383Y-93465213D03*
X168268561Y-92786391D03*
%TD*%
D19*
%TO.C,C51*%
X151126170Y-102034990D03*
X151614074Y-101547086D03*
%TD*%
D11*
%TO.C,C178*%
X159382722Y-86953169D03*
X159870626Y-87441073D03*
%TD*%
D10*
%TO.C,R85*%
X164840205Y-86490339D03*
X164352301Y-86002435D03*
%TD*%
D14*
%TO.C,R18*%
X152438931Y-94803709D03*
X151951027Y-95291613D03*
%TD*%
%TO.C,R136*%
X157940205Y-85355504D03*
X157452301Y-85843408D03*
%TD*%
D19*
%TO.C,R99*%
X168149807Y-98515339D03*
X168637711Y-98027435D03*
%TD*%
D13*
%TO.C,C182*%
X132063158Y-96506976D03*
X131384336Y-97185798D03*
%TD*%
D14*
%TO.C,R138*%
X135742699Y-101677435D03*
X135254795Y-102165339D03*
%TD*%
D11*
%TO.C,R16*%
X143552301Y-95252435D03*
X144040205Y-95740339D03*
%TD*%
%TO.C,R75*%
X158327301Y-83452435D03*
X158815205Y-83940339D03*
%TD*%
D46*
%TO.C,C67*%
X143094261Y-77794395D03*
X141998245Y-76698379D03*
%TD*%
D10*
%TO.C,C83*%
X146316479Y-89866613D03*
X145828575Y-89378709D03*
%TD*%
D47*
%TO.C,C57*%
X156257955Y-106041615D03*
X156257955Y-106731615D03*
%TD*%
D11*
%TO.C,R157*%
X134181069Y-94253709D03*
X134668973Y-94741613D03*
%TD*%
D23*
%TO.C,C129*%
X168493759Y-90771387D03*
X168493759Y-88871387D03*
%TD*%
D10*
%TO.C,C23*%
X145140205Y-74740339D03*
X144652301Y-74252435D03*
%TD*%
D19*
%TO.C,R48*%
X151752301Y-90140339D03*
X152240205Y-89652435D03*
%TD*%
D10*
%TO.C,R107*%
X165911437Y-98539065D03*
X165423533Y-98051161D03*
%TD*%
%TO.C,R142*%
X158737711Y-99515339D03*
X158249807Y-99027435D03*
%TD*%
D17*
%TO.C,C213*%
X139092431Y-77992565D03*
X139771253Y-78671387D03*
%TD*%
D19*
%TO.C,R167*%
X142154795Y-94462270D03*
X142642699Y-93974366D03*
%TD*%
D11*
%TO.C,R156*%
X133690707Y-94752579D03*
X134178611Y-95240483D03*
%TD*%
D48*
%TO.C,Y2*%
X144783423Y-102059738D03*
X146020860Y-103297175D03*
X145030911Y-104287124D03*
X143793474Y-103049687D03*
%TD*%
D19*
%TO.C,R20*%
X156452301Y-97640339D03*
X156940205Y-97152435D03*
%TD*%
D49*
%TO.C,U1*%
X157496179Y-79190753D03*
X157248691Y-79438241D03*
X157001204Y-79685728D03*
X156753717Y-79933216D03*
X156506229Y-80180703D03*
X156258742Y-80428190D03*
X156011254Y-80675678D03*
X155763767Y-80923165D03*
X155516280Y-81170652D03*
X155268792Y-81418140D03*
X155021305Y-81665627D03*
X154773818Y-81913114D03*
X154526330Y-82160602D03*
X154278843Y-82408089D03*
X154031355Y-82655577D03*
X153783868Y-82903064D03*
X153536381Y-83150551D03*
X153288893Y-83398039D03*
X153041406Y-83645526D03*
X152793919Y-83893013D03*
X152546431Y-84140501D03*
X152298944Y-84387988D03*
X152051457Y-84635476D03*
X151803969Y-84882963D03*
X151556482Y-85130450D03*
X151308994Y-85377938D03*
D50*
X150601888Y-85377938D03*
X150354400Y-85130450D03*
X150106913Y-84882963D03*
X149859425Y-84635476D03*
X149611938Y-84387988D03*
X149364451Y-84140501D03*
X149116963Y-83893013D03*
X148869476Y-83645526D03*
X148621989Y-83398039D03*
X148374501Y-83150551D03*
X148127014Y-82903064D03*
X147879527Y-82655577D03*
X147632039Y-82408089D03*
X147384552Y-82160602D03*
X147137064Y-81913114D03*
X146889577Y-81665627D03*
X146642090Y-81418140D03*
X146394602Y-81170652D03*
X146147115Y-80923165D03*
X145899628Y-80675678D03*
X145652140Y-80428190D03*
X145404653Y-80180703D03*
X145157165Y-79933216D03*
X144909678Y-79685728D03*
X144662191Y-79438241D03*
X144414703Y-79190753D03*
D49*
X144414703Y-78483647D03*
X144662191Y-78236159D03*
X144909678Y-77988672D03*
X145157165Y-77741184D03*
X145404653Y-77493697D03*
X145652140Y-77246210D03*
X145899628Y-76998722D03*
X146147115Y-76751235D03*
X146394602Y-76503748D03*
X146642090Y-76256260D03*
X146889577Y-76008773D03*
X147137064Y-75761286D03*
X147384552Y-75513798D03*
X147632039Y-75266311D03*
X147879527Y-75018823D03*
X148127014Y-74771336D03*
X148374501Y-74523849D03*
X148621989Y-74276361D03*
X148869476Y-74028874D03*
X149116963Y-73781387D03*
X149364451Y-73533899D03*
X149611938Y-73286412D03*
X149859425Y-73038924D03*
X150106913Y-72791437D03*
X150354400Y-72543950D03*
X150601888Y-72296462D03*
D50*
X151308994Y-72296462D03*
X151556482Y-72543950D03*
X151803969Y-72791437D03*
X152051457Y-73038924D03*
X152298944Y-73286412D03*
X152546431Y-73533899D03*
X152793919Y-73781387D03*
X153041406Y-74028874D03*
X153288893Y-74276361D03*
X153536381Y-74523849D03*
X153783868Y-74771336D03*
X154031355Y-75018823D03*
X154278843Y-75266311D03*
X154526330Y-75513798D03*
X154773818Y-75761286D03*
X155021305Y-76008773D03*
X155268792Y-76256260D03*
X155516280Y-76503748D03*
X155763767Y-76751235D03*
X156011254Y-76998722D03*
X156258742Y-77246210D03*
X156506229Y-77493697D03*
X156753717Y-77741184D03*
X157001204Y-77988672D03*
X157248691Y-78236159D03*
X157496179Y-78483647D03*
D51*
X150955441Y-82655577D03*
X152864629Y-80746388D03*
X154773818Y-78837200D03*
X149046253Y-80746388D03*
X150955441Y-78837200D03*
X152864629Y-76928012D03*
X147137064Y-78837200D03*
X149046253Y-76928012D03*
X150955441Y-75018823D03*
%TD*%
D10*
%TO.C,C10*%
X156466479Y-75916613D03*
X155978575Y-75428709D03*
%TD*%
D14*
%TO.C,C55*%
X153677058Y-102234747D03*
X153189154Y-102722651D03*
%TD*%
%TO.C,R98*%
X168837711Y-96627435D03*
X168349807Y-97115339D03*
%TD*%
D52*
%TO.C,U6*%
X140333752Y-73583887D03*
X139383753Y-73583887D03*
X138433754Y-73583887D03*
X138433754Y-71308887D03*
X140333752Y-71308887D03*
%TD*%
D19*
%TO.C,C26*%
X146427301Y-74140339D03*
X146915205Y-73652435D03*
%TD*%
D11*
%TO.C,R130*%
X137258546Y-78321136D03*
X137746450Y-78809040D03*
%TD*%
D10*
%TO.C,R80*%
X162836454Y-88496638D03*
X162348550Y-88008734D03*
%TD*%
D11*
%TO.C,R159*%
X135754795Y-92827435D03*
X136242699Y-93315339D03*
%TD*%
D14*
%TO.C,C47*%
X155322849Y-101515266D03*
X154834945Y-102003170D03*
%TD*%
D15*
%TO.C,C45*%
X151610539Y-102717346D03*
X152289361Y-102038524D03*
%TD*%
%TO.C,C36*%
X146155210Y-105072012D03*
X146834032Y-104393190D03*
%TD*%
D11*
%TO.C,R83*%
X163353575Y-87003709D03*
X163841479Y-87491613D03*
%TD*%
D14*
%TO.C,R30*%
X156040205Y-72102435D03*
X155552301Y-72590339D03*
%TD*%
D47*
%TO.C,R32*%
X141521253Y-71026386D03*
X141521253Y-71716386D03*
%TD*%
D15*
%TO.C,C151*%
X134320032Y-88957998D03*
X134998854Y-88279176D03*
%TD*%
D14*
%TO.C,R113*%
X135742699Y-88677435D03*
X135254795Y-89165339D03*
%TD*%
D53*
%TO.C,R112*%
X139593747Y-85971387D03*
X138903747Y-85971387D03*
%TD*%
D14*
%TO.C,R165*%
X157937711Y-98330504D03*
X157449807Y-98818408D03*
%TD*%
D54*
%TO.C,U12*%
X147241128Y-87255243D03*
X147594681Y-87608796D03*
X147948235Y-87962350D03*
X148301788Y-88315903D03*
D55*
X147948235Y-88687134D03*
X147594681Y-89040688D03*
D54*
X147223450Y-89394241D03*
X146869897Y-89040688D03*
X146516343Y-88687134D03*
X146162790Y-88333581D03*
D55*
X146516343Y-87962350D03*
X146869897Y-87608796D03*
%TD*%
D12*
%TO.C,C38*%
X144203595Y-100348539D03*
X143524773Y-99669717D03*
%TD*%
D11*
%TO.C,R49*%
X156711928Y-81532592D03*
X157199832Y-82020496D03*
%TD*%
%TO.C,R143*%
X141354795Y-80277435D03*
X141842699Y-80765339D03*
%TD*%
D12*
%TO.C,C155*%
X133438158Y-88460798D03*
X132759336Y-87781976D03*
%TD*%
D10*
%TO.C,R133*%
X136741425Y-79814065D03*
X136253521Y-79326161D03*
%TD*%
D14*
%TO.C,R124*%
X131942699Y-81277435D03*
X131454795Y-81765339D03*
%TD*%
D19*
%TO.C,D16*%
X143024753Y-82295956D03*
X143512657Y-81808052D03*
%TD*%
D14*
%TO.C,C3*%
X152334300Y-85872911D03*
X151846396Y-86360815D03*
%TD*%
D17*
%TO.C,C183*%
X132417915Y-94943499D03*
X133096737Y-95622321D03*
%TD*%
D11*
%TO.C,R50*%
X158378575Y-88678709D03*
X158866479Y-89166613D03*
%TD*%
D17*
%TO.C,C181*%
X131145123Y-99327561D03*
X131823945Y-100006383D03*
%TD*%
D19*
%TO.C,R14*%
X145246578Y-100818765D03*
X145734482Y-100330861D03*
%TD*%
D11*
%TO.C,C13*%
X146460011Y-82756339D03*
X146947915Y-83244243D03*
%TD*%
D56*
%TO.C,U16*%
X166064882Y-79372985D03*
X166347725Y-79655827D03*
X166630568Y-79938670D03*
X166913410Y-80221513D03*
X167196253Y-80504355D03*
X167479096Y-80787198D03*
X167761938Y-81070041D03*
D57*
X167761938Y-82130701D03*
X167479096Y-82413544D03*
X167196253Y-82696387D03*
X166913410Y-82979229D03*
X166630568Y-83262072D03*
X166347725Y-83544915D03*
X166064882Y-83827757D03*
D56*
X165004222Y-83827757D03*
X164721379Y-83544915D03*
X164438536Y-83262072D03*
X164155694Y-82979229D03*
X163872851Y-82696387D03*
X163590008Y-82413544D03*
X163307166Y-82130701D03*
D57*
X163307166Y-81070041D03*
X163590008Y-80787198D03*
X163872851Y-80504355D03*
X164155694Y-80221513D03*
X164438536Y-79938670D03*
X164721379Y-79655827D03*
X165004222Y-79372985D03*
D58*
X165534552Y-81600371D03*
%TD*%
D14*
%TO.C,R73*%
X168840205Y-83652435D03*
X168352301Y-84140339D03*
%TD*%
D19*
%TO.C,C54*%
X151842116Y-104069690D03*
X152330020Y-103581786D03*
%TD*%
D10*
%TO.C,R109*%
X164337711Y-99965339D03*
X163849807Y-99477435D03*
%TD*%
D47*
%TO.C,R7*%
X143796253Y-72601387D03*
X143796253Y-73291387D03*
%TD*%
D11*
%TO.C,R76*%
X157727301Y-83851161D03*
X158215205Y-84339065D03*
%TD*%
%TO.C,R22*%
X153385377Y-98821188D03*
X153873281Y-99309092D03*
%TD*%
D59*
%TO.C,C86*%
X150944261Y-89348379D03*
X149848245Y-90444395D03*
%TD*%
D60*
%TO.C,C66*%
X141521253Y-74536386D03*
X141521253Y-73846386D03*
%TD*%
D19*
%TO.C,C17*%
X154176027Y-73566613D03*
X154663931Y-73078709D03*
%TD*%
D10*
%TO.C,R106*%
X166401799Y-98040195D03*
X165913895Y-97552291D03*
%TD*%
D19*
%TO.C,R21*%
X153473765Y-97247877D03*
X153961669Y-96759973D03*
%TD*%
D61*
%TO.C,U4*%
X146632506Y-97746387D03*
X148796253Y-99910134D03*
X147714380Y-98828260D03*
X147714380Y-96664514D03*
X148796253Y-97746387D03*
X149878126Y-98828260D03*
X149878126Y-96664514D03*
X148796253Y-95582640D03*
X150960000Y-97746387D03*
D62*
X148265923Y-101387987D03*
X147983080Y-101105144D03*
X147700237Y-100822301D03*
X147417395Y-100539459D03*
X147134552Y-100256616D03*
X146851709Y-99973773D03*
X146568867Y-99690931D03*
X146286024Y-99408088D03*
X146003181Y-99125245D03*
X145720339Y-98842403D03*
X145437496Y-98559560D03*
X145154653Y-98276717D03*
D63*
X145154653Y-97216057D03*
X145437496Y-96933214D03*
X145720339Y-96650371D03*
X146003181Y-96367529D03*
X146286024Y-96084686D03*
X146568867Y-95801843D03*
X146851709Y-95519001D03*
X147134552Y-95236158D03*
X147417395Y-94953315D03*
X147700237Y-94670473D03*
X147983080Y-94387630D03*
X148265923Y-94104787D03*
D62*
X149326583Y-94104787D03*
X149609426Y-94387630D03*
X149892269Y-94670473D03*
X150175111Y-94953315D03*
X150457954Y-95236158D03*
X150740797Y-95519001D03*
X151023639Y-95801843D03*
X151306482Y-96084686D03*
X151589325Y-96367529D03*
X151872167Y-96650371D03*
X152155010Y-96933214D03*
X152437853Y-97216057D03*
D63*
X152437853Y-98276717D03*
X152155010Y-98559560D03*
X151872167Y-98842403D03*
X151589325Y-99125245D03*
X151306482Y-99408088D03*
X151023639Y-99690931D03*
X150740797Y-99973773D03*
X150457954Y-100256616D03*
X150175111Y-100539459D03*
X149892269Y-100822301D03*
X149609426Y-101105144D03*
X149326583Y-101387987D03*
%TD*%
D14*
%TO.C,R8*%
X162307972Y-73740303D03*
X161820068Y-74228207D03*
%TD*%
D10*
%TO.C,C42*%
X147802769Y-102409755D03*
X147314865Y-101921851D03*
%TD*%
D14*
%TO.C,D14*%
X157441479Y-84851161D03*
X156953575Y-85339065D03*
%TD*%
D15*
%TO.C,C134*%
X168029348Y-96285798D03*
X168708170Y-95606976D03*
%TD*%
D11*
%TO.C,C19*%
X143626027Y-79926161D03*
X144113931Y-80414065D03*
%TD*%
D19*
%TO.C,C15*%
X158426027Y-77766613D03*
X158913931Y-77278709D03*
%TD*%
D17*
%TO.C,C37*%
X143796253Y-98596387D03*
X144475075Y-99275209D03*
%TD*%
D11*
%TO.C,R132*%
X134181069Y-81253709D03*
X134668973Y-81741613D03*
%TD*%
D56*
%TO.C,U19*%
X166062388Y-92347985D03*
X166345231Y-92630827D03*
X166628074Y-92913670D03*
X166910916Y-93196513D03*
X167193759Y-93479355D03*
X167476602Y-93762198D03*
X167759444Y-94045041D03*
D57*
X167759444Y-95105701D03*
X167476602Y-95388544D03*
X167193759Y-95671387D03*
X166910916Y-95954229D03*
X166628074Y-96237072D03*
X166345231Y-96519915D03*
X166062388Y-96802757D03*
D56*
X165001728Y-96802757D03*
X164718885Y-96519915D03*
X164436042Y-96237072D03*
X164153200Y-95954229D03*
X163870357Y-95671387D03*
X163587514Y-95388544D03*
X163304672Y-95105701D03*
D57*
X163304672Y-94045041D03*
X163587514Y-93762198D03*
X163870357Y-93479355D03*
X164153200Y-93196513D03*
X164436042Y-92913670D03*
X164718885Y-92630827D03*
X165001728Y-92347985D03*
D58*
X165532058Y-94575371D03*
%TD*%
D11*
%TO.C,R101*%
X157577301Y-96727435D03*
X158065205Y-97215339D03*
%TD*%
D10*
%TO.C,R150*%
X141815205Y-96390339D03*
X141327301Y-95902435D03*
%TD*%
D11*
%TO.C,R102*%
X158602301Y-95727435D03*
X159090205Y-96215339D03*
%TD*%
D64*
%TO.C,Y1*%
X158370094Y-76119690D03*
X157380145Y-75129741D03*
X158157962Y-74351924D03*
X159147911Y-75341873D03*
%TD*%
D10*
%TO.C,R126*%
X142740205Y-83340339D03*
X142252301Y-82852435D03*
%TD*%
D11*
%TO.C,R129*%
X137753520Y-77826161D03*
X138241424Y-78314065D03*
%TD*%
D17*
%TO.C,C216*%
X139142431Y-90992565D03*
X139821253Y-91671387D03*
%TD*%
D11*
%TO.C,C2*%
X152878575Y-85378709D03*
X153366479Y-85866613D03*
%TD*%
D47*
%TO.C,R31*%
X141521253Y-72436386D03*
X141521253Y-73126386D03*
%TD*%
D10*
%TO.C,R17*%
X143540205Y-93790339D03*
X143052301Y-93302435D03*
%TD*%
D65*
%TO.C,C58*%
X142646253Y-72971387D03*
X142646253Y-71421387D03*
%TD*%
D11*
%TO.C,C21*%
X143131053Y-80421135D03*
X143618957Y-80909039D03*
%TD*%
D19*
%TO.C,R74*%
X168152301Y-85540339D03*
X168640205Y-85052435D03*
%TD*%
%TO.C,R123*%
X131254795Y-83165339D03*
X131742699Y-82677435D03*
%TD*%
%TO.C,C60*%
X156073550Y-73109040D03*
X156561454Y-72621136D03*
%TD*%
D10*
%TO.C,R127*%
X141415205Y-84065339D03*
X140927301Y-83577435D03*
%TD*%
D14*
%TO.C,R47*%
X142095158Y-85510735D03*
X141607254Y-85998639D03*
%TD*%
D11*
%TO.C,C187*%
X159380228Y-99928169D03*
X159868132Y-100416073D03*
%TD*%
D14*
%TO.C,C52*%
X149987729Y-102148127D03*
X149499825Y-102636031D03*
%TD*%
D66*
%TO.C,U14*%
X155301278Y-94349078D03*
X154841659Y-93889459D03*
X154382039Y-93429839D03*
X153922420Y-92970220D03*
X153462801Y-92510601D03*
X153003181Y-92050981D03*
X152543562Y-91591362D03*
D67*
X152543562Y-90601412D03*
X153003181Y-90141793D03*
X153462801Y-89682173D03*
X153922420Y-89222554D03*
X154382039Y-88762935D03*
X154841659Y-88303315D03*
X155301278Y-87843696D03*
D66*
X156291228Y-87843696D03*
X156750847Y-88303315D03*
X157210467Y-88762935D03*
X157670086Y-89222554D03*
X158129705Y-89682173D03*
X158589325Y-90141793D03*
X159048944Y-90601412D03*
D67*
X159048944Y-91591362D03*
X158589325Y-92050981D03*
X158129705Y-92510601D03*
X157670086Y-92970220D03*
X157210467Y-93429839D03*
X156750847Y-93889459D03*
X156291228Y-94349078D03*
D68*
X155796253Y-91096387D03*
%TD*%
D11*
%TO.C,C4*%
X156216953Y-82027566D03*
X156704857Y-82515470D03*
%TD*%
D10*
%TO.C,R84*%
X164340205Y-86990339D03*
X163852301Y-86502435D03*
%TD*%
D17*
%TO.C,C107*%
X166656842Y-78356976D03*
X167335664Y-79035798D03*
%TD*%
D11*
%TO.C,C16*%
X154776027Y-74176161D03*
X155263931Y-74664065D03*
%TD*%
D19*
%TO.C,C84*%
X144928888Y-89284640D03*
X145416792Y-88796736D03*
%TD*%
%TO.C,R1*%
X158383598Y-79823615D03*
X158871502Y-79335711D03*
%TD*%
D10*
%TO.C,R2*%
X144690205Y-76690339D03*
X144202301Y-76202435D03*
%TD*%
D14*
%TO.C,R149*%
X131942699Y-94277435D03*
X131454795Y-94765339D03*
%TD*%
D69*
%TO.C,U30*%
X139061183Y-92302455D03*
D70*
X139450091Y-92620653D03*
X139803645Y-92974207D03*
X140157198Y-93327760D03*
X140510751Y-93681313D03*
X140864305Y-94034867D03*
D71*
X141182503Y-94423775D03*
D72*
X141182503Y-94961177D03*
D73*
X140864305Y-95350085D03*
X140510751Y-95703639D03*
X140157198Y-96057192D03*
X139803645Y-96410745D03*
X139450091Y-96764299D03*
D74*
X139061183Y-97082497D03*
D75*
X138523781Y-97082497D03*
D70*
X138134873Y-96764299D03*
X137781319Y-96410745D03*
X137427766Y-96057192D03*
X137074213Y-95703639D03*
X136720659Y-95350085D03*
D76*
X136402461Y-94961177D03*
D77*
X136402461Y-94423775D03*
D73*
X136724195Y-94038402D03*
X137074213Y-93681313D03*
X137427766Y-93327760D03*
X137781319Y-92974207D03*
X138134873Y-92620653D03*
D78*
X138523781Y-92302455D03*
%TD*%
D19*
%TO.C,R148*%
X131254795Y-96165339D03*
X131742699Y-95677435D03*
%TD*%
D26*
%TO.C,U20*%
X161033817Y-87515319D03*
D27*
X160644909Y-87197121D03*
X160291355Y-86843567D03*
X159937802Y-86490014D03*
X159584249Y-86136461D03*
X159230695Y-85782907D03*
D28*
X158912497Y-85393999D03*
D29*
X158912497Y-84856597D03*
D30*
X159230695Y-84467689D03*
X159584249Y-84114135D03*
X159937802Y-83760582D03*
X160291355Y-83407029D03*
X160644909Y-83053475D03*
D31*
X161033817Y-82735277D03*
D32*
X161571219Y-82735277D03*
D27*
X161960127Y-83053475D03*
X162313681Y-83407029D03*
X162667234Y-83760582D03*
X163020787Y-84114135D03*
X163374341Y-84467689D03*
D33*
X163692539Y-84856597D03*
D34*
X163692539Y-85393999D03*
D30*
X163370805Y-85779372D03*
X163020787Y-86136461D03*
X162667234Y-86490014D03*
X162313681Y-86843567D03*
X161960127Y-87197121D03*
D35*
X161571219Y-87515319D03*
%TD*%
D15*
%TO.C,C110*%
X168031842Y-83310798D03*
X168710664Y-82631976D03*
%TD*%
D11*
%TO.C,R77*%
X158747275Y-82857460D03*
X159235179Y-83345364D03*
%TD*%
D13*
%TO.C,C32*%
X146385664Y-71706976D03*
X145706842Y-72385798D03*
%TD*%
D11*
%TO.C,C43*%
X149451027Y-92701161D03*
X149938931Y-93189065D03*
%TD*%
D10*
%TO.C,C22*%
X149735682Y-71642388D03*
X149247778Y-71154484D03*
%TD*%
%TO.C,R19*%
X146247134Y-94631582D03*
X145759230Y-94143678D03*
%TD*%
%TO.C,C40*%
X147307794Y-102904731D03*
X146819890Y-102416827D03*
%TD*%
D13*
%TO.C,C127*%
X165772474Y-90834776D03*
X165093652Y-91513598D03*
%TD*%
D11*
%TO.C,R131*%
X133690707Y-81752579D03*
X134178611Y-82240483D03*
%TD*%
%TO.C,R155*%
X137258546Y-91321136D03*
X137746450Y-91809040D03*
%TD*%
D13*
%TO.C,C158*%
X132063158Y-83506976D03*
X131384336Y-84185798D03*
%TD*%
D40*
%TO.C,U22*%
X134030118Y-87444789D03*
X133747275Y-87161947D03*
X133464432Y-86879104D03*
X133181590Y-86596261D03*
X132898747Y-86313419D03*
X132615904Y-86030576D03*
X132333062Y-85747733D03*
D41*
X132333062Y-84687073D03*
X132615904Y-84404230D03*
X132898747Y-84121387D03*
X133181590Y-83838545D03*
X133464432Y-83555702D03*
X133747275Y-83272859D03*
X134030118Y-82990017D03*
D40*
X135090778Y-82990017D03*
X135373621Y-83272859D03*
X135656464Y-83555702D03*
X135939306Y-83838545D03*
X136222149Y-84121387D03*
X136504992Y-84404230D03*
X136787834Y-84687073D03*
D41*
X136787834Y-85747733D03*
X136504992Y-86030576D03*
X136222149Y-86313419D03*
X135939306Y-86596261D03*
X135656464Y-86879104D03*
X135373621Y-87161947D03*
X135090778Y-87444789D03*
D42*
X134560448Y-85217403D03*
%TD*%
D79*
%TO.C,R87*%
X160498759Y-93821387D03*
X161188759Y-93821387D03*
%TD*%
D10*
%TO.C,R125*%
X141790205Y-83390339D03*
X141302301Y-82902435D03*
%TD*%
D11*
%TO.C,C46*%
X153277543Y-100795785D03*
X153765447Y-101283689D03*
%TD*%
D12*
%TO.C,C109*%
X168949877Y-80490213D03*
X168271055Y-79811391D03*
%TD*%
D10*
%TO.C,R128*%
X137242699Y-79315339D03*
X136754795Y-78827435D03*
%TD*%
D19*
%TO.C,C49*%
X150631196Y-101540014D03*
X151119100Y-101052110D03*
%TD*%
D16*
%TO.C,C27*%
X152548245Y-71448379D03*
X153644261Y-72544395D03*
%TD*%
D19*
%TO.C,C56*%
X154414003Y-104800567D03*
X154901907Y-104312663D03*
%TD*%
D53*
%TO.C,R137*%
X139593747Y-98971387D03*
X138903747Y-98971387D03*
%TD*%
D11*
%TO.C,C14*%
X145965034Y-83251314D03*
X146452938Y-83739218D03*
%TD*%
D13*
%TO.C,C103*%
X165774968Y-77859776D03*
X165096146Y-78538598D03*
%TD*%
D11*
%TO.C,R140*%
X136639342Y-100458931D03*
X137127246Y-100946835D03*
%TD*%
D69*
%TO.C,U26*%
X139061183Y-79302455D03*
D70*
X139450091Y-79620653D03*
X139803645Y-79974207D03*
X140157198Y-80327760D03*
X140510751Y-80681313D03*
X140864305Y-81034867D03*
D71*
X141182503Y-81423775D03*
D72*
X141182503Y-81961177D03*
D73*
X140864305Y-82350085D03*
X140510751Y-82703639D03*
X140157198Y-83057192D03*
X139803645Y-83410745D03*
X139450091Y-83764299D03*
D74*
X139061183Y-84082497D03*
D75*
X138523781Y-84082497D03*
D70*
X138134873Y-83764299D03*
X137781319Y-83410745D03*
X137427766Y-83057192D03*
X137074213Y-82703639D03*
X136720659Y-82350085D03*
D76*
X136402461Y-81961177D03*
D77*
X136402461Y-81423775D03*
D73*
X136724195Y-81038402D03*
X137074213Y-80681313D03*
X137427766Y-80327760D03*
X137781319Y-79974207D03*
X138134873Y-79620653D03*
D78*
X138523781Y-79302455D03*
%TD*%
D46*
%TO.C,C88*%
X155306581Y-95934766D03*
X154210565Y-94838750D03*
%TD*%
D12*
%TO.C,C210*%
X160975075Y-101770182D03*
X160296253Y-101091360D03*
%TD*%
D16*
%TO.C,C39*%
X148348246Y-103398379D03*
X149444262Y-104494395D03*
%TD*%
D10*
%TO.C,R82*%
X165913931Y-85564065D03*
X165426027Y-85076161D03*
%TD*%
%TO.C,C212*%
X140712278Y-79864605D03*
X140224374Y-79376701D03*
%TD*%
D17*
%TO.C,C159*%
X132417915Y-81943499D03*
X133096737Y-82622321D03*
%TD*%
D11*
%TO.C,R160*%
X135254795Y-93327435D03*
X135742699Y-93815339D03*
%TD*%
D12*
%TO.C,C179*%
X133438158Y-101460798D03*
X132759336Y-100781976D03*
%TD*%
D19*
%TO.C,R5*%
X144127301Y-81415339D03*
X144615205Y-80927435D03*
%TD*%
D80*
%TO.C,U11*%
X141388590Y-89843318D03*
D81*
X141399197Y-90030702D03*
X141964882Y-90596387D03*
X142530568Y-91162072D03*
X143096253Y-91727758D03*
X143661938Y-92293443D03*
X144227624Y-91727758D03*
X144793309Y-91162072D03*
X144227624Y-90596387D03*
X143661938Y-90030702D03*
X143096253Y-89465016D03*
X142530568Y-88899331D03*
X141964882Y-89465016D03*
%TD*%
D19*
%TO.C,R166*%
X142526027Y-81791613D03*
X143013931Y-81303709D03*
%TD*%
%TO.C,L1*%
X145882974Y-101455161D03*
X146370878Y-100967257D03*
%TD*%
D12*
%TO.C,C111*%
X167677085Y-84874275D03*
X166998263Y-84195453D03*
%TD*%
D19*
%TO.C,R45*%
X145352301Y-92640339D03*
X145840205Y-92152435D03*
%TD*%
D11*
%TO.C,R103*%
X162849807Y-100477435D03*
X163337711Y-100965339D03*
%TD*%
D79*
%TO.C,R13*%
X141021253Y-103146387D03*
X141711253Y-103146387D03*
%TD*%
D46*
%TO.C,C25*%
X142619261Y-79444395D03*
X141523245Y-78348379D03*
%TD*%
D11*
%TO.C,D1*%
X143202301Y-75202435D03*
X143690205Y-75690339D03*
%TD*%
D59*
%TO.C,C81*%
X141169387Y-87573506D03*
X140073371Y-88669522D03*
%TD*%
D10*
%TO.C,R110*%
X164837711Y-99465339D03*
X164349807Y-98977435D03*
%TD*%
D79*
%TO.C,R62*%
X160501253Y-80846387D03*
X161191253Y-80846387D03*
%TD*%
D19*
%TO.C,R29*%
X155052301Y-72090339D03*
X155540205Y-71602435D03*
%TD*%
D15*
%TO.C,C11*%
X159586318Y-76741944D03*
X160265140Y-76063122D03*
%TD*%
D19*
%TO.C,D17*%
X142653521Y-94966613D03*
X143141425Y-94478709D03*
%TD*%
D11*
%TO.C,R78*%
X162852301Y-87502435D03*
X163340205Y-87990339D03*
%TD*%
D82*
%TO.C,L3*%
X137896253Y-75846387D03*
X140046253Y-75846387D03*
%TD*%
D10*
%TO.C,R152*%
X141388931Y-96989065D03*
X140901027Y-96501161D03*
%TD*%
D11*
%TO.C,R154*%
X137753520Y-90826161D03*
X138241424Y-91314065D03*
%TD*%
M02*
