%TF.GenerationSoftware,KiCad,Pcbnew,10.0.6*%
%TF.CreationDate,2026-09-26T01:34:44+02:00*%
%TF.ProjectId,p4eregrine,70346572-6567-4726-996e-652e6b696361,rev?*%
%TF.SameCoordinates,Original*%
%TF.FileFunction,Paste,Top*%
%TF.FilePolarity,Positive*%
%FSLAX46Y46*%
G04 Gerber Fmt 4.6, Leading zero omitted, Abs format (unit mm)*
G04 Created by KiCad (PCBNEW 10.0.6) date 2026-09-26 01:34:44*
%MOMM*%
%LPD*%
G01*
G04 APERTURE LIST*
G04 Aperture macros list*
%AMRoundRect*
0 Rectangle with rounded corners*
0 $1 Rounding radius*
0 $2 $3 $4 $5 $6 $7 $8 $9 X,Y pos of 4 corners*
0 Add a 4 corners polygon primitive as box body*
4,1,4,$2,$3,$4,$5,$6,$7,$8,$9,$2,$3,0*
0 Add four circle primitives for the rounded corners*
1,1,$1+$1,$2,$3*
1,1,$1+$1,$4,$5*
1,1,$1+$1,$6,$7*
1,1,$1+$1,$8,$9*
0 Add four rect primitives between the rounded corners*
20,1,$1+$1,$2,$3,$4,$5,0*
20,1,$1+$1,$4,$5,$6,$7,0*
20,1,$1+$1,$6,$7,$8,$9,0*
20,1,$1+$1,$8,$9,$2,$3,0*%
G04 Aperture macros list end*
%ADD10RoundRect,0.250000X0.325000X1.100000X-0.325000X1.100000X-0.325000X-1.100000X0.325000X-1.100000X0*%
%ADD11R,0.400000X1.050000*%
%ADD12O,0.400000X1.050000*%
%ADD13O,0.600000X0.200000*%
%ADD14R,0.600000X0.950000*%
%ADD15R,0.300000X0.950000*%
%ADD16RoundRect,0.079500X0.079500X0.100500X-0.079500X0.100500X-0.079500X-0.100500X0.079500X-0.100500X0*%
%ADD17RoundRect,0.250000X-0.250000X-0.475000X0.250000X-0.475000X0.250000X0.475000X-0.250000X0.475000X0*%
%ADD18RoundRect,0.079500X-0.079500X-0.100500X0.079500X-0.100500X0.079500X0.100500X-0.079500X0.100500X0*%
%ADD19RoundRect,0.079500X0.100500X-0.079500X0.100500X0.079500X-0.100500X0.079500X-0.100500X-0.079500X0*%
%ADD20R,0.400000X0.800000*%
%ADD21R,2.600000X2.000000*%
%ADD22R,0.400000X0.750000*%
%ADD23R,0.800000X0.400000*%
%ADD24R,2.000000X2.600000*%
%ADD25R,0.750000X0.400000*%
%ADD26RoundRect,0.250000X-0.325000X-1.100000X0.325000X-1.100000X0.325000X1.100000X-0.325000X1.100000X0*%
%ADD27RoundRect,0.250000X0.435000X0.615000X-0.435000X0.615000X-0.435000X-0.615000X0.435000X-0.615000X0*%
%ADD28RoundRect,0.125000X0.250000X0.125000X-0.250000X0.125000X-0.250000X-0.125000X0.250000X-0.125000X0*%
%ADD29R,0.420000X0.600000*%
%ADD30RoundRect,0.225000X-0.225000X-0.250000X0.225000X-0.250000X0.225000X0.250000X-0.225000X0.250000X0*%
%ADD31R,0.500000X1.500000*%
%ADD32R,2.000000X1.700000*%
%ADD33R,1.500000X2.900000*%
%ADD34R,1.500000X0.800000*%
%ADD35RoundRect,0.250000X0.850000X-0.375000X0.850000X0.375000X-0.850000X0.375000X-0.850000X-0.375000X0*%
%ADD36RoundRect,0.225000X0.225000X0.250000X-0.225000X0.250000X-0.225000X-0.250000X0.225000X-0.250000X0*%
%ADD37RoundRect,0.225000X-0.250000X0.225000X-0.250000X-0.225000X0.250000X-0.225000X0.250000X0.225000X0*%
%ADD38RoundRect,0.075000X0.075000X0.075000X-0.075000X0.075000X-0.075000X-0.075000X0.075000X-0.075000X0*%
%ADD39RoundRect,0.225000X0.250000X-0.225000X0.250000X0.225000X-0.250000X0.225000X-0.250000X-0.225000X0*%
%ADD40RoundRect,0.050000X0.285000X0.100000X-0.285000X0.100000X-0.285000X-0.100000X0.285000X-0.100000X0*%
%ADD41RoundRect,0.079500X-0.100500X0.079500X-0.100500X-0.079500X0.100500X-0.079500X0.100500X0.079500X0*%
G04 APERTURE END LIST*
D10*
%TO.C,C193*%
X144573747Y-94921387D03*
X141623747Y-94921387D03*
%TD*%
D11*
%TO.C,U9*%
X150662500Y-99227500D03*
D12*
X149962500Y-99227500D03*
D13*
X149162500Y-99147500D03*
X149162500Y-99647500D03*
X149162500Y-100147500D03*
X149162500Y-100647500D03*
D12*
X149962500Y-100577500D03*
X150662500Y-100577500D03*
D13*
X151462500Y-100647500D03*
X151462500Y-100147500D03*
X151462500Y-99647500D03*
X151462500Y-99147500D03*
%TD*%
D14*
%TO.C,USB1*%
X154400000Y-105435000D03*
X155200000Y-105435000D03*
D15*
X156350000Y-105435000D03*
X157350000Y-105435000D03*
X157850000Y-105435000D03*
X158850000Y-105435000D03*
D14*
X160800000Y-105435000D03*
X160000000Y-105435000D03*
D15*
X159350000Y-105435000D03*
X158350000Y-105435000D03*
X156850000Y-105435000D03*
X155850000Y-105435000D03*
%TD*%
D16*
%TO.C,R11*%
X156441253Y-104296387D03*
X155751253Y-104296387D03*
%TD*%
D17*
%TO.C,C80*%
X151200000Y-97350000D03*
X153100000Y-97350000D03*
%TD*%
D18*
%TO.C,R94*%
X163368759Y-90071387D03*
X164058759Y-90071387D03*
%TD*%
D19*
%TO.C,R34*%
X147700000Y-100667500D03*
X147700000Y-99977500D03*
%TD*%
D10*
%TO.C,C200*%
X144573747Y-78721387D03*
X141623747Y-78721387D03*
%TD*%
D18*
%TO.C,C73*%
X152155000Y-99922500D03*
X152845000Y-99922500D03*
%TD*%
D20*
%TO.C,Q14*%
X165873759Y-98131387D03*
X165213759Y-98131387D03*
D21*
X164893759Y-96931387D03*
D20*
X164563759Y-98131387D03*
X163913759Y-98131387D03*
D22*
X163913759Y-95071387D03*
X165873759Y-95071387D03*
X165213759Y-95071387D03*
X164563759Y-95071387D03*
%TD*%
D23*
%TO.C,Q17*%
X140208747Y-87061387D03*
X140208747Y-87721387D03*
D24*
X139008747Y-88041387D03*
D23*
X140208747Y-88371387D03*
X140208747Y-89021387D03*
D25*
X137148747Y-89021387D03*
X137148747Y-87061387D03*
X137148747Y-87721387D03*
X137148747Y-88371387D03*
%TD*%
D19*
%TO.C,C65*%
X146757500Y-96595000D03*
X146757500Y-95905000D03*
%TD*%
D23*
%TO.C,Q5*%
X159886253Y-79756387D03*
X159886253Y-79096387D03*
D24*
X161086253Y-78776387D03*
D23*
X159886253Y-78446387D03*
X159886253Y-77796387D03*
D25*
X162946253Y-77796387D03*
X162946253Y-79756387D03*
X162946253Y-79096387D03*
X162946253Y-78446387D03*
%TD*%
D16*
%TO.C,R41*%
X148677500Y-98025000D03*
X147987500Y-98025000D03*
%TD*%
D20*
%TO.C,Q10*%
X163916253Y-86166387D03*
X164576253Y-86166387D03*
D21*
X164896253Y-87366387D03*
D20*
X165226253Y-86166387D03*
X165876253Y-86166387D03*
D22*
X165876253Y-89226387D03*
X163916253Y-89226387D03*
X164576253Y-89226387D03*
X165226253Y-89226387D03*
%TD*%
D10*
%TO.C,C201*%
X144573747Y-91721387D03*
X141623747Y-91721387D03*
%TD*%
D20*
%TO.C,Q20*%
X134218747Y-81661387D03*
X134878747Y-81661387D03*
D21*
X135198747Y-82861387D03*
D20*
X135528747Y-81661387D03*
X136178747Y-81661387D03*
D22*
X136178747Y-84721387D03*
X134218747Y-84721387D03*
X134878747Y-84721387D03*
X135528747Y-84721387D03*
%TD*%
D16*
%TO.C,R10*%
X159441253Y-104296387D03*
X158751253Y-104296387D03*
%TD*%
D20*
%TO.C,Q26*%
X134218747Y-94661387D03*
X134878747Y-94661387D03*
D21*
X135198747Y-95861387D03*
D20*
X135528747Y-94661387D03*
X136178747Y-94661387D03*
D22*
X136178747Y-97721387D03*
X134218747Y-97721387D03*
X134878747Y-97721387D03*
X135528747Y-97721387D03*
%TD*%
D18*
%TO.C,R95*%
X166928759Y-94121387D03*
X167618759Y-94121387D03*
%TD*%
D26*
%TO.C,C199*%
X155518759Y-101071387D03*
X158468759Y-101071387D03*
%TD*%
%TO.C,C113*%
X155521253Y-78496387D03*
X158471253Y-78496387D03*
%TD*%
D16*
%TO.C,R39*%
X152845000Y-100622500D03*
X152155000Y-100622500D03*
%TD*%
D23*
%TO.C,Q23*%
X140208747Y-100061387D03*
X140208747Y-100721387D03*
D24*
X139008747Y-101041387D03*
D23*
X140208747Y-101371387D03*
X140208747Y-102021387D03*
D25*
X137148747Y-102021387D03*
X137148747Y-100061387D03*
X137148747Y-100721387D03*
X137148747Y-101371387D03*
%TD*%
D20*
%TO.C,Q24*%
X136178747Y-101801387D03*
X135518747Y-101801387D03*
D21*
X135198747Y-100601387D03*
D20*
X134868747Y-101801387D03*
X134218747Y-101801387D03*
D22*
X134218747Y-98741387D03*
X136178747Y-98741387D03*
X135518747Y-98741387D03*
X134868747Y-98741387D03*
%TD*%
D10*
%TO.C,C162*%
X144573747Y-85121387D03*
X141623747Y-85121387D03*
%TD*%
%TO.C,C185*%
X144573747Y-101321387D03*
X141623747Y-101321387D03*
%TD*%
D27*
%TO.C,U3*%
X150246253Y-85826387D03*
X150246253Y-83676387D03*
X148546253Y-85826387D03*
X148546253Y-83676387D03*
D28*
X152096253Y-86656387D03*
X152096253Y-85386387D03*
X152096253Y-84116387D03*
X152096253Y-82846387D03*
X146696253Y-82846387D03*
X146696253Y-84116387D03*
X146696253Y-85386387D03*
X146696253Y-86656387D03*
%TD*%
D29*
%TO.C,U8*%
X150546253Y-102246387D03*
X149896253Y-102246387D03*
X149246253Y-102246387D03*
X149246253Y-104146387D03*
X149896253Y-104146387D03*
X150546253Y-104146387D03*
%TD*%
D30*
%TO.C,C75*%
X139021253Y-76196387D03*
X140571253Y-76196387D03*
%TD*%
D19*
%TO.C,C76*%
X147450000Y-96145000D03*
X147450000Y-95455000D03*
%TD*%
%TO.C,R72*%
X153596253Y-88541387D03*
X153596253Y-87851387D03*
%TD*%
D10*
%TO.C,C161*%
X144573747Y-88321387D03*
X141623747Y-88321387D03*
%TD*%
D23*
%TO.C,Q21*%
X140208747Y-78111387D03*
X140208747Y-78771387D03*
D24*
X139008747Y-79091387D03*
D23*
X140208747Y-79421387D03*
X140208747Y-80071387D03*
D25*
X137148747Y-80071387D03*
X137148747Y-78111387D03*
X137148747Y-78771387D03*
X137148747Y-79421387D03*
%TD*%
D31*
%TO.C,U10*%
X155696253Y-75808887D03*
X154696253Y-75808887D03*
X153696253Y-75808887D03*
X152696253Y-75808887D03*
X151696253Y-75808887D03*
X150696253Y-75808887D03*
X149696253Y-75808887D03*
X148696253Y-75808887D03*
X147696253Y-75808887D03*
X146696253Y-75808887D03*
X145696253Y-75808887D03*
X144696253Y-75808887D03*
X143696253Y-75808887D03*
X142696253Y-75808887D03*
X141696253Y-75808887D03*
D32*
X139496253Y-73368887D03*
X157896253Y-73208887D03*
%TD*%
D19*
%TO.C,R71*%
X152846253Y-88541387D03*
X152846253Y-87851387D03*
%TD*%
D10*
%TO.C,C186*%
X144573747Y-98121387D03*
X141623747Y-98121387D03*
%TD*%
%TO.C,C169*%
X144573747Y-81921387D03*
X141623747Y-81921387D03*
%TD*%
D33*
%TO.C,R3*%
X150613753Y-107574676D03*
X148513753Y-107574676D03*
D34*
X150613753Y-105254676D03*
X148513753Y-105254676D03*
%TD*%
D19*
%TO.C,R35*%
X148400000Y-99967500D03*
X148400000Y-99277500D03*
%TD*%
D16*
%TO.C,R4*%
X146537500Y-98075000D03*
X145847500Y-98075000D03*
%TD*%
D35*
%TO.C,L5*%
X149100000Y-94200000D03*
X149100000Y-92050000D03*
%TD*%
D36*
%TO.C,C82*%
X152775000Y-90600000D03*
X151225000Y-90600000D03*
%TD*%
D26*
%TO.C,C138*%
X155518759Y-94671387D03*
X158468759Y-94671387D03*
%TD*%
D20*
%TO.C,Q18*%
X136178747Y-88801387D03*
X135518747Y-88801387D03*
D21*
X135198747Y-87601387D03*
D20*
X134868747Y-88801387D03*
X134218747Y-88801387D03*
D22*
X134218747Y-85741387D03*
X136178747Y-85741387D03*
X135518747Y-85741387D03*
X134868747Y-85741387D03*
%TD*%
D23*
%TO.C,Q13*%
X159883759Y-98181387D03*
X159883759Y-97521387D03*
D24*
X161083759Y-97201387D03*
D23*
X159883759Y-96871387D03*
X159883759Y-96221387D03*
D25*
X162943759Y-96221387D03*
X162943759Y-98181387D03*
X162943759Y-97521387D03*
X162943759Y-96871387D03*
%TD*%
D23*
%TO.C,Q11*%
X159883759Y-92731387D03*
X159883759Y-92071387D03*
D24*
X161083759Y-91751387D03*
D23*
X159883759Y-91421387D03*
X159883759Y-90771387D03*
D25*
X162943759Y-90771387D03*
X162943759Y-92731387D03*
X162943759Y-92071387D03*
X162943759Y-91421387D03*
%TD*%
D23*
%TO.C,Q9*%
X159886253Y-88706387D03*
X159886253Y-88046387D03*
D24*
X161086253Y-87726387D03*
D23*
X159886253Y-87396387D03*
X159886253Y-86746387D03*
D25*
X162946253Y-86746387D03*
X162946253Y-88706387D03*
X162946253Y-88046387D03*
X162946253Y-87396387D03*
%TD*%
D37*
%TO.C,C90*%
X147800000Y-88525000D03*
X147800000Y-90075000D03*
%TD*%
D38*
%TO.C,U15*%
X157946253Y-103196387D03*
X157246253Y-103196387D03*
X157596253Y-104046387D03*
%TD*%
D26*
%TO.C,C198*%
X155521253Y-88096387D03*
X158471253Y-88096387D03*
%TD*%
D16*
%TO.C,R42*%
X150082500Y-98025000D03*
X149392500Y-98025000D03*
%TD*%
D20*
%TO.C,Q22*%
X136178747Y-80651387D03*
X135518747Y-80651387D03*
D21*
X135198747Y-79451387D03*
D20*
X134868747Y-80651387D03*
X134218747Y-80651387D03*
D22*
X134218747Y-77591387D03*
X136178747Y-77591387D03*
X135518747Y-77591387D03*
X134868747Y-77591387D03*
%TD*%
D23*
%TO.C,Q25*%
X140208747Y-94611387D03*
X140208747Y-95271387D03*
D24*
X139008747Y-95591387D03*
D23*
X140208747Y-95921387D03*
X140208747Y-96571387D03*
D25*
X137148747Y-96571387D03*
X137148747Y-94611387D03*
X137148747Y-95271387D03*
X137148747Y-95921387D03*
%TD*%
D39*
%TO.C,C78*%
X152750000Y-93600000D03*
X152750000Y-92050000D03*
%TD*%
D16*
%TO.C,R120*%
X133163747Y-85671387D03*
X132473747Y-85671387D03*
%TD*%
D40*
%TO.C,U17*%
X149875000Y-97125000D03*
X149875000Y-96625000D03*
X149875000Y-96125000D03*
X149875000Y-95625000D03*
X148395000Y-95625000D03*
X148395000Y-96125000D03*
X148395000Y-96625000D03*
X148395000Y-97125000D03*
%TD*%
D16*
%TO.C,R145*%
X133163747Y-98671387D03*
X132473747Y-98671387D03*
%TD*%
D23*
%TO.C,Q19*%
X140208747Y-81611387D03*
X140208747Y-82271387D03*
D24*
X139008747Y-82591387D03*
D23*
X140208747Y-82921387D03*
X140208747Y-83571387D03*
D25*
X137148747Y-83571387D03*
X137148747Y-81611387D03*
X137148747Y-82271387D03*
X137148747Y-82921387D03*
%TD*%
D26*
%TO.C,C121*%
X155521253Y-84896387D03*
X158471253Y-84896387D03*
%TD*%
D20*
%TO.C,Q12*%
X163913759Y-90991387D03*
X164573759Y-90991387D03*
D21*
X164893759Y-92191387D03*
D20*
X165223759Y-90991387D03*
X165873759Y-90991387D03*
D22*
X165873759Y-94051387D03*
X163913759Y-94051387D03*
X164573759Y-94051387D03*
X165223759Y-94051387D03*
%TD*%
D26*
%TO.C,C145*%
X155518759Y-97871387D03*
X158468759Y-97871387D03*
%TD*%
D20*
%TO.C,Q8*%
X165876253Y-85156387D03*
X165216253Y-85156387D03*
D21*
X164896253Y-83956387D03*
D20*
X164566253Y-85156387D03*
X163916253Y-85156387D03*
D22*
X163916253Y-82096387D03*
X165876253Y-82096387D03*
X165216253Y-82096387D03*
X164566253Y-82096387D03*
%TD*%
D19*
%TO.C,R86*%
X154346254Y-88541387D03*
X154346254Y-87851387D03*
%TD*%
D23*
%TO.C,Q7*%
X159886253Y-85206387D03*
X159886253Y-84546387D03*
D24*
X161086253Y-84226387D03*
D23*
X159886253Y-83896387D03*
X159886253Y-83246387D03*
D25*
X162946253Y-83246387D03*
X162946253Y-85206387D03*
X162946253Y-84546387D03*
X162946253Y-83896387D03*
%TD*%
D16*
%TO.C,R119*%
X136723747Y-89721387D03*
X136033747Y-89721387D03*
%TD*%
D19*
%TO.C,R40*%
X147257500Y-98020000D03*
X147257500Y-97330000D03*
%TD*%
D26*
%TO.C,C137*%
X155518759Y-91471387D03*
X158468759Y-91471387D03*
%TD*%
D16*
%TO.C,R12*%
X151161253Y-87896387D03*
X150471253Y-87896387D03*
%TD*%
D26*
%TO.C,C114*%
X155521253Y-81696387D03*
X158471253Y-81696387D03*
%TD*%
D18*
%TO.C,R69*%
X163355000Y-77096387D03*
X164045000Y-77096387D03*
%TD*%
D23*
%TO.C,Q27*%
X140208747Y-91111387D03*
X140208747Y-91771387D03*
D24*
X139008747Y-92091387D03*
D23*
X140208747Y-92421387D03*
X140208747Y-93071387D03*
D25*
X137148747Y-93071387D03*
X137148747Y-91111387D03*
X137148747Y-91771387D03*
X137148747Y-92421387D03*
%TD*%
D16*
%TO.C,D2*%
X146545000Y-97300000D03*
X145855000Y-97300000D03*
%TD*%
D17*
%TO.C,C79*%
X151200000Y-95325000D03*
X153100000Y-95325000D03*
%TD*%
D41*
%TO.C,C34*%
X146725000Y-87935000D03*
X146725000Y-88625000D03*
%TD*%
D20*
%TO.C,Q28*%
X136178747Y-93651387D03*
X135518747Y-93651387D03*
D21*
X135198747Y-92451387D03*
D20*
X134868747Y-93651387D03*
X134218747Y-93651387D03*
D22*
X134218747Y-90591387D03*
X136178747Y-90591387D03*
X135518747Y-90591387D03*
X134868747Y-90591387D03*
%TD*%
D18*
%TO.C,R70*%
X166931253Y-81146387D03*
X167621253Y-81146387D03*
%TD*%
D39*
%TO.C,C77*%
X151250000Y-93600000D03*
X151250000Y-92050000D03*
%TD*%
D16*
%TO.C,R144*%
X136723747Y-102721387D03*
X136033747Y-102721387D03*
%TD*%
D37*
%TO.C,C87*%
X149300000Y-88525000D03*
X149300000Y-90075000D03*
%TD*%
D20*
%TO.C,Q6*%
X163916253Y-78016387D03*
X164576253Y-78016387D03*
D21*
X164896253Y-79216387D03*
D20*
X165226253Y-78016387D03*
X165876253Y-78016387D03*
D22*
X165876253Y-81076387D03*
X163916253Y-81076387D03*
X164576253Y-81076387D03*
X165226253Y-81076387D03*
%TD*%
D20*
%TO.C,Q16*%
X163913759Y-99141387D03*
X164573759Y-99141387D03*
D21*
X164893759Y-100341387D03*
D20*
X165223759Y-99141387D03*
X165873759Y-99141387D03*
D22*
X165873759Y-102201387D03*
X163913759Y-102201387D03*
X164573759Y-102201387D03*
X165223759Y-102201387D03*
%TD*%
D23*
%TO.C,Q15*%
X159883759Y-101681387D03*
X159883759Y-101021387D03*
D24*
X161083759Y-100701387D03*
D23*
X159883759Y-100371387D03*
X159883759Y-99721387D03*
D25*
X162943759Y-99721387D03*
X162943759Y-101681387D03*
X162943759Y-101021387D03*
X162943759Y-100371387D03*
%TD*%
D41*
%TO.C,C61*%
X148496253Y-102431387D03*
X148496253Y-103121387D03*
%TD*%
D19*
%TO.C,R43*%
X151296253Y-104141387D03*
X151296253Y-103451387D03*
%TD*%
M02*
