%TF.GenerationSoftware,KiCad,Pcbnew,10.0.6*%
%TF.CreationDate,2026-09-26T01:34:44+02:00*%
%TF.ProjectId,p4eregrine,70346572-6567-4726-996e-652e6b696361,rev?*%
%TF.SameCoordinates,Original*%
%TF.FileFunction,Legend,Top*%
%TF.FilePolarity,Positive*%
%FSLAX46Y46*%
G04 Gerber Fmt 4.6, Leading zero omitted, Abs format (unit mm)*
G04 Created by KiCad (PCBNEW 10.0.6) date 2026-09-26 01:34:44*
%MOMM*%
%LPD*%
G01*
G04 APERTURE LIST*
%ADD10C,0.200000*%
%ADD11C,0.300000*%
%ADD12C,0.250000*%
%ADD13C,0.100000*%
%ADD14C,0.253779*%
%ADD15C,0.150000*%
%ADD16C,0.120000*%
%ADD17C,0.060000*%
%ADD18C,0.240000*%
G04 APERTURE END LIST*
D10*
X131196253Y-90196387D02*
X133196253Y-90196387D01*
D11*
X131396253Y-74596387D02*
X131396253Y-76996387D01*
X131396253Y-74596387D02*
G75*
G02*
X131715231Y-73158577I3400047J-13D01*
G01*
X131396253Y-105096389D02*
X131396253Y-102696389D01*
X131715230Y-106534200D02*
G75*
G02*
X131396262Y-105096389I3081070J1437800D01*
G01*
D12*
X132421253Y-72096387D02*
G75*
G02*
X132171253Y-72096387I-125000J0D01*
G01*
X132171253Y-72096387D02*
G75*
G02*
X132421253Y-72096387I125000J0D01*
G01*
X132421253Y-107596389D02*
G75*
G02*
X132171253Y-107596389I-125000J0D01*
G01*
X132171253Y-107596389D02*
G75*
G02*
X132421253Y-107596389I125000J0D01*
G01*
D11*
X133358442Y-71515364D02*
G75*
G02*
X134796253Y-71196368I1437858J-3081036D01*
G01*
X134796253Y-71196387D02*
X137196253Y-71196387D01*
X134796253Y-108496389D02*
G75*
G02*
X133358451Y-108177393I47J3399989D01*
G01*
X134796253Y-108496389D02*
X137196253Y-108496389D01*
D10*
X159796253Y-73096387D02*
X159396253Y-73496387D01*
X159796253Y-73096387D02*
X159796253Y-76096387D01*
X159796253Y-73096387D02*
X160196253Y-73496387D01*
D13*
X159796253Y-76096387D02*
X159796253Y-73096387D01*
D14*
X159923142Y-76096387D02*
G75*
G02*
X159669364Y-76096387I-126889J0D01*
G01*
X159669364Y-76096387D02*
G75*
G02*
X159923142Y-76096387I126889J0D01*
G01*
D10*
X160362057Y-76096387D02*
G75*
G02*
X159230449Y-76096387I-565804J0D01*
G01*
X159230449Y-76096387D02*
G75*
G02*
X160362057Y-76096387I565804J0D01*
G01*
X159796253Y-76096387D02*
X162796253Y-76096387D01*
X162796253Y-76096387D02*
X162396253Y-75696387D01*
X162796253Y-76096387D02*
X162396253Y-76496387D01*
D11*
X165296253Y-108496387D02*
X162896253Y-108496387D01*
X165296300Y-71200600D02*
X162896300Y-71200600D01*
X165296300Y-71200600D02*
G75*
G02*
X166734111Y-71519577I0J-3400000D01*
G01*
X166734064Y-108177410D02*
G75*
G02*
X165296253Y-108496369I-1437764J3081010D01*
G01*
D10*
X166896253Y-89696387D02*
X168896253Y-89696387D01*
D12*
X167921253Y-107596387D02*
G75*
G02*
X167671253Y-107596387I-125000J0D01*
G01*
X167671253Y-107596387D02*
G75*
G02*
X167921253Y-107596387I125000J0D01*
G01*
X167921300Y-72100600D02*
G75*
G02*
X167671300Y-72100600I-125000J0D01*
G01*
X167671300Y-72100600D02*
G75*
G02*
X167921300Y-72100600I125000J0D01*
G01*
D11*
X168377323Y-73162789D02*
G75*
G02*
X168696300Y-74600600I-3081023J-1437811D01*
G01*
X168696253Y-105096387D02*
G75*
G02*
X168377285Y-106534202I-3400053J-13D01*
G01*
X168696253Y-105096387D02*
X168696253Y-102696387D01*
X168696300Y-74600600D02*
X168696300Y-77000600D01*
D10*
X139365926Y-105282653D02*
X140127831Y-105282653D01*
X144365926Y-105282653D02*
X145127831Y-105282653D01*
X144746878Y-105663606D02*
X144746878Y-104901701D01*
D15*
G36*
X146651341Y-80370277D02*
G01*
X146703489Y-80385404D01*
X146744237Y-80408788D01*
X146775758Y-80440298D01*
X146799147Y-80481026D01*
X146814275Y-80533139D01*
X146819801Y-80599652D01*
X146819801Y-80759021D01*
X146813643Y-80828916D01*
X146796844Y-80882916D01*
X146770872Y-80924490D01*
X146735684Y-80956025D01*
X146689741Y-80978534D01*
X146847827Y-81287990D01*
X146824014Y-81330000D01*
X146650540Y-81330000D01*
X146479876Y-80993921D01*
X146316172Y-80993921D01*
X146316172Y-81330000D01*
X146114733Y-81330000D01*
X146114733Y-80812021D01*
X146316172Y-80812021D01*
X146576413Y-80812021D01*
X146600233Y-80807105D01*
X146613443Y-80793908D01*
X146618361Y-80770134D01*
X146618361Y-80588539D01*
X146613443Y-80564766D01*
X146600233Y-80551568D01*
X146576413Y-80546652D01*
X146316172Y-80546652D01*
X146316172Y-80812021D01*
X146114733Y-80812021D01*
X146114733Y-80364752D01*
X146584778Y-80364752D01*
X146651341Y-80370277D01*
G37*
G36*
X147468882Y-80596736D02*
G01*
X147519162Y-80611318D01*
X147558449Y-80633859D01*
X147588839Y-80664232D01*
X147611387Y-80703488D01*
X147625971Y-80753717D01*
X147631297Y-80817822D01*
X147631297Y-81033000D01*
X147189218Y-81033000D01*
X147189218Y-81117203D01*
X147194477Y-81142733D01*
X147208584Y-81156881D01*
X147233975Y-81162144D01*
X147603332Y-81162144D01*
X147603332Y-81267046D01*
X147519373Y-81330000D01*
X147222801Y-81330000D01*
X147158611Y-81324670D01*
X147108321Y-81310080D01*
X147069023Y-81287524D01*
X147038623Y-81257129D01*
X147016064Y-81217841D01*
X147001473Y-81167568D01*
X146996144Y-81103403D01*
X146996144Y-80818005D01*
X146997315Y-80803900D01*
X147189218Y-80803900D01*
X147189218Y-80881936D01*
X147438285Y-80881936D01*
X147438285Y-80803900D01*
X147433036Y-80778578D01*
X147418927Y-80764510D01*
X147393466Y-80759265D01*
X147233975Y-80759265D01*
X147208555Y-80764507D01*
X147194462Y-80778573D01*
X147189218Y-80803900D01*
X146997315Y-80803900D01*
X147001473Y-80753840D01*
X147016064Y-80703567D01*
X147038623Y-80664280D01*
X147069023Y-80633885D01*
X147108321Y-80611329D01*
X147158611Y-80596739D01*
X147222801Y-80591409D01*
X147404701Y-80591409D01*
X147468882Y-80596736D01*
G37*
G36*
X147746580Y-80620779D02*
G01*
X147766181Y-80591409D01*
X147932693Y-80591409D01*
X148103358Y-81162144D01*
X148117341Y-81162144D01*
X148288005Y-80591409D01*
X148454518Y-80591409D01*
X148474118Y-80620779D01*
X148251674Y-81330000D01*
X147969024Y-81330000D01*
X147746580Y-80620779D01*
G37*
G36*
X149740762Y-81292203D02*
G01*
X149715605Y-81330000D01*
X149547688Y-81330000D01*
X149488948Y-81134605D01*
X149111226Y-81134605D01*
X149052424Y-81330000D01*
X148884569Y-81330000D01*
X148859351Y-81292203D01*
X148964336Y-80952705D01*
X149165753Y-80952705D01*
X149434359Y-80952705D01*
X149311261Y-80546652D01*
X149288852Y-80546652D01*
X149165753Y-80952705D01*
X148964336Y-80952705D01*
X149146153Y-80364752D01*
X149453960Y-80364752D01*
X149740762Y-81292203D01*
G37*
G36*
X150232850Y-81611367D02*
G01*
X150232850Y-80294410D01*
X150406324Y-80294410D01*
X150406324Y-81611367D01*
X150232850Y-81611367D01*
G37*
G36*
X150945856Y-81330000D02*
G01*
X150945856Y-81015232D01*
X150951257Y-80951584D01*
X150966131Y-80901150D01*
X150989287Y-80861211D01*
X151020692Y-80829828D01*
X151061474Y-80806051D01*
X151113773Y-80790040D01*
X151372609Y-80738260D01*
X151392027Y-80730000D01*
X151403349Y-80715352D01*
X151407536Y-80692098D01*
X151407536Y-80588600D01*
X151402615Y-80564786D01*
X151389402Y-80551573D01*
X151365587Y-80546652D01*
X150973883Y-80546652D01*
X150973883Y-80437536D01*
X151067611Y-80364752D01*
X151373953Y-80364752D01*
X151440529Y-80370279D01*
X151492689Y-80385412D01*
X151533448Y-80408807D01*
X151564978Y-80440332D01*
X151588375Y-80481081D01*
X151603509Y-80533223D01*
X151609036Y-80599774D01*
X151609036Y-80690694D01*
X151603634Y-80754365D01*
X151588759Y-80804816D01*
X151565602Y-80844766D01*
X151534195Y-80876155D01*
X151493415Y-80899935D01*
X151441120Y-80915947D01*
X151182344Y-80967726D01*
X151162892Y-80975960D01*
X151151552Y-80990605D01*
X151147356Y-81013888D01*
X151147356Y-81148100D01*
X151609036Y-81148100D01*
X151609036Y-81330000D01*
X150945856Y-81330000D01*
G37*
G36*
X151737997Y-80983175D02*
G01*
X151737997Y-80818066D01*
X152157728Y-80818066D01*
X152157728Y-80983175D01*
X151737997Y-80983175D01*
G37*
G36*
X152300305Y-81257215D02*
G01*
X152300305Y-81148100D01*
X152705992Y-81148100D01*
X152729795Y-81143170D01*
X152743014Y-81129924D01*
X152747941Y-81106029D01*
X152747941Y-80965650D01*
X152743014Y-80941755D01*
X152729795Y-80928509D01*
X152705992Y-80923579D01*
X152403803Y-80923579D01*
X152403803Y-80741680D01*
X152705992Y-80741680D01*
X152729824Y-80736771D01*
X152743029Y-80723607D01*
X152747941Y-80699914D01*
X152747941Y-80588417D01*
X152743029Y-80564724D01*
X152729824Y-80551560D01*
X152705992Y-80546652D01*
X152314288Y-80546652D01*
X152314288Y-80437536D01*
X152408016Y-80364752D01*
X152714357Y-80364752D01*
X152780957Y-80370275D01*
X152833127Y-80385394D01*
X152873886Y-80408764D01*
X152905409Y-80440247D01*
X152928794Y-80480933D01*
X152943918Y-80532984D01*
X152949441Y-80599408D01*
X152949441Y-80688801D01*
X152945341Y-80724593D01*
X152933651Y-80754389D01*
X152914453Y-80779537D01*
X152865483Y-80828447D01*
X152914453Y-80877479D01*
X152933651Y-80902742D01*
X152945342Y-80932641D01*
X152949441Y-80968520D01*
X152949441Y-81094610D01*
X152943909Y-81161289D01*
X152928766Y-81213523D01*
X152905358Y-81254335D01*
X152873819Y-81285901D01*
X152833060Y-81309321D01*
X152780911Y-81324467D01*
X152714357Y-81330000D01*
X152394033Y-81330000D01*
X152300305Y-81257215D01*
G37*
G36*
X153095193Y-81257215D02*
G01*
X153095193Y-81148100D01*
X153528907Y-81148100D01*
X153552762Y-81143176D01*
X153565992Y-81129959D01*
X153570917Y-81106151D01*
X153570917Y-81004057D01*
X153566725Y-80980810D01*
X153555386Y-80966160D01*
X153535929Y-80957896D01*
X153263110Y-80903368D01*
X153210815Y-80887357D01*
X153170034Y-80863577D01*
X153138628Y-80832188D01*
X153115471Y-80792238D01*
X153100595Y-80741787D01*
X153095193Y-80678115D01*
X153095193Y-80599774D01*
X153100721Y-80533223D01*
X153115854Y-80481081D01*
X153139251Y-80440332D01*
X153170782Y-80408807D01*
X153211541Y-80385412D01*
X153263700Y-80370279D01*
X153330277Y-80364752D01*
X153650601Y-80364752D01*
X153744391Y-80437536D01*
X153744391Y-80546652D01*
X153338642Y-80546652D01*
X153314828Y-80551573D01*
X153301614Y-80564786D01*
X153296693Y-80588600D01*
X153296693Y-80679520D01*
X153300885Y-80702767D01*
X153312224Y-80717417D01*
X153331681Y-80725682D01*
X153604439Y-80780270D01*
X153656739Y-80796281D01*
X153697520Y-80820058D01*
X153728926Y-80851441D01*
X153752081Y-80891380D01*
X153766955Y-80941814D01*
X153772356Y-81005462D01*
X153772356Y-81094977D01*
X153766829Y-81161532D01*
X153751698Y-81213676D01*
X153728306Y-81254425D01*
X153696782Y-81285949D01*
X153656033Y-81309341D01*
X153603889Y-81324473D01*
X153537334Y-81330000D01*
X153188982Y-81330000D01*
X153095193Y-81257215D01*
G37*
D10*
G36*
X159369768Y-72594208D02*
G01*
X159611752Y-72252878D01*
X159376729Y-71919975D01*
X159392117Y-71887796D01*
X159569803Y-71887796D01*
X159719524Y-72108836D01*
X159869184Y-71887796D01*
X160046871Y-71887796D01*
X160062258Y-71919975D01*
X159827235Y-72252878D01*
X160069280Y-72594208D01*
X160053893Y-72626387D01*
X159876206Y-72626387D01*
X159719524Y-72398386D01*
X159562781Y-72626387D01*
X159385156Y-72626387D01*
X159369768Y-72594208D01*
G37*
G36*
X160558740Y-74930000D02*
G01*
X160558740Y-74784553D01*
X160904344Y-74359265D01*
X160572723Y-74359265D01*
X160572723Y-74191409D01*
X161151945Y-74191409D01*
X161151945Y-74336856D01*
X160807807Y-74762144D01*
X161165928Y-74762144D01*
X161165928Y-74930000D01*
X160558740Y-74930000D01*
G37*
G36*
X162125157Y-74220779D02*
G01*
X162144757Y-74191409D01*
X162311270Y-74191409D01*
X162481934Y-74762144D01*
X162495917Y-74762144D01*
X162666582Y-74191409D01*
X162833094Y-74191409D01*
X162852695Y-74220840D01*
X162543483Y-75211367D01*
X162377032Y-75211367D01*
X162357431Y-75181814D01*
X162441390Y-74930000D01*
X162347601Y-74930000D01*
X162125157Y-74220779D01*
G37*
D12*
G36*
X150763826Y-78927001D02*
G01*
X150508516Y-78927001D01*
X150476755Y-78919651D01*
X150459132Y-78899913D01*
X150452569Y-78864341D01*
X150452569Y-78425632D01*
X150459132Y-78390060D01*
X150476755Y-78370322D01*
X150508516Y-78362971D01*
X150763826Y-78362971D01*
X150763826Y-78927001D01*
G37*
G36*
X146350298Y-78072190D02*
G01*
X146366808Y-78090643D01*
X146372952Y-78123870D01*
X146372952Y-78416570D01*
X146366808Y-78449797D01*
X146350298Y-78468250D01*
X146320516Y-78475128D01*
X145995215Y-78475128D01*
X145995215Y-78065312D01*
X146320516Y-78065312D01*
X146350298Y-78072190D01*
G37*
G36*
X148003804Y-78370314D02*
G01*
X148021440Y-78390010D01*
X148028001Y-78425461D01*
X148028001Y-78534711D01*
X147716668Y-78534711D01*
X147716668Y-78425461D01*
X147723223Y-78390002D01*
X147740839Y-78370310D01*
X147772615Y-78362971D01*
X147971978Y-78362971D01*
X148003804Y-78370314D01*
G37*
G36*
X149728158Y-78370314D02*
G01*
X149745795Y-78390010D01*
X149752356Y-78425461D01*
X149752356Y-78534711D01*
X149441022Y-78534711D01*
X149441022Y-78425461D01*
X149447578Y-78390002D01*
X149465194Y-78370310D01*
X149496969Y-78362971D01*
X149696332Y-78362971D01*
X149728158Y-78370314D01*
G37*
G36*
X154003629Y-78370314D02*
G01*
X154021266Y-78390010D01*
X154027827Y-78425461D01*
X154027827Y-78534711D01*
X153716493Y-78534711D01*
X153716493Y-78425461D01*
X153723049Y-78390002D01*
X153740665Y-78370310D01*
X153772440Y-78362971D01*
X153971803Y-78362971D01*
X154003629Y-78370314D01*
G37*
G36*
X154424649Y-79711470D02*
G01*
X145587860Y-79711470D01*
X145587860Y-78475128D01*
X145743416Y-78475128D01*
X145743416Y-79162000D01*
X145995215Y-79162000D01*
X145995215Y-78729787D01*
X146330973Y-78729787D01*
X146414196Y-78722056D01*
X146479389Y-78700891D01*
X146530324Y-78668177D01*
X146569719Y-78624101D01*
X146598946Y-78567142D01*
X146617847Y-78494268D01*
X146624751Y-78401269D01*
X146624751Y-78322674D01*
X146774349Y-78322674D01*
X146774349Y-78470477D01*
X147143537Y-78470477D01*
X147143537Y-78597593D01*
X147304585Y-78597593D01*
X147304585Y-78445208D01*
X147475325Y-78445208D01*
X147475325Y-78844765D01*
X147481987Y-78934596D01*
X147500226Y-79004978D01*
X147528424Y-79059981D01*
X147566424Y-79102534D01*
X147615547Y-79134112D01*
X147678409Y-79154538D01*
X147758647Y-79162000D01*
X148129362Y-79162000D01*
X148234310Y-79073864D01*
X148234310Y-78927001D01*
X147772615Y-78927001D01*
X147740875Y-78919633D01*
X147723242Y-78899826D01*
X147716668Y-78864084D01*
X147716668Y-78746200D01*
X148269267Y-78746200D01*
X148269267Y-78444951D01*
X148262609Y-78355204D01*
X148244379Y-78284883D01*
X148232212Y-78261159D01*
X148500840Y-78261159D01*
X148500840Y-79162000D01*
X148742182Y-79162000D01*
X148742182Y-78445208D01*
X149199680Y-78445208D01*
X149199680Y-78844765D01*
X149206342Y-78934596D01*
X149224580Y-79004978D01*
X149252778Y-79059981D01*
X149290779Y-79102534D01*
X149339901Y-79134112D01*
X149402764Y-79154538D01*
X149483001Y-79162000D01*
X149853716Y-79162000D01*
X149958664Y-79073864D01*
X149958664Y-78927001D01*
X149496969Y-78927001D01*
X149465230Y-78919633D01*
X149447596Y-78899826D01*
X149441022Y-78864084D01*
X149441022Y-78746200D01*
X149993622Y-78746200D01*
X149993622Y-78445208D01*
X150211227Y-78445208D01*
X150211227Y-78844765D01*
X150217888Y-78934601D01*
X150236124Y-79004986D01*
X150264316Y-79059988D01*
X150302308Y-79102539D01*
X150351418Y-79134115D01*
X150414261Y-79154539D01*
X150494472Y-79162000D01*
X150763826Y-79162000D01*
X150763826Y-79257315D01*
X150757222Y-79293511D01*
X150739561Y-79313502D01*
X150707879Y-79320916D01*
X150289919Y-79320916D01*
X150289919Y-79467779D01*
X150394791Y-79555914D01*
X150721847Y-79555914D01*
X150802056Y-79548447D01*
X150864905Y-79528001D01*
X150914028Y-79496388D01*
X150952039Y-79453777D01*
X150980250Y-79398686D01*
X150998501Y-79328176D01*
X151005169Y-79238167D01*
X151005169Y-78261159D01*
X151243687Y-78261159D01*
X151243687Y-79162000D01*
X151485030Y-79162000D01*
X151956571Y-79162000D01*
X152197913Y-79162000D01*
X152449941Y-79162000D01*
X152691284Y-79162000D01*
X152691284Y-78362971D01*
X152946594Y-78362971D01*
X152978355Y-78370322D01*
X152995978Y-78390060D01*
X153002541Y-78425632D01*
X153002541Y-79162000D01*
X153243883Y-79162000D01*
X153243883Y-78445208D01*
X153475151Y-78445208D01*
X153475151Y-78844765D01*
X153481813Y-78934596D01*
X153500051Y-79004978D01*
X153528249Y-79059981D01*
X153566250Y-79102534D01*
X153615372Y-79134112D01*
X153678235Y-79154538D01*
X153758472Y-79162000D01*
X154129187Y-79162000D01*
X154234135Y-79073864D01*
X154234135Y-78927001D01*
X153772440Y-78927001D01*
X153740701Y-78919633D01*
X153723068Y-78899826D01*
X153716493Y-78864084D01*
X153716493Y-78746200D01*
X154269093Y-78746200D01*
X154269093Y-78444951D01*
X154262434Y-78355204D01*
X154244205Y-78284883D01*
X154216019Y-78229925D01*
X154178032Y-78187403D01*
X154128923Y-78155845D01*
X154066073Y-78135430D01*
X153985847Y-78127973D01*
X153758472Y-78127973D01*
X153678235Y-78135434D01*
X153615372Y-78155861D01*
X153566250Y-78187439D01*
X153528249Y-78229992D01*
X153500051Y-78284995D01*
X153481813Y-78355377D01*
X153476615Y-78425461D01*
X153475151Y-78445208D01*
X153243883Y-78445208D01*
X153237221Y-78355377D01*
X153218983Y-78284995D01*
X153190785Y-78229992D01*
X153152784Y-78187439D01*
X153103662Y-78155861D01*
X153040799Y-78135434D01*
X152960562Y-78127973D01*
X152449941Y-78127973D01*
X152449941Y-79162000D01*
X152197913Y-79162000D01*
X152197913Y-78127973D01*
X151956571Y-78127973D01*
X151956571Y-79162000D01*
X151485030Y-79162000D01*
X151485030Y-78388446D01*
X151507775Y-78370239D01*
X151549754Y-78362971D01*
X151785830Y-78362971D01*
X151785830Y-78216108D01*
X151680882Y-78127973D01*
X151492052Y-78127973D01*
X151417558Y-78134317D01*
X151358007Y-78151788D01*
X151310503Y-78178829D01*
X151272841Y-78215028D01*
X151243687Y-78261159D01*
X151005169Y-78261159D01*
X151005169Y-78127973D01*
X150494472Y-78127973D01*
X150414261Y-78135433D01*
X150351418Y-78155857D01*
X150302308Y-78187433D01*
X150264316Y-78229984D01*
X150236124Y-78284987D01*
X150217888Y-78355371D01*
X150212678Y-78425632D01*
X150211227Y-78445208D01*
X149993622Y-78445208D01*
X149993622Y-78444951D01*
X149986963Y-78355204D01*
X149968734Y-78284883D01*
X149940548Y-78229925D01*
X149902561Y-78187403D01*
X149853452Y-78155845D01*
X149790602Y-78135430D01*
X149710376Y-78127973D01*
X149483001Y-78127973D01*
X149402764Y-78135434D01*
X149339901Y-78155861D01*
X149290779Y-78187439D01*
X149252778Y-78229992D01*
X149224580Y-78284995D01*
X149206342Y-78355377D01*
X149201144Y-78425461D01*
X149199680Y-78445208D01*
X148742182Y-78445208D01*
X148742182Y-78388446D01*
X148764927Y-78370239D01*
X148806907Y-78362971D01*
X149042983Y-78362971D01*
X149042983Y-78216108D01*
X148938035Y-78127973D01*
X148749204Y-78127973D01*
X148674711Y-78134317D01*
X148615160Y-78151788D01*
X148567656Y-78178829D01*
X148529994Y-78215028D01*
X148500840Y-78261159D01*
X148232212Y-78261159D01*
X148216194Y-78229925D01*
X148178207Y-78187403D01*
X148129097Y-78155845D01*
X148066248Y-78135430D01*
X147986022Y-78127973D01*
X147758647Y-78127973D01*
X147678409Y-78135434D01*
X147615547Y-78155861D01*
X147566424Y-78187439D01*
X147528424Y-78229992D01*
X147500226Y-78284995D01*
X147481987Y-78355377D01*
X147476789Y-78425461D01*
X147475325Y-78445208D01*
X147304585Y-78445208D01*
X147304585Y-78061431D01*
X147143537Y-78061431D01*
X147143537Y-78307628D01*
X146951120Y-78307628D01*
X147090851Y-77958371D01*
X151953060Y-77958371D01*
X152201348Y-77958371D01*
X152201348Y-77695761D01*
X151953060Y-77695761D01*
X151953060Y-77958371D01*
X147090851Y-77958371D01*
X147165901Y-77770782D01*
X147146895Y-77733169D01*
X147010425Y-77733169D01*
X146774349Y-78322674D01*
X146624751Y-78322674D01*
X146624751Y-78139172D01*
X146617847Y-78046172D01*
X146598946Y-77973298D01*
X146569719Y-77916339D01*
X146530324Y-77872263D01*
X146479389Y-77839549D01*
X146414196Y-77818384D01*
X146330973Y-77810653D01*
X145743416Y-77810653D01*
X145743416Y-78475128D01*
X145587860Y-78475128D01*
X145587860Y-77540205D01*
X154424649Y-77540205D01*
X154424649Y-79711470D01*
G37*
D15*
X155861905Y-100891819D02*
X155861905Y-101701342D01*
X155861905Y-101701342D02*
X155909524Y-101796580D01*
X155909524Y-101796580D02*
X155957143Y-101844200D01*
X155957143Y-101844200D02*
X156052381Y-101891819D01*
X156052381Y-101891819D02*
X156242857Y-101891819D01*
X156242857Y-101891819D02*
X156338095Y-101844200D01*
X156338095Y-101844200D02*
X156385714Y-101796580D01*
X156385714Y-101796580D02*
X156433333Y-101701342D01*
X156433333Y-101701342D02*
X156433333Y-100891819D01*
X156861905Y-101844200D02*
X157004762Y-101891819D01*
X157004762Y-101891819D02*
X157242857Y-101891819D01*
X157242857Y-101891819D02*
X157338095Y-101844200D01*
X157338095Y-101844200D02*
X157385714Y-101796580D01*
X157385714Y-101796580D02*
X157433333Y-101701342D01*
X157433333Y-101701342D02*
X157433333Y-101606104D01*
X157433333Y-101606104D02*
X157385714Y-101510866D01*
X157385714Y-101510866D02*
X157338095Y-101463247D01*
X157338095Y-101463247D02*
X157242857Y-101415628D01*
X157242857Y-101415628D02*
X157052381Y-101368009D01*
X157052381Y-101368009D02*
X156957143Y-101320390D01*
X156957143Y-101320390D02*
X156909524Y-101272771D01*
X156909524Y-101272771D02*
X156861905Y-101177533D01*
X156861905Y-101177533D02*
X156861905Y-101082295D01*
X156861905Y-101082295D02*
X156909524Y-100987057D01*
X156909524Y-100987057D02*
X156957143Y-100939438D01*
X156957143Y-100939438D02*
X157052381Y-100891819D01*
X157052381Y-100891819D02*
X157290476Y-100891819D01*
X157290476Y-100891819D02*
X157433333Y-100939438D01*
X158195238Y-101368009D02*
X158338095Y-101415628D01*
X158338095Y-101415628D02*
X158385714Y-101463247D01*
X158385714Y-101463247D02*
X158433333Y-101558485D01*
X158433333Y-101558485D02*
X158433333Y-101701342D01*
X158433333Y-101701342D02*
X158385714Y-101796580D01*
X158385714Y-101796580D02*
X158338095Y-101844200D01*
X158338095Y-101844200D02*
X158242857Y-101891819D01*
X158242857Y-101891819D02*
X157861905Y-101891819D01*
X157861905Y-101891819D02*
X157861905Y-100891819D01*
X157861905Y-100891819D02*
X158195238Y-100891819D01*
X158195238Y-100891819D02*
X158290476Y-100939438D01*
X158290476Y-100939438D02*
X158338095Y-100987057D01*
X158338095Y-100987057D02*
X158385714Y-101082295D01*
X158385714Y-101082295D02*
X158385714Y-101177533D01*
X158385714Y-101177533D02*
X158338095Y-101272771D01*
X158338095Y-101272771D02*
X158290476Y-101320390D01*
X158290476Y-101320390D02*
X158195238Y-101368009D01*
X158195238Y-101368009D02*
X157861905Y-101368009D01*
X159385714Y-101891819D02*
X158814286Y-101891819D01*
X159100000Y-101891819D02*
X159100000Y-100891819D01*
X159100000Y-100891819D02*
X159004762Y-101034676D01*
X159004762Y-101034676D02*
X158909524Y-101129914D01*
X158909524Y-101129914D02*
X158814286Y-101177533D01*
%TO.C,C193*%
D16*
X143809999Y-93561387D02*
X142387495Y-93561387D01*
X143809999Y-96281387D02*
X142387495Y-96281387D01*
%TO.C,U9*%
D10*
X149062500Y-98797500D02*
X149062500Y-98847500D01*
X149062500Y-100947500D02*
X149062500Y-100997500D01*
X149572500Y-98797500D02*
X149062500Y-98797500D01*
X149572500Y-100997500D02*
X149062500Y-100997500D01*
X151562500Y-98797500D02*
X151062500Y-98797500D01*
X151562500Y-98797500D02*
X151562500Y-98847500D01*
X151562500Y-100947500D02*
X151562500Y-100997500D01*
X151562500Y-100997500D02*
X151052500Y-100997500D01*
X150912500Y-98397500D02*
G75*
G02*
X150712500Y-98397500I-100000J0D01*
G01*
X150712500Y-98397500D02*
G75*
G02*
X150912500Y-98397500I100000J0D01*
G01*
D17*
X151592500Y-98897500D02*
G75*
G02*
X151532500Y-98897500I-30000J0D01*
G01*
X151532500Y-98897500D02*
G75*
G02*
X151592500Y-98897500I30000J0D01*
G01*
%TO.C,USB1*%
D12*
X153280000Y-105815000D02*
X153870000Y-105815000D01*
X153280000Y-106685000D02*
X153280000Y-105815000D01*
X161920000Y-105815000D02*
X161330000Y-105815000D01*
X161920000Y-106685000D02*
X161920000Y-105815000D01*
%TO.C,C80*%
D16*
X151888748Y-96615000D02*
X152411252Y-96615000D01*
X151888748Y-98085000D02*
X152411252Y-98085000D01*
%TO.C,C200*%
X143809999Y-77361387D02*
X142387495Y-77361387D01*
X143809999Y-80081387D02*
X142387495Y-80081387D01*
%TO.C,Q14*%
D10*
X166443759Y-94801387D02*
G75*
G02*
X166243759Y-94801387I-100000J0D01*
G01*
X166243759Y-94801387D02*
G75*
G02*
X166443759Y-94801387I100000J0D01*
G01*
%TO.C,Q17*%
X136978747Y-86591387D02*
G75*
G02*
X136778747Y-86591387I-100000J0D01*
G01*
X136778747Y-86591387D02*
G75*
G02*
X136978747Y-86591387I100000J0D01*
G01*
%TO.C,Q5*%
X163316253Y-80226387D02*
G75*
G02*
X163116253Y-80226387I-100000J0D01*
G01*
X163116253Y-80226387D02*
G75*
G02*
X163316253Y-80226387I100000J0D01*
G01*
%TO.C,Q10*%
X163546253Y-89496387D02*
G75*
G02*
X163346253Y-89496387I-100000J0D01*
G01*
X163346253Y-89496387D02*
G75*
G02*
X163546253Y-89496387I100000J0D01*
G01*
%TO.C,C201*%
D16*
X143809999Y-90361387D02*
X142387495Y-90361387D01*
X143809999Y-93081387D02*
X142387495Y-93081387D01*
%TO.C,Q20*%
D10*
X133848747Y-84991387D02*
G75*
G02*
X133648747Y-84991387I-100000J0D01*
G01*
X133648747Y-84991387D02*
G75*
G02*
X133848747Y-84991387I100000J0D01*
G01*
%TO.C,Q26*%
X133848747Y-97991387D02*
G75*
G02*
X133648747Y-97991387I-100000J0D01*
G01*
X133648747Y-97991387D02*
G75*
G02*
X133848747Y-97991387I100000J0D01*
G01*
%TO.C,C199*%
D16*
X156282507Y-99711387D02*
X157705011Y-99711387D01*
X156282507Y-102431387D02*
X157705011Y-102431387D01*
%TO.C,C113*%
X156285001Y-77136387D02*
X157707505Y-77136387D01*
X156285001Y-79856387D02*
X157707505Y-79856387D01*
%TO.C,Q23*%
D10*
X136978747Y-99591387D02*
G75*
G02*
X136778747Y-99591387I-100000J0D01*
G01*
X136778747Y-99591387D02*
G75*
G02*
X136978747Y-99591387I100000J0D01*
G01*
%TO.C,Q24*%
X136748747Y-98471387D02*
G75*
G02*
X136548747Y-98471387I-100000J0D01*
G01*
X136548747Y-98471387D02*
G75*
G02*
X136748747Y-98471387I100000J0D01*
G01*
%TO.C,C162*%
D16*
X143809999Y-83761387D02*
X142387495Y-83761387D01*
X143809999Y-86481387D02*
X142387495Y-86481387D01*
%TO.C,C185*%
X143809999Y-99961387D02*
X142387495Y-99961387D01*
X143809999Y-102681387D02*
X142387495Y-102681387D01*
%TO.C,U3*%
X146286253Y-82141387D02*
X152506253Y-82141387D01*
X146286253Y-82336387D02*
X146286253Y-82141387D01*
X146286253Y-87361387D02*
X146286253Y-87166387D01*
X152506253Y-82141387D02*
X152506253Y-82336387D01*
X152506253Y-87166387D02*
X152506253Y-87361387D01*
X152506253Y-87361387D02*
X146286253Y-87361387D01*
X152736253Y-86661387D02*
X153066253Y-86421387D01*
X153066252Y-86901387D01*
X152736253Y-86661387D01*
G36*
X153066252Y-86901387D02*
G01*
X152736253Y-86661387D01*
X153066253Y-86421387D01*
X153066252Y-86901387D01*
G37*
%TO.C,U8*%
D10*
X148796253Y-103896387D02*
X148796253Y-102496387D01*
X150996253Y-103896387D02*
X150996253Y-102496387D01*
X151036253Y-102226387D02*
G75*
G02*
X151036280Y-102229019I130000J0D01*
G01*
D17*
X150926253Y-102146387D02*
G75*
G02*
X150866253Y-102146387I-30000J0D01*
G01*
X150866253Y-102146387D02*
G75*
G02*
X150926253Y-102146387I30000J0D01*
G01*
%TO.C,C75*%
D16*
X139655673Y-75686387D02*
X139936833Y-75686387D01*
X139655673Y-76706387D02*
X139936833Y-76706387D01*
%TO.C,C161*%
X143809999Y-86961387D02*
X142387495Y-86961387D01*
X143809999Y-89681387D02*
X142387495Y-89681387D01*
%TO.C,Q21*%
D10*
X136978747Y-77641387D02*
G75*
G02*
X136778747Y-77641387I-100000J0D01*
G01*
X136778747Y-77641387D02*
G75*
G02*
X136978747Y-77641387I100000J0D01*
G01*
%TO.C,U10*%
D12*
X138746253Y-70158887D02*
X138746253Y-72288887D01*
X138746253Y-74448887D02*
X138746253Y-75358887D01*
X138746253Y-75358887D02*
X141216253Y-75358887D01*
X142176253Y-75358887D02*
X142216253Y-75358887D01*
X143176253Y-75358887D02*
X143216253Y-75358887D01*
X144176253Y-75358887D02*
X144216253Y-75358887D01*
X145176253Y-75358887D02*
X145216253Y-75358887D01*
X146176253Y-75358887D02*
X146216253Y-75358887D01*
X147176253Y-75358887D02*
X147216253Y-75358887D01*
X148176253Y-75358887D02*
X148216253Y-75358887D01*
X149176253Y-75358887D02*
X149216253Y-75358887D01*
X150176253Y-75358887D02*
X150216253Y-75358887D01*
X151176253Y-75358887D02*
X151216253Y-75358887D01*
X152176253Y-75358887D02*
X152216253Y-75358887D01*
X153176253Y-75358887D02*
X153216253Y-75358887D01*
X154176253Y-75358887D02*
X154216253Y-75358887D01*
X155176253Y-75358887D02*
X155216253Y-75358887D01*
X156176253Y-75358887D02*
X158596253Y-75358887D01*
X156456253Y-75788887D02*
X156716253Y-75528887D01*
X156716253Y-75528887D02*
X156716253Y-76038887D01*
X156716253Y-76038887D02*
X156456253Y-75788887D01*
X158646253Y-72128887D02*
X158646253Y-70158887D01*
X158646253Y-75358887D02*
X158646253Y-74288887D01*
D17*
X158676253Y-76198887D02*
G75*
G02*
X158616253Y-76198887I-30000J0D01*
G01*
X158616253Y-76198887D02*
G75*
G02*
X158676253Y-76198887I30000J0D01*
G01*
%TO.C,C186*%
D16*
X143809999Y-96761387D02*
X142387495Y-96761387D01*
X143809999Y-99481387D02*
X142387495Y-99481387D01*
%TO.C,C169*%
X143809999Y-80561387D02*
X142387495Y-80561387D01*
X143809999Y-83281387D02*
X142387495Y-83281387D01*
%TO.C,R3*%
D15*
X147553753Y-104554676D02*
X149233753Y-104554676D01*
X147553753Y-109244676D02*
X147553753Y-104554676D01*
X151583753Y-104554676D02*
X149893753Y-104554676D01*
X151583753Y-104554676D02*
X151583753Y-109244676D01*
X151583753Y-109244676D02*
X147553753Y-109244676D01*
X149893753Y-104554676D02*
G75*
G02*
X149231039Y-104548098I-330000J140001D01*
G01*
D18*
X147293753Y-104764676D02*
G75*
G02*
X147053753Y-104764676I-120000J0D01*
G01*
X147053753Y-104764676D02*
G75*
G02*
X147293753Y-104764676I120000J0D01*
G01*
D17*
X148043753Y-104844676D02*
G75*
G02*
X147983753Y-104844676I-30000J0D01*
G01*
X147983753Y-104844676D02*
G75*
G02*
X148043753Y-104844676I30000J0D01*
G01*
%TO.C,L5*%
D16*
X147990000Y-93386252D02*
X147990000Y-92863748D01*
X150210000Y-93386252D02*
X150210000Y-92863748D01*
%TO.C,C82*%
X152140580Y-90090000D02*
X151859420Y-90090000D01*
X152140580Y-91110000D02*
X151859420Y-91110000D01*
%TO.C,C138*%
X156282507Y-93311387D02*
X157705011Y-93311387D01*
X156282507Y-96031387D02*
X157705011Y-96031387D01*
%TO.C,Q18*%
D10*
X136748747Y-85471387D02*
G75*
G02*
X136548747Y-85471387I-100000J0D01*
G01*
X136548747Y-85471387D02*
G75*
G02*
X136748747Y-85471387I100000J0D01*
G01*
%TO.C,Q13*%
X163313759Y-98651387D02*
G75*
G02*
X163113759Y-98651387I-100000J0D01*
G01*
X163113759Y-98651387D02*
G75*
G02*
X163313759Y-98651387I100000J0D01*
G01*
%TO.C,Q11*%
X163313759Y-93201387D02*
G75*
G02*
X163113759Y-93201387I-100000J0D01*
G01*
X163113759Y-93201387D02*
G75*
G02*
X163313759Y-93201387I100000J0D01*
G01*
%TO.C,Q9*%
X163316253Y-89176387D02*
G75*
G02*
X163116253Y-89176387I-100000J0D01*
G01*
X163116253Y-89176387D02*
G75*
G02*
X163316253Y-89176387I100000J0D01*
G01*
%TO.C,C90*%
D16*
X147290000Y-89159420D02*
X147290000Y-89440580D01*
X148310000Y-89159420D02*
X148310000Y-89440580D01*
%TO.C,U15*%
X156946253Y-103621387D02*
X156946253Y-104171387D01*
X156946253Y-104171387D02*
X157146253Y-104171387D01*
X158246253Y-103621387D02*
X158246253Y-104171387D01*
X158246253Y-104171387D02*
X158046253Y-104171387D01*
X158356253Y-103191387D02*
X158356253Y-102911387D01*
X158636253Y-103191387D01*
X158356253Y-103191387D01*
G36*
X158636253Y-103191387D02*
G01*
X158356253Y-103191387D01*
X158356253Y-102911387D01*
X158636253Y-103191387D01*
G37*
%TO.C,C198*%
X156285001Y-86736387D02*
X157707505Y-86736387D01*
X156285001Y-89456387D02*
X157707505Y-89456387D01*
%TO.C,Q22*%
D10*
X136748747Y-77321387D02*
G75*
G02*
X136548747Y-77321387I-100000J0D01*
G01*
X136548747Y-77321387D02*
G75*
G02*
X136748747Y-77321387I100000J0D01*
G01*
%TO.C,Q25*%
X136978747Y-94141387D02*
G75*
G02*
X136778747Y-94141387I-100000J0D01*
G01*
X136778747Y-94141387D02*
G75*
G02*
X136978747Y-94141387I100000J0D01*
G01*
%TO.C,C78*%
D16*
X152240000Y-92965580D02*
X152240000Y-92684420D01*
X153260000Y-92965580D02*
X153260000Y-92684420D01*
%TO.C,U17*%
X148485000Y-95215000D02*
X149785000Y-95215000D01*
X148485000Y-97535000D02*
X149535000Y-97535000D01*
X149895000Y-97535000D02*
X150175000Y-97535000D01*
X149895000Y-97815000D01*
X149895000Y-97535000D01*
G36*
X149895000Y-97815000D02*
G01*
X149895000Y-97535000D01*
X150175000Y-97535000D01*
X149895000Y-97815000D01*
G37*
%TO.C,Q19*%
D10*
X136978747Y-81141387D02*
G75*
G02*
X136778747Y-81141387I-100000J0D01*
G01*
X136778747Y-81141387D02*
G75*
G02*
X136978747Y-81141387I100000J0D01*
G01*
%TO.C,C121*%
D16*
X156285001Y-83536387D02*
X157707505Y-83536387D01*
X156285001Y-86256387D02*
X157707505Y-86256387D01*
%TO.C,Q12*%
D10*
X163543759Y-94321387D02*
G75*
G02*
X163343759Y-94321387I-100000J0D01*
G01*
X163343759Y-94321387D02*
G75*
G02*
X163543759Y-94321387I100000J0D01*
G01*
%TO.C,C145*%
D16*
X156282507Y-96511387D02*
X157705011Y-96511387D01*
X156282507Y-99231387D02*
X157705011Y-99231387D01*
%TO.C,Q8*%
D10*
X166446253Y-81826387D02*
G75*
G02*
X166246253Y-81826387I-100000J0D01*
G01*
X166246253Y-81826387D02*
G75*
G02*
X166446253Y-81826387I100000J0D01*
G01*
%TO.C,Q7*%
X163316253Y-85676387D02*
G75*
G02*
X163116253Y-85676387I-100000J0D01*
G01*
X163116253Y-85676387D02*
G75*
G02*
X163316253Y-85676387I100000J0D01*
G01*
%TO.C,C137*%
D16*
X156282507Y-90111387D02*
X157705011Y-90111387D01*
X156282507Y-92831387D02*
X157705011Y-92831387D01*
%TO.C,C114*%
X156285001Y-80336387D02*
X157707505Y-80336387D01*
X156285001Y-83056387D02*
X157707505Y-83056387D01*
%TO.C,Q27*%
D10*
X136978747Y-90641387D02*
G75*
G02*
X136778747Y-90641387I-100000J0D01*
G01*
X136778747Y-90641387D02*
G75*
G02*
X136978747Y-90641387I100000J0D01*
G01*
%TO.C,D2*%
D13*
X147110000Y-97300000D02*
G75*
G02*
X147010000Y-97300000I-50000J0D01*
G01*
X147010000Y-97300000D02*
G75*
G02*
X147110000Y-97300000I50000J0D01*
G01*
%TO.C,C79*%
D16*
X151888748Y-94590000D02*
X152411252Y-94590000D01*
X151888748Y-96060000D02*
X152411252Y-96060000D01*
%TO.C,Q28*%
D10*
X136748747Y-90321387D02*
G75*
G02*
X136548747Y-90321387I-100000J0D01*
G01*
X136548747Y-90321387D02*
G75*
G02*
X136748747Y-90321387I100000J0D01*
G01*
%TO.C,C77*%
D16*
X150740000Y-92965580D02*
X150740000Y-92684420D01*
X151760000Y-92965580D02*
X151760000Y-92684420D01*
%TO.C,C87*%
X148790000Y-89159420D02*
X148790000Y-89440580D01*
X149810000Y-89159420D02*
X149810000Y-89440580D01*
%TO.C,Q6*%
D10*
X163546253Y-81346387D02*
G75*
G02*
X163346253Y-81346387I-100000J0D01*
G01*
X163346253Y-81346387D02*
G75*
G02*
X163546253Y-81346387I100000J0D01*
G01*
%TO.C,Q16*%
X163543759Y-102471387D02*
G75*
G02*
X163343759Y-102471387I-100000J0D01*
G01*
X163343759Y-102471387D02*
G75*
G02*
X163543759Y-102471387I100000J0D01*
G01*
%TO.C,Q15*%
X163313759Y-102151387D02*
G75*
G02*
X163113759Y-102151387I-100000J0D01*
G01*
X163113759Y-102151387D02*
G75*
G02*
X163313759Y-102151387I100000J0D01*
G01*
%TD*%
M02*
