%TF.GenerationSoftware,KiCad,Pcbnew,10.0.6*%
%TF.CreationDate,2026-09-26T01:34:44+02:00*%
%TF.ProjectId,p4eregrine,70346572-6567-4726-996e-652e6b696361,rev?*%
%TF.SameCoordinates,Original*%
%TF.FileFunction,Soldermask,Bot*%
%TF.FilePolarity,Negative*%
%FSLAX46Y46*%
G04 Gerber Fmt 4.6, Leading zero omitted, Abs format (unit mm)*
G04 Created by KiCad (PCBNEW 10.0.6) date 2026-09-26 01:34:44*
%MOMM*%
%LPD*%
G01*
G04 APERTURE LIST*
G04 Aperture macros list*
%AMRoundRect*
0 Rectangle with rounded corners*
0 $1 Rounding radius*
0 $2 $3 $4 $5 $6 $7 $8 $9 X,Y pos of 4 corners*
0 Add a 4 corners polygon primitive as box body*
4,1,4,$2,$3,$4,$5,$6,$7,$8,$9,$2,$3,0*
0 Add four circle primitives for the rounded corners*
1,1,$1+$1,$2,$3*
1,1,$1+$1,$4,$5*
1,1,$1+$1,$6,$7*
1,1,$1+$1,$8,$9*
0 Add four rect primitives between the rounded corners*
20,1,$1+$1,$2,$3,$4,$5,0*
20,1,$1+$1,$4,$5,$6,$7,0*
20,1,$1+$1,$6,$7,$8,$9,0*
20,1,$1+$1,$8,$9,$2,$3,0*%
%AMHorizOval*
0 Thick line with rounded ends*
0 $1 width*
0 $2 $3 position (X,Y) of the first rounded end (center of the circle)*
0 $4 $5 position (X,Y) of the second rounded end (center of the circle)*
0 Add line between two ends*
20,1,$1,$2,$3,$4,$5,0*
0 Add two circle primitives to create the rounded ends*
1,1,$1,$2,$3*
1,1,$1,$4,$5*%
%AMRotRect*
0 Rectangle, with rotation*
0 The origin of the aperture is its center*
0 $1 length*
0 $2 width*
0 $3 Rotation angle, in degrees counterclockwise*
0 Add horizontal line*
21,1,$1,$2,0,0,$3*%
%AMFreePoly0*
4,1,14,0.185240,0.435354,0.199885,0.399999,0.199885,-0.275057,0.185240,-0.310412,0.149885,-0.325057,0.099899,-0.325057,0.064544,-0.310414,-0.185492,-0.060401,-0.200139,-0.025046,-0.200140,0.399999,-0.185494,0.435354,-0.150139,0.449999,0.149885,0.449999,0.185240,0.435354,0.185240,0.435354,$1*%
%AMFreePoly1*
4,1,14,0.185240,0.435354,0.199885,0.399999,0.199885,-0.024968,0.185239,-0.060325,-0.064799,-0.310337,-0.100152,-0.324980,-0.150139,-0.324980,-0.185494,-0.310335,-0.200139,-0.274980,-0.200140,0.399999,-0.185494,0.435354,-0.150139,0.449999,0.149885,0.449999,0.185240,0.435354,0.185240,0.435354,$1*%
%AMFreePoly2*
4,1,14,0.435354,0.185240,0.449999,0.149885,0.449999,-0.150139,0.435354,-0.185494,0.399999,-0.200140,-0.275057,-0.200139,-0.310411,-0.185494,-0.325057,-0.150139,-0.325057,-0.100152,-0.310414,-0.064798,-0.060401,0.185239,-0.025046,0.199885,0.399999,0.199885,0.435354,0.185240,0.435354,0.185240,$1*%
%AMFreePoly3*
4,1,14,0.435354,0.185240,0.449999,0.149885,0.449999,-0.150139,0.435354,-0.185494,0.399999,-0.200140,-0.024968,-0.200140,-0.060325,-0.185493,-0.310337,0.064544,-0.324980,0.099898,-0.324980,0.149885,-0.310335,0.185239,-0.274980,0.199885,0.399999,0.199885,0.435354,0.185240,0.435354,0.185240,$1*%
%AMFreePoly4*
4,1,14,-0.064798,0.310414,0.185239,0.060401,0.199885,0.025046,0.199885,-0.399999,0.185240,-0.435354,0.149885,-0.449999,-0.150139,-0.449999,-0.185494,-0.435354,-0.200140,-0.399999,-0.200139,0.275057,-0.185494,0.310411,-0.150139,0.325057,-0.100152,0.325057,-0.064798,0.310414,-0.064798,0.310414,$1*%
%AMFreePoly5*
4,1,14,0.185215,0.310335,0.199860,0.274982,0.199885,-0.399998,0.185242,-0.435353,0.149887,-0.449999,-0.150139,-0.449999,-0.185494,-0.435354,-0.200140,-0.399999,-0.200140,0.024968,-0.185493,0.060325,0.064544,0.310337,0.099898,0.324980,0.149860,0.324981,0.185215,0.310335,0.185215,0.310335,$1*%
%AMFreePoly6*
4,1,14,0.310412,0.185266,0.325057,0.149911,0.325057,0.099899,0.310414,0.064544,0.060401,-0.185492,0.025046,-0.200139,-0.400002,-0.200114,-0.435356,-0.185467,-0.449999,-0.150114,-0.449999,0.149911,-0.435354,0.185266,-0.399999,0.199910,0.275057,0.199911,0.310412,0.185266,0.310412,0.185266,$1*%
%AMFreePoly7*
4,1,15,0.060323,0.185240,0.060325,0.185239,0.310337,-0.064799,0.324980,-0.100152,0.324980,-0.150139,0.310335,-0.185494,0.274980,-0.200139,-0.399999,-0.200140,-0.435354,-0.185494,-0.449999,-0.150139,-0.449999,0.149885,-0.435354,0.185240,-0.399999,0.199885,0.024968,0.199885,0.060323,0.185240,0.060323,0.185240,$1*%
G04 Aperture macros list end*
%ADD10C,0.000000*%
%ADD11O,1.200000X1.600000*%
%ADD12RoundRect,0.750000X-1.250000X-0.750000X1.250000X-0.750000X1.250000X0.750000X-1.250000X0.750000X0*%
%ADD13RoundRect,0.100000X0.162635X-0.021213X-0.021213X0.162635X-0.162635X0.021213X0.021213X-0.162635X0*%
%ADD14C,1.000000*%
%ADD15RoundRect,0.100000X-0.162635X0.021213X0.021213X-0.162635X0.162635X-0.021213X-0.021213X0.162635X0*%
%ADD16RoundRect,0.140000X0.219203X0.021213X0.021213X0.219203X-0.219203X-0.021213X-0.021213X-0.219203X0*%
%ADD17RoundRect,0.140000X-0.021213X0.219203X-0.219203X0.021213X0.021213X-0.219203X0.219203X-0.021213X0*%
%ADD18RoundRect,0.100000X0.021213X0.162635X-0.162635X-0.021213X-0.021213X-0.162635X0.162635X0.021213X0*%
%ADD19RoundRect,0.140000X0.021213X-0.219203X0.219203X-0.021213X-0.021213X0.219203X-0.219203X0.021213X0*%
%ADD20RoundRect,0.225000X-0.335876X-0.017678X-0.017678X-0.335876X0.335876X0.017678X0.017678X0.335876X0*%
%ADD21RoundRect,0.140000X-0.219203X-0.021213X-0.021213X-0.219203X0.219203X0.021213X0.021213X0.219203X0*%
%ADD22R,0.500000X0.600000*%
%ADD23RoundRect,0.250000X-0.475000X0.250000X-0.475000X-0.250000X0.475000X-0.250000X0.475000X0.250000X0*%
%ADD24RoundRect,0.100000X-0.021213X-0.162635X0.162635X0.021213X0.021213X0.162635X-0.162635X-0.021213X0*%
%ADD25RoundRect,0.225000X0.017678X-0.335876X0.335876X-0.017678X-0.017678X0.335876X-0.335876X0.017678X0*%
%ADD26RoundRect,0.250000X-0.275000X-0.250000X0.275000X-0.250000X0.275000X0.250000X-0.275000X0.250000X0*%
%ADD27RoundRect,0.250000X-0.850000X-0.275000X0.850000X-0.275000X0.850000X0.275000X-0.850000X0.275000X0*%
%ADD28RoundRect,0.250000X0.475000X-0.250000X0.475000X0.250000X-0.475000X0.250000X-0.475000X-0.250000X0*%
%ADD29RoundRect,0.087500X0.026517X0.150260X-0.150260X-0.026517X-0.026517X-0.150260X0.150260X0.026517X0*%
%ADD30RoundRect,0.087500X-0.026517X0.150260X-0.150260X0.026517X0.026517X-0.150260X0.150260X-0.026517X0*%
%ADD31FreePoly0,135.000000*%
%ADD32RotRect,0.300000X0.700000X135.000000*%
%ADD33FreePoly1,135.000000*%
%ADD34FreePoly2,135.000000*%
%ADD35RotRect,0.700000X0.300000X135.000000*%
%ADD36FreePoly3,135.000000*%
%ADD37FreePoly4,135.000000*%
%ADD38FreePoly5,135.000000*%
%ADD39FreePoly6,135.000000*%
%ADD40FreePoly7,135.000000*%
%ADD41RotRect,0.200000X0.300000X225.000000*%
%ADD42RotRect,0.200000X0.250000X135.000000*%
%ADD43RotRect,0.200000X0.300000X45.000000*%
%ADD44RoundRect,0.250000X-0.159099X0.512652X-0.512652X0.159099X0.159099X-0.512652X0.512652X-0.159099X0*%
%ADD45RotRect,0.700000X0.200000X45.000000*%
%ADD46RotRect,0.200000X0.700000X45.000000*%
%ADD47RotRect,2.600000X2.600000X45.000000*%
%ADD48RoundRect,0.087500X0.097227X0.220971X-0.220971X-0.097227X-0.097227X-0.220971X0.220971X0.097227X0*%
%ADD49RoundRect,0.087500X-0.097227X0.220971X-0.220971X0.097227X0.097227X-0.220971X0.220971X-0.097227X0*%
%ADD50RoundRect,0.147500X0.226274X0.017678X0.017678X0.226274X-0.226274X-0.017678X-0.017678X-0.226274X0*%
%ADD51RotRect,0.500000X0.600000X135.000000*%
%ADD52RoundRect,0.225000X0.335876X0.017678X0.017678X0.335876X-0.335876X-0.017678X-0.017678X-0.335876X0*%
%ADD53RoundRect,0.100000X-0.100000X0.130000X-0.100000X-0.130000X0.100000X-0.130000X0.100000X0.130000X0*%
%ADD54RoundRect,0.250000X-0.406586X0.053033X0.053033X-0.406586X0.406586X-0.053033X-0.053033X0.406586X0*%
%ADD55RotRect,0.500000X0.600000X315.000000*%
%ADD56HorizOval,0.200000X-0.159099X0.159099X0.159099X-0.159099X0*%
%ADD57HorizOval,0.200000X0.159099X0.159099X-0.159099X-0.159099X0*%
%ADD58RotRect,2.100000X2.100000X135.000000*%
%ADD59RoundRect,0.150000X0.150000X-0.512500X0.150000X0.512500X-0.150000X0.512500X-0.150000X-0.512500X0*%
%ADD60RoundRect,0.100000X0.130000X0.100000X-0.130000X0.100000X-0.130000X-0.100000X0.130000X-0.100000X0*%
%ADD61RotRect,0.375000X0.350000X225.000000*%
%ADD62RotRect,0.375000X0.350000X135.000000*%
%ADD63RotRect,0.700000X0.200000X225.000000*%
%ADD64RotRect,0.200000X0.700000X225.000000*%
%ADD65RotRect,2.600000X2.600000X225.000000*%
%ADD66RoundRect,0.225000X-0.017678X0.335876X-0.335876X0.017678X0.017678X-0.335876X0.335876X-0.017678X0*%
%ADD67RoundRect,0.100000X0.100000X-0.130000X0.100000X0.130000X-0.100000X0.130000X-0.100000X-0.130000X0*%
%ADD68RoundRect,0.050000X-0.212132X-0.282843X0.282843X0.212132X0.212132X0.282843X-0.282843X-0.212132X0*%
%ADD69RoundRect,0.050000X0.212132X-0.282843X0.282843X-0.212132X-0.212132X0.282843X-0.282843X0.212132X0*%
%ADD70RotRect,4.600000X4.600000X45.000000*%
%ADD71RoundRect,0.150000X0.494975X0.000000X0.000000X0.494975X-0.494975X0.000000X0.000000X-0.494975X0*%
%ADD72RoundRect,0.200000X0.318198X-0.035355X-0.035355X0.318198X-0.318198X0.035355X0.035355X-0.318198X0*%
%ADD73RoundRect,0.225000X0.250000X-0.225000X0.250000X0.225000X-0.250000X0.225000X-0.250000X-0.225000X0*%
%ADD74RotRect,0.700000X0.350000X45.000000*%
%ADD75RotRect,0.350000X0.700000X45.000000*%
%ADD76RotRect,2.400000X1.900000X45.000000*%
%ADD77FreePoly0,315.000000*%
%ADD78RotRect,0.300000X0.700000X315.000000*%
%ADD79FreePoly1,315.000000*%
%ADD80FreePoly2,315.000000*%
%ADD81RotRect,0.700000X0.300000X315.000000*%
%ADD82FreePoly3,315.000000*%
%ADD83FreePoly4,315.000000*%
%ADD84FreePoly5,315.000000*%
%ADD85FreePoly6,315.000000*%
%ADD86FreePoly7,315.000000*%
%ADD87RoundRect,0.100000X-0.130000X-0.100000X0.130000X-0.100000X0.130000X0.100000X-0.130000X0.100000X0*%
%ADD88RoundRect,0.062500X-0.134350X0.045962X0.045962X-0.134350X0.134350X-0.045962X-0.045962X0.134350X0*%
%ADD89RoundRect,0.125000X-0.176777X0.000000X0.000000X-0.176777X0.176777X0.000000X0.000000X0.176777X0*%
%ADD90RotRect,0.500000X0.600000X45.000000*%
%ADD91R,0.600000X0.500000*%
%ADD92RoundRect,0.250000X-0.375000X-0.850000X0.375000X-0.850000X0.375000X0.850000X-0.375000X0.850000X0*%
G04 APERTURE END LIST*
D10*
%TO.C,JP2*%
G36*
X141046253Y-104296387D02*
G01*
X140846253Y-104296387D01*
X140846253Y-103696387D01*
X141046253Y-103696387D01*
X141046253Y-104296387D01*
G37*
G36*
X141746253Y-104296387D02*
G01*
X141546253Y-104296387D01*
X141546253Y-103696387D01*
X141746253Y-103696387D01*
X141746253Y-104296387D01*
G37*
%TO.C,J5*%
G36*
X160257955Y-106996615D02*
G01*
X158167955Y-106996615D01*
X158167955Y-105116615D01*
X160257955Y-105116615D01*
X160257955Y-106996615D01*
G37*
%TO.C,JP5*%
G36*
X154477857Y-98358033D02*
G01*
X154053593Y-98782297D01*
X153912172Y-98640876D01*
X154336436Y-98216612D01*
X154477857Y-98358033D01*
G37*
%TO.C,JP6*%
G36*
X151067834Y-93777750D02*
G01*
X150643570Y-94202014D01*
X150502149Y-94060593D01*
X150926413Y-93636329D01*
X151067834Y-93777750D01*
G37*
G36*
X151562809Y-94272725D02*
G01*
X151138545Y-94696989D01*
X150997124Y-94555568D01*
X151421388Y-94131304D01*
X151562809Y-94272725D01*
G37*
%TO.C,JP3*%
G36*
X156443740Y-96923164D02*
G01*
X156302319Y-97064585D01*
X155878055Y-96640321D01*
X156019476Y-96498900D01*
X156443740Y-96923164D01*
G37*
%TO.C,JP4*%
G36*
X155117788Y-97725174D02*
G01*
X154693524Y-98149438D01*
X154552103Y-98008017D01*
X154976367Y-97583753D01*
X155117788Y-97725174D01*
G37*
%TO.C,JP1*%
G36*
X144196253Y-71546387D02*
G01*
X143596253Y-71546387D01*
X143596253Y-71346387D01*
X144196253Y-71346387D01*
X144196253Y-71546387D01*
G37*
%TD*%
D11*
%TO.C,USB1*%
X153280000Y-107715000D03*
X161920000Y-107715000D03*
%TD*%
D12*
%TO.C,TP2*%
X139696253Y-107596387D03*
%TD*%
%TO.C,TP1*%
X144696253Y-107596387D03*
%TD*%
D13*
%TO.C,R139*%
X158722527Y-86522661D03*
X158269979Y-86070113D03*
%TD*%
%TO.C,R27*%
X152851511Y-101433949D03*
X152398963Y-100981401D03*
%TD*%
D14*
%TO.C,TP36*%
X142200000Y-100100000D03*
%TD*%
D15*
%TO.C,R26*%
X150500381Y-102731490D03*
X150952929Y-103184038D03*
%TD*%
D16*
%TO.C,C180*%
X160975075Y-88795182D03*
X160296253Y-88116360D03*
%TD*%
D17*
%TO.C,C12*%
X157436713Y-73234695D03*
X156757891Y-73913517D03*
%TD*%
D18*
%TO.C,D15*%
X157421307Y-97843839D03*
X156968759Y-98296387D03*
%TD*%
D19*
%TO.C,C175*%
X134320032Y-101957998D03*
X134998854Y-101279176D03*
%TD*%
D15*
%TO.C,R115*%
X136657020Y-87476609D03*
X137109568Y-87929157D03*
%TD*%
D20*
%TO.C,C89*%
X151248245Y-91948379D03*
X152344261Y-93044395D03*
%TD*%
D21*
%TO.C,C157*%
X131145123Y-86327561D03*
X131823945Y-87006383D03*
%TD*%
D22*
%TO.C,JP2*%
X140596253Y-103996387D03*
X141296253Y-103996387D03*
X141996253Y-103996387D03*
%TD*%
D14*
%TO.C,TP19*%
X166796253Y-87796387D03*
%TD*%
D13*
%TO.C,R104*%
X162321308Y-101948935D03*
X161868760Y-101496387D03*
%TD*%
D15*
%TO.C,R146*%
X141372473Y-93295113D03*
X141825021Y-93747661D03*
%TD*%
D23*
%TO.C,C153*%
X131598747Y-89021387D03*
X131598747Y-90921387D03*
%TD*%
D20*
%TO.C,C50*%
X155409947Y-99658607D03*
X156505963Y-100754623D03*
%TD*%
D24*
%TO.C,R88*%
X164367485Y-91097661D03*
X164820033Y-90645113D03*
%TD*%
D13*
%TO.C,R90*%
X163435486Y-92316165D03*
X162982938Y-91863617D03*
%TD*%
D16*
%TO.C,C135*%
X167674591Y-97849275D03*
X166995769Y-97170453D03*
%TD*%
D24*
%TO.C,C91*%
X152944979Y-93922661D03*
X153397527Y-93470113D03*
%TD*%
D17*
%TO.C,C33*%
X145735664Y-71056976D03*
X145056842Y-71735798D03*
%TD*%
D15*
%TO.C,R66*%
X163515762Y-78358287D03*
X163968310Y-78810835D03*
%TD*%
D13*
%TO.C,R46*%
X148648801Y-87448935D03*
X148196253Y-86996387D03*
%TD*%
D25*
%TO.C,C8*%
X159848245Y-78244395D03*
X160944261Y-77148379D03*
%TD*%
D14*
%TO.C,TP26*%
X133298747Y-79021387D03*
%TD*%
D24*
%TO.C,C62*%
X156473726Y-84826274D03*
X156926274Y-84373726D03*
%TD*%
D18*
%TO.C,C48*%
X155800146Y-102027918D03*
X155347598Y-102480466D03*
%TD*%
D23*
%TO.C,C177*%
X131598747Y-102021387D03*
X131598747Y-103921387D03*
%TD*%
D21*
%TO.C,C131*%
X166654348Y-91331976D03*
X167333170Y-92010798D03*
%TD*%
D17*
%TO.C,C7*%
X160635664Y-79256976D03*
X159956842Y-79935798D03*
%TD*%
D13*
%TO.C,R79*%
X162323802Y-88973935D03*
X161871254Y-88521387D03*
%TD*%
%TO.C,R116*%
X136579238Y-88459487D03*
X136126690Y-88006939D03*
%TD*%
D15*
%TO.C,C44*%
X152922222Y-99347984D03*
X153374770Y-99800532D03*
%TD*%
D13*
%TO.C,C215*%
X140694600Y-92846927D03*
X140242052Y-92394379D03*
%TD*%
%TO.C,R23*%
X146727965Y-94122465D03*
X146275417Y-93669917D03*
%TD*%
%TO.C,R65*%
X163437980Y-79341165D03*
X162985432Y-78888617D03*
%TD*%
D24*
%TO.C,R63*%
X164369979Y-78122661D03*
X164822527Y-77670113D03*
%TD*%
D13*
%TO.C,R105*%
X162816282Y-101453960D03*
X162363734Y-101001412D03*
%TD*%
D15*
%TO.C,R135*%
X135272473Y-80345113D03*
X135725021Y-80797661D03*
%TD*%
D17*
%TO.C,C93*%
X144983689Y-88066927D03*
X144304867Y-88745749D03*
%TD*%
D26*
%TO.C,J5*%
X157632955Y-106056615D03*
D27*
X159157955Y-104581614D03*
X159157955Y-107531616D03*
%TD*%
D13*
%TO.C,R158*%
X136723747Y-92796387D03*
X136271199Y-92343839D03*
%TD*%
D18*
%TO.C,R9*%
X161229634Y-74818641D03*
X160777086Y-75271189D03*
%TD*%
D28*
%TO.C,C105*%
X168496253Y-77796386D03*
X168496253Y-75896388D03*
%TD*%
D14*
%TO.C,TP43*%
X159391156Y-73263006D03*
%TD*%
D29*
%TO.C,U2*%
X148233645Y-91030441D03*
X148587199Y-91383995D03*
D30*
X148763975Y-91932003D03*
X148410422Y-92285556D03*
X148056869Y-92639109D03*
D29*
X147508861Y-92462333D03*
X147155307Y-92108779D03*
D30*
X146978531Y-91560771D03*
X147332084Y-91207218D03*
X147685637Y-90853665D03*
%TD*%
D13*
%TO.C,R25*%
X147226476Y-93631025D03*
X146773928Y-93178477D03*
%TD*%
%TO.C,R81*%
X166386615Y-85047517D03*
X165934067Y-84594969D03*
%TD*%
%TO.C,R153*%
X137225021Y-92297661D03*
X136772473Y-91845113D03*
%TD*%
D31*
%TO.C,U23*%
X161031323Y-100490319D03*
D32*
X160642415Y-100172121D03*
X160288861Y-99818567D03*
X159935308Y-99465014D03*
X159581755Y-99111461D03*
X159228201Y-98757907D03*
D33*
X158910003Y-98368999D03*
D34*
X158910003Y-97831597D03*
D35*
X159228201Y-97442689D03*
X159581755Y-97089135D03*
X159935308Y-96735582D03*
X160288861Y-96382029D03*
X160642415Y-96028475D03*
D36*
X161031323Y-95710277D03*
D37*
X161568725Y-95710277D03*
D32*
X161957633Y-96028475D03*
X162311187Y-96382029D03*
X162664740Y-96735582D03*
X163018293Y-97089135D03*
X163371847Y-97442689D03*
D38*
X163690045Y-97831597D03*
D39*
X163690045Y-98368999D03*
D35*
X163368311Y-98754372D03*
X163018293Y-99111461D03*
X162664740Y-99465014D03*
X162311187Y-99818567D03*
X161957633Y-100172121D03*
D40*
X161568725Y-100490319D03*
%TD*%
D13*
%TO.C,R141*%
X136579238Y-101459487D03*
X136126690Y-101006939D03*
%TD*%
D41*
%TO.C,U5*%
X152954042Y-104025495D03*
X153307595Y-103671942D03*
X153661148Y-103318389D03*
D42*
X154177336Y-103438597D03*
D43*
X154297544Y-103954785D03*
D41*
X153943991Y-104308338D03*
X153590438Y-104661891D03*
D42*
X153074250Y-104541683D03*
%TD*%
D24*
%TO.C,C53*%
X151776709Y-100429857D03*
X152229257Y-99977309D03*
%TD*%
D15*
%TO.C,R91*%
X163513268Y-91333287D03*
X163965816Y-91785835D03*
%TD*%
D17*
%TO.C,C35*%
X143616697Y-101317276D03*
X142937875Y-101996098D03*
%TD*%
D15*
%TO.C,R100*%
X158246253Y-96371387D03*
X158698801Y-96823935D03*
%TD*%
D13*
%TO.C,R28*%
X155384229Y-105782889D03*
X154931681Y-105330341D03*
%TD*%
D44*
%TO.C,C1*%
X155971751Y-83428249D03*
X154628249Y-84771751D03*
%TD*%
D21*
%TO.C,C18*%
X145456842Y-83906976D03*
X146135664Y-84585798D03*
%TD*%
D13*
%TO.C,R151*%
X142497527Y-96072661D03*
X142044979Y-95620113D03*
%TD*%
%TO.C,R6*%
X147522527Y-72672661D03*
X147069979Y-72220113D03*
%TD*%
D14*
%TO.C,TP40*%
X160296253Y-74196387D03*
%TD*%
D15*
%TO.C,R51*%
X157224581Y-81055296D03*
X157677129Y-81507844D03*
%TD*%
%TO.C,R134*%
X135772473Y-79845113D03*
X136225021Y-80297661D03*
%TD*%
D24*
%TO.C,C85*%
X148269979Y-89572661D03*
X148722527Y-89120113D03*
%TD*%
D45*
%TO.C,U25*%
X134030118Y-100444789D03*
X133747275Y-100161947D03*
X133464432Y-99879104D03*
X133181590Y-99596261D03*
X132898747Y-99313419D03*
X132615904Y-99030576D03*
X132333062Y-98747733D03*
D46*
X132333062Y-97687073D03*
X132615904Y-97404230D03*
X132898747Y-97121387D03*
X133181590Y-96838545D03*
X133464432Y-96555702D03*
X133747275Y-96272859D03*
X134030118Y-95990017D03*
D45*
X135090778Y-95990017D03*
X135373621Y-96272859D03*
X135656464Y-96555702D03*
X135939306Y-96838545D03*
X136222149Y-97121387D03*
X136504992Y-97404230D03*
X136787834Y-97687073D03*
D46*
X136787834Y-98747733D03*
X136504992Y-99030576D03*
X136222149Y-99313419D03*
X135939306Y-99596261D03*
X135656464Y-99879104D03*
X135373621Y-100161947D03*
X135090778Y-100444789D03*
D47*
X134560448Y-98217403D03*
%TD*%
D48*
%TO.C,U13*%
X144117484Y-85044045D03*
X144471037Y-85397599D03*
X144824590Y-85751152D03*
X145178144Y-86104705D03*
D49*
X144824590Y-86688069D03*
X144471037Y-87041622D03*
X144117484Y-87395175D03*
D48*
X143534120Y-87748729D03*
X143180567Y-87395175D03*
X142827014Y-87041622D03*
X142473460Y-86688069D03*
D49*
X142827014Y-86104705D03*
X143180567Y-85751152D03*
X143534120Y-85397599D03*
%TD*%
D13*
%TO.C,C20*%
X149223030Y-72119684D03*
X148770482Y-71667136D03*
%TD*%
D50*
%TO.C,L2*%
X154679382Y-101041505D03*
X153993488Y-100355611D03*
%TD*%
D15*
%TO.C,R108*%
X163368759Y-99996387D03*
X163821307Y-100448935D03*
%TD*%
D19*
%TO.C,C29*%
X145892431Y-73500209D03*
X146571253Y-72821387D03*
%TD*%
D16*
%TO.C,C133*%
X168947383Y-93465213D03*
X168268561Y-92786391D03*
%TD*%
D14*
%TO.C,TP37*%
X139496253Y-100996387D03*
%TD*%
D24*
%TO.C,C51*%
X151143848Y-102017312D03*
X151596396Y-101564764D03*
%TD*%
D14*
%TO.C,TP51*%
X136900000Y-72300000D03*
%TD*%
D15*
%TO.C,C178*%
X159400400Y-86970847D03*
X159852948Y-87423395D03*
%TD*%
D14*
%TO.C,TP30*%
X140396253Y-100096387D03*
%TD*%
D13*
%TO.C,R85*%
X164822527Y-86472661D03*
X164369979Y-86020113D03*
%TD*%
D18*
%TO.C,R18*%
X152421253Y-94821387D03*
X151968705Y-95273935D03*
%TD*%
%TO.C,R136*%
X157922527Y-85373182D03*
X157469979Y-85825730D03*
%TD*%
D24*
%TO.C,R99*%
X168167485Y-98497661D03*
X168620033Y-98045113D03*
%TD*%
D17*
%TO.C,C182*%
X132063158Y-96506976D03*
X131384336Y-97185798D03*
%TD*%
D51*
%TO.C,JP5*%
X154442502Y-98746942D03*
X153947527Y-98251967D03*
%TD*%
D18*
%TO.C,R138*%
X135725021Y-101695113D03*
X135272473Y-102147661D03*
%TD*%
D15*
%TO.C,R16*%
X143569979Y-95270113D03*
X144022527Y-95722661D03*
%TD*%
%TO.C,R75*%
X158344979Y-83470113D03*
X158797527Y-83922661D03*
%TD*%
D52*
%TO.C,C67*%
X143094261Y-77794395D03*
X141998245Y-76698379D03*
%TD*%
D14*
%TO.C,TP23*%
X165596253Y-87796387D03*
%TD*%
D13*
%TO.C,C83*%
X146298801Y-89848935D03*
X145846253Y-89396387D03*
%TD*%
D53*
%TO.C,C57*%
X156257955Y-106066615D03*
X156257955Y-106706615D03*
%TD*%
D15*
%TO.C,R157*%
X134198747Y-94271387D03*
X134651295Y-94723935D03*
%TD*%
D28*
%TO.C,C129*%
X168493759Y-90771387D03*
X168493759Y-88871387D03*
%TD*%
D13*
%TO.C,C23*%
X145122527Y-74722661D03*
X144669979Y-74270113D03*
%TD*%
D24*
%TO.C,R48*%
X151769979Y-90122661D03*
X152222527Y-89670113D03*
%TD*%
D13*
%TO.C,R107*%
X165893759Y-98521387D03*
X165441211Y-98068839D03*
%TD*%
%TO.C,R142*%
X158720033Y-99497661D03*
X158267485Y-99045113D03*
%TD*%
D21*
%TO.C,C213*%
X139092431Y-77992565D03*
X139771253Y-78671387D03*
%TD*%
D24*
%TO.C,R167*%
X142172473Y-94444592D03*
X142625021Y-93992044D03*
%TD*%
D15*
%TO.C,R156*%
X133708385Y-94770257D03*
X134160933Y-95222805D03*
%TD*%
D54*
%TO.C,Y2*%
X144783423Y-102059738D03*
X146020860Y-103297175D03*
X145030911Y-104287124D03*
X143793474Y-103049687D03*
%TD*%
D24*
%TO.C,R20*%
X156469979Y-97622661D03*
X156922527Y-97170113D03*
%TD*%
D55*
%TO.C,JP6*%
X150537504Y-93671684D03*
X151032479Y-94166659D03*
X151527454Y-94661634D03*
%TD*%
D56*
%TO.C,U1*%
X157496179Y-79190753D03*
X157248691Y-79438241D03*
X157001204Y-79685728D03*
X156753717Y-79933216D03*
X156506229Y-80180703D03*
X156258742Y-80428190D03*
X156011254Y-80675678D03*
X155763767Y-80923165D03*
X155516280Y-81170652D03*
X155268792Y-81418140D03*
X155021305Y-81665627D03*
X154773818Y-81913114D03*
X154526330Y-82160602D03*
X154278843Y-82408089D03*
X154031355Y-82655577D03*
X153783868Y-82903064D03*
X153536381Y-83150551D03*
X153288893Y-83398039D03*
X153041406Y-83645526D03*
X152793919Y-83893013D03*
X152546431Y-84140501D03*
X152298944Y-84387988D03*
X152051457Y-84635476D03*
X151803969Y-84882963D03*
X151556482Y-85130450D03*
X151308994Y-85377938D03*
D57*
X150601888Y-85377938D03*
X150354400Y-85130450D03*
X150106913Y-84882963D03*
X149859425Y-84635476D03*
X149611938Y-84387988D03*
X149364451Y-84140501D03*
X149116963Y-83893013D03*
X148869476Y-83645526D03*
X148621989Y-83398039D03*
X148374501Y-83150551D03*
X148127014Y-82903064D03*
X147879527Y-82655577D03*
X147632039Y-82408089D03*
X147384552Y-82160602D03*
X147137064Y-81913114D03*
X146889577Y-81665627D03*
X146642090Y-81418140D03*
X146394602Y-81170652D03*
X146147115Y-80923165D03*
X145899628Y-80675678D03*
X145652140Y-80428190D03*
X145404653Y-80180703D03*
X145157165Y-79933216D03*
X144909678Y-79685728D03*
X144662191Y-79438241D03*
X144414703Y-79190753D03*
D56*
X144414703Y-78483647D03*
X144662191Y-78236159D03*
X144909678Y-77988672D03*
X145157165Y-77741184D03*
X145404653Y-77493697D03*
X145652140Y-77246210D03*
X145899628Y-76998722D03*
X146147115Y-76751235D03*
X146394602Y-76503748D03*
X146642090Y-76256260D03*
X146889577Y-76008773D03*
X147137064Y-75761286D03*
X147384552Y-75513798D03*
X147632039Y-75266311D03*
X147879527Y-75018823D03*
X148127014Y-74771336D03*
X148374501Y-74523849D03*
X148621989Y-74276361D03*
X148869476Y-74028874D03*
X149116963Y-73781387D03*
X149364451Y-73533899D03*
X149611938Y-73286412D03*
X149859425Y-73038924D03*
X150106913Y-72791437D03*
X150354400Y-72543950D03*
X150601888Y-72296462D03*
D57*
X151308994Y-72296462D03*
X151556482Y-72543950D03*
X151803969Y-72791437D03*
X152051457Y-73038924D03*
X152298944Y-73286412D03*
X152546431Y-73533899D03*
X152793919Y-73781387D03*
X153041406Y-74028874D03*
X153288893Y-74276361D03*
X153536381Y-74523849D03*
X153783868Y-74771336D03*
X154031355Y-75018823D03*
X154278843Y-75266311D03*
X154526330Y-75513798D03*
X154773818Y-75761286D03*
X155021305Y-76008773D03*
X155268792Y-76256260D03*
X155516280Y-76503748D03*
X155763767Y-76751235D03*
X156011254Y-76998722D03*
X156258742Y-77246210D03*
X156506229Y-77493697D03*
X156753717Y-77741184D03*
X157001204Y-77988672D03*
X157248691Y-78236159D03*
X157496179Y-78483647D03*
D58*
X150955441Y-82655577D03*
X152864629Y-80746388D03*
X154773818Y-78837200D03*
X149046253Y-80746388D03*
X150955441Y-78837200D03*
X152864629Y-76928012D03*
X147137064Y-78837200D03*
X149046253Y-76928012D03*
X150955441Y-75018823D03*
%TD*%
D13*
%TO.C,C10*%
X156448801Y-75898935D03*
X155996253Y-75446387D03*
%TD*%
D18*
%TO.C,C55*%
X153659380Y-102252425D03*
X153206832Y-102704973D03*
%TD*%
%TO.C,R98*%
X168820033Y-96645113D03*
X168367485Y-97097661D03*
%TD*%
D59*
%TO.C,U6*%
X140333752Y-73583887D03*
X139383753Y-73583887D03*
X138433754Y-73583887D03*
X138433754Y-71308887D03*
X140333752Y-71308887D03*
%TD*%
D24*
%TO.C,C26*%
X146444979Y-74122661D03*
X146897527Y-73670113D03*
%TD*%
D15*
%TO.C,R130*%
X137276224Y-78338814D03*
X137728772Y-78791362D03*
%TD*%
D13*
%TO.C,R80*%
X162818776Y-88478960D03*
X162366228Y-88026412D03*
%TD*%
D15*
%TO.C,R159*%
X135772473Y-92845113D03*
X136225021Y-93297661D03*
%TD*%
D18*
%TO.C,C47*%
X155305171Y-101532944D03*
X154852623Y-101985492D03*
%TD*%
D19*
%TO.C,C45*%
X151610539Y-102717346D03*
X152289361Y-102038524D03*
%TD*%
%TO.C,C36*%
X146155210Y-105072012D03*
X146834032Y-104393190D03*
%TD*%
D14*
%TO.C,TP31*%
X134498747Y-92021387D03*
%TD*%
D15*
%TO.C,R83*%
X163371253Y-87021387D03*
X163823801Y-87473935D03*
%TD*%
D18*
%TO.C,R30*%
X156022527Y-72120113D03*
X155569979Y-72572661D03*
%TD*%
D53*
%TO.C,R32*%
X141521253Y-71051386D03*
X141521253Y-71691386D03*
%TD*%
D19*
%TO.C,C151*%
X134320032Y-88957998D03*
X134998854Y-88279176D03*
%TD*%
D18*
%TO.C,R113*%
X135725021Y-88695113D03*
X135272473Y-89147661D03*
%TD*%
D60*
%TO.C,R112*%
X139568747Y-85971387D03*
X138928747Y-85971387D03*
%TD*%
D14*
%TO.C,TP18*%
X141300000Y-101000000D03*
%TD*%
D18*
%TO.C,R165*%
X157920033Y-98348182D03*
X157467485Y-98800730D03*
%TD*%
D61*
%TO.C,U12*%
X147241128Y-87255243D03*
X147594681Y-87608796D03*
X147948235Y-87962350D03*
X148301788Y-88315903D03*
D62*
X147948235Y-88687134D03*
X147594681Y-89040688D03*
D61*
X147223450Y-89394241D03*
X146869897Y-89040688D03*
X146516343Y-88687134D03*
X146162790Y-88333581D03*
D62*
X146516343Y-87962350D03*
X146869897Y-87608796D03*
%TD*%
D16*
%TO.C,C38*%
X144203595Y-100348539D03*
X143524773Y-99669717D03*
%TD*%
D14*
%TO.C,TP39*%
X161201350Y-73291290D03*
%TD*%
%TO.C,TP41*%
X133898747Y-77971387D03*
%TD*%
D15*
%TO.C,R49*%
X156729606Y-81550270D03*
X157182154Y-82002818D03*
%TD*%
%TO.C,R143*%
X141372473Y-80295113D03*
X141825021Y-80747661D03*
%TD*%
D16*
%TO.C,C155*%
X133438158Y-88460798D03*
X132759336Y-87781976D03*
%TD*%
D13*
%TO.C,R133*%
X136723747Y-79796387D03*
X136271199Y-79343839D03*
%TD*%
D18*
%TO.C,R124*%
X131925021Y-81295113D03*
X131472473Y-81747661D03*
%TD*%
D24*
%TO.C,D16*%
X143042431Y-82278278D03*
X143494979Y-81825730D03*
%TD*%
D18*
%TO.C,C3*%
X152316622Y-85890589D03*
X151864074Y-86343137D03*
%TD*%
D21*
%TO.C,C183*%
X132417915Y-94943499D03*
X133096737Y-95622321D03*
%TD*%
D15*
%TO.C,R50*%
X158396253Y-88696387D03*
X158848801Y-89148935D03*
%TD*%
D21*
%TO.C,C181*%
X131145123Y-99327561D03*
X131823945Y-100006383D03*
%TD*%
D24*
%TO.C,R14*%
X145264256Y-100801087D03*
X145716804Y-100348539D03*
%TD*%
D15*
%TO.C,C13*%
X146477689Y-82774017D03*
X146930237Y-83226565D03*
%TD*%
D63*
%TO.C,U16*%
X166064882Y-79372985D03*
X166347725Y-79655827D03*
X166630568Y-79938670D03*
X166913410Y-80221513D03*
X167196253Y-80504355D03*
X167479096Y-80787198D03*
X167761938Y-81070041D03*
D64*
X167761938Y-82130701D03*
X167479096Y-82413544D03*
X167196253Y-82696387D03*
X166913410Y-82979229D03*
X166630568Y-83262072D03*
X166347725Y-83544915D03*
X166064882Y-83827757D03*
D63*
X165004222Y-83827757D03*
X164721379Y-83544915D03*
X164438536Y-83262072D03*
X164155694Y-82979229D03*
X163872851Y-82696387D03*
X163590008Y-82413544D03*
X163307166Y-82130701D03*
D64*
X163307166Y-81070041D03*
X163590008Y-80787198D03*
X163872851Y-80504355D03*
X164155694Y-80221513D03*
X164438536Y-79938670D03*
X164721379Y-79655827D03*
X165004222Y-79372985D03*
D65*
X165534552Y-81600371D03*
%TD*%
D18*
%TO.C,R73*%
X168822527Y-83670113D03*
X168369979Y-84122661D03*
%TD*%
D14*
%TO.C,TP42*%
X160296253Y-72357909D03*
%TD*%
D24*
%TO.C,C54*%
X151859794Y-104052012D03*
X152312342Y-103599464D03*
%TD*%
D13*
%TO.C,R109*%
X164320033Y-99947661D03*
X163867485Y-99495113D03*
%TD*%
D53*
%TO.C,R7*%
X143796253Y-72626387D03*
X143796253Y-73266387D03*
%TD*%
D15*
%TO.C,R76*%
X157744979Y-83868839D03*
X158197527Y-84321387D03*
%TD*%
D14*
%TO.C,TP24*%
X166793759Y-100771387D03*
%TD*%
D15*
%TO.C,R22*%
X153403055Y-98838866D03*
X153855603Y-99291414D03*
%TD*%
D66*
%TO.C,C86*%
X150944261Y-89348379D03*
X149848245Y-90444395D03*
%TD*%
D67*
%TO.C,C66*%
X141521253Y-74511386D03*
X141521253Y-73871386D03*
%TD*%
D24*
%TO.C,C17*%
X154193705Y-73548935D03*
X154646253Y-73096387D03*
%TD*%
D13*
%TO.C,R106*%
X166384121Y-98022517D03*
X165931573Y-97569969D03*
%TD*%
D24*
%TO.C,R21*%
X153491443Y-97230199D03*
X153943991Y-96777651D03*
%TD*%
D14*
%TO.C,TP35*%
X141296253Y-99196387D03*
%TD*%
D68*
%TO.C,U4*%
X148265923Y-101387987D03*
X147983080Y-101105144D03*
X147700237Y-100822301D03*
X147417395Y-100539459D03*
X147134552Y-100256616D03*
X146851709Y-99973773D03*
X146568867Y-99690931D03*
X146286024Y-99408088D03*
X146003181Y-99125245D03*
X145720339Y-98842403D03*
X145437496Y-98559560D03*
X145154653Y-98276717D03*
D69*
X145154653Y-97216057D03*
X145437496Y-96933214D03*
X145720339Y-96650371D03*
X146003181Y-96367529D03*
X146286024Y-96084686D03*
X146568867Y-95801843D03*
X146851709Y-95519001D03*
X147134552Y-95236158D03*
X147417395Y-94953315D03*
X147700237Y-94670473D03*
X147983080Y-94387630D03*
X148265923Y-94104787D03*
D68*
X149326583Y-94104787D03*
X149609426Y-94387630D03*
X149892269Y-94670473D03*
X150175111Y-94953315D03*
X150457954Y-95236158D03*
X150740797Y-95519001D03*
X151023639Y-95801843D03*
X151306482Y-96084686D03*
X151589325Y-96367529D03*
X151872167Y-96650371D03*
X152155010Y-96933214D03*
X152437853Y-97216057D03*
D69*
X152437853Y-98276717D03*
X152155010Y-98559560D03*
X151872167Y-98842403D03*
X151589325Y-99125245D03*
X151306482Y-99408088D03*
X151023639Y-99690931D03*
X150740797Y-99973773D03*
X150457954Y-100256616D03*
X150175111Y-100539459D03*
X149892269Y-100822301D03*
X149609426Y-101105144D03*
X149326583Y-101387987D03*
D70*
X148796253Y-97746387D03*
%TD*%
D18*
%TO.C,R8*%
X162290294Y-73757981D03*
X161837746Y-74210529D03*
%TD*%
D13*
%TO.C,C42*%
X147785091Y-102392077D03*
X147332543Y-101939529D03*
%TD*%
D18*
%TO.C,D14*%
X157423801Y-84868839D03*
X156971253Y-85321387D03*
%TD*%
D19*
%TO.C,C134*%
X168029348Y-96285798D03*
X168708170Y-95606976D03*
%TD*%
D15*
%TO.C,C19*%
X143643705Y-79943839D03*
X144096253Y-80396387D03*
%TD*%
D14*
%TO.C,TP53*%
X133898747Y-90971387D03*
%TD*%
D24*
%TO.C,C15*%
X158443705Y-77748935D03*
X158896253Y-77296387D03*
%TD*%
D21*
%TO.C,C37*%
X143796253Y-98596387D03*
X144475075Y-99275209D03*
%TD*%
D71*
%TO.C,TP38*%
X140400000Y-101900000D03*
%TD*%
D15*
%TO.C,R132*%
X134198747Y-81271387D03*
X134651295Y-81723935D03*
%TD*%
D63*
%TO.C,U19*%
X166062388Y-92347985D03*
X166345231Y-92630827D03*
X166628074Y-92913670D03*
X166910916Y-93196513D03*
X167193759Y-93479355D03*
X167476602Y-93762198D03*
X167759444Y-94045041D03*
D64*
X167759444Y-95105701D03*
X167476602Y-95388544D03*
X167193759Y-95671387D03*
X166910916Y-95954229D03*
X166628074Y-96237072D03*
X166345231Y-96519915D03*
X166062388Y-96802757D03*
D63*
X165001728Y-96802757D03*
X164718885Y-96519915D03*
X164436042Y-96237072D03*
X164153200Y-95954229D03*
X163870357Y-95671387D03*
X163587514Y-95388544D03*
X163304672Y-95105701D03*
D64*
X163304672Y-94045041D03*
X163587514Y-93762198D03*
X163870357Y-93479355D03*
X164153200Y-93196513D03*
X164436042Y-92913670D03*
X164718885Y-92630827D03*
X165001728Y-92347985D03*
D65*
X165532058Y-94575371D03*
%TD*%
D15*
%TO.C,R101*%
X157594979Y-96745113D03*
X158047527Y-97197661D03*
%TD*%
D13*
%TO.C,R150*%
X141797527Y-96372661D03*
X141344979Y-95920113D03*
%TD*%
D15*
%TO.C,R102*%
X158619979Y-95745113D03*
X159072527Y-96197661D03*
%TD*%
D72*
%TO.C,Y1*%
X158370094Y-76119690D03*
X157380145Y-75129741D03*
X158157962Y-74351924D03*
X159147911Y-75341873D03*
%TD*%
D13*
%TO.C,R126*%
X142722527Y-83322661D03*
X142269979Y-82870113D03*
%TD*%
D15*
%TO.C,R129*%
X137771198Y-77843839D03*
X138223746Y-78296387D03*
%TD*%
D21*
%TO.C,C216*%
X139142431Y-90992565D03*
X139821253Y-91671387D03*
%TD*%
D15*
%TO.C,C2*%
X152896253Y-85396387D03*
X153348801Y-85848935D03*
%TD*%
D53*
%TO.C,R31*%
X141521253Y-72461386D03*
X141521253Y-73101386D03*
%TD*%
D13*
%TO.C,R17*%
X143522527Y-93772661D03*
X143069979Y-93320113D03*
%TD*%
D73*
%TO.C,C58*%
X142646253Y-72971387D03*
X142646253Y-71421387D03*
%TD*%
D14*
%TO.C,TP47*%
X159377014Y-71438670D03*
%TD*%
D15*
%TO.C,C21*%
X143148731Y-80438813D03*
X143601279Y-80891361D03*
%TD*%
D24*
%TO.C,R74*%
X168169979Y-85522661D03*
X168622527Y-85070113D03*
%TD*%
%TO.C,R123*%
X131272473Y-83147661D03*
X131725021Y-82695113D03*
%TD*%
%TO.C,C60*%
X156091228Y-73091362D03*
X156543776Y-72638814D03*
%TD*%
D13*
%TO.C,R127*%
X141397527Y-84047661D03*
X140944979Y-83595113D03*
%TD*%
D18*
%TO.C,R47*%
X142077480Y-85528413D03*
X141624932Y-85980961D03*
%TD*%
D15*
%TO.C,C187*%
X159397906Y-99945847D03*
X159850454Y-100398395D03*
%TD*%
D18*
%TO.C,C52*%
X149970051Y-102165805D03*
X149517503Y-102618353D03*
%TD*%
D74*
%TO.C,U14*%
X155301278Y-94349078D03*
X154841659Y-93889459D03*
X154382039Y-93429839D03*
X153922420Y-92970220D03*
X153462801Y-92510601D03*
X153003181Y-92050981D03*
X152543562Y-91591362D03*
D75*
X152543562Y-90601412D03*
X153003181Y-90141793D03*
X153462801Y-89682173D03*
X153922420Y-89222554D03*
X154382039Y-88762935D03*
X154841659Y-88303315D03*
X155301278Y-87843696D03*
D74*
X156291228Y-87843696D03*
X156750847Y-88303315D03*
X157210467Y-88762935D03*
X157670086Y-89222554D03*
X158129705Y-89682173D03*
X158589325Y-90141793D03*
X159048944Y-90601412D03*
D75*
X159048944Y-91591362D03*
X158589325Y-92050981D03*
X158129705Y-92510601D03*
X157670086Y-92970220D03*
X157210467Y-93429839D03*
X156750847Y-93889459D03*
X156291228Y-94349078D03*
D76*
X155796253Y-91096387D03*
%TD*%
D15*
%TO.C,C4*%
X156234631Y-82045244D03*
X156687179Y-82497792D03*
%TD*%
D13*
%TO.C,R84*%
X164322527Y-86972661D03*
X163869979Y-86520113D03*
%TD*%
D21*
%TO.C,C107*%
X166656842Y-78356976D03*
X167335664Y-79035798D03*
%TD*%
D15*
%TO.C,C16*%
X154793705Y-74193839D03*
X155246253Y-74646387D03*
%TD*%
D24*
%TO.C,C84*%
X144946566Y-89266962D03*
X145399114Y-88814414D03*
%TD*%
%TO.C,R1*%
X158401276Y-79805937D03*
X158853824Y-79353389D03*
%TD*%
D14*
%TO.C,TP25*%
X165593759Y-100771387D03*
%TD*%
D13*
%TO.C,R2*%
X144672527Y-76672661D03*
X144219979Y-76220113D03*
%TD*%
D18*
%TO.C,R149*%
X131925021Y-94295113D03*
X131472473Y-94747661D03*
%TD*%
D77*
%TO.C,U30*%
X139061183Y-92302455D03*
D78*
X139450091Y-92620653D03*
X139803645Y-92974207D03*
X140157198Y-93327760D03*
X140510751Y-93681313D03*
X140864305Y-94034867D03*
D79*
X141182503Y-94423775D03*
D80*
X141182503Y-94961177D03*
D81*
X140864305Y-95350085D03*
X140510751Y-95703639D03*
X140157198Y-96057192D03*
X139803645Y-96410745D03*
X139450091Y-96764299D03*
D82*
X139061183Y-97082497D03*
D83*
X138523781Y-97082497D03*
D78*
X138134873Y-96764299D03*
X137781319Y-96410745D03*
X137427766Y-96057192D03*
X137074213Y-95703639D03*
X136720659Y-95350085D03*
D84*
X136402461Y-94961177D03*
D85*
X136402461Y-94423775D03*
D81*
X136724195Y-94038402D03*
X137074213Y-93681313D03*
X137427766Y-93327760D03*
X137781319Y-92974207D03*
X138134873Y-92620653D03*
D86*
X138523781Y-92302455D03*
%TD*%
D24*
%TO.C,R148*%
X131272473Y-96147661D03*
X131725021Y-95695113D03*
%TD*%
D31*
%TO.C,U20*%
X161033817Y-87515319D03*
D32*
X160644909Y-87197121D03*
X160291355Y-86843567D03*
X159937802Y-86490014D03*
X159584249Y-86136461D03*
X159230695Y-85782907D03*
D33*
X158912497Y-85393999D03*
D34*
X158912497Y-84856597D03*
D35*
X159230695Y-84467689D03*
X159584249Y-84114135D03*
X159937802Y-83760582D03*
X160291355Y-83407029D03*
X160644909Y-83053475D03*
D36*
X161033817Y-82735277D03*
D37*
X161571219Y-82735277D03*
D32*
X161960127Y-83053475D03*
X162313681Y-83407029D03*
X162667234Y-83760582D03*
X163020787Y-84114135D03*
X163374341Y-84467689D03*
D38*
X163692539Y-84856597D03*
D39*
X163692539Y-85393999D03*
D35*
X163370805Y-85779372D03*
X163020787Y-86136461D03*
X162667234Y-86490014D03*
X162313681Y-86843567D03*
X161960127Y-87197121D03*
D40*
X161571219Y-87515319D03*
%TD*%
D19*
%TO.C,C110*%
X168031842Y-83310798D03*
X168710664Y-82631976D03*
%TD*%
D15*
%TO.C,R77*%
X158764953Y-82875138D03*
X159217501Y-83327686D03*
%TD*%
D17*
%TO.C,C32*%
X146385664Y-71706976D03*
X145706842Y-72385798D03*
%TD*%
D15*
%TO.C,C43*%
X149468705Y-92718839D03*
X149921253Y-93171387D03*
%TD*%
D13*
%TO.C,C22*%
X149718004Y-71624710D03*
X149265456Y-71172162D03*
%TD*%
%TO.C,R19*%
X146229456Y-94613904D03*
X145776908Y-94161356D03*
%TD*%
%TO.C,C40*%
X147290116Y-102887053D03*
X146837568Y-102434505D03*
%TD*%
D17*
%TO.C,C127*%
X165772474Y-90834776D03*
X165093652Y-91513598D03*
%TD*%
D15*
%TO.C,R131*%
X133708385Y-81770257D03*
X134160933Y-82222805D03*
%TD*%
%TO.C,R155*%
X137276224Y-91338814D03*
X137728772Y-91791362D03*
%TD*%
D17*
%TO.C,C158*%
X132063158Y-83506976D03*
X131384336Y-84185798D03*
%TD*%
D45*
%TO.C,U22*%
X134030118Y-87444789D03*
X133747275Y-87161947D03*
X133464432Y-86879104D03*
X133181590Y-86596261D03*
X132898747Y-86313419D03*
X132615904Y-86030576D03*
X132333062Y-85747733D03*
D46*
X132333062Y-84687073D03*
X132615904Y-84404230D03*
X132898747Y-84121387D03*
X133181590Y-83838545D03*
X133464432Y-83555702D03*
X133747275Y-83272859D03*
X134030118Y-82990017D03*
D45*
X135090778Y-82990017D03*
X135373621Y-83272859D03*
X135656464Y-83555702D03*
X135939306Y-83838545D03*
X136222149Y-84121387D03*
X136504992Y-84404230D03*
X136787834Y-84687073D03*
D46*
X136787834Y-85747733D03*
X136504992Y-86030576D03*
X136222149Y-86313419D03*
X135939306Y-86596261D03*
X135656464Y-86879104D03*
X135373621Y-87161947D03*
X135090778Y-87444789D03*
D47*
X134560448Y-85217403D03*
%TD*%
D87*
%TO.C,R87*%
X160523759Y-93821387D03*
X161163759Y-93821387D03*
%TD*%
D13*
%TO.C,R125*%
X141772527Y-83372661D03*
X141319979Y-82920113D03*
%TD*%
D15*
%TO.C,C46*%
X153295221Y-100813463D03*
X153747769Y-101266011D03*
%TD*%
D16*
%TO.C,C109*%
X168949877Y-80490213D03*
X168271055Y-79811391D03*
%TD*%
D13*
%TO.C,R128*%
X137225021Y-79297661D03*
X136772473Y-78845113D03*
%TD*%
D24*
%TO.C,C49*%
X150648874Y-101522336D03*
X151101422Y-101069788D03*
%TD*%
D20*
%TO.C,C27*%
X152548245Y-71448379D03*
X153644261Y-72544395D03*
%TD*%
D24*
%TO.C,C56*%
X154431681Y-104782889D03*
X154884229Y-104330341D03*
%TD*%
D60*
%TO.C,R137*%
X139568747Y-98971387D03*
X138928747Y-98971387D03*
%TD*%
D15*
%TO.C,C14*%
X145982712Y-83268992D03*
X146435260Y-83721540D03*
%TD*%
D17*
%TO.C,C103*%
X165774968Y-77859776D03*
X165096146Y-78538598D03*
%TD*%
D15*
%TO.C,R140*%
X136657020Y-100476609D03*
X137109568Y-100929157D03*
%TD*%
D77*
%TO.C,U26*%
X139061183Y-79302455D03*
D78*
X139450091Y-79620653D03*
X139803645Y-79974207D03*
X140157198Y-80327760D03*
X140510751Y-80681313D03*
X140864305Y-81034867D03*
D79*
X141182503Y-81423775D03*
D80*
X141182503Y-81961177D03*
D81*
X140864305Y-82350085D03*
X140510751Y-82703639D03*
X140157198Y-83057192D03*
X139803645Y-83410745D03*
X139450091Y-83764299D03*
D82*
X139061183Y-84082497D03*
D83*
X138523781Y-84082497D03*
D78*
X138134873Y-83764299D03*
X137781319Y-83410745D03*
X137427766Y-83057192D03*
X137074213Y-82703639D03*
X136720659Y-82350085D03*
D84*
X136402461Y-81961177D03*
D85*
X136402461Y-81423775D03*
D81*
X136724195Y-81038402D03*
X137074213Y-80681313D03*
X137427766Y-80327760D03*
X137781319Y-79974207D03*
X138134873Y-79620653D03*
D86*
X138523781Y-79302455D03*
%TD*%
D52*
%TO.C,C88*%
X155306581Y-95934766D03*
X154210565Y-94838750D03*
%TD*%
D16*
%TO.C,C210*%
X160975075Y-101770182D03*
X160296253Y-101091360D03*
%TD*%
D20*
%TO.C,C39*%
X148348246Y-103398379D03*
X149444262Y-104494395D03*
%TD*%
D13*
%TO.C,R82*%
X165896253Y-85546387D03*
X165443705Y-85093839D03*
%TD*%
%TO.C,C212*%
X140694600Y-79846927D03*
X140242052Y-79394379D03*
%TD*%
D21*
%TO.C,C159*%
X132417915Y-81943499D03*
X133096737Y-82622321D03*
%TD*%
D15*
%TO.C,R160*%
X135272473Y-93345113D03*
X135725021Y-93797661D03*
%TD*%
D16*
%TO.C,C179*%
X133438158Y-101460798D03*
X132759336Y-100781976D03*
%TD*%
D24*
%TO.C,R5*%
X144144979Y-81397661D03*
X144597527Y-80945113D03*
%TD*%
D88*
%TO.C,U11*%
X141388590Y-89843318D03*
D89*
X141399197Y-90030702D03*
X141964882Y-90596387D03*
X142530568Y-91162072D03*
X143096253Y-91727758D03*
X143661938Y-92293443D03*
X144227624Y-91727758D03*
X144793309Y-91162072D03*
X144227624Y-90596387D03*
X143661938Y-90030702D03*
X143096253Y-89465016D03*
X142530568Y-88899331D03*
X141964882Y-89465016D03*
%TD*%
D24*
%TO.C,R166*%
X142543705Y-81773935D03*
X142996253Y-81321387D03*
%TD*%
%TO.C,L1*%
X145900652Y-101437483D03*
X146353200Y-100984935D03*
%TD*%
D14*
%TO.C,TP17*%
X166196253Y-88846387D03*
%TD*%
D16*
%TO.C,C111*%
X167677085Y-84874275D03*
X166998263Y-84195453D03*
%TD*%
D24*
%TO.C,R45*%
X145369979Y-92622661D03*
X145822527Y-92170113D03*
%TD*%
D15*
%TO.C,R103*%
X162867485Y-100495113D03*
X163320033Y-100947661D03*
%TD*%
D87*
%TO.C,R13*%
X141046253Y-103146387D03*
X141686253Y-103146387D03*
%TD*%
D52*
%TO.C,C25*%
X142619261Y-79444395D03*
X141523245Y-78348379D03*
%TD*%
D15*
%TO.C,D1*%
X143219979Y-75220113D03*
X143672527Y-75672661D03*
%TD*%
D90*
%TO.C,JP3*%
X155913410Y-97029230D03*
X156408385Y-96534255D03*
%TD*%
D66*
%TO.C,C81*%
X141169387Y-87573506D03*
X140073371Y-88669522D03*
%TD*%
D13*
%TO.C,R110*%
X164820033Y-99447661D03*
X164367485Y-98995113D03*
%TD*%
D87*
%TO.C,R62*%
X160526253Y-80846387D03*
X161166253Y-80846387D03*
%TD*%
D71*
%TO.C,TP48*%
X158457775Y-72357909D03*
%TD*%
D51*
%TO.C,JP4*%
X155082433Y-98114083D03*
X154587458Y-97619108D03*
%TD*%
D14*
%TO.C,TP28*%
X133298747Y-92021387D03*
%TD*%
D24*
%TO.C,R29*%
X155069979Y-72072661D03*
X155522527Y-71620113D03*
%TD*%
D19*
%TO.C,C11*%
X159586318Y-76741944D03*
X160265140Y-76063122D03*
%TD*%
D91*
%TO.C,JP1*%
X143896253Y-71096387D03*
X143896253Y-71796387D03*
%TD*%
D14*
%TO.C,TP27*%
X134498747Y-79021387D03*
%TD*%
D24*
%TO.C,D17*%
X142671199Y-94948935D03*
X143123747Y-94496387D03*
%TD*%
D15*
%TO.C,R78*%
X162869979Y-87520113D03*
X163322527Y-87972661D03*
%TD*%
D92*
%TO.C,L3*%
X137896253Y-75846387D03*
X140046253Y-75846387D03*
%TD*%
D13*
%TO.C,R152*%
X141371253Y-96971387D03*
X140918705Y-96518839D03*
%TD*%
D15*
%TO.C,R154*%
X137771198Y-90843839D03*
X138223746Y-91296387D03*
%TD*%
D14*
%TO.C,TP29*%
X166193759Y-101821387D03*
%TD*%
M02*
