%TF.GenerationSoftware,KiCad,Pcbnew,10.0.6*%
%TF.CreationDate,2026-09-26T01:34:44+02:00*%
%TF.ProjectId,p4eregrine,70346572-6567-4726-996e-652e6b696361,rev?*%
%TF.SameCoordinates,Original*%
%TF.FileFunction,Legend,Bot*%
%TF.FilePolarity,Positive*%
%FSLAX46Y46*%
G04 Gerber Fmt 4.6, Leading zero omitted, Abs format (unit mm)*
G04 Created by KiCad (PCBNEW 10.0.6) date 2026-09-26 01:34:44*
%MOMM*%
%LPD*%
G01*
G04 APERTURE LIST*
%ADD10C,0.300000*%
%ADD11C,0.250000*%
%ADD12C,0.200000*%
%ADD13C,0.150000*%
%ADD14C,0.160000*%
%ADD15C,0.120000*%
%ADD16C,0.100000*%
%ADD17C,0.060000*%
%ADD18C,0.000000*%
%ADD19C,0.299999*%
G04 APERTURE END LIST*
D10*
X131392897Y-74597360D02*
X131392897Y-76997360D01*
X131392897Y-74597360D02*
G75*
G02*
X131711889Y-73159556I3400003J-40D01*
G01*
X131392897Y-105097362D02*
X131400000Y-104900000D01*
X131711874Y-106535173D02*
G75*
G02*
X131392913Y-105097362I3081026J1437773D01*
G01*
D11*
X132417897Y-72097360D02*
G75*
G02*
X132167897Y-72097360I-125000J0D01*
G01*
X132167897Y-72097360D02*
G75*
G02*
X132417897Y-72097360I125000J0D01*
G01*
X132417897Y-107597362D02*
G75*
G02*
X132167897Y-107597362I-125000J0D01*
G01*
X132167897Y-107597362D02*
G75*
G02*
X132417897Y-107597362I125000J0D01*
G01*
D10*
X133355086Y-71516337D02*
G75*
G02*
X134792897Y-71197362I1437814J-3081063D01*
G01*
X134792897Y-71197360D02*
X137192897Y-71197360D01*
X134792897Y-108497362D02*
G75*
G02*
X133355088Y-108178380I3J3399962D01*
G01*
X134792897Y-108497362D02*
X137192897Y-108497362D01*
D11*
X139825000Y-102700000D02*
G75*
G02*
X139575000Y-102700000I-125000J0D01*
G01*
X139575000Y-102700000D02*
G75*
G02*
X139825000Y-102700000I125000J0D01*
G01*
X157921253Y-71696387D02*
G75*
G02*
X157671253Y-71696387I-125000J0D01*
G01*
X157671253Y-71696387D02*
G75*
G02*
X157921253Y-71696387I125000J0D01*
G01*
D10*
X165292897Y-108497360D02*
X162892897Y-108497360D01*
X165292944Y-71201573D02*
X162892944Y-71201573D01*
X165292944Y-71201573D02*
G75*
G02*
X166730748Y-71520565I-44J-3400027D01*
G01*
X166730708Y-108178383D02*
G75*
G02*
X165292897Y-108497363I-1437808J3080983D01*
G01*
D11*
X167917897Y-107597360D02*
G75*
G02*
X167667897Y-107597360I-125000J0D01*
G01*
X167667897Y-107597360D02*
G75*
G02*
X167917897Y-107597360I125000J0D01*
G01*
X167917944Y-72101573D02*
G75*
G02*
X167667944Y-72101573I-125000J0D01*
G01*
X167667944Y-72101573D02*
G75*
G02*
X167917944Y-72101573I125000J0D01*
G01*
D10*
X168373967Y-73163762D02*
G75*
G02*
X168692952Y-74601573I-3081067J-1437838D01*
G01*
X168692897Y-105097360D02*
G75*
G02*
X168373935Y-106535178I-3399997J-40D01*
G01*
X168692897Y-105097360D02*
X168692897Y-102697360D01*
X168692944Y-74601573D02*
X168692944Y-74800000D01*
D12*
X140569673Y-105282653D02*
X141331578Y-105282653D01*
X143269673Y-105286266D02*
X144031578Y-105286266D01*
X143650625Y-105667219D02*
X143650625Y-104905314D01*
D13*
G36*
X133374675Y-80073127D02*
G01*
X133547062Y-80073127D01*
X133598414Y-80077391D01*
X133638646Y-80089063D01*
X133670084Y-80107108D01*
X133694405Y-80131424D01*
X133712451Y-80162854D01*
X133724124Y-80203072D01*
X133728387Y-80254404D01*
X133728387Y-80482722D01*
X133724124Y-80534055D01*
X133712451Y-80574273D01*
X133694405Y-80605703D01*
X133670084Y-80630019D01*
X133638646Y-80648064D01*
X133598414Y-80659736D01*
X133547062Y-80664000D01*
X133220265Y-80664000D01*
X133220265Y-80529715D01*
X133374675Y-80529715D01*
X133538122Y-80529715D01*
X133558449Y-80525514D01*
X133569728Y-80514236D01*
X133573928Y-80493909D01*
X133573928Y-80243218D01*
X133569728Y-80222891D01*
X133558449Y-80211612D01*
X133538122Y-80207412D01*
X133374675Y-80207412D01*
X133374675Y-80529715D01*
X133220265Y-80529715D01*
X133220265Y-79835528D01*
X133374675Y-79835528D01*
X133374675Y-80073127D01*
G37*
G36*
X133061214Y-79976212D02*
G01*
X133061214Y-79826149D01*
X132902309Y-79826149D01*
X132902309Y-79976212D01*
X133061214Y-79976212D01*
G37*
G36*
X133058967Y-80664000D02*
G01*
X133058967Y-80073127D01*
X132904508Y-80073127D01*
X132904508Y-80664000D01*
X133058967Y-80664000D01*
G37*
G36*
X132622224Y-80077391D02*
G01*
X132662456Y-80089063D01*
X132693894Y-80107108D01*
X132718215Y-80131424D01*
X132736261Y-80162854D01*
X132747934Y-80203072D01*
X132752198Y-80254404D01*
X132752198Y-80482722D01*
X132747934Y-80534055D01*
X132736261Y-80574273D01*
X132718215Y-80605703D01*
X132693894Y-80630019D01*
X132662456Y-80648064D01*
X132622224Y-80659736D01*
X132570872Y-80664000D01*
X132414166Y-80664000D01*
X132362813Y-80659736D01*
X132322581Y-80648064D01*
X132291143Y-80630019D01*
X132266823Y-80605703D01*
X132248776Y-80574273D01*
X132237103Y-80534055D01*
X132232840Y-80482722D01*
X132232840Y-80254404D01*
X132233769Y-80243218D01*
X132387299Y-80243218D01*
X132387299Y-80493909D01*
X132391503Y-80514231D01*
X132402794Y-80525512D01*
X132423154Y-80529715D01*
X132561933Y-80529715D01*
X132582259Y-80525514D01*
X132593538Y-80514236D01*
X132597739Y-80493909D01*
X132597739Y-80243218D01*
X132593538Y-80222891D01*
X132582259Y-80211612D01*
X132561933Y-80207412D01*
X132423154Y-80207412D01*
X132402794Y-80211615D01*
X132391503Y-80222896D01*
X132387299Y-80243218D01*
X132233769Y-80243218D01*
X132237103Y-80203072D01*
X132248776Y-80162854D01*
X132266823Y-80131424D01*
X132291143Y-80107108D01*
X132322581Y-80089063D01*
X132362813Y-80077391D01*
X132414166Y-80073127D01*
X132570872Y-80073127D01*
X132622224Y-80077391D01*
G37*
G36*
X133574675Y-92973127D02*
G01*
X133747062Y-92973127D01*
X133798414Y-92977391D01*
X133838646Y-92989063D01*
X133870084Y-93007108D01*
X133894405Y-93031424D01*
X133912451Y-93062854D01*
X133924124Y-93103072D01*
X133928387Y-93154404D01*
X133928387Y-93382722D01*
X133924124Y-93434055D01*
X133912451Y-93474273D01*
X133894405Y-93505703D01*
X133870084Y-93530019D01*
X133838646Y-93548064D01*
X133798414Y-93559736D01*
X133747062Y-93564000D01*
X133420265Y-93564000D01*
X133420265Y-93429715D01*
X133574675Y-93429715D01*
X133738122Y-93429715D01*
X133758449Y-93425514D01*
X133769728Y-93414236D01*
X133773928Y-93393909D01*
X133773928Y-93143218D01*
X133769728Y-93122891D01*
X133758449Y-93111612D01*
X133738122Y-93107412D01*
X133574675Y-93107412D01*
X133574675Y-93429715D01*
X133420265Y-93429715D01*
X133420265Y-92735528D01*
X133574675Y-92735528D01*
X133574675Y-92973127D01*
G37*
G36*
X133261214Y-92876212D02*
G01*
X133261214Y-92726149D01*
X133102309Y-92726149D01*
X133102309Y-92876212D01*
X133261214Y-92876212D01*
G37*
G36*
X133258967Y-93564000D02*
G01*
X133258967Y-92973127D01*
X133104508Y-92973127D01*
X133104508Y-93564000D01*
X133258967Y-93564000D01*
G37*
G36*
X132822224Y-92977391D02*
G01*
X132862456Y-92989063D01*
X132893894Y-93007108D01*
X132918215Y-93031424D01*
X132936261Y-93062854D01*
X132947934Y-93103072D01*
X132952198Y-93154404D01*
X132952198Y-93382722D01*
X132947934Y-93434055D01*
X132936261Y-93474273D01*
X132918215Y-93505703D01*
X132893894Y-93530019D01*
X132862456Y-93548064D01*
X132822224Y-93559736D01*
X132770872Y-93564000D01*
X132614166Y-93564000D01*
X132562813Y-93559736D01*
X132522581Y-93548064D01*
X132491143Y-93530019D01*
X132466823Y-93505703D01*
X132448776Y-93474273D01*
X132437103Y-93434055D01*
X132432840Y-93382722D01*
X132432840Y-93154404D01*
X132433769Y-93143218D01*
X132587299Y-93143218D01*
X132587299Y-93393909D01*
X132591503Y-93414231D01*
X132602794Y-93425512D01*
X132623154Y-93429715D01*
X132761933Y-93429715D01*
X132782259Y-93425514D01*
X132793538Y-93414236D01*
X132797739Y-93393909D01*
X132797739Y-93143218D01*
X132793538Y-93122891D01*
X132782259Y-93111612D01*
X132761933Y-93107412D01*
X132623154Y-93107412D01*
X132602794Y-93111615D01*
X132591503Y-93122896D01*
X132587299Y-93143218D01*
X132433769Y-93143218D01*
X132437103Y-93103072D01*
X132448776Y-93062854D01*
X132466823Y-93031424D01*
X132491143Y-93007108D01*
X132522581Y-92989063D01*
X132562813Y-92977391D01*
X132614166Y-92973127D01*
X132770872Y-92973127D01*
X132822224Y-92977391D01*
G37*
G36*
X134420146Y-90164000D02*
G01*
X134420146Y-89649233D01*
X134401488Y-89622873D01*
X134377384Y-89602188D01*
X134346982Y-89586736D01*
X134308869Y-89576752D01*
X134261193Y-89573127D01*
X134140342Y-89573127D01*
X134073175Y-89623490D01*
X134073175Y-89707412D01*
X134224264Y-89707412D01*
X134251130Y-89711565D01*
X134265687Y-89721969D01*
X134265687Y-90164000D01*
X134420146Y-90164000D01*
G37*
G36*
X133984075Y-90113637D02*
G01*
X133984075Y-90029715D01*
X133726643Y-90029715D01*
X133705441Y-90024958D01*
X133693263Y-90011783D01*
X133688590Y-89987217D01*
X133692871Y-89960906D01*
X133703951Y-89945587D01*
X133722149Y-89937977D01*
X133843049Y-89917803D01*
X133888352Y-89905915D01*
X133922979Y-89888142D01*
X133949054Y-89864931D01*
X133967882Y-89835852D01*
X133979788Y-89799649D01*
X133984075Y-89754404D01*
X133979812Y-89703072D01*
X133968139Y-89662854D01*
X133950092Y-89631424D01*
X133925772Y-89607108D01*
X133894333Y-89589063D01*
X133854102Y-89577391D01*
X133802749Y-89573127D01*
X133629288Y-89573127D01*
X133562121Y-89623490D01*
X133562121Y-89707412D01*
X133792687Y-89707412D01*
X133813885Y-89712172D01*
X133826065Y-89725360D01*
X133830740Y-89749959D01*
X133826455Y-89776264D01*
X133815361Y-89791585D01*
X133797132Y-89799198D01*
X133676280Y-89819324D01*
X133630978Y-89831212D01*
X133596351Y-89848985D01*
X133570276Y-89872195D01*
X133551448Y-89901275D01*
X133539541Y-89937478D01*
X133535255Y-89982722D01*
X133539518Y-90034055D01*
X133551191Y-90074273D01*
X133569238Y-90105703D01*
X133593558Y-90130019D01*
X133624996Y-90148064D01*
X133665228Y-90159736D01*
X133716580Y-90164000D01*
X133916908Y-90164000D01*
X133984075Y-90113637D01*
G37*
G36*
X133400188Y-89982722D02*
G01*
X133400188Y-89391801D01*
X133245729Y-89391801D01*
X133245729Y-89573127D01*
X133053217Y-89573127D01*
X133053217Y-89707412D01*
X133245729Y-89707412D01*
X133245729Y-89993909D01*
X133241529Y-90014236D01*
X133230250Y-90025514D01*
X133209923Y-90029715D01*
X133042031Y-90029715D01*
X133042031Y-90113637D01*
X133109197Y-90164000D01*
X133218862Y-90164000D01*
X133270215Y-90159736D01*
X133310446Y-90148064D01*
X133341885Y-90130019D01*
X133366205Y-90105703D01*
X133384252Y-90074273D01*
X133395925Y-90034055D01*
X133400188Y-89982722D01*
G37*
G36*
X136624640Y-91279109D02*
G01*
X136624640Y-91050791D01*
X136620377Y-90999459D01*
X136608704Y-90959241D01*
X136590658Y-90927811D01*
X136566337Y-90903495D01*
X136534899Y-90885450D01*
X136494667Y-90873778D01*
X136443315Y-90869514D01*
X136235122Y-90869514D01*
X136168004Y-90919877D01*
X136168004Y-91003799D01*
X136434375Y-91003799D01*
X136454702Y-91007999D01*
X136465981Y-91019278D01*
X136470181Y-91039605D01*
X136470181Y-91290296D01*
X136465981Y-91310623D01*
X136454702Y-91321901D01*
X136434375Y-91326102D01*
X136168004Y-91326102D01*
X136168004Y-91410024D01*
X136235122Y-91460387D01*
X136443315Y-91460387D01*
X136494667Y-91456123D01*
X136534899Y-91444451D01*
X136566337Y-91426406D01*
X136590658Y-91402090D01*
X136608704Y-91370660D01*
X136620377Y-91330442D01*
X136624640Y-91279109D01*
G37*
G36*
X136040216Y-91245257D02*
G01*
X136040216Y-90631915D01*
X135885757Y-90631915D01*
X135885757Y-91260938D01*
X135880996Y-91292563D01*
X135868055Y-91314457D01*
X135846747Y-91329235D01*
X135814145Y-91337044D01*
X135814145Y-91471329D01*
X135878165Y-91466012D01*
X135928323Y-91451457D01*
X135967520Y-91428956D01*
X135997843Y-91398632D01*
X136020345Y-91359436D01*
X136034900Y-91309278D01*
X136040216Y-91245257D01*
G37*
G36*
X135688702Y-91460387D02*
G01*
X135688702Y-90631915D01*
X135534243Y-90631915D01*
X135534243Y-91092215D01*
X135329470Y-90869514D01*
X135177257Y-90869514D01*
X135164948Y-90895257D01*
X135369721Y-91115711D01*
X135149267Y-91434643D01*
X135161577Y-91460387D01*
X135312666Y-91460387D01*
X135471570Y-91226500D01*
X135534243Y-91294741D01*
X135534243Y-91460387D01*
X135688702Y-91460387D01*
G37*
G36*
X139274675Y-99673127D02*
G01*
X139447062Y-99673127D01*
X139498414Y-99677391D01*
X139538646Y-99689063D01*
X139570084Y-99707108D01*
X139594405Y-99731424D01*
X139612451Y-99762854D01*
X139624124Y-99803072D01*
X139628387Y-99854404D01*
X139628387Y-100082722D01*
X139624124Y-100134055D01*
X139612451Y-100174273D01*
X139594405Y-100205703D01*
X139570084Y-100230019D01*
X139538646Y-100248064D01*
X139498414Y-100259736D01*
X139447062Y-100264000D01*
X139120265Y-100264000D01*
X139120265Y-100129715D01*
X139274675Y-100129715D01*
X139438122Y-100129715D01*
X139458449Y-100125514D01*
X139469728Y-100114236D01*
X139473928Y-100093909D01*
X139473928Y-99843218D01*
X139469728Y-99822891D01*
X139458449Y-99811612D01*
X139438122Y-99807412D01*
X139274675Y-99807412D01*
X139274675Y-100129715D01*
X139120265Y-100129715D01*
X139120265Y-99435528D01*
X139274675Y-99435528D01*
X139274675Y-99673127D01*
G37*
G36*
X138837981Y-99677391D02*
G01*
X138878213Y-99689063D01*
X138909652Y-99707108D01*
X138933972Y-99731424D01*
X138952018Y-99762854D01*
X138963691Y-99803072D01*
X138967955Y-99854404D01*
X138967955Y-100082722D01*
X138963691Y-100134055D01*
X138952018Y-100174273D01*
X138933972Y-100205703D01*
X138909652Y-100230019D01*
X138878213Y-100248064D01*
X138837981Y-100259736D01*
X138786629Y-100264000D01*
X138629923Y-100264000D01*
X138578571Y-100259736D01*
X138538339Y-100248064D01*
X138506900Y-100230019D01*
X138482580Y-100205703D01*
X138464533Y-100174273D01*
X138452860Y-100134055D01*
X138448597Y-100082722D01*
X138448597Y-99854404D01*
X138449526Y-99843218D01*
X138603056Y-99843218D01*
X138603056Y-100093909D01*
X138607260Y-100114231D01*
X138618552Y-100125512D01*
X138638911Y-100129715D01*
X138777690Y-100129715D01*
X138798017Y-100125514D01*
X138809295Y-100114236D01*
X138813496Y-100093909D01*
X138813496Y-99843218D01*
X138809295Y-99822891D01*
X138798017Y-99811612D01*
X138777690Y-99807412D01*
X138638911Y-99807412D01*
X138618552Y-99811615D01*
X138607260Y-99822896D01*
X138603056Y-99843218D01*
X138449526Y-99843218D01*
X138452860Y-99803072D01*
X138464533Y-99762854D01*
X138482580Y-99731424D01*
X138506900Y-99707108D01*
X138538339Y-99689063D01*
X138578571Y-99677391D01*
X138629923Y-99673127D01*
X138786629Y-99673127D01*
X138837981Y-99677391D01*
G37*
G36*
X141928387Y-98282722D02*
G01*
X141928387Y-98054404D01*
X141924124Y-98003072D01*
X141912451Y-97962854D01*
X141894405Y-97931424D01*
X141870084Y-97907108D01*
X141838646Y-97889063D01*
X141798414Y-97877391D01*
X141747062Y-97873127D01*
X141538869Y-97873127D01*
X141471751Y-97923490D01*
X141471751Y-98007412D01*
X141738122Y-98007412D01*
X141758449Y-98011612D01*
X141769728Y-98022891D01*
X141773928Y-98043218D01*
X141773928Y-98293909D01*
X141769728Y-98314236D01*
X141758449Y-98325514D01*
X141738122Y-98329715D01*
X141471751Y-98329715D01*
X141471751Y-98413637D01*
X141538869Y-98464000D01*
X141747062Y-98464000D01*
X141798414Y-98459736D01*
X141838646Y-98448064D01*
X141870084Y-98430019D01*
X141894405Y-98405703D01*
X141912451Y-98374273D01*
X141924124Y-98334055D01*
X141928387Y-98282722D01*
G37*
G36*
X141339469Y-98464000D02*
G01*
X141339469Y-97635528D01*
X141185010Y-97635528D01*
X141185010Y-98095828D01*
X140980237Y-97873127D01*
X140828025Y-97873127D01*
X140815715Y-97898870D01*
X141020488Y-98119324D01*
X140800034Y-98438256D01*
X140812344Y-98464000D01*
X140963433Y-98464000D01*
X141122337Y-98230113D01*
X141185010Y-98298354D01*
X141185010Y-98464000D01*
X141339469Y-98464000D01*
G37*
G36*
X142519399Y-102264000D02*
G01*
X142519399Y-101673127D01*
X141845631Y-101673127D01*
X141794296Y-101677390D01*
X141754076Y-101689061D01*
X141722646Y-101707104D01*
X141698331Y-101731419D01*
X141680288Y-101762849D01*
X141668617Y-101803069D01*
X141664354Y-101854404D01*
X141664354Y-102264000D01*
X141818764Y-102264000D01*
X141818764Y-101843218D01*
X141822968Y-101822896D01*
X141834260Y-101811615D01*
X141854619Y-101807412D01*
X142014647Y-101807412D01*
X142014647Y-102264000D01*
X142169106Y-102264000D01*
X142169106Y-101807412D01*
X142364940Y-101807412D01*
X142364940Y-102264000D01*
X142519399Y-102264000D01*
G37*
G36*
X141527431Y-102213637D02*
G01*
X141527431Y-102129715D01*
X141270000Y-102129715D01*
X141248797Y-102124958D01*
X141236619Y-102111783D01*
X141231946Y-102087217D01*
X141236227Y-102060906D01*
X141247307Y-102045587D01*
X141265505Y-102037977D01*
X141386406Y-102017803D01*
X141431708Y-102005915D01*
X141466335Y-101988142D01*
X141492411Y-101964931D01*
X141511238Y-101935852D01*
X141523145Y-101899649D01*
X141527431Y-101854404D01*
X141523168Y-101803072D01*
X141511495Y-101762854D01*
X141493449Y-101731424D01*
X141469128Y-101707108D01*
X141437690Y-101689063D01*
X141397458Y-101677391D01*
X141346106Y-101673127D01*
X141172644Y-101673127D01*
X141105478Y-101723490D01*
X141105478Y-101807412D01*
X141336043Y-101807412D01*
X141357241Y-101812172D01*
X141369421Y-101825360D01*
X141374096Y-101849959D01*
X141369811Y-101876264D01*
X141358717Y-101891585D01*
X141340488Y-101899198D01*
X141219637Y-101919324D01*
X141174335Y-101931212D01*
X141139707Y-101948985D01*
X141113632Y-101972195D01*
X141094804Y-102001275D01*
X141082898Y-102037478D01*
X141078611Y-102082722D01*
X141082874Y-102134055D01*
X141094547Y-102174273D01*
X141112594Y-102205703D01*
X141136914Y-102230019D01*
X141168353Y-102248064D01*
X141208584Y-102259736D01*
X141259937Y-102264000D01*
X141460265Y-102264000D01*
X141527431Y-102213637D01*
G37*
G36*
X142874675Y-98773127D02*
G01*
X143047062Y-98773127D01*
X143098414Y-98777391D01*
X143138646Y-98789063D01*
X143170084Y-98807108D01*
X143194405Y-98831424D01*
X143212451Y-98862854D01*
X143224124Y-98903072D01*
X143228387Y-98954404D01*
X143228387Y-99182722D01*
X143224124Y-99234055D01*
X143212451Y-99274273D01*
X143194405Y-99305703D01*
X143170084Y-99330019D01*
X143138646Y-99348064D01*
X143098414Y-99359736D01*
X143047062Y-99364000D01*
X142720265Y-99364000D01*
X142720265Y-99229715D01*
X142874675Y-99229715D01*
X143038122Y-99229715D01*
X143058449Y-99225514D01*
X143069728Y-99214236D01*
X143073928Y-99193909D01*
X143073928Y-98943218D01*
X143069728Y-98922891D01*
X143058449Y-98911612D01*
X143038122Y-98907412D01*
X142874675Y-98907412D01*
X142874675Y-99229715D01*
X142720265Y-99229715D01*
X142720265Y-98535528D01*
X142874675Y-98535528D01*
X142874675Y-98773127D01*
G37*
G36*
X142561214Y-98676212D02*
G01*
X142561214Y-98526149D01*
X142402309Y-98526149D01*
X142402309Y-98676212D01*
X142561214Y-98676212D01*
G37*
G36*
X142558967Y-99364000D02*
G01*
X142558967Y-98773127D01*
X142404508Y-98773127D01*
X142404508Y-99364000D01*
X142558967Y-99364000D01*
G37*
G36*
X162639574Y-72113637D02*
G01*
X162639574Y-72029715D01*
X162382142Y-72029715D01*
X162360939Y-72024958D01*
X162348762Y-72011783D01*
X162344089Y-71987217D01*
X162348369Y-71960906D01*
X162359449Y-71945587D01*
X162377648Y-71937977D01*
X162498548Y-71917803D01*
X162543850Y-71905915D01*
X162578477Y-71888142D01*
X162604553Y-71864931D01*
X162623381Y-71835852D01*
X162635287Y-71799649D01*
X162639574Y-71754404D01*
X162635310Y-71703072D01*
X162623637Y-71662854D01*
X162605591Y-71631424D01*
X162581271Y-71607108D01*
X162549832Y-71589063D01*
X162509600Y-71577391D01*
X162458248Y-71573127D01*
X162284787Y-71573127D01*
X162217620Y-71623490D01*
X162217620Y-71707412D01*
X162448185Y-71707412D01*
X162469383Y-71712172D01*
X162481563Y-71725360D01*
X162486238Y-71749959D01*
X162481954Y-71776264D01*
X162470860Y-71791585D01*
X162452630Y-71799198D01*
X162331779Y-71819324D01*
X162286477Y-71831212D01*
X162251850Y-71848985D01*
X162225774Y-71872195D01*
X162206946Y-71901275D01*
X162195040Y-71937478D01*
X162190753Y-71982722D01*
X162195017Y-72034055D01*
X162206690Y-72074273D01*
X162224736Y-72105703D01*
X162249056Y-72130019D01*
X162280495Y-72148064D01*
X162320727Y-72159736D01*
X162372079Y-72164000D01*
X162572407Y-72164000D01*
X162639574Y-72113637D01*
G37*
G36*
X161706468Y-71573127D02*
G01*
X161878855Y-71573127D01*
X161930207Y-71577391D01*
X161970439Y-71589063D01*
X162001878Y-71607108D01*
X162026198Y-71631424D01*
X162044245Y-71662854D01*
X162055917Y-71703072D01*
X162060181Y-71754404D01*
X162060181Y-71982722D01*
X162055917Y-72034055D01*
X162044245Y-72074273D01*
X162026198Y-72105703D01*
X162001878Y-72130019D01*
X161970439Y-72148064D01*
X161930207Y-72159736D01*
X161878855Y-72164000D01*
X161552058Y-72164000D01*
X161552058Y-72029715D01*
X161706468Y-72029715D01*
X161869916Y-72029715D01*
X161890243Y-72025514D01*
X161901521Y-72014236D01*
X161905722Y-71993909D01*
X161905722Y-71743218D01*
X161901521Y-71722891D01*
X161890243Y-71711612D01*
X161869916Y-71707412D01*
X161706468Y-71707412D01*
X161706468Y-72029715D01*
X161552058Y-72029715D01*
X161552058Y-71335528D01*
X161706468Y-71335528D01*
X161706468Y-71573127D01*
G37*
G36*
X161359448Y-71623490D02*
G01*
X161359448Y-71707412D01*
X161122142Y-71707412D01*
X161101796Y-71711599D01*
X161090527Y-71722825D01*
X161086336Y-71743023D01*
X161086336Y-71807600D01*
X161240795Y-71807600D01*
X161292345Y-71811827D01*
X161332664Y-71823384D01*
X161364100Y-71841216D01*
X161388353Y-71865185D01*
X161406305Y-71896085D01*
X161417893Y-71935534D01*
X161422121Y-71985800D01*
X161417893Y-72036066D01*
X161406305Y-72075515D01*
X161388353Y-72106415D01*
X161364100Y-72130384D01*
X161332664Y-72148216D01*
X161292345Y-72159773D01*
X161240795Y-72164000D01*
X160931877Y-72164000D01*
X160931877Y-72029715D01*
X161086336Y-72029715D01*
X161231856Y-72029715D01*
X161252164Y-72025501D01*
X161263452Y-72014170D01*
X161267662Y-71993713D01*
X161267662Y-71964453D01*
X161263452Y-71943997D01*
X161252164Y-71932665D01*
X161231856Y-71928452D01*
X161086336Y-71928452D01*
X161086336Y-72029715D01*
X160931877Y-72029715D01*
X160931877Y-71754404D01*
X160936140Y-71703072D01*
X160947813Y-71662854D01*
X160965860Y-71631424D01*
X160990180Y-71607108D01*
X161021618Y-71589063D01*
X161061850Y-71577391D01*
X161113203Y-71573127D01*
X161292281Y-71573127D01*
X161359448Y-71623490D01*
G37*
G36*
X162923893Y-73264000D02*
G01*
X162923893Y-72749233D01*
X162905235Y-72722873D01*
X162881131Y-72702188D01*
X162850729Y-72686736D01*
X162812616Y-72676752D01*
X162764940Y-72673127D01*
X162644089Y-72673127D01*
X162576922Y-72723490D01*
X162576922Y-72807412D01*
X162728011Y-72807412D01*
X162754877Y-72811565D01*
X162769434Y-72821969D01*
X162769434Y-73264000D01*
X162923893Y-73264000D01*
G37*
G36*
X162516887Y-73238256D02*
G01*
X162323300Y-72965193D01*
X162511318Y-72698870D01*
X162499009Y-72673127D01*
X162356859Y-72673127D01*
X162237083Y-72849959D01*
X162117355Y-72673127D01*
X161975205Y-72673127D01*
X161962896Y-72698870D01*
X162150914Y-72965193D01*
X161957278Y-73238256D01*
X161969588Y-73264000D01*
X162111737Y-73264000D01*
X162237083Y-73081599D01*
X162362477Y-73264000D01*
X162504577Y-73264000D01*
X162516887Y-73238256D01*
G37*
G36*
X165228387Y-88782722D02*
G01*
X165228387Y-88554404D01*
X165224124Y-88503072D01*
X165212451Y-88462854D01*
X165194405Y-88431424D01*
X165170084Y-88407108D01*
X165138646Y-88389063D01*
X165098414Y-88377391D01*
X165047062Y-88373127D01*
X164838869Y-88373127D01*
X164771751Y-88423490D01*
X164771751Y-88507412D01*
X165038122Y-88507412D01*
X165058449Y-88511612D01*
X165069728Y-88522891D01*
X165073928Y-88543218D01*
X165073928Y-88793909D01*
X165069728Y-88814236D01*
X165058449Y-88825514D01*
X165038122Y-88829715D01*
X164771751Y-88829715D01*
X164771751Y-88913637D01*
X164838869Y-88964000D01*
X165047062Y-88964000D01*
X165098414Y-88959736D01*
X165138646Y-88948064D01*
X165170084Y-88930019D01*
X165194405Y-88905703D01*
X165212451Y-88874273D01*
X165224124Y-88834055D01*
X165228387Y-88782722D01*
G37*
G36*
X164643963Y-88748870D02*
G01*
X164643963Y-88135528D01*
X164489504Y-88135528D01*
X164489504Y-88764551D01*
X164484743Y-88796176D01*
X164471802Y-88818070D01*
X164450494Y-88832848D01*
X164417892Y-88840657D01*
X164417892Y-88974942D01*
X164481912Y-88969625D01*
X164532070Y-88955070D01*
X164571267Y-88932569D01*
X164601590Y-88902245D01*
X164624092Y-88863049D01*
X164638647Y-88812891D01*
X164643963Y-88748870D01*
G37*
G36*
X164292449Y-88964000D02*
G01*
X164292449Y-88135528D01*
X164137990Y-88135528D01*
X164137990Y-88595828D01*
X163933217Y-88373127D01*
X163781004Y-88373127D01*
X163768695Y-88398870D01*
X163973468Y-88619324D01*
X163753014Y-88938256D01*
X163765324Y-88964000D01*
X163916413Y-88964000D01*
X164075317Y-88730113D01*
X164137990Y-88798354D01*
X164137990Y-88964000D01*
X164292449Y-88964000D01*
G37*
G36*
X165324640Y-101679109D02*
G01*
X165324640Y-101450791D01*
X165320377Y-101399459D01*
X165308704Y-101359241D01*
X165290658Y-101327811D01*
X165266337Y-101303495D01*
X165234899Y-101285450D01*
X165194667Y-101273778D01*
X165143315Y-101269514D01*
X164935122Y-101269514D01*
X164868004Y-101319877D01*
X164868004Y-101403799D01*
X165134375Y-101403799D01*
X165154702Y-101407999D01*
X165165981Y-101419278D01*
X165170181Y-101439605D01*
X165170181Y-101690296D01*
X165165981Y-101710623D01*
X165154702Y-101721901D01*
X165134375Y-101726102D01*
X164868004Y-101726102D01*
X164868004Y-101810024D01*
X164935122Y-101860387D01*
X165143315Y-101860387D01*
X165194667Y-101856123D01*
X165234899Y-101844451D01*
X165266337Y-101826406D01*
X165290658Y-101802090D01*
X165308704Y-101770660D01*
X165320377Y-101730442D01*
X165324640Y-101679109D01*
G37*
G36*
X164740216Y-101645257D02*
G01*
X164740216Y-101031915D01*
X164585757Y-101031915D01*
X164585757Y-101660938D01*
X164580996Y-101692563D01*
X164568055Y-101714457D01*
X164546747Y-101729235D01*
X164514145Y-101737044D01*
X164514145Y-101871329D01*
X164578165Y-101866012D01*
X164628323Y-101851457D01*
X164667520Y-101828956D01*
X164697843Y-101798632D01*
X164720345Y-101759436D01*
X164734900Y-101709278D01*
X164740216Y-101645257D01*
G37*
G36*
X164388702Y-101860387D02*
G01*
X164388702Y-101031915D01*
X164234243Y-101031915D01*
X164234243Y-101492215D01*
X164029470Y-101269514D01*
X163877257Y-101269514D01*
X163864948Y-101295257D01*
X164069721Y-101515711D01*
X163849267Y-101834643D01*
X163861577Y-101860387D01*
X164012666Y-101860387D01*
X164171570Y-101626500D01*
X164234243Y-101694741D01*
X164234243Y-101860387D01*
X164388702Y-101860387D01*
G37*
G36*
X167523893Y-90364000D02*
G01*
X167523893Y-89849233D01*
X167505235Y-89822873D01*
X167481131Y-89802188D01*
X167450729Y-89786736D01*
X167412616Y-89776752D01*
X167364940Y-89773127D01*
X167244089Y-89773127D01*
X167176922Y-89823490D01*
X167176922Y-89907412D01*
X167328011Y-89907412D01*
X167354877Y-89911565D01*
X167369434Y-89921969D01*
X167369434Y-90364000D01*
X167523893Y-90364000D01*
G37*
G36*
X167087822Y-90313637D02*
G01*
X167087822Y-90229715D01*
X166830390Y-90229715D01*
X166809188Y-90224958D01*
X166797010Y-90211783D01*
X166792337Y-90187217D01*
X166796618Y-90160906D01*
X166807698Y-90145587D01*
X166825896Y-90137977D01*
X166946796Y-90117803D01*
X166992099Y-90105915D01*
X167026726Y-90088142D01*
X167052801Y-90064931D01*
X167071629Y-90035852D01*
X167083535Y-89999649D01*
X167087822Y-89954404D01*
X167083559Y-89903072D01*
X167071886Y-89862854D01*
X167053839Y-89831424D01*
X167029519Y-89807108D01*
X166998080Y-89789063D01*
X166957849Y-89777391D01*
X166906496Y-89773127D01*
X166733035Y-89773127D01*
X166665868Y-89823490D01*
X166665868Y-89907412D01*
X166896434Y-89907412D01*
X166917632Y-89912172D01*
X166929812Y-89925360D01*
X166934487Y-89949959D01*
X166930202Y-89976264D01*
X166919108Y-89991585D01*
X166900879Y-89999198D01*
X166780027Y-90019324D01*
X166734725Y-90031212D01*
X166700098Y-90048985D01*
X166674023Y-90072195D01*
X166655195Y-90101275D01*
X166643288Y-90137478D01*
X166639002Y-90182722D01*
X166643265Y-90234055D01*
X166654938Y-90274273D01*
X166672985Y-90305703D01*
X166697305Y-90330019D01*
X166728743Y-90348064D01*
X166768975Y-90359736D01*
X166820327Y-90364000D01*
X167020655Y-90364000D01*
X167087822Y-90313637D01*
G37*
G36*
X166503935Y-90182722D02*
G01*
X166503935Y-89591801D01*
X166349476Y-89591801D01*
X166349476Y-89773127D01*
X166156964Y-89773127D01*
X166156964Y-89907412D01*
X166349476Y-89907412D01*
X166349476Y-90193909D01*
X166345276Y-90214236D01*
X166333997Y-90225514D01*
X166313670Y-90229715D01*
X166145778Y-90229715D01*
X166145778Y-90313637D01*
X166212944Y-90364000D01*
X166322609Y-90364000D01*
X166373962Y-90359736D01*
X166414193Y-90348064D01*
X166445632Y-90330019D01*
X166469952Y-90305703D01*
X166487999Y-90274273D01*
X166499672Y-90234055D01*
X166503935Y-90182722D01*
G37*
G36*
X167274675Y-86373127D02*
G01*
X167447062Y-86373127D01*
X167498414Y-86377391D01*
X167538646Y-86389063D01*
X167570084Y-86407108D01*
X167594405Y-86431424D01*
X167612451Y-86462854D01*
X167624124Y-86503072D01*
X167628387Y-86554404D01*
X167628387Y-86782722D01*
X167624124Y-86834055D01*
X167612451Y-86874273D01*
X167594405Y-86905703D01*
X167570084Y-86930019D01*
X167538646Y-86948064D01*
X167498414Y-86959736D01*
X167447062Y-86964000D01*
X167120265Y-86964000D01*
X167120265Y-86829715D01*
X167274675Y-86829715D01*
X167438122Y-86829715D01*
X167458449Y-86825514D01*
X167469728Y-86814236D01*
X167473928Y-86793909D01*
X167473928Y-86543218D01*
X167469728Y-86522891D01*
X167458449Y-86511612D01*
X167438122Y-86507412D01*
X167274675Y-86507412D01*
X167274675Y-86829715D01*
X167120265Y-86829715D01*
X167120265Y-86135528D01*
X167274675Y-86135528D01*
X167274675Y-86373127D01*
G37*
G36*
X166961214Y-86276212D02*
G01*
X166961214Y-86126149D01*
X166802309Y-86126149D01*
X166802309Y-86276212D01*
X166961214Y-86276212D01*
G37*
G36*
X166958967Y-86964000D02*
G01*
X166958967Y-86373127D01*
X166804508Y-86373127D01*
X166804508Y-86964000D01*
X166958967Y-86964000D01*
G37*
G36*
X166522224Y-86377391D02*
G01*
X166562456Y-86389063D01*
X166593894Y-86407108D01*
X166618215Y-86431424D01*
X166636261Y-86462854D01*
X166647934Y-86503072D01*
X166652198Y-86554404D01*
X166652198Y-86782722D01*
X166647934Y-86834055D01*
X166636261Y-86874273D01*
X166618215Y-86905703D01*
X166593894Y-86930019D01*
X166562456Y-86948064D01*
X166522224Y-86959736D01*
X166470872Y-86964000D01*
X166314166Y-86964000D01*
X166262813Y-86959736D01*
X166222581Y-86948064D01*
X166191143Y-86930019D01*
X166166823Y-86905703D01*
X166148776Y-86874273D01*
X166137103Y-86834055D01*
X166132840Y-86782722D01*
X166132840Y-86554404D01*
X166133769Y-86543218D01*
X166287299Y-86543218D01*
X166287299Y-86793909D01*
X166291503Y-86814231D01*
X166302794Y-86825512D01*
X166323154Y-86829715D01*
X166461933Y-86829715D01*
X166482259Y-86825514D01*
X166493538Y-86814236D01*
X166497739Y-86793909D01*
X166497739Y-86543218D01*
X166493538Y-86522891D01*
X166482259Y-86511612D01*
X166461933Y-86507412D01*
X166323154Y-86507412D01*
X166302794Y-86511615D01*
X166291503Y-86522896D01*
X166287299Y-86543218D01*
X166133769Y-86543218D01*
X166137103Y-86503072D01*
X166148776Y-86462854D01*
X166166823Y-86431424D01*
X166191143Y-86407108D01*
X166222581Y-86389063D01*
X166262813Y-86377391D01*
X166314166Y-86373127D01*
X166470872Y-86373127D01*
X166522224Y-86377391D01*
G37*
G36*
X167974675Y-99369514D02*
G01*
X168147062Y-99369514D01*
X168198414Y-99373778D01*
X168238646Y-99385450D01*
X168270084Y-99403495D01*
X168294405Y-99427811D01*
X168312451Y-99459241D01*
X168324124Y-99499459D01*
X168328387Y-99550791D01*
X168328387Y-99779109D01*
X168324124Y-99830442D01*
X168312451Y-99870660D01*
X168294405Y-99902090D01*
X168270084Y-99926406D01*
X168238646Y-99944451D01*
X168198414Y-99956123D01*
X168147062Y-99960387D01*
X167820265Y-99960387D01*
X167820265Y-99826102D01*
X167974675Y-99826102D01*
X168138122Y-99826102D01*
X168158449Y-99821901D01*
X168169728Y-99810623D01*
X168173928Y-99790296D01*
X168173928Y-99539605D01*
X168169728Y-99519278D01*
X168158449Y-99507999D01*
X168138122Y-99503799D01*
X167974675Y-99503799D01*
X167974675Y-99826102D01*
X167820265Y-99826102D01*
X167820265Y-99131915D01*
X167974675Y-99131915D01*
X167974675Y-99369514D01*
G37*
G36*
X167661214Y-99272599D02*
G01*
X167661214Y-99122536D01*
X167502309Y-99122536D01*
X167502309Y-99272599D01*
X167661214Y-99272599D01*
G37*
G36*
X167658967Y-99960387D02*
G01*
X167658967Y-99369514D01*
X167504508Y-99369514D01*
X167504508Y-99960387D01*
X167658967Y-99960387D01*
G37*
G36*
X167222224Y-99373778D02*
G01*
X167262456Y-99385450D01*
X167293894Y-99403495D01*
X167318215Y-99427811D01*
X167336261Y-99459241D01*
X167347934Y-99499459D01*
X167352198Y-99550791D01*
X167352198Y-99779109D01*
X167347934Y-99830442D01*
X167336261Y-99870660D01*
X167318215Y-99902090D01*
X167293894Y-99926406D01*
X167262456Y-99944451D01*
X167222224Y-99956123D01*
X167170872Y-99960387D01*
X167014166Y-99960387D01*
X166962813Y-99956123D01*
X166922581Y-99944451D01*
X166891143Y-99926406D01*
X166866823Y-99902090D01*
X166848776Y-99870660D01*
X166837103Y-99830442D01*
X166832840Y-99779109D01*
X166832840Y-99550791D01*
X166833769Y-99539605D01*
X166987299Y-99539605D01*
X166987299Y-99790296D01*
X166991503Y-99810618D01*
X167002794Y-99821899D01*
X167023154Y-99826102D01*
X167161933Y-99826102D01*
X167182259Y-99821901D01*
X167193538Y-99810623D01*
X167197739Y-99790296D01*
X167197739Y-99539605D01*
X167193538Y-99519278D01*
X167182259Y-99507999D01*
X167161933Y-99503799D01*
X167023154Y-99503799D01*
X167002794Y-99508002D01*
X166991503Y-99519283D01*
X166987299Y-99539605D01*
X166833769Y-99539605D01*
X166837103Y-99499459D01*
X166848776Y-99459241D01*
X166866823Y-99427811D01*
X166891143Y-99403495D01*
X166922581Y-99385450D01*
X166962813Y-99373778D01*
X167014166Y-99369514D01*
X167170872Y-99369514D01*
X167222224Y-99373778D01*
G37*
G36*
X168323893Y-102260387D02*
G01*
X168323893Y-101745620D01*
X168305235Y-101719260D01*
X168281131Y-101698575D01*
X168250729Y-101683123D01*
X168212616Y-101673139D01*
X168164940Y-101669514D01*
X168044089Y-101669514D01*
X167976922Y-101719877D01*
X167976922Y-101803799D01*
X168128011Y-101803799D01*
X168154877Y-101807952D01*
X168169434Y-101818356D01*
X168169434Y-102260387D01*
X168323893Y-102260387D01*
G37*
G36*
X167887822Y-102210024D02*
G01*
X167887822Y-102126102D01*
X167630390Y-102126102D01*
X167609188Y-102121345D01*
X167597010Y-102108170D01*
X167592337Y-102083604D01*
X167596618Y-102057293D01*
X167607698Y-102041974D01*
X167625896Y-102034364D01*
X167746796Y-102014190D01*
X167792099Y-102002302D01*
X167826726Y-101984529D01*
X167852801Y-101961318D01*
X167871629Y-101932239D01*
X167883535Y-101896036D01*
X167887822Y-101850791D01*
X167883559Y-101799459D01*
X167871886Y-101759241D01*
X167853839Y-101727811D01*
X167829519Y-101703495D01*
X167798080Y-101685450D01*
X167757849Y-101673778D01*
X167706496Y-101669514D01*
X167533035Y-101669514D01*
X167465868Y-101719877D01*
X167465868Y-101803799D01*
X167696434Y-101803799D01*
X167717632Y-101808559D01*
X167729812Y-101821747D01*
X167734487Y-101846346D01*
X167730202Y-101872651D01*
X167719108Y-101887972D01*
X167700879Y-101895585D01*
X167580027Y-101915711D01*
X167534725Y-101927599D01*
X167500098Y-101945372D01*
X167474023Y-101968582D01*
X167455195Y-101997662D01*
X167443288Y-102033865D01*
X167439002Y-102079109D01*
X167443265Y-102130442D01*
X167454938Y-102170660D01*
X167472985Y-102202090D01*
X167497305Y-102226406D01*
X167528743Y-102244451D01*
X167568975Y-102256123D01*
X167620327Y-102260387D01*
X167820655Y-102260387D01*
X167887822Y-102210024D01*
G37*
G36*
X167303935Y-102079109D02*
G01*
X167303935Y-101488188D01*
X167149476Y-101488188D01*
X167149476Y-101669514D01*
X166956964Y-101669514D01*
X166956964Y-101803799D01*
X167149476Y-101803799D01*
X167149476Y-102090296D01*
X167145276Y-102110623D01*
X167133997Y-102121901D01*
X167113670Y-102126102D01*
X166945778Y-102126102D01*
X166945778Y-102210024D01*
X167012944Y-102260387D01*
X167122609Y-102260387D01*
X167173962Y-102256123D01*
X167214193Y-102244451D01*
X167245632Y-102226406D01*
X167269952Y-102202090D01*
X167287999Y-102170660D01*
X167299672Y-102130442D01*
X167303935Y-102079109D01*
G37*
D14*
G36*
X133423893Y-77264000D02*
G01*
X133423893Y-76749233D01*
X133405235Y-76722873D01*
X133381131Y-76702188D01*
X133350729Y-76686736D01*
X133312616Y-76676752D01*
X133264940Y-76673127D01*
X133144089Y-76673127D01*
X133076922Y-76723490D01*
X133076922Y-76807412D01*
X133228011Y-76807412D01*
X133254877Y-76811565D01*
X133269434Y-76821969D01*
X133269434Y-77264000D01*
X133423893Y-77264000D01*
G37*
G36*
X132987822Y-77213637D02*
G01*
X132987822Y-77129715D01*
X132730390Y-77129715D01*
X132709188Y-77124958D01*
X132697010Y-77111783D01*
X132692337Y-77087217D01*
X132696618Y-77060906D01*
X132707698Y-77045587D01*
X132725896Y-77037977D01*
X132846796Y-77017803D01*
X132892099Y-77005915D01*
X132926726Y-76988142D01*
X132952801Y-76964931D01*
X132971629Y-76935852D01*
X132983535Y-76899649D01*
X132987822Y-76854404D01*
X132983559Y-76803072D01*
X132971886Y-76762854D01*
X132953839Y-76731424D01*
X132929519Y-76707108D01*
X132898080Y-76689063D01*
X132857849Y-76677391D01*
X132806496Y-76673127D01*
X132633035Y-76673127D01*
X132565868Y-76723490D01*
X132565868Y-76807412D01*
X132796434Y-76807412D01*
X132817632Y-76812172D01*
X132829812Y-76825360D01*
X132834487Y-76849959D01*
X132830202Y-76876264D01*
X132819108Y-76891585D01*
X132800879Y-76899198D01*
X132680027Y-76919324D01*
X132634725Y-76931212D01*
X132600098Y-76948985D01*
X132574023Y-76972195D01*
X132555195Y-77001275D01*
X132543288Y-77037478D01*
X132539002Y-77082722D01*
X132543265Y-77134055D01*
X132554938Y-77174273D01*
X132572985Y-77205703D01*
X132597305Y-77230019D01*
X132628743Y-77248064D01*
X132668975Y-77259736D01*
X132720327Y-77264000D01*
X132920655Y-77264000D01*
X132987822Y-77213637D01*
G37*
G36*
X132403935Y-77082722D02*
G01*
X132403935Y-76491801D01*
X132249476Y-76491801D01*
X132249476Y-76673127D01*
X132056964Y-76673127D01*
X132056964Y-76807412D01*
X132249476Y-76807412D01*
X132249476Y-77093909D01*
X132245276Y-77114236D01*
X132233997Y-77125514D01*
X132213670Y-77129715D01*
X132045778Y-77129715D01*
X132045778Y-77213637D01*
X132112944Y-77264000D01*
X132222609Y-77264000D01*
X132273962Y-77259736D01*
X132314193Y-77248064D01*
X132345632Y-77230019D01*
X132369952Y-77205703D01*
X132387999Y-77174273D01*
X132399672Y-77134055D01*
X132403935Y-77082722D01*
G37*
G36*
X136328387Y-78182722D02*
G01*
X136328387Y-77954404D01*
X136324124Y-77903072D01*
X136312451Y-77862854D01*
X136294405Y-77831424D01*
X136270084Y-77807108D01*
X136238646Y-77789063D01*
X136198414Y-77777391D01*
X136147062Y-77773127D01*
X135938869Y-77773127D01*
X135871751Y-77823490D01*
X135871751Y-77907412D01*
X136138122Y-77907412D01*
X136158449Y-77911612D01*
X136169728Y-77922891D01*
X136173928Y-77943218D01*
X136173928Y-78193909D01*
X136169728Y-78214236D01*
X136158449Y-78225514D01*
X136138122Y-78229715D01*
X135871751Y-78229715D01*
X135871751Y-78313637D01*
X135938869Y-78364000D01*
X136147062Y-78364000D01*
X136198414Y-78359736D01*
X136238646Y-78348064D01*
X136270084Y-78330019D01*
X136294405Y-78305703D01*
X136312451Y-78274273D01*
X136324124Y-78234055D01*
X136328387Y-78182722D01*
G37*
G36*
X135743963Y-78148870D02*
G01*
X135743963Y-77535528D01*
X135589504Y-77535528D01*
X135589504Y-78164551D01*
X135584743Y-78196176D01*
X135571802Y-78218070D01*
X135550494Y-78232848D01*
X135517892Y-78240657D01*
X135517892Y-78374942D01*
X135581912Y-78369625D01*
X135632070Y-78355070D01*
X135671267Y-78332569D01*
X135701590Y-78302245D01*
X135724092Y-78263049D01*
X135738647Y-78212891D01*
X135743963Y-78148870D01*
G37*
G36*
X135392449Y-78364000D02*
G01*
X135392449Y-77535528D01*
X135237990Y-77535528D01*
X135237990Y-77995828D01*
X135033217Y-77773127D01*
X134881004Y-77773127D01*
X134868695Y-77798870D01*
X135073468Y-78019324D01*
X134853014Y-78338256D01*
X134865324Y-78364000D01*
X135016413Y-78364000D01*
X135175317Y-78130113D01*
X135237990Y-78198354D01*
X135237990Y-78364000D01*
X135392449Y-78364000D01*
G37*
D12*
G36*
X131827276Y-92787545D02*
G01*
X131827276Y-92622437D01*
X131532048Y-91964752D01*
X131361383Y-91964752D01*
X131337569Y-92006762D01*
X131606175Y-92605645D01*
X131365596Y-92605645D01*
X131365596Y-92328185D01*
X131164096Y-92328185D01*
X131164096Y-92930000D01*
X131365596Y-92930000D01*
X131365596Y-92787545D01*
X131827276Y-92787545D01*
G37*
G36*
X131913232Y-79057215D02*
G01*
X131913232Y-78948100D01*
X131507545Y-78948100D01*
X131483742Y-78943170D01*
X131470523Y-78929924D01*
X131465596Y-78906029D01*
X131465596Y-78765650D01*
X131470523Y-78741755D01*
X131483742Y-78728509D01*
X131507545Y-78723579D01*
X131809734Y-78723579D01*
X131809734Y-78541680D01*
X131507545Y-78541680D01*
X131483713Y-78536771D01*
X131470508Y-78523607D01*
X131465596Y-78499914D01*
X131465596Y-78388417D01*
X131470508Y-78364724D01*
X131483713Y-78351560D01*
X131507545Y-78346652D01*
X131899249Y-78346652D01*
X131899249Y-78237536D01*
X131805521Y-78164752D01*
X131499180Y-78164752D01*
X131432580Y-78170275D01*
X131380410Y-78185394D01*
X131339651Y-78208764D01*
X131308128Y-78240247D01*
X131284743Y-78280933D01*
X131269619Y-78332984D01*
X131264096Y-78399408D01*
X131264096Y-78488801D01*
X131268196Y-78524593D01*
X131279886Y-78554389D01*
X131299084Y-78579537D01*
X131348054Y-78628447D01*
X131299084Y-78677479D01*
X131279886Y-78702742D01*
X131268195Y-78732641D01*
X131264096Y-78768520D01*
X131264096Y-78894610D01*
X131269628Y-78961289D01*
X131284771Y-79013523D01*
X131308179Y-79054335D01*
X131339718Y-79085901D01*
X131380477Y-79109321D01*
X131432626Y-79124467D01*
X131499180Y-79130000D01*
X131819504Y-79130000D01*
X131913232Y-79057215D01*
G37*
G36*
X168888075Y-87330000D02*
G01*
X168888075Y-87148100D01*
X168674057Y-87148100D01*
X168674057Y-86546652D01*
X168853087Y-86546652D01*
X168853087Y-86437536D01*
X168759359Y-86364752D01*
X168472557Y-86364752D01*
X168472557Y-87148100D01*
X168280887Y-87148100D01*
X168280887Y-87330000D01*
X168888075Y-87330000D01*
G37*
G36*
X169127276Y-101230000D02*
G01*
X169127276Y-100915232D01*
X169121875Y-100851584D01*
X169107001Y-100801150D01*
X169083845Y-100761211D01*
X169052440Y-100729828D01*
X169011658Y-100706051D01*
X168959359Y-100690040D01*
X168700523Y-100638260D01*
X168681105Y-100630000D01*
X168669783Y-100615352D01*
X168665596Y-100592098D01*
X168665596Y-100488600D01*
X168670517Y-100464786D01*
X168683731Y-100451573D01*
X168707545Y-100446652D01*
X169099249Y-100446652D01*
X169099249Y-100337536D01*
X169005521Y-100264752D01*
X168699180Y-100264752D01*
X168632603Y-100270279D01*
X168580444Y-100285412D01*
X168539685Y-100308807D01*
X168508154Y-100340332D01*
X168484757Y-100381081D01*
X168469624Y-100433223D01*
X168464096Y-100499774D01*
X168464096Y-100590694D01*
X168469498Y-100654365D01*
X168484374Y-100704816D01*
X168507531Y-100744766D01*
X168538937Y-100776155D01*
X168579717Y-100799935D01*
X168632013Y-100815947D01*
X168890788Y-100867726D01*
X168910240Y-100875960D01*
X168921580Y-100890605D01*
X168925776Y-100913888D01*
X168925776Y-101048100D01*
X168464096Y-101048100D01*
X168464096Y-101230000D01*
X169127276Y-101230000D01*
G37*
%TO.C,C180*%
D15*
X160457357Y-88786581D02*
X160304854Y-88634078D01*
X160966474Y-88277464D02*
X160813971Y-88124961D01*
%TO.C,C12*%
X156918995Y-73243296D02*
X156766492Y-73395799D01*
X157428112Y-73752413D02*
X157275609Y-73904916D01*
%TO.C,D15*%
D16*
X157853146Y-97462001D02*
G75*
G02*
X157753144Y-97462001I-50001J0D01*
G01*
X157753144Y-97462001D02*
G75*
G02*
X157853146Y-97462001I50001J0D01*
G01*
%TO.C,C175*%
D15*
X134328633Y-101440280D02*
X134481136Y-101287777D01*
X134837750Y-101949397D02*
X134990253Y-101796894D01*
%TO.C,C89*%
X151336223Y-92757606D02*
X151535034Y-92956417D01*
X152057472Y-92036357D02*
X152256283Y-92235168D01*
%TO.C,C157*%
X131153724Y-86845279D02*
X131306227Y-86997782D01*
X131662841Y-86336162D02*
X131815344Y-86488665D01*
%TO.C,C153*%
X130863747Y-89710135D02*
X130863747Y-90232639D01*
X132333747Y-89710135D02*
X132333747Y-90232639D01*
%TO.C,C50*%
X155497925Y-100467834D02*
X155696736Y-100666645D01*
X156219174Y-99746585D02*
X156417985Y-99945396D01*
%TO.C,C135*%
X167156873Y-97840674D02*
X167004370Y-97688171D01*
X167665990Y-97331557D02*
X167513487Y-97179054D01*
%TO.C,C33*%
X145217946Y-71065577D02*
X145065443Y-71218080D01*
X145727063Y-71574694D02*
X145574560Y-71727197D01*
%TO.C,C8*%
X159936223Y-77435168D02*
X160135034Y-77236357D01*
X160657472Y-78156417D02*
X160856283Y-77957606D01*
%TO.C,C177*%
X130863747Y-102710135D02*
X130863747Y-103232639D01*
X132333747Y-102710135D02*
X132333747Y-103232639D01*
%TO.C,C131*%
X166662949Y-91849694D02*
X166815452Y-92002197D01*
X167172066Y-91340577D02*
X167324569Y-91493080D01*
%TO.C,C7*%
X160117946Y-79265577D02*
X159965443Y-79418080D01*
X160627063Y-79774694D02*
X160474560Y-79927197D01*
%TO.C,C93*%
X144465971Y-88075528D02*
X144313468Y-88228031D01*
X144975088Y-88584645D02*
X144822585Y-88737148D01*
%TO.C,J5*%
X157797955Y-104656615D02*
X157797955Y-105296615D01*
X157797955Y-106816615D02*
X157167955Y-106816615D01*
X157797955Y-107456615D02*
X157797955Y-106816615D01*
X160517955Y-107406615D02*
X160517955Y-104706615D01*
%TO.C,C105*%
X167761253Y-77107640D02*
X167761253Y-76585134D01*
X169231253Y-77107640D02*
X169231253Y-76585134D01*
%TO.C,U2*%
X146301476Y-91746387D02*
X146601996Y-92046907D01*
X146425220Y-91622643D02*
X146301476Y-91746387D01*
X147570733Y-93015644D02*
X147871253Y-93316164D01*
X147858710Y-90189153D02*
X147747509Y-90300354D01*
X147871253Y-93316164D02*
X147994997Y-93192420D01*
X149317286Y-91870131D02*
X149441030Y-91746387D01*
X149441030Y-91746387D02*
X149140510Y-91445867D01*
X148260162Y-90523092D02*
X148458152Y-90325102D01*
X148062172Y-90325102D01*
X148260162Y-90523092D01*
G36*
X148260162Y-90523092D02*
G01*
X148062172Y-90325102D01*
X148458152Y-90325102D01*
X148260162Y-90523092D01*
G37*
%TO.C,U23*%
D13*
X158358460Y-98100298D02*
X158535236Y-98277075D01*
X158535236Y-97923521D02*
X158358460Y-98100298D01*
X161123247Y-95335510D02*
X161300024Y-95158734D01*
X161300024Y-95158734D02*
X161476801Y-95335510D01*
X161300024Y-101041862D02*
X161123247Y-100865086D01*
X161476801Y-100865086D02*
X161300024Y-101041862D01*
X164064812Y-98277075D02*
X164241588Y-98100298D01*
X164241588Y-98100298D02*
X164064812Y-97923521D01*
D12*
X161095968Y-101190355D02*
G75*
G02*
X160895968Y-101190355I-100000J0D01*
G01*
X160895968Y-101190355D02*
G75*
G02*
X161095968Y-101190355I100000J0D01*
G01*
D17*
X161330024Y-100928725D02*
G75*
G02*
X161270024Y-100928725I-30000J0D01*
G01*
X161270024Y-100928725D02*
G75*
G02*
X161330024Y-100928725I30000J0D01*
G01*
%TO.C,U5*%
D16*
X152777265Y-104272983D02*
X152812620Y-104237627D01*
X152883331Y-104379049D02*
X152777265Y-104272983D01*
X153342950Y-104838668D02*
X153236884Y-104732602D01*
X153378306Y-104803313D02*
X153342950Y-104838668D01*
X153873280Y-103176967D02*
X153908636Y-103141612D01*
X153908636Y-103141612D02*
X154014702Y-103247678D01*
X154368255Y-103601231D02*
X154474321Y-103707297D01*
X154474321Y-103707297D02*
X154438966Y-103742653D01*
X152791911Y-103813363D02*
G75*
G02*
X152691909Y-103813363I-50001J0D01*
G01*
X152691909Y-103813363D02*
G75*
G02*
X152791911Y-103813363I50001J0D01*
G01*
D17*
X152807265Y-104272983D02*
G75*
G02*
X152747265Y-104272983I-30000J0D01*
G01*
X152747265Y-104272983D02*
G75*
G02*
X152807265Y-104272983I30000J0D01*
G01*
D18*
G36*
X153590447Y-104166908D02*
G01*
X153307605Y-104449750D01*
X153166183Y-104308328D01*
X153449025Y-104025486D01*
X153590447Y-104166908D01*
G37*
%TO.C,C35*%
D15*
X143098979Y-101325877D02*
X142946476Y-101478380D01*
X143608096Y-101834994D02*
X143455593Y-101987497D01*
%TO.C,C1*%
X154965010Y-83395543D02*
X154595543Y-83765010D01*
X156004457Y-84434990D02*
X155634990Y-84804457D01*
%TO.C,C18*%
X145465443Y-84424694D02*
X145617946Y-84577197D01*
X145974560Y-83915577D02*
X146127063Y-84068080D01*
%TO.C,U25*%
D13*
X131618884Y-98217403D02*
X132057290Y-97778997D01*
X132057290Y-98655809D02*
X131618884Y-98217403D01*
X134122042Y-100720561D02*
X134560448Y-101158967D01*
X134560448Y-95275839D02*
X134122042Y-95714245D01*
X134560448Y-101158967D02*
X134998854Y-100720561D01*
X134998854Y-95714245D02*
X134560448Y-95275839D01*
X137063606Y-97778997D02*
X137502012Y-98217403D01*
X137502012Y-98217403D02*
X137063606Y-98655809D01*
D12*
X133670499Y-100904409D02*
G75*
G02*
X133470499Y-100904409I-100000J0D01*
G01*
X133470499Y-100904409D02*
G75*
G02*
X133670499Y-100904409I100000J0D01*
G01*
D17*
X134590448Y-101045830D02*
G75*
G02*
X134530448Y-101045830I-30000J0D01*
G01*
X134530448Y-101045830D02*
G75*
G02*
X134590448Y-101045830I30000J0D01*
G01*
%TO.C,U13*%
D15*
X141725695Y-86573164D02*
X141849439Y-86696907D01*
X142202992Y-86095867D02*
X141725695Y-86573164D01*
X143525282Y-88372750D02*
X143649025Y-88496494D01*
X143649025Y-88496494D02*
X144126322Y-88019197D01*
X144002579Y-84296280D02*
X143525282Y-84773577D01*
X144126322Y-84420024D02*
X144002579Y-84296280D01*
X145448612Y-86696907D02*
X145925909Y-86219610D01*
X145925909Y-86219610D02*
X145802165Y-86095867D01*
X144525838Y-84635691D02*
X144928889Y-84572052D01*
X144589477Y-84232640D01*
X144525838Y-84635691D01*
G36*
X144928889Y-84572052D02*
G01*
X144525838Y-84635691D01*
X144589477Y-84232640D01*
X144928889Y-84572052D01*
G37*
%TO.C,C29*%
X145901032Y-72982491D02*
X146053535Y-72829988D01*
X146410149Y-73491608D02*
X146562652Y-73339105D01*
%TO.C,C133*%
X168429665Y-93456612D02*
X168277162Y-93304109D01*
X168938782Y-92947495D02*
X168786279Y-92794992D01*
%TO.C,C182*%
X131545440Y-96515577D02*
X131392937Y-96668080D01*
X132054557Y-97024694D02*
X131902054Y-97177197D01*
%TO.C,C67*%
X142285034Y-77706417D02*
X142086223Y-77507606D01*
X143006283Y-76985168D02*
X142807472Y-76786357D01*
%TO.C,C129*%
X167758759Y-90082639D02*
X167758759Y-89560135D01*
X169228759Y-90082639D02*
X169228759Y-89560135D01*
%TO.C,C213*%
X139101032Y-78510283D02*
X139253535Y-78662786D01*
X139610149Y-78001166D02*
X139762652Y-78153669D01*
%TO.C,Y2*%
X142665639Y-102996654D02*
X144730390Y-100931903D01*
X144730390Y-100931903D02*
X147148695Y-103350208D01*
%TO.C,U1*%
X143672241Y-78837200D02*
X143972762Y-78536680D01*
X143972762Y-79137720D02*
X143672241Y-78837200D01*
X150654921Y-85819879D02*
X150955441Y-86120400D01*
X150955441Y-71554000D02*
X150654921Y-71854521D01*
X150955441Y-86120400D02*
X151255961Y-85819879D01*
X151255961Y-71854521D02*
X150955441Y-71554000D01*
X157938120Y-78536680D02*
X158362385Y-78960944D01*
D19*
X158742193Y-79827149D02*
G75*
G02*
X158442195Y-79827149I-149999J0D01*
G01*
X158442195Y-79827149D02*
G75*
G02*
X158742193Y-79827149I149999J0D01*
G01*
%TO.C,U6*%
D15*
X137823753Y-71536387D02*
X137823753Y-73356387D01*
X137823753Y-73356387D02*
X137873753Y-73356387D01*
X137873753Y-71536387D02*
X137823753Y-71536387D01*
X139773753Y-71536387D02*
X138993753Y-71536387D01*
X140893753Y-73356387D02*
X140943753Y-73356387D01*
X140943753Y-71536387D02*
X140893753Y-71536387D01*
X140943753Y-73356387D02*
X140943753Y-71536387D01*
X140893753Y-73896387D02*
X141223753Y-74136387D01*
X141223753Y-73656387D01*
X140893753Y-73896387D01*
G36*
X141223753Y-74136387D02*
G01*
X140893753Y-73896387D01*
X141223753Y-73656387D01*
X141223753Y-74136387D01*
G37*
%TO.C,C45*%
X151619140Y-102199628D02*
X151771643Y-102047125D01*
X152128257Y-102708745D02*
X152280760Y-102556242D01*
%TO.C,C36*%
X146163811Y-104554294D02*
X146316314Y-104401791D01*
X146672928Y-105063411D02*
X146825431Y-104910908D01*
%TO.C,C151*%
X134328633Y-88440280D02*
X134481136Y-88287777D01*
X134837750Y-88949397D02*
X134990253Y-88796894D01*
%TO.C,U12*%
X145676654Y-88324742D02*
X146030207Y-88678295D01*
X146030207Y-87971189D02*
X145676654Y-88324742D01*
X146030207Y-88678295D02*
X146030207Y-88678295D01*
X146878736Y-87122660D02*
X147090868Y-86910528D01*
X146878736Y-89526824D02*
X147232289Y-89880377D01*
X147232289Y-86769107D02*
X147232289Y-86769107D01*
X147232289Y-89880377D02*
X147585842Y-89526824D01*
X147585842Y-87122660D02*
X147373710Y-86910528D01*
X147585842Y-89526824D02*
X147585842Y-89526824D01*
X148434371Y-87971189D02*
X148434371Y-87971189D01*
X148434371Y-88678295D02*
X148787924Y-88324742D01*
X148787924Y-88324742D02*
X148434371Y-87971189D01*
X147232289Y-86769107D02*
X147486847Y-86514549D01*
X146977731Y-86514549D01*
X147232289Y-86769107D01*
G36*
X147232289Y-86769107D02*
G01*
X146977731Y-86514549D01*
X147486847Y-86514549D01*
X147232289Y-86769107D01*
G37*
%TO.C,C38*%
X143685877Y-100339938D02*
X143533374Y-100187435D01*
X144194994Y-99830821D02*
X144042491Y-99678318D01*
%TO.C,C155*%
X132920440Y-88452197D02*
X132767937Y-88299694D01*
X133429557Y-87943080D02*
X133277054Y-87790577D01*
%TO.C,D16*%
D16*
X142710594Y-82660116D02*
G75*
G02*
X142610592Y-82660116I-50001J0D01*
G01*
X142610592Y-82660116D02*
G75*
G02*
X142710594Y-82660116I50001J0D01*
G01*
%TO.C,C183*%
D15*
X132426516Y-95461217D02*
X132579019Y-95613720D01*
X132935633Y-94952100D02*
X133088136Y-95104603D01*
%TO.C,C181*%
X131153724Y-99845279D02*
X131306227Y-99997782D01*
X131662841Y-99336162D02*
X131815344Y-99488665D01*
%TO.C,U16*%
D13*
X162592988Y-81600371D02*
X163031394Y-81161965D01*
X163031394Y-82038777D02*
X162592988Y-81600371D01*
X165096146Y-84103529D02*
X165534552Y-84541935D01*
X165534552Y-78658807D02*
X165096146Y-79097213D01*
X165534552Y-84541935D02*
X165972958Y-84103529D01*
X165972958Y-79097213D02*
X165534552Y-78658807D01*
X168037710Y-81161965D02*
X168476116Y-81600371D01*
X168476116Y-81600371D02*
X168037710Y-82038777D01*
D17*
X165564552Y-78771944D02*
G75*
G02*
X165504552Y-78771944I-30000J0D01*
G01*
X165504552Y-78771944D02*
G75*
G02*
X165564552Y-78771944I30000J0D01*
G01*
D12*
X166624501Y-78913365D02*
G75*
G02*
X166424501Y-78913365I-100000J0D01*
G01*
X166424501Y-78913365D02*
G75*
G02*
X166624501Y-78913365I100000J0D01*
G01*
%TO.C,C86*%
D15*
X150135034Y-89436357D02*
X149936223Y-89635168D01*
X150856283Y-90157606D02*
X150657472Y-90356417D01*
%TO.C,U4*%
X144398049Y-97746387D02*
X144786958Y-98135296D01*
X144786958Y-97357478D02*
X144398049Y-97746387D01*
X148407344Y-101755682D02*
X148796253Y-102144591D01*
X148796253Y-93348183D02*
X148407344Y-93737092D01*
X148796253Y-102144591D02*
X149185162Y-101755682D01*
X149185162Y-93737092D02*
X148796253Y-93348183D01*
X152805548Y-98135296D02*
X153194457Y-97746387D01*
X153194457Y-97746387D02*
X152805548Y-97357478D01*
X147799232Y-101854677D02*
X147396182Y-101918317D01*
X147735593Y-102257728D01*
X147799232Y-101854677D01*
G36*
X147735593Y-102257728D02*
G01*
X147396182Y-101918317D01*
X147799232Y-101854677D01*
X147735593Y-102257728D01*
G37*
%TO.C,D14*%
D16*
X157855640Y-84487001D02*
G75*
G02*
X157755638Y-84487001I-50001J0D01*
G01*
X157755638Y-84487001D02*
G75*
G02*
X157855640Y-84487001I50001J0D01*
G01*
%TO.C,C134*%
D15*
X168037949Y-95768080D02*
X168190452Y-95615577D01*
X168547066Y-96277197D02*
X168699569Y-96124694D01*
%TO.C,C37*%
X143804854Y-99114105D02*
X143957357Y-99266608D01*
X144313971Y-98604988D02*
X144466474Y-98757491D01*
%TO.C,U19*%
D13*
X162590494Y-94575371D02*
X163028900Y-94136965D01*
X163028900Y-95013777D02*
X162590494Y-94575371D01*
X165093652Y-97078529D02*
X165532058Y-97516935D01*
X165532058Y-91633807D02*
X165093652Y-92072213D01*
X165532058Y-97516935D02*
X165970464Y-97078529D01*
X165970464Y-92072213D02*
X165532058Y-91633807D01*
X168035216Y-94136965D02*
X168473622Y-94575371D01*
X168473622Y-94575371D02*
X168035216Y-95013777D01*
D17*
X165562058Y-91746944D02*
G75*
G02*
X165502058Y-91746944I-30000J0D01*
G01*
X165502058Y-91746944D02*
G75*
G02*
X165562058Y-91746944I30000J0D01*
G01*
D12*
X166622007Y-91888365D02*
G75*
G02*
X166422007Y-91888365I-100000J0D01*
G01*
X166422007Y-91888365D02*
G75*
G02*
X166622007Y-91888365I100000J0D01*
G01*
%TO.C,Y1*%
D15*
X158405449Y-77088427D02*
X156411408Y-75094386D01*
X160116648Y-75377228D02*
X158405449Y-77088427D01*
%TO.C,C216*%
X139151032Y-91510283D02*
X139303535Y-91662786D01*
X139660149Y-91001166D02*
X139812652Y-91153669D01*
%TO.C,C58*%
X142136253Y-72336968D02*
X142136253Y-72055806D01*
X143156253Y-72336968D02*
X143156253Y-72055806D01*
%TO.C,U14*%
D13*
X151553612Y-91096387D02*
X152041516Y-91584291D01*
X152041516Y-90608483D02*
X151553612Y-91096387D01*
X152041516Y-90608483D02*
X152055658Y-90608483D01*
X152055658Y-90608483D02*
X152472851Y-91025676D01*
X155308349Y-94851124D02*
X155796253Y-95339028D01*
X155442700Y-89328620D02*
X155442700Y-88975067D01*
X155442700Y-92864154D02*
X155442700Y-93217707D01*
X155796253Y-86853746D02*
X155308349Y-87341650D01*
X155796253Y-95339028D02*
X156284157Y-94851124D01*
X156149806Y-89328620D02*
X156149806Y-88975067D01*
X156149806Y-92864154D02*
X156149806Y-93217707D01*
X156284157Y-87341650D02*
X155796253Y-86853746D01*
X159550990Y-91584291D02*
X160038894Y-91096387D01*
X160038894Y-91096387D02*
X159550990Y-90608483D01*
X153503035Y-90181087D02*
G75*
G02*
X152783978Y-91110530I-627133J-257691D01*
G01*
X155442810Y-88966243D02*
G75*
G02*
X156149806Y-88975067I353443J-8824D01*
G01*
X156149804Y-93219065D02*
G75*
G02*
X155442699Y-93217707I-353551J1356D01*
G01*
D14*
X154957014Y-94773342D02*
G75*
G02*
X154797014Y-94773342I-80000J0D01*
G01*
X154797014Y-94773342D02*
G75*
G02*
X154957014Y-94773342I80000J0D01*
G01*
D13*
X157566253Y-91096387D02*
G75*
G02*
X154026253Y-91096387I-1770000J0D01*
G01*
X154026253Y-91096387D02*
G75*
G02*
X157566253Y-91096387I1770000J0D01*
G01*
D14*
X155876253Y-93217707D02*
G75*
G02*
X155716253Y-93217707I-80000J0D01*
G01*
X155716253Y-93217707D02*
G75*
G02*
X155876253Y-93217707I80000J0D01*
G01*
D17*
X155826253Y-95339028D02*
G75*
G02*
X155766253Y-95339028I-30000J0D01*
G01*
X155766253Y-95339028D02*
G75*
G02*
X155826253Y-95339028I30000J0D01*
G01*
%TO.C,C107*%
D15*
X166665443Y-78874694D02*
X166817946Y-79027197D01*
X167174560Y-78365577D02*
X167327063Y-78518080D01*
%TO.C,U30*%
D13*
X135850918Y-94692476D02*
X136027694Y-94869253D01*
X136027694Y-94515699D02*
X135850918Y-94692476D01*
X138615705Y-91927688D02*
X138792482Y-91750912D01*
X138792482Y-91750912D02*
X138969259Y-91927688D01*
X138792482Y-97634040D02*
X138615705Y-97457264D01*
X138969259Y-97457264D02*
X138792482Y-97634040D01*
X141557270Y-94869253D02*
X141734046Y-94692476D01*
X141734046Y-94692476D02*
X141557270Y-94515699D01*
D17*
X138822482Y-91864049D02*
G75*
G02*
X138762482Y-91864049I-30000J0D01*
G01*
X138762482Y-91864049D02*
G75*
G02*
X138822482Y-91864049I30000J0D01*
G01*
D12*
X139196538Y-91602419D02*
G75*
G02*
X138996538Y-91602419I-100000J0D01*
G01*
X138996538Y-91602419D02*
G75*
G02*
X139196538Y-91602419I100000J0D01*
G01*
%TO.C,U20*%
D13*
X158360954Y-85125298D02*
X158537730Y-85302075D01*
X158537730Y-84948521D02*
X158360954Y-85125298D01*
X161125741Y-82360510D02*
X161302518Y-82183734D01*
X161302518Y-82183734D02*
X161479295Y-82360510D01*
X161302518Y-88066862D02*
X161125741Y-87890086D01*
X161479295Y-87890086D02*
X161302518Y-88066862D01*
X164067306Y-85302075D02*
X164244082Y-85125298D01*
X164244082Y-85125298D02*
X164067306Y-84948521D01*
D12*
X161098462Y-88215355D02*
G75*
G02*
X160898462Y-88215355I-100000J0D01*
G01*
X160898462Y-88215355D02*
G75*
G02*
X161098462Y-88215355I100000J0D01*
G01*
D17*
X161332518Y-87953725D02*
G75*
G02*
X161272518Y-87953725I-30000J0D01*
G01*
X161272518Y-87953725D02*
G75*
G02*
X161332518Y-87953725I30000J0D01*
G01*
%TO.C,C110*%
D15*
X168040443Y-82793080D02*
X168192946Y-82640577D01*
X168549560Y-83302197D02*
X168702063Y-83149694D01*
%TO.C,C32*%
X145867946Y-71715577D02*
X145715443Y-71868080D01*
X146377063Y-72224694D02*
X146224560Y-72377197D01*
%TO.C,C127*%
X165254756Y-90843377D02*
X165102253Y-90995880D01*
X165763873Y-91352494D02*
X165611370Y-91504997D01*
%TO.C,C158*%
X131545440Y-83515577D02*
X131392937Y-83668080D01*
X132054557Y-84024694D02*
X131902054Y-84177197D01*
%TO.C,U22*%
D13*
X131618884Y-85217403D02*
X132057290Y-84778997D01*
X132057290Y-85655809D02*
X131618884Y-85217403D01*
X134122042Y-87720561D02*
X134560448Y-88158967D01*
X134560448Y-82275839D02*
X134122042Y-82714245D01*
X134560448Y-88158967D02*
X134998854Y-87720561D01*
X134998854Y-82714245D02*
X134560448Y-82275839D01*
X137063606Y-84778997D02*
X137502012Y-85217403D01*
X137502012Y-85217403D02*
X137063606Y-85655809D01*
D12*
X133670499Y-87904409D02*
G75*
G02*
X133470499Y-87904409I-100000J0D01*
G01*
X133470499Y-87904409D02*
G75*
G02*
X133670499Y-87904409I100000J0D01*
G01*
D17*
X134590448Y-88045830D02*
G75*
G02*
X134530448Y-88045830I-30000J0D01*
G01*
X134530448Y-88045830D02*
G75*
G02*
X134590448Y-88045830I30000J0D01*
G01*
%TO.C,C109*%
D15*
X168432159Y-80481612D02*
X168279656Y-80329109D01*
X168941276Y-79972495D02*
X168788773Y-79819992D01*
%TO.C,C27*%
X152636223Y-72257606D02*
X152835034Y-72456417D01*
X153357472Y-71536357D02*
X153556283Y-71735168D01*
%TO.C,C103*%
X165257250Y-77868377D02*
X165104747Y-78020880D01*
X165766367Y-78377494D02*
X165613864Y-78529997D01*
%TO.C,U26*%
D13*
X135850918Y-81692476D02*
X136027694Y-81869253D01*
X136027694Y-81515699D02*
X135850918Y-81692476D01*
X138615705Y-78927688D02*
X138792482Y-78750912D01*
X138792482Y-78750912D02*
X138969259Y-78927688D01*
X138792482Y-84634040D02*
X138615705Y-84457264D01*
X138969259Y-84457264D02*
X138792482Y-84634040D01*
X141557270Y-81869253D02*
X141734046Y-81692476D01*
X141734046Y-81692476D02*
X141557270Y-81515699D01*
D17*
X138822482Y-78864049D02*
G75*
G02*
X138762482Y-78864049I-30000J0D01*
G01*
X138762482Y-78864049D02*
G75*
G02*
X138822482Y-78864049I30000J0D01*
G01*
D12*
X139196538Y-78602419D02*
G75*
G02*
X138996538Y-78602419I-100000J0D01*
G01*
X138996538Y-78602419D02*
G75*
G02*
X139196538Y-78602419I100000J0D01*
G01*
%TO.C,C88*%
D15*
X154497354Y-95846788D02*
X154298543Y-95647977D01*
X155218603Y-95125539D02*
X155019792Y-94926728D01*
%TO.C,C210*%
X160457357Y-101761581D02*
X160304854Y-101609078D01*
X160966474Y-101252464D02*
X160813971Y-101099961D01*
%TO.C,C39*%
X148436224Y-104207606D02*
X148635035Y-104406417D01*
X149157473Y-103486357D02*
X149356284Y-103685168D01*
%TO.C,C159*%
X132426516Y-82461217D02*
X132579019Y-82613720D01*
X132935633Y-81952100D02*
X133088136Y-82104603D01*
%TO.C,C179*%
X132920440Y-101452197D02*
X132767937Y-101299694D01*
X133429557Y-100943080D02*
X133277054Y-100790577D01*
%TO.C,U11*%
X140550669Y-89535727D02*
X142247725Y-87838671D01*
X142247725Y-87838671D02*
X145853969Y-91444915D01*
X143944781Y-93354103D02*
X140550669Y-89959991D01*
X145853969Y-91444915D02*
X143944781Y-93354103D01*
X140338537Y-89747859D02*
X140140547Y-89549869D01*
X140140547Y-89945849D01*
X140338537Y-89747859D01*
G36*
X140338537Y-89747859D02*
G01*
X140140547Y-89945849D01*
X140140547Y-89549869D01*
X140338537Y-89747859D01*
G37*
%TO.C,C111*%
X167159367Y-84865674D02*
X167006864Y-84713171D01*
X167668484Y-84356557D02*
X167515981Y-84204054D01*
%TO.C,C25*%
X141810034Y-79356417D02*
X141611223Y-79157606D01*
X142531283Y-78635168D02*
X142332472Y-78436357D01*
%TO.C,D1*%
D16*
X142888142Y-74838275D02*
G75*
G02*
X142788140Y-74838275I-50001J0D01*
G01*
X142788140Y-74838275D02*
G75*
G02*
X142888142Y-74838275I50001J0D01*
G01*
%TO.C,C81*%
D15*
X140360160Y-87661484D02*
X140161349Y-87860295D01*
X141081409Y-88382733D02*
X140882598Y-88581544D01*
%TO.C,C11*%
X159594919Y-76224226D02*
X159747422Y-76071723D01*
X160104036Y-76733343D02*
X160256539Y-76580840D01*
%TO.C,D17*%
D16*
X142339362Y-95330773D02*
G75*
G02*
X142239360Y-95330773I-50001J0D01*
G01*
X142239360Y-95330773D02*
G75*
G02*
X142339362Y-95330773I50001J0D01*
G01*
%TO.C,L3*%
D15*
X138710001Y-74736387D02*
X139232505Y-74736387D01*
X138710001Y-76956387D02*
X139232505Y-76956387D01*
%TD*%
M02*
