M48
; DRILL file KiCad 10.0.6 date 2026-09-26T01:34:47
; FORMAT={-:-/ absolute / metric / decimal}
; #@! TF.CreationDate,2026-09-26T01:34:47+02:00
; #@! TF.GenerationSoftware,Kicad,Pcbnew,10.0.6
; #@! TF.FileFunction,MixedPlating,1,6
FMAT,2
METRIC
; #@! TA.AperFunction,Plated,PTH,ViaDrill
T1C0.250
; #@! TA.AperFunction,Plated,PTH,ComponentDrill
T2C0.600
%
G90
G05
T1
X130.824Y-81.935
X130.824Y-94.935
X130.824Y-81.335
X130.824Y-94.335
X130.895Y-84.623
X130.895Y-97.623
X130.936Y-83.666
X130.936Y-96.666
X130.999Y-79.221
X130.999Y-79.721
X130.999Y-80.221
X130.999Y-92.221
X130.999Y-92.721
X130.999Y-93.221
X131.049Y-86.771
X131.049Y-99.771
X131.099Y-87.221
X131.099Y-87.671
X131.099Y-88.121
X131.099Y-100.221
X131.099Y-100.671
X131.099Y-101.121
X131.145Y-86.328
X131.145Y-99.328
X131.269Y-84.903
X131.269Y-97.903
X131.4Y-75.8
X131.4Y-103.9
X131.412Y-85.496
X131.412Y-98.496
X131.499Y-79.221
X131.499Y-79.721
X131.499Y-80.221
X131.499Y-92.221
X131.499Y-92.721
X131.499Y-93.221
X131.5Y-73.9
X131.5Y-105.8
X131.555Y-87.679
X131.555Y-100.679
X131.574Y-88.146
X131.574Y-90.696
X131.574Y-101.146
X131.758Y-84.784
X131.758Y-97.784
X131.899Y-85.846
X131.899Y-98.846
X131.999Y-79.721
X131.999Y-80.221
X131.999Y-92.721
X131.999Y-93.221
X132.049Y-83.521
X132.049Y-96.521
X132.3Y-72.1
X132.3Y-107.6
X132.499Y-80.221
X132.499Y-80.721
X132.499Y-93.221
X132.499Y-93.721
X132.645Y-88.508
X132.645Y-101.508
X132.799Y-88.971
X132.799Y-101.971
X132.999Y-80.721
X132.999Y-93.721
X132.999Y-77.746
X132.999Y-90.746
X133.589Y-81.651
X133.589Y-94.651
X133.644Y-77.321
X133.644Y-90.321
X133.653Y-89.417
X133.653Y-102.417
X134.049Y-84.721
X134.049Y-97.721
X134.1Y-71.3
X134.1Y-108.4
X134.449Y-84.496
X134.449Y-84.946
X134.449Y-97.496
X134.449Y-97.946
X134.849Y-77.371
X134.849Y-77.821
X134.849Y-84.721
X134.849Y-85.171
X134.849Y-85.621
X134.849Y-86.071
X134.849Y-90.371
X134.849Y-90.821
X134.849Y-97.721
X134.849Y-98.171
X134.849Y-98.621
X134.849Y-99.071
X135.299Y-77.371
X135.299Y-77.821
X135.299Y-80.321
X135.299Y-84.721
X135.299Y-85.171
X135.299Y-85.621
X135.299Y-86.071
X135.299Y-90.371
X135.299Y-90.821
X135.299Y-93.321
X135.299Y-97.721
X135.299Y-98.171
X135.299Y-98.621
X135.299Y-99.071
X135.335Y-89.576
X135.335Y-102.576
X135.749Y-77.371
X135.749Y-77.821
X135.749Y-85.621
X135.749Y-90.371
X135.749Y-90.821
X135.749Y-98.621
X136.0Y-71.2
X136.0Y-108.5
X136.079Y-89.721
X136.079Y-102.721
X136.199Y-77.371
X136.199Y-90.371
X136.206Y-77.826
X136.206Y-90.826
X136.776Y-77.536
X136.776Y-90.536
X136.929Y-85.217
X136.929Y-98.217
X137.14Y-81.648
X137.14Y-94.648
X137.36Y-77.4
X137.36Y-90.4
X137.382Y-89.675
X137.382Y-102.675
X137.431Y-87.437
X137.431Y-100.437
X137.527Y-85.162
X137.527Y-98.162
X137.6Y-74.1
X137.896Y-106.396
X137.896Y-106.996
X137.896Y-107.596
X137.896Y-108.196
X137.896Y-108.796
X137.918Y-80.863
X137.918Y-93.863
X137.945Y-82.015
X137.945Y-95.015
X137.949Y-81.521
X137.949Y-94.521
X137.982Y-82.516
X137.982Y-95.516
X138.15Y-100.971
X138.15Y-101.421
X138.15Y-101.871
X138.15Y-102.321
X138.221Y-87.946
X138.221Y-88.396
X138.221Y-88.846
X138.221Y-89.296
X138.434Y-71.309
X138.449Y-81.644
X138.449Y-82.121
X138.449Y-82.621
X138.449Y-94.644
X138.449Y-95.121
X138.449Y-95.621
X138.496Y-106.396
X138.496Y-106.996
X138.496Y-107.596
X138.496Y-108.196
X138.496Y-108.796
X138.6Y-100.971
X138.6Y-101.421
X138.6Y-101.871
X138.6Y-102.321
X138.671Y-87.946
X138.671Y-88.396
X138.671Y-88.846
X138.671Y-89.296
X138.799Y-77.366
X138.799Y-90.366
X138.899Y-81.871
X138.899Y-82.371
X138.899Y-82.871
X138.899Y-94.871
X138.899Y-95.371
X138.899Y-95.871
X139.038Y-80.866
X139.038Y-93.866
X139.096Y-106.396
X139.096Y-106.996
X139.096Y-107.596
X139.096Y-108.196
X139.096Y-108.796
X139.348Y-82.771
X139.348Y-95.771
X139.384Y-73.584
X139.39Y-81.843
X139.39Y-94.843
X139.399Y-82.321
X139.399Y-95.321
X139.549Y-85.971
X139.549Y-98.971
X139.596Y-102.996
X139.637Y-80.833
X139.637Y-93.833
X139.696Y-106.396
X139.696Y-106.996
X139.696Y-107.596
X139.696Y-108.196
X139.696Y-108.796
X139.798Y-77.366
X139.798Y-90.366
X139.896Y-75.496
X140.296Y-106.396
X140.296Y-106.996
X140.296Y-107.596
X140.296Y-108.196
X140.296Y-108.796
X140.3Y-78.1
X140.396Y-75.096
X140.499Y-85.195
X140.499Y-98.195
X140.599Y-77.486
X140.599Y-90.486
X140.624Y-86.24
X140.639Y-78.62
X140.871Y-73.893
X140.896Y-106.396
X140.896Y-106.996
X140.896Y-107.596
X140.896Y-108.196
X140.896Y-108.796
X140.978Y-79.18
X141.081Y-103.098
X141.24Y-85.553
X141.283Y-85.083
X141.444Y-97.921
X141.496Y-106.396
X141.496Y-106.996
X141.496Y-107.596
X141.496Y-108.196
X141.496Y-108.796
X141.521Y-71.691
X141.674Y-75.631
X141.746Y-85.046
X141.764Y-84.57
X141.816Y-97.616
X141.862Y-91.296
X141.896Y-88.049
X141.896Y-88.513
X141.896Y-91.796
X141.896Y-92.296
X141.896Y-92.796
X141.996Y-97.196
X142.196Y-74.779
X142.291Y-103.126
X142.346Y-92.276
X142.354Y-91.825
X142.365Y-92.745
X142.379Y-72.771
X142.455Y-83.569
X142.476Y-99.886
X142.543Y-74.25
X142.624Y-80.785
X142.637Y-75.856
X142.646Y-71.421
X142.754Y-77.516
X142.79Y-80.103
X142.796Y-84.896
X142.9Y-106.4
X142.9Y-107.0
X142.9Y-107.6
X142.9Y-108.2
X142.9Y-108.8
X142.928Y-95.492
X142.934Y-73.796
X142.946Y-82.475
X142.946Y-84.296
X142.946Y-88.431
X142.946Y-90.496
X142.946Y-91.728
X143.204Y-76.865
X143.271Y-103.296
X143.296Y-102.846
X143.317Y-102.375
X143.321Y-76.135
X143.42Y-95.878
X143.423Y-93.823
X143.5Y-106.4
X143.5Y-107.0
X143.5Y-107.6
X143.5Y-108.2
X143.5Y-108.8
X143.546Y-78.509
X143.546Y-79.121
X143.57Y-95.27
X143.6Y-73.384
X143.624Y-98.596
X143.721Y-103.296
X143.746Y-102.846
X143.749Y-77.244
X143.821Y-102.396
X143.896Y-99.496
X143.954Y-73.868
X144.1Y-106.4
X144.1Y-107.0
X144.1Y-107.6
X144.1Y-108.2
X144.1Y-108.8
X144.171Y-103.296
X144.196Y-102.846
X144.323Y-94.305
X144.475Y-99.275
X144.596Y-95.996
X144.67Y-74.27
X144.694Y-94.679
X144.7Y-106.4
X144.7Y-107.0
X144.7Y-107.6
X144.7Y-108.2
X144.7Y-108.8
X145.057Y-71.736
X145.123Y-74.723
X145.3Y-106.4
X145.3Y-107.0
X145.3Y-107.6
X145.3Y-108.2
X145.3Y-108.8
X145.346Y-81.786
X145.449Y-88.914
X145.532Y-81.215
X145.539Y-99.75
X145.572Y-82.821
X145.65Y-94.883
X145.694Y-100.33
X145.724Y-71.421
X145.731Y-92.031
X145.824Y-87.096
X145.9Y-106.4
X145.9Y-107.0
X145.9Y-107.6
X145.9Y-108.2
X145.9Y-108.8
X145.946Y-81.796
X145.948Y-79.743
X145.996Y-82.396
X146.015Y-83.226
X146.107Y-84.612
X146.196Y-78.896
X146.229Y-94.614
X146.243Y-86.621
X146.246Y-89.852
X146.386Y-71.707
X146.392Y-92.601
X146.467Y-104.026
X146.5Y-106.4
X146.5Y-107.0
X146.5Y-107.6
X146.5Y-108.2
X146.5Y-108.8
X146.547Y-80.347
X146.596Y-85.396
X146.728Y-94.122
X146.774Y-93.178
X146.839Y-84.174
X146.898Y-73.67
X146.971Y-80.771
X146.996Y-90.541
X147.015Y-72.236
X147.146Y-91.432
X147.226Y-93.631
X147.313Y-83.314
X147.315Y-101.957
X147.33Y-88.776
X147.742Y-90.839
X147.789Y-102.389
X147.836Y-73.844
X148.096Y-106.396
X148.096Y-106.846
X148.096Y-107.296
X148.096Y-107.746
X148.096Y-108.196
X148.096Y-108.646
X148.496Y-80.596
X148.511Y-82.226
X148.534Y-73.375
X148.546Y-106.396
X148.546Y-106.846
X148.546Y-107.296
X148.546Y-107.746
X148.546Y-108.196
X148.546Y-108.646
X148.661Y-104.396
X148.767Y-71.534
X148.996Y-106.396
X148.996Y-106.846
X148.996Y-107.296
X148.996Y-107.746
X148.996Y-108.196
X148.996Y-108.646
X149.032Y-98.0
X149.162Y-99.647
X149.2Y-72.1
X149.248Y-87.277
X149.3Y-95.591
X149.5Y-103.4
X149.513Y-88.371
X149.696Y-77.096
X149.8Y-89.9
X149.817Y-71.903
X149.846Y-92.1
X149.846Y-91.006
X149.848Y-90.444
X149.879Y-74.08
X149.896Y-106.196
X149.896Y-106.646
X149.896Y-107.096
X149.896Y-107.546
X149.896Y-107.996
X149.896Y-108.446
X149.896Y-108.896
X149.993Y-89.21
X150.339Y-88.72
X150.346Y-106.196
X150.346Y-106.646
X150.346Y-107.096
X150.346Y-107.546
X150.346Y-107.996
X150.346Y-108.446
X150.346Y-108.896
X150.396Y-78.796
X150.498Y-92.4
X150.5Y-93.0
X150.69Y-72.208
X150.796Y-106.196
X150.796Y-106.646
X150.796Y-107.096
X150.796Y-107.546
X150.796Y-107.996
X150.796Y-108.446
X150.796Y-108.896
X150.942Y-88.646
X151.077Y-86.096
X151.246Y-106.196
X151.246Y-106.646
X151.246Y-107.096
X151.246Y-107.546
X151.246Y-107.996
X151.246Y-108.446
X151.246Y-108.896
X151.287Y-72.142
X151.396Y-82.896
X151.425Y-73.473
X151.542Y-88.652
X151.546Y-84.146
X151.593Y-86.91
X151.696Y-106.196
X151.696Y-106.646
X151.696Y-107.096
X151.696Y-107.546
X151.696Y-107.996
X151.696Y-108.446
X151.696Y-108.896
X151.896Y-105.496
X151.932Y-73.829
X151.961Y-103.12
X152.146Y-106.196
X152.146Y-106.646
X152.146Y-107.096
X152.146Y-107.546
X152.146Y-107.996
X152.146Y-108.446
X152.146Y-108.896
X152.191Y-87.281
X152.386Y-86.01
X152.509Y-102.496
X152.596Y-71.448
X152.669Y-75.769
X152.787Y-100.457
X152.824Y-93.731
X152.891Y-99.289
X152.911Y-79.696
X152.911Y-82.715
X152.913Y-85.194
X152.996Y-103.296
X153.1Y-95.325
X153.2Y-105.8
X153.3Y-98.05
X153.364Y-99.762
X153.471Y-90.699
X153.471Y-91.494
X154.0Y-106.2
X154.194Y-73.549
X154.521Y-94.278
X154.562Y-86.631
X154.569Y-101.355
X154.571Y-81.055
X154.571Y-87.231
X154.646Y-73.096
X154.7Y-106.8
X154.794Y-74.194
X154.853Y-101.985
X154.916Y-85.216
X155.046Y-84.724
X155.271Y-78.946
X155.271Y-79.396
X155.296Y-89.096
X155.296Y-90.296
X155.296Y-92.096
X155.307Y-95.935
X155.307Y-103.523
X155.345Y-74.741
X155.496Y-107.3
X155.533Y-71.61
X155.696Y-100.896
X155.721Y-78.946
X155.721Y-79.396
X155.746Y-90.296
X155.746Y-92.096
X155.776Y-104.296
X155.796Y-88.596
X155.796Y-89.096
X155.796Y-94.696
X155.796Y-95.296
X155.796Y-98.396
X155.918Y-100.318
X155.998Y-75.432
X156.0Y-103.6
X156.296Y-107.3
X156.299Y-72.394
X156.304Y-83.228
X156.449Y-75.899
X156.471Y-79.315
X156.474Y-84.826
X156.509Y-102.019
X156.696Y-82.496
X156.721Y-103.753
X156.73Y-81.55
X156.875Y-89.444
X156.996Y-107.3
X157.107Y-99.296
X157.219Y-74.374
X157.225Y-81.055
X157.421Y-97.844
X157.471Y-77.501
X157.471Y-91.621
X157.471Y-90.544
X157.476Y-80.199
X157.486Y-95.924
X157.495Y-92.12
X157.495Y-90.073
X157.507Y-83.028
X157.571Y-103.7
X157.6Y-107.3
X157.681Y-86.492
X157.686Y-82.355
X157.921Y-104.371
X158.121Y-79.046
X158.196Y-101.696
X158.196Y-102.146
X158.221Y-99.896
X158.221Y-100.346
X158.221Y-100.796
X158.221Y-101.246
X158.3Y-107.3
X158.396Y-73.296
X158.406Y-87.201
X158.471Y-93.346
X158.471Y-93.796
X158.471Y-94.246
X158.471Y-94.696
X158.811Y-104.402
X158.921Y-92.896
X158.921Y-93.346
X158.921Y-93.796
X158.921Y-94.246
X158.986Y-80.955
X158.986Y-81.446
X159.009Y-88.496
X159.1Y-107.3
X159.415Y-102.25
X159.456Y-80.453
X159.481Y-72.365
X159.496Y-89.331
X159.594Y-94.597
X159.596Y-81.622
X159.649Y-75.843
X159.8Y-107.3
X160.021Y-104.409
X160.046Y-90.496
X160.046Y-90.946
X160.046Y-91.396
X160.046Y-91.846
X160.046Y-92.296
X160.295Y-102.426
X160.296Y-71.483
X160.296Y-73.233
X160.297Y-89.451
X160.455Y-98.96
X160.458Y-85.985
X160.496Y-90.496
X160.496Y-90.946
X160.496Y-91.396
X160.496Y-91.846
X160.496Y-92.296
X160.544Y-93.821
X160.546Y-80.846
X160.6Y-107.0
X160.623Y-106.168
X160.665Y-104.715
X160.675Y-105.4
X160.694Y-97.471
X160.696Y-84.496
X160.702Y-97.95
X160.705Y-84.975
X160.745Y-97.022
X160.747Y-84.047
X160.896Y-77.051
X160.946Y-90.496
X160.946Y-90.946
X160.946Y-91.396
X160.946Y-91.846
X161.054Y-98.926
X161.057Y-85.951
X161.194Y-96.921
X161.194Y-97.421
X161.194Y-97.921
X161.196Y-83.946
X161.196Y-84.446
X161.196Y-84.946
X161.23Y-74.819
X161.294Y-102.426
X161.296Y-89.451
X161.396Y-90.496
X161.396Y-90.946
X161.396Y-91.396
X161.396Y-91.846
X161.419Y-78.296
X161.419Y-78.754
X161.644Y-97.171
X161.644Y-97.671
X161.644Y-98.149
X161.646Y-84.196
X161.646Y-84.696
X161.646Y-85.174
X161.838Y-74.211
X161.846Y-90.496
X161.846Y-90.946
X161.846Y-91.396
X161.846Y-91.846
X161.871Y-77.821
X161.871Y-78.296
X161.871Y-78.771
X162.11Y-97.277
X162.113Y-84.302
X162.144Y-98.271
X162.146Y-85.296
X162.147Y-97.778
X162.15Y-84.803
X162.175Y-98.93
X162.177Y-85.955
X162.566Y-94.631
X162.568Y-81.656
X162.662Y-92.356
X162.664Y-79.381
X162.711Y-90.118
X162.713Y-77.143
X162.733Y-102.393
X162.735Y-89.418
X162.952Y-98.145
X162.955Y-85.17
X163.163Y-94.575
X163.166Y-81.6
X163.317Y-102.256
X163.319Y-89.281
X163.886Y-101.966
X163.894Y-102.421
X163.896Y-88.996
X163.896Y-89.446
X164.014Y-90.071
X164.016Y-77.096
X164.1Y-71.2
X164.1Y-108.5
X164.344Y-94.171
X164.344Y-101.971
X164.344Y-102.421
X164.346Y-81.196
X164.346Y-88.996
X164.346Y-89.446
X164.758Y-90.216
X164.76Y-77.241
X164.794Y-93.721
X164.794Y-94.171
X164.794Y-94.621
X164.794Y-95.071
X164.794Y-99.471
X164.794Y-101.971
X164.794Y-102.421
X164.796Y-80.746
X164.796Y-81.196
X164.796Y-81.646
X164.796Y-82.096
X164.796Y-86.496
X164.796Y-88.996
X164.796Y-89.446
X165.244Y-93.721
X165.244Y-94.171
X165.244Y-94.621
X165.244Y-95.071
X165.244Y-101.971
X165.244Y-102.421
X165.246Y-80.746
X165.246Y-81.196
X165.246Y-81.646
X165.246Y-82.096
X165.246Y-88.996
X165.246Y-89.446
X165.644Y-94.846
X165.644Y-95.296
X165.646Y-81.871
X165.646Y-82.321
X166.0Y-71.3
X166.0Y-108.4
X166.044Y-95.071
X166.046Y-82.096
X166.44Y-90.375
X166.442Y-77.4
X166.449Y-102.471
X166.451Y-89.496
X166.504Y-98.142
X166.506Y-85.167
X167.094Y-102.046
X167.094Y-99.071
X167.096Y-89.071
X167.096Y-86.096
X167.294Y-90.821
X167.296Y-77.846
X167.447Y-91.285
X167.45Y-78.31
X167.594Y-99.071
X167.594Y-99.571
X167.596Y-86.096
X167.596Y-86.596
X167.8Y-72.1
X167.8Y-107.6
X168.043Y-96.272
X168.046Y-83.297
X168.094Y-99.571
X168.094Y-100.071
X168.096Y-86.596
X168.096Y-87.096
X168.193Y-93.946
X168.196Y-80.971
X168.334Y-95.009
X168.337Y-82.034
X168.519Y-89.096
X168.519Y-91.646
X168.521Y-78.671
X168.537Y-92.114
X168.54Y-79.139
X168.594Y-99.571
X168.594Y-100.071
X168.594Y-100.571
X168.596Y-86.596
X168.596Y-87.096
X168.596Y-87.596
X168.6Y-73.9
X168.6Y-105.8
X168.68Y-94.296
X168.683Y-81.321
X168.7Y-75.8
X168.7Y-103.9
X168.824Y-94.89
X168.826Y-81.915
X168.947Y-93.465
X168.95Y-80.49
X168.994Y-91.671
X168.994Y-92.121
X168.994Y-92.571
X168.996Y-78.696
X168.996Y-79.146
X168.996Y-79.596
X169.044Y-93.021
X169.046Y-80.046
X169.094Y-99.571
X169.094Y-100.071
X169.094Y-100.571
X169.096Y-86.596
X169.096Y-87.096
X169.096Y-87.596
X169.157Y-96.127
X169.159Y-83.152
X169.198Y-95.17
X169.2Y-82.195
X169.269Y-98.458
X169.269Y-97.858
X169.271Y-85.483
X169.271Y-84.883
T2
G00X153.28Y-107.415
M15
G01X153.28Y-108.015
M16
G05
G00X161.92Y-107.415
M15
G01X161.92Y-108.015
M16
G05
M30
