%TF.GenerationSoftware,KiCad,Pcbnew,8.0.1-8.0.1-1~ubuntu22.04.1*%
%TF.CreationDate,2024-03-26T17:18:08+01:00*%
%TF.ProjectId,espdrone,65737064-726f-46e6-952e-6b696361645f,rev?*%
%TF.SameCoordinates,Original*%
%TF.FileFunction,Soldermask,Top*%
%TF.FilePolarity,Negative*%
%FSLAX46Y46*%
G04 Gerber Fmt 4.6, Leading zero omitted, Abs format (unit mm)*
G04 Created by KiCad (PCBNEW 8.0.1-8.0.1-1~ubuntu22.04.1) date 2024-03-26 17:18:08*
%MOMM*%
%LPD*%
G01*
G04 APERTURE LIST*
G04 Aperture macros list*
%AMRoundRect*
0 Rectangle with rounded corners*
0 $1 Rounding radius*
0 $2 $3 $4 $5 $6 $7 $8 $9 X,Y pos of 4 corners*
0 Add a 4 corners polygon primitive as box body*
4,1,4,$2,$3,$4,$5,$6,$7,$8,$9,$2,$3,0*
0 Add four circle primitives for the rounded corners*
1,1,$1+$1,$2,$3*
1,1,$1+$1,$4,$5*
1,1,$1+$1,$6,$7*
1,1,$1+$1,$8,$9*
0 Add four rect primitives between the rounded corners*
20,1,$1+$1,$2,$3,$4,$5,0*
20,1,$1+$1,$4,$5,$6,$7,0*
20,1,$1+$1,$6,$7,$8,$9,0*
20,1,$1+$1,$8,$9,$2,$3,0*%
%AMRotRect*
0 Rectangle, with rotation*
0 The origin of the aperture is its center*
0 $1 length*
0 $2 width*
0 $3 Rotation angle, in degrees counterclockwise*
0 Add horizontal line*
21,1,$1,$2,0,0,$3*%
G04 Aperture macros list end*
%ADD10RoundRect,0.250000X-0.325000X-0.650000X0.325000X-0.650000X0.325000X0.650000X-0.325000X0.650000X0*%
%ADD11RoundRect,0.200000X0.275000X-0.200000X0.275000X0.200000X-0.275000X0.200000X-0.275000X-0.200000X0*%
%ADD12R,2.000000X2.000000*%
%ADD13C,1.300000*%
%ADD14RoundRect,0.150000X-0.309359X-0.521491X0.521491X0.309359X0.309359X0.521491X-0.521491X-0.309359X0*%
%ADD15RoundRect,0.250000X-0.689429X-0.229810X-0.229810X-0.689429X0.689429X0.229810X0.229810X0.689429X0*%
%ADD16RoundRect,0.200000X-0.200000X-0.275000X0.200000X-0.275000X0.200000X0.275000X-0.200000X0.275000X0*%
%ADD17RoundRect,0.225000X-0.017678X0.335876X-0.335876X0.017678X0.017678X-0.335876X0.335876X-0.017678X0*%
%ADD18C,1.000000*%
%ADD19R,1.600000X0.700000*%
%ADD20R,1.500000X1.200000*%
%ADD21R,2.200000X1.200000*%
%ADD22R,1.500000X1.600000*%
%ADD23RoundRect,0.112500X0.212132X-0.053033X-0.053033X0.212132X-0.212132X0.053033X0.053033X-0.212132X0*%
%ADD24RoundRect,0.135000X0.135000X0.185000X-0.135000X0.185000X-0.135000X-0.185000X0.135000X-0.185000X0*%
%ADD25RoundRect,0.200000X-0.275000X0.200000X-0.275000X-0.200000X0.275000X-0.200000X0.275000X0.200000X0*%
%ADD26R,1.000000X1.500000*%
%ADD27RoundRect,0.250000X-0.475000X0.250000X-0.475000X-0.250000X0.475000X-0.250000X0.475000X0.250000X0*%
%ADD28RoundRect,0.225000X0.225000X0.250000X-0.225000X0.250000X-0.225000X-0.250000X0.225000X-0.250000X0*%
%ADD29RotRect,0.700000X0.700000X225.000000*%
%ADD30RoundRect,0.250000X0.250000X0.475000X-0.250000X0.475000X-0.250000X-0.475000X0.250000X-0.475000X0*%
%ADD31C,0.700000*%
%ADD32R,1.100000X0.550000*%
%ADD33R,1.100000X0.300000*%
%ADD34O,2.000000X1.100000*%
%ADD35O,1.800000X1.200000*%
%ADD36RoundRect,0.250000X0.229810X-0.689429X0.689429X-0.229810X-0.229810X0.689429X-0.689429X0.229810X0*%
%ADD37RotRect,2.000000X2.000000X45.000000*%
%ADD38RoundRect,0.200000X0.335876X0.053033X0.053033X0.335876X-0.335876X-0.053033X-0.053033X-0.335876X0*%
%ADD39RoundRect,0.112500X0.053033X0.212132X-0.212132X-0.053033X-0.053033X-0.212132X0.212132X0.053033X0*%
%ADD40C,2.100000*%
%ADD41RoundRect,0.150000X0.512500X0.150000X-0.512500X0.150000X-0.512500X-0.150000X0.512500X-0.150000X0*%
%ADD42RoundRect,0.225000X-0.225000X-0.250000X0.225000X-0.250000X0.225000X0.250000X-0.225000X0.250000X0*%
%ADD43RoundRect,0.225000X-0.335876X-0.017678X-0.017678X-0.335876X0.335876X0.017678X0.017678X0.335876X0*%
%ADD44C,3.800000*%
%ADD45RoundRect,0.225000X0.250000X-0.225000X0.250000X0.225000X-0.250000X0.225000X-0.250000X-0.225000X0*%
%ADD46R,1.500000X0.900000*%
%ADD47R,0.900000X1.500000*%
%ADD48R,0.900000X0.900000*%
%ADD49RoundRect,0.150000X-0.521491X0.309359X0.309359X-0.521491X0.521491X-0.309359X-0.309359X0.521491X0*%
%ADD50RoundRect,0.150000X0.521491X-0.309359X-0.309359X0.521491X-0.521491X0.309359X0.309359X-0.521491X0*%
%ADD51RoundRect,0.225000X0.335876X0.017678X0.017678X0.335876X-0.335876X-0.017678X-0.017678X-0.335876X0*%
%ADD52RoundRect,0.200000X-0.335876X-0.053033X-0.053033X-0.335876X0.335876X0.053033X0.053033X0.335876X0*%
%ADD53R,0.300000X1.200000*%
%ADD54R,2.000000X1.800000*%
%ADD55RotRect,0.700000X0.700000X45.000000*%
%ADD56RoundRect,0.225000X0.017678X-0.335876X0.335876X-0.017678X-0.017678X0.335876X-0.335876X0.017678X0*%
%ADD57RotRect,2.000000X2.000000X315.000000*%
%ADD58RotRect,2.000000X2.000000X135.000000*%
%ADD59RotRect,0.700000X0.700000X315.000000*%
%ADD60RotRect,0.700000X0.700000X135.000000*%
%ADD61RoundRect,0.250000X0.325000X0.650000X-0.325000X0.650000X-0.325000X-0.650000X0.325000X-0.650000X0*%
%ADD62RoundRect,0.200000X0.053033X-0.335876X0.335876X-0.053033X-0.053033X0.335876X-0.335876X0.053033X0*%
%ADD63RoundRect,0.225000X-0.250000X0.225000X-0.250000X-0.225000X0.250000X-0.225000X0.250000X0.225000X0*%
%ADD64RoundRect,0.250000X0.475000X-0.250000X0.475000X0.250000X-0.475000X0.250000X-0.475000X-0.250000X0*%
%ADD65RoundRect,0.200000X-0.053033X0.335876X-0.335876X0.053033X0.053033X-0.335876X0.335876X-0.053033X0*%
%ADD66R,0.800000X1.000000*%
%ADD67C,0.900000*%
%ADD68R,1.500000X0.700000*%
%ADD69RoundRect,0.150000X0.150000X-0.512500X0.150000X0.512500X-0.150000X0.512500X-0.150000X-0.512500X0*%
%ADD70RotRect,2.000000X2.000000X225.000000*%
%ADD71RoundRect,0.112500X-0.053033X-0.212132X0.212132X0.053033X0.053033X0.212132X-0.212132X-0.053033X0*%
%ADD72RoundRect,0.250000X-0.229810X0.689429X-0.689429X0.229810X0.229810X-0.689429X0.689429X-0.229810X0*%
%ADD73RoundRect,0.112500X-0.212132X0.053033X0.053033X-0.212132X0.212132X-0.053033X-0.053033X0.212132X0*%
%ADD74RoundRect,0.150000X0.309359X0.521491X-0.521491X-0.309359X-0.309359X-0.521491X0.521491X0.309359X0*%
%ADD75RoundRect,0.087500X0.087500X-0.225000X0.087500X0.225000X-0.087500X0.225000X-0.087500X-0.225000X0*%
%ADD76RoundRect,0.087500X0.225000X-0.087500X0.225000X0.087500X-0.225000X0.087500X-0.225000X-0.087500X0*%
%ADD77RoundRect,0.250000X0.689429X0.229810X0.229810X0.689429X-0.689429X-0.229810X-0.229810X-0.689429X0*%
G04 APERTURE END LIST*
D10*
%TO.C,C29*%
X82300000Y-106250000D03*
X85250000Y-106250000D03*
%TD*%
D11*
%TO.C,R13*%
X108900000Y-102855000D03*
X108900000Y-101205000D03*
%TD*%
%TO.C,R4*%
X119175000Y-75425000D03*
X119175000Y-73775000D03*
%TD*%
D12*
%TO.C,BAT+*%
X86500000Y-101750000D03*
%TD*%
D13*
%TO.C,REF\u002A\u002A*%
X144250000Y-129500000D03*
%TD*%
D14*
%TO.C,Q4*%
X70842982Y-54187526D03*
X72186485Y-55531029D03*
X72840559Y-53533452D03*
%TD*%
D15*
%TO.C,C28*%
X70949048Y-57970547D03*
X73035014Y-60056513D03*
%TD*%
D16*
%TO.C,R2*%
X99700000Y-95800000D03*
X101350000Y-95800000D03*
%TD*%
D17*
%TO.C,C19*%
X134035355Y-117731192D03*
X132939339Y-118827208D03*
%TD*%
D18*
%TO.C,Card1*%
X120400000Y-94600000D03*
X120400000Y-86600000D03*
D19*
X109400000Y-87410000D03*
X109400000Y-88500000D03*
X109400000Y-89600000D03*
X109400000Y-90700000D03*
X109400000Y-91800000D03*
X109400000Y-92900000D03*
X109400000Y-94000000D03*
X109400000Y-95100000D03*
X109400000Y-96200000D03*
D20*
X110400000Y-97400000D03*
D21*
X120000000Y-97400000D03*
X120000000Y-81900000D03*
D22*
X110400000Y-82800000D03*
%TD*%
D23*
%TO.C,D8*%
X68845405Y-53780940D03*
X67360481Y-52296016D03*
%TD*%
D24*
%TO.C,R11*%
X107010000Y-87200000D03*
X105990000Y-87200000D03*
%TD*%
D25*
%TO.C,R1*%
X103400000Y-96130000D03*
X103400000Y-97780000D03*
%TD*%
D18*
%TO.C,BAT PWR*%
X77750000Y-87500000D03*
X80750000Y-87500000D03*
D26*
X76750000Y-84750000D03*
X79250000Y-84750000D03*
X81750000Y-84750000D03*
X76750000Y-90250000D03*
X79250000Y-90250000D03*
X81750000Y-90250000D03*
%TD*%
D27*
%TO.C,C16*%
X84775000Y-89750000D03*
X84775000Y-91650000D03*
%TD*%
D28*
%TO.C,C10*%
X101100000Y-93800000D03*
X99550000Y-93800000D03*
%TD*%
D29*
%TO.C,D3*%
X136071822Y-119583812D03*
X135294005Y-118805995D03*
X134000000Y-120100000D03*
X134777817Y-120877817D03*
%TD*%
D24*
%TO.C,R7*%
X107010000Y-94000000D03*
X105990000Y-94000000D03*
%TD*%
D12*
%TO.C,BAT-*%
X81250000Y-101750000D03*
%TD*%
D30*
%TO.C,C8*%
X81250000Y-68500000D03*
X79350000Y-68500000D03*
%TD*%
D31*
%TO.C,USB1*%
X80420000Y-73910000D03*
X80420000Y-79690000D03*
D32*
X81500000Y-73600000D03*
X81500000Y-74400000D03*
D33*
X81500000Y-75050000D03*
X81500000Y-75550000D03*
X81500000Y-76050000D03*
X81500000Y-76550000D03*
X81500000Y-77050000D03*
X81500000Y-77550000D03*
X81500000Y-78050000D03*
X81500000Y-78550000D03*
D32*
X81500000Y-79200000D03*
X81500000Y-80000000D03*
D34*
X80950000Y-72480000D03*
D35*
X76740000Y-72480000D03*
D34*
X80950000Y-81120000D03*
D35*
X76740000Y-81120000D03*
%TD*%
D36*
%TO.C,C26*%
X72569848Y-114015939D03*
X74655814Y-111929973D03*
%TD*%
D37*
%TO.C,TP1*%
X129968978Y-51251464D03*
%TD*%
D38*
%TO.C,R16*%
X71738998Y-110922346D03*
X70572272Y-109755620D03*
%TD*%
D39*
%TO.C,D7*%
X68642462Y-115757538D03*
X67157538Y-117242462D03*
%TD*%
D40*
%TO.C,H1*%
X78000000Y-107000000D03*
%TD*%
D41*
%TO.C,U3*%
X89250000Y-87000000D03*
X89250000Y-85100000D03*
X86975000Y-86050000D03*
%TD*%
%TO.C,U4*%
X89250000Y-90900000D03*
X89250000Y-89000000D03*
X86975000Y-89950000D03*
%TD*%
D42*
%TO.C,C13*%
X99750000Y-97400000D03*
X101300000Y-97400000D03*
%TD*%
D43*
%TO.C,C20*%
X132872164Y-50705616D03*
X133968180Y-51801632D03*
%TD*%
D44*
%TO.C,TP10*%
X81250000Y-97400000D03*
%TD*%
D42*
%TO.C,C5*%
X86955000Y-64995000D03*
X88505000Y-64995000D03*
%TD*%
D45*
%TO.C,C3*%
X88730000Y-63220000D03*
X88730000Y-61670000D03*
%TD*%
D46*
%TO.C,U1*%
X91250000Y-61280000D03*
X91250000Y-62550000D03*
X91250000Y-63820000D03*
X91250000Y-65090000D03*
X91250000Y-66360000D03*
X91250000Y-67630000D03*
X91250000Y-68900000D03*
X91250000Y-70170000D03*
X91250000Y-71440000D03*
X91250000Y-72710000D03*
X91250000Y-73980000D03*
X91250000Y-75250000D03*
X91250000Y-76520000D03*
X91250000Y-77790000D03*
D47*
X93015000Y-79040000D03*
X94285000Y-79040000D03*
X95555000Y-79040000D03*
X96825000Y-79040000D03*
X98095000Y-79040000D03*
X99365000Y-79040000D03*
X100635000Y-79040000D03*
X101905000Y-79040000D03*
X103175000Y-79040000D03*
X104445000Y-79040000D03*
X105715000Y-79040000D03*
X106985000Y-79040000D03*
D46*
X108750000Y-77790000D03*
X108750000Y-76520000D03*
X108750000Y-75250000D03*
X108750000Y-73980000D03*
X108750000Y-72710000D03*
X108750000Y-71440000D03*
X108750000Y-70170000D03*
X108750000Y-68900000D03*
X108750000Y-67630000D03*
X108750000Y-66360000D03*
X108750000Y-65090000D03*
X108750000Y-63820000D03*
X108750000Y-62550000D03*
X108750000Y-61280000D03*
D48*
X97100000Y-67600000D03*
X97100000Y-69000000D03*
X97100000Y-70400000D03*
X97100000Y-70400000D03*
X98500000Y-67600000D03*
X98500000Y-67600000D03*
X98500000Y-69000000D03*
X98500000Y-70400000D03*
X99900000Y-67600000D03*
X99900000Y-69000000D03*
X99900000Y-70400000D03*
%TD*%
D17*
%TO.C,C27*%
X69906066Y-56291169D03*
X68810050Y-57387185D03*
%TD*%
D44*
%TO.C,TP9*%
X86500000Y-97400000D03*
%TD*%
D49*
%TO.C,Q1*%
X130543503Y-55856497D03*
X129200000Y-57200000D03*
X131197577Y-57854074D03*
%TD*%
D50*
%TO.C,Q3*%
X69122702Y-113892195D03*
X70466205Y-112548692D03*
X68468628Y-111894618D03*
%TD*%
D51*
%TO.C,C2*%
X67026346Y-118965685D03*
X65930330Y-117869669D03*
%TD*%
D25*
%TO.C,R14*%
X111600000Y-64400000D03*
X111600000Y-66050000D03*
%TD*%
D52*
%TO.C,R12*%
X127944885Y-58773313D03*
X129111611Y-59940039D03*
%TD*%
D45*
%TO.C,C15*%
X111725000Y-105900000D03*
X111725000Y-104350000D03*
%TD*%
D27*
%TO.C,C12*%
X91500000Y-89000000D03*
X91500000Y-90900000D03*
%TD*%
D40*
%TO.C,H2*%
X122000000Y-107000000D03*
%TD*%
D53*
%TO.C,FPC1*%
X104450000Y-100960000D03*
X103950000Y-100960000D03*
X103450000Y-100960000D03*
X102950000Y-100960000D03*
X102450000Y-100960000D03*
X101950000Y-100960000D03*
X101450000Y-100960000D03*
X100950000Y-100960000D03*
X100450000Y-100960000D03*
X99950000Y-100960000D03*
X99450000Y-100960000D03*
X98950000Y-100960000D03*
X98450000Y-100960000D03*
X97950000Y-100960000D03*
X97450000Y-100960000D03*
X96950000Y-100960000D03*
X96450000Y-100960000D03*
X95950000Y-100960000D03*
X95450000Y-100960000D03*
X94950000Y-100960000D03*
X94450000Y-100960000D03*
X93950000Y-100960000D03*
X93450000Y-100960000D03*
X92950000Y-100960000D03*
D54*
X91400000Y-104200000D03*
X106000000Y-104200000D03*
%TD*%
D55*
%TO.C,D5*%
X63489009Y-50272407D03*
X64266826Y-51050224D03*
X65560831Y-49756219D03*
X64783014Y-48978402D03*
%TD*%
D51*
%TO.C,C18*%
X128554765Y-54645577D03*
X127458749Y-53549561D03*
%TD*%
D56*
%TO.C,C1*%
X65551992Y-52148008D03*
X66648008Y-51051992D03*
%TD*%
D27*
%TO.C,C9*%
X91500000Y-87150000D03*
X91500000Y-85250000D03*
%TD*%
D57*
%TO.C,TP3*%
X133400000Y-115000000D03*
%TD*%
D58*
%TO.C,TP7*%
X66264466Y-54735534D03*
%TD*%
D59*
%TO.C,D2*%
X134777817Y-48722183D03*
X134000000Y-49500000D03*
X135294005Y-50794005D03*
X136071822Y-50016188D03*
%TD*%
D60*
%TO.C,D4*%
X65173726Y-121002152D03*
X65951543Y-120224335D03*
X64657538Y-118930330D03*
X63879721Y-119708147D03*
%TD*%
D43*
%TO.C,C25*%
X70961180Y-114952855D03*
X72057196Y-116048871D03*
%TD*%
D57*
%TO.C,TP4*%
X129864466Y-118535534D03*
%TD*%
D61*
%TO.C,C6*%
X83750000Y-66000000D03*
X80800000Y-66000000D03*
%TD*%
D40*
%TO.C,H4*%
X78000000Y-63000000D03*
%TD*%
D24*
%TO.C,R10*%
X107010000Y-88400000D03*
X105990000Y-88400000D03*
%TD*%
D62*
%TO.C,R17*%
X73689087Y-56962920D03*
X74855813Y-55796194D03*
%TD*%
D13*
%TO.C,REF\u002A\u002A*%
X144250000Y-39750000D03*
%TD*%
D63*
%TO.C,C21*%
X118265000Y-64160000D03*
X118265000Y-65710000D03*
%TD*%
D25*
%TO.C,R5*%
X108900000Y-104355000D03*
X108900000Y-106005000D03*
%TD*%
D64*
%TO.C,C4*%
X86730000Y-63220000D03*
X86730000Y-61320000D03*
%TD*%
D56*
%TO.C,C23*%
X129935177Y-113656497D03*
X131031193Y-112560481D03*
%TD*%
D65*
%TO.C,R15*%
X125886991Y-112931713D03*
X124720265Y-114098439D03*
%TD*%
D66*
%TO.C,BOOT*%
X121745000Y-78050000D03*
X123955000Y-78050000D03*
D67*
X122855000Y-75900000D03*
X122855000Y-72900000D03*
D66*
X121745000Y-70750000D03*
X123955000Y-70750000D03*
D68*
X121095000Y-76650000D03*
X121095000Y-73650000D03*
X121095000Y-72150000D03*
%TD*%
D24*
%TO.C,R6*%
X107010000Y-95200000D03*
X105990000Y-95200000D03*
%TD*%
D69*
%TO.C,U2*%
X84100000Y-71275000D03*
X85050000Y-71275000D03*
X86000000Y-71275000D03*
X86000000Y-69000000D03*
X84100000Y-69000000D03*
%TD*%
D70*
%TO.C,TP5*%
X69600000Y-118300000D03*
%TD*%
D27*
%TO.C,C7*%
X88800000Y-71400000D03*
X88800000Y-73300000D03*
%TD*%
D45*
%TO.C,C14*%
X91800000Y-99200000D03*
X91800000Y-97650000D03*
%TD*%
D16*
%TO.C,R3*%
X86880000Y-66820000D03*
X88530000Y-66820000D03*
%TD*%
D40*
%TO.C,H3*%
X122000000Y-63000000D03*
%TD*%
D71*
%TO.C,D1*%
X130923573Y-53832404D03*
X132408497Y-52347480D03*
%TD*%
D27*
%TO.C,C11*%
X84750000Y-85500000D03*
X84750000Y-87400000D03*
%TD*%
D58*
%TO.C,TP8*%
X69800000Y-51200000D03*
%TD*%
D13*
%TO.C,REF\u002A\u002A*%
X55250000Y-129000000D03*
%TD*%
D24*
%TO.C,R9*%
X107010000Y-89600000D03*
X105990000Y-89600000D03*
%TD*%
D72*
%TO.C,C17*%
X126999131Y-55635526D03*
X124913165Y-57721492D03*
%TD*%
D73*
%TO.C,D6*%
X130819061Y-115954594D03*
X132303985Y-117439518D03*
%TD*%
D74*
%TO.C,Q2*%
X128821484Y-115548008D03*
X127477981Y-114204505D03*
X126823907Y-116202082D03*
%TD*%
D37*
%TO.C,TP2*%
X133504512Y-54786998D03*
%TD*%
D25*
%TO.C,R18*%
X111600000Y-61000000D03*
X111600000Y-62650000D03*
%TD*%
D75*
%TO.C,U5*%
X114600000Y-66462500D03*
X115100000Y-66462500D03*
X115600000Y-66462500D03*
X116100000Y-66462500D03*
D76*
X116262500Y-65800000D03*
X116262500Y-65300000D03*
X116262500Y-64800000D03*
D75*
X116100000Y-64137500D03*
X115600000Y-64137500D03*
X115100000Y-64137500D03*
X114600000Y-64137500D03*
D76*
X114437500Y-64800000D03*
X114437500Y-65300000D03*
X114437500Y-65800000D03*
%TD*%
D70*
%TO.C,TP6*%
X66100000Y-114800000D03*
%TD*%
D24*
%TO.C,R8*%
X107010000Y-91800000D03*
X105990000Y-91800000D03*
%TD*%
D77*
%TO.C,C24*%
X128945228Y-112100863D03*
X126859262Y-110014897D03*
%TD*%
M02*
