%TF.GenerationSoftware,KiCad,Pcbnew,10.0.5*%
%TF.CreationDate,2026-09-20T01:47:09+02:00*%
%TF.ProjectId,espdrone,65737064-726f-46e6-952e-6b696361645f,rev?*%
%TF.SameCoordinates,Original*%
%TF.FileFunction,Copper,L1,Top*%
%TF.FilePolarity,Positive*%
%FSLAX46Y46*%
G04 Gerber Fmt 4.6, Leading zero omitted, Abs format (unit mm)*
G04 Created by KiCad (PCBNEW 10.0.5) date 2026-09-20 01:47:09*
%MOMM*%
%LPD*%
G01*
G04 APERTURE LIST*
G04 Aperture macros list*
%AMRoundRect*
0 Rectangle with rounded corners*
0 $1 Rounding radius*
0 $2 $3 $4 $5 $6 $7 $8 $9 X,Y pos of 4 corners*
0 Add a 4 corners polygon primitive as box body*
4,1,4,$2,$3,$4,$5,$6,$7,$8,$9,$2,$3,0*
0 Add four circle primitives for the rounded corners*
1,1,$1+$1,$2,$3*
1,1,$1+$1,$4,$5*
1,1,$1+$1,$6,$7*
1,1,$1+$1,$8,$9*
0 Add four rect primitives between the rounded corners*
20,1,$1+$1,$2,$3,$4,$5,0*
20,1,$1+$1,$4,$5,$6,$7,0*
20,1,$1+$1,$6,$7,$8,$9,0*
20,1,$1+$1,$8,$9,$2,$3,0*%
G04 Aperture macros list end*
%TA.AperFunction,SMDPad,CuDef*%
%ADD10RoundRect,0.250000X-1.100000X0.325000X-1.100000X-0.325000X1.100000X-0.325000X1.100000X0.325000X0*%
%TD*%
%TA.AperFunction,SMDPad,CuDef*%
%ADD11RoundRect,0.750000X0.750000X0.750000X-0.750000X0.750000X-0.750000X-0.750000X0.750000X-0.750000X0*%
%TD*%
%TA.AperFunction,SMDPad,CuDef*%
%ADD12RoundRect,0.750000X-0.750000X-0.750000X0.750000X-0.750000X0.750000X0.750000X-0.750000X0.750000X0*%
%TD*%
%TA.AperFunction,SMDPad,CuDef*%
%ADD13R,0.400000X1.050000*%
%TD*%
%TA.AperFunction,SMDPad,CuDef*%
%ADD14O,0.400000X1.050000*%
%TD*%
%TA.AperFunction,SMDPad,CuDef*%
%ADD15O,0.600000X0.200000*%
%TD*%
%TA.AperFunction,SMDPad,CuDef*%
%ADD16RoundRect,0.100000X-0.100000X0.130000X-0.100000X-0.130000X0.100000X-0.130000X0.100000X0.130000X0*%
%TD*%
%TA.AperFunction,SMDPad,CuDef*%
%ADD17RoundRect,0.250000X-0.250000X-0.475000X0.250000X-0.475000X0.250000X0.475000X-0.250000X0.475000X0*%
%TD*%
%TA.AperFunction,SMDPad,CuDef*%
%ADD18RoundRect,0.100000X0.100000X-0.130000X0.100000X0.130000X-0.100000X0.130000X-0.100000X-0.130000X0*%
%TD*%
%TA.AperFunction,SMDPad,CuDef*%
%ADD19RoundRect,0.100000X-0.130000X-0.100000X0.130000X-0.100000X0.130000X0.100000X-0.130000X0.100000X0*%
%TD*%
%TA.AperFunction,SMDPad,CuDef*%
%ADD20RoundRect,0.750000X0.750000X-1.250000X0.750000X1.250000X-0.750000X1.250000X-0.750000X-1.250000X0*%
%TD*%
%TA.AperFunction,SMDPad,CuDef*%
%ADD21R,0.800000X0.400000*%
%TD*%
%TA.AperFunction,SMDPad,CuDef*%
%ADD22R,2.000000X2.600000*%
%TD*%
%TA.AperFunction,SMDPad,CuDef*%
%ADD23R,0.750000X0.400000*%
%TD*%
%TA.AperFunction,SMDPad,CuDef*%
%ADD24R,0.400000X0.800000*%
%TD*%
%TA.AperFunction,SMDPad,CuDef*%
%ADD25R,2.600000X2.000000*%
%TD*%
%TA.AperFunction,SMDPad,CuDef*%
%ADD26R,0.400000X0.750000*%
%TD*%
%TA.AperFunction,SMDPad,CuDef*%
%ADD27RoundRect,0.250000X1.100000X-0.325000X1.100000X0.325000X-1.100000X0.325000X-1.100000X-0.325000X0*%
%TD*%
%TA.AperFunction,SMDPad,CuDef*%
%ADD28RoundRect,0.125000X-0.125000X0.250000X-0.125000X-0.250000X0.125000X-0.250000X0.125000X0.250000X0*%
%TD*%
%TA.AperFunction,HeatsinkPad*%
%ADD29R,4.300000X3.400000*%
%TD*%
%TA.AperFunction,SMDPad,CuDef*%
%ADD30R,0.600000X0.420000*%
%TD*%
%TA.AperFunction,SMDPad,CuDef*%
%ADD31RoundRect,0.225000X0.250000X-0.225000X0.250000X0.225000X-0.250000X0.225000X-0.250000X-0.225000X0*%
%TD*%
%TA.AperFunction,SMDPad,CuDef*%
%ADD32RoundRect,0.140000X0.140000X0.170000X-0.140000X0.170000X-0.140000X-0.170000X0.140000X-0.170000X0*%
%TD*%
%TA.AperFunction,SMDPad,CuDef*%
%ADD33R,1.500000X0.500000*%
%TD*%
%TA.AperFunction,SMDPad,CuDef*%
%ADD34R,1.700000X2.000000*%
%TD*%
%TA.AperFunction,SMDPad,CuDef*%
%ADD35R,2.900000X1.500000*%
%TD*%
%TA.AperFunction,SMDPad,CuDef*%
%ADD36R,0.800000X1.500000*%
%TD*%
%TA.AperFunction,SMDPad,CuDef*%
%ADD37RoundRect,0.250000X0.375000X0.850000X-0.375000X0.850000X-0.375000X-0.850000X0.375000X-0.850000X0*%
%TD*%
%TA.AperFunction,ComponentPad*%
%ADD38C,0.500000*%
%TD*%
%TA.AperFunction,ComponentPad*%
%ADD39O,1.600000X0.900000*%
%TD*%
%TA.AperFunction,SMDPad,CuDef*%
%ADD40R,1.200000X0.300000*%
%TD*%
%TA.AperFunction,SMDPad,CuDef*%
%ADD41R,1.200000X0.600000*%
%TD*%
%TA.AperFunction,SMDPad,CuDef*%
%ADD42RoundRect,0.075000X-0.075000X0.075000X-0.075000X-0.075000X0.075000X-0.075000X0.075000X0.075000X0*%
%TD*%
%TA.AperFunction,SMDPad,CuDef*%
%ADD43RoundRect,0.250000X0.250000X0.475000X-0.250000X0.475000X-0.250000X-0.475000X0.250000X-0.475000X0*%
%TD*%
%TA.AperFunction,SMDPad,CuDef*%
%ADD44RoundRect,0.050000X-0.100000X0.285000X-0.100000X-0.285000X0.100000X-0.285000X0.100000X0.285000X0*%
%TD*%
%TA.AperFunction,SMDPad,CuDef*%
%ADD45RoundRect,0.100000X0.130000X0.100000X-0.130000X0.100000X-0.130000X-0.100000X0.130000X-0.100000X0*%
%TD*%
%TA.AperFunction,ViaPad*%
%ADD46C,0.450000*%
%TD*%
%TA.AperFunction,ViaPad*%
%ADD47C,0.600000*%
%TD*%
%TA.AperFunction,Conductor*%
%ADD48C,0.300000*%
%TD*%
%TA.AperFunction,Conductor*%
%ADD49C,1.000000*%
%TD*%
%TA.AperFunction,Conductor*%
%ADD50C,0.200000*%
%TD*%
%TA.AperFunction,Conductor*%
%ADD51C,0.500000*%
%TD*%
%TA.AperFunction,Conductor*%
%ADD52C,0.150000*%
%TD*%
%TA.AperFunction,Conductor*%
%ADD53C,0.100000*%
%TD*%
G04 APERTURE END LIST*
D10*
%TO.P,C193,1*%
%TO.N,GND*%
X250325000Y-99222506D03*
%TO.P,C193,2*%
%TO.N,+BATT*%
X250325000Y-102172506D03*
%TD*%
D11*
%TO.P,TP57,1,1_1*%
%TO.N,/Motors/ESC4/PHASE_B*%
X252025000Y-111597506D03*
%TD*%
D12*
%TO.P,TP20,1,1_1*%
%TO.N,/Motors/ESC1/PHASE_A*%
X234500000Y-75900000D03*
%TD*%
D13*
%TO.P,U9,1,OUT_1*%
%TO.N,VBUS*%
X254350000Y-97022500D03*
D14*
%TO.P,U9,2,IN2_2*%
%TO.N,+BATT*%
X255050000Y-97022500D03*
D15*
%TO.P,U9,3,CP2_3*%
%TO.N,GND*%
X255850000Y-97102500D03*
%TO.P,U9,4,OV2_4*%
X255850000Y-96602500D03*
%TO.P,U9,5,OV1_5*%
X255850000Y-96102500D03*
%TO.P,U9,6,PR1_6*%
%TO.N,Net-(U9-PR1)*%
X255850000Y-95602500D03*
D14*
%TO.P,U9,7,IN1_7*%
%TO.N,+5V*%
X255050000Y-95672500D03*
%TO.P,U9,8,OUT_8*%
%TO.N,VBUS*%
X254350000Y-95672500D03*
D15*
%TO.P,U9,9,ST_9*%
%TO.N,GND*%
X253550000Y-95602500D03*
%TO.P,U9,10,ILM_10*%
%TO.N,Net-(U9-ILM)*%
X253550000Y-96102500D03*
%TO.P,U9,11,SS_11*%
%TO.N,Net-(U9-SS)*%
X253550000Y-96602500D03*
%TO.P,U9,12,GND_12*%
%TO.N,GND*%
X253550000Y-97102500D03*
%TD*%
D12*
%TO.P,TP21,1,1_1*%
%TO.N,/Motors/ESC1/PHASE_B*%
X238600000Y-75900000D03*
%TD*%
D16*
%TO.P,R11,1*%
%TO.N,Net-(U7-CC1)*%
X259700000Y-87380000D03*
%TO.P,R11,2*%
%TO.N,GND*%
X259700000Y-88020000D03*
%TD*%
D17*
%TO.P,C80,1*%
%TO.N,VBUS*%
X252950000Y-93000000D03*
%TO.P,C80,2*%
%TO.N,GND*%
X254850000Y-93000000D03*
%TD*%
D18*
%TO.P,R94,1*%
%TO.N,Net-(Q11-G)*%
X245475000Y-80402494D03*
%TO.P,R94,2*%
%TO.N,/Motors/ESC2/GHA*%
X245475000Y-79762494D03*
%TD*%
D19*
%TO.P,R34,1*%
%TO.N,+5V*%
X255050000Y-95002500D03*
%TO.P,R34,2*%
%TO.N,Net-(U9-PR1)*%
X255690000Y-95002500D03*
%TD*%
D10*
%TO.P,C200,1*%
%TO.N,GND*%
X234125000Y-99222506D03*
%TO.P,C200,2*%
%TO.N,+BATT*%
X234125000Y-102172506D03*
%TD*%
D20*
%TO.P,TP2,1,1_1*%
%TO.N,GND*%
X263000000Y-104100000D03*
%TD*%
D16*
%TO.P,C73,1*%
%TO.N,Net-(U9-SS)*%
X252850000Y-96722500D03*
%TO.P,C73,2*%
%TO.N,GND*%
X252850000Y-97362500D03*
%TD*%
D11*
%TO.P,TP58,1,1_1*%
%TO.N,/Motors/ESC4/PHASE_C*%
X248025000Y-111597506D03*
%TD*%
D21*
%TO.P,Q14,1,D_1*%
%TO.N,/Motors/ESC2/PHASE_B*%
X253535000Y-77922494D03*
X253535000Y-78582494D03*
D22*
X252335000Y-78902494D03*
D21*
X253535000Y-79232494D03*
X253535000Y-79882494D03*
D23*
%TO.P,Q14,2,G_2*%
%TO.N,Net-(Q14-G)*%
X250475000Y-79882494D03*
%TO.P,Q14,3,S_3*%
%TO.N,GND*%
X250475000Y-77922494D03*
X250475000Y-78582494D03*
X250475000Y-79232494D03*
%TD*%
D24*
%TO.P,Q17,1,D_1*%
%TO.N,+BATT*%
X242465000Y-103587506D03*
X243125000Y-103587506D03*
D25*
X243445000Y-104787506D03*
D24*
X243775000Y-103587506D03*
X244425000Y-103587506D03*
D26*
%TO.P,Q17,2,G_2*%
%TO.N,Net-(Q17-G)*%
X244425000Y-106647506D03*
%TO.P,Q17,3,S_3*%
%TO.N,/Motors/ESC3/PHASE_A*%
X242465000Y-106647506D03*
X243125000Y-106647506D03*
X243775000Y-106647506D03*
%TD*%
D19*
%TO.P,C65,1*%
%TO.N,Net-(U17-SS)*%
X250730000Y-94080000D03*
%TO.P,C65,2*%
%TO.N,GND*%
X251370000Y-94080000D03*
%TD*%
D24*
%TO.P,Q5,1,D_1*%
%TO.N,+BATT*%
X235160000Y-83910000D03*
X234500000Y-83910000D03*
D25*
X234180000Y-82710000D03*
D24*
X233850000Y-83910000D03*
X233200000Y-83910000D03*
D26*
%TO.P,Q5,2,G_2*%
%TO.N,Net-(Q5-G)*%
X233200000Y-80850000D03*
%TO.P,Q5,3,S_3*%
%TO.N,/Motors/ESC1/PHASE_A*%
X235160000Y-80850000D03*
X234500000Y-80850000D03*
X233850000Y-80850000D03*
%TD*%
D16*
%TO.P,R41,1*%
%TO.N,GND*%
X251800000Y-91940000D03*
%TO.P,R41,2*%
%TO.N,Net-(U17-FB)*%
X251800000Y-92580000D03*
%TD*%
D21*
%TO.P,Q10,1,D_1*%
%TO.N,/Motors/ESC1/PHASE_C*%
X241570000Y-79880000D03*
X241570000Y-79220000D03*
D22*
X242770000Y-78900000D03*
D21*
X241570000Y-78570000D03*
X241570000Y-77920000D03*
D23*
%TO.P,Q10,2,G_2*%
%TO.N,Net-(Q10-G)*%
X244630000Y-77920000D03*
%TO.P,Q10,3,S_3*%
%TO.N,GND*%
X244630000Y-79880000D03*
X244630000Y-79220000D03*
X244630000Y-78570000D03*
%TD*%
D10*
%TO.P,C201,1*%
%TO.N,GND*%
X247125000Y-99222506D03*
%TO.P,C201,2*%
%TO.N,+BATT*%
X247125000Y-102172506D03*
%TD*%
D21*
%TO.P,Q20,1,D_1*%
%TO.N,/Motors/ESC3/PHASE_B*%
X237065000Y-109577506D03*
X237065000Y-108917506D03*
D22*
X238265000Y-108597506D03*
D21*
X237065000Y-108267506D03*
X237065000Y-107617506D03*
D23*
%TO.P,Q20,2,G_2*%
%TO.N,Net-(Q20-G)*%
X240125000Y-107617506D03*
%TO.P,Q20,3,S_3*%
%TO.N,GND*%
X240125000Y-109577506D03*
X240125000Y-108917506D03*
X240125000Y-108267506D03*
%TD*%
D12*
%TO.P,TP33,1,1_1*%
%TO.N,/Motors/ESC2/PHASE_B*%
X251575000Y-75902494D03*
%TD*%
D11*
%TO.P,TP56,1,1_1*%
%TO.N,/Motors/ESC4/PHASE_A*%
X256125000Y-111597506D03*
%TD*%
D16*
%TO.P,R10,1*%
%TO.N,Net-(U7-CC2)*%
X259700000Y-84380000D03*
%TO.P,R10,2*%
%TO.N,GND*%
X259700000Y-85020000D03*
%TD*%
D21*
%TO.P,Q26,1,D_1*%
%TO.N,/Motors/ESC4/PHASE_B*%
X250065000Y-109577506D03*
X250065000Y-108917506D03*
D22*
X251265000Y-108597506D03*
D21*
X250065000Y-108267506D03*
X250065000Y-107617506D03*
D23*
%TO.P,Q26,2,G_2*%
%TO.N,Net-(Q26-G)*%
X253125000Y-107617506D03*
%TO.P,Q26,3,S_3*%
%TO.N,GND*%
X253125000Y-109577506D03*
X253125000Y-108917506D03*
X253125000Y-108267506D03*
%TD*%
D18*
%TO.P,R95,1*%
%TO.N,Net-(Q12-G)*%
X249525000Y-76842494D03*
%TO.P,R95,2*%
%TO.N,/Motors/ESC2/GLA*%
X249525000Y-76202494D03*
%TD*%
D27*
%TO.P,C199,1*%
%TO.N,GND*%
X256475000Y-88277494D03*
%TO.P,C199,2*%
%TO.N,+BATT*%
X256475000Y-85327494D03*
%TD*%
%TO.P,C113,1*%
%TO.N,GND*%
X233900000Y-88275000D03*
%TO.P,C113,2*%
%TO.N,+BATT*%
X233900000Y-85325000D03*
%TD*%
D16*
%TO.P,R39,1*%
%TO.N,GND*%
X252850000Y-95322500D03*
%TO.P,R39,2*%
%TO.N,Net-(U9-ILM)*%
X252850000Y-95962500D03*
%TD*%
D24*
%TO.P,Q23,1,D_1*%
%TO.N,+BATT*%
X255465000Y-103587506D03*
X256125000Y-103587506D03*
D25*
X256445000Y-104787506D03*
D24*
X256775000Y-103587506D03*
X257425000Y-103587506D03*
D26*
%TO.P,Q23,2,G_2*%
%TO.N,Net-(Q23-G)*%
X257425000Y-106647506D03*
%TO.P,Q23,3,S_3*%
%TO.N,/Motors/ESC4/PHASE_A*%
X255465000Y-106647506D03*
X256125000Y-106647506D03*
X256775000Y-106647506D03*
%TD*%
D21*
%TO.P,Q24,1,D_1*%
%TO.N,/Motors/ESC4/PHASE_A*%
X257205000Y-107617506D03*
X257205000Y-108277506D03*
D22*
X256005000Y-108597506D03*
D21*
X257205000Y-108927506D03*
X257205000Y-109577506D03*
D23*
%TO.P,Q24,2,G_2*%
%TO.N,Net-(Q24-G)*%
X254145000Y-109577506D03*
%TO.P,Q24,3,S_3*%
%TO.N,GND*%
X254145000Y-107617506D03*
X254145000Y-108277506D03*
X254145000Y-108927506D03*
%TD*%
D10*
%TO.P,C162,1*%
%TO.N,GND*%
X240525000Y-99222506D03*
%TO.P,C162,2*%
%TO.N,+BATT*%
X240525000Y-102172506D03*
%TD*%
%TO.P,C185,1*%
%TO.N,GND*%
X256725000Y-99222506D03*
%TO.P,C185,2*%
%TO.N,+BATT*%
X256725000Y-102172506D03*
%TD*%
D28*
%TO.P,U3,1,~{CS}_1*%
%TO.N,/MCU/FLASH_CS*%
X242060000Y-91700000D03*
%TO.P,U3,2,DO/IO_{1}_2*%
%TO.N,/MCU/FLASH_Q*%
X240790000Y-91700000D03*
%TO.P,U3,3,~{WP}/IO_{2}_3*%
%TO.N,/MCU/FLASH_WP*%
X239520000Y-91700000D03*
%TO.P,U3,4,GND_4*%
%TO.N,GND*%
X238250000Y-91700000D03*
%TO.P,U3,5,DI/IO_{0}_5*%
%TO.N,/MCU/FLASH_D*%
X238250000Y-97100000D03*
%TO.P,U3,6,CLK_6*%
%TO.N,/MCU/FLASH_CLK*%
X239520000Y-97100000D03*
%TO.P,U3,7,~{HOLD}/~{RESET}/IO_{3}_7*%
%TO.N,/MCU/FLASH_HD*%
X240790000Y-97100000D03*
%TO.P,U3,8,VCC_8*%
%TO.N,/MCU/VDD_FLASH*%
X242060000Y-97100000D03*
D29*
%TO.P,U3,9,EP_9*%
%TO.N,GND*%
X240155000Y-94400000D03*
%TD*%
D11*
%TO.P,TP46,1,1_1*%
%TO.N,/Motors/ESC3/PHASE_C*%
X235025000Y-111597506D03*
%TD*%
D30*
%TO.P,U8,1,REF_1*%
%TO.N,GND*%
X257650000Y-93250000D03*
%TO.P,U8,2,GND_2*%
X257650000Y-93900000D03*
%TO.P,U8,3,VS_3*%
%TO.N,+3V3*%
X257650000Y-94550000D03*
%TO.P,U8,4,IN+_4*%
%TO.N,Net-(U8-IN+)*%
X259550000Y-94550000D03*
%TO.P,U8,5,IN-_5*%
%TO.N,Net-(U8-IN-)*%
X259550000Y-93900000D03*
%TO.P,U8,6,OUT_6*%
%TO.N,Net-(U8-OUT)*%
X259550000Y-93250000D03*
%TD*%
D31*
%TO.P,C75,1*%
%TO.N,GND*%
X231600000Y-104775000D03*
%TO.P,C75,2*%
%TO.N,+3V3*%
X231600000Y-103225000D03*
%TD*%
D32*
%TO.P,C76,1*%
%TO.N,Net-(U17-BST)*%
X249900000Y-93340000D03*
%TO.P,C76,2*%
%TO.N,Net-(U17-SW)*%
X248940000Y-93340000D03*
%TD*%
D10*
%TO.P,C161,1*%
%TO.N,GND*%
X243725000Y-99222506D03*
%TO.P,C161,2*%
%TO.N,+BATT*%
X243725000Y-102172506D03*
%TD*%
D24*
%TO.P,Q21,1,D_1*%
%TO.N,+BATT*%
X233515000Y-103587506D03*
X234175000Y-103587506D03*
D25*
X234495000Y-104787506D03*
D24*
X234825000Y-103587506D03*
X235475000Y-103587506D03*
D26*
%TO.P,Q21,2,G_2*%
%TO.N,Net-(Q21-G)*%
X235475000Y-106647506D03*
%TO.P,Q21,3,S_3*%
%TO.N,/Motors/ESC3/PHASE_C*%
X233515000Y-106647506D03*
X234175000Y-106647506D03*
X234825000Y-106647506D03*
%TD*%
D33*
%TO.P,U10,1,1_1*%
%TO.N,GND*%
X231212500Y-88100000D03*
%TO.P,U10,2,2_2*%
%TO.N,CSI_DATA0N*%
X231212500Y-89100000D03*
%TO.P,U10,3,3_3*%
%TO.N,CSI_DATA0P*%
X231212500Y-90100000D03*
%TO.P,U10,4,4_4*%
%TO.N,GND*%
X231212500Y-91100000D03*
%TO.P,U10,5,5_5*%
%TO.N,CSI_DATA1N*%
X231212500Y-92100000D03*
%TO.P,U10,6,6_6*%
%TO.N,CSI_DATA1P*%
X231212500Y-93100000D03*
%TO.P,U10,7,7_7*%
%TO.N,GND*%
X231212500Y-94100000D03*
%TO.P,U10,8,8_8*%
%TO.N,CSI_CLKN*%
X231212500Y-95100000D03*
%TO.P,U10,9,9_9*%
%TO.N,CSI_CLKP*%
X231212500Y-96100000D03*
%TO.P,U10,10,10_10*%
%TO.N,GND*%
X231212500Y-97100000D03*
%TO.P,U10,11,11_11*%
%TO.N,CAM_EN*%
X231212500Y-98100000D03*
%TO.P,U10,12,12_12*%
%TO.N,unconnected-(U10-Pad12)*%
X231212500Y-99100000D03*
%TO.P,U10,13,13_13*%
%TO.N,I2C_SCL*%
X231212500Y-100100000D03*
%TO.P,U10,14,14_14*%
%TO.N,I2C_SDA*%
X231212500Y-101100000D03*
%TO.P,U10,15,15_15*%
%TO.N,+3V3*%
X231212500Y-102100000D03*
D34*
%TO.P,U10,16,16_16*%
%TO.N,GND*%
X228772500Y-104300000D03*
%TO.P,U10,17,17_17*%
X228612500Y-85900000D03*
%TD*%
D12*
%TO.P,TP34,1,1_1*%
%TO.N,/Motors/ESC2/PHASE_C*%
X255575000Y-75902494D03*
%TD*%
D10*
%TO.P,C186,1*%
%TO.N,GND*%
X253525000Y-99222506D03*
%TO.P,C186,2*%
%TO.N,+BATT*%
X253525000Y-102172506D03*
%TD*%
%TO.P,C169,1*%
%TO.N,GND*%
X237325000Y-99222506D03*
%TO.P,C169,2*%
%TO.N,+BATT*%
X237325000Y-102172506D03*
%TD*%
D35*
%TO.P,R3,1,1_1*%
%TO.N,+BATT*%
X262978289Y-93182500D03*
%TO.P,R3,2,2_2*%
%TO.N,Net-(R3-Pad2)*%
X262978289Y-95282500D03*
D36*
%TO.P,R3,3,3_3*%
%TO.N,Net-(U8-IN-)*%
X260658289Y-93182500D03*
%TO.P,R3,4,4_4*%
%TO.N,Net-(U8-IN+)*%
X260658289Y-95282500D03*
%TD*%
D16*
%TO.P,R35,1*%
%TO.N,Net-(U9-PR1)*%
X256450000Y-95727500D03*
%TO.P,R35,2*%
%TO.N,GND*%
X256450000Y-96367500D03*
%TD*%
D37*
%TO.P,L5,1,1_1*%
%TO.N,Net-(U17-SW)*%
X247975000Y-91477500D03*
%TO.P,L5,2,2_2*%
%TO.N,+3V3*%
X245825000Y-91477500D03*
%TD*%
D11*
%TO.P,TP44,1,1_1*%
%TO.N,/Motors/ESC3/PHASE_A*%
X243125000Y-111597506D03*
%TD*%
D27*
%TO.P,C138,1*%
%TO.N,GND*%
X250075000Y-88277494D03*
%TO.P,C138,2*%
%TO.N,+BATT*%
X250075000Y-85327494D03*
%TD*%
D21*
%TO.P,Q18,1,D_1*%
%TO.N,/Motors/ESC3/PHASE_A*%
X244205000Y-107617506D03*
X244205000Y-108277506D03*
D22*
X243005000Y-108597506D03*
D21*
X244205000Y-108927506D03*
X244205000Y-109577506D03*
D23*
%TO.P,Q18,2,G_2*%
%TO.N,Net-(Q18-G)*%
X241145000Y-109577506D03*
%TO.P,Q18,3,S_3*%
%TO.N,GND*%
X241145000Y-107617506D03*
X241145000Y-108277506D03*
X241145000Y-108927506D03*
%TD*%
D24*
%TO.P,Q13,1,D_1*%
%TO.N,+BATT*%
X253585000Y-83912494D03*
X252925000Y-83912494D03*
D25*
X252605000Y-82712494D03*
D24*
X252275000Y-83912494D03*
X251625000Y-83912494D03*
D26*
%TO.P,Q13,2,G_2*%
%TO.N,Net-(Q13-G)*%
X251625000Y-80852494D03*
%TO.P,Q13,3,S_3*%
%TO.N,/Motors/ESC2/PHASE_B*%
X253585000Y-80852494D03*
X252925000Y-80852494D03*
X252275000Y-80852494D03*
%TD*%
D24*
%TO.P,Q11,1,D_1*%
%TO.N,+BATT*%
X248135000Y-83912494D03*
X247475000Y-83912494D03*
D25*
X247155000Y-82712494D03*
D24*
X246825000Y-83912494D03*
X246175000Y-83912494D03*
D26*
%TO.P,Q11,2,G_2*%
%TO.N,Net-(Q11-G)*%
X246175000Y-80852494D03*
%TO.P,Q11,3,S_3*%
%TO.N,/Motors/ESC2/PHASE_A*%
X248135000Y-80852494D03*
X247475000Y-80852494D03*
X246825000Y-80852494D03*
%TD*%
D24*
%TO.P,Q9,1,D_1*%
%TO.N,+BATT*%
X244110000Y-83910000D03*
X243450000Y-83910000D03*
D25*
X243130000Y-82710000D03*
D24*
X242800000Y-83910000D03*
X242150000Y-83910000D03*
D26*
%TO.P,Q9,2,G_2*%
%TO.N,Net-(Q9-G)*%
X242150000Y-80850000D03*
%TO.P,Q9,3,S_3*%
%TO.N,/Motors/ESC1/PHASE_C*%
X244110000Y-80850000D03*
X243450000Y-80850000D03*
X242800000Y-80850000D03*
%TD*%
D38*
%TO.P,U7,*%
%TO.N,*%
X261637500Y-89950000D03*
X261637500Y-82450000D03*
D39*
%TO.P,U7,1*%
%TO.N,N/C*%
X261337500Y-90700000D03*
%TO.P,U7,2*%
X263727500Y-90700000D03*
%TO.P,U7,3*%
X263727500Y-81700000D03*
%TO.P,U7,4*%
X261337500Y-81700000D03*
D40*
%TO.P,U7,A5,CC1_A5*%
%TO.N,Net-(U7-CC1)*%
X260787500Y-87450000D03*
%TO.P,U7,A6,DP1_A6*%
%TO.N,/MCU/USB_D+*%
X260787500Y-86450000D03*
%TO.P,U7,A7,DN1_A7*%
%TO.N,/MCU/USB_D-*%
X260787500Y-85950000D03*
%TO.P,U7,A8,SBU1_A8*%
%TO.N,unconnected-(U7-SBU1-PadA8)*%
X260787500Y-84950000D03*
D41*
%TO.P,U7,A9B4,VBUS_A9B4*%
%TO.N,+5V*%
X260787500Y-83800000D03*
%TO.P,U7,A12B1,GND_A12B1*%
%TO.N,GND*%
X260787500Y-83000000D03*
D40*
%TO.P,U7,B5,CC2_B5*%
%TO.N,Net-(U7-CC2)*%
X260787500Y-84450000D03*
%TO.P,U7,B6,DP2_B6*%
%TO.N,/MCU/USB_D+*%
X260787500Y-85450000D03*
%TO.P,U7,B7,DN2_B7*%
%TO.N,/MCU/USB_D-*%
X260787500Y-86950000D03*
%TO.P,U7,B8,SBU2_B8*%
%TO.N,unconnected-(U7-SBU2-PadB8)*%
X260787500Y-87950000D03*
D41*
%TO.P,U7,B9A4,VBUS_B9A4*%
%TO.N,+5V*%
X260787500Y-88600000D03*
%TO.P,U7,B12A1,GND_B12A1*%
%TO.N,GND*%
X260787500Y-89400000D03*
%TD*%
D42*
%TO.P,U15,1,D+_1*%
%TO.N,/MCU/USB_D+*%
X258600000Y-85850000D03*
%TO.P,U15,2,D-_2*%
%TO.N,/MCU/USB_D-*%
X258600000Y-86550000D03*
%TO.P,U15,3,GND_3*%
%TO.N,GND*%
X259450000Y-86200000D03*
%TD*%
D27*
%TO.P,C198,1*%
%TO.N,GND*%
X243500000Y-88275000D03*
%TO.P,C198,2*%
%TO.N,+BATT*%
X243500000Y-85325000D03*
%TD*%
D18*
%TO.P,R42,1*%
%TO.N,Net-(U17-RT)*%
X251800000Y-91180000D03*
%TO.P,R42,2*%
%TO.N,VBUS*%
X251800000Y-90540000D03*
%TD*%
D21*
%TO.P,Q22,1,D_1*%
%TO.N,/Motors/ESC3/PHASE_C*%
X236055000Y-107617506D03*
X236055000Y-108277506D03*
D22*
X234855000Y-108597506D03*
D21*
X236055000Y-108927506D03*
X236055000Y-109577506D03*
D23*
%TO.P,Q22,2,G_2*%
%TO.N,Net-(Q22-G)*%
X232995000Y-109577506D03*
%TO.P,Q22,3,S_3*%
%TO.N,GND*%
X232995000Y-107617506D03*
X232995000Y-108277506D03*
X232995000Y-108927506D03*
%TD*%
D24*
%TO.P,Q25,1,D_1*%
%TO.N,+BATT*%
X250015000Y-103587506D03*
X250675000Y-103587506D03*
D25*
X250995000Y-104787506D03*
D24*
X251325000Y-103587506D03*
X251975000Y-103587506D03*
D26*
%TO.P,Q25,2,G_2*%
%TO.N,Net-(Q25-G)*%
X251975000Y-106647506D03*
%TO.P,Q25,3,S_3*%
%TO.N,/Motors/ESC4/PHASE_B*%
X250015000Y-106647506D03*
X250675000Y-106647506D03*
X251325000Y-106647506D03*
%TD*%
D43*
%TO.P,C78,1*%
%TO.N,GND*%
X247625000Y-95800000D03*
%TO.P,C78,2*%
%TO.N,+3V3*%
X245725000Y-95800000D03*
%TD*%
D16*
%TO.P,R120,1*%
%TO.N,Net-(Q18-G)*%
X241075000Y-110657506D03*
%TO.P,R120,2*%
%TO.N,/Motors/ESC3/GLA*%
X241075000Y-111297506D03*
%TD*%
D44*
%TO.P,U17,1,RT_1*%
%TO.N,Net-(U17-RT)*%
X250900000Y-90760000D03*
%TO.P,U17,2,EN_2*%
%TO.N,unconnected-(U17-EN-Pad2)*%
X250400000Y-90760000D03*
%TO.P,U17,3,VIN_3*%
%TO.N,VBUS*%
X249900000Y-90760000D03*
%TO.P,U17,4,GND_4*%
%TO.N,GND*%
X249400000Y-90760000D03*
%TO.P,U17,5,SW_5*%
%TO.N,Net-(U17-SW)*%
X249400000Y-92240000D03*
%TO.P,U17,6,BST_6*%
%TO.N,Net-(U17-BST)*%
X249900000Y-92240000D03*
%TO.P,U17,7,SS_7*%
%TO.N,Net-(U17-SS)*%
X250400000Y-92240000D03*
%TO.P,U17,8,FB_8*%
%TO.N,Net-(U17-FB)*%
X250900000Y-92240000D03*
%TD*%
D16*
%TO.P,R145,1*%
%TO.N,Net-(Q24-G)*%
X254075000Y-110657506D03*
%TO.P,R145,2*%
%TO.N,/Motors/ESC4/GLA*%
X254075000Y-111297506D03*
%TD*%
D24*
%TO.P,Q19,1,D_1*%
%TO.N,+BATT*%
X237015000Y-103587506D03*
X237675000Y-103587506D03*
D25*
X237995000Y-104787506D03*
D24*
X238325000Y-103587506D03*
X238975000Y-103587506D03*
D26*
%TO.P,Q19,2,G_2*%
%TO.N,Net-(Q19-G)*%
X238975000Y-106647506D03*
%TO.P,Q19,3,S_3*%
%TO.N,/Motors/ESC3/PHASE_B*%
X237015000Y-106647506D03*
X237675000Y-106647506D03*
X238325000Y-106647506D03*
%TD*%
D11*
%TO.P,TP45,1,1_1*%
%TO.N,/Motors/ESC3/PHASE_B*%
X239025000Y-111597506D03*
%TD*%
D27*
%TO.P,C121,1*%
%TO.N,GND*%
X240300000Y-88275000D03*
%TO.P,C121,2*%
%TO.N,+BATT*%
X240300000Y-85325000D03*
%TD*%
D21*
%TO.P,Q12,1,D_1*%
%TO.N,/Motors/ESC2/PHASE_A*%
X246395000Y-79882494D03*
X246395000Y-79222494D03*
D22*
X247595000Y-78902494D03*
D21*
X246395000Y-78572494D03*
X246395000Y-77922494D03*
D23*
%TO.P,Q12,2,G_2*%
%TO.N,Net-(Q12-G)*%
X249455000Y-77922494D03*
%TO.P,Q12,3,S_3*%
%TO.N,GND*%
X249455000Y-79882494D03*
X249455000Y-79222494D03*
X249455000Y-78572494D03*
%TD*%
D27*
%TO.P,C145,1*%
%TO.N,GND*%
X253275000Y-88277494D03*
%TO.P,C145,2*%
%TO.N,+BATT*%
X253275000Y-85327494D03*
%TD*%
D21*
%TO.P,Q8,1,D_1*%
%TO.N,/Motors/ESC1/PHASE_B*%
X240560000Y-77920000D03*
X240560000Y-78580000D03*
D22*
X239360000Y-78900000D03*
D21*
X240560000Y-79230000D03*
X240560000Y-79880000D03*
D23*
%TO.P,Q8,2,G_2*%
%TO.N,Net-(Q8-G)*%
X237500000Y-79880000D03*
%TO.P,Q8,3,S_3*%
%TO.N,GND*%
X237500000Y-77920000D03*
X237500000Y-78580000D03*
X237500000Y-79230000D03*
%TD*%
D12*
%TO.P,TP22,1,1_1*%
%TO.N,/Motors/ESC1/PHASE_C*%
X242600000Y-75900000D03*
%TD*%
D24*
%TO.P,Q7,1,D_1*%
%TO.N,+BATT*%
X240610000Y-83910000D03*
X239950000Y-83910000D03*
D25*
X239630000Y-82710000D03*
D24*
X239300000Y-83910000D03*
X238650000Y-83910000D03*
D26*
%TO.P,Q7,2,G_2*%
%TO.N,Net-(Q7-G)*%
X238650000Y-80850000D03*
%TO.P,Q7,3,S_3*%
%TO.N,/Motors/ESC1/PHASE_B*%
X240610000Y-80850000D03*
X239950000Y-80850000D03*
X239300000Y-80850000D03*
%TD*%
D16*
%TO.P,R119,1*%
%TO.N,Net-(Q17-G)*%
X245125000Y-107097506D03*
%TO.P,R119,2*%
%TO.N,/Motors/ESC3/GHA*%
X245125000Y-107737506D03*
%TD*%
D20*
%TO.P,TP1,1,1_1*%
%TO.N,Net-(R3-Pad2)*%
X263000000Y-99100000D03*
%TD*%
D45*
%TO.P,R40,1*%
%TO.N,+3V3*%
X251790000Y-93330000D03*
%TO.P,R40,2*%
%TO.N,Net-(U17-FB)*%
X251150000Y-93330000D03*
%TD*%
D27*
%TO.P,C137,1*%
%TO.N,GND*%
X246875000Y-88277494D03*
%TO.P,C137,2*%
%TO.N,+BATT*%
X246875000Y-85327494D03*
%TD*%
D16*
%TO.P,R12,1*%
%TO.N,/MCU/FLASH_CS*%
X243300000Y-92660000D03*
%TO.P,R12,2*%
%TO.N,/MCU/VDD_FLASH*%
X243300000Y-93300000D03*
%TD*%
D27*
%TO.P,C114,1*%
%TO.N,GND*%
X237100000Y-88275000D03*
%TO.P,C114,2*%
%TO.N,+BATT*%
X237100000Y-85325000D03*
%TD*%
D18*
%TO.P,R69,1*%
%TO.N,Net-(Q5-G)*%
X232500000Y-80400000D03*
%TO.P,R69,2*%
%TO.N,/Motors/ESC1/GHA*%
X232500000Y-79760000D03*
%TD*%
D24*
%TO.P,Q27,1,D_1*%
%TO.N,+BATT*%
X246515000Y-103587506D03*
X247175000Y-103587506D03*
D25*
X247495000Y-104787506D03*
D24*
X247825000Y-103587506D03*
X248475000Y-103587506D03*
D26*
%TO.P,Q27,2,G_2*%
%TO.N,Net-(Q27-G)*%
X248475000Y-106647506D03*
%TO.P,Q27,3,S_3*%
%TO.N,/Motors/ESC4/PHASE_C*%
X246515000Y-106647506D03*
X247175000Y-106647506D03*
X247825000Y-106647506D03*
%TD*%
D12*
%TO.P,TP32,1,1_1*%
%TO.N,/Motors/ESC2/PHASE_A*%
X247475000Y-75902494D03*
%TD*%
D17*
%TO.P,C79,1*%
%TO.N,VBUS*%
X252950000Y-91000000D03*
%TO.P,C79,2*%
%TO.N,GND*%
X254850000Y-91000000D03*
%TD*%
D18*
%TO.P,C34,1*%
%TO.N,/MCU/VDD_FLASH*%
X243300000Y-97320000D03*
%TO.P,C34,2*%
%TO.N,GND*%
X243300000Y-96680000D03*
%TD*%
D21*
%TO.P,Q28,1,D_1*%
%TO.N,/Motors/ESC4/PHASE_C*%
X249055000Y-107617506D03*
X249055000Y-108277506D03*
D22*
X247855000Y-108597506D03*
D21*
X249055000Y-108927506D03*
X249055000Y-109577506D03*
D23*
%TO.P,Q28,2,G_2*%
%TO.N,Net-(Q28-G)*%
X245995000Y-109577506D03*
%TO.P,Q28,3,S_3*%
%TO.N,GND*%
X245995000Y-107617506D03*
X245995000Y-108277506D03*
X245995000Y-108927506D03*
%TD*%
D18*
%TO.P,R70,1*%
%TO.N,Net-(Q6-G)*%
X236550000Y-76840000D03*
%TO.P,R70,2*%
%TO.N,/Motors/ESC1/GLA*%
X236550000Y-76200000D03*
%TD*%
D43*
%TO.P,C77,1*%
%TO.N,GND*%
X247625000Y-93827500D03*
%TO.P,C77,2*%
%TO.N,+3V3*%
X245725000Y-93827500D03*
%TD*%
D16*
%TO.P,R144,1*%
%TO.N,Net-(Q23-G)*%
X258125000Y-107097506D03*
%TO.P,R144,2*%
%TO.N,/Motors/ESC4/GHA*%
X258125000Y-107737506D03*
%TD*%
D21*
%TO.P,Q6,1,D_1*%
%TO.N,/Motors/ESC1/PHASE_A*%
X233420000Y-79880000D03*
X233420000Y-79220000D03*
D22*
X234620000Y-78900000D03*
D21*
X233420000Y-78570000D03*
X233420000Y-77920000D03*
D23*
%TO.P,Q6,2,G_2*%
%TO.N,Net-(Q6-G)*%
X236480000Y-77920000D03*
%TO.P,Q6,3,S_3*%
%TO.N,GND*%
X236480000Y-79880000D03*
X236480000Y-79220000D03*
X236480000Y-78570000D03*
%TD*%
D21*
%TO.P,Q16,1,D_1*%
%TO.N,/Motors/ESC2/PHASE_C*%
X254545000Y-79882494D03*
X254545000Y-79222494D03*
D22*
X255745000Y-78902494D03*
D21*
X254545000Y-78572494D03*
X254545000Y-77922494D03*
D23*
%TO.P,Q16,2,G_2*%
%TO.N,Net-(Q16-G)*%
X257605000Y-77922494D03*
%TO.P,Q16,3,S_3*%
%TO.N,GND*%
X257605000Y-79882494D03*
X257605000Y-79222494D03*
X257605000Y-78572494D03*
%TD*%
D24*
%TO.P,Q15,1,D_1*%
%TO.N,+BATT*%
X257085000Y-83912494D03*
X256425000Y-83912494D03*
D25*
X256105000Y-82712494D03*
D24*
X255775000Y-83912494D03*
X255125000Y-83912494D03*
D26*
%TO.P,Q15,2,G_2*%
%TO.N,Net-(Q15-G)*%
X255125000Y-80852494D03*
%TO.P,Q15,3,S_3*%
%TO.N,/Motors/ESC2/PHASE_C*%
X257085000Y-80852494D03*
X256425000Y-80852494D03*
X255775000Y-80852494D03*
%TD*%
D19*
%TO.P,C61,1*%
%TO.N,+3V3*%
X257860000Y-95300000D03*
%TO.P,C61,2*%
%TO.N,GND*%
X258500000Y-95300000D03*
%TD*%
D45*
%TO.P,R43,1*%
%TO.N,Net-(U8-OUT)*%
X259520000Y-92500000D03*
%TO.P,R43,2*%
%TO.N,BAT_ISENSE*%
X258880000Y-92500000D03*
%TD*%
D46*
%TO.N,GND*%
X260787500Y-83000000D03*
X231246914Y-84146914D03*
X241475000Y-108947506D03*
D47*
X263300000Y-105000000D03*
D46*
X255165254Y-90432090D03*
X250475000Y-79002494D03*
X257825000Y-79902494D03*
D47*
X262700000Y-105000000D03*
X262700000Y-103200000D03*
D46*
X253125000Y-109747506D03*
X233225000Y-108047506D03*
X259700000Y-85020000D03*
X244735002Y-84300000D03*
X237050000Y-78550000D03*
D47*
X263900000Y-102600000D03*
D46*
X240125000Y-108497506D03*
X256473402Y-92694832D03*
X247500000Y-88175000D03*
X232644998Y-79035772D03*
X245775000Y-107597506D03*
X257375000Y-79002494D03*
X253125000Y-108947506D03*
X237050000Y-79000000D03*
X233225000Y-108947506D03*
X241025000Y-108947506D03*
X228500000Y-89150000D03*
X251338379Y-88489672D03*
X257825000Y-79452494D03*
X237500000Y-78550000D03*
X230144897Y-88451446D03*
X229073726Y-96898726D03*
X260832201Y-89487675D03*
X232775000Y-108497506D03*
X241475000Y-108497506D03*
D47*
X263900000Y-103200000D03*
D46*
X239900000Y-109347506D03*
D47*
X263900000Y-103800000D03*
X263900000Y-105600000D03*
D46*
X244855002Y-82500000D03*
D47*
X262700000Y-104400000D03*
D46*
X232775000Y-108947506D03*
X257830002Y-82502494D03*
X240575000Y-108947506D03*
X245775000Y-108047506D03*
X237500000Y-79000000D03*
X236150000Y-78550000D03*
X253350000Y-109347506D03*
X249125000Y-78552494D03*
X240125000Y-109747506D03*
X246225000Y-108947506D03*
X250700000Y-78152494D03*
X250025000Y-79002494D03*
X249575000Y-78552494D03*
X244850000Y-79900000D03*
D47*
X262100000Y-102600000D03*
X262100000Y-105000000D03*
D46*
X257375000Y-78552494D03*
X253247452Y-86374946D03*
X232775000Y-108047506D03*
X246225000Y-108497506D03*
X229777746Y-86577746D03*
X259700000Y-88020000D03*
X259450000Y-86200000D03*
X244400000Y-79450000D03*
X232769998Y-104997506D03*
X257375000Y-79452494D03*
X241252548Y-90447452D03*
D47*
X263900000Y-104400000D03*
D46*
X253575000Y-108947506D03*
X237500000Y-77750000D03*
X245769998Y-104997506D03*
D47*
X262100000Y-103200000D03*
D46*
X237275000Y-78150000D03*
X257980002Y-108461734D03*
X240125000Y-108947506D03*
X259100000Y-112222506D03*
X245889998Y-103197506D03*
X245775000Y-108947506D03*
D47*
X262700000Y-102600000D03*
D46*
X241025000Y-108497506D03*
X253575000Y-108497506D03*
X244400000Y-79000000D03*
D47*
X262100000Y-103800000D03*
D46*
X252900000Y-109347506D03*
X237352548Y-101125054D03*
X254475000Y-108947506D03*
X236600000Y-78550000D03*
X246225000Y-108047506D03*
X257825000Y-78552494D03*
X240272452Y-86372452D03*
X249575000Y-79452494D03*
X250475000Y-78552494D03*
X238350001Y-86110202D03*
X250025000Y-78552494D03*
X239274999Y-101387304D03*
X237899701Y-87100299D03*
X244400000Y-78550000D03*
X254025000Y-108947506D03*
D47*
X262100000Y-105600000D03*
D46*
X245500000Y-87850000D03*
X244850000Y-79000000D03*
X245619998Y-79038266D03*
X246625000Y-88625000D03*
X254025000Y-108047506D03*
X251325001Y-86112696D03*
X231525000Y-75275000D03*
X249575000Y-79002494D03*
D47*
X263300000Y-105600000D03*
D46*
X246100000Y-112222506D03*
X252274999Y-101387304D03*
D47*
X262700000Y-105600000D03*
D46*
X246600000Y-87925000D03*
X256300000Y-88100000D03*
D47*
X263300000Y-102600000D03*
D46*
X242588871Y-99664010D03*
X257359442Y-96482765D03*
D47*
X263300000Y-103200000D03*
D46*
X240575000Y-108497506D03*
X226822489Y-94777511D03*
D47*
X262100000Y-104400000D03*
D46*
X245775000Y-108497506D03*
X239973229Y-89209180D03*
D47*
X263900000Y-105000000D03*
D46*
X254025000Y-108497506D03*
X232454998Y-82900000D03*
X227139411Y-98739411D03*
X232775000Y-107597506D03*
X244850000Y-79450000D03*
D47*
X262700000Y-103800000D03*
D46*
X233225000Y-108497506D03*
X249125000Y-79002494D03*
X238718032Y-96483002D03*
X236600000Y-79000000D03*
X240350000Y-109347506D03*
X236600000Y-79450000D03*
X244170297Y-96475576D03*
X257825000Y-79002494D03*
X236150000Y-79000000D03*
X257710002Y-84302494D03*
X255860653Y-91009483D03*
X250250000Y-78152494D03*
X250475000Y-77752494D03*
X258626542Y-93759027D03*
X232889998Y-103197506D03*
X229673726Y-99126274D03*
X244850000Y-78550000D03*
X253125000Y-108497506D03*
X254475000Y-108497506D03*
X241025000Y-108047506D03*
X244980002Y-108461734D03*
X257389105Y-88943630D03*
X237725000Y-78150000D03*
X244500000Y-75277494D03*
D47*
X263300000Y-103800000D03*
D46*
X257808066Y-91172784D03*
D47*
X263300000Y-104400000D03*
D46*
%TO.N,+BATT*%
X257821010Y-110143520D03*
X264100000Y-93600000D03*
X250246120Y-104406202D03*
X264100000Y-93150000D03*
X239450865Y-83049106D03*
X250047872Y-105347506D03*
X264100000Y-92700000D03*
X252875000Y-83102494D03*
X250725000Y-104397506D03*
X250418830Y-105851233D03*
X263650000Y-93150000D03*
X240378880Y-83091304D03*
X249925000Y-105847504D03*
X250775000Y-104897506D03*
X239705835Y-81683395D03*
X240350000Y-82600000D03*
X240700000Y-81650002D03*
X236925000Y-105847504D03*
X262750000Y-93150000D03*
X252680835Y-81685889D03*
X237418830Y-105851233D03*
X262300000Y-93150000D03*
X240100000Y-82150000D03*
X238025000Y-105347506D03*
X239850000Y-82600000D03*
X262750000Y-93600000D03*
X262300000Y-92700000D03*
X238275000Y-104897506D03*
X263200000Y-92700000D03*
X252575000Y-82152494D03*
X261850000Y-93150000D03*
X253075000Y-82152494D03*
X253325000Y-82602494D03*
X239350000Y-82600000D03*
X237775000Y-104897506D03*
X244821010Y-110143520D03*
X251174135Y-104448400D03*
X250919165Y-105814111D03*
X261850000Y-92700000D03*
X253675000Y-81652496D03*
X263200000Y-93150000D03*
X237725000Y-104397506D03*
X262300000Y-93600000D03*
X250275000Y-104897506D03*
X261850000Y-93600000D03*
X237275000Y-104897506D03*
X245778990Y-77356480D03*
X262750000Y-92700000D03*
X252325000Y-82602494D03*
X232803990Y-77353986D03*
X253181170Y-81648767D03*
X253353880Y-83093798D03*
X251025000Y-105347506D03*
X250525000Y-105347506D03*
X263650000Y-92700000D03*
X239600000Y-82150000D03*
X239900000Y-83100000D03*
X252425865Y-83051600D03*
X253552128Y-82152494D03*
X240577128Y-82150000D03*
X237246120Y-104406202D03*
X251275000Y-104897506D03*
X238174135Y-104448400D03*
X240206170Y-81646273D03*
X263650000Y-93600000D03*
X252825000Y-82602494D03*
X237047872Y-105347506D03*
X263200000Y-93600000D03*
X237919165Y-105814111D03*
X237525000Y-105347506D03*
D47*
%TO.N,/Motors/ESC4/PHASE_B*%
X251924732Y-111747238D03*
D46*
X245803229Y-106436432D03*
X253306407Y-112527370D03*
X253026337Y-112901301D03*
X250051118Y-106655856D03*
X252069389Y-112860630D03*
X253187580Y-112038050D03*
%TO.N,/Motors/ESC1/PHASE_A*%
X234100000Y-74800000D03*
X234542231Y-75256644D03*
X234784372Y-81131850D03*
X234074999Y-75275000D03*
X235000000Y-74800000D03*
X233713541Y-76346753D03*
X237026041Y-84200000D03*
X235450000Y-74750000D03*
X233250000Y-76500000D03*
X235893826Y-74846376D03*
X234550000Y-74800000D03*
%TO.N,UART_RX*%
X228778542Y-95262524D03*
%TO.N,/Motors/ESC1/PHASE_B*%
X237598663Y-74596205D03*
X237318593Y-74970136D03*
X240573882Y-80841650D03*
X244821771Y-81061074D03*
X238555611Y-74636876D03*
X237437420Y-75459456D03*
D47*
X238700268Y-75750268D03*
D46*
%TO.N,+3V3*%
X232769998Y-103998400D03*
X245078353Y-106414462D03*
X256758759Y-89227494D03*
X226851992Y-91200000D03*
X245769998Y-103998400D03*
X230126274Y-98673726D03*
X244855002Y-83499106D03*
X231148536Y-87462628D03*
X258524013Y-91835695D03*
X249225000Y-83252494D03*
X227623726Y-96726274D03*
X227025037Y-94074963D03*
X258078353Y-106414462D03*
X237146166Y-86353834D03*
X241375000Y-104247506D03*
X236250000Y-83250000D03*
X254375000Y-104247506D03*
X232546647Y-81083044D03*
X244276363Y-97960500D03*
X232904208Y-86325000D03*
X240597750Y-90883145D03*
X245521647Y-81085538D03*
X245105545Y-91591404D03*
X242388111Y-97614526D03*
X238634859Y-87494451D03*
X257830002Y-83501600D03*
X228952548Y-89602548D03*
%TO.N,I2C_SCL*%
X236953882Y-87066648D03*
%TO.N,I2C_SDA*%
X236458908Y-86571673D03*
%TO.N,/Motors/ESC2/GHA*%
X249349998Y-75603198D03*
X245475000Y-79782494D03*
%TO.N,/Motors/ESC4/PHASE_C*%
X249125000Y-110797506D03*
X248625000Y-112797506D03*
X248625000Y-111297506D03*
X247625000Y-112797506D03*
X248125000Y-112797506D03*
X247625000Y-112297506D03*
X248125000Y-112297506D03*
X248625000Y-111797506D03*
X248725000Y-108497506D03*
X248625000Y-112297506D03*
X248125000Y-111797506D03*
X249125000Y-111297506D03*
%TO.N,/Motors/ESC2/PHASE_B*%
X250573663Y-74598699D03*
X253548882Y-80844144D03*
X251530611Y-74639370D03*
X257796771Y-81063568D03*
X250293593Y-74972630D03*
X250412420Y-75461950D03*
D47*
X251675268Y-75752762D03*
D46*
%TO.N,Net-(Q14-G)*%
X253861291Y-74527496D03*
X249978984Y-80633004D03*
%TO.N,/Motors/ESC3/PHASE_A*%
X242175000Y-112747506D03*
X244375000Y-110997506D03*
X241731174Y-112651130D03*
X240598959Y-103297506D03*
X242840628Y-106365656D03*
X242625000Y-112697506D03*
X243525000Y-112697506D03*
X243075000Y-112697506D03*
X243550001Y-112222506D03*
X243911459Y-111150753D03*
X243082769Y-112240862D03*
%TO.N,/Motors/ESC1/PHASE_C*%
X242000000Y-76200000D03*
X241900000Y-79000000D03*
X243000000Y-75200000D03*
X242000000Y-74700000D03*
X242000000Y-75700000D03*
X241500000Y-76700000D03*
X242500000Y-75200000D03*
X241500000Y-76200000D03*
X242500000Y-74700000D03*
X242000000Y-75200000D03*
X242500000Y-75700000D03*
X243000000Y-74700000D03*
%TO.N,Net-(Q10-G)*%
X244475000Y-76700018D03*
D47*
%TO.N,/Motors/ESC3/PHASE_B*%
X238924732Y-111747238D03*
D46*
X240026337Y-112901301D03*
X237051118Y-106655856D03*
X239069389Y-112860630D03*
X240306407Y-112527370D03*
X240187580Y-112038050D03*
X232803229Y-106436432D03*
%TO.N,Net-(Q20-G)*%
X240621016Y-106866996D03*
X236738709Y-112972504D03*
%TO.N,/Motors/ESC4/PHASE_A*%
X255840628Y-106365656D03*
X253598959Y-103297506D03*
X255625000Y-112697506D03*
X256075000Y-112697506D03*
X256082769Y-112240862D03*
X254731174Y-112651130D03*
X257375000Y-110997506D03*
X256525000Y-112697506D03*
X256550001Y-112222506D03*
X256911459Y-111150753D03*
X255175000Y-112747506D03*
%TO.N,UART_TX*%
X229247652Y-95960140D03*
%TO.N,Net-(Q26-G)*%
X253621016Y-106866996D03*
X249738709Y-112972504D03*
%TO.N,/Motors/ESC2/GLA*%
X249700000Y-75115860D03*
%TO.N,/MCU/FLASH_CS*%
X242313623Y-92203383D03*
%TO.N,/MCU/FLASH_Q*%
X242900000Y-92000000D03*
%TO.N,/MCU/FLASH_WP*%
X239550000Y-92250000D03*
%TO.N,/MCU/FLASH_D*%
X237630000Y-95285256D03*
%TO.N,/MCU/FLASH_CLK*%
X239577208Y-96957448D03*
%TO.N,/MCU/FLASH_HD*%
X240800000Y-97200000D03*
%TO.N,/Motors/ESC3/PHASE_C*%
X235625000Y-111297506D03*
X235125000Y-112797506D03*
X235625000Y-111797506D03*
X235125000Y-111797506D03*
X235625000Y-112297506D03*
X234625000Y-112297506D03*
X236125000Y-111297506D03*
X234625000Y-112797506D03*
X236125000Y-110797506D03*
X235125000Y-112297506D03*
X235725000Y-108497506D03*
X235625000Y-112797506D03*
%TO.N,Net-(Q21-G)*%
X236266568Y-105878377D03*
X237054134Y-110207605D03*
%TO.N,CSI_DATA0N*%
X237800000Y-97800000D03*
%TO.N,CSI_DATA0P*%
X237200000Y-97850000D03*
%TO.N,CSI_DATA1N*%
X236618726Y-98264282D03*
%TO.N,CSI_DATA1P*%
X235146586Y-97847806D03*
%TO.N,CSI_CLKN*%
X235750431Y-97249568D03*
%TO.N,CSI_CLKP*%
X236174695Y-96825304D03*
%TO.N,/Motors/ESC2/PHASE_C*%
X254975000Y-75702494D03*
X255975000Y-74702494D03*
X255475000Y-75702494D03*
X255975000Y-75202494D03*
X254975000Y-76202494D03*
X254975000Y-74702494D03*
X255475000Y-75202494D03*
X254475000Y-76702494D03*
X254875000Y-79002494D03*
X254975000Y-75202494D03*
X254475000Y-76202494D03*
X255475000Y-74702494D03*
D47*
%TO.N,Net-(R3-Pad2)*%
X262700000Y-97600000D03*
X262700000Y-100000000D03*
D46*
X262700000Y-94800000D03*
X264050000Y-94800000D03*
D47*
X263300000Y-98200000D03*
D46*
X263600000Y-95700000D03*
X262700000Y-95700000D03*
D47*
X262100000Y-100600000D03*
X262700000Y-98800000D03*
X262700000Y-100600000D03*
D46*
X263600000Y-94800000D03*
X264050000Y-95250000D03*
D47*
X263300000Y-97600000D03*
X262700000Y-99400000D03*
X262700000Y-98200000D03*
X263900000Y-97600000D03*
X263300000Y-100000000D03*
D46*
X263150000Y-95700000D03*
D47*
X262100000Y-98800000D03*
D46*
X263600000Y-95250000D03*
X261800000Y-94800000D03*
X261800000Y-95700000D03*
X263150000Y-95250000D03*
D47*
X263900000Y-100600000D03*
X263900000Y-100000000D03*
D46*
X263150000Y-94800000D03*
D47*
X262100000Y-100000000D03*
X263300000Y-99400000D03*
D46*
X261800000Y-95250000D03*
D47*
X262100000Y-97600000D03*
D46*
X262250000Y-95700000D03*
D47*
X263900000Y-98200000D03*
X262100000Y-99400000D03*
X263900000Y-99400000D03*
D46*
X262250000Y-94800000D03*
X264050000Y-95700000D03*
X262250000Y-95250000D03*
D47*
X263300000Y-98800000D03*
X262100000Y-98200000D03*
X263300000Y-100600000D03*
X263900000Y-98800000D03*
D46*
X262700000Y-95250000D03*
%TO.N,Net-(Q13-G)*%
X250034314Y-81230450D03*
X253261289Y-74527495D03*
%TO.N,/Motors/ESC2/PHASE_A*%
X247759372Y-81134344D03*
X247525000Y-74802494D03*
X250001041Y-84202494D03*
X246225000Y-76502494D03*
X248425000Y-74752494D03*
X247975000Y-74802494D03*
X247517231Y-75259138D03*
X247075000Y-74802494D03*
X248868826Y-74848870D03*
X246688541Y-76349247D03*
X247049999Y-75277494D03*
%TO.N,Net-(Q9-G)*%
X241358432Y-81619129D03*
X240570866Y-77289901D03*
%TO.N,/MCU/USB_D+*%
X233965813Y-100300000D03*
X244255545Y-94155545D03*
%TO.N,/MCU/USB_D-*%
X234515813Y-100300000D03*
X244644455Y-94544455D03*
%TO.N,Net-(Q22-G)*%
X233150000Y-110797488D03*
%TO.N,Net-(Q25-G)*%
X250338711Y-112972505D03*
X253565686Y-106269550D03*
%TO.N,/Motors/ESC3/GLA*%
X240900000Y-112384140D03*
%TO.N,/Motors/ESC4/GLA*%
X253900000Y-112384140D03*
%TO.N,Net-(Q19-G)*%
X237338711Y-112972505D03*
X240565686Y-106269550D03*
%TO.N,Net-(Q8-G)*%
X240886291Y-74525002D03*
X237003984Y-80630510D03*
%TO.N,Net-(Q7-G)*%
X240286289Y-74525001D03*
X237059314Y-81227956D03*
%TO.N,/Motors/ESC3/GHA*%
X245125000Y-107717506D03*
X241250002Y-111896802D03*
%TO.N,/Motors/ESC1/GHA*%
X236374998Y-75600704D03*
X232500000Y-79780000D03*
%TO.N,Net-(Q27-G)*%
X250054134Y-110207605D03*
X249266568Y-105878377D03*
%TO.N,Net-(Q28-G)*%
X246150000Y-110797488D03*
%TO.N,/Motors/ESC1/GLA*%
X236725000Y-75113366D03*
%TO.N,/Motors/ESC4/GHA*%
X254250002Y-111896802D03*
X258125000Y-107717506D03*
%TO.N,Net-(Q16-G)*%
X257450000Y-76702512D03*
%TO.N,Net-(Q15-G)*%
X254333432Y-81621623D03*
X253545866Y-77292395D03*
%TO.N,VDDO_4*%
X226460589Y-98060589D03*
X236979328Y-89745696D03*
X249681739Y-89275000D03*
%TO.N,CP_SDIO_D3*%
X249526078Y-97068288D03*
X229199657Y-100861790D03*
%TO.N,/Motors/ESC4/VSENSE_REF*%
X245939999Y-107020636D03*
X249269998Y-104758193D03*
%TO.N,CP_SDIO_D2*%
X249034638Y-96569777D03*
X229271911Y-99842124D03*
%TO.N,/Motors/ESC2/NRST*%
X257875000Y-77347492D03*
X254363386Y-83340880D03*
%TO.N,/Motors/ESC2/VSENSE_REF*%
X257660001Y-80479364D03*
X254330002Y-82741807D03*
%TO.N,/MCU/VDDO_3*%
X227110589Y-97410589D03*
%TO.N,VDD_HP*%
X230500000Y-103000000D03*
X229694177Y-88905823D03*
X241414005Y-91410395D03*
X233198008Y-100701992D03*
X230500000Y-103600000D03*
X227523298Y-94573223D03*
%TO.N,CP_SDIO_D1*%
X250673726Y-100226274D03*
X232647749Y-100047117D03*
%TO.N,/Motors/ESC1/VSENSE_REF*%
X241355002Y-82739313D03*
X244685001Y-80476870D03*
%TO.N,CP_EN*%
X254000000Y-100172506D03*
X255716797Y-98114804D03*
%TO.N,CP_SDIO_D0*%
X249126274Y-100373726D03*
X232268719Y-100592100D03*
%TO.N,CP_SDIO_CLK*%
X230182786Y-101599773D03*
X250286217Y-98146625D03*
%TO.N,CP_SDIO_CMD*%
X250017517Y-97566797D03*
X229654082Y-101253577D03*
%TO.N,FB_DCDC*%
X227611686Y-93105976D03*
%TO.N,EN_DCDC*%
X227545659Y-92509619D03*
%TO.N,/Motors/ESC3/NRST*%
X236236614Y-104159120D03*
X232725000Y-110152508D03*
%TO.N,/Motors/ESC3/VSENSE_REF*%
X232939999Y-107020636D03*
X236269998Y-104758193D03*
%TO.N,Net-(J4-Pin_6)*%
X253590525Y-99232354D03*
%TO.N,Net-(J4-Pin_3)*%
X253457026Y-98647391D03*
%TO.N,Net-(J4-Pin_4)*%
X252862023Y-98570096D03*
%TO.N,Net-(J4-Pin_5)*%
X252971995Y-99159934D03*
%TO.N,/Motors/ESC4/NRST*%
X249236614Y-104159120D03*
X245725000Y-110152508D03*
%TO.N,/Motors/ESC1/NRST*%
X244900000Y-77344998D03*
X241388386Y-83338386D03*
%TD*%
%TO.N,GND*%
D48*
X241020000Y-94400000D02*
X240155000Y-94400000D01*
X243300000Y-96680000D02*
X241020000Y-94400000D01*
D49*
X247625000Y-93827500D02*
X247625000Y-95800000D01*
D50*
X255850000Y-96602500D02*
X256215000Y-96602500D01*
X253550000Y-95602500D02*
X253270000Y-95322500D01*
X256215000Y-96602500D02*
X256450000Y-96367500D01*
X253290000Y-97362500D02*
X252850000Y-97362500D01*
X253550000Y-97102500D02*
X253290000Y-97362500D01*
X253270000Y-95322500D02*
X252850000Y-95322500D01*
D48*
X257650000Y-93250000D02*
X257650000Y-93900000D01*
D50*
X255850000Y-97102500D02*
X255850000Y-96102500D01*
%TO.N,VBUS*%
X250174350Y-90175000D02*
X249900000Y-90449350D01*
D51*
X254350000Y-94500000D02*
X252950000Y-93100000D01*
X254350000Y-95672500D02*
X254350000Y-97022500D01*
D50*
X251435000Y-90175000D02*
X250174350Y-90175000D01*
D51*
X254350000Y-95672500D02*
X254350000Y-94500000D01*
D50*
X249900000Y-90449350D02*
X249900000Y-90760000D01*
X251800000Y-90540000D02*
X251435000Y-90175000D01*
%TO.N,Net-(U9-PR1)*%
X255975000Y-95727500D02*
X255850000Y-95602500D01*
X256450000Y-95727500D02*
X255975000Y-95727500D01*
X255850000Y-95162500D02*
X255690000Y-95002500D01*
X255850000Y-95602500D02*
X255850000Y-95162500D01*
%TO.N,+5V*%
D51*
X260687500Y-88700000D02*
X259396966Y-88700000D01*
X255050000Y-94702622D02*
X255050000Y-95002500D01*
X255800000Y-92296966D02*
X255800000Y-93952622D01*
X260787500Y-83800000D02*
X261887500Y-83800000D01*
X261987500Y-83900000D02*
X261987500Y-88300000D01*
X255800000Y-93952622D02*
X255050000Y-94702622D01*
X261887500Y-83800000D02*
X261987500Y-83900000D01*
X260787500Y-88600000D02*
X260687500Y-88700000D01*
X259396966Y-88700000D02*
X255800000Y-92296966D01*
X261687500Y-88600000D02*
X260787500Y-88600000D01*
X261987500Y-88300000D02*
X261687500Y-88600000D01*
X255050000Y-95002500D02*
X255050000Y-95672500D01*
%TO.N,Net-(U9-ILM)*%
D50*
X253550000Y-96102500D02*
X252990000Y-96102500D01*
X252990000Y-96102500D02*
X252850000Y-95962500D01*
%TO.N,Net-(U9-SS)*%
X252970000Y-96602500D02*
X252850000Y-96722500D01*
X253550000Y-96602500D02*
X252970000Y-96602500D01*
%TO.N,Net-(U7-CC1)*%
X260787500Y-87450000D02*
X259770000Y-87450000D01*
X259770000Y-87450000D02*
X259700000Y-87380000D01*
%TO.N,+3V3*%
D48*
X257650000Y-94550000D02*
X257650000Y-95090000D01*
D49*
X245825000Y-93802500D02*
X245800000Y-93827500D01*
X245725000Y-93827500D02*
X245725000Y-95800000D01*
D48*
X257650000Y-95090000D02*
X257860000Y-95300000D01*
D49*
X245825000Y-91477500D02*
X245825000Y-93802500D01*
%TO.N,Net-(Q11-G)*%
D52*
X246175000Y-80852494D02*
X245925000Y-80852494D01*
X245925000Y-80852494D02*
X245475000Y-80402494D01*
%TO.N,/Motors/ESC2/GHA*%
X245475000Y-79762494D02*
X245475000Y-79782494D01*
%TO.N,Net-(Q14-G)*%
X249978984Y-80633004D02*
X250269488Y-80633004D01*
X250475000Y-80427492D02*
X250475000Y-79882494D01*
X250269488Y-80633004D02*
X250475000Y-80427492D01*
%TO.N,Net-(Q17-G)*%
X244425000Y-106647506D02*
X244675000Y-106647506D01*
X244675000Y-106647506D02*
X245125000Y-107097506D01*
%TO.N,Net-(U17-SS)*%
D48*
X250400000Y-92621360D02*
X250620000Y-92841360D01*
X250400000Y-92240000D02*
X250400000Y-92621360D01*
X250620000Y-93970000D02*
X250730000Y-94080000D01*
X250620000Y-92841360D02*
X250620000Y-93970000D01*
%TO.N,Net-(Q5-G)*%
D52*
X232950000Y-80850000D02*
X232500000Y-80400000D01*
X233200000Y-80850000D02*
X232950000Y-80850000D01*
%TO.N,Net-(U17-FB)*%
D48*
X251150000Y-92490000D02*
X250900000Y-92240000D01*
X251150000Y-93330000D02*
X251150000Y-92490000D01*
X250900000Y-92240000D02*
X251240000Y-92580000D01*
X251240000Y-92580000D02*
X251800000Y-92580000D01*
%TO.N,Net-(Q10-G)*%
D50*
X244475000Y-76700018D02*
X244425000Y-76750018D01*
X244425000Y-76750018D02*
X244425000Y-77715000D01*
%TO.N,Net-(Q20-G)*%
D52*
X240621016Y-106866996D02*
X240330512Y-106866996D01*
X240330512Y-106866996D02*
X240125000Y-107072508D01*
X240125000Y-107072508D02*
X240125000Y-107617506D01*
%TO.N,Net-(U7-CC2)*%
D50*
X259770000Y-84450000D02*
X259700000Y-84380000D01*
X260787500Y-84450000D02*
X259770000Y-84450000D01*
%TO.N,Net-(Q26-G)*%
D52*
X253621016Y-106866996D02*
X253330512Y-106866996D01*
X253125000Y-107072508D02*
X253125000Y-107617506D01*
X253330512Y-106866996D02*
X253125000Y-107072508D01*
%TO.N,Net-(Q12-G)*%
X249455000Y-76912494D02*
X249525000Y-76842494D01*
X249455000Y-77922494D02*
X249455000Y-76912494D01*
%TO.N,/Motors/ESC2/GLA*%
X249799998Y-75215858D02*
X249799998Y-75927496D01*
X249700000Y-75115860D02*
X249799998Y-75215858D01*
X249799998Y-75927496D02*
X249525000Y-76202494D01*
%TO.N,Net-(Q23-G)*%
X257675000Y-106647506D02*
X258125000Y-107097506D01*
X257425000Y-106647506D02*
X257675000Y-106647506D01*
%TO.N,Net-(Q24-G)*%
X254145000Y-109577506D02*
X254145000Y-110587506D01*
X254145000Y-110587506D02*
X254075000Y-110657506D01*
%TO.N,/MCU/FLASH_CS*%
D50*
X242313623Y-91953623D02*
X242060000Y-91700000D01*
X242770240Y-92660000D02*
X242313623Y-92203383D01*
X243300000Y-92660000D02*
X242770240Y-92660000D01*
X242313623Y-92203383D02*
X242313623Y-91953623D01*
%TO.N,/MCU/FLASH_Q*%
X242204189Y-90935395D02*
X241217253Y-90935395D01*
X242900000Y-91631206D02*
X242204189Y-90935395D01*
X241217253Y-90935395D02*
X240790000Y-91362648D01*
X242900000Y-92000000D02*
X242900000Y-91631206D01*
X240790000Y-91362648D02*
X240790000Y-91700000D01*
%TO.N,/MCU/FLASH_WP*%
D48*
X239550000Y-91730000D02*
X239520000Y-91700000D01*
X239550000Y-92250000D02*
X239550000Y-91730000D01*
%TO.N,/MCU/FLASH_D*%
D50*
X237630000Y-96155000D02*
X238250000Y-96775000D01*
X238250000Y-96775000D02*
X238250000Y-97100000D01*
X237630000Y-95285256D02*
X237630000Y-96155000D01*
%TO.N,/MCU/FLASH_CLK*%
X239577208Y-96957448D02*
X239577208Y-97042792D01*
X239577208Y-97042792D02*
X239520000Y-97100000D01*
%TO.N,/MCU/FLASH_HD*%
X240790000Y-97190000D02*
X240790000Y-97100000D01*
X240800000Y-97200000D02*
X240790000Y-97190000D01*
%TO.N,/MCU/VDD_FLASH*%
X243499999Y-97320000D02*
X243300000Y-97320000D01*
D48*
X242280000Y-97320000D02*
X243300000Y-97320000D01*
D50*
X243750000Y-97069999D02*
X243499999Y-97320000D01*
D48*
X242060000Y-97100000D02*
X242280000Y-97320000D01*
D50*
X243750000Y-93750000D02*
X243750000Y-97069999D01*
X243300000Y-93300000D02*
X243750000Y-93750000D01*
%TO.N,Net-(U8-IN+)*%
X259925789Y-94550000D02*
X260658289Y-95282500D01*
X259550000Y-94550000D02*
X259925789Y-94550000D01*
%TO.N,Net-(U8-IN-)*%
X259940789Y-93900000D02*
X260658289Y-93182500D01*
X259550000Y-93900000D02*
X259940789Y-93900000D01*
%TO.N,Net-(U8-OUT)*%
X259520000Y-93220000D02*
X259550000Y-93250000D01*
X259520000Y-92500000D02*
X259520000Y-93220000D01*
%TO.N,Net-(U17-BST)*%
D48*
X249900000Y-92240000D02*
X249900000Y-93340000D01*
%TO.N,Net-(U17-SW)*%
D51*
X248940000Y-93340000D02*
X248940000Y-92650000D01*
X249350000Y-91855000D02*
X249350000Y-92240000D01*
X247975000Y-90480000D02*
X249350000Y-91855000D01*
X248940000Y-92650000D02*
X249350000Y-92240000D01*
%TO.N,Net-(Q21-G)*%
D52*
X235497439Y-106647506D02*
X236266568Y-105878377D01*
X235475000Y-106647506D02*
X235497439Y-106647506D01*
%TO.N,CSI_DATA0N*%
D53*
X237750000Y-97800000D02*
X237625000Y-97675000D01*
X237205000Y-94655000D02*
X237204020Y-94654020D01*
X237204020Y-91504020D02*
X235550000Y-89850000D01*
X237205000Y-96154264D02*
X237205000Y-94655000D01*
X237650000Y-96599264D02*
X237205000Y-96154264D01*
X232400000Y-89850000D02*
X231650000Y-89100000D01*
X231650000Y-89100000D02*
X231212500Y-89100000D01*
X237204020Y-94654020D02*
X237204020Y-91504020D01*
X235550000Y-89850000D02*
X232400000Y-89850000D01*
X237800000Y-97800000D02*
X237650000Y-97650000D01*
X237650000Y-97650000D02*
X237650000Y-96599264D01*
X237800000Y-97800000D02*
X237750000Y-97800000D01*
%TO.N,CSI_DATA0P*%
X236954020Y-96258224D02*
X236954020Y-93379502D01*
X234377217Y-90100000D02*
X231212500Y-90100000D01*
X236954020Y-91607574D02*
X235446446Y-90100000D01*
X237375000Y-96679204D02*
X236954020Y-96258224D01*
X236954020Y-92179502D02*
X236954020Y-91607574D01*
X235446446Y-90100000D02*
X234377217Y-90100000D01*
X236358648Y-92899502D02*
X236358648Y-92779502D01*
X236954020Y-92299502D02*
X236954020Y-92179502D01*
X236598648Y-92539502D02*
X236714020Y-92539502D01*
X237375000Y-97675000D02*
X237375000Y-96679204D01*
X236714020Y-93139502D02*
X236598648Y-93139502D01*
X237200000Y-97850000D02*
X237375000Y-97675000D01*
X236714020Y-92539502D02*
G75*
G03*
X236954002Y-92299502I-20J240002D01*
G01*
X236358648Y-92779502D02*
G75*
G02*
X236598648Y-92539548I239952J2D01*
G01*
X236598648Y-93139502D02*
G75*
G02*
X236358598Y-92899502I-48J240002D01*
G01*
X236954020Y-93379502D02*
G75*
G03*
X236714020Y-93139480I-240020J2D01*
G01*
%TO.N,CSI_DATA1N*%
X233244276Y-90933456D02*
X233144080Y-90933456D01*
X232457392Y-92450000D02*
X232100000Y-92450000D01*
X233966084Y-92666084D02*
X233850000Y-92550000D01*
X233850000Y-92550000D02*
X233750000Y-92450000D01*
X236618726Y-98264282D02*
X236331989Y-97977545D01*
X232818198Y-91259338D02*
X232818198Y-92374608D01*
X232100000Y-92450000D02*
X231750000Y-92100000D01*
X234252907Y-92952907D02*
X233966084Y-92666084D01*
X236850675Y-96508433D02*
X236704020Y-96361777D01*
X233750000Y-92450000D02*
X233645060Y-92449510D01*
X233570158Y-92374608D02*
X233570158Y-91259338D01*
X236850675Y-97458859D02*
X236850675Y-96508433D01*
X232743296Y-92449510D02*
X232643100Y-92449510D01*
X236704020Y-96361777D02*
X236704020Y-95404020D01*
X236331989Y-97977545D02*
X236850675Y-97458859D01*
X232643100Y-92449510D02*
X232457392Y-92450000D01*
X234814613Y-93239731D02*
X234527789Y-92952907D01*
X231750000Y-92100000D02*
X231212500Y-92100000D01*
X236704020Y-95404020D02*
X234814613Y-93514613D01*
X234814613Y-93514613D02*
G75*
G02*
X234814620Y-93377180I68687J68713D01*
G01*
X233144080Y-90933456D02*
G75*
G03*
X232818256Y-91259338I20J-325844D01*
G01*
X234390348Y-92952907D02*
G75*
G02*
X234252908Y-92952907I-68720J68720D01*
G01*
X233645060Y-92449510D02*
G75*
G02*
X233570190Y-92374608I40J74910D01*
G01*
X232818198Y-92374608D02*
G75*
G02*
X232743296Y-92449498I-74898J8D01*
G01*
X234527789Y-92952907D02*
G75*
G03*
X234390349Y-92952907I-68720J-68720D01*
G01*
X233570158Y-91259338D02*
G75*
G03*
X233244276Y-90933442I-325858J38D01*
G01*
X234814613Y-93377172D02*
G75*
G03*
X234814565Y-93239780I-68713J68672D01*
G01*
%TO.N,CSI_DATA1P*%
X233244276Y-91184436D02*
X233144080Y-91184436D01*
X233645060Y-92700000D02*
X233645060Y-92700490D01*
X232743296Y-92700490D02*
X232643100Y-92700490D01*
X236599695Y-97354899D02*
X236599695Y-96611005D01*
X236454020Y-95508960D02*
X233672530Y-92727470D01*
X235470836Y-97924568D02*
X236030026Y-97924568D01*
X235146586Y-97847806D02*
X235270330Y-97724062D01*
X235270330Y-97724062D02*
X235470836Y-97924568D01*
X232457392Y-92700000D02*
X232100000Y-92700000D01*
X233672530Y-92727470D02*
X233645060Y-92700000D01*
X233069178Y-91259338D02*
X233069178Y-92374608D01*
X233319178Y-92374608D02*
X233319178Y-91259338D01*
X236599695Y-96611005D02*
X236454020Y-96465330D01*
X232100000Y-92700000D02*
X231700000Y-93100000D01*
X232643100Y-92700490D02*
X232457392Y-92700000D01*
X236030026Y-97924568D02*
X236599695Y-97354899D01*
X231700000Y-93100000D02*
X231212500Y-93100000D01*
X236454020Y-96465330D02*
X236454020Y-95508960D01*
X233645060Y-92700490D02*
G75*
G02*
X233319210Y-92374608I40J325890D01*
G01*
X233319178Y-91259338D02*
G75*
G03*
X233244276Y-91184422I-74878J38D01*
G01*
X233069178Y-92374608D02*
G75*
G02*
X232743296Y-92700478I-325878J8D01*
G01*
X233144080Y-91184436D02*
G75*
G03*
X233069236Y-91259338I20J-74864D01*
G01*
%TO.N,CSI_CLKN*%
X231700000Y-95100000D02*
X231212500Y-95100000D01*
X232030564Y-95430564D02*
X231945712Y-95345712D01*
X235250000Y-97150000D02*
X235361182Y-97150000D01*
X232519375Y-95281165D02*
X232369975Y-95430564D01*
X232794241Y-95854829D02*
X232943640Y-95705429D01*
X234650000Y-94486049D02*
X234750000Y-94486049D01*
X231945712Y-95345712D02*
X231700000Y-95100000D01*
X232943640Y-95366018D02*
X232858787Y-95281165D01*
X234325000Y-97938946D02*
X234325000Y-97475000D01*
X233215281Y-96615281D02*
X233750000Y-97150000D01*
X234075000Y-97475000D02*
X234075000Y-97938946D01*
X235361182Y-97150000D02*
X235650863Y-97150000D01*
X235075000Y-94811049D02*
X235075000Y-97075000D01*
X234325000Y-97475000D02*
X234325000Y-97075000D01*
X235150000Y-97150000D02*
X235250000Y-97150000D01*
X235650863Y-97150000D02*
X235750431Y-97249568D01*
X233215281Y-96615281D02*
X232794241Y-96194241D01*
X234325000Y-97075000D02*
X234325000Y-94811049D01*
X234150000Y-98013946D02*
X234250000Y-98013946D01*
X232858787Y-95281165D02*
G75*
G03*
X232519375Y-95281165I-169706J-169704D01*
G01*
X234750000Y-94486049D02*
G75*
G02*
X235074951Y-94811049I0J-324951D01*
G01*
X232794241Y-96194241D02*
G75*
G02*
X232794206Y-95854794I169659J169741D01*
G01*
X234075000Y-97938946D02*
G75*
G03*
X234150000Y-98013900I75000J46D01*
G01*
X233750000Y-97150000D02*
G75*
G02*
X234075000Y-97475000I0J-325000D01*
G01*
X234325000Y-94811049D02*
G75*
G02*
X234650000Y-94486000I325000J49D01*
G01*
X232943640Y-95705429D02*
G75*
G03*
X232943664Y-95365995I-169740J169729D01*
G01*
X234250000Y-98013946D02*
G75*
G03*
X234325046Y-97938946I0J75046D01*
G01*
X232369975Y-95430564D02*
G75*
G02*
X232030563Y-95430565I-169706J169703D01*
G01*
X235075000Y-97075000D02*
G75*
G03*
X235150000Y-97150000I75000J0D01*
G01*
%TO.N,CSI_CLKP*%
X235574568Y-97674568D02*
X235926472Y-97674568D01*
X236175431Y-96826040D02*
X236174695Y-96825304D01*
X234575000Y-97075000D02*
X234575000Y-94811049D01*
X234575000Y-97475000D02*
X234575000Y-97075000D01*
X233038504Y-96792058D02*
X233646446Y-97400000D01*
X235150000Y-97400000D02*
X235250000Y-97400000D01*
X234825000Y-94811049D02*
X234825000Y-97075000D01*
X234650000Y-94736049D02*
X234750000Y-94736049D01*
X234150000Y-98263946D02*
X234250000Y-98263946D01*
X236175431Y-97425609D02*
X236175431Y-96826040D01*
X234575000Y-97938946D02*
X234575000Y-97475000D01*
X235300000Y-97400000D02*
X235574568Y-97674568D01*
X232346446Y-96100000D02*
X233038504Y-96792058D01*
X233825000Y-97475000D02*
X233825000Y-97938946D01*
X235250000Y-97400000D02*
X235300000Y-97400000D01*
X233646446Y-97400000D02*
X233750000Y-97400000D01*
X231212500Y-96100000D02*
X232346446Y-96100000D01*
X235926472Y-97674568D02*
X236175431Y-97425609D01*
X234250000Y-98263946D02*
G75*
G03*
X234575046Y-97938946I0J325046D01*
G01*
X233750000Y-97400000D02*
G75*
G02*
X233825000Y-97475000I0J-75000D01*
G01*
X234750000Y-94736049D02*
G75*
G02*
X234824951Y-94811049I0J-74951D01*
G01*
X233825000Y-97938946D02*
G75*
G03*
X234150000Y-98263900I325000J46D01*
G01*
X234825000Y-97075000D02*
G75*
G03*
X235150000Y-97400000I325000J0D01*
G01*
X234575000Y-94811049D02*
G75*
G02*
X234650000Y-94736000I75000J49D01*
G01*
%TO.N,Net-(Q18-G)*%
D52*
X241145000Y-109577506D02*
X241145000Y-110587506D01*
X241145000Y-110587506D02*
X241075000Y-110657506D01*
%TO.N,Net-(Q13-G)*%
X251625000Y-80852494D02*
X251247044Y-81230450D01*
X251247044Y-81230450D02*
X250034314Y-81230450D01*
%TO.N,Net-(Q9-G)*%
X242127561Y-80850000D02*
X241358432Y-81619129D01*
X242150000Y-80850000D02*
X242127561Y-80850000D01*
%TO.N,/MCU/USB_D+*%
D53*
X260787500Y-86450000D02*
X261450000Y-86450000D01*
X257400000Y-89700000D02*
X258300000Y-88800000D01*
X244480545Y-90236613D02*
X245017158Y-89700000D01*
X261450000Y-85450000D02*
X260787500Y-85450000D01*
X259000000Y-85450000D02*
X258600000Y-85850000D01*
X244255545Y-94155545D02*
X244432324Y-94155545D01*
X258300000Y-86379722D02*
X258600000Y-86079722D01*
X261537500Y-86362500D02*
X261537500Y-85537500D01*
X244468414Y-94119455D02*
X244480545Y-94119455D01*
X258300000Y-88800000D02*
X258300000Y-86379722D01*
X245017158Y-89700000D02*
X257400000Y-89700000D01*
X261537500Y-85537500D02*
X261450000Y-85450000D01*
X244480545Y-94119455D02*
X244480545Y-90236613D01*
X244432324Y-94155545D02*
X244468414Y-94119455D01*
X260787500Y-85450000D02*
X259000000Y-85450000D01*
X261450000Y-86450000D02*
X261537500Y-86362500D01*
X258600000Y-86079722D02*
X258600000Y-85850000D01*
%TO.N,/MCU/USB_D-*%
X245100000Y-89900000D02*
X257485642Y-89900000D01*
X258501980Y-88883662D02*
X258501980Y-86648020D01*
X259750000Y-86501041D02*
X259750000Y-86650000D01*
X258600000Y-86648020D02*
X258600000Y-86550000D01*
X244680545Y-94331586D02*
X244680545Y-90319455D01*
X257485642Y-89900000D02*
X258501980Y-88883662D01*
X244644455Y-94367676D02*
X244680545Y-94331586D01*
X260787500Y-85950000D02*
X260301041Y-85950000D01*
X260050000Y-86950000D02*
X259750000Y-86650000D01*
X244680545Y-90319455D02*
X245100000Y-89900000D01*
X260301041Y-85950000D02*
X259750000Y-86501041D01*
X258600000Y-86550000D02*
X258700000Y-86650000D01*
X260787500Y-86950000D02*
X260050000Y-86950000D01*
X244644455Y-94544455D02*
X244644455Y-94367676D01*
X258501980Y-86648020D02*
X258600000Y-86648020D01*
X258700000Y-86650000D02*
X259750000Y-86650000D01*
%TO.N,Net-(U17-RT)*%
D48*
X250900000Y-90760000D02*
X251320000Y-91180000D01*
X251320000Y-91180000D02*
X251800000Y-91180000D01*
%TO.N,Net-(Q22-G)*%
D50*
X233200000Y-110747488D02*
X233200000Y-109782506D01*
X233150000Y-110797488D02*
X233200000Y-110747488D01*
%TO.N,Net-(Q25-G)*%
D52*
X252352956Y-106269550D02*
X253565686Y-106269550D01*
X251975000Y-106647506D02*
X252352956Y-106269550D01*
%TO.N,/Motors/ESC3/GLA*%
X240800002Y-111572504D02*
X241075000Y-111297506D01*
X240900000Y-112384140D02*
X240800002Y-112284142D01*
X240800002Y-112284142D02*
X240800002Y-111572504D01*
%TO.N,/Motors/ESC4/GLA*%
X253800002Y-111572504D02*
X254075000Y-111297506D01*
X253900000Y-112384140D02*
X253800002Y-112284142D01*
X253800002Y-112284142D02*
X253800002Y-111572504D01*
%TO.N,Net-(Q19-G)*%
X239352956Y-106269550D02*
X240565686Y-106269550D01*
X238975000Y-106647506D02*
X239352956Y-106269550D01*
%TO.N,Net-(Q8-G)*%
X237003984Y-80630510D02*
X237294488Y-80630510D01*
X237500000Y-80424998D02*
X237500000Y-79880000D01*
X237294488Y-80630510D02*
X237500000Y-80424998D01*
%TO.N,Net-(Q7-G)*%
X238650000Y-80850000D02*
X238272044Y-81227956D01*
X238272044Y-81227956D02*
X237059314Y-81227956D01*
%TO.N,/Motors/ESC3/GHA*%
X245125000Y-107737506D02*
X245125000Y-107717506D01*
%TO.N,/Motors/ESC1/GHA*%
X232500000Y-79760000D02*
X232500000Y-79780000D01*
%TO.N,Net-(Q27-G)*%
X248475000Y-106647506D02*
X248497439Y-106647506D01*
X248497439Y-106647506D02*
X249266568Y-105878377D01*
%TO.N,Net-(Q28-G)*%
D50*
X246200000Y-110747488D02*
X246200000Y-109782506D01*
X246150000Y-110797488D02*
X246200000Y-110747488D01*
%TO.N,Net-(Q6-G)*%
D52*
X236480000Y-76910000D02*
X236550000Y-76840000D01*
X236480000Y-77920000D02*
X236480000Y-76910000D01*
%TO.N,/Motors/ESC1/GLA*%
X236824998Y-75925002D02*
X236550000Y-76200000D01*
X236725000Y-75113366D02*
X236824998Y-75213364D01*
X236824998Y-75213364D02*
X236824998Y-75925002D01*
%TO.N,/Motors/ESC4/GHA*%
X258125000Y-107737506D02*
X258125000Y-107717506D01*
%TO.N,Net-(Q16-G)*%
D50*
X257400000Y-76752512D02*
X257400000Y-77717494D01*
X257450000Y-76702512D02*
X257400000Y-76752512D01*
%TO.N,Net-(Q15-G)*%
D52*
X255102561Y-80852494D02*
X254333432Y-81621623D01*
X255125000Y-80852494D02*
X255102561Y-80852494D01*
%TO.N,VDDO_4*%
D48*
X240649872Y-89275000D02*
X240179176Y-89745696D01*
X249681739Y-89275000D02*
X240649872Y-89275000D01*
X240179176Y-89745696D02*
X236979328Y-89745696D01*
%TO.N,VDD_HP*%
X229694177Y-92402344D02*
X229694177Y-88905823D01*
X227523298Y-94573223D02*
X229694177Y-92402344D01*
%TD*%
%TA.AperFunction,Conductor*%
%TO.N,/Motors/ESC2/PHASE_B*%
G36*
X253018039Y-76622179D02*
G01*
X253063794Y-76674983D01*
X253075000Y-76726494D01*
X253075000Y-77602494D01*
X253202911Y-77602494D01*
X253269950Y-77622179D01*
X253278397Y-77628118D01*
X253284602Y-77632879D01*
X253284603Y-77632880D01*
X253381629Y-77688898D01*
X253489848Y-77717895D01*
X253489850Y-77717895D01*
X253601882Y-77717895D01*
X253601884Y-77717895D01*
X253710103Y-77688898D01*
X253758500Y-77660955D01*
X253826398Y-77644482D01*
X253892426Y-77667334D01*
X253935617Y-77722254D01*
X253944500Y-77768342D01*
X253944500Y-78142246D01*
X253958515Y-78212704D01*
X253957238Y-78212957D01*
X253963317Y-78269513D01*
X253956303Y-78293403D01*
X253944500Y-78352741D01*
X253944500Y-78792246D01*
X253958515Y-78862704D01*
X253957238Y-78862957D01*
X253963317Y-78919513D01*
X253956303Y-78943403D01*
X253944500Y-79002741D01*
X253944500Y-79442246D01*
X253956131Y-79500723D01*
X253957921Y-79505043D01*
X253965388Y-79574513D01*
X253957922Y-79599942D01*
X253956132Y-79604262D01*
X253944500Y-79662741D01*
X253944500Y-80102246D01*
X253956131Y-80160722D01*
X253960806Y-80172006D01*
X253958840Y-80172820D01*
X253974980Y-80224360D01*
X253975000Y-80226576D01*
X253975000Y-81130770D01*
X253955315Y-81197809D01*
X253902511Y-81243564D01*
X253833353Y-81253508D01*
X253818908Y-81250545D01*
X253731019Y-81226996D01*
X253731018Y-81226996D01*
X253618982Y-81226996D01*
X253510763Y-81255993D01*
X253510756Y-81255996D01*
X253493310Y-81266068D01*
X253425409Y-81282538D01*
X253369316Y-81266067D01*
X253345411Y-81252266D01*
X253345409Y-81252265D01*
X253345407Y-81252264D01*
X253237188Y-81223267D01*
X253125152Y-81223267D01*
X253016933Y-81252264D01*
X253016932Y-81252264D01*
X252960658Y-81284754D01*
X252892758Y-81301225D01*
X252851207Y-81291927D01*
X252845075Y-81289387D01*
X252845072Y-81289386D01*
X252736853Y-81260389D01*
X252624817Y-81260389D01*
X252516598Y-81289386D01*
X252516595Y-81289387D01*
X252419575Y-81345402D01*
X252419569Y-81345406D01*
X252398801Y-81366175D01*
X252337478Y-81399660D01*
X252311120Y-81402494D01*
X252145713Y-81402494D01*
X252078674Y-81382809D01*
X252032919Y-81330005D01*
X252022975Y-81260847D01*
X252024096Y-81254301D01*
X252025500Y-81247243D01*
X252025500Y-80457743D01*
X252025499Y-80457741D01*
X252013868Y-80399267D01*
X252013867Y-80399266D01*
X252013867Y-80399263D01*
X251995897Y-80372370D01*
X251975020Y-80305693D01*
X251975000Y-80303480D01*
X251975000Y-80302494D01*
X251961374Y-80302494D01*
X251913919Y-80293054D01*
X251903229Y-80288625D01*
X251844752Y-80276994D01*
X251844748Y-80276994D01*
X251405252Y-80276994D01*
X251399160Y-80276994D01*
X251399160Y-80274247D01*
X251341990Y-80263127D01*
X251291506Y-80214824D01*
X251275000Y-80153009D01*
X251275000Y-77402494D01*
X250753008Y-77402494D01*
X250691008Y-77385881D01*
X250639239Y-77355992D01*
X250639238Y-77355991D01*
X250639237Y-77355991D01*
X250531018Y-77326994D01*
X250418982Y-77326994D01*
X250310763Y-77355991D01*
X250310762Y-77355991D01*
X250260999Y-77384722D01*
X250193099Y-77401193D01*
X250127072Y-77378341D01*
X250083882Y-77323419D01*
X250075000Y-77277334D01*
X250075000Y-76726494D01*
X250094685Y-76659455D01*
X250147489Y-76613700D01*
X250199000Y-76602494D01*
X252951000Y-76602494D01*
X253018039Y-76622179D01*
G37*
%TD.AperFunction*%
%TD*%
%TA.AperFunction,Conductor*%
%TO.N,/Motors/ESC4/PHASE_B*%
G36*
X251521326Y-106117191D02*
G01*
X251567081Y-106169995D01*
X251577025Y-106239153D01*
X251575904Y-106245699D01*
X251574500Y-106252756D01*
X251574500Y-107042258D01*
X251586131Y-107100734D01*
X251586132Y-107100736D01*
X251586133Y-107100737D01*
X251604101Y-107127628D01*
X251624980Y-107194303D01*
X251625000Y-107196519D01*
X251625000Y-107197506D01*
X251638626Y-107197506D01*
X251686081Y-107206946D01*
X251696770Y-107211374D01*
X251755247Y-107223005D01*
X251755250Y-107223006D01*
X252200840Y-107223006D01*
X252200840Y-107225895D01*
X252257327Y-107236522D01*
X252308109Y-107284511D01*
X252325000Y-107346990D01*
X252325000Y-110097506D01*
X252846992Y-110097506D01*
X252908992Y-110114119D01*
X252960763Y-110144009D01*
X253068982Y-110173006D01*
X253068984Y-110173006D01*
X253181016Y-110173006D01*
X253181018Y-110173006D01*
X253289237Y-110144009D01*
X253339000Y-110115277D01*
X253406900Y-110098805D01*
X253472927Y-110121657D01*
X253516117Y-110176578D01*
X253525000Y-110222665D01*
X253525000Y-110773506D01*
X253505315Y-110840545D01*
X253452511Y-110886300D01*
X253401000Y-110897506D01*
X250649000Y-110897506D01*
X250581961Y-110877821D01*
X250536206Y-110825017D01*
X250525000Y-110773506D01*
X250525000Y-109897506D01*
X250397089Y-109897506D01*
X250330050Y-109877821D01*
X250321603Y-109871882D01*
X250315397Y-109867120D01*
X250218373Y-109811103D01*
X250218372Y-109811102D01*
X250218371Y-109811102D01*
X250110152Y-109782105D01*
X249998116Y-109782105D01*
X249889897Y-109811102D01*
X249889894Y-109811103D01*
X249841500Y-109839044D01*
X249773600Y-109855517D01*
X249707573Y-109832664D01*
X249664382Y-109777743D01*
X249655500Y-109731657D01*
X249655500Y-109357755D01*
X249655499Y-109357753D01*
X249641485Y-109287296D01*
X249642761Y-109287042D01*
X249636681Y-109230492D01*
X249643695Y-109206604D01*
X249655499Y-109147258D01*
X249655500Y-109147256D01*
X249655500Y-108707755D01*
X249655499Y-108707753D01*
X249641485Y-108637296D01*
X249642761Y-108637042D01*
X249636681Y-108580492D01*
X249643695Y-108556604D01*
X249655499Y-108497258D01*
X249655500Y-108497256D01*
X249655500Y-108057755D01*
X249655499Y-108057753D01*
X249643867Y-107999274D01*
X249642080Y-107994959D01*
X249634610Y-107925490D01*
X249642082Y-107900045D01*
X249643864Y-107895741D01*
X249643867Y-107895737D01*
X249655500Y-107837254D01*
X249655500Y-107397758D01*
X249655500Y-107397755D01*
X249655499Y-107397753D01*
X249643868Y-107339276D01*
X249639194Y-107327993D01*
X249641158Y-107327179D01*
X249625020Y-107275635D01*
X249625000Y-107273423D01*
X249625000Y-106369229D01*
X249644685Y-106302190D01*
X249697489Y-106256435D01*
X249766647Y-106246491D01*
X249781087Y-106249452D01*
X249868982Y-106273004D01*
X249868984Y-106273004D01*
X249981016Y-106273004D01*
X249981018Y-106273004D01*
X250089237Y-106244007D01*
X250106682Y-106233935D01*
X250174581Y-106217460D01*
X250230683Y-106233931D01*
X250254593Y-106247736D01*
X250362812Y-106276733D01*
X250362814Y-106276733D01*
X250474846Y-106276733D01*
X250474848Y-106276733D01*
X250583067Y-106247736D01*
X250639342Y-106215245D01*
X250707239Y-106198773D01*
X250748796Y-106208073D01*
X250754920Y-106210609D01*
X250754928Y-106210614D01*
X250863147Y-106239611D01*
X250863149Y-106239611D01*
X250975181Y-106239611D01*
X250975183Y-106239611D01*
X251083402Y-106210614D01*
X251180428Y-106154596D01*
X251201199Y-106133825D01*
X251262522Y-106100340D01*
X251288880Y-106097506D01*
X251454287Y-106097506D01*
X251521326Y-106117191D01*
G37*
%TD.AperFunction*%
%TD*%
%TA.AperFunction,Conductor*%
%TO.N,GND*%
G36*
X257992539Y-87622179D02*
G01*
X258038294Y-87674983D01*
X258049500Y-87726494D01*
X258049500Y-88644877D01*
X258029815Y-88711916D01*
X258013181Y-88732558D01*
X257779564Y-88966175D01*
X257718241Y-88999660D01*
X257691883Y-89002494D01*
X257186869Y-89002494D01*
X257119830Y-88982809D01*
X257099188Y-88966175D01*
X257020024Y-88887011D01*
X257020022Y-88887009D01*
X256922996Y-88830991D01*
X256814777Y-88801994D01*
X256702741Y-88801994D01*
X256594522Y-88830991D01*
X256594519Y-88830992D01*
X256497499Y-88887007D01*
X256497493Y-88887011D01*
X256418330Y-88966175D01*
X256357007Y-88999660D01*
X256330649Y-89002494D01*
X250062343Y-89002494D01*
X249995304Y-88982809D01*
X249974662Y-88966175D01*
X249943004Y-88934517D01*
X249943002Y-88934515D01*
X249845976Y-88878497D01*
X249737757Y-88849500D01*
X249625721Y-88849500D01*
X249517502Y-88878497D01*
X249517499Y-88878498D01*
X249466597Y-88907887D01*
X249404597Y-88924500D01*
X245100000Y-88924500D01*
X245100000Y-87602494D01*
X257925500Y-87602494D01*
X257992539Y-87622179D01*
G37*
%TD.AperFunction*%
%TD*%
%TA.AperFunction,Conductor*%
%TO.N,/Motors/ESC1/PHASE_B*%
G36*
X240043039Y-76619685D02*
G01*
X240088794Y-76672489D01*
X240100000Y-76724000D01*
X240100000Y-77600000D01*
X240227911Y-77600000D01*
X240294950Y-77619685D01*
X240303397Y-77625624D01*
X240309602Y-77630385D01*
X240309603Y-77630386D01*
X240406629Y-77686404D01*
X240514848Y-77715401D01*
X240514850Y-77715401D01*
X240626882Y-77715401D01*
X240626884Y-77715401D01*
X240735103Y-77686404D01*
X240783500Y-77658461D01*
X240851398Y-77641988D01*
X240917426Y-77664840D01*
X240960617Y-77719760D01*
X240969500Y-77765848D01*
X240969500Y-78139752D01*
X240983515Y-78210210D01*
X240982238Y-78210463D01*
X240988317Y-78267019D01*
X240981303Y-78290909D01*
X240969500Y-78350247D01*
X240969500Y-78789752D01*
X240983515Y-78860210D01*
X240982238Y-78860463D01*
X240988317Y-78917019D01*
X240981303Y-78940909D01*
X240969500Y-79000247D01*
X240969500Y-79439752D01*
X240981131Y-79498229D01*
X240982921Y-79502549D01*
X240990388Y-79572019D01*
X240982922Y-79597448D01*
X240981132Y-79601768D01*
X240969500Y-79660247D01*
X240969500Y-80099752D01*
X240981131Y-80158228D01*
X240985806Y-80169512D01*
X240983840Y-80170326D01*
X240999980Y-80221866D01*
X241000000Y-80224082D01*
X241000000Y-81128276D01*
X240980315Y-81195315D01*
X240927511Y-81241070D01*
X240858353Y-81251014D01*
X240843908Y-81248051D01*
X240756019Y-81224502D01*
X240756018Y-81224502D01*
X240643982Y-81224502D01*
X240535763Y-81253499D01*
X240535756Y-81253502D01*
X240518310Y-81263574D01*
X240450409Y-81280044D01*
X240394316Y-81263573D01*
X240370411Y-81249772D01*
X240370409Y-81249771D01*
X240370407Y-81249770D01*
X240262188Y-81220773D01*
X240150152Y-81220773D01*
X240041933Y-81249770D01*
X240041932Y-81249770D01*
X239985658Y-81282260D01*
X239917758Y-81298731D01*
X239876207Y-81289433D01*
X239870075Y-81286893D01*
X239870072Y-81286892D01*
X239761853Y-81257895D01*
X239649817Y-81257895D01*
X239541598Y-81286892D01*
X239541595Y-81286893D01*
X239444575Y-81342908D01*
X239444569Y-81342912D01*
X239423801Y-81363681D01*
X239362478Y-81397166D01*
X239336120Y-81400000D01*
X239170713Y-81400000D01*
X239103674Y-81380315D01*
X239057919Y-81327511D01*
X239047975Y-81258353D01*
X239049096Y-81251807D01*
X239050500Y-81244749D01*
X239050500Y-80455249D01*
X239050499Y-80455247D01*
X239038868Y-80396773D01*
X239038867Y-80396772D01*
X239038867Y-80396769D01*
X239020897Y-80369876D01*
X239000020Y-80303199D01*
X239000000Y-80300986D01*
X239000000Y-80300000D01*
X238986374Y-80300000D01*
X238938919Y-80290560D01*
X238928229Y-80286131D01*
X238869752Y-80274500D01*
X238869748Y-80274500D01*
X238430252Y-80274500D01*
X238424160Y-80274500D01*
X238424160Y-80271753D01*
X238366990Y-80260633D01*
X238316506Y-80212330D01*
X238300000Y-80150515D01*
X238300000Y-77400000D01*
X237778008Y-77400000D01*
X237716008Y-77383387D01*
X237664239Y-77353498D01*
X237664238Y-77353497D01*
X237664237Y-77353497D01*
X237556018Y-77324500D01*
X237443982Y-77324500D01*
X237335763Y-77353497D01*
X237335762Y-77353497D01*
X237285999Y-77382228D01*
X237218099Y-77398699D01*
X237152072Y-77375847D01*
X237108882Y-77320925D01*
X237100000Y-77274840D01*
X237100000Y-76724000D01*
X237119685Y-76656961D01*
X237172489Y-76611206D01*
X237224000Y-76600000D01*
X239976000Y-76600000D01*
X240043039Y-76619685D01*
G37*
%TD.AperFunction*%
%TD*%
%TA.AperFunction,Conductor*%
%TO.N,GND*%
G36*
X250071734Y-98514118D02*
G01*
X250121980Y-98543128D01*
X250230199Y-98572125D01*
X250230201Y-98572125D01*
X250342233Y-98572125D01*
X250342235Y-98572125D01*
X250450454Y-98543128D01*
X250500699Y-98514118D01*
X250562699Y-98497506D01*
X252312523Y-98497506D01*
X252379562Y-98517191D01*
X252425317Y-98569995D01*
X252436523Y-98621506D01*
X252436523Y-98626114D01*
X252465520Y-98734333D01*
X252521538Y-98831359D01*
X252549237Y-98859058D01*
X252582721Y-98920382D01*
X252577735Y-98990073D01*
X252576120Y-98994178D01*
X252575494Y-98995687D01*
X252556088Y-99068114D01*
X252546495Y-99103916D01*
X252546495Y-99215952D01*
X252575492Y-99324171D01*
X252631510Y-99421197D01*
X252710732Y-99500419D01*
X252807758Y-99556437D01*
X252915977Y-99585434D01*
X252915979Y-99585434D01*
X253028011Y-99585434D01*
X253028013Y-99585434D01*
X253136232Y-99556437D01*
X253165808Y-99539361D01*
X253233705Y-99522887D01*
X253299732Y-99545738D01*
X253315489Y-99559066D01*
X253329262Y-99572839D01*
X253426288Y-99628857D01*
X253519122Y-99653731D01*
X253578782Y-99690096D01*
X253609311Y-99752943D01*
X253601016Y-99822318D01*
X253556531Y-99876196D01*
X253489979Y-99897471D01*
X253487028Y-99897506D01*
X250988509Y-99897506D01*
X250926509Y-99880893D01*
X250837965Y-99829772D01*
X250837964Y-99829771D01*
X250837963Y-99829771D01*
X250729744Y-99800774D01*
X250617708Y-99800774D01*
X250509489Y-99829771D01*
X250509486Y-99829772D01*
X250420943Y-99880893D01*
X250358943Y-99897506D01*
X245500000Y-99897506D01*
X245500000Y-98497506D01*
X250009735Y-98497506D01*
X250071734Y-98514118D01*
G37*
%TD.AperFunction*%
%TA.AperFunction,Conductor*%
G36*
X255544079Y-98510539D02*
G01*
X255545050Y-98508196D01*
X255552553Y-98511303D01*
X255552560Y-98511307D01*
X255660779Y-98540304D01*
X255660781Y-98540304D01*
X255772813Y-98540304D01*
X255772815Y-98540304D01*
X255881034Y-98511307D01*
X255881042Y-98511302D01*
X255888544Y-98508196D01*
X255889514Y-98510539D01*
X255938164Y-98497506D01*
X256601000Y-98497506D01*
X256668039Y-98517191D01*
X256713794Y-98569995D01*
X256725000Y-98621506D01*
X256725000Y-99773506D01*
X256705315Y-99840545D01*
X256652511Y-99886300D01*
X256601000Y-99897506D01*
X254378110Y-99897506D01*
X254311071Y-99877821D01*
X254290429Y-99861187D01*
X254261265Y-99832023D01*
X254261263Y-99832021D01*
X254164237Y-99776003D01*
X254056018Y-99747006D01*
X253976983Y-99747006D01*
X253909944Y-99727321D01*
X253864189Y-99674517D01*
X253854245Y-99605359D01*
X253883270Y-99541803D01*
X253889302Y-99535325D01*
X253901740Y-99522887D01*
X253931010Y-99493617D01*
X253987028Y-99396591D01*
X254016025Y-99288372D01*
X254016025Y-99176336D01*
X253987028Y-99068117D01*
X253931010Y-98971091D01*
X253886826Y-98926907D01*
X253853341Y-98865584D01*
X253854731Y-98807138D01*
X253882526Y-98703409D01*
X253882526Y-98621506D01*
X253902211Y-98554467D01*
X253955015Y-98508712D01*
X254006526Y-98497506D01*
X255495430Y-98497506D01*
X255544079Y-98510539D01*
G37*
%TD.AperFunction*%
%TD*%
%TA.AperFunction,Conductor*%
%TO.N,GND*%
G36*
X244993106Y-78325523D02*
G01*
X245008104Y-78329927D01*
X245066855Y-78367672D01*
X245068042Y-78369041D01*
X245095518Y-78423902D01*
X245097163Y-78431460D01*
X245100000Y-78457831D01*
X245100000Y-79472257D01*
X245097330Y-79497850D01*
X245092105Y-79522620D01*
X245084208Y-79547115D01*
X245077414Y-79562499D01*
X245076844Y-79565203D01*
X245076589Y-79569618D01*
X245074500Y-79587621D01*
X245074500Y-79608722D01*
X245073439Y-79624908D01*
X245071336Y-79640881D01*
X245068172Y-79656788D01*
X245049500Y-79726474D01*
X245049500Y-79838514D01*
X245069840Y-79914427D01*
X245071866Y-79923269D01*
X245073563Y-79932159D01*
X245074937Y-79941127D01*
X245077866Y-79966388D01*
X245078666Y-79983146D01*
X245078383Y-79997316D01*
X245057364Y-80063949D01*
X245003657Y-80108640D01*
X244934314Y-80117201D01*
X244934312Y-80117201D01*
X244926896Y-80115983D01*
X244884993Y-80101010D01*
X244849238Y-80080367D01*
X244816381Y-80071563D01*
X244741019Y-80051370D01*
X244741018Y-80051370D01*
X244628983Y-80051370D01*
X244520771Y-80080364D01*
X244520760Y-80080368D01*
X244520759Y-80080369D01*
X244423733Y-80136386D01*
X244419956Y-80138905D01*
X244353255Y-80159708D01*
X244285896Y-80141147D01*
X244284162Y-80140053D01*
X244278687Y-80136535D01*
X244278676Y-80136530D01*
X244225504Y-80112251D01*
X244225500Y-80112250D01*
X244210526Y-80107853D01*
X244210505Y-80107847D01*
X244197640Y-80105049D01*
X244136317Y-80071563D01*
X244102833Y-80010239D01*
X244100000Y-79983883D01*
X244100000Y-78461820D01*
X244105022Y-78426887D01*
X244109189Y-78412695D01*
X244146962Y-78353919D01*
X244207793Y-78325316D01*
X244226605Y-78322183D01*
X244246968Y-78320500D01*
X244958170Y-78320500D01*
X244993106Y-78325523D01*
G37*
%TD.AperFunction*%
%TD*%
%TA.AperFunction,Conductor*%
%TO.N,GND*%
G36*
X241662539Y-107217191D02*
G01*
X241708294Y-107269995D01*
X241719500Y-107321506D01*
X241719500Y-109061665D01*
X241699815Y-109128704D01*
X241647011Y-109174459D01*
X241577853Y-109184403D01*
X241571311Y-109183283D01*
X241565544Y-109182136D01*
X241539752Y-109177006D01*
X241539751Y-109177006D01*
X240750249Y-109177006D01*
X240750247Y-109177006D01*
X240691770Y-109188637D01*
X240691769Y-109188637D01*
X240691768Y-109188638D01*
X240686355Y-109191530D01*
X240681614Y-109195422D01*
X240625447Y-109232952D01*
X240625446Y-109232953D01*
X240587916Y-109289120D01*
X240584024Y-109293861D01*
X240581132Y-109299274D01*
X240581132Y-109299275D01*
X240581131Y-109299276D01*
X240569500Y-109357753D01*
X240569500Y-109357755D01*
X240569500Y-109773902D01*
X240549815Y-109840941D01*
X240497011Y-109886696D01*
X240447186Y-109897890D01*
X240382487Y-109898770D01*
X240358450Y-109899097D01*
X240290555Y-109915568D01*
X240236240Y-109937313D01*
X240224045Y-109944354D01*
X240194142Y-109956739D01*
X240187521Y-109958513D01*
X240121319Y-109957954D01*
X240098692Y-109951480D01*
X240098689Y-109951479D01*
X239950355Y-109909034D01*
X239944151Y-109906869D01*
X239938042Y-109906598D01*
X239934463Y-109906279D01*
X239913387Y-109902546D01*
X239900180Y-109899008D01*
X239846993Y-109892006D01*
X239846992Y-109892006D01*
X239654500Y-109892006D01*
X239587461Y-109872321D01*
X239541706Y-109819517D01*
X239530500Y-109768006D01*
X239530500Y-108132557D01*
X239550185Y-108065518D01*
X239602989Y-108019763D01*
X239636842Y-108009820D01*
X239646157Y-108008481D01*
X239687995Y-108009600D01*
X239730250Y-108018006D01*
X239730252Y-108018006D01*
X240513483Y-108018006D01*
X240519750Y-108018006D01*
X240519751Y-108018005D01*
X240534485Y-108015074D01*
X240590210Y-108003991D01*
X240590266Y-108004276D01*
X240624304Y-107997506D01*
X240625000Y-107997506D01*
X240638064Y-107984441D01*
X240644685Y-107961894D01*
X240645830Y-107960145D01*
X240688867Y-107895737D01*
X240700500Y-107837254D01*
X240700500Y-107403364D01*
X240702670Y-107380268D01*
X240706340Y-107360909D01*
X240738166Y-107298710D01*
X240743083Y-107293521D01*
X240785487Y-107264320D01*
X240801154Y-107257807D01*
X240805656Y-107252218D01*
X240814384Y-107246679D01*
X240856647Y-107222279D01*
X240886550Y-107209894D01*
X240917015Y-107201731D01*
X240949108Y-107197506D01*
X241595500Y-107197506D01*
X241662539Y-107217191D01*
G37*
%TD.AperFunction*%
%TD*%
%TA.AperFunction,Conductor*%
%TO.N,GND*%
G36*
X254662539Y-107217191D02*
G01*
X254708294Y-107269995D01*
X254719500Y-107321506D01*
X254719500Y-109061665D01*
X254699815Y-109128704D01*
X254647011Y-109174459D01*
X254577853Y-109184403D01*
X254571311Y-109183283D01*
X254565544Y-109182136D01*
X254539752Y-109177006D01*
X254539751Y-109177006D01*
X253750249Y-109177006D01*
X253750247Y-109177006D01*
X253691770Y-109188637D01*
X253691769Y-109188637D01*
X253691768Y-109188638D01*
X253686355Y-109191530D01*
X253681614Y-109195422D01*
X253625447Y-109232952D01*
X253625446Y-109232953D01*
X253587916Y-109289120D01*
X253584024Y-109293861D01*
X253581132Y-109299274D01*
X253581132Y-109299275D01*
X253581131Y-109299276D01*
X253569500Y-109357753D01*
X253569500Y-109357755D01*
X253569500Y-109773902D01*
X253549815Y-109840941D01*
X253497011Y-109886696D01*
X253447186Y-109897890D01*
X253382487Y-109898770D01*
X253358450Y-109899097D01*
X253290555Y-109915568D01*
X253236240Y-109937313D01*
X253224045Y-109944354D01*
X253194142Y-109956739D01*
X253187521Y-109958513D01*
X253121319Y-109957954D01*
X253098692Y-109951480D01*
X253098689Y-109951479D01*
X252950355Y-109909034D01*
X252944151Y-109906869D01*
X252938042Y-109906598D01*
X252934463Y-109906279D01*
X252913387Y-109902546D01*
X252900180Y-109899008D01*
X252846993Y-109892006D01*
X252846992Y-109892006D01*
X252654500Y-109892006D01*
X252587461Y-109872321D01*
X252541706Y-109819517D01*
X252530500Y-109768006D01*
X252530500Y-108132557D01*
X252550185Y-108065518D01*
X252602989Y-108019763D01*
X252636842Y-108009820D01*
X252646157Y-108008481D01*
X252687995Y-108009600D01*
X252730250Y-108018006D01*
X252730252Y-108018006D01*
X253513483Y-108018006D01*
X253519750Y-108018006D01*
X253519751Y-108018005D01*
X253534485Y-108015074D01*
X253590210Y-108003991D01*
X253590266Y-108004276D01*
X253624304Y-107997506D01*
X253625000Y-107997506D01*
X253638064Y-107984441D01*
X253644685Y-107961894D01*
X253645830Y-107960145D01*
X253688867Y-107895737D01*
X253700500Y-107837254D01*
X253700500Y-107403364D01*
X253702670Y-107380268D01*
X253706340Y-107360909D01*
X253738166Y-107298710D01*
X253743083Y-107293521D01*
X253785487Y-107264320D01*
X253801154Y-107257807D01*
X253805656Y-107252218D01*
X253814384Y-107246679D01*
X253856647Y-107222279D01*
X253886550Y-107209894D01*
X253917015Y-107201731D01*
X253949108Y-107197506D01*
X254595500Y-107197506D01*
X254662539Y-107217191D01*
G37*
%TD.AperFunction*%
%TD*%
%TA.AperFunction,Conductor*%
%TO.N,GND*%
G36*
X233331911Y-107352227D02*
G01*
X233340813Y-107357436D01*
X233346310Y-107360968D01*
X233399482Y-107385249D01*
X233414481Y-107389654D01*
X233427354Y-107392454D01*
X233488678Y-107425936D01*
X233522165Y-107487258D01*
X233525000Y-107513621D01*
X233525000Y-109035684D01*
X233519975Y-109070625D01*
X233515807Y-109084817D01*
X233478030Y-109143593D01*
X233417221Y-109172188D01*
X233398444Y-109175318D01*
X233378055Y-109177006D01*
X232666830Y-109177006D01*
X232631889Y-109171981D01*
X232616890Y-109167576D01*
X232558144Y-109129833D01*
X232556957Y-109128464D01*
X232529477Y-109073589D01*
X232527832Y-109066027D01*
X232525000Y-109039674D01*
X232525000Y-107504964D01*
X232530022Y-107470031D01*
X232533933Y-107456712D01*
X232571706Y-107397935D01*
X232635258Y-107368910D01*
X232636899Y-107368674D01*
X232695080Y-107374237D01*
X232699812Y-107375875D01*
X232721247Y-107385665D01*
X232775762Y-107417139D01*
X232883981Y-107446136D01*
X232883983Y-107446136D01*
X232996015Y-107446136D01*
X232996017Y-107446136D01*
X233104236Y-107417139D01*
X233201262Y-107361121D01*
X233201262Y-107361120D01*
X233208301Y-107357057D01*
X233209466Y-107359076D01*
X233263465Y-107338195D01*
X233331911Y-107352227D01*
G37*
%TD.AperFunction*%
%TD*%
%TA.AperFunction,Conductor*%
%TO.N,/Motors/ESC1/PHASE_A*%
G36*
X235894998Y-76719685D02*
G01*
X235940753Y-76772489D01*
X235950697Y-76841647D01*
X235945596Y-76863212D01*
X235700000Y-77600000D01*
X235700000Y-81276000D01*
X235680315Y-81343039D01*
X235627511Y-81388794D01*
X235576000Y-81400000D01*
X233724000Y-81400000D01*
X233656961Y-81380315D01*
X233611206Y-81327511D01*
X233600000Y-81276000D01*
X233600000Y-81255915D01*
X233600500Y-81245747D01*
X233600500Y-80454262D01*
X233600000Y-80444084D01*
X233600000Y-80300000D01*
X233536374Y-80300000D01*
X233488919Y-80290560D01*
X233478229Y-80286131D01*
X233419752Y-80274500D01*
X233419748Y-80274500D01*
X233028200Y-80274500D01*
X232961161Y-80254815D01*
X232915406Y-80202011D01*
X232904248Y-80147057D01*
X232911025Y-79903090D01*
X232915200Y-79874454D01*
X232925500Y-79836018D01*
X232925500Y-79723982D01*
X232921571Y-79709321D01*
X232917394Y-79673790D01*
X232924843Y-79405638D01*
X232946380Y-79339176D01*
X232961109Y-79321408D01*
X232985483Y-79297035D01*
X233041501Y-79200009D01*
X233070498Y-79091790D01*
X233070498Y-78979754D01*
X233041501Y-78871535D01*
X232985483Y-78774509D01*
X232981292Y-78770318D01*
X232947807Y-78708995D01*
X232945022Y-78679205D01*
X232968937Y-77818252D01*
X232990475Y-77751787D01*
X233030888Y-77714311D01*
X233065253Y-77694471D01*
X233144475Y-77615249D01*
X233200493Y-77518223D01*
X233229490Y-77410004D01*
X233229490Y-77297968D01*
X233200493Y-77189749D01*
X233144475Y-77092723D01*
X233065253Y-77013501D01*
X233056460Y-77008424D01*
X233008247Y-76957858D01*
X232994511Y-76897596D01*
X232996651Y-76820557D01*
X233018189Y-76754090D01*
X233072243Y-76709819D01*
X233120603Y-76700000D01*
X235827959Y-76700000D01*
X235894998Y-76719685D01*
G37*
%TD.AperFunction*%
%TD*%
%TA.AperFunction,Conductor*%
%TO.N,GND*%
G36*
X237503677Y-77539549D02*
G01*
X237681448Y-77590417D01*
X237688895Y-77591079D01*
X237690502Y-77591222D01*
X237711615Y-77594959D01*
X237724820Y-77598498D01*
X237768502Y-77604248D01*
X237778007Y-77605500D01*
X237778008Y-77605500D01*
X237970500Y-77605500D01*
X238037539Y-77625185D01*
X238083294Y-77677989D01*
X238094500Y-77729500D01*
X238094500Y-79364947D01*
X238074815Y-79431986D01*
X238022011Y-79477741D01*
X237988154Y-79487684D01*
X237978845Y-79489023D01*
X237937002Y-79487904D01*
X237894748Y-79479500D01*
X237105252Y-79479500D01*
X237105247Y-79479500D01*
X237105245Y-79479500D01*
X237085434Y-79483440D01*
X237084403Y-79483347D01*
X237023012Y-79495560D01*
X237012674Y-79497617D01*
X237003594Y-79498511D01*
X236999999Y-79500000D01*
X236986936Y-79513062D01*
X236986934Y-79513065D01*
X236985637Y-79517484D01*
X236969762Y-79551439D01*
X236942919Y-79591612D01*
X236939023Y-79596358D01*
X236936132Y-79601768D01*
X236936132Y-79601769D01*
X236936131Y-79601770D01*
X236924500Y-79660247D01*
X236924500Y-79660249D01*
X236924500Y-80094144D01*
X236922328Y-80117251D01*
X236918657Y-80136606D01*
X236886825Y-80198803D01*
X236886824Y-80198803D01*
X236881896Y-80204002D01*
X236839524Y-80233188D01*
X236823825Y-80239717D01*
X236819356Y-80245273D01*
X236810558Y-80250857D01*
X236768356Y-80275223D01*
X236738450Y-80287611D01*
X236707987Y-80295774D01*
X236675892Y-80300000D01*
X236029500Y-80300000D01*
X235962461Y-80280315D01*
X235916706Y-80227511D01*
X235905500Y-80176000D01*
X235905500Y-78435840D01*
X235925185Y-78368801D01*
X235977989Y-78323046D01*
X236047147Y-78313102D01*
X236053683Y-78314221D01*
X236077614Y-78318980D01*
X236080340Y-78319703D01*
X236085249Y-78320500D01*
X236874750Y-78320500D01*
X236878876Y-78320500D01*
X236886742Y-78318114D01*
X236889568Y-78317552D01*
X236933229Y-78308868D01*
X236933229Y-78308867D01*
X236933231Y-78308867D01*
X236999552Y-78264552D01*
X237043867Y-78198231D01*
X237043867Y-78198229D01*
X237043868Y-78198229D01*
X237055072Y-78141896D01*
X237055500Y-78139931D01*
X237055500Y-77723600D01*
X237075185Y-77656561D01*
X237127989Y-77610806D01*
X237177812Y-77599612D01*
X237266544Y-77598407D01*
X237334444Y-77581936D01*
X237388750Y-77560196D01*
X237400942Y-77553156D01*
X237430853Y-77540766D01*
X237437483Y-77538990D01*
X237503677Y-77539549D01*
G37*
%TD.AperFunction*%
%TD*%
%TA.AperFunction,Conductor*%
%TO.N,/Motors/ESC3/PHASE_A*%
G36*
X243968039Y-106117191D02*
G01*
X244013794Y-106169995D01*
X244025000Y-106221506D01*
X244025000Y-106241590D01*
X244024500Y-106251768D01*
X244024500Y-107043253D01*
X244025000Y-107053421D01*
X244025000Y-107197506D01*
X244088626Y-107197506D01*
X244136081Y-107206946D01*
X244146770Y-107211374D01*
X244205247Y-107223005D01*
X244205250Y-107223006D01*
X244596799Y-107223006D01*
X244663838Y-107242691D01*
X244709593Y-107295495D01*
X244720751Y-107350449D01*
X244713974Y-107594406D01*
X244709798Y-107623053D01*
X244699500Y-107661489D01*
X244699500Y-107773525D01*
X244703428Y-107788183D01*
X244707605Y-107823718D01*
X244700156Y-108091863D01*
X244678618Y-108158330D01*
X244663887Y-108176100D01*
X244639516Y-108200471D01*
X244583500Y-108297494D01*
X244583499Y-108297497D01*
X244554502Y-108405716D01*
X244554502Y-108517752D01*
X244583499Y-108625971D01*
X244639517Y-108722997D01*
X244639519Y-108722999D01*
X244643706Y-108727186D01*
X244677191Y-108788509D01*
X244679977Y-108818310D01*
X244656061Y-109679251D01*
X244634523Y-109745718D01*
X244594111Y-109783194D01*
X244559750Y-109803033D01*
X244559744Y-109803037D01*
X244480527Y-109882254D01*
X244480523Y-109882260D01*
X244424508Y-109979280D01*
X244424507Y-109979283D01*
X244395510Y-110087502D01*
X244395510Y-110199538D01*
X244424507Y-110307757D01*
X244480525Y-110404783D01*
X244559747Y-110484005D01*
X244568534Y-110489078D01*
X244616750Y-110539641D01*
X244630488Y-110599908D01*
X244628348Y-110676949D01*
X244606810Y-110743416D01*
X244552756Y-110787687D01*
X244504396Y-110797506D01*
X241797041Y-110797506D01*
X241730002Y-110777821D01*
X241684247Y-110725017D01*
X241674303Y-110655859D01*
X241679404Y-110634294D01*
X241925000Y-109897506D01*
X241925000Y-106221506D01*
X241944685Y-106154467D01*
X241997489Y-106108712D01*
X242049000Y-106097506D01*
X243901000Y-106097506D01*
X243968039Y-106117191D01*
G37*
%TD.AperFunction*%
%TD*%
%TA.AperFunction,Conductor*%
%TO.N,/Motors/ESC4/PHASE_A*%
G36*
X256968039Y-106117191D02*
G01*
X257013794Y-106169995D01*
X257025000Y-106221506D01*
X257025000Y-106241590D01*
X257024500Y-106251768D01*
X257024500Y-107043253D01*
X257025000Y-107053421D01*
X257025000Y-107197506D01*
X257088626Y-107197506D01*
X257136081Y-107206946D01*
X257146770Y-107211374D01*
X257205247Y-107223005D01*
X257205250Y-107223006D01*
X257596799Y-107223006D01*
X257663838Y-107242691D01*
X257709593Y-107295495D01*
X257720751Y-107350449D01*
X257713974Y-107594406D01*
X257709798Y-107623053D01*
X257699500Y-107661489D01*
X257699500Y-107773525D01*
X257703428Y-107788183D01*
X257707605Y-107823718D01*
X257700156Y-108091863D01*
X257678618Y-108158330D01*
X257663887Y-108176100D01*
X257639516Y-108200471D01*
X257583500Y-108297494D01*
X257583499Y-108297497D01*
X257554502Y-108405716D01*
X257554502Y-108517752D01*
X257583499Y-108625971D01*
X257639517Y-108722997D01*
X257639519Y-108722999D01*
X257643706Y-108727186D01*
X257677191Y-108788509D01*
X257679977Y-108818310D01*
X257656061Y-109679251D01*
X257634523Y-109745718D01*
X257594111Y-109783194D01*
X257559750Y-109803033D01*
X257559744Y-109803037D01*
X257480527Y-109882254D01*
X257480523Y-109882260D01*
X257424508Y-109979280D01*
X257424507Y-109979283D01*
X257395510Y-110087502D01*
X257395510Y-110199538D01*
X257424507Y-110307757D01*
X257480525Y-110404783D01*
X257559747Y-110484005D01*
X257568534Y-110489078D01*
X257616750Y-110539641D01*
X257630488Y-110599908D01*
X257628348Y-110676949D01*
X257606810Y-110743416D01*
X257552756Y-110787687D01*
X257504396Y-110797506D01*
X254797041Y-110797506D01*
X254730002Y-110777821D01*
X254684247Y-110725017D01*
X254674303Y-110655859D01*
X254679404Y-110634294D01*
X254925000Y-109897506D01*
X254925000Y-106221506D01*
X254944685Y-106154467D01*
X254997489Y-106108712D01*
X255049000Y-106097506D01*
X256901000Y-106097506D01*
X256968039Y-106117191D01*
G37*
%TD.AperFunction*%
%TD*%
%TA.AperFunction,Conductor*%
%TO.N,/Motors/ESC2/PHASE_C*%
G36*
X256920060Y-76707515D02*
G01*
X256933379Y-76711426D01*
X256992157Y-76749200D01*
X257021183Y-76812755D01*
X257021183Y-76812758D01*
X257022150Y-76819484D01*
X257017049Y-76876342D01*
X256803597Y-77516704D01*
X256797256Y-77535726D01*
X256775000Y-77602494D01*
X256775000Y-80302494D01*
X257092671Y-80302494D01*
X257127607Y-80307517D01*
X257142605Y-80311921D01*
X257201356Y-80349666D01*
X257202543Y-80351035D01*
X257230019Y-80405896D01*
X257231664Y-80413454D01*
X257234501Y-80439825D01*
X257234501Y-80535382D01*
X257263498Y-80643601D01*
X257319516Y-80740627D01*
X257319518Y-80740629D01*
X257326073Y-80747184D01*
X257347223Y-80775436D01*
X257359831Y-80798525D01*
X257375000Y-80857954D01*
X257375000Y-80969185D01*
X257373939Y-80985369D01*
X257368751Y-81024774D01*
X257370848Y-81030208D01*
X257371271Y-81040444D01*
X257371271Y-81086532D01*
X257368091Y-81097360D01*
X257373939Y-81141769D01*
X257375000Y-81157957D01*
X257375000Y-81260664D01*
X257369975Y-81295608D01*
X257365570Y-81310606D01*
X257327827Y-81369349D01*
X257326458Y-81370536D01*
X257271597Y-81398012D01*
X257264039Y-81399657D01*
X257237668Y-81402494D01*
X255663543Y-81402494D01*
X255628604Y-81397470D01*
X255615286Y-81393559D01*
X255556509Y-81355783D01*
X255527487Y-81292226D01*
X255527486Y-81292225D01*
X255525814Y-81280591D01*
X255525150Y-81250796D01*
X255525500Y-81247242D01*
X255525500Y-80457561D01*
X255525072Y-80455595D01*
X255513868Y-80399267D01*
X255513867Y-80399266D01*
X255513867Y-80399263D01*
X255495897Y-80372370D01*
X255475020Y-80305693D01*
X255475000Y-80303480D01*
X255475000Y-80302494D01*
X255461374Y-80302494D01*
X255413919Y-80293054D01*
X255404800Y-80289275D01*
X255404602Y-80289041D01*
X255403232Y-80288625D01*
X255359371Y-80279901D01*
X255344752Y-80276994D01*
X255344751Y-80276994D01*
X254905248Y-80276994D01*
X254905247Y-80276994D01*
X254893551Y-80279320D01*
X254846766Y-80288625D01*
X254840938Y-80290394D01*
X254840919Y-80290334D01*
X254824101Y-80295436D01*
X254800610Y-80300110D01*
X254776412Y-80302494D01*
X254299068Y-80302494D01*
X254232029Y-80282809D01*
X254186274Y-80230005D01*
X254176579Y-80197791D01*
X254171091Y-80162956D01*
X254171089Y-80162949D01*
X254171089Y-80162948D01*
X254159398Y-80125617D01*
X254156116Y-80112756D01*
X254152382Y-80093981D01*
X254150000Y-80069793D01*
X254150000Y-79695196D01*
X254152381Y-79671013D01*
X254153718Y-79664289D01*
X254156355Y-79653554D01*
X254162565Y-79632405D01*
X254169711Y-79552551D01*
X254164343Y-79502612D01*
X254165146Y-79498159D01*
X254163398Y-79489368D01*
X254162983Y-79487178D01*
X254162079Y-79482164D01*
X254161157Y-79478102D01*
X254152382Y-79433980D01*
X254150000Y-79409793D01*
X254150000Y-79035190D01*
X254152381Y-79011006D01*
X254156064Y-78992489D01*
X254160494Y-78977403D01*
X254167640Y-78897551D01*
X254161561Y-78840995D01*
X254159544Y-78841211D01*
X254160066Y-78822613D01*
X254152380Y-78783975D01*
X254150000Y-78759795D01*
X254150000Y-78385190D01*
X254152381Y-78361006D01*
X254156064Y-78342489D01*
X254160494Y-78327403D01*
X254167640Y-78247551D01*
X254161561Y-78190995D01*
X254159544Y-78191211D01*
X254160066Y-78172613D01*
X254152380Y-78133975D01*
X254150000Y-78109795D01*
X254150000Y-77768337D01*
X254146287Y-77729456D01*
X254146286Y-77729450D01*
X254137403Y-77683362D01*
X254136270Y-77677886D01*
X254132959Y-77670889D01*
X254124635Y-77645699D01*
X254120992Y-77638884D01*
X254117135Y-77634188D01*
X254116965Y-77633934D01*
X254107935Y-77618013D01*
X254097149Y-77595220D01*
X254097148Y-77595218D01*
X254094168Y-77588921D01*
X254094496Y-77588765D01*
X254085392Y-77568854D01*
X254080663Y-77553751D01*
X254075000Y-77516704D01*
X254075000Y-76844323D01*
X254080023Y-76809387D01*
X254084427Y-76794389D01*
X254122172Y-76735638D01*
X254123541Y-76734451D01*
X254178420Y-76706971D01*
X254185979Y-76705327D01*
X254212332Y-76702494D01*
X256885128Y-76702494D01*
X256920060Y-76707515D01*
G37*
%TD.AperFunction*%
%TD*%
%TA.AperFunction,Conductor*%
%TO.N,/Motors/ESC3/PHASE_C*%
G36*
X234971389Y-106102527D02*
G01*
X234984708Y-106106438D01*
X235043486Y-106144212D01*
X235072511Y-106207766D01*
X235074184Y-106219400D01*
X235074850Y-106249207D01*
X235074500Y-106252753D01*
X235074500Y-106252756D01*
X235074500Y-107042258D01*
X235086131Y-107100734D01*
X235086132Y-107100736D01*
X235086133Y-107100737D01*
X235104101Y-107127628D01*
X235124980Y-107194303D01*
X235125000Y-107196519D01*
X235125000Y-107197506D01*
X235138626Y-107197506D01*
X235186081Y-107206946D01*
X235196770Y-107211374D01*
X235247618Y-107221487D01*
X235250342Y-107222209D01*
X235255249Y-107223006D01*
X235694750Y-107223006D01*
X235698874Y-107223006D01*
X235706733Y-107220621D01*
X235713505Y-107219275D01*
X235753229Y-107211374D01*
X235753238Y-107211370D01*
X235759059Y-107209605D01*
X235759077Y-107209665D01*
X235775890Y-107204564D01*
X235799401Y-107199887D01*
X235823588Y-107197506D01*
X236300932Y-107197506D01*
X236367971Y-107217191D01*
X236413726Y-107269995D01*
X236423420Y-107302207D01*
X236428907Y-107337036D01*
X236428908Y-107337040D01*
X236440603Y-107374392D01*
X236443884Y-107387249D01*
X236447617Y-107406015D01*
X236450000Y-107430208D01*
X236450000Y-107804798D01*
X236447613Y-107829012D01*
X236446270Y-107835757D01*
X236443635Y-107846476D01*
X236437436Y-107867587D01*
X236437435Y-107867590D01*
X236430287Y-107947462D01*
X236430287Y-107947467D01*
X236435660Y-107997428D01*
X236434857Y-108001874D01*
X236436617Y-108010718D01*
X236437027Y-108012884D01*
X236437922Y-108017843D01*
X236438835Y-108021868D01*
X236447617Y-108066012D01*
X236450000Y-108090206D01*
X236450000Y-108464802D01*
X236447615Y-108489004D01*
X236447376Y-108490200D01*
X236447375Y-108490208D01*
X236443934Y-108507510D01*
X236439505Y-108522597D01*
X236432359Y-108602460D01*
X236438439Y-108659010D01*
X236440455Y-108658793D01*
X236439934Y-108677387D01*
X236447045Y-108713136D01*
X236447045Y-108713138D01*
X236447616Y-108716007D01*
X236450000Y-108740203D01*
X236450000Y-109114802D01*
X236447615Y-109139004D01*
X236447376Y-109140200D01*
X236447375Y-109140208D01*
X236443934Y-109157510D01*
X236439505Y-109172597D01*
X236432359Y-109252460D01*
X236438439Y-109309010D01*
X236440455Y-109308793D01*
X236439934Y-109327387D01*
X236447045Y-109363136D01*
X236447045Y-109363138D01*
X236447616Y-109366007D01*
X236450000Y-109390203D01*
X236450000Y-109731657D01*
X236453713Y-109770546D01*
X236453715Y-109770560D01*
X236459372Y-109799910D01*
X236462595Y-109816633D01*
X236463728Y-109822108D01*
X236467040Y-109829107D01*
X236473265Y-109847944D01*
X236473442Y-109847884D01*
X236476130Y-109855734D01*
X236476254Y-109855980D01*
X236477347Y-109857555D01*
X236483080Y-109866133D01*
X236492069Y-109881996D01*
X236505828Y-109911072D01*
X236505501Y-109911226D01*
X236514602Y-109931131D01*
X236519332Y-109946233D01*
X236525000Y-109983295D01*
X236525000Y-110655676D01*
X236519975Y-110690620D01*
X236515570Y-110705618D01*
X236477827Y-110764361D01*
X236476458Y-110765548D01*
X236421597Y-110793024D01*
X236414039Y-110794669D01*
X236387668Y-110797506D01*
X233714870Y-110797506D01*
X233679931Y-110792482D01*
X233666613Y-110788571D01*
X233607836Y-110750795D01*
X233578815Y-110687246D01*
X233577847Y-110680515D01*
X233582947Y-110623660D01*
X233825000Y-109897506D01*
X233825000Y-107197506D01*
X233507329Y-107197506D01*
X233472388Y-107192481D01*
X233457389Y-107188076D01*
X233398643Y-107150333D01*
X233397456Y-107148964D01*
X233369976Y-107094089D01*
X233368331Y-107086527D01*
X233365499Y-107060174D01*
X233365499Y-106964620D01*
X233365499Y-106964618D01*
X233336502Y-106856399D01*
X233280484Y-106759373D01*
X233273926Y-106752815D01*
X233252774Y-106724559D01*
X233240167Y-106701470D01*
X233225000Y-106642045D01*
X233225000Y-106530814D01*
X233226061Y-106514630D01*
X233231247Y-106475232D01*
X233229172Y-106469884D01*
X233228729Y-106459413D01*
X233228729Y-106413290D01*
X233231889Y-106402526D01*
X233226060Y-106358227D01*
X233225000Y-106342049D01*
X233225000Y-106239335D01*
X233230023Y-106204399D01*
X233234427Y-106189401D01*
X233272172Y-106130650D01*
X233273541Y-106129463D01*
X233328420Y-106101983D01*
X233335979Y-106100339D01*
X233362332Y-106097506D01*
X234936457Y-106097506D01*
X234971389Y-106102527D01*
G37*
%TD.AperFunction*%
%TD*%
%TA.AperFunction,Conductor*%
%TO.N,+BATT*%
G36*
X232765073Y-100902528D02*
G01*
X232772950Y-100904840D01*
X232783129Y-100907829D01*
X232837939Y-100941237D01*
X232840776Y-100944212D01*
X232847122Y-100950868D01*
X232855749Y-100960945D01*
X232857517Y-100963249D01*
X232857522Y-100963254D01*
X232857523Y-100963255D01*
X232936745Y-101042477D01*
X233033771Y-101098495D01*
X233141990Y-101127492D01*
X233141992Y-101127492D01*
X233254024Y-101127492D01*
X233254026Y-101127492D01*
X233362245Y-101098495D01*
X233459271Y-101042477D01*
X233538493Y-100963255D01*
X233538494Y-100963252D01*
X233540226Y-100961521D01*
X233550267Y-100950342D01*
X233567180Y-100934216D01*
X233623516Y-100903457D01*
X233633641Y-100901001D01*
X233662872Y-100897506D01*
X236793580Y-100897506D01*
X236828512Y-100902527D01*
X236841831Y-100906438D01*
X236900609Y-100944212D01*
X236929635Y-101007767D01*
X236929636Y-101007778D01*
X236930845Y-101016191D01*
X236927881Y-101065921D01*
X236927048Y-101069029D01*
X236927048Y-101069034D01*
X236927048Y-101069036D01*
X236927048Y-101181072D01*
X236956045Y-101289291D01*
X237012063Y-101386317D01*
X237091285Y-101465539D01*
X237188311Y-101521557D01*
X237296530Y-101550554D01*
X237296532Y-101550554D01*
X237408564Y-101550554D01*
X237408566Y-101550554D01*
X237516785Y-101521557D01*
X237613811Y-101465539D01*
X237693033Y-101386317D01*
X237749051Y-101289291D01*
X237778048Y-101181072D01*
X237778048Y-101069036D01*
X237778047Y-101069034D01*
X237776987Y-101060980D01*
X237777343Y-101060933D01*
X237774336Y-101035780D01*
X237774666Y-101021904D01*
X237795939Y-100955351D01*
X237849816Y-100910865D01*
X237857634Y-100907516D01*
X237906445Y-100897506D01*
X238845857Y-100897506D01*
X238880784Y-100902527D01*
X238891637Y-100905713D01*
X238950418Y-100943483D01*
X238979447Y-101007037D01*
X238969508Y-101076196D01*
X238969507Y-101076197D01*
X238966323Y-101083170D01*
X238941207Y-101119346D01*
X238934523Y-101126029D01*
X238934512Y-101126043D01*
X238878498Y-101223062D01*
X238878497Y-101223063D01*
X238878493Y-101223074D01*
X238849499Y-101331286D01*
X238849499Y-101443322D01*
X238878496Y-101551541D01*
X238934514Y-101648567D01*
X239013736Y-101727789D01*
X239110762Y-101783807D01*
X239218981Y-101812804D01*
X239218983Y-101812804D01*
X239331015Y-101812804D01*
X239331017Y-101812804D01*
X239439236Y-101783807D01*
X239536262Y-101727789D01*
X239615484Y-101648567D01*
X239671502Y-101551541D01*
X239700499Y-101443322D01*
X239700499Y-101331286D01*
X239671502Y-101223067D01*
X239615484Y-101126041D01*
X239611237Y-101121794D01*
X239590088Y-101093544D01*
X239584666Y-101083614D01*
X239569813Y-101015344D01*
X239594227Y-100949879D01*
X239650157Y-100908007D01*
X239654365Y-100906438D01*
X239657372Y-100905317D01*
X239700686Y-100897506D01*
X245401000Y-100897506D01*
X245468039Y-100917191D01*
X245513794Y-100969995D01*
X245525000Y-101021506D01*
X245525000Y-102945473D01*
X245508387Y-103007473D01*
X245493500Y-103033257D01*
X245493496Y-103033265D01*
X245493491Y-103033282D01*
X245464498Y-103141488D01*
X245464498Y-103253523D01*
X245491292Y-103353522D01*
X245491293Y-103353523D01*
X245493495Y-103361742D01*
X245493496Y-103361745D01*
X245508386Y-103387535D01*
X245525000Y-103449536D01*
X245525000Y-103590286D01*
X245505315Y-103657325D01*
X245488681Y-103677967D01*
X245429519Y-103737128D01*
X245429512Y-103737137D01*
X245373497Y-103834158D01*
X245373496Y-103834159D01*
X245373492Y-103834170D01*
X245353973Y-103907019D01*
X245344498Y-103942382D01*
X245344498Y-104054418D01*
X245373495Y-104162637D01*
X245429513Y-104259663D01*
X245429515Y-104259665D01*
X245488681Y-104318831D01*
X245522166Y-104380154D01*
X245525000Y-104406512D01*
X245525000Y-104589392D01*
X245505315Y-104656431D01*
X245488681Y-104677073D01*
X245429519Y-104736234D01*
X245429512Y-104736243D01*
X245373497Y-104833264D01*
X245373496Y-104833265D01*
X245373492Y-104833276D01*
X245349604Y-104922432D01*
X245344498Y-104941488D01*
X245344498Y-105053524D01*
X245373495Y-105161743D01*
X245429513Y-105258769D01*
X245429515Y-105258771D01*
X245488681Y-105317937D01*
X245522166Y-105379260D01*
X245525000Y-105405618D01*
X245525000Y-105873506D01*
X245505315Y-105940545D01*
X245452511Y-105986300D01*
X245401000Y-105997506D01*
X245190708Y-105997506D01*
X245174516Y-105996444D01*
X245158541Y-105994340D01*
X245142647Y-105991179D01*
X245134372Y-105988962D01*
X245134371Y-105988962D01*
X245022335Y-105988962D01*
X245022333Y-105988962D01*
X245022327Y-105988963D01*
X245014065Y-105991177D01*
X244998164Y-105994340D01*
X244982178Y-105996445D01*
X244965997Y-105997506D01*
X244190038Y-105997506D01*
X244122999Y-105977821D01*
X244113050Y-105969719D01*
X244112798Y-105970050D01*
X244105750Y-105964660D01*
X244025940Y-105920017D01*
X244025935Y-105920015D01*
X243958903Y-105900332D01*
X243958899Y-105900331D01*
X243958898Y-105900331D01*
X243901000Y-105892006D01*
X243900996Y-105892006D01*
X242048992Y-105892006D01*
X242005313Y-105896703D01*
X241953825Y-105907903D01*
X241943627Y-105910396D01*
X241943624Y-105910397D01*
X241862916Y-105953405D01*
X241862915Y-105953406D01*
X241848064Y-105966275D01*
X241846973Y-105967220D01*
X241783417Y-105996244D01*
X241765771Y-105997506D01*
X240964582Y-105997506D01*
X240929646Y-105992483D01*
X240904404Y-105985071D01*
X240851659Y-105953775D01*
X240826951Y-105929067D01*
X240826949Y-105929065D01*
X240753276Y-105886530D01*
X240729925Y-105873048D01*
X240729924Y-105873047D01*
X240729923Y-105873047D01*
X240621704Y-105844050D01*
X240621703Y-105844050D01*
X240509668Y-105844050D01*
X240401456Y-105873044D01*
X240401445Y-105873048D01*
X240401444Y-105873049D01*
X240304422Y-105929064D01*
X240304421Y-105929065D01*
X240304416Y-105929069D01*
X240288361Y-105945125D01*
X240260109Y-105966275D01*
X240237024Y-105978881D01*
X240177595Y-105994050D01*
X239298154Y-105994050D01*
X239290607Y-105994979D01*
X239290604Y-105994954D01*
X239285499Y-105995838D01*
X239274627Y-105996909D01*
X239262481Y-105997506D01*
X238743325Y-105997506D01*
X238676286Y-105977821D01*
X238666337Y-105969719D01*
X238666085Y-105970050D01*
X238659037Y-105964660D01*
X238579227Y-105920017D01*
X238579222Y-105920015D01*
X238512190Y-105900332D01*
X238512186Y-105900331D01*
X238512185Y-105900331D01*
X238454287Y-105892006D01*
X238454283Y-105892006D01*
X238288879Y-105892006D01*
X238266899Y-105893184D01*
X238240552Y-105896017D01*
X238240550Y-105896018D01*
X238164039Y-105919976D01*
X238164034Y-105919977D01*
X238102711Y-105953463D01*
X238097010Y-105957731D01*
X238076916Y-105972773D01*
X238011454Y-105997190D01*
X238002607Y-105997506D01*
X236833898Y-105997506D01*
X236798957Y-105992481D01*
X236783958Y-105988076D01*
X236725212Y-105950333D01*
X236724025Y-105948964D01*
X236696545Y-105894089D01*
X236694900Y-105886527D01*
X236692068Y-105860174D01*
X236692068Y-105822361D01*
X236692068Y-105822359D01*
X236663071Y-105714140D01*
X236607053Y-105617114D01*
X236527831Y-105537892D01*
X236463147Y-105500546D01*
X236430807Y-105481875D01*
X236430806Y-105481874D01*
X236430805Y-105481874D01*
X236322586Y-105452877D01*
X236322585Y-105452877D01*
X236210550Y-105452877D01*
X236102338Y-105481871D01*
X236102327Y-105481875D01*
X236102326Y-105481876D01*
X236005305Y-105537891D01*
X236005296Y-105537898D01*
X235926089Y-105617105D01*
X235926082Y-105617114D01*
X235870067Y-105714135D01*
X235870066Y-105714136D01*
X235870062Y-105714147D01*
X235841068Y-105822359D01*
X235841068Y-105845068D01*
X235836044Y-105880006D01*
X235830126Y-105900159D01*
X235792350Y-105958936D01*
X235770588Y-105974047D01*
X235755419Y-105982332D01*
X235695981Y-105997506D01*
X235230828Y-105997506D01*
X235163789Y-105977821D01*
X235156818Y-105972767D01*
X235095819Y-105933566D01*
X235095814Y-105933563D01*
X235095809Y-105933560D01*
X235066155Y-105920017D01*
X235042608Y-105909263D01*
X235029292Y-105905353D01*
X235029262Y-105905345D01*
X235000651Y-105899122D01*
X235000621Y-105899116D01*
X234965703Y-105894096D01*
X234950215Y-105892989D01*
X234936457Y-105892006D01*
X234936449Y-105892006D01*
X233362343Y-105892006D01*
X233362332Y-105892006D01*
X233351187Y-105892603D01*
X233340375Y-105893182D01*
X233333901Y-105893878D01*
X233314014Y-105896016D01*
X233297230Y-105898735D01*
X233292311Y-105899532D01*
X233292307Y-105899532D01*
X233292306Y-105899533D01*
X233284747Y-105901177D01*
X233284742Y-105901178D01*
X233284733Y-105901181D01*
X233236421Y-105918226D01*
X233236405Y-105918233D01*
X233181538Y-105945707D01*
X233181525Y-105945715D01*
X233169469Y-105953775D01*
X233139146Y-105974047D01*
X233135695Y-105976354D01*
X233134648Y-105974789D01*
X233076434Y-105997105D01*
X233066468Y-105997506D01*
X232666830Y-105997506D01*
X232631889Y-105992481D01*
X232616890Y-105988076D01*
X232558144Y-105950333D01*
X232556957Y-105948964D01*
X232529477Y-105894089D01*
X232527832Y-105886527D01*
X232525000Y-105860174D01*
X232525000Y-105551797D01*
X232530022Y-105516864D01*
X232533933Y-105503545D01*
X232571706Y-105444768D01*
X232635258Y-105415743D01*
X232639090Y-105415192D01*
X232643685Y-105414532D01*
X232693415Y-105417496D01*
X232703240Y-105420128D01*
X232713980Y-105423006D01*
X232713982Y-105423006D01*
X232826014Y-105423006D01*
X232826016Y-105423006D01*
X232934235Y-105394009D01*
X233031261Y-105337991D01*
X233110483Y-105258769D01*
X233166501Y-105161743D01*
X233195498Y-105053524D01*
X233195498Y-104941488D01*
X233166501Y-104833269D01*
X233110483Y-104736243D01*
X233031261Y-104657021D01*
X232957184Y-104614252D01*
X232929438Y-104592431D01*
X232919862Y-104582387D01*
X232887849Y-104520283D01*
X232894494Y-104450730D01*
X232894499Y-104450717D01*
X232895103Y-104449209D01*
X232929001Y-104401609D01*
X232932794Y-104398322D01*
X232951995Y-104384648D01*
X233031261Y-104338885D01*
X233110483Y-104259663D01*
X233166501Y-104162637D01*
X233182453Y-104103102D01*
X235811114Y-104103102D01*
X235811114Y-104215138D01*
X235834797Y-104303522D01*
X235837147Y-104312295D01*
X235837148Y-104312299D01*
X235840108Y-104323345D01*
X235840111Y-104323357D01*
X235840113Y-104323361D01*
X235890208Y-104410128D01*
X235903324Y-104442887D01*
X235907760Y-104461175D01*
X235906233Y-104525351D01*
X235903298Y-104535345D01*
X235891711Y-104562402D01*
X235873498Y-104593948D01*
X235873497Y-104593951D01*
X235873495Y-104593956D01*
X235844498Y-104702175D01*
X235844498Y-104814211D01*
X235873495Y-104922430D01*
X235929513Y-105019456D01*
X236008735Y-105098678D01*
X236105761Y-105154696D01*
X236213980Y-105183693D01*
X236213982Y-105183693D01*
X236326014Y-105183693D01*
X236326016Y-105183693D01*
X236434235Y-105154696D01*
X236531261Y-105098678D01*
X236610483Y-105019456D01*
X236666501Y-104922430D01*
X236695498Y-104814211D01*
X236695498Y-104702175D01*
X236666501Y-104593956D01*
X236616402Y-104507182D01*
X236603285Y-104474418D01*
X236600072Y-104461173D01*
X236598849Y-104456132D01*
X236600375Y-104391966D01*
X236607487Y-104367748D01*
X236633117Y-104323357D01*
X236662114Y-104215138D01*
X236662114Y-104191488D01*
X240949500Y-104191488D01*
X240949500Y-104303524D01*
X240978497Y-104411743D01*
X241034515Y-104508769D01*
X241113737Y-104587991D01*
X241210763Y-104644009D01*
X241318982Y-104673006D01*
X241318984Y-104673006D01*
X241431016Y-104673006D01*
X241431018Y-104673006D01*
X241539237Y-104644009D01*
X241636263Y-104587991D01*
X241715485Y-104508769D01*
X241771503Y-104411743D01*
X241800500Y-104303524D01*
X241800500Y-104191488D01*
X241771503Y-104083269D01*
X241715485Y-103986243D01*
X241636263Y-103907021D01*
X241571579Y-103869675D01*
X241539239Y-103851004D01*
X241539238Y-103851003D01*
X241539237Y-103851003D01*
X241431018Y-103822006D01*
X241431017Y-103822006D01*
X241318982Y-103822006D01*
X241210770Y-103851000D01*
X241210759Y-103851004D01*
X241210758Y-103851005D01*
X241113737Y-103907020D01*
X241113728Y-103907027D01*
X241034521Y-103986234D01*
X241034514Y-103986243D01*
X240978499Y-104083264D01*
X240978498Y-104083265D01*
X240978494Y-104083276D01*
X240949500Y-104191488D01*
X236662114Y-104191488D01*
X236662114Y-104103102D01*
X236633117Y-103994883D01*
X236577099Y-103897857D01*
X236497877Y-103818635D01*
X236412075Y-103769097D01*
X236400853Y-103762618D01*
X236400852Y-103762617D01*
X236400851Y-103762617D01*
X236292632Y-103733620D01*
X236292631Y-103733620D01*
X236180596Y-103733620D01*
X236072384Y-103762614D01*
X236072373Y-103762618D01*
X236072372Y-103762619D01*
X235975351Y-103818634D01*
X235975342Y-103818641D01*
X235896135Y-103897848D01*
X235896128Y-103897857D01*
X235840113Y-103994878D01*
X235840112Y-103994879D01*
X235840108Y-103994890D01*
X235816429Y-104083265D01*
X235811114Y-104103102D01*
X233182453Y-104103102D01*
X233195498Y-104054418D01*
X233195498Y-103942382D01*
X233166501Y-103834163D01*
X233130810Y-103772345D01*
X233130022Y-103769097D01*
X233129442Y-103769414D01*
X233107481Y-103729197D01*
X233107482Y-103729197D01*
X233098226Y-103712246D01*
X233083375Y-103643976D01*
X233107789Y-103578515D01*
X233112892Y-103571698D01*
X233145012Y-103543194D01*
X233144815Y-103542937D01*
X233148422Y-103540169D01*
X233150162Y-103538624D01*
X233151261Y-103537991D01*
X233230483Y-103458769D01*
X233286501Y-103361743D01*
X233315498Y-103253524D01*
X233315498Y-103241488D01*
X240173459Y-103241488D01*
X240173459Y-103353524D01*
X240202456Y-103461743D01*
X240258474Y-103558769D01*
X240337696Y-103637991D01*
X240434722Y-103694009D01*
X240542941Y-103723006D01*
X240542943Y-103723006D01*
X240654975Y-103723006D01*
X240654977Y-103723006D01*
X240763196Y-103694009D01*
X240860222Y-103637991D01*
X240939444Y-103558769D01*
X240995462Y-103461743D01*
X241024459Y-103353524D01*
X241024459Y-103241488D01*
X240995462Y-103133269D01*
X240939444Y-103036243D01*
X240860222Y-102957021D01*
X240795538Y-102919675D01*
X240763198Y-102901004D01*
X240763197Y-102901003D01*
X240763196Y-102901003D01*
X240654977Y-102872006D01*
X240654976Y-102872006D01*
X240542941Y-102872006D01*
X240434729Y-102901000D01*
X240434718Y-102901004D01*
X240434717Y-102901005D01*
X240337696Y-102957020D01*
X240337687Y-102957027D01*
X240258480Y-103036234D01*
X240258473Y-103036243D01*
X240202458Y-103133264D01*
X240202457Y-103133265D01*
X240202453Y-103133276D01*
X240173459Y-103241488D01*
X233315498Y-103241488D01*
X233315498Y-103141488D01*
X233286501Y-103033269D01*
X233230483Y-102936243D01*
X233151261Y-102857021D01*
X233054235Y-102801003D01*
X232946016Y-102772006D01*
X232946015Y-102772006D01*
X232833980Y-102772006D01*
X232741529Y-102796778D01*
X232741527Y-102796778D01*
X232724852Y-102801246D01*
X232693666Y-102813730D01*
X232680180Y-102817001D01*
X232610390Y-102813673D01*
X232553478Y-102773142D01*
X232553443Y-102773098D01*
X232552439Y-102771820D01*
X232528189Y-102718683D01*
X232527241Y-102713764D01*
X232525000Y-102690298D01*
X232525000Y-101039335D01*
X232530023Y-101004399D01*
X232534427Y-100989401D01*
X232572172Y-100930650D01*
X232573541Y-100929463D01*
X232628420Y-100901983D01*
X232635979Y-100900339D01*
X232662332Y-100897506D01*
X232730141Y-100897506D01*
X232765073Y-100902528D01*
G37*
%TD.AperFunction*%
%TD*%
%TA.AperFunction,Conductor*%
%TO.N,+BATT*%
G36*
X233502001Y-81519685D02*
G01*
X233511949Y-81527786D01*
X233512202Y-81527456D01*
X233519249Y-81532845D01*
X233599059Y-81577488D01*
X233599063Y-81577490D01*
X233666102Y-81597175D01*
X233724000Y-81605500D01*
X235575991Y-81605500D01*
X235576000Y-81605500D01*
X235619684Y-81600803D01*
X235659460Y-81592150D01*
X235671174Y-81589602D01*
X235671190Y-81589598D01*
X235671195Y-81589597D01*
X235681373Y-81587110D01*
X235762085Y-81544100D01*
X235778027Y-81530285D01*
X235841583Y-81501262D01*
X235859229Y-81500000D01*
X236660418Y-81500000D01*
X236695350Y-81505021D01*
X236720594Y-81512434D01*
X236773340Y-81543730D01*
X236798051Y-81568441D01*
X236895077Y-81624459D01*
X237003296Y-81653456D01*
X237003298Y-81653456D01*
X237115330Y-81653456D01*
X237115332Y-81653456D01*
X237223551Y-81624459D01*
X237320577Y-81568441D01*
X237336636Y-81552381D01*
X237364888Y-81531231D01*
X237387980Y-81518623D01*
X237447405Y-81503456D01*
X238336832Y-81503456D01*
X238346869Y-81500942D01*
X238350373Y-81500597D01*
X238362523Y-81500000D01*
X238881675Y-81500000D01*
X238948714Y-81519685D01*
X238958662Y-81527786D01*
X238958915Y-81527456D01*
X238965962Y-81532845D01*
X239045772Y-81577488D01*
X239045776Y-81577490D01*
X239112815Y-81597175D01*
X239170713Y-81605500D01*
X239170717Y-81605500D01*
X239336120Y-81605500D01*
X239336121Y-81605500D01*
X239338662Y-81605363D01*
X239358089Y-81604322D01*
X239358096Y-81604321D01*
X239358100Y-81604321D01*
X239384447Y-81601488D01*
X239460964Y-81577529D01*
X239522287Y-81544044D01*
X239548083Y-81524732D01*
X239613546Y-81500316D01*
X239622393Y-81500000D01*
X240791102Y-81500000D01*
X240826038Y-81505023D01*
X240841036Y-81509427D01*
X240899787Y-81547172D01*
X240900974Y-81548541D01*
X240928450Y-81603402D01*
X240930095Y-81610960D01*
X240932932Y-81637331D01*
X240932932Y-81675147D01*
X240961929Y-81783366D01*
X241017947Y-81880392D01*
X241097169Y-81959614D01*
X241194195Y-82015632D01*
X241302414Y-82044629D01*
X241302416Y-82044629D01*
X241414448Y-82044629D01*
X241414450Y-82044629D01*
X241522669Y-82015632D01*
X241619695Y-81959614D01*
X241698917Y-81880392D01*
X241754935Y-81783366D01*
X241783932Y-81675147D01*
X241783932Y-81652436D01*
X241788954Y-81617504D01*
X241794872Y-81597349D01*
X241832644Y-81538572D01*
X241854428Y-81523448D01*
X241865356Y-81517482D01*
X241869607Y-81515162D01*
X241929022Y-81500000D01*
X242394171Y-81500000D01*
X242461210Y-81519685D01*
X242468152Y-81524717D01*
X242470399Y-81526161D01*
X242470402Y-81526164D01*
X242529179Y-81563940D01*
X242582383Y-81588239D01*
X242587007Y-81589597D01*
X242595690Y-81592147D01*
X242595697Y-81592149D01*
X242595699Y-81592149D01*
X242595701Y-81592150D01*
X242624355Y-81598384D01*
X242641171Y-81600802D01*
X242659286Y-81603407D01*
X242659288Y-81603407D01*
X242659294Y-81603408D01*
X242688543Y-81605500D01*
X244262650Y-81605500D01*
X244262668Y-81605500D01*
X244284649Y-81604321D01*
X244311020Y-81601484D01*
X244332743Y-81597962D01*
X244340301Y-81596317D01*
X244372514Y-81584947D01*
X244388619Y-81579263D01*
X244392163Y-81577488D01*
X244443482Y-81551786D01*
X244486081Y-81523306D01*
X244486082Y-81523304D01*
X244489304Y-81521151D01*
X244490359Y-81522729D01*
X244548491Y-81500407D01*
X244558530Y-81500000D01*
X244976000Y-81500000D01*
X245043039Y-81519685D01*
X245088794Y-81572489D01*
X245100000Y-81624000D01*
X245100000Y-81963537D01*
X245080315Y-82030576D01*
X245027511Y-82076331D01*
X244958353Y-82086275D01*
X244943908Y-82083312D01*
X244911021Y-82074500D01*
X244911020Y-82074500D01*
X244798984Y-82074500D01*
X244690772Y-82103494D01*
X244690761Y-82103498D01*
X244690760Y-82103499D01*
X244593739Y-82159514D01*
X244593730Y-82159521D01*
X244514523Y-82238728D01*
X244514516Y-82238737D01*
X244458501Y-82335758D01*
X244458500Y-82335759D01*
X244458496Y-82335770D01*
X244431856Y-82435195D01*
X244429502Y-82443982D01*
X244429502Y-82556018D01*
X244458499Y-82664237D01*
X244514517Y-82761263D01*
X244593739Y-82840485D01*
X244593740Y-82840486D01*
X244593742Y-82840487D01*
X244667812Y-82883251D01*
X244695555Y-82905068D01*
X244705133Y-82915113D01*
X244737149Y-82977215D01*
X244730508Y-83046768D01*
X244730489Y-83046814D01*
X244729885Y-83048321D01*
X244695986Y-83095905D01*
X244692197Y-83099188D01*
X244672998Y-83112860D01*
X244593739Y-83158620D01*
X244593735Y-83158623D01*
X244593730Y-83158627D01*
X244514523Y-83237834D01*
X244514516Y-83237843D01*
X244458501Y-83334864D01*
X244458500Y-83334865D01*
X244458496Y-83334876D01*
X244437232Y-83414239D01*
X244429502Y-83443088D01*
X244429502Y-83555124D01*
X244453987Y-83646502D01*
X244458499Y-83663342D01*
X244458499Y-83663343D01*
X244494179Y-83725143D01*
X244494966Y-83728391D01*
X244495548Y-83728074D01*
X244526771Y-83785255D01*
X244541623Y-83853528D01*
X244517207Y-83918991D01*
X244512113Y-83925796D01*
X244477113Y-83956860D01*
X244477291Y-83957123D01*
X244475332Y-83958440D01*
X244474846Y-83958873D01*
X244473754Y-83959503D01*
X244473749Y-83959506D01*
X244473740Y-83959513D01*
X244394518Y-84038734D01*
X244394516Y-84038737D01*
X244338501Y-84135758D01*
X244338500Y-84135759D01*
X244338496Y-84135770D01*
X244309502Y-84243982D01*
X244309502Y-84356018D01*
X244338499Y-84464237D01*
X244394517Y-84561263D01*
X244473739Y-84640485D01*
X244570765Y-84696503D01*
X244678984Y-84725500D01*
X244678986Y-84725500D01*
X244791018Y-84725500D01*
X244791020Y-84725500D01*
X244899239Y-84696503D01*
X244914001Y-84687979D01*
X244981897Y-84671507D01*
X245047924Y-84694358D01*
X245091116Y-84749278D01*
X245100000Y-84795367D01*
X245100000Y-86476000D01*
X245080315Y-86543039D01*
X245027511Y-86588794D01*
X244976000Y-86600000D01*
X240831420Y-86600000D01*
X240796481Y-86594976D01*
X240783163Y-86591065D01*
X240724386Y-86553289D01*
X240695365Y-86489740D01*
X240694154Y-86481319D01*
X240697120Y-86431572D01*
X240697952Y-86428470D01*
X240697952Y-86316434D01*
X240668955Y-86208215D01*
X240612937Y-86111189D01*
X240533715Y-86031967D01*
X240451522Y-85984513D01*
X240436691Y-85975950D01*
X240436690Y-85975949D01*
X240436689Y-85975949D01*
X240328470Y-85946952D01*
X240328469Y-85946952D01*
X240216434Y-85946952D01*
X240108222Y-85975946D01*
X240108211Y-85975950D01*
X240108210Y-85975951D01*
X240011189Y-86031966D01*
X240011180Y-86031973D01*
X239931973Y-86111180D01*
X239931966Y-86111189D01*
X239875951Y-86208210D01*
X239875950Y-86208211D01*
X239875946Y-86208222D01*
X239846952Y-86316434D01*
X239846952Y-86428470D01*
X239848013Y-86436532D01*
X239847657Y-86436578D01*
X239850663Y-86461729D01*
X239850333Y-86475602D01*
X239829060Y-86542154D01*
X239775196Y-86586635D01*
X239770587Y-86588609D01*
X239767380Y-86589982D01*
X239718555Y-86600000D01*
X238779143Y-86600000D01*
X238744208Y-86594977D01*
X238733354Y-86591790D01*
X238674576Y-86554016D01*
X238645551Y-86490460D01*
X238655491Y-86421311D01*
X238658681Y-86414324D01*
X238683791Y-86378159D01*
X238690486Y-86371465D01*
X238746504Y-86274439D01*
X238775501Y-86166220D01*
X238775501Y-86054184D01*
X238746504Y-85945965D01*
X238690486Y-85848939D01*
X238611264Y-85769717D01*
X238546580Y-85732371D01*
X238514240Y-85713700D01*
X238514239Y-85713699D01*
X238514238Y-85713699D01*
X238406019Y-85684702D01*
X238406018Y-85684702D01*
X238293983Y-85684702D01*
X238185771Y-85713696D01*
X238185760Y-85713700D01*
X238185759Y-85713701D01*
X238088738Y-85769716D01*
X238088729Y-85769723D01*
X238009522Y-85848930D01*
X238009515Y-85848939D01*
X237953500Y-85945960D01*
X237953499Y-85945961D01*
X237953495Y-85945972D01*
X237930454Y-86031966D01*
X237924501Y-86054184D01*
X237924501Y-86166220D01*
X237953498Y-86274439D01*
X238009516Y-86371465D01*
X238009518Y-86371467D01*
X238013762Y-86375711D01*
X238021738Y-86390318D01*
X238034911Y-86403961D01*
X238040332Y-86413888D01*
X238044123Y-86431313D01*
X238047247Y-86437034D01*
X238046782Y-86443534D01*
X238055186Y-86482161D01*
X238030772Y-86547626D01*
X237974840Y-86589499D01*
X237974836Y-86589501D01*
X237967648Y-86592182D01*
X237924314Y-86600000D01*
X237700146Y-86600000D01*
X237665207Y-86594976D01*
X237651889Y-86591065D01*
X237638753Y-86582622D01*
X237623622Y-86578771D01*
X237609963Y-86564119D01*
X237593112Y-86553289D01*
X237586624Y-86539084D01*
X237575979Y-86527664D01*
X237572410Y-86507958D01*
X237564091Y-86489740D01*
X237562880Y-86481319D01*
X237564047Y-86461770D01*
X237563530Y-86458912D01*
X237564334Y-86456966D01*
X237565852Y-86431549D01*
X237565916Y-86431313D01*
X237566678Y-86428468D01*
X237571666Y-86409852D01*
X237571666Y-86297816D01*
X237542669Y-86189597D01*
X237486651Y-86092571D01*
X237407429Y-86013349D01*
X237342645Y-85975946D01*
X237310405Y-85957332D01*
X237310404Y-85957331D01*
X237310403Y-85957331D01*
X237202184Y-85928334D01*
X237202183Y-85928334D01*
X237090148Y-85928334D01*
X236981936Y-85957328D01*
X236981925Y-85957332D01*
X236981924Y-85957333D01*
X236884903Y-86013348D01*
X236884894Y-86013355D01*
X236805687Y-86092562D01*
X236805683Y-86092567D01*
X236795188Y-86110743D01*
X236773375Y-86138478D01*
X236762065Y-86149262D01*
X236699963Y-86181278D01*
X236698173Y-86181623D01*
X236636967Y-86177982D01*
X236605256Y-86167850D01*
X236601614Y-86168397D01*
X236586418Y-86165329D01*
X236526454Y-86149262D01*
X236514926Y-86146173D01*
X236514925Y-86146173D01*
X236402890Y-86146173D01*
X236294678Y-86175167D01*
X236294667Y-86175171D01*
X236294666Y-86175172D01*
X236197645Y-86231187D01*
X236197636Y-86231194D01*
X236118429Y-86310401D01*
X236118422Y-86310410D01*
X236062407Y-86407431D01*
X236062406Y-86407432D01*
X236062404Y-86407439D01*
X236040047Y-86490875D01*
X236026153Y-86523320D01*
X236018018Y-86536666D01*
X235966323Y-86583661D01*
X235958351Y-86587534D01*
X235904165Y-86600000D01*
X233450462Y-86600000D01*
X233415523Y-86594976D01*
X233402205Y-86591065D01*
X233343428Y-86553289D01*
X233314407Y-86489740D01*
X233313197Y-86481326D01*
X233316168Y-86431550D01*
X233317003Y-86428437D01*
X233323184Y-86405365D01*
X233329708Y-86381018D01*
X233329708Y-86268982D01*
X233300711Y-86160763D01*
X233244693Y-86063737D01*
X233165471Y-85984515D01*
X233068445Y-85928497D01*
X232960226Y-85899500D01*
X232960225Y-85899500D01*
X232848188Y-85899500D01*
X232773313Y-85919562D01*
X232738272Y-85923752D01*
X232724398Y-85923422D01*
X232657846Y-85902149D01*
X232613360Y-85848272D01*
X232613356Y-85848264D01*
X232610009Y-85840447D01*
X232600000Y-85791640D01*
X232600000Y-84143982D01*
X236600541Y-84143982D01*
X236600541Y-84256018D01*
X236629538Y-84364237D01*
X236685556Y-84461263D01*
X236764778Y-84540485D01*
X236861804Y-84596503D01*
X236970023Y-84625500D01*
X236970025Y-84625500D01*
X237082057Y-84625500D01*
X237082059Y-84625500D01*
X237190278Y-84596503D01*
X237287304Y-84540485D01*
X237366526Y-84461263D01*
X237422544Y-84364237D01*
X237451541Y-84256018D01*
X237451541Y-84143982D01*
X237422544Y-84035763D01*
X237366526Y-83938737D01*
X237287304Y-83859515D01*
X237216699Y-83818751D01*
X237190280Y-83803498D01*
X237190279Y-83803497D01*
X237190278Y-83803497D01*
X237082059Y-83774500D01*
X237082058Y-83774500D01*
X236970023Y-83774500D01*
X236861811Y-83803494D01*
X236861800Y-83803498D01*
X236861799Y-83803499D01*
X236764778Y-83859514D01*
X236764769Y-83859521D01*
X236685562Y-83938728D01*
X236685555Y-83938737D01*
X236629540Y-84035758D01*
X236629539Y-84035759D01*
X236629535Y-84035770D01*
X236602745Y-84135758D01*
X236600541Y-84143982D01*
X232600000Y-84143982D01*
X232600000Y-83397028D01*
X232605022Y-83362096D01*
X232610324Y-83344039D01*
X232643726Y-83289235D01*
X232651270Y-83282042D01*
X232674835Y-83264401D01*
X232716261Y-83240485D01*
X232762764Y-83193982D01*
X235824500Y-83193982D01*
X235824500Y-83306018D01*
X235853497Y-83414237D01*
X235909515Y-83511263D01*
X235988737Y-83590485D01*
X236085763Y-83646503D01*
X236193982Y-83675500D01*
X236193984Y-83675500D01*
X236306016Y-83675500D01*
X236306018Y-83675500D01*
X236414237Y-83646503D01*
X236511263Y-83590485D01*
X236590485Y-83511263D01*
X236646503Y-83414237D01*
X236675500Y-83306018D01*
X236675500Y-83193982D01*
X236646503Y-83085763D01*
X236590485Y-82988737D01*
X236511263Y-82909515D01*
X236431696Y-82863577D01*
X236414239Y-82853498D01*
X236414238Y-82853497D01*
X236414237Y-82853497D01*
X236306018Y-82824500D01*
X236306017Y-82824500D01*
X236193982Y-82824500D01*
X236085770Y-82853494D01*
X236085759Y-82853498D01*
X236085758Y-82853499D01*
X235988737Y-82909514D01*
X235988728Y-82909521D01*
X235909521Y-82988728D01*
X235909514Y-82988737D01*
X235853499Y-83085758D01*
X235853498Y-83085759D01*
X235853494Y-83085770D01*
X235829815Y-83174146D01*
X235824500Y-83193982D01*
X232762764Y-83193982D01*
X232795483Y-83161263D01*
X232823429Y-83112860D01*
X232839073Y-83085763D01*
X232851501Y-83064237D01*
X232880498Y-82956018D01*
X232880498Y-82843982D01*
X232851501Y-82735763D01*
X232821209Y-82683295D01*
X240929502Y-82683295D01*
X240929502Y-82795331D01*
X240945088Y-82853497D01*
X240947787Y-82863572D01*
X240947788Y-82863577D01*
X240958499Y-82903549D01*
X240958501Y-82903554D01*
X241008596Y-82990321D01*
X241021712Y-83023080D01*
X241026148Y-83041368D01*
X241024621Y-83105544D01*
X241021686Y-83115538D01*
X241010099Y-83142595D01*
X240991886Y-83174141D01*
X240991885Y-83174144D01*
X240991883Y-83174149D01*
X240962886Y-83282368D01*
X240962886Y-83394404D01*
X240991883Y-83502623D01*
X241047901Y-83599649D01*
X241127123Y-83678871D01*
X241224149Y-83734889D01*
X241332368Y-83763886D01*
X241332370Y-83763886D01*
X241444402Y-83763886D01*
X241444404Y-83763886D01*
X241552623Y-83734889D01*
X241649649Y-83678871D01*
X241728871Y-83599649D01*
X241784889Y-83502623D01*
X241813886Y-83394404D01*
X241813886Y-83282368D01*
X241784889Y-83174149D01*
X241734790Y-83087375D01*
X241721673Y-83054611D01*
X241720147Y-83048321D01*
X241717237Y-83036325D01*
X241718763Y-82972159D01*
X241721699Y-82962162D01*
X241733287Y-82935102D01*
X241751505Y-82903550D01*
X241780502Y-82795331D01*
X241780502Y-82683295D01*
X241751505Y-82575076D01*
X241695487Y-82478050D01*
X241616265Y-82398828D01*
X241551581Y-82361482D01*
X241519241Y-82342811D01*
X241519240Y-82342810D01*
X241519239Y-82342810D01*
X241411020Y-82313813D01*
X241411019Y-82313813D01*
X241298984Y-82313813D01*
X241190772Y-82342807D01*
X241190761Y-82342811D01*
X241190760Y-82342812D01*
X241093739Y-82398827D01*
X241093730Y-82398834D01*
X241014523Y-82478041D01*
X241014516Y-82478050D01*
X240958501Y-82575071D01*
X240958500Y-82575072D01*
X240958496Y-82575083D01*
X240941442Y-82638734D01*
X240929502Y-82683295D01*
X232821209Y-82683295D01*
X232795483Y-82638737D01*
X232716261Y-82559515D01*
X232677438Y-82537100D01*
X232649697Y-82515285D01*
X232636713Y-82501668D01*
X232605948Y-82445322D01*
X232603491Y-82435194D01*
X232600000Y-82405973D01*
X232600000Y-81641829D01*
X232605023Y-81606893D01*
X232605433Y-81605499D01*
X232609427Y-81591894D01*
X232647172Y-81533144D01*
X232648541Y-81531957D01*
X232703420Y-81504477D01*
X232710979Y-81502833D01*
X232737332Y-81500000D01*
X233434962Y-81500000D01*
X233502001Y-81519685D01*
G37*
%TD.AperFunction*%
%TD*%
%TA.AperFunction,Conductor*%
%TO.N,/Motors/ESC4/PHASE_C*%
G36*
X247971389Y-106102527D02*
G01*
X247984708Y-106106438D01*
X248043486Y-106144212D01*
X248072511Y-106207766D01*
X248074184Y-106219400D01*
X248074850Y-106249207D01*
X248074500Y-106252753D01*
X248074500Y-106252756D01*
X248074500Y-107042258D01*
X248086131Y-107100734D01*
X248086132Y-107100736D01*
X248086133Y-107100737D01*
X248104101Y-107127628D01*
X248124980Y-107194303D01*
X248125000Y-107196519D01*
X248125000Y-107197506D01*
X248138626Y-107197506D01*
X248186081Y-107206946D01*
X248196770Y-107211374D01*
X248247618Y-107221487D01*
X248250342Y-107222209D01*
X248255249Y-107223006D01*
X248694750Y-107223006D01*
X248698874Y-107223006D01*
X248706733Y-107220621D01*
X248713505Y-107219275D01*
X248753229Y-107211374D01*
X248753238Y-107211370D01*
X248759059Y-107209605D01*
X248759077Y-107209665D01*
X248775890Y-107204564D01*
X248799401Y-107199887D01*
X248823588Y-107197506D01*
X249300932Y-107197506D01*
X249367971Y-107217191D01*
X249413726Y-107269995D01*
X249423420Y-107302207D01*
X249428907Y-107337036D01*
X249428908Y-107337040D01*
X249440603Y-107374392D01*
X249443884Y-107387249D01*
X249447617Y-107406015D01*
X249450000Y-107430208D01*
X249450000Y-107804798D01*
X249447613Y-107829012D01*
X249446270Y-107835757D01*
X249443635Y-107846476D01*
X249437436Y-107867587D01*
X249437435Y-107867590D01*
X249430287Y-107947462D01*
X249430287Y-107947467D01*
X249435660Y-107997428D01*
X249434857Y-108001874D01*
X249436617Y-108010718D01*
X249437027Y-108012884D01*
X249437922Y-108017843D01*
X249438835Y-108021868D01*
X249447617Y-108066012D01*
X249450000Y-108090206D01*
X249450000Y-108464802D01*
X249447615Y-108489004D01*
X249447376Y-108490200D01*
X249447375Y-108490208D01*
X249443934Y-108507510D01*
X249439505Y-108522597D01*
X249432359Y-108602460D01*
X249438439Y-108659010D01*
X249440455Y-108658793D01*
X249439934Y-108677387D01*
X249447045Y-108713136D01*
X249447045Y-108713138D01*
X249447616Y-108716007D01*
X249450000Y-108740203D01*
X249450000Y-109114802D01*
X249447615Y-109139004D01*
X249447376Y-109140200D01*
X249447375Y-109140208D01*
X249443934Y-109157510D01*
X249439505Y-109172597D01*
X249432359Y-109252460D01*
X249438439Y-109309010D01*
X249440455Y-109308793D01*
X249439934Y-109327387D01*
X249447045Y-109363136D01*
X249447045Y-109363138D01*
X249447616Y-109366007D01*
X249450000Y-109390203D01*
X249450000Y-109731657D01*
X249453713Y-109770546D01*
X249453715Y-109770560D01*
X249459372Y-109799910D01*
X249462595Y-109816633D01*
X249463728Y-109822108D01*
X249467040Y-109829107D01*
X249473265Y-109847944D01*
X249473442Y-109847884D01*
X249476130Y-109855734D01*
X249476254Y-109855980D01*
X249477347Y-109857555D01*
X249483080Y-109866133D01*
X249492069Y-109881996D01*
X249505828Y-109911072D01*
X249505501Y-109911226D01*
X249514602Y-109931131D01*
X249519332Y-109946233D01*
X249525000Y-109983295D01*
X249525000Y-110655676D01*
X249519975Y-110690620D01*
X249515570Y-110705618D01*
X249477827Y-110764361D01*
X249476458Y-110765548D01*
X249421597Y-110793024D01*
X249414039Y-110794669D01*
X249387668Y-110797506D01*
X246714870Y-110797506D01*
X246679931Y-110792482D01*
X246666613Y-110788571D01*
X246607836Y-110750795D01*
X246578815Y-110687246D01*
X246577847Y-110680515D01*
X246582947Y-110623660D01*
X246825000Y-109897506D01*
X246825000Y-107197506D01*
X246507329Y-107197506D01*
X246472388Y-107192481D01*
X246457389Y-107188076D01*
X246398643Y-107150333D01*
X246397456Y-107148964D01*
X246369976Y-107094089D01*
X246368331Y-107086527D01*
X246365499Y-107060174D01*
X246365499Y-106964620D01*
X246365499Y-106964618D01*
X246336502Y-106856399D01*
X246280484Y-106759373D01*
X246273926Y-106752815D01*
X246252774Y-106724559D01*
X246240167Y-106701470D01*
X246225000Y-106642045D01*
X246225000Y-106530814D01*
X246226061Y-106514630D01*
X246231247Y-106475232D01*
X246229172Y-106469884D01*
X246228729Y-106459413D01*
X246228729Y-106413290D01*
X246231889Y-106402526D01*
X246226060Y-106358227D01*
X246225000Y-106342049D01*
X246225000Y-106239335D01*
X246230023Y-106204399D01*
X246234427Y-106189401D01*
X246272172Y-106130650D01*
X246273541Y-106129463D01*
X246328420Y-106101983D01*
X246335979Y-106100339D01*
X246362332Y-106097506D01*
X247936457Y-106097506D01*
X247971389Y-106102527D01*
G37*
%TD.AperFunction*%
%TD*%
%TA.AperFunction,Conductor*%
%TO.N,GND*%
G36*
X246331911Y-107352227D02*
G01*
X246340813Y-107357436D01*
X246346310Y-107360968D01*
X246399482Y-107385249D01*
X246414481Y-107389654D01*
X246427354Y-107392454D01*
X246488678Y-107425936D01*
X246522165Y-107487258D01*
X246525000Y-107513621D01*
X246525000Y-109035684D01*
X246519975Y-109070625D01*
X246515807Y-109084817D01*
X246478030Y-109143593D01*
X246417221Y-109172188D01*
X246398444Y-109175318D01*
X246378055Y-109177006D01*
X245666830Y-109177006D01*
X245631889Y-109171981D01*
X245616890Y-109167576D01*
X245558144Y-109129833D01*
X245556957Y-109128464D01*
X245529477Y-109073589D01*
X245527832Y-109066027D01*
X245525000Y-109039674D01*
X245525000Y-107927430D01*
X245525207Y-107920273D01*
X245528334Y-107866186D01*
X245532353Y-107841247D01*
X245532440Y-107840921D01*
X245533423Y-107837254D01*
X245550500Y-107773524D01*
X245550500Y-107661488D01*
X245531328Y-107589934D01*
X245528164Y-107574027D01*
X245526061Y-107558053D01*
X245525000Y-107541868D01*
X245525000Y-107504964D01*
X245530022Y-107470031D01*
X245533933Y-107456712D01*
X245571706Y-107397935D01*
X245635258Y-107368910D01*
X245636899Y-107368674D01*
X245695080Y-107374237D01*
X245699812Y-107375875D01*
X245721247Y-107385665D01*
X245775762Y-107417139D01*
X245883981Y-107446136D01*
X245883983Y-107446136D01*
X245996015Y-107446136D01*
X245996017Y-107446136D01*
X246104236Y-107417139D01*
X246201262Y-107361121D01*
X246201262Y-107361120D01*
X246208301Y-107357057D01*
X246209466Y-107359076D01*
X246263465Y-107338195D01*
X246331911Y-107352227D01*
G37*
%TD.AperFunction*%
%TD*%
%TA.AperFunction,Conductor*%
%TO.N,/Motors/ESC3/PHASE_B*%
G36*
X238521326Y-106117191D02*
G01*
X238567081Y-106169995D01*
X238577025Y-106239153D01*
X238575904Y-106245699D01*
X238574500Y-106252756D01*
X238574500Y-107042258D01*
X238586131Y-107100734D01*
X238586132Y-107100736D01*
X238586133Y-107100737D01*
X238604101Y-107127628D01*
X238624980Y-107194303D01*
X238625000Y-107196519D01*
X238625000Y-107197506D01*
X238638626Y-107197506D01*
X238686081Y-107206946D01*
X238696770Y-107211374D01*
X238755247Y-107223005D01*
X238755250Y-107223006D01*
X239200840Y-107223006D01*
X239200840Y-107225895D01*
X239257327Y-107236522D01*
X239308109Y-107284511D01*
X239325000Y-107346990D01*
X239325000Y-110097506D01*
X239846992Y-110097506D01*
X239908992Y-110114119D01*
X239960763Y-110144009D01*
X240068982Y-110173006D01*
X240068984Y-110173006D01*
X240181016Y-110173006D01*
X240181018Y-110173006D01*
X240289237Y-110144009D01*
X240339000Y-110115277D01*
X240406900Y-110098805D01*
X240472927Y-110121657D01*
X240516117Y-110176578D01*
X240525000Y-110222665D01*
X240525000Y-110773506D01*
X240505315Y-110840545D01*
X240452511Y-110886300D01*
X240401000Y-110897506D01*
X237649000Y-110897506D01*
X237581961Y-110877821D01*
X237536206Y-110825017D01*
X237525000Y-110773506D01*
X237525000Y-109897506D01*
X237397089Y-109897506D01*
X237330050Y-109877821D01*
X237321603Y-109871882D01*
X237315397Y-109867120D01*
X237218373Y-109811103D01*
X237218372Y-109811102D01*
X237218371Y-109811102D01*
X237110152Y-109782105D01*
X236998116Y-109782105D01*
X236889897Y-109811102D01*
X236889894Y-109811103D01*
X236841500Y-109839044D01*
X236773600Y-109855517D01*
X236707573Y-109832664D01*
X236664382Y-109777743D01*
X236655500Y-109731657D01*
X236655500Y-109357755D01*
X236655499Y-109357753D01*
X236641485Y-109287296D01*
X236642761Y-109287042D01*
X236636681Y-109230492D01*
X236643695Y-109206604D01*
X236655499Y-109147258D01*
X236655500Y-109147256D01*
X236655500Y-108707755D01*
X236655499Y-108707753D01*
X236641485Y-108637296D01*
X236642761Y-108637042D01*
X236636681Y-108580492D01*
X236643695Y-108556604D01*
X236655499Y-108497258D01*
X236655500Y-108497256D01*
X236655500Y-108057755D01*
X236655499Y-108057753D01*
X236643867Y-107999274D01*
X236642080Y-107994959D01*
X236634610Y-107925490D01*
X236642082Y-107900045D01*
X236643864Y-107895741D01*
X236643867Y-107895737D01*
X236655500Y-107837254D01*
X236655500Y-107397758D01*
X236655500Y-107397755D01*
X236655499Y-107397753D01*
X236643868Y-107339276D01*
X236639194Y-107327993D01*
X236641158Y-107327179D01*
X236625020Y-107275635D01*
X236625000Y-107273423D01*
X236625000Y-106369229D01*
X236644685Y-106302190D01*
X236697489Y-106256435D01*
X236766647Y-106246491D01*
X236781087Y-106249452D01*
X236868982Y-106273004D01*
X236868984Y-106273004D01*
X236981016Y-106273004D01*
X236981018Y-106273004D01*
X237089237Y-106244007D01*
X237106682Y-106233935D01*
X237174581Y-106217460D01*
X237230683Y-106233931D01*
X237254593Y-106247736D01*
X237362812Y-106276733D01*
X237362814Y-106276733D01*
X237474846Y-106276733D01*
X237474848Y-106276733D01*
X237583067Y-106247736D01*
X237639342Y-106215245D01*
X237707239Y-106198773D01*
X237748796Y-106208073D01*
X237754920Y-106210609D01*
X237754928Y-106210614D01*
X237863147Y-106239611D01*
X237863149Y-106239611D01*
X237975181Y-106239611D01*
X237975183Y-106239611D01*
X238083402Y-106210614D01*
X238180428Y-106154596D01*
X238201199Y-106133825D01*
X238262522Y-106100340D01*
X238288880Y-106097506D01*
X238454287Y-106097506D01*
X238521326Y-106117191D01*
G37*
%TD.AperFunction*%
%TD*%
%TA.AperFunction,Conductor*%
%TO.N,/Motors/ESC2/PHASE_A*%
G36*
X248869998Y-76722179D02*
G01*
X248915753Y-76774983D01*
X248925697Y-76844141D01*
X248920596Y-76865706D01*
X248675000Y-77602494D01*
X248675000Y-81278494D01*
X248655315Y-81345533D01*
X248602511Y-81391288D01*
X248551000Y-81402494D01*
X246699000Y-81402494D01*
X246631961Y-81382809D01*
X246586206Y-81330005D01*
X246575000Y-81278494D01*
X246575000Y-81258409D01*
X246575500Y-81248241D01*
X246575500Y-80456756D01*
X246575000Y-80446578D01*
X246575000Y-80302494D01*
X246511374Y-80302494D01*
X246463919Y-80293054D01*
X246453229Y-80288625D01*
X246394752Y-80276994D01*
X246394748Y-80276994D01*
X246003200Y-80276994D01*
X245936161Y-80257309D01*
X245890406Y-80204505D01*
X245879248Y-80149551D01*
X245886025Y-79905584D01*
X245890200Y-79876948D01*
X245900500Y-79838512D01*
X245900500Y-79726476D01*
X245896571Y-79711815D01*
X245892394Y-79676284D01*
X245899843Y-79408132D01*
X245921380Y-79341670D01*
X245936109Y-79323902D01*
X245960483Y-79299529D01*
X246016501Y-79202503D01*
X246045498Y-79094284D01*
X246045498Y-78982248D01*
X246016501Y-78874029D01*
X245960483Y-78777003D01*
X245956292Y-78772812D01*
X245922807Y-78711489D01*
X245920022Y-78681699D01*
X245943937Y-77820746D01*
X245965475Y-77754281D01*
X246005888Y-77716805D01*
X246040253Y-77696965D01*
X246119475Y-77617743D01*
X246175493Y-77520717D01*
X246204490Y-77412498D01*
X246204490Y-77300462D01*
X246175493Y-77192243D01*
X246119475Y-77095217D01*
X246040253Y-77015995D01*
X246031460Y-77010918D01*
X245983247Y-76960352D01*
X245969511Y-76900090D01*
X245971651Y-76823051D01*
X245993189Y-76756584D01*
X246047243Y-76712313D01*
X246095603Y-76702494D01*
X248802959Y-76702494D01*
X248869998Y-76722179D01*
G37*
%TD.AperFunction*%
%TD*%
%TA.AperFunction,Conductor*%
%TO.N,GND*%
G36*
X238199920Y-87619685D02*
G01*
X238240268Y-87662000D01*
X238294374Y-87755714D01*
X238373596Y-87834936D01*
X238470622Y-87890954D01*
X238578841Y-87919951D01*
X238578843Y-87919951D01*
X238690875Y-87919951D01*
X238690877Y-87919951D01*
X238799096Y-87890954D01*
X238896122Y-87834936D01*
X238975344Y-87755714D01*
X239029450Y-87662000D01*
X239080017Y-87613784D01*
X239136837Y-87600000D01*
X245046144Y-87600000D01*
X245054638Y-87602494D01*
X245100000Y-87602494D01*
X245100000Y-88924500D01*
X240603728Y-88924500D01*
X240514584Y-88948386D01*
X240514581Y-88948387D01*
X240453960Y-88983387D01*
X240391960Y-89000000D01*
X234024000Y-89000000D01*
X233956961Y-88980315D01*
X233911206Y-88927511D01*
X233900000Y-88876000D01*
X233900000Y-87724000D01*
X233919685Y-87656961D01*
X233972489Y-87611206D01*
X234024000Y-87600000D01*
X238132881Y-87600000D01*
X238199920Y-87619685D01*
G37*
%TD.AperFunction*%
%TD*%
%TA.AperFunction,Conductor*%
%TO.N,GND*%
G36*
X250478677Y-77542043D02*
G01*
X250656448Y-77592911D01*
X250663895Y-77593573D01*
X250665502Y-77593716D01*
X250686615Y-77597453D01*
X250699820Y-77600992D01*
X250743502Y-77606742D01*
X250753007Y-77607994D01*
X250753008Y-77607994D01*
X250945500Y-77607994D01*
X251012539Y-77627679D01*
X251058294Y-77680483D01*
X251069500Y-77731994D01*
X251069500Y-79367441D01*
X251049815Y-79434480D01*
X250997011Y-79480235D01*
X250963154Y-79490178D01*
X250953845Y-79491517D01*
X250912002Y-79490398D01*
X250869748Y-79481994D01*
X250080252Y-79481994D01*
X250080247Y-79481994D01*
X250080245Y-79481994D01*
X250060434Y-79485934D01*
X250059403Y-79485841D01*
X249998012Y-79498054D01*
X249987674Y-79500111D01*
X249978594Y-79501005D01*
X249974999Y-79502494D01*
X249961936Y-79515556D01*
X249961934Y-79515559D01*
X249960637Y-79519978D01*
X249944762Y-79553933D01*
X249917919Y-79594106D01*
X249914023Y-79598852D01*
X249911132Y-79604262D01*
X249911132Y-79604263D01*
X249911131Y-79604264D01*
X249899500Y-79662741D01*
X249899500Y-79662743D01*
X249899500Y-80096638D01*
X249897328Y-80119745D01*
X249893657Y-80139100D01*
X249861825Y-80201297D01*
X249861824Y-80201297D01*
X249856896Y-80206496D01*
X249814524Y-80235682D01*
X249798825Y-80242211D01*
X249794356Y-80247767D01*
X249785558Y-80253351D01*
X249743356Y-80277717D01*
X249713450Y-80290105D01*
X249682987Y-80298268D01*
X249650892Y-80302494D01*
X249004500Y-80302494D01*
X248937461Y-80282809D01*
X248891706Y-80230005D01*
X248880500Y-80178494D01*
X248880500Y-78438334D01*
X248900185Y-78371295D01*
X248952989Y-78325540D01*
X249022147Y-78315596D01*
X249028683Y-78316715D01*
X249052614Y-78321474D01*
X249055340Y-78322197D01*
X249060249Y-78322994D01*
X249849750Y-78322994D01*
X249853876Y-78322994D01*
X249861742Y-78320608D01*
X249864568Y-78320046D01*
X249908229Y-78311362D01*
X249908229Y-78311361D01*
X249908231Y-78311361D01*
X249974552Y-78267046D01*
X250018867Y-78200725D01*
X250018867Y-78200723D01*
X250018868Y-78200723D01*
X250030072Y-78144390D01*
X250030500Y-78142425D01*
X250030500Y-77726094D01*
X250050185Y-77659055D01*
X250102989Y-77613300D01*
X250152812Y-77602106D01*
X250241544Y-77600901D01*
X250309444Y-77584430D01*
X250363750Y-77562690D01*
X250375942Y-77555650D01*
X250405853Y-77543260D01*
X250412483Y-77541484D01*
X250478677Y-77542043D01*
G37*
%TD.AperFunction*%
%TD*%
%TA.AperFunction,Conductor*%
%TO.N,+BATT*%
G36*
X251880784Y-100902527D02*
G01*
X251891637Y-100905713D01*
X251950418Y-100943483D01*
X251979447Y-101007037D01*
X251969508Y-101076196D01*
X251969507Y-101076197D01*
X251966323Y-101083170D01*
X251941207Y-101119346D01*
X251934523Y-101126029D01*
X251934512Y-101126043D01*
X251878498Y-101223062D01*
X251878497Y-101223063D01*
X251878493Y-101223074D01*
X251849499Y-101331286D01*
X251849499Y-101443322D01*
X251878496Y-101551541D01*
X251934514Y-101648567D01*
X252013736Y-101727789D01*
X252110762Y-101783807D01*
X252218981Y-101812804D01*
X252218983Y-101812804D01*
X252331015Y-101812804D01*
X252331017Y-101812804D01*
X252439236Y-101783807D01*
X252536262Y-101727789D01*
X252615484Y-101648567D01*
X252671502Y-101551541D01*
X252700499Y-101443322D01*
X252700499Y-101331286D01*
X252671502Y-101223067D01*
X252615484Y-101126041D01*
X252611237Y-101121794D01*
X252590088Y-101093544D01*
X252584666Y-101083614D01*
X252569813Y-101015344D01*
X252594227Y-100949879D01*
X252650157Y-100908007D01*
X252654036Y-100906560D01*
X252657372Y-100905317D01*
X252700686Y-100897506D01*
X257883170Y-100897506D01*
X257918106Y-100902529D01*
X257933104Y-100906933D01*
X257991855Y-100944678D01*
X257993042Y-100946047D01*
X258020518Y-101000908D01*
X258022163Y-101008466D01*
X258025000Y-101034837D01*
X258025000Y-105855676D01*
X258019975Y-105890618D01*
X258019222Y-105893183D01*
X258015570Y-105905618D01*
X257977827Y-105964361D01*
X257976458Y-105965548D01*
X257921597Y-105993024D01*
X257914039Y-105994669D01*
X257887668Y-105997506D01*
X257190038Y-105997506D01*
X257122999Y-105977821D01*
X257113050Y-105969719D01*
X257112798Y-105970050D01*
X257105750Y-105964660D01*
X257025940Y-105920017D01*
X257025935Y-105920015D01*
X256958903Y-105900332D01*
X256958899Y-105900331D01*
X256958898Y-105900331D01*
X256901000Y-105892006D01*
X256900996Y-105892006D01*
X255048992Y-105892006D01*
X255005313Y-105896703D01*
X254953825Y-105907903D01*
X254943627Y-105910396D01*
X254943624Y-105910397D01*
X254862916Y-105953405D01*
X254862915Y-105953406D01*
X254848064Y-105966275D01*
X254846973Y-105967220D01*
X254783417Y-105996244D01*
X254765771Y-105997506D01*
X253964582Y-105997506D01*
X253929646Y-105992483D01*
X253904404Y-105985071D01*
X253851659Y-105953775D01*
X253826951Y-105929067D01*
X253826949Y-105929065D01*
X253753276Y-105886530D01*
X253729925Y-105873048D01*
X253729924Y-105873047D01*
X253729923Y-105873047D01*
X253621704Y-105844050D01*
X253621703Y-105844050D01*
X253509668Y-105844050D01*
X253401456Y-105873044D01*
X253401445Y-105873048D01*
X253401444Y-105873049D01*
X253304422Y-105929064D01*
X253304421Y-105929065D01*
X253304416Y-105929069D01*
X253288361Y-105945125D01*
X253260109Y-105966275D01*
X253237024Y-105978881D01*
X253177595Y-105994050D01*
X252298154Y-105994050D01*
X252290607Y-105994979D01*
X252290604Y-105994954D01*
X252285499Y-105995838D01*
X252274627Y-105996909D01*
X252262481Y-105997506D01*
X251743325Y-105997506D01*
X251676286Y-105977821D01*
X251666337Y-105969719D01*
X251666085Y-105970050D01*
X251659037Y-105964660D01*
X251579227Y-105920017D01*
X251579222Y-105920015D01*
X251512190Y-105900332D01*
X251512186Y-105900331D01*
X251512185Y-105900331D01*
X251454287Y-105892006D01*
X251454283Y-105892006D01*
X251288879Y-105892006D01*
X251266899Y-105893184D01*
X251240552Y-105896017D01*
X251240550Y-105896018D01*
X251164039Y-105919976D01*
X251164034Y-105919977D01*
X251102711Y-105953463D01*
X251097010Y-105957731D01*
X251076916Y-105972773D01*
X251011454Y-105997190D01*
X251002607Y-105997506D01*
X249833898Y-105997506D01*
X249798957Y-105992481D01*
X249783958Y-105988076D01*
X249725212Y-105950333D01*
X249724025Y-105948964D01*
X249696545Y-105894089D01*
X249694900Y-105886527D01*
X249692068Y-105860174D01*
X249692068Y-105822361D01*
X249692068Y-105822359D01*
X249663071Y-105714140D01*
X249607053Y-105617114D01*
X249527831Y-105537892D01*
X249463147Y-105500546D01*
X249430807Y-105481875D01*
X249430806Y-105481874D01*
X249430805Y-105481874D01*
X249322586Y-105452877D01*
X249322585Y-105452877D01*
X249210550Y-105452877D01*
X249102338Y-105481871D01*
X249102327Y-105481875D01*
X249102326Y-105481876D01*
X249005305Y-105537891D01*
X249005296Y-105537898D01*
X248926089Y-105617105D01*
X248926082Y-105617114D01*
X248870067Y-105714135D01*
X248870066Y-105714136D01*
X248870062Y-105714147D01*
X248841068Y-105822359D01*
X248841068Y-105845068D01*
X248836044Y-105880006D01*
X248830126Y-105900159D01*
X248792350Y-105958936D01*
X248770588Y-105974047D01*
X248755419Y-105982332D01*
X248695981Y-105997506D01*
X248230828Y-105997506D01*
X248163789Y-105977821D01*
X248156818Y-105972767D01*
X248095819Y-105933566D01*
X248095814Y-105933563D01*
X248095809Y-105933560D01*
X248066155Y-105920017D01*
X248042608Y-105909263D01*
X248029292Y-105905353D01*
X248029262Y-105905345D01*
X248000651Y-105899122D01*
X248000621Y-105899116D01*
X247965703Y-105894096D01*
X247950215Y-105892989D01*
X247936457Y-105892006D01*
X247936449Y-105892006D01*
X246362343Y-105892006D01*
X246362332Y-105892006D01*
X246351187Y-105892603D01*
X246340375Y-105893182D01*
X246333901Y-105893878D01*
X246314014Y-105896016D01*
X246297230Y-105898735D01*
X246292311Y-105899532D01*
X246292307Y-105899532D01*
X246292306Y-105899533D01*
X246284747Y-105901177D01*
X246284742Y-105901178D01*
X246284733Y-105901181D01*
X246236421Y-105918226D01*
X246236405Y-105918233D01*
X246181538Y-105945707D01*
X246181525Y-105945715D01*
X246169469Y-105953775D01*
X246139146Y-105974047D01*
X246135695Y-105976354D01*
X246134648Y-105974789D01*
X246076434Y-105997105D01*
X246066468Y-105997506D01*
X245649000Y-105997506D01*
X245581961Y-105977821D01*
X245536206Y-105925017D01*
X245525000Y-105873506D01*
X245525000Y-105533968D01*
X245544685Y-105466929D01*
X245597489Y-105421174D01*
X245666647Y-105411230D01*
X245681086Y-105414192D01*
X245713980Y-105423006D01*
X245713982Y-105423006D01*
X245826014Y-105423006D01*
X245826016Y-105423006D01*
X245934235Y-105394009D01*
X246031261Y-105337991D01*
X246110483Y-105258769D01*
X246166501Y-105161743D01*
X246195498Y-105053524D01*
X246195498Y-104941488D01*
X246166501Y-104833269D01*
X246110483Y-104736243D01*
X246031261Y-104657021D01*
X245957184Y-104614252D01*
X245929438Y-104592431D01*
X245919862Y-104582387D01*
X245887849Y-104520283D01*
X245894494Y-104450730D01*
X245894499Y-104450717D01*
X245895103Y-104449209D01*
X245929001Y-104401609D01*
X245932794Y-104398322D01*
X245951995Y-104384648D01*
X246031261Y-104338885D01*
X246110483Y-104259663D01*
X246166501Y-104162637D01*
X246182453Y-104103102D01*
X248811114Y-104103102D01*
X248811114Y-104215138D01*
X248834797Y-104303522D01*
X248837147Y-104312295D01*
X248837148Y-104312299D01*
X248840108Y-104323345D01*
X248840111Y-104323357D01*
X248840113Y-104323361D01*
X248890208Y-104410128D01*
X248903324Y-104442887D01*
X248907760Y-104461175D01*
X248906233Y-104525351D01*
X248903298Y-104535345D01*
X248891711Y-104562402D01*
X248873498Y-104593948D01*
X248873497Y-104593951D01*
X248873495Y-104593956D01*
X248844498Y-104702175D01*
X248844498Y-104814211D01*
X248873495Y-104922430D01*
X248929513Y-105019456D01*
X249008735Y-105098678D01*
X249105761Y-105154696D01*
X249213980Y-105183693D01*
X249213982Y-105183693D01*
X249326014Y-105183693D01*
X249326016Y-105183693D01*
X249434235Y-105154696D01*
X249531261Y-105098678D01*
X249610483Y-105019456D01*
X249666501Y-104922430D01*
X249695498Y-104814211D01*
X249695498Y-104702175D01*
X249666501Y-104593956D01*
X249616402Y-104507182D01*
X249603285Y-104474418D01*
X249600072Y-104461173D01*
X249598849Y-104456132D01*
X249600375Y-104391966D01*
X249607487Y-104367748D01*
X249633117Y-104323357D01*
X249662114Y-104215138D01*
X249662114Y-104191488D01*
X253949500Y-104191488D01*
X253949500Y-104303524D01*
X253978497Y-104411743D01*
X254034515Y-104508769D01*
X254113737Y-104587991D01*
X254210763Y-104644009D01*
X254318982Y-104673006D01*
X254318984Y-104673006D01*
X254431016Y-104673006D01*
X254431018Y-104673006D01*
X254539237Y-104644009D01*
X254636263Y-104587991D01*
X254715485Y-104508769D01*
X254771503Y-104411743D01*
X254800500Y-104303524D01*
X254800500Y-104191488D01*
X254771503Y-104083269D01*
X254715485Y-103986243D01*
X254636263Y-103907021D01*
X254571579Y-103869675D01*
X254539239Y-103851004D01*
X254539238Y-103851003D01*
X254539237Y-103851003D01*
X254431018Y-103822006D01*
X254431017Y-103822006D01*
X254318982Y-103822006D01*
X254210770Y-103851000D01*
X254210759Y-103851004D01*
X254210758Y-103851005D01*
X254113737Y-103907020D01*
X254113728Y-103907027D01*
X254034521Y-103986234D01*
X254034514Y-103986243D01*
X253978499Y-104083264D01*
X253978498Y-104083265D01*
X253978494Y-104083276D01*
X253949500Y-104191488D01*
X249662114Y-104191488D01*
X249662114Y-104103102D01*
X249633117Y-103994883D01*
X249577099Y-103897857D01*
X249497877Y-103818635D01*
X249412075Y-103769097D01*
X249400853Y-103762618D01*
X249400852Y-103762617D01*
X249400851Y-103762617D01*
X249292632Y-103733620D01*
X249292631Y-103733620D01*
X249180596Y-103733620D01*
X249072384Y-103762614D01*
X249072373Y-103762618D01*
X249072372Y-103762619D01*
X248975351Y-103818634D01*
X248975342Y-103818641D01*
X248896135Y-103897848D01*
X248896128Y-103897857D01*
X248840113Y-103994878D01*
X248840112Y-103994879D01*
X248840108Y-103994890D01*
X248816429Y-104083265D01*
X248811114Y-104103102D01*
X246182453Y-104103102D01*
X246195498Y-104054418D01*
X246195498Y-103942382D01*
X246166501Y-103834163D01*
X246130810Y-103772345D01*
X246130022Y-103769097D01*
X246129442Y-103769414D01*
X246107481Y-103729197D01*
X246107482Y-103729197D01*
X246098226Y-103712246D01*
X246083375Y-103643976D01*
X246107789Y-103578515D01*
X246112892Y-103571698D01*
X246145012Y-103543194D01*
X246144815Y-103542937D01*
X246148422Y-103540169D01*
X246150162Y-103538624D01*
X246151261Y-103537991D01*
X246230483Y-103458769D01*
X246286501Y-103361743D01*
X246315498Y-103253524D01*
X246315498Y-103241488D01*
X253173459Y-103241488D01*
X253173459Y-103353524D01*
X253202456Y-103461743D01*
X253258474Y-103558769D01*
X253337696Y-103637991D01*
X253434722Y-103694009D01*
X253542941Y-103723006D01*
X253542943Y-103723006D01*
X253654975Y-103723006D01*
X253654977Y-103723006D01*
X253763196Y-103694009D01*
X253860222Y-103637991D01*
X253939444Y-103558769D01*
X253995462Y-103461743D01*
X254024459Y-103353524D01*
X254024459Y-103241488D01*
X253995462Y-103133269D01*
X253939444Y-103036243D01*
X253860222Y-102957021D01*
X253795538Y-102919675D01*
X253763198Y-102901004D01*
X253763197Y-102901003D01*
X253763196Y-102901003D01*
X253654977Y-102872006D01*
X253654976Y-102872006D01*
X253542941Y-102872006D01*
X253434729Y-102901000D01*
X253434718Y-102901004D01*
X253434717Y-102901005D01*
X253337696Y-102957020D01*
X253337687Y-102957027D01*
X253258480Y-103036234D01*
X253258473Y-103036243D01*
X253202458Y-103133264D01*
X253202457Y-103133265D01*
X253202453Y-103133276D01*
X253173459Y-103241488D01*
X246315498Y-103241488D01*
X246315498Y-103141488D01*
X246286501Y-103033269D01*
X246230483Y-102936243D01*
X246151261Y-102857021D01*
X246054235Y-102801003D01*
X245946016Y-102772006D01*
X245946015Y-102772006D01*
X245833980Y-102772006D01*
X245725768Y-102801000D01*
X245725757Y-102801004D01*
X245725753Y-102801006D01*
X245710998Y-102809525D01*
X245643098Y-102825996D01*
X245577071Y-102803143D01*
X245533882Y-102748221D01*
X245525000Y-102702137D01*
X245525000Y-101021506D01*
X245544685Y-100954467D01*
X245597489Y-100908712D01*
X245649000Y-100897506D01*
X251845857Y-100897506D01*
X251880784Y-100902527D01*
G37*
%TD.AperFunction*%
%TD*%
%TA.AperFunction,Conductor*%
%TO.N,+BATT*%
G36*
X245425465Y-81503554D02*
G01*
X245441441Y-81505656D01*
X245457363Y-81508822D01*
X245465629Y-81511038D01*
X245465631Y-81511038D01*
X245577662Y-81511038D01*
X245577663Y-81511038D01*
X245577665Y-81511038D01*
X245585934Y-81508821D01*
X245601846Y-81505657D01*
X245617827Y-81503554D01*
X245634005Y-81502494D01*
X246409962Y-81502494D01*
X246477001Y-81522179D01*
X246486949Y-81530280D01*
X246487202Y-81529950D01*
X246494249Y-81535339D01*
X246574059Y-81579982D01*
X246574063Y-81579984D01*
X246641102Y-81599669D01*
X246699000Y-81607994D01*
X248550991Y-81607994D01*
X248551000Y-81607994D01*
X248594684Y-81603297D01*
X248634460Y-81594644D01*
X248646174Y-81592096D01*
X248646190Y-81592092D01*
X248646195Y-81592091D01*
X248656373Y-81589604D01*
X248737085Y-81546594D01*
X248753027Y-81532779D01*
X248816583Y-81503756D01*
X248834229Y-81502494D01*
X249635418Y-81502494D01*
X249670350Y-81507515D01*
X249695594Y-81514928D01*
X249748340Y-81546224D01*
X249773051Y-81570935D01*
X249870077Y-81626953D01*
X249978296Y-81655950D01*
X249978298Y-81655950D01*
X250090330Y-81655950D01*
X250090332Y-81655950D01*
X250198551Y-81626953D01*
X250295577Y-81570935D01*
X250311636Y-81554875D01*
X250339888Y-81533725D01*
X250362980Y-81521117D01*
X250422405Y-81505950D01*
X251311832Y-81505950D01*
X251321869Y-81503436D01*
X251325373Y-81503091D01*
X251337523Y-81502494D01*
X251856675Y-81502494D01*
X251923714Y-81522179D01*
X251933662Y-81530280D01*
X251933915Y-81529950D01*
X251940962Y-81535339D01*
X252020772Y-81579982D01*
X252020776Y-81579984D01*
X252087815Y-81599669D01*
X252145713Y-81607994D01*
X252145717Y-81607994D01*
X252311120Y-81607994D01*
X252311121Y-81607994D01*
X252313662Y-81607857D01*
X252333089Y-81606816D01*
X252333096Y-81606815D01*
X252333100Y-81606815D01*
X252359447Y-81603982D01*
X252435964Y-81580023D01*
X252497287Y-81546538D01*
X252523083Y-81527226D01*
X252588546Y-81502810D01*
X252597393Y-81502494D01*
X253766102Y-81502494D01*
X253801038Y-81507517D01*
X253816036Y-81511921D01*
X253874787Y-81549666D01*
X253875974Y-81551035D01*
X253903450Y-81605896D01*
X253905095Y-81613454D01*
X253907932Y-81639825D01*
X253907932Y-81677641D01*
X253936929Y-81785860D01*
X253992947Y-81882886D01*
X254072169Y-81962108D01*
X254169195Y-82018126D01*
X254277414Y-82047123D01*
X254277416Y-82047123D01*
X254389448Y-82047123D01*
X254389450Y-82047123D01*
X254497669Y-82018126D01*
X254594695Y-81962108D01*
X254673917Y-81882886D01*
X254729935Y-81785860D01*
X254758932Y-81677641D01*
X254758932Y-81654930D01*
X254763954Y-81619998D01*
X254769872Y-81599843D01*
X254807644Y-81541066D01*
X254829428Y-81525942D01*
X254840356Y-81519976D01*
X254844607Y-81517656D01*
X254904022Y-81502494D01*
X255369171Y-81502494D01*
X255436210Y-81522179D01*
X255443152Y-81527211D01*
X255445399Y-81528655D01*
X255445402Y-81528658D01*
X255504179Y-81566434D01*
X255557383Y-81590733D01*
X255562007Y-81592091D01*
X255570690Y-81594641D01*
X255570697Y-81594643D01*
X255570699Y-81594643D01*
X255570701Y-81594644D01*
X255599355Y-81600878D01*
X255616171Y-81603296D01*
X255634286Y-81605901D01*
X255634288Y-81605901D01*
X255634294Y-81605902D01*
X255663543Y-81607994D01*
X257237650Y-81607994D01*
X257237668Y-81607994D01*
X257259649Y-81606815D01*
X257286020Y-81603978D01*
X257307743Y-81600456D01*
X257315301Y-81598811D01*
X257347514Y-81587441D01*
X257363619Y-81581757D01*
X257367163Y-81579982D01*
X257418482Y-81554280D01*
X257461081Y-81525800D01*
X257461082Y-81525798D01*
X257464304Y-81523645D01*
X257465359Y-81525223D01*
X257523491Y-81502901D01*
X257533530Y-81502494D01*
X257933170Y-81502494D01*
X257968106Y-81507517D01*
X257983104Y-81511921D01*
X258041855Y-81549666D01*
X258043042Y-81551035D01*
X258070518Y-81605896D01*
X258072163Y-81613454D01*
X258075000Y-81639825D01*
X258075000Y-81948201D01*
X258069975Y-81983142D01*
X258066064Y-81996459D01*
X258028287Y-82055235D01*
X257964738Y-82084256D01*
X257956323Y-82085466D01*
X257906582Y-82082503D01*
X257886022Y-82076994D01*
X257886021Y-82076994D01*
X257886020Y-82076994D01*
X257773984Y-82076994D01*
X257665772Y-82105988D01*
X257665761Y-82105992D01*
X257665760Y-82105993D01*
X257568739Y-82162008D01*
X257568730Y-82162015D01*
X257489523Y-82241222D01*
X257489516Y-82241231D01*
X257433501Y-82338252D01*
X257433500Y-82338253D01*
X257433496Y-82338264D01*
X257416600Y-82401324D01*
X257404502Y-82446476D01*
X257404502Y-82558512D01*
X257433499Y-82666731D01*
X257489517Y-82763757D01*
X257568739Y-82842979D01*
X257568740Y-82842980D01*
X257568742Y-82842981D01*
X257642812Y-82885745D01*
X257670555Y-82907562D01*
X257680133Y-82917607D01*
X257712149Y-82979709D01*
X257705508Y-83049262D01*
X257705489Y-83049308D01*
X257704885Y-83050815D01*
X257670986Y-83098399D01*
X257667197Y-83101682D01*
X257647998Y-83115354D01*
X257568739Y-83161114D01*
X257568735Y-83161117D01*
X257568730Y-83161121D01*
X257489523Y-83240328D01*
X257489516Y-83240337D01*
X257433501Y-83337358D01*
X257433500Y-83337359D01*
X257433496Y-83337370D01*
X257412232Y-83416733D01*
X257404502Y-83445582D01*
X257404502Y-83557618D01*
X257432832Y-83663345D01*
X257433499Y-83665836D01*
X257433499Y-83665837D01*
X257469179Y-83727637D01*
X257469966Y-83730885D01*
X257470548Y-83730568D01*
X257501771Y-83787749D01*
X257516623Y-83856022D01*
X257492207Y-83921485D01*
X257487113Y-83928290D01*
X257452113Y-83959354D01*
X257452291Y-83959617D01*
X257450332Y-83960934D01*
X257449846Y-83961367D01*
X257448754Y-83961997D01*
X257448749Y-83962000D01*
X257448740Y-83962007D01*
X257369518Y-84041228D01*
X257369516Y-84041231D01*
X257313501Y-84138252D01*
X257313500Y-84138253D01*
X257313496Y-84138264D01*
X257302904Y-84177797D01*
X257284502Y-84246476D01*
X257284502Y-84358512D01*
X257313499Y-84466731D01*
X257369517Y-84563757D01*
X257448739Y-84642979D01*
X257545765Y-84698997D01*
X257653984Y-84727994D01*
X257653986Y-84727994D01*
X257766018Y-84727994D01*
X257766020Y-84727994D01*
X257874239Y-84698997D01*
X257874244Y-84698994D01*
X257881749Y-84695886D01*
X257881828Y-84696078D01*
X257906325Y-84686269D01*
X257919815Y-84682997D01*
X257989602Y-84686322D01*
X258046496Y-84726825D01*
X258047500Y-84728101D01*
X258071806Y-84781297D01*
X258072756Y-84786223D01*
X258075000Y-84809704D01*
X258075000Y-86231455D01*
X258074005Y-86247131D01*
X258073459Y-86251409D01*
X258065561Y-86291119D01*
X258049500Y-86329892D01*
X258049500Y-86439411D01*
X258049500Y-86460664D01*
X258044475Y-86495608D01*
X258040070Y-86510606D01*
X258023625Y-86536199D01*
X258014729Y-86556538D01*
X258007441Y-86561388D01*
X258002327Y-86569349D01*
X258000958Y-86570536D01*
X257971627Y-86585225D01*
X257956565Y-86595251D01*
X257951445Y-86595333D01*
X257946097Y-86598012D01*
X257938539Y-86599657D01*
X257912168Y-86602494D01*
X253806420Y-86602494D01*
X253771481Y-86597470D01*
X253758163Y-86593559D01*
X253699386Y-86555783D01*
X253670365Y-86492236D01*
X253669275Y-86484655D01*
X253669155Y-86483819D01*
X253672120Y-86434065D01*
X253672952Y-86430964D01*
X253672952Y-86318928D01*
X253643955Y-86210709D01*
X253587937Y-86113683D01*
X253508715Y-86034461D01*
X253444031Y-85997115D01*
X253411691Y-85978444D01*
X253411690Y-85978443D01*
X253411689Y-85978443D01*
X253303470Y-85949446D01*
X253303469Y-85949446D01*
X253191434Y-85949446D01*
X253083222Y-85978440D01*
X253083211Y-85978444D01*
X253083210Y-85978445D01*
X252986189Y-86034460D01*
X252986180Y-86034467D01*
X252906973Y-86113674D01*
X252906966Y-86113683D01*
X252850951Y-86210704D01*
X252850950Y-86210705D01*
X252850946Y-86210716D01*
X252821952Y-86318928D01*
X252821952Y-86430967D01*
X252823013Y-86439026D01*
X252822657Y-86439072D01*
X252825663Y-86464223D01*
X252825333Y-86478096D01*
X252804060Y-86544648D01*
X252750196Y-86589129D01*
X252745587Y-86591103D01*
X252742380Y-86592476D01*
X252693555Y-86602494D01*
X251754143Y-86602494D01*
X251719208Y-86597471D01*
X251708354Y-86594284D01*
X251649576Y-86556510D01*
X251620551Y-86492954D01*
X251630491Y-86423805D01*
X251633681Y-86416818D01*
X251658791Y-86380653D01*
X251665486Y-86373959D01*
X251721504Y-86276933D01*
X251750501Y-86168714D01*
X251750501Y-86056678D01*
X251721504Y-85948459D01*
X251665486Y-85851433D01*
X251586264Y-85772211D01*
X251521580Y-85734865D01*
X251489240Y-85716194D01*
X251489239Y-85716193D01*
X251489238Y-85716193D01*
X251381019Y-85687196D01*
X251381018Y-85687196D01*
X251268983Y-85687196D01*
X251160771Y-85716190D01*
X251160760Y-85716194D01*
X251160759Y-85716195D01*
X251063738Y-85772210D01*
X251063729Y-85772217D01*
X250984522Y-85851424D01*
X250984515Y-85851433D01*
X250928500Y-85948454D01*
X250928499Y-85948455D01*
X250928495Y-85948466D01*
X250905454Y-86034460D01*
X250899501Y-86056678D01*
X250899501Y-86168714D01*
X250928498Y-86276933D01*
X250984516Y-86373959D01*
X250984518Y-86373961D01*
X250988762Y-86378205D01*
X251009911Y-86406455D01*
X251015332Y-86416382D01*
X251030186Y-86484655D01*
X251005772Y-86550120D01*
X250949840Y-86591993D01*
X250949836Y-86591995D01*
X250942648Y-86594676D01*
X250899314Y-86602494D01*
X245224000Y-86602494D01*
X245156961Y-86582809D01*
X245111206Y-86530005D01*
X245100000Y-86478494D01*
X245100000Y-84552031D01*
X245116613Y-84490030D01*
X245131505Y-84464237D01*
X245160502Y-84356018D01*
X245160502Y-84243982D01*
X245134376Y-84146476D01*
X249575541Y-84146476D01*
X249575541Y-84258512D01*
X249604538Y-84366731D01*
X249660556Y-84463757D01*
X249739778Y-84542979D01*
X249836804Y-84598997D01*
X249945023Y-84627994D01*
X249945025Y-84627994D01*
X250057057Y-84627994D01*
X250057059Y-84627994D01*
X250165278Y-84598997D01*
X250262304Y-84542979D01*
X250341526Y-84463757D01*
X250397544Y-84366731D01*
X250426541Y-84258512D01*
X250426541Y-84146476D01*
X250397544Y-84038257D01*
X250341526Y-83941231D01*
X250262304Y-83862009D01*
X250188740Y-83819537D01*
X250165280Y-83805992D01*
X250165279Y-83805991D01*
X250165278Y-83805991D01*
X250057059Y-83776994D01*
X250057058Y-83776994D01*
X249945023Y-83776994D01*
X249836811Y-83805988D01*
X249836800Y-83805992D01*
X249836799Y-83805993D01*
X249739778Y-83862008D01*
X249739769Y-83862015D01*
X249660562Y-83941222D01*
X249660555Y-83941231D01*
X249604540Y-84038252D01*
X249604539Y-84038253D01*
X249604535Y-84038264D01*
X249577745Y-84138252D01*
X249575541Y-84146476D01*
X245134376Y-84146476D01*
X245131505Y-84135763D01*
X245112295Y-84102490D01*
X245109054Y-84094480D01*
X245107049Y-84074276D01*
X245100000Y-84047968D01*
X245100000Y-83907218D01*
X245119685Y-83840179D01*
X245136319Y-83819537D01*
X245149868Y-83805988D01*
X245195487Y-83760369D01*
X245251505Y-83663343D01*
X245280502Y-83555124D01*
X245280502Y-83443088D01*
X245251505Y-83334869D01*
X245195487Y-83237843D01*
X245154120Y-83196476D01*
X248799500Y-83196476D01*
X248799500Y-83308512D01*
X248828497Y-83416731D01*
X248884515Y-83513757D01*
X248963737Y-83592979D01*
X249060763Y-83648997D01*
X249168982Y-83677994D01*
X249168984Y-83677994D01*
X249281016Y-83677994D01*
X249281018Y-83677994D01*
X249389237Y-83648997D01*
X249486263Y-83592979D01*
X249565485Y-83513757D01*
X249621503Y-83416731D01*
X249650500Y-83308512D01*
X249650500Y-83196476D01*
X249621503Y-83088257D01*
X249565485Y-82991231D01*
X249486263Y-82912009D01*
X249406696Y-82866071D01*
X249389239Y-82855992D01*
X249389238Y-82855991D01*
X249389237Y-82855991D01*
X249281018Y-82826994D01*
X249281017Y-82826994D01*
X249168982Y-82826994D01*
X249060770Y-82855988D01*
X249060759Y-82855992D01*
X249060758Y-82855993D01*
X248963737Y-82912008D01*
X248963728Y-82912015D01*
X248884521Y-82991222D01*
X248884514Y-82991231D01*
X248828499Y-83088252D01*
X248828498Y-83088253D01*
X248828494Y-83088264D01*
X248804815Y-83176640D01*
X248799500Y-83196476D01*
X245154120Y-83196476D01*
X245133633Y-83175989D01*
X245131111Y-83173137D01*
X245117825Y-83144806D01*
X245102834Y-83117350D01*
X245102204Y-83111494D01*
X245101446Y-83109877D01*
X245101769Y-83107452D01*
X245100000Y-83090993D01*
X245100000Y-82908112D01*
X245119685Y-82841073D01*
X245136319Y-82820431D01*
X245158927Y-82797823D01*
X245195487Y-82761263D01*
X245239062Y-82685789D01*
X253904502Y-82685789D01*
X253904502Y-82797825D01*
X253920088Y-82855991D01*
X253922787Y-82866066D01*
X253922788Y-82866071D01*
X253933499Y-82906043D01*
X253933501Y-82906048D01*
X253983596Y-82992815D01*
X253996712Y-83025574D01*
X254001148Y-83043862D01*
X253999621Y-83108038D01*
X253996686Y-83118032D01*
X253985099Y-83145089D01*
X253966886Y-83176635D01*
X253966885Y-83176638D01*
X253966883Y-83176643D01*
X253937886Y-83284862D01*
X253937886Y-83396898D01*
X253966883Y-83505117D01*
X254022901Y-83602143D01*
X254102123Y-83681365D01*
X254199149Y-83737383D01*
X254307368Y-83766380D01*
X254307370Y-83766380D01*
X254419402Y-83766380D01*
X254419404Y-83766380D01*
X254527623Y-83737383D01*
X254624649Y-83681365D01*
X254703871Y-83602143D01*
X254759889Y-83505117D01*
X254788886Y-83396898D01*
X254788886Y-83284862D01*
X254759889Y-83176643D01*
X254709790Y-83089869D01*
X254696673Y-83057105D01*
X254695147Y-83050815D01*
X254692237Y-83038819D01*
X254693763Y-82974653D01*
X254696699Y-82964656D01*
X254708287Y-82937596D01*
X254726505Y-82906044D01*
X254755502Y-82797825D01*
X254755502Y-82685789D01*
X254726505Y-82577570D01*
X254670487Y-82480544D01*
X254591265Y-82401322D01*
X254526581Y-82363976D01*
X254494241Y-82345305D01*
X254494240Y-82345304D01*
X254494239Y-82345304D01*
X254386020Y-82316307D01*
X254386019Y-82316307D01*
X254273984Y-82316307D01*
X254165772Y-82345301D01*
X254165761Y-82345305D01*
X254165760Y-82345306D01*
X254068739Y-82401321D01*
X254068730Y-82401328D01*
X253989523Y-82480535D01*
X253989516Y-82480544D01*
X253933501Y-82577565D01*
X253933500Y-82577566D01*
X253933496Y-82577577D01*
X253915280Y-82645565D01*
X253904502Y-82685789D01*
X245239062Y-82685789D01*
X245251505Y-82664237D01*
X245280502Y-82556018D01*
X245280502Y-82443982D01*
X245251505Y-82335763D01*
X245195487Y-82238737D01*
X245136318Y-82179568D01*
X245102834Y-82118244D01*
X245100000Y-82091887D01*
X245100000Y-81626494D01*
X245119685Y-81559455D01*
X245172489Y-81513700D01*
X245224000Y-81502494D01*
X245409289Y-81502494D01*
X245425465Y-81503554D01*
G37*
%TD.AperFunction*%
%TD*%
%TA.AperFunction,Conductor*%
%TO.N,GND*%
G36*
X234024555Y-98500615D02*
G01*
X234085157Y-98514447D01*
X234150001Y-98514446D01*
X234194171Y-98514446D01*
X234205829Y-98514446D01*
X234249999Y-98514446D01*
X234314843Y-98514447D01*
X234375445Y-98500615D01*
X234403038Y-98497506D01*
X236198840Y-98497506D01*
X236265879Y-98517191D01*
X236286521Y-98533825D01*
X236357463Y-98604767D01*
X236454489Y-98660785D01*
X236562708Y-98689782D01*
X236562710Y-98689782D01*
X236674742Y-98689782D01*
X236674744Y-98689782D01*
X236782963Y-98660785D01*
X236879989Y-98604767D01*
X236950931Y-98533825D01*
X237012254Y-98500340D01*
X237038612Y-98497506D01*
X245500000Y-98497506D01*
X245500000Y-99897506D01*
X234674016Y-99897506D01*
X234641923Y-99893281D01*
X234571831Y-99874500D01*
X234459795Y-99874500D01*
X234389703Y-99893281D01*
X234357610Y-99897506D01*
X234124016Y-99897506D01*
X234091923Y-99893281D01*
X234021831Y-99874500D01*
X233909795Y-99874500D01*
X233839703Y-99893281D01*
X233807610Y-99897506D01*
X233124288Y-99897506D01*
X233057249Y-99877821D01*
X233016901Y-99835507D01*
X233013867Y-99830252D01*
X232988234Y-99785854D01*
X232909012Y-99706632D01*
X232844328Y-99669286D01*
X232811988Y-99650615D01*
X232811987Y-99650614D01*
X232811986Y-99650614D01*
X232703767Y-99621617D01*
X232649000Y-99621617D01*
X232581961Y-99601932D01*
X232536206Y-99549128D01*
X232525000Y-99497617D01*
X232525000Y-98621506D01*
X232544685Y-98554467D01*
X232597489Y-98508712D01*
X232649000Y-98497506D01*
X233996962Y-98497506D01*
X234024555Y-98500615D01*
G37*
%TD.AperFunction*%
%TD*%
%TA.AperFunction,Conductor*%
%TO.N,GND*%
G36*
X257968106Y-78328017D02*
G01*
X257983104Y-78332421D01*
X258041855Y-78370166D01*
X258043042Y-78371535D01*
X258070518Y-78426396D01*
X258072163Y-78433954D01*
X258075000Y-78460325D01*
X258075000Y-79995034D01*
X258069975Y-80029975D01*
X258066064Y-80043292D01*
X258028287Y-80102068D01*
X257964729Y-80131090D01*
X257964721Y-80131091D01*
X257963113Y-80131322D01*
X257904935Y-80125766D01*
X257902601Y-80124958D01*
X257900195Y-80124125D01*
X257878750Y-80114333D01*
X257838373Y-80091022D01*
X257831844Y-80086011D01*
X257816632Y-80079710D01*
X257808470Y-80078636D01*
X257791381Y-80074057D01*
X257716019Y-80053864D01*
X257716018Y-80053864D01*
X257603983Y-80053864D01*
X257495771Y-80082858D01*
X257495760Y-80082862D01*
X257495759Y-80082863D01*
X257398733Y-80138880D01*
X257394956Y-80141399D01*
X257328255Y-80162202D01*
X257260896Y-80143641D01*
X257259162Y-80142547D01*
X257253687Y-80139029D01*
X257253676Y-80139024D01*
X257200504Y-80114745D01*
X257200500Y-80114744D01*
X257185526Y-80110347D01*
X257185505Y-80110341D01*
X257172640Y-80107543D01*
X257111317Y-80074057D01*
X257077833Y-80012733D01*
X257075000Y-79986377D01*
X257075000Y-78464314D01*
X257080022Y-78429381D01*
X257084189Y-78415189D01*
X257121962Y-78356413D01*
X257182793Y-78327810D01*
X257201605Y-78324677D01*
X257221968Y-78322994D01*
X257933170Y-78322994D01*
X257968106Y-78328017D01*
G37*
%TD.AperFunction*%
%TD*%
%TA.AperFunction,Conductor*%
%TO.N,/Motors/ESC1/PHASE_C*%
G36*
X243945060Y-76705021D02*
G01*
X243958379Y-76708932D01*
X244017157Y-76746706D01*
X244046183Y-76810261D01*
X244046183Y-76810264D01*
X244047150Y-76816990D01*
X244042049Y-76873848D01*
X243828597Y-77514210D01*
X243822256Y-77533232D01*
X243800000Y-77600000D01*
X243800000Y-80300000D01*
X244117671Y-80300000D01*
X244152607Y-80305023D01*
X244167605Y-80309427D01*
X244226356Y-80347172D01*
X244227543Y-80348541D01*
X244255019Y-80403402D01*
X244256664Y-80410960D01*
X244259501Y-80437331D01*
X244259501Y-80532888D01*
X244288498Y-80641107D01*
X244344516Y-80738133D01*
X244344518Y-80738135D01*
X244351073Y-80744690D01*
X244372223Y-80772942D01*
X244384831Y-80796031D01*
X244400000Y-80855460D01*
X244400000Y-80966691D01*
X244398939Y-80982875D01*
X244393751Y-81022280D01*
X244395848Y-81027714D01*
X244396271Y-81037950D01*
X244396271Y-81084038D01*
X244393091Y-81094866D01*
X244398939Y-81139275D01*
X244400000Y-81155463D01*
X244400000Y-81258170D01*
X244394975Y-81293114D01*
X244390570Y-81308112D01*
X244352827Y-81366855D01*
X244351458Y-81368042D01*
X244296597Y-81395518D01*
X244289039Y-81397163D01*
X244262668Y-81400000D01*
X242688543Y-81400000D01*
X242653604Y-81394976D01*
X242640286Y-81391065D01*
X242581509Y-81353289D01*
X242552487Y-81289732D01*
X242552486Y-81289731D01*
X242550814Y-81278097D01*
X242550150Y-81248302D01*
X242550500Y-81244748D01*
X242550500Y-80455067D01*
X242550072Y-80453101D01*
X242538868Y-80396773D01*
X242538867Y-80396772D01*
X242538867Y-80396769D01*
X242520897Y-80369876D01*
X242500020Y-80303199D01*
X242500000Y-80300986D01*
X242500000Y-80300000D01*
X242486374Y-80300000D01*
X242438919Y-80290560D01*
X242429800Y-80286781D01*
X242429602Y-80286547D01*
X242428232Y-80286131D01*
X242384371Y-80277407D01*
X242369752Y-80274500D01*
X242369751Y-80274500D01*
X241930248Y-80274500D01*
X241930247Y-80274500D01*
X241918551Y-80276826D01*
X241871766Y-80286131D01*
X241865938Y-80287900D01*
X241865919Y-80287840D01*
X241849101Y-80292942D01*
X241825610Y-80297616D01*
X241801412Y-80300000D01*
X241324068Y-80300000D01*
X241257029Y-80280315D01*
X241211274Y-80227511D01*
X241201579Y-80195297D01*
X241196091Y-80160462D01*
X241196089Y-80160455D01*
X241196089Y-80160454D01*
X241184398Y-80123123D01*
X241181116Y-80110262D01*
X241177382Y-80091487D01*
X241175000Y-80067299D01*
X241175000Y-79692702D01*
X241177381Y-79668519D01*
X241178718Y-79661795D01*
X241181355Y-79651060D01*
X241187565Y-79629911D01*
X241194711Y-79550057D01*
X241189343Y-79500118D01*
X241190146Y-79495665D01*
X241188398Y-79486874D01*
X241187983Y-79484684D01*
X241187079Y-79479670D01*
X241186157Y-79475608D01*
X241177382Y-79431486D01*
X241175000Y-79407299D01*
X241175000Y-79032696D01*
X241177381Y-79008512D01*
X241181064Y-78989995D01*
X241185494Y-78974909D01*
X241192640Y-78895057D01*
X241186561Y-78838501D01*
X241184544Y-78838717D01*
X241185066Y-78820119D01*
X241177380Y-78781481D01*
X241175000Y-78757301D01*
X241175000Y-78382696D01*
X241177381Y-78358512D01*
X241181064Y-78339995D01*
X241185494Y-78324909D01*
X241192640Y-78245057D01*
X241186561Y-78188501D01*
X241184544Y-78188717D01*
X241185066Y-78170119D01*
X241177380Y-78131481D01*
X241175000Y-78107301D01*
X241175000Y-77765843D01*
X241171287Y-77726962D01*
X241171286Y-77726956D01*
X241162403Y-77680868D01*
X241161270Y-77675392D01*
X241157959Y-77668395D01*
X241149635Y-77643205D01*
X241145992Y-77636390D01*
X241142135Y-77631694D01*
X241141965Y-77631440D01*
X241132935Y-77615519D01*
X241122149Y-77592726D01*
X241122148Y-77592724D01*
X241119168Y-77586427D01*
X241119496Y-77586271D01*
X241110392Y-77566360D01*
X241105663Y-77551257D01*
X241100000Y-77514210D01*
X241100000Y-76841829D01*
X241105023Y-76806893D01*
X241109427Y-76791895D01*
X241147172Y-76733144D01*
X241148541Y-76731957D01*
X241203420Y-76704477D01*
X241210979Y-76702833D01*
X241237332Y-76700000D01*
X243910128Y-76700000D01*
X243945060Y-76705021D01*
G37*
%TD.AperFunction*%
%TD*%
%TA.AperFunction,Conductor*%
%TO.N,Net-(R3-Pad2)*%
G36*
X264543039Y-94319685D02*
G01*
X264588794Y-94372489D01*
X264600000Y-94424000D01*
X264600000Y-101176000D01*
X264580315Y-101243039D01*
X264527511Y-101288794D01*
X264476000Y-101300000D01*
X261524000Y-101300000D01*
X261456961Y-101280315D01*
X261411206Y-101227511D01*
X261400000Y-101176000D01*
X261400000Y-94424000D01*
X261419685Y-94356961D01*
X261472489Y-94311206D01*
X261524000Y-94300000D01*
X264476000Y-94300000D01*
X264543039Y-94319685D01*
G37*
%TD.AperFunction*%
%TD*%
M02*
