%TF.GenerationSoftware,KiCad,Pcbnew,10.0.5*%
%TF.CreationDate,2026-09-20T01:47:09+02:00*%
%TF.ProjectId,espdrone,65737064-726f-46e6-952e-6b696361645f,rev?*%
%TF.SameCoordinates,Original*%
%TF.FileFunction,Legend,Bot*%
%TF.FilePolarity,Positive*%
%FSLAX46Y46*%
G04 Gerber Fmt 4.6, Leading zero omitted, Abs format (unit mm)*
G04 Created by KiCad (PCBNEW 10.0.5) date 2026-09-20 01:47:09*
%MOMM*%
%LPD*%
G01*
G04 APERTURE LIST*
%ADD10C,0.120000*%
%ADD11C,0.100000*%
%ADD12C,0.150000*%
%ADD13C,0.060000*%
%ADD14C,0.200000*%
%ADD15C,0.000000*%
%ADD16C,0.299999*%
%ADD17C,0.160000*%
%ADD18C,0.250000*%
G04 APERTURE END LIST*
%TO.C,C180*%
D10*
X243681077Y-82862961D02*
X243528574Y-83015464D01*
X244190194Y-83372078D02*
X244037691Y-83524581D01*
%TO.C,C12*%
X228646909Y-86877258D02*
X228799412Y-87029761D01*
X229156026Y-86368141D02*
X229308529Y-86520644D01*
%TO.C,D15*%
D11*
X252915615Y-85993108D02*
G75*
G02*
X252815613Y-85993108I-50001J0D01*
G01*
X252815613Y-85993108D02*
G75*
G02*
X252915615Y-85993108I50001J0D01*
G01*
%TO.C,C175*%
D10*
X256843893Y-109467620D02*
X256691390Y-109315117D01*
X257353010Y-108958503D02*
X257200507Y-108806000D01*
%TO.C,C89*%
X247439970Y-91738781D02*
X247638781Y-91539970D01*
X248161219Y-92460030D02*
X248360030Y-92261219D01*
%TO.C,C157*%
X241739775Y-112133412D02*
X241892278Y-111980909D01*
X242248892Y-112642529D02*
X242401395Y-112490026D01*
%TO.C,C153*%
X245113748Y-111462506D02*
X245636252Y-111462506D01*
X245113748Y-112932506D02*
X245636252Y-112932506D01*
%TO.C,C50*%
X254905771Y-87503308D02*
X255275238Y-87133841D01*
X255945218Y-88542755D02*
X256314685Y-88173288D01*
%TO.C,C135*%
X252735170Y-76130263D02*
X252582667Y-76282766D01*
X253244287Y-76639380D02*
X253091784Y-76791883D01*
%TO.C,C33*%
X226469190Y-98578307D02*
X226621693Y-98730810D01*
X226978307Y-98069190D02*
X227130810Y-98221693D01*
%TO.C,C8*%
X232838781Y-83860030D02*
X232639970Y-83661219D01*
X233560030Y-83138781D02*
X233361219Y-82939970D01*
%TO.C,C177*%
X258113748Y-111462506D02*
X258636252Y-111462506D01*
X258113748Y-112932506D02*
X258636252Y-112932506D01*
%TO.C,C131*%
X246744190Y-76624187D02*
X246896693Y-76471684D01*
X247253307Y-77133304D02*
X247405810Y-76980801D01*
%TO.C,C7*%
X235547430Y-85075248D02*
X235394927Y-84922745D01*
X236056547Y-84566131D02*
X235904044Y-84413628D01*
%TO.C,C93*%
X243280873Y-99330282D02*
X243433376Y-99482785D01*
X243789990Y-98821165D02*
X243942493Y-98973668D01*
%TO.C,J5*%
X260060228Y-85998298D02*
X260700228Y-85998298D01*
X262220228Y-85998298D02*
X262220228Y-86628298D01*
X262810228Y-83278298D02*
X260110228Y-83278298D01*
X262860228Y-85998298D02*
X262220228Y-85998298D01*
%TO.C,C105*%
X232511253Y-74565000D02*
X231988747Y-74565000D01*
X232511253Y-76035000D02*
X231988747Y-76035000D01*
%TO.C,U23*%
D12*
X250562347Y-82496229D02*
X250739123Y-82319452D01*
X250739123Y-82673006D02*
X250562347Y-82496229D01*
X253327134Y-85261017D02*
X253503911Y-85437793D01*
X253503911Y-79554665D02*
X253327134Y-79731441D01*
X253503911Y-85437793D02*
X253680688Y-85261017D01*
X253680688Y-79731441D02*
X253503911Y-79554665D01*
X256268699Y-82319452D02*
X256445475Y-82496229D01*
X256445475Y-82496229D02*
X256268699Y-82673006D01*
D13*
X256362338Y-82496229D02*
G75*
G02*
X256302338Y-82496229I-30000J0D01*
G01*
X256302338Y-82496229D02*
G75*
G02*
X256362338Y-82496229I30000J0D01*
G01*
D14*
X256693968Y-82800285D02*
G75*
G02*
X256493968Y-82800285I-100000J0D01*
G01*
X256493968Y-82800285D02*
G75*
G02*
X256693968Y-82800285I100000J0D01*
G01*
%TO.C,U5*%
D11*
X258545225Y-89887617D02*
X258651291Y-89781551D01*
X258580580Y-89922973D02*
X258545225Y-89887617D01*
X259004844Y-89427998D02*
X259110910Y-89321932D01*
X259110910Y-89321932D02*
X259146266Y-89357287D01*
X259676596Y-91018988D02*
X259641240Y-90983633D01*
X259782662Y-90912922D02*
X259676596Y-91018988D01*
X260206926Y-90417947D02*
X260242281Y-90453303D01*
X260242281Y-90453303D02*
X260136215Y-90559369D01*
X259266977Y-91054343D02*
G75*
G02*
X259166975Y-91054343I-50001J0D01*
G01*
X259166975Y-91054343D02*
G75*
G02*
X259266977Y-91054343I50001J0D01*
G01*
D13*
X259706596Y-91018988D02*
G75*
G02*
X259646596Y-91018988I-30000J0D01*
G01*
X259646596Y-91018988D02*
G75*
G02*
X259706596Y-91018988I30000J0D01*
G01*
D15*
G36*
X259853363Y-90488648D02*
G01*
X259711941Y-90630070D01*
X259429099Y-90347228D01*
X259570521Y-90205806D01*
X259853363Y-90488648D01*
G37*
%TO.C,C35*%
D10*
X256729490Y-100697274D02*
X256881993Y-100849777D01*
X257238607Y-100188157D02*
X257391110Y-100340660D01*
%TO.C,C1*%
X238895543Y-88634990D02*
X239265010Y-89004457D01*
X239934990Y-87595543D02*
X240304457Y-87965010D01*
%TO.C,C18*%
X239319190Y-97821693D02*
X239471693Y-97669190D01*
X239828307Y-98330810D02*
X239980810Y-98178307D01*
%TO.C,U25*%
D12*
X250679452Y-109235805D02*
X251117858Y-109674211D01*
X251117858Y-108797399D02*
X250679452Y-109235805D01*
X253182610Y-106732647D02*
X253621016Y-106294241D01*
X253621016Y-106294241D02*
X254059422Y-106732647D01*
X253621016Y-112177369D02*
X253182610Y-111738963D01*
X254059422Y-111738963D02*
X253621016Y-112177369D01*
X256124174Y-109674211D02*
X256562580Y-109235805D01*
X256562580Y-109235805D02*
X256124174Y-108797399D01*
D14*
X256408022Y-110225754D02*
G75*
G02*
X256208022Y-110225754I-100000J0D01*
G01*
X256208022Y-110225754D02*
G75*
G02*
X256408022Y-110225754I100000J0D01*
G01*
D13*
X256479443Y-109235805D02*
G75*
G02*
X256419443Y-109235805I-30000J0D01*
G01*
X256419443Y-109235805D02*
G75*
G02*
X256479443Y-109235805I30000J0D01*
G01*
%TO.C,U13*%
D10*
X239501625Y-99793674D02*
X239978922Y-100270971D01*
X239625369Y-99669931D02*
X239501625Y-99793674D01*
X241301212Y-101593261D02*
X241778509Y-102070558D01*
X241424955Y-97870344D02*
X241301212Y-97994088D01*
X241778509Y-102070558D02*
X241902252Y-101946814D01*
X241902252Y-98347641D02*
X241424955Y-97870344D01*
X243578095Y-100270971D02*
X243701839Y-100147228D01*
X243701839Y-100147228D02*
X243224542Y-99669931D01*
X239841036Y-99270415D02*
X239777397Y-98867364D01*
X239437985Y-99206776D01*
X239841036Y-99270415D01*
G36*
X239841036Y-99270415D02*
G01*
X239437985Y-99206776D01*
X239777397Y-98867364D01*
X239841036Y-99270415D01*
G37*
%TO.C,C29*%
X228386104Y-97895221D02*
X228233601Y-97742718D01*
X228895221Y-97386104D02*
X228742718Y-97233601D01*
%TO.C,C133*%
X248351108Y-74857471D02*
X248198605Y-75009974D01*
X248860225Y-75366588D02*
X248707722Y-75519091D01*
%TO.C,C182*%
X251919190Y-112250813D02*
X252071693Y-112403316D01*
X252428307Y-111741696D02*
X252580810Y-111894199D01*
%TO.C,C67*%
X232388781Y-100789970D02*
X232189970Y-100988781D01*
X233110030Y-101511219D02*
X232911219Y-101710030D01*
%TO.C,C83*%
X245008456Y-97196587D02*
X244855953Y-97349090D01*
X245517573Y-97705704D02*
X245365070Y-97858207D01*
%TO.C,C129*%
X245486252Y-74567494D02*
X244963748Y-74567494D01*
X245486252Y-76037494D02*
X244963748Y-76037494D01*
%TO.C,C213*%
X233434806Y-104125428D02*
X233587309Y-103972925D01*
X233943923Y-104634545D02*
X234096426Y-104482042D01*
%TO.C,Y2*%
X256335516Y-99065863D02*
X258753821Y-96647558D01*
X258400267Y-101130614D02*
X256335516Y-99065863D01*
%TO.C,U1*%
X226957613Y-92840812D02*
X227258134Y-93141332D01*
X227258134Y-92540292D02*
X226957613Y-92840812D01*
X233940293Y-85858133D02*
X234364557Y-85433868D01*
X234240813Y-100124012D02*
X233940293Y-99823491D01*
X234541333Y-99823491D02*
X234240813Y-100124012D01*
X241223492Y-93141332D02*
X241524013Y-92840812D01*
X241524013Y-92840812D02*
X241223492Y-92540292D01*
D16*
X235380761Y-85204059D02*
G75*
G02*
X235080763Y-85204059I-149999J0D01*
G01*
X235080763Y-85204059D02*
G75*
G02*
X235380761Y-85204059I149999J0D01*
G01*
%TO.C,U6*%
D10*
X227197499Y-102780000D02*
X227197499Y-102830000D01*
X227197499Y-103950000D02*
X227197499Y-104730000D01*
X227197499Y-105850000D02*
X227197499Y-105900000D01*
X227197499Y-105900000D02*
X229017499Y-105900000D01*
X229017499Y-102780000D02*
X227197499Y-102780000D01*
X229017499Y-102830000D02*
X229017499Y-102780000D01*
X229017499Y-105900000D02*
X229017499Y-105850000D01*
X229557499Y-102830000D02*
X229797499Y-102500000D01*
X229317499Y-102500000D01*
X229557499Y-102830000D01*
G36*
X229557499Y-102830000D02*
G01*
X229317499Y-102500000D01*
X229797499Y-102500000D01*
X229557499Y-102830000D01*
G37*
%TO.C,C45*%
X257603241Y-92177113D02*
X257450738Y-92024610D01*
X258112358Y-91667996D02*
X257959855Y-91515493D01*
%TO.C,C36*%
X259957907Y-97632442D02*
X259805404Y-97479939D01*
X260467024Y-97123325D02*
X260314521Y-96970822D01*
%TO.C,C151*%
X243843893Y-109467620D02*
X243691390Y-109315117D01*
X244353010Y-108958503D02*
X244200507Y-108806000D01*
%TO.C,U12*%
X242172720Y-96563964D02*
X242172720Y-96563964D01*
X242526273Y-96210411D02*
X242314141Y-96422543D01*
X242526273Y-96917517D02*
X242314141Y-96705385D01*
X243374802Y-95361882D02*
X243374802Y-95361882D01*
X243374802Y-97766046D02*
X243728355Y-98119599D01*
X243728355Y-95008329D02*
X243374802Y-95361882D01*
X243728355Y-98119599D02*
X244081908Y-97766046D01*
X244081908Y-95361882D02*
X243728355Y-95008329D01*
X244081908Y-97766046D02*
X244081908Y-97766046D01*
X244930437Y-96210411D02*
X244930437Y-96210411D01*
X244930437Y-96917517D02*
X245283990Y-96563964D01*
X245283990Y-96563964D02*
X244930437Y-96210411D01*
X242172720Y-96563964D02*
X241918162Y-96309406D01*
X241918162Y-96818522D01*
X242172720Y-96563964D01*
G36*
X242172720Y-96563964D02*
G01*
X241918162Y-96818522D01*
X241918162Y-96309406D01*
X242172720Y-96563964D01*
G37*
%TO.C,C38*%
X255234434Y-99601259D02*
X255081931Y-99753762D01*
X255743551Y-100110376D02*
X255591048Y-100262879D01*
%TO.C,C155*%
X243346693Y-110366696D02*
X243194190Y-110519199D01*
X243855810Y-110875813D02*
X243703307Y-111028316D01*
%TO.C,D16*%
D11*
X237784387Y-101506892D02*
G75*
G02*
X237684385Y-101506892I-50001J0D01*
G01*
X237684385Y-101506892D02*
G75*
G02*
X237784387Y-101506892I50001J0D01*
G01*
%TO.C,C183*%
D10*
X250355713Y-110860620D02*
X250508216Y-110708117D01*
X250864830Y-111369737D02*
X251017333Y-111217234D01*
%TO.C,C181*%
X254739775Y-112133412D02*
X254892278Y-111980909D01*
X255248892Y-112642529D02*
X255401395Y-112490026D01*
%TO.C,U16*%
D12*
X234062420Y-78261701D02*
X234500826Y-78700107D01*
X234500826Y-77823295D02*
X234062420Y-78261701D01*
X236565578Y-75758543D02*
X237003984Y-75320137D01*
X237003984Y-75320137D02*
X237442390Y-75758543D01*
X237003984Y-81203265D02*
X236565578Y-80764859D01*
X237442390Y-80764859D02*
X237003984Y-81203265D01*
X239507142Y-78700107D02*
X239945548Y-78261701D01*
X239945548Y-78261701D02*
X239507142Y-77823295D01*
D13*
X234205557Y-78261701D02*
G75*
G02*
X234145557Y-78261701I-30000J0D01*
G01*
X234145557Y-78261701D02*
G75*
G02*
X234205557Y-78261701I30000J0D01*
G01*
D14*
X234416978Y-77271752D02*
G75*
G02*
X234216978Y-77271752I-100000J0D01*
G01*
X234216978Y-77271752D02*
G75*
G02*
X234416978Y-77271752I100000J0D01*
G01*
%TO.C,C86*%
D10*
X244839970Y-93661219D02*
X245038781Y-93860030D01*
X245561219Y-92939970D02*
X245760030Y-93138781D01*
%TO.C,U4*%
X248751796Y-95000000D02*
X249140705Y-95388909D01*
X249140705Y-94611091D02*
X248751796Y-95000000D01*
X252761091Y-99009295D02*
X253150000Y-99398204D01*
X253150000Y-90601796D02*
X252761091Y-90990705D01*
X253150000Y-99398204D02*
X253538909Y-99009295D01*
X253538909Y-90990705D02*
X253150000Y-90601796D01*
X257159295Y-95388909D02*
X257548204Y-95000000D01*
X257548204Y-95000000D02*
X257159295Y-94611091D01*
X257258290Y-95997021D02*
X257321930Y-96400071D01*
X257661341Y-96060660D01*
X257258290Y-95997021D01*
G36*
X257661341Y-96060660D02*
G01*
X257321930Y-96400071D01*
X257258290Y-95997021D01*
X257661341Y-96060660D01*
G37*
%TO.C,D14*%
D11*
X239940615Y-85990614D02*
G75*
G02*
X239840613Y-85990614I-50001J0D01*
G01*
X239840613Y-85990614D02*
G75*
G02*
X239940615Y-85990614I50001J0D01*
G01*
%TO.C,C134*%
D10*
X251171693Y-75758304D02*
X251019190Y-75605801D01*
X251680810Y-75249187D02*
X251528307Y-75096684D01*
%TO.C,C37*%
X254008601Y-99482282D02*
X254161104Y-99329779D01*
X254517718Y-99991399D02*
X254670221Y-99838896D01*
%TO.C,U19*%
D12*
X247037420Y-78264195D02*
X247475826Y-78702601D01*
X247475826Y-77825789D02*
X247037420Y-78264195D01*
X249540578Y-75761037D02*
X249978984Y-75322631D01*
X249978984Y-75322631D02*
X250417390Y-75761037D01*
X249978984Y-81205759D02*
X249540578Y-80767353D01*
X250417390Y-80767353D02*
X249978984Y-81205759D01*
X252482142Y-78702601D02*
X252920548Y-78264195D01*
X252920548Y-78264195D02*
X252482142Y-77825789D01*
D13*
X247180557Y-78264195D02*
G75*
G02*
X247120557Y-78264195I-30000J0D01*
G01*
X247120557Y-78264195D02*
G75*
G02*
X247180557Y-78264195I30000J0D01*
G01*
D14*
X247391978Y-77274246D02*
G75*
G02*
X247191978Y-77274246I-100000J0D01*
G01*
X247191978Y-77274246D02*
G75*
G02*
X247391978Y-77274246I100000J0D01*
G01*
%TO.C,Y1*%
D10*
X230780841Y-83679605D02*
X232492040Y-85390804D01*
X232492040Y-85390804D02*
X230497999Y-87384845D01*
%TO.C,C216*%
X246434806Y-104125428D02*
X246587309Y-103972925D01*
X246943923Y-104634545D02*
X247096426Y-104482042D01*
%TO.C,C58*%
X227740581Y-100640000D02*
X227459419Y-100640000D01*
X227740581Y-101660000D02*
X227459419Y-101660000D01*
%TO.C,U14*%
D12*
X242257359Y-88000000D02*
X242745263Y-88487904D01*
X242745263Y-87512096D02*
X242257359Y-88000000D01*
X244732233Y-87646447D02*
X244378680Y-87646447D01*
X244732233Y-88353553D02*
X244378680Y-88353553D01*
X246012096Y-91740595D02*
X246429289Y-91323402D01*
X246012096Y-91754737D02*
X246012096Y-91740595D01*
X246012096Y-91754737D02*
X246500000Y-92242641D01*
X246500000Y-83757359D02*
X246012096Y-84245263D01*
X246500000Y-92242641D02*
X246987904Y-91754737D01*
X246987904Y-84245263D02*
X246500000Y-83757359D01*
X248267767Y-87646447D02*
X248621320Y-87646447D01*
X248267767Y-88353553D02*
X248621320Y-88353553D01*
X250254737Y-88487904D02*
X250742641Y-88000000D01*
X250742641Y-88000000D02*
X250254737Y-87512096D01*
X244369856Y-88353443D02*
G75*
G02*
X244378680Y-87646447I8824J353443D01*
G01*
X245584700Y-90293218D02*
G75*
G02*
X246514143Y-91012275I257691J-627133D01*
G01*
X248622678Y-87646449D02*
G75*
G02*
X248621320Y-88353554I-1356J-353551D01*
G01*
X248270000Y-88000000D02*
G75*
G02*
X244730000Y-88000000I-1770000J0D01*
G01*
X244730000Y-88000000D02*
G75*
G02*
X248270000Y-88000000I1770000J0D01*
G01*
D17*
X248701320Y-88000000D02*
G75*
G02*
X248541320Y-88000000I-80000J0D01*
G01*
X248541320Y-88000000D02*
G75*
G02*
X248701320Y-88000000I80000J0D01*
G01*
X250256955Y-88919239D02*
G75*
G02*
X250096955Y-88919239I-80000J0D01*
G01*
X250096955Y-88919239D02*
G75*
G02*
X250256955Y-88919239I80000J0D01*
G01*
D13*
X250772641Y-88000000D02*
G75*
G02*
X250712641Y-88000000I-30000J0D01*
G01*
X250712641Y-88000000D02*
G75*
G02*
X250772641Y-88000000I30000J0D01*
G01*
%TO.C,C107*%
D10*
X233769190Y-76621693D02*
X233921693Y-76469190D01*
X234278307Y-77130810D02*
X234430810Y-76978307D01*
%TO.C,U30*%
D12*
X247154525Y-105003771D02*
X247331301Y-104826994D01*
X247331301Y-105180548D02*
X247154525Y-105003771D01*
X249919312Y-107768559D02*
X250096089Y-107945335D01*
X250096089Y-102062207D02*
X249919312Y-102238983D01*
X250096089Y-107945335D02*
X250272866Y-107768559D01*
X250272866Y-102238983D02*
X250096089Y-102062207D01*
X252860877Y-104826994D02*
X253037653Y-105003771D01*
X253037653Y-105003771D02*
X252860877Y-105180548D01*
D14*
X247106032Y-104699715D02*
G75*
G02*
X246906032Y-104699715I-100000J0D01*
G01*
X246906032Y-104699715D02*
G75*
G02*
X247106032Y-104699715I100000J0D01*
G01*
D13*
X247297662Y-105003771D02*
G75*
G02*
X247237662Y-105003771I-30000J0D01*
G01*
X247237662Y-105003771D02*
G75*
G02*
X247297662Y-105003771I30000J0D01*
G01*
%TO.C,U20*%
D12*
X237587347Y-82493735D02*
X237764123Y-82316958D01*
X237764123Y-82670512D02*
X237587347Y-82493735D01*
X240352134Y-85258523D02*
X240528911Y-85435299D01*
X240528911Y-79552171D02*
X240352134Y-79728947D01*
X240528911Y-85435299D02*
X240705688Y-85258523D01*
X240705688Y-79728947D02*
X240528911Y-79552171D01*
X243293699Y-82316958D02*
X243470475Y-82493735D01*
X243470475Y-82493735D02*
X243293699Y-82670512D01*
D13*
X243387338Y-82493735D02*
G75*
G02*
X243327338Y-82493735I-30000J0D01*
G01*
X243327338Y-82493735D02*
G75*
G02*
X243387338Y-82493735I30000J0D01*
G01*
D14*
X243718968Y-82797791D02*
G75*
G02*
X243518968Y-82797791I-100000J0D01*
G01*
X243518968Y-82797791D02*
G75*
G02*
X243718968Y-82797791I100000J0D01*
G01*
%TO.C,C110*%
D10*
X238196693Y-75755810D02*
X238044190Y-75603307D01*
X238705810Y-75246693D02*
X238553307Y-75094190D01*
%TO.C,C32*%
X227119190Y-97928307D02*
X227271693Y-98080810D01*
X227628307Y-97419190D02*
X227780810Y-97571693D01*
%TO.C,C127*%
X246246990Y-78541497D02*
X246399493Y-78694000D01*
X246756107Y-78032380D02*
X246908610Y-78184883D01*
%TO.C,C158*%
X238919190Y-112250813D02*
X239071693Y-112403316D01*
X239428307Y-111741696D02*
X239580810Y-111894199D01*
%TO.C,U22*%
D12*
X237679452Y-109235805D02*
X238117858Y-109674211D01*
X238117858Y-108797399D02*
X237679452Y-109235805D01*
X240182610Y-106732647D02*
X240621016Y-106294241D01*
X240621016Y-106294241D02*
X241059422Y-106732647D01*
X240621016Y-112177369D02*
X240182610Y-111738963D01*
X241059422Y-111738963D02*
X240621016Y-112177369D01*
X243124174Y-109674211D02*
X243562580Y-109235805D01*
X243562580Y-109235805D02*
X243124174Y-108797399D01*
D14*
X243408022Y-110225754D02*
G75*
G02*
X243208022Y-110225754I-100000J0D01*
G01*
X243208022Y-110225754D02*
G75*
G02*
X243408022Y-110225754I100000J0D01*
G01*
D13*
X243479443Y-109235805D02*
G75*
G02*
X243419443Y-109235805I-30000J0D01*
G01*
X243419443Y-109235805D02*
G75*
G02*
X243479443Y-109235805I30000J0D01*
G01*
%TO.C,C109*%
D10*
X235376108Y-74854977D02*
X235223605Y-75007480D01*
X235885225Y-75364094D02*
X235732722Y-75516597D01*
%TO.C,C27*%
X226939970Y-90438781D02*
X227138781Y-90239970D01*
X227661219Y-91160030D02*
X227860030Y-90961219D01*
%TO.C,C103*%
X233271990Y-78539003D02*
X233424493Y-78691506D01*
X233781107Y-78029886D02*
X233933610Y-78182389D01*
%TO.C,U26*%
D12*
X234154525Y-105003771D02*
X234331301Y-104826994D01*
X234331301Y-105180548D02*
X234154525Y-105003771D01*
X236919312Y-107768559D02*
X237096089Y-107945335D01*
X237096089Y-102062207D02*
X236919312Y-102238983D01*
X237096089Y-107945335D02*
X237272866Y-107768559D01*
X237272866Y-102238983D02*
X237096089Y-102062207D01*
X239860877Y-104826994D02*
X240037653Y-105003771D01*
X240037653Y-105003771D02*
X239860877Y-105180548D01*
D14*
X234106032Y-104699715D02*
G75*
G02*
X233906032Y-104699715I-100000J0D01*
G01*
X233906032Y-104699715D02*
G75*
G02*
X234106032Y-104699715I100000J0D01*
G01*
D13*
X234297662Y-105003771D02*
G75*
G02*
X234237662Y-105003771I-30000J0D01*
G01*
X234237662Y-105003771D02*
G75*
G02*
X234297662Y-105003771I30000J0D01*
G01*
%TO.C,C88*%
D10*
X250529152Y-88577650D02*
X250330341Y-88776461D01*
X251250401Y-89298899D02*
X251051590Y-89497710D01*
%TO.C,C210*%
X256656077Y-82865455D02*
X256503574Y-83017958D01*
X257165194Y-83374572D02*
X257012691Y-83527075D01*
%TO.C,C39*%
X258889970Y-94638780D02*
X259088781Y-94439969D01*
X259611219Y-95360029D02*
X259810030Y-95161218D01*
%TO.C,C159*%
X237355713Y-110860620D02*
X237508216Y-110708117D01*
X237864830Y-111369737D02*
X238017333Y-111217234D01*
%TO.C,C179*%
X256346693Y-110366696D02*
X256194190Y-110519199D01*
X256855810Y-110875813D02*
X256703307Y-111028316D01*
%TO.C,U11*%
X243242284Y-101548528D02*
X246848528Y-97942284D01*
X244939340Y-103245584D02*
X243242284Y-101548528D01*
X246848528Y-97942284D02*
X248757716Y-99851472D01*
X248757716Y-99851472D02*
X245363604Y-103245584D01*
X245151472Y-103457716D02*
X244953482Y-103655706D01*
X245349462Y-103655706D01*
X245151472Y-103457716D01*
G36*
X245349462Y-103655706D02*
G01*
X244953482Y-103655706D01*
X245151472Y-103457716D01*
X245349462Y-103655706D01*
G37*
%TO.C,C111*%
X239760170Y-76127769D02*
X239607667Y-76280272D01*
X240269287Y-76636886D02*
X240116784Y-76789389D01*
%TO.C,C25*%
X234038781Y-101264970D02*
X233839970Y-101463781D01*
X234760030Y-101986219D02*
X234561219Y-102185030D01*
%TO.C,D1*%
D11*
X230315615Y-100934386D02*
G75*
G02*
X230215613Y-100934386I-50001J0D01*
G01*
X230215613Y-100934386D02*
G75*
G02*
X230315615Y-100934386I50001J0D01*
G01*
%TO.C,C81*%
D10*
X243065097Y-103436093D02*
X243263908Y-103634904D01*
X243786346Y-102714844D02*
X243985157Y-102913655D01*
%TO.C,C11*%
X231627839Y-84201334D02*
X231475336Y-84048831D01*
X232136956Y-83692217D02*
X231984453Y-83539714D01*
%TO.C,D17*%
D11*
X250784387Y-101506892D02*
G75*
G02*
X250684385Y-101506892I-50001J0D01*
G01*
X250684385Y-101506892D02*
G75*
G02*
X250784387Y-101506892I50001J0D01*
G01*
%TO.C,L3*%
D18*
X229949998Y-102599999D02*
X230149999Y-102399999D01*
X229949998Y-102749999D02*
X229949998Y-102599999D01*
X229949998Y-103799999D02*
X229949998Y-102749999D01*
X229949998Y-104799999D02*
X229949998Y-105849999D01*
X229949998Y-105849999D02*
X229949998Y-105999999D01*
X229949998Y-105999999D02*
X230149999Y-106199999D01*
X232149999Y-102399999D02*
X230149999Y-102399999D01*
X232149999Y-106199999D02*
X230149999Y-106199999D01*
X232350000Y-102599999D02*
X232149999Y-102399999D01*
X232350000Y-102749999D02*
X232350000Y-102599999D01*
X232350000Y-103799999D02*
X232350000Y-102749999D01*
X232350000Y-104799999D02*
X232350000Y-105849999D01*
X232350000Y-105849999D02*
X232350000Y-105999999D01*
X232350000Y-105999999D02*
X232149999Y-106199999D01*
D13*
X230379999Y-105299999D02*
G75*
G02*
X230319999Y-105299999I-30000J0D01*
G01*
X230319999Y-105299999D02*
G75*
G02*
X230379999Y-105299999I30000J0D01*
G01*
%TD*%
M02*
