%TF.GenerationSoftware,KiCad,Pcbnew,10.0.6-10.0.6~ubuntu24.04.1*%
%TF.CreationDate,2026-09-21T04:17:46+02:00*%
%TF.ProjectId,espdrone,65737064-726f-46e6-952e-6b696361645f,rev?*%
%TF.SameCoordinates,Original*%
%TF.FileFunction,Copper,L6,Bot*%
%TF.FilePolarity,Positive*%
%FSLAX46Y46*%
G04 Gerber Fmt 4.6, Leading zero omitted, Abs format (unit mm)*
G04 Created by KiCad (PCBNEW 10.0.6-10.0.6~ubuntu24.04.1) date 2026-09-21 04:17:46*
%MOMM*%
%LPD*%
G01*
G04 APERTURE LIST*
G04 Aperture macros list*
%AMRoundRect*
0 Rectangle with rounded corners*
0 $1 Rounding radius*
0 $2 $3 $4 $5 $6 $7 $8 $9 X,Y pos of 4 corners*
0 Add a 4 corners polygon primitive as box body*
4,1,4,$2,$3,$4,$5,$6,$7,$8,$9,$2,$3,0*
0 Add four circle primitives for the rounded corners*
1,1,$1+$1,$2,$3*
1,1,$1+$1,$4,$5*
1,1,$1+$1,$6,$7*
1,1,$1+$1,$8,$9*
0 Add four rect primitives between the rounded corners*
20,1,$1+$1,$2,$3,$4,$5,0*
20,1,$1+$1,$4,$5,$6,$7,0*
20,1,$1+$1,$6,$7,$8,$9,0*
20,1,$1+$1,$8,$9,$2,$3,0*%
%AMHorizOval*
0 Thick line with rounded ends*
0 $1 width*
0 $2 $3 position (X,Y) of the first rounded end (center of the circle)*
0 $4 $5 position (X,Y) of the second rounded end (center of the circle)*
0 Add line between two ends*
20,1,$1,$2,$3,$4,$5,0*
0 Add two circle primitives to create the rounded ends*
1,1,$1,$2,$3*
1,1,$1,$4,$5*%
%AMRotRect*
0 Rectangle, with rotation*
0 The origin of the aperture is its center*
0 $1 length*
0 $2 width*
0 $3 Rotation angle, in degrees counterclockwise*
0 Add horizontal line*
21,1,$1,$2,0,0,$3*%
%AMFreePoly0*
4,1,14,0.185240,0.435354,0.199885,0.399999,0.199885,-0.275057,0.185240,-0.310412,0.149885,-0.325057,0.099899,-0.325057,0.064544,-0.310414,-0.185492,-0.060401,-0.200139,-0.025046,-0.200140,0.399999,-0.185494,0.435354,-0.150139,0.449999,0.149885,0.449999,0.185240,0.435354,0.185240,0.435354,$1*%
%AMFreePoly1*
4,1,14,0.185240,0.435354,0.199885,0.399999,0.199885,-0.024968,0.185239,-0.060325,-0.064799,-0.310337,-0.100152,-0.324980,-0.150139,-0.324980,-0.185494,-0.310335,-0.200139,-0.274980,-0.200140,0.399999,-0.185494,0.435354,-0.150139,0.449999,0.149885,0.449999,0.185240,0.435354,0.185240,0.435354,$1*%
%AMFreePoly2*
4,1,14,0.435354,0.185240,0.449999,0.149885,0.449999,-0.150139,0.435354,-0.185494,0.399999,-0.200140,-0.275057,-0.200139,-0.310411,-0.185494,-0.325057,-0.150139,-0.325057,-0.100152,-0.310414,-0.064798,-0.060401,0.185239,-0.025046,0.199885,0.399999,0.199885,0.435354,0.185240,0.435354,0.185240,$1*%
%AMFreePoly3*
4,1,14,0.435354,0.185240,0.449999,0.149885,0.449999,-0.150139,0.435354,-0.185494,0.399999,-0.200140,-0.024968,-0.200140,-0.060325,-0.185493,-0.310337,0.064544,-0.324980,0.099898,-0.324980,0.149885,-0.310335,0.185239,-0.274980,0.199885,0.399999,0.199885,0.435354,0.185240,0.435354,0.185240,$1*%
%AMFreePoly4*
4,1,14,-0.064798,0.310414,0.185239,0.060401,0.199885,0.025046,0.199885,-0.399999,0.185240,-0.435354,0.149885,-0.449999,-0.150139,-0.449999,-0.185494,-0.435354,-0.200140,-0.399999,-0.200139,0.275057,-0.185494,0.310411,-0.150139,0.325057,-0.100152,0.325057,-0.064798,0.310414,-0.064798,0.310414,$1*%
%AMFreePoly5*
4,1,14,0.185215,0.310335,0.199860,0.274982,0.199885,-0.399998,0.185242,-0.435353,0.149887,-0.449999,-0.150139,-0.449999,-0.185494,-0.435354,-0.200140,-0.399999,-0.200140,0.024968,-0.185493,0.060325,0.064544,0.310337,0.099898,0.324980,0.149860,0.324981,0.185215,0.310335,0.185215,0.310335,$1*%
%AMFreePoly6*
4,1,14,0.310412,0.185266,0.325057,0.149911,0.325057,0.099899,0.310414,0.064544,0.060401,-0.185492,0.025046,-0.200139,-0.400002,-0.200114,-0.435356,-0.185467,-0.449999,-0.150114,-0.449999,0.149911,-0.435354,0.185266,-0.399999,0.199910,0.275057,0.199911,0.310412,0.185266,0.310412,0.185266,$1*%
%AMFreePoly7*
4,1,15,0.060323,0.185240,0.060325,0.185239,0.310337,-0.064799,0.324980,-0.100152,0.324980,-0.150139,0.310335,-0.185494,0.274980,-0.200139,-0.399999,-0.200140,-0.435354,-0.185494,-0.449999,-0.150139,-0.449999,0.149885,-0.435354,0.185240,-0.399999,0.199885,0.024968,0.199885,0.060323,0.185240,0.060323,0.185240,$1*%
G04 Aperture macros list end*
%TA.AperFunction,SMDPad,CuDef*%
%ADD10RotRect,2.100000X2.100000X225.000000*%
%TD*%
%TA.AperFunction,SMDPad,CuDef*%
%ADD11HorizOval,0.200000X-0.159099X0.159099X0.159099X-0.159099X0*%
%TD*%
%TA.AperFunction,SMDPad,CuDef*%
%ADD12HorizOval,0.200000X0.159099X0.159099X-0.159099X-0.159099X0*%
%TD*%
%TA.AperFunction,ComponentPad*%
%ADD13C,0.500000*%
%TD*%
%TA.AperFunction,ComponentPad*%
%ADD14O,1.600000X0.900000*%
%TD*%
%TA.AperFunction,SMDPad,CuDef*%
%ADD15RoundRect,0.100000X0.021213X0.162635X-0.162635X-0.021213X-0.021213X-0.162635X0.162635X0.021213X0*%
%TD*%
%TA.AperFunction,SMDPad,CuDef*%
%ADD16C,1.000000*%
%TD*%
%TA.AperFunction,SMDPad,CuDef*%
%ADD17RoundRect,0.100000X-0.021213X-0.162635X0.162635X0.021213X0.021213X0.162635X-0.162635X-0.021213X0*%
%TD*%
%TA.AperFunction,SMDPad,CuDef*%
%ADD18RoundRect,0.140000X-0.021213X0.219203X-0.219203X0.021213X0.021213X-0.219203X0.219203X-0.021213X0*%
%TD*%
%TA.AperFunction,SMDPad,CuDef*%
%ADD19RoundRect,0.140000X-0.219203X-0.021213X-0.021213X-0.219203X0.219203X0.021213X0.021213X0.219203X0*%
%TD*%
%TA.AperFunction,SMDPad,CuDef*%
%ADD20RoundRect,0.100000X-0.162635X0.021213X0.021213X-0.162635X0.162635X-0.021213X-0.021213X0.162635X0*%
%TD*%
%TA.AperFunction,SMDPad,CuDef*%
%ADD21RoundRect,0.140000X0.219203X0.021213X0.021213X0.219203X-0.219203X-0.021213X-0.021213X-0.219203X0*%
%TD*%
%TA.AperFunction,SMDPad,CuDef*%
%ADD22RoundRect,0.225000X0.017678X-0.335876X0.335876X-0.017678X-0.017678X0.335876X-0.335876X0.017678X0*%
%TD*%
%TA.AperFunction,SMDPad,CuDef*%
%ADD23RoundRect,0.140000X0.021213X-0.219203X0.219203X-0.021213X-0.021213X0.219203X-0.219203X0.021213X0*%
%TD*%
%TA.AperFunction,SMDPad,CuDef*%
%ADD24R,0.600000X0.500000*%
%TD*%
%TA.AperFunction,SMDPad,CuDef*%
%ADD25RoundRect,0.250000X-0.250000X-0.475000X0.250000X-0.475000X0.250000X0.475000X-0.250000X0.475000X0*%
%TD*%
%TA.AperFunction,SMDPad,CuDef*%
%ADD26RoundRect,0.250000X0.159099X-0.512652X0.512652X-0.159099X-0.159099X0.512652X-0.512652X0.159099X0*%
%TD*%
%TA.AperFunction,SMDPad,CuDef*%
%ADD27RoundRect,0.100000X0.162635X-0.021213X-0.021213X0.162635X-0.162635X0.021213X0.021213X-0.162635X0*%
%TD*%
%TA.AperFunction,SMDPad,CuDef*%
%ADD28RoundRect,0.225000X0.335876X0.017678X0.017678X0.335876X-0.335876X-0.017678X-0.017678X-0.335876X0*%
%TD*%
%TA.AperFunction,SMDPad,CuDef*%
%ADD29RoundRect,0.250000X0.250000X-0.275000X0.250000X0.275000X-0.250000X0.275000X-0.250000X-0.275000X0*%
%TD*%
%TA.AperFunction,SMDPad,CuDef*%
%ADD30RoundRect,0.250000X0.275000X-0.850000X0.275000X0.850000X-0.275000X0.850000X-0.275000X-0.850000X0*%
%TD*%
%TA.AperFunction,SMDPad,CuDef*%
%ADD31RoundRect,0.250000X0.250000X0.475000X-0.250000X0.475000X-0.250000X-0.475000X0.250000X-0.475000X0*%
%TD*%
%TA.AperFunction,SMDPad,CuDef*%
%ADD32FreePoly0,225.000000*%
%TD*%
%TA.AperFunction,SMDPad,CuDef*%
%ADD33RotRect,0.300000X0.700000X225.000000*%
%TD*%
%TA.AperFunction,SMDPad,CuDef*%
%ADD34FreePoly1,225.000000*%
%TD*%
%TA.AperFunction,SMDPad,CuDef*%
%ADD35FreePoly2,225.000000*%
%TD*%
%TA.AperFunction,SMDPad,CuDef*%
%ADD36RotRect,0.700000X0.300000X225.000000*%
%TD*%
%TA.AperFunction,SMDPad,CuDef*%
%ADD37FreePoly3,225.000000*%
%TD*%
%TA.AperFunction,SMDPad,CuDef*%
%ADD38FreePoly4,225.000000*%
%TD*%
%TA.AperFunction,SMDPad,CuDef*%
%ADD39FreePoly5,225.000000*%
%TD*%
%TA.AperFunction,SMDPad,CuDef*%
%ADD40FreePoly6,225.000000*%
%TD*%
%TA.AperFunction,SMDPad,CuDef*%
%ADD41FreePoly7,225.000000*%
%TD*%
%TA.AperFunction,SMDPad,CuDef*%
%ADD42RotRect,0.200000X0.300000X315.000000*%
%TD*%
%TA.AperFunction,SMDPad,CuDef*%
%ADD43RotRect,0.200000X0.250000X225.000000*%
%TD*%
%TA.AperFunction,SMDPad,CuDef*%
%ADD44RotRect,0.200000X0.300000X135.000000*%
%TD*%
%TA.AperFunction,SMDPad,CuDef*%
%ADD45RoundRect,0.250000X-0.512652X-0.159099X-0.159099X-0.512652X0.512652X0.159099X0.159099X0.512652X0*%
%TD*%
%TA.AperFunction,SMDPad,CuDef*%
%ADD46RotRect,0.700000X0.200000X135.000000*%
%TD*%
%TA.AperFunction,SMDPad,CuDef*%
%ADD47RotRect,0.200000X0.700000X135.000000*%
%TD*%
%TA.AperFunction,SMDPad,CuDef*%
%ADD48RotRect,2.600000X2.600000X135.000000*%
%TD*%
%TA.AperFunction,SMDPad,CuDef*%
%ADD49RoundRect,0.087500X-0.220971X0.097227X0.097227X-0.220971X0.220971X-0.097227X-0.097227X0.220971X0*%
%TD*%
%TA.AperFunction,SMDPad,CuDef*%
%ADD50RoundRect,0.087500X-0.220971X-0.097227X-0.097227X-0.220971X0.220971X0.097227X0.097227X0.220971X0*%
%TD*%
%TA.AperFunction,SMDPad,CuDef*%
%ADD51RoundRect,0.147500X-0.017678X0.226274X-0.226274X0.017678X0.017678X-0.226274X0.226274X-0.017678X0*%
%TD*%
%TA.AperFunction,SMDPad,CuDef*%
%ADD52RotRect,0.500000X0.600000X225.000000*%
%TD*%
%TA.AperFunction,SMDPad,CuDef*%
%ADD53RoundRect,0.225000X-0.017678X0.335876X-0.335876X0.017678X0.017678X-0.335876X0.335876X-0.017678X0*%
%TD*%
%TA.AperFunction,SMDPad,CuDef*%
%ADD54RoundRect,0.100000X-0.130000X-0.100000X0.130000X-0.100000X0.130000X0.100000X-0.130000X0.100000X0*%
%TD*%
%TA.AperFunction,SMDPad,CuDef*%
%ADD55RoundRect,0.250000X-0.053033X-0.406586X0.406586X0.053033X0.053033X0.406586X-0.406586X-0.053033X0*%
%TD*%
%TA.AperFunction,SMDPad,CuDef*%
%ADD56RotRect,0.500000X0.600000X45.000000*%
%TD*%
%TA.AperFunction,SMDPad,CuDef*%
%ADD57RoundRect,0.150000X0.512500X0.150000X-0.512500X0.150000X-0.512500X-0.150000X0.512500X-0.150000X0*%
%TD*%
%TA.AperFunction,SMDPad,CuDef*%
%ADD58RoundRect,0.100000X-0.100000X0.130000X-0.100000X-0.130000X0.100000X-0.130000X0.100000X0.130000X0*%
%TD*%
%TA.AperFunction,SMDPad,CuDef*%
%ADD59RotRect,0.375000X0.350000X315.000000*%
%TD*%
%TA.AperFunction,SMDPad,CuDef*%
%ADD60RotRect,0.375000X0.350000X225.000000*%
%TD*%
%TA.AperFunction,SMDPad,CuDef*%
%ADD61RotRect,0.700000X0.200000X315.000000*%
%TD*%
%TA.AperFunction,SMDPad,CuDef*%
%ADD62RotRect,0.200000X0.700000X315.000000*%
%TD*%
%TA.AperFunction,SMDPad,CuDef*%
%ADD63RotRect,2.600000X2.600000X315.000000*%
%TD*%
%TA.AperFunction,SMDPad,CuDef*%
%ADD64RoundRect,0.225000X-0.335876X-0.017678X-0.017678X-0.335876X0.335876X0.017678X0.017678X0.335876X0*%
%TD*%
%TA.AperFunction,SMDPad,CuDef*%
%ADD65RoundRect,0.100000X0.130000X0.100000X-0.130000X0.100000X-0.130000X-0.100000X0.130000X-0.100000X0*%
%TD*%
%TA.AperFunction,SMDPad,CuDef*%
%ADD66RoundRect,0.050000X0.282843X-0.212132X-0.212132X0.282843X-0.282843X0.212132X0.212132X-0.282843X0*%
%TD*%
%TA.AperFunction,SMDPad,CuDef*%
%ADD67RoundRect,0.050000X0.282843X0.212132X0.212132X0.282843X-0.282843X-0.212132X-0.212132X-0.282843X0*%
%TD*%
%TA.AperFunction,HeatsinkPad*%
%ADD68RotRect,4.600000X4.600000X135.000000*%
%TD*%
%TA.AperFunction,SMDPad,CuDef*%
%ADD69RoundRect,0.200000X0.035355X0.318198X-0.318198X-0.035355X-0.035355X-0.318198X0.318198X0.035355X0*%
%TD*%
%TA.AperFunction,SMDPad,CuDef*%
%ADD70RoundRect,0.225000X0.225000X0.250000X-0.225000X0.250000X-0.225000X-0.250000X0.225000X-0.250000X0*%
%TD*%
%TA.AperFunction,SMDPad,CuDef*%
%ADD71RotRect,0.700000X0.350000X135.000000*%
%TD*%
%TA.AperFunction,SMDPad,CuDef*%
%ADD72RotRect,0.350000X0.700000X135.000000*%
%TD*%
%TA.AperFunction,SMDPad,CuDef*%
%ADD73RotRect,2.400000X1.900000X135.000000*%
%TD*%
%TA.AperFunction,SMDPad,CuDef*%
%ADD74FreePoly0,45.000000*%
%TD*%
%TA.AperFunction,SMDPad,CuDef*%
%ADD75RotRect,0.300000X0.700000X45.000000*%
%TD*%
%TA.AperFunction,SMDPad,CuDef*%
%ADD76FreePoly1,45.000000*%
%TD*%
%TA.AperFunction,SMDPad,CuDef*%
%ADD77FreePoly2,45.000000*%
%TD*%
%TA.AperFunction,SMDPad,CuDef*%
%ADD78RotRect,0.700000X0.300000X45.000000*%
%TD*%
%TA.AperFunction,SMDPad,CuDef*%
%ADD79FreePoly3,45.000000*%
%TD*%
%TA.AperFunction,SMDPad,CuDef*%
%ADD80FreePoly4,45.000000*%
%TD*%
%TA.AperFunction,SMDPad,CuDef*%
%ADD81FreePoly5,45.000000*%
%TD*%
%TA.AperFunction,SMDPad,CuDef*%
%ADD82FreePoly6,45.000000*%
%TD*%
%TA.AperFunction,SMDPad,CuDef*%
%ADD83FreePoly7,45.000000*%
%TD*%
%TA.AperFunction,SMDPad,CuDef*%
%ADD84RoundRect,0.100000X0.100000X-0.130000X0.100000X0.130000X-0.100000X0.130000X-0.100000X-0.130000X0*%
%TD*%
%TA.AperFunction,SMDPad,CuDef*%
%ADD85RoundRect,0.062500X-0.045962X-0.134350X0.134350X0.045962X0.045962X0.134350X-0.134350X-0.045962X0*%
%TD*%
%TA.AperFunction,SMDPad,CuDef*%
%ADD86RoundRect,0.125000X0.000000X-0.176777X0.176777X0.000000X0.000000X0.176777X-0.176777X0.000000X0*%
%TD*%
%TA.AperFunction,SMDPad,CuDef*%
%ADD87RotRect,0.500000X0.600000X135.000000*%
%TD*%
%TA.AperFunction,SMDPad,CuDef*%
%ADD88R,0.500000X0.600000*%
%TD*%
%TA.AperFunction,SMDPad,CuDef*%
%ADD89R,1.800000X1.200000*%
%TD*%
%TA.AperFunction,ViaPad*%
%ADD90C,0.450000*%
%TD*%
%TA.AperFunction,ViaPad*%
%ADD91C,0.600000*%
%TD*%
%TA.AperFunction,Conductor*%
%ADD92C,0.150000*%
%TD*%
%TA.AperFunction,Conductor*%
%ADD93C,0.100000*%
%TD*%
%TA.AperFunction,Conductor*%
%ADD94C,0.300000*%
%TD*%
%TA.AperFunction,Conductor*%
%ADD95C,0.200000*%
%TD*%
%TA.AperFunction,Conductor*%
%ADD96C,0.500000*%
%TD*%
G04 APERTURE END LIST*
D10*
%TO.P,U1,105,GND_105*%
%TO.N,GND*%
X230422436Y-92840812D03*
X232331625Y-94750000D03*
X234240813Y-96659189D03*
X232331625Y-90931624D03*
X234240813Y-92840812D03*
X236150001Y-94750000D03*
X234240813Y-89022435D03*
X236150001Y-90931624D03*
X238059190Y-92840812D03*
D11*
%TO.P,U1,104,GPIO0_104*%
%TO.N,unconnected-(U1-GPIO0-Pad104)*%
X233887260Y-86300074D03*
%TO.P,U1,103,CHIP_PU_103*%
%TO.N,Net-(U1-CHIP_PU)*%
X233639772Y-86547562D03*
%TO.P,U1,102,VDD_BAT_102*%
%TO.N,+3V3*%
X233392285Y-86795049D03*
%TO.P,U1,101,VDD_ANA_101*%
X233144797Y-87042536D03*
%TO.P,U1,100,XTAL_P_100*%
%TO.N,Net-(U1-XTAL_P)*%
X232897310Y-87290024D03*
%TO.P,U1,99,XTAL_N_99*%
%TO.N,Net-(U1-XTAL_N)*%
X232649823Y-87537511D03*
%TO.P,U1,98,GPIO54/ADC2_CHANNEL5_98*%
%TO.N,unconnected-(U1-GPIO54{slash}ADC2_CHANNEL5-Pad98)*%
X232402335Y-87784999D03*
%TO.P,U1,97,GPIO53/ADC2_CHANNEL4_97*%
%TO.N,unconnected-(U1-GPIO53{slash}ADC2_CHANNEL4-Pad97)*%
X232154848Y-88032486D03*
%TO.P,U1,96,VDD_IO_6_96*%
%TO.N,+3V3*%
X231907361Y-88279973D03*
%TO.P,U1,95,GPIO52/ADC2_CHANNEL3_95*%
%TO.N,unconnected-(U1-GPIO52{slash}ADC2_CHANNEL3-Pad95)*%
X231659873Y-88527461D03*
%TO.P,U1,94,GPIO51/ADC2_CHANNEL2_94*%
%TO.N,unconnected-(U1-GPIO51{slash}ADC2_CHANNEL2-Pad94)*%
X231412386Y-88774948D03*
%TO.P,U1,93,GPIO50/ADC2_CHANNEL1_93*%
%TO.N,BAT_VSENSE*%
X231164899Y-89022435D03*
%TO.P,U1,92,GPIO49/ADC2_CHANNEL0_92*%
%TO.N,unconnected-(U1-GPIO49{slash}ADC2_CHANNEL0-Pad92)*%
X230917411Y-89269923D03*
%TO.P,U1,91,VDD_HP_3_91*%
%TO.N,VDD_HP*%
X230669924Y-89517410D03*
%TO.P,U1,90,GPIO48_90*%
%TO.N,unconnected-(U1-GPIO48-Pad90)*%
X230422436Y-89764898D03*
%TO.P,U1,89,GPIO47_89*%
%TO.N,unconnected-(U1-GPIO47-Pad89)*%
X230174949Y-90012385D03*
%TO.P,U1,88,GPIO46_88*%
%TO.N,unconnected-(U1-GPIO46-Pad88)*%
X229927462Y-90259872D03*
%TO.P,U1,87,GPIO45_87*%
%TO.N,unconnected-(U1-GPIO45-Pad87)*%
X229679974Y-90507360D03*
%TO.P,U1,86,GPIO44_86*%
%TO.N,unconnected-(U1-GPIO44-Pad86)*%
X229432487Y-90754847D03*
%TO.P,U1,85,VDD_IO_5_85*%
%TO.N,+3V3*%
X229185000Y-91002334D03*
%TO.P,U1,84,GPIO43_84*%
%TO.N,unconnected-(U1-GPIO43-Pad84)*%
X228937512Y-91249822D03*
%TO.P,U1,83,GPIO42_83*%
%TO.N,DSHOT_4*%
X228690025Y-91497309D03*
%TO.P,U1,82,GPIO41_82*%
%TO.N,DSHOT_3*%
X228442537Y-91744796D03*
%TO.P,U1,81,GPIO40_81*%
%TO.N,unconnected-(U1-GPIO40-Pad81)*%
X228195050Y-91992284D03*
%TO.P,U1,80,GPIO39_80*%
%TO.N,CAM_EN*%
X227947563Y-92239771D03*
%TO.P,U1,79,EN_DCDC_79*%
%TO.N,EN_DCDC*%
X227700075Y-92487259D03*
D12*
%TO.P,U1,78,FB_DCDC_78*%
%TO.N,FB_DCDC*%
X227700075Y-93194365D03*
%TO.P,U1,77,VDD_DCDCC_77*%
%TO.N,+3V3*%
X227947563Y-93441853D03*
%TO.P,U1,76,VDD_HP_2_76*%
%TO.N,VDD_HP*%
X228195050Y-93689340D03*
%TO.P,U1,75,VDD_LDO_75*%
%TO.N,+3V3*%
X228442537Y-93936828D03*
%TO.P,U1,74,VDDO_4_74*%
%TO.N,VDDO_4*%
X228690025Y-94184315D03*
%TO.P,U1,73,VDDO_3_73*%
%TO.N,/MCU/VDDO_3*%
X228937512Y-94431802D03*
%TO.P,U1,72,VDDO_PSRAM_72*%
%TO.N,/MCU/VDD_PSRAM*%
X229185000Y-94679290D03*
%TO.P,U1,71,VDDO_FLASH_71*%
%TO.N,unconnected-(U1-VDDO_FLASH-Pad71)*%
X229432487Y-94926777D03*
%TO.P,U1,70,GPIO38_70*%
%TO.N,UART_RX*%
X229679974Y-95174264D03*
%TO.P,U1,69,GPIO37_69*%
%TO.N,UART_TX*%
X229927462Y-95421752D03*
%TO.P,U1,68,GPIO36_68*%
%TO.N,Net-(U1-GPIO36)*%
X230174949Y-95669239D03*
%TO.P,U1,67,VDD_PSRAM_1_67*%
%TO.N,/MCU/VDD_PSRAM*%
X230422436Y-95916726D03*
%TO.P,U1,66,GPIO35_66*%
%TO.N,Net-(JP1-A)*%
X230669924Y-96164214D03*
%TO.P,U1,65,GPIO34_65*%
%TO.N,unconnected-(U1-GPIO34-Pad65)*%
X230917411Y-96411701D03*
%TO.P,U1,64,GPIO33_64*%
%TO.N,unconnected-(U1-GPIO33-Pad64)*%
X231164899Y-96659189D03*
%TO.P,U1,63,GPIO32_63*%
%TO.N,CP_SDIO_D2*%
X231412386Y-96906676D03*
%TO.P,U1,62,VDD_IO_4_62*%
%TO.N,+3V3*%
X231659873Y-97154163D03*
%TO.P,U1,61,GPIO31_61*%
%TO.N,CP_SDIO_D3*%
X231907361Y-97401651D03*
%TO.P,U1,60,GPIO30_60*%
%TO.N,CP_SDIO_CMD*%
X232154848Y-97649138D03*
%TO.P,U1,59,VDD_PSRAM_0_59*%
%TO.N,/MCU/VDD_PSRAM*%
X232402335Y-97896625D03*
%TO.P,U1,58,GPIO29_58*%
%TO.N,CP_SDIO_CLK*%
X232649823Y-98144113D03*
%TO.P,U1,57,GPIO28_57*%
%TO.N,Net-(U1-GPIO28)*%
X232897310Y-98391600D03*
%TO.P,U1,56,GPIO27/USB1P1_P1_56*%
%TO.N,CP_SDIO_D0*%
X233144797Y-98639088D03*
%TO.P,U1,55,GPIO26/USB1P1_N1_55*%
%TO.N,CP_SDIO_D1*%
X233392285Y-98886575D03*
%TO.P,U1,54,VDD_HP_1_54*%
%TO.N,VDD_HP*%
X233639772Y-99134062D03*
%TO.P,U1,53,GPIO25/USB1P1_P0_53*%
%TO.N,/MCU/USB_D+*%
X233887260Y-99381550D03*
D11*
%TO.P,U1,52,GPIO24/USB1P1_N0_52*%
%TO.N,/MCU/USB_D-*%
X234594366Y-99381550D03*
%TO.P,U1,51,VDD_USBPHY_51*%
%TO.N,+3V3*%
X234841854Y-99134062D03*
%TO.P,U1,50,USB-DP_50*%
%TO.N,unconnected-(U1-USB-DP-Pad50)*%
X235089341Y-98886575D03*
%TO.P,U1,49,USB-DM_49*%
%TO.N,unconnected-(U1-USB-DM-Pad49)*%
X235336829Y-98639088D03*
%TO.P,U1,48,CSI_REXT_48*%
%TO.N,CSI_REXT*%
X235584316Y-98391600D03*
%TO.P,U1,47,CSI_DATAP1_47*%
%TO.N,CSI_DATA1P*%
X235831803Y-98144113D03*
%TO.P,U1,46,CSI_DATAN1_46*%
%TO.N,CSI_DATA1N*%
X236079291Y-97896625D03*
%TO.P,U1,45,CSI_CLKN_45*%
%TO.N,CSI_CLKN*%
X236326778Y-97649138D03*
%TO.P,U1,44,CSI_CLKP_44*%
%TO.N,CSI_CLKP*%
X236574265Y-97401651D03*
%TO.P,U1,43,CSI_DATAP0_43*%
%TO.N,CSI_DATA0P*%
X236821753Y-97154163D03*
%TO.P,U1,42,CSI_DATAN0_42*%
%TO.N,CSI_DATA0N*%
X237069240Y-96906676D03*
%TO.P,U1,41,VDD_MIPI_DPHY_41*%
%TO.N,/MCU/VDDO_3*%
X237316727Y-96659189D03*
%TO.P,U1,40,DSI_DATAN0_40*%
%TO.N,unconnected-(U1-DSI_DATAN0-Pad40)*%
X237564215Y-96411701D03*
%TO.P,U1,39,DSI_DATAP0_39*%
%TO.N,unconnected-(U1-DSI_DATAP0-Pad39)*%
X237811702Y-96164214D03*
%TO.P,U1,38,DSI_CLKP_38*%
%TO.N,unconnected-(U1-DSI_CLKP-Pad38)*%
X238059190Y-95916726D03*
%TO.P,U1,37,DSI_CLKN_37*%
%TO.N,unconnected-(U1-DSI_CLKN-Pad37)*%
X238306677Y-95669239D03*
%TO.P,U1,36,DSI_DATAN1_36*%
%TO.N,unconnected-(U1-DSI_DATAN1-Pad36)*%
X238554164Y-95421752D03*
%TO.P,U1,35,DSI_DATAP1_35*%
%TO.N,unconnected-(U1-DSI_DATAP1-Pad35)*%
X238801652Y-95174264D03*
%TO.P,U1,34,DSI_REXT_34*%
%TO.N,unconnected-(U1-DSI_REXT-Pad34)*%
X239049139Y-94926777D03*
%TO.P,U1,33,FLASH_D_33*%
%TO.N,/MCU/FLASH_D*%
X239296626Y-94679290D03*
%TO.P,U1,32,FLASH_CK_32*%
%TO.N,/MCU/FLASH_CLK*%
X239544114Y-94431802D03*
%TO.P,U1,31,FLASH_HOLD_31*%
%TO.N,/MCU/FLASH_HD*%
X239791601Y-94184315D03*
%TO.P,U1,30,VDD_FLASH_IO_30*%
%TO.N,unconnected-(U1-VDD_FLASH_IO-Pad30)*%
X240039089Y-93936828D03*
%TO.P,U1,29,FLASH_WP_29*%
%TO.N,/MCU/FLASH_WP*%
X240286576Y-93689340D03*
%TO.P,U1,28,FLASH_Q_28*%
%TO.N,/MCU/FLASH_Q*%
X240534063Y-93441853D03*
%TO.P,U1,27,FLASH_CS_27*%
%TO.N,/MCU/FLASH_CS*%
X240781551Y-93194365D03*
D12*
%TO.P,U1,26,VDD_HP_0_26*%
%TO.N,VDD_HP*%
X240781551Y-92487259D03*
%TO.P,U1,25,GPIO23/ADC1_CHANNEL7_25*%
%TO.N,unconnected-(U1-GPIO23{slash}ADC1_CHANNEL7-Pad25)*%
X240534063Y-92239771D03*
%TO.P,U1,24,GPIO22/ADC1_CHANNEL6_24*%
%TO.N,unconnected-(U1-GPIO22{slash}ADC1_CHANNEL6-Pad24)*%
X240286576Y-91992284D03*
%TO.P,U1,23,GPIO21/ADC1_CHANNEL5_23*%
%TO.N,unconnected-(U1-GPIO21{slash}ADC1_CHANNEL5-Pad23)*%
X240039089Y-91744796D03*
%TO.P,U1,22,GPIO20/ADC1_CHANNEL4_22*%
%TO.N,BAT_ISENSE*%
X239791601Y-91497309D03*
%TO.P,U1,21,VDD_IO_0_21*%
%TO.N,+3V3*%
X239544114Y-91249822D03*
%TO.P,U1,20,GPIO19/ADC1_CHANNEL3_20*%
%TO.N,SPI_MOSI*%
X239296626Y-91002334D03*
%TO.P,U1,19,GPIO18/ADC1_CHANNEL2_19*%
%TO.N,SPI_CLK*%
X239049139Y-90754847D03*
%TO.P,U1,18,GPIO17/ADC1_CHANNEL1_18*%
%TO.N,SPI_MISO*%
X238801652Y-90507360D03*
%TO.P,U1,17,GPIO16/ADC1_CHANNEL0_17*%
%TO.N,SPI_PMW3901_CS*%
X238554164Y-90259872D03*
%TO.P,U1,16,GPIO15_16*%
%TO.N,unconnected-(U1-GPIO15-Pad16)*%
X238306677Y-90012385D03*
%TO.P,U1,15,GPIO14_15*%
%TO.N,unconnected-(U1-GPIO14-Pad15)*%
X238059190Y-89764898D03*
%TO.P,U1,14,GPIO13_14*%
%TO.N,unconnected-(U1-GPIO13-Pad14)*%
X237811702Y-89517410D03*
%TO.P,U1,13,GPIO12_13*%
%TO.N,unconnected-(U1-GPIO12-Pad13)*%
X237564215Y-89269923D03*
%TO.P,U1,12,GPIO11_12*%
%TO.N,unconnected-(U1-GPIO11-Pad12)*%
X237316727Y-89022435D03*
%TO.P,U1,11,GPIO10_11*%
%TO.N,unconnected-(U1-GPIO10-Pad11)*%
X237069240Y-88774948D03*
%TO.P,U1,10,GPIO9_10*%
%TO.N,unconnected-(U1-GPIO9-Pad10)*%
X236821753Y-88527461D03*
%TO.P,U1,9,VDD_LP_9*%
%TO.N,+3V3*%
X236574265Y-88279973D03*
%TO.P,U1,8,GPIO8_8*%
%TO.N,I2C_SCL*%
X236326778Y-88032486D03*
%TO.P,U1,7,GPIO7_7*%
%TO.N,I2C_SDA*%
X236079291Y-87784999D03*
%TO.P,U1,6,GPIO6_6*%
%TO.N,unconnected-(U1-GPIO6-Pad6)*%
X235831803Y-87537511D03*
%TO.P,U1,5,GPIO5_5*%
%TO.N,unconnected-(U1-GPIO5-Pad5)*%
X235584316Y-87290024D03*
%TO.P,U1,4,GPIO4_4*%
%TO.N,unconnected-(U1-GPIO4-Pad4)*%
X235336829Y-87042536D03*
%TO.P,U1,3,GPIO3_3*%
%TO.N,DSHOT_2*%
X235089341Y-86795049D03*
%TO.P,U1,2,GPIO2_2*%
%TO.N,DSHOT_1*%
X234841854Y-86547562D03*
%TO.P,U1,1,GPIO1_1*%
%TO.N,unconnected-(U1-GPIO1-Pad1)*%
X234594366Y-86300074D03*
%TD*%
D13*
%TO.P,U7,*%
%TO.N,*%
X261637500Y-89950000D03*
X261637500Y-82450000D03*
D14*
%TO.P,U7,1*%
%TO.N,N/C*%
X261337500Y-90700000D03*
%TO.P,U7,2*%
X263727500Y-90700000D03*
%TO.P,U7,3*%
X263727500Y-81700000D03*
%TO.P,U7,4*%
X261337500Y-81700000D03*
%TD*%
D15*
%TO.P,R139,1*%
%TO.N,Net-(U20-PA0)*%
X241926274Y-85073726D03*
%TO.P,R139,2*%
%TO.N,DSHOT_1*%
X241473726Y-85526274D03*
%TD*%
%TO.P,R27,1*%
%TO.N,Net-(U5-P2)*%
X256837562Y-90944742D03*
%TO.P,R27,2*%
%TO.N,/Coprocessor/ANT_2G*%
X256385014Y-91397290D03*
%TD*%
D16*
%TO.P,TP36,1,1_1*%
%TO.N,Net-(U4-MTDI{slash}GPIO3{slash}ADC1_CH2)*%
X255500000Y-101600000D03*
%TD*%
D17*
%TO.P,R26,1*%
%TO.N,/Coprocessor/ANT_5G*%
X258135103Y-93295872D03*
%TO.P,R26,2*%
%TO.N,Net-(U5-P1)*%
X258587651Y-92843324D03*
%TD*%
D18*
%TO.P,C180,1*%
%TO.N,GND*%
X244198795Y-82821178D03*
%TO.P,C180,2*%
%TO.N,+3V3*%
X243519973Y-83500000D03*
%TD*%
D19*
%TO.P,C12,1*%
%TO.N,Net-(U1-XTAL_N)*%
X228638308Y-86359540D03*
%TO.P,C12,2*%
%TO.N,GND*%
X229317130Y-87038362D03*
%TD*%
D20*
%TO.P,D15,1,K_1*%
%TO.N,GND*%
X253247452Y-86374946D03*
%TO.P,D15,2,A_2*%
%TO.N,Net-(D15-A)*%
X253700000Y-86827494D03*
%TD*%
D21*
%TO.P,C175,1*%
%TO.N,+BATT*%
X257361611Y-109476221D03*
%TO.P,C175,2*%
%TO.N,GND*%
X256682789Y-108797399D03*
%TD*%
D17*
%TO.P,R115,1*%
%TO.N,Net-(U22-VDSLVL)*%
X242880222Y-107139233D03*
%TO.P,R115,2*%
%TO.N,+3V3*%
X243332770Y-106686685D03*
%TD*%
D22*
%TO.P,C89,1*%
%TO.N,GND*%
X247351992Y-92548008D03*
%TO.P,C89,2*%
%TO.N,Net-(U14-VREG)*%
X248448008Y-91451992D03*
%TD*%
D23*
%TO.P,C157,1*%
%TO.N,/Motors/ESC3/PHASE_A*%
X241731174Y-112651130D03*
%TO.P,C157,2*%
%TO.N,/Motors/ESC3/BSTA*%
X242409996Y-111972308D03*
%TD*%
D24*
%TO.P,JP2,1,A_1*%
%TO.N,+3V3*%
X259400000Y-103200000D03*
%TO.P,JP2,2,C_2*%
%TO.N,Net-(JP2-C)*%
X259400000Y-102500000D03*
%TO.P,JP2,3,B_3*%
%TO.N,GND*%
X259400000Y-101800000D03*
%TD*%
D16*
%TO.P,TP19,1,1_1*%
%TO.N,/Motors/ESC1/SWDIO*%
X243200000Y-77000000D03*
%TD*%
D15*
%TO.P,R104,1*%
%TO.N,GND*%
X257352548Y-81474945D03*
%TO.P,R104,2*%
%TO.N,/Motors/ESC2/VSENSE_B*%
X256900000Y-81927493D03*
%TD*%
D17*
%TO.P,R146,1*%
%TO.N,Net-(U30-PA0)*%
X248698726Y-102423780D03*
%TO.P,R146,2*%
%TO.N,DSHOT_4*%
X249151274Y-101971232D03*
%TD*%
D25*
%TO.P,C153,1*%
%TO.N,/Motors/ESC3/GVDD*%
X244425000Y-112197506D03*
%TO.P,C153,2*%
%TO.N,GND*%
X246325000Y-112197506D03*
%TD*%
D26*
%TO.P,C50,1*%
%TO.N,+3V3*%
X254938477Y-88510049D03*
%TO.P,C50,2*%
%TO.N,GND*%
X256281979Y-87166547D03*
%TD*%
D27*
%TO.P,R88,1*%
%TO.N,Net-(U19-DT)*%
X246501274Y-79428768D03*
%TO.P,R88,2*%
%TO.N,GND*%
X246048726Y-78976220D03*
%TD*%
D15*
%TO.P,R90,1*%
%TO.N,Net-(U19-VDSLVL)*%
X247719778Y-80360767D03*
%TO.P,R90,2*%
%TO.N,+3V3*%
X247267230Y-80813315D03*
%TD*%
D18*
%TO.P,C135,1*%
%TO.N,/Motors/ESC2/PHASE_C*%
X253252888Y-76121662D03*
%TO.P,C135,2*%
%TO.N,Net-(U19-BSTC)*%
X252574066Y-76800484D03*
%TD*%
D27*
%TO.P,C91,1*%
%TO.N,GND*%
X249326274Y-90851274D03*
%TO.P,C91,2*%
%TO.N,Net-(U14-VREG)*%
X248873726Y-90398726D03*
%TD*%
D19*
%TO.P,C33,1*%
%TO.N,VDDO_4*%
X226460589Y-98060589D03*
%TO.P,C33,2*%
%TO.N,GND*%
X227139411Y-98739411D03*
%TD*%
D17*
%TO.P,R66,1*%
%TO.N,GND*%
X233761900Y-80280491D03*
%TO.P,R66,2*%
%TO.N,Net-(U16-VDSLVL)*%
X234214448Y-79827943D03*
%TD*%
D15*
%TO.P,R46,1*%
%TO.N,Net-(U12-~{CS})*%
X242852548Y-95147452D03*
%TO.P,R46,2*%
%TO.N,+3V3*%
X242400000Y-95600000D03*
%TD*%
D28*
%TO.P,C8,1*%
%TO.N,+3V3*%
X233648008Y-83948008D03*
%TO.P,C8,2*%
%TO.N,GND*%
X232551992Y-82851992D03*
%TD*%
D16*
%TO.P,TP26,1,1_1*%
%TO.N,/Motors/ESC3/SWDIO*%
X234425000Y-110497506D03*
%TD*%
D20*
%TO.P,C48,1*%
%TO.N,+3V3*%
X257431531Y-87996107D03*
%TO.P,C48,2*%
%TO.N,GND*%
X257884079Y-88448655D03*
%TD*%
D17*
%TO.P,C176,1*%
%TO.N,GND*%
X242904790Y-84926183D03*
%TO.P,C176,2*%
%TO.N,+3V3*%
X243357338Y-84473635D03*
%TD*%
D25*
%TO.P,C177,1*%
%TO.N,/Motors/ESC4/GVDD*%
X257425000Y-112197506D03*
%TO.P,C177,2*%
%TO.N,GND*%
X259325000Y-112197506D03*
%TD*%
D23*
%TO.P,C131,1*%
%TO.N,Net-(U19-CPL)*%
X246735589Y-77141905D03*
%TO.P,C131,2*%
%TO.N,Net-(U19-CPH)*%
X247414411Y-76463083D03*
%TD*%
D19*
%TO.P,C7,1*%
%TO.N,GND*%
X234660589Y-83160589D03*
%TO.P,C7,2*%
%TO.N,Net-(U1-CHIP_PU)*%
X235339411Y-83839411D03*
%TD*%
D15*
%TO.P,R79,1*%
%TO.N,GND*%
X244377548Y-81472451D03*
%TO.P,R79,2*%
%TO.N,/Motors/ESC1/VSENSE_B*%
X243925000Y-81924999D03*
%TD*%
%TO.P,R116,1*%
%TO.N,GND*%
X243863100Y-107217015D03*
%TO.P,R116,2*%
%TO.N,Net-(U22-VDSLVL)*%
X243410552Y-107669563D03*
%TD*%
D17*
%TO.P,C44,1*%
%TO.N,+3V3*%
X254751597Y-90874031D03*
%TO.P,C44,2*%
%TO.N,GND*%
X255204145Y-90421483D03*
%TD*%
D15*
%TO.P,C215,1*%
%TO.N,GND*%
X248250540Y-103101653D03*
%TO.P,C215,2*%
%TO.N,+3V3*%
X247797992Y-103554201D03*
%TD*%
%TO.P,R23,1*%
%TO.N,CP_SDIO_D3*%
X249526078Y-97068288D03*
%TO.P,R23,2*%
%TO.N,+3V3*%
X249073530Y-97520836D03*
%TD*%
%TO.P,R65,1*%
%TO.N,Net-(U16-VDSLVL)*%
X234744778Y-80358273D03*
%TO.P,R65,2*%
%TO.N,+3V3*%
X234292230Y-80810821D03*
%TD*%
D27*
%TO.P,R63,1*%
%TO.N,Net-(U16-DT)*%
X233526274Y-79426274D03*
%TO.P,R63,2*%
%TO.N,GND*%
X233073726Y-78973726D03*
%TD*%
D15*
%TO.P,R105,1*%
%TO.N,/Motors/ESC2/PHASE_B*%
X256857573Y-80979971D03*
%TO.P,R105,2*%
%TO.N,/Motors/ESC2/VSENSE_B*%
X256405025Y-81432519D03*
%TD*%
D17*
%TO.P,R135,1*%
%TO.N,/Motors/ESC3/PHASE_C*%
X235748726Y-108523780D03*
%TO.P,R135,2*%
%TO.N,/Motors/ESC3/VSENSE_C*%
X236201274Y-108071232D03*
%TD*%
D19*
%TO.P,C93,1*%
%TO.N,GND*%
X243470540Y-98812564D03*
%TO.P,C93,2*%
%TO.N,+3V3*%
X244149362Y-99491386D03*
%TD*%
D29*
%TO.P,J5,1,In_1*%
%TO.N,Net-(J5-In)*%
X261460228Y-86163298D03*
D30*
%TO.P,J5,2,Ext_2*%
%TO.N,GND*%
X259985227Y-84638298D03*
X262935229Y-84638298D03*
%TD*%
D15*
%TO.P,R158,1*%
%TO.N,/Motors/ESC4/VSENSE_C*%
X248200000Y-107072506D03*
%TO.P,R158,2*%
%TO.N,/Motors/ESC4/VSENSE_REF*%
X247747452Y-107525054D03*
%TD*%
D20*
%TO.P,R9,1*%
%TO.N,UART_TX*%
X230222254Y-82566619D03*
%TO.P,R9,2*%
%TO.N,Net-(R9-Pad2)*%
X230674802Y-83019167D03*
%TD*%
D31*
%TO.P,C105,1*%
%TO.N,/Motors/ESC1/GVDD*%
X233199999Y-75300000D03*
%TO.P,C105,2*%
%TO.N,GND*%
X231300001Y-75300000D03*
%TD*%
D16*
%TO.P,TP43,1,1_1*%
%TO.N,I2C_SCL*%
X228666619Y-84405097D03*
%TD*%
D15*
%TO.P,R25,1*%
%TO.N,CP_SDIO_D2*%
X249034638Y-96569777D03*
%TO.P,R25,2*%
%TO.N,+3V3*%
X248582090Y-97022325D03*
%TD*%
%TO.P,R81,1*%
%TO.N,Net-(Q9-G)*%
X240451130Y-77409638D03*
%TO.P,R81,2*%
%TO.N,/Motors/ESC1/GHC*%
X239998582Y-77862186D03*
%TD*%
%TO.P,R153,1*%
%TO.N,/Motors/ESC4/VSENSE_B*%
X247701274Y-106571232D03*
%TO.P,R153,2*%
%TO.N,/Motors/ESC4/VSENSE_REF*%
X247248726Y-107023780D03*
%TD*%
D32*
%TO.P,U23,1,PC14-OSC32_IN_1*%
%TO.N,unconnected-(U23-PC14-OSC32_IN-Pad1)*%
X255893932Y-82764930D03*
D33*
%TO.P,U23,2,PC15-OSC32_OUT_2*%
%TO.N,unconnected-(U23-PC15-OSC32_OUT-Pad2)*%
X255575734Y-83153838D03*
%TO.P,U23,3,VDDA/DDA_3*%
%TO.N,+3V3*%
X255222180Y-83507392D03*
%TO.P,U23,4,VSS/VSSA_4*%
%TO.N,GND*%
X254868627Y-83860945D03*
%TO.P,U23,5,PF2-NRST_5*%
%TO.N,/Motors/ESC2/NRST*%
X254515074Y-84214498D03*
%TO.P,U23,6,PA0_6*%
%TO.N,Net-(U23-PA0)*%
X254161520Y-84568052D03*
D34*
%TO.P,U23,7,PA1_7*%
%TO.N,Net-(U23-PA1)*%
X253772612Y-84886250D03*
D35*
%TO.P,U23,8,PA2_8*%
%TO.N,/Motors/ESC2/VSENSE_REF*%
X253235210Y-84886250D03*
D36*
%TO.P,U23,9,PA3_9*%
%TO.N,/Motors/ESC2/VSENSE_A*%
X252846302Y-84568052D03*
%TO.P,U23,10,PA4_10*%
%TO.N,unconnected-(U23-PA4-Pad10)*%
X252492748Y-84214498D03*
%TO.P,U23,11,PA5_11*%
%TO.N,/Motors/ESC2/NSLEEP*%
X252139195Y-83860945D03*
%TO.P,U23,12,PA6_12*%
%TO.N,/Motors/ESC2/NFAULT*%
X251785642Y-83507392D03*
%TO.P,U23,13,PA7_13*%
%TO.N,/Motors/ESC2/A_LOW*%
X251432088Y-83153838D03*
D37*
%TO.P,U23,14,PB0_14*%
%TO.N,/Motors/ESC2/B_LOW*%
X251113890Y-82764930D03*
D38*
%TO.P,U23,15,PB1_15*%
%TO.N,/Motors/ESC2/C_LOW*%
X251113890Y-82227528D03*
D33*
%TO.P,U23,16,PA8_16*%
%TO.N,/Motors/ESC2/A_HIGH*%
X251432088Y-81838620D03*
%TO.P,U23,17,PC6_17*%
%TO.N,unconnected-(U23-PC6-Pad17)*%
X251785642Y-81485066D03*
%TO.P,U23,18,PA11[PA9]_18*%
%TO.N,/Motors/ESC2/B_HIGH*%
X252139195Y-81131513D03*
%TO.P,U23,19,PA12[PA10]_19*%
%TO.N,/Motors/ESC2/C_HIGH*%
X252492748Y-80777960D03*
%TO.P,U23,20,PA13_20*%
%TO.N,/Motors/ESC2/SWDIO*%
X252846302Y-80424406D03*
D39*
%TO.P,U23,21,PA14-BOOT0_21*%
%TO.N,/Motors/ESC2/SWCLK*%
X253235210Y-80106208D03*
D40*
%TO.P,U23,22,PA15_22*%
%TO.N,unconnected-(U23-PA15-Pad22)*%
X253772612Y-80106208D03*
D36*
%TO.P,U23,23,PB3_23*%
%TO.N,/Motors/ESC2/VSENSE_C*%
X254157985Y-80427942D03*
%TO.P,U23,24,PB4_24*%
%TO.N,unconnected-(U23-PB4-Pad24)*%
X254515074Y-80777960D03*
%TO.P,U23,25,PB5_25*%
%TO.N,unconnected-(U23-PB5-Pad25)*%
X254868627Y-81131513D03*
%TO.P,U23,26,PB6_26*%
%TO.N,unconnected-(U23-PB6-Pad26)*%
X255222180Y-81485066D03*
%TO.P,U23,27,PB7_27*%
%TO.N,/Motors/ESC2/VSENSE_B*%
X255575734Y-81838620D03*
D41*
%TO.P,U23,28,PB8_28*%
%TO.N,unconnected-(U23-PB8-Pad28)*%
X255893932Y-82227528D03*
%TD*%
D15*
%TO.P,R141,1*%
%TO.N,GND*%
X256863100Y-107217015D03*
%TO.P,R141,2*%
%TO.N,Net-(U25-VDSLVL)*%
X256410552Y-107669563D03*
%TD*%
D42*
%TO.P,U5,1,P1_1*%
%TO.N,Net-(U5-P1)*%
X259429108Y-90842211D03*
%TO.P,U5,2,GND_2*%
%TO.N,GND*%
X259075555Y-90488658D03*
%TO.P,U5,3,P2_3*%
%TO.N,Net-(U5-P2)*%
X258722002Y-90135105D03*
D43*
%TO.P,U5,4,NC_4*%
%TO.N,unconnected-(U5-NC-Pad4)*%
X258842210Y-89618917D03*
D44*
%TO.P,U5,5,GND_5*%
%TO.N,GND*%
X259358398Y-89498709D03*
D42*
%TO.P,U5,6,P3_6*%
%TO.N,Net-(U5-P3)*%
X259711951Y-89852262D03*
%TO.P,U5,7,GND_7*%
%TO.N,GND*%
X260065504Y-90205815D03*
D43*
%TO.P,U5,8,NC_8*%
%TO.N,unconnected-(U5-NC-Pad8)*%
X259945296Y-90722003D03*
%TD*%
D27*
%TO.P,C53,1*%
%TO.N,/Coprocessor/ANT_2G*%
X255833470Y-92019544D03*
%TO.P,C53,2*%
%TO.N,GND*%
X255380922Y-91566996D03*
%TD*%
D15*
%TO.P,C214,1*%
%TO.N,GND*%
X247720210Y-102571323D03*
%TO.P,C214,2*%
%TO.N,+3V3*%
X247267662Y-103023871D03*
%TD*%
D17*
%TO.P,R91,1*%
%TO.N,GND*%
X246736900Y-80282985D03*
%TO.P,R91,2*%
%TO.N,Net-(U19-VDSLVL)*%
X247189448Y-79830437D03*
%TD*%
D19*
%TO.P,C35,1*%
%TO.N,Net-(C35-Pad1)*%
X256720889Y-100179556D03*
%TO.P,C35,2*%
%TO.N,GND*%
X257399711Y-100858378D03*
%TD*%
D15*
%TO.P,R100,1*%
%TO.N,/Motors/ESC2/VSENSE_A*%
X252706299Y-85581246D03*
%TO.P,R100,2*%
%TO.N,/Motors/ESC2/VSENSE_REF*%
X252253751Y-86033794D03*
%TD*%
%TO.P,R28,1*%
%TO.N,Net-(J5-In)*%
X261186502Y-88412024D03*
%TO.P,R28,2*%
%TO.N,Net-(U5-P3)*%
X260733954Y-88864572D03*
%TD*%
D45*
%TO.P,C1,1*%
%TO.N,+3V3*%
X238928249Y-87628249D03*
%TO.P,C1,2*%
%TO.N,GND*%
X240271751Y-88971751D03*
%TD*%
D23*
%TO.P,C18,1*%
%TO.N,/MCU/VDDO_3*%
X239310589Y-98339411D03*
%TO.P,C18,2*%
%TO.N,GND*%
X239989411Y-97660589D03*
%TD*%
D15*
%TO.P,R151,1*%
%TO.N,GND*%
X251851274Y-101971232D03*
%TO.P,R151,2*%
%TO.N,/Motors/ESC4/VSENSE_A*%
X251398726Y-102423780D03*
%TD*%
%TO.P,R6,1*%
%TO.N,Net-(U1-GPIO36)*%
X228076274Y-96273726D03*
%TO.P,R6,2*%
%TO.N,+3V3*%
X227623726Y-96726274D03*
%TD*%
D16*
%TO.P,TP40,1,1_1*%
%TO.N,Net-(R9-Pad2)*%
X229600000Y-83500000D03*
%TD*%
D17*
%TO.P,R51,1*%
%TO.N,I2C_SDA*%
X236458909Y-86571672D03*
%TO.P,R51,2*%
%TO.N,+3V3*%
X236911457Y-86119124D03*
%TD*%
%TO.P,R134,1*%
%TO.N,GND*%
X235248726Y-108023780D03*
%TO.P,R134,2*%
%TO.N,/Motors/ESC3/VSENSE_C*%
X235701274Y-107571232D03*
%TD*%
D27*
%TO.P,C85,1*%
%TO.N,GND*%
X245074651Y-95605092D03*
%TO.P,C85,2*%
%TO.N,Net-(U12-C1)*%
X244622103Y-95152544D03*
%TD*%
D46*
%TO.P,U25,1,PVDD_1*%
%TO.N,+BATT*%
X255848402Y-109766135D03*
%TO.P,U25,2,CPL_2*%
%TO.N,Net-(U25-CPL)*%
X255565560Y-110048978D03*
%TO.P,U25,3,CPH_3*%
%TO.N,Net-(U25-CPH)*%
X255282717Y-110331821D03*
%TO.P,U25,4,GVDD_4*%
%TO.N,/Motors/ESC4/GVDD*%
X254999874Y-110614663D03*
%TO.P,U25,5,BSTA_5*%
%TO.N,/Motors/ESC4/BSTA*%
X254717032Y-110897506D03*
%TO.P,U25,6,SHA_6*%
%TO.N,/Motors/ESC4/PHASE_A*%
X254434189Y-111180349D03*
%TO.P,U25,7,GHA_7*%
%TO.N,/Motors/ESC4/GHA*%
X254151346Y-111463191D03*
D47*
%TO.P,U25,8,GLA_8*%
%TO.N,/Motors/ESC4/GLA*%
X253090686Y-111463191D03*
%TO.P,U25,9,BSTB_9*%
%TO.N,Net-(U25-BSTB)*%
X252807843Y-111180349D03*
%TO.P,U25,10,SHB_10*%
%TO.N,/Motors/ESC4/PHASE_B*%
X252525000Y-110897506D03*
%TO.P,U25,11,GHB_11*%
%TO.N,/Motors/ESC4/GHB*%
X252242158Y-110614663D03*
%TO.P,U25,12,GLB_12*%
%TO.N,/Motors/ESC4/GLB*%
X251959315Y-110331821D03*
%TO.P,U25,13,BSTC_13*%
%TO.N,Net-(U25-BSTC)*%
X251676472Y-110048978D03*
%TO.P,U25,14,SHC_14*%
%TO.N,/Motors/ESC4/PHASE_C*%
X251393630Y-109766135D03*
D46*
%TO.P,U25,15,GHC_15*%
%TO.N,/Motors/ESC4/GHC*%
X251393630Y-108705475D03*
%TO.P,U25,16,GLC_16*%
%TO.N,/Motors/ESC4/GLC*%
X251676472Y-108422632D03*
%TO.P,U25,17,LSS_17*%
%TO.N,GND*%
X251959315Y-108139789D03*
%TO.P,U25,18,INHC_18*%
%TO.N,/Motors/ESC4/C_HIGH*%
X252242158Y-107856947D03*
%TO.P,U25,19,INHB_19*%
%TO.N,/Motors/ESC4/B_HIGH*%
X252525000Y-107574104D03*
%TO.P,U25,20,INHA_20*%
%TO.N,/Motors/ESC4/A_HIGH*%
X252807843Y-107291261D03*
%TO.P,U25,21,INLC_21*%
%TO.N,/Motors/ESC4/C_LOW*%
X253090686Y-107008419D03*
D47*
%TO.P,U25,22,INLB_22*%
%TO.N,/Motors/ESC4/B_LOW*%
X254151346Y-107008419D03*
%TO.P,U25,23,INLA_23*%
%TO.N,/Motors/ESC4/A_LOW*%
X254434189Y-107291261D03*
%TO.P,U25,24,nFAULT_24*%
%TO.N,/Motors/ESC4/NFAULT*%
X254717032Y-107574104D03*
%TO.P,U25,25,nSLEEP_25*%
%TO.N,/Motors/ESC4/NSLEEP*%
X254999874Y-107856947D03*
%TO.P,U25,26,VDSLVL_26*%
%TO.N,Net-(U25-VDSLVL)*%
X255282717Y-108139789D03*
%TO.P,U25,27,DT_27*%
%TO.N,Net-(U25-DT)*%
X255565560Y-108422632D03*
%TO.P,U25,28,GND_28*%
%TO.N,GND*%
X255848402Y-108705475D03*
D48*
%TO.P,U25,29,EP_29*%
X253621016Y-109235805D03*
%TD*%
D49*
%TO.P,U13,1,SDO/SA0_1*%
%TO.N,unconnected-(U13-SDO{slash}SA0-Pad1)*%
X240447658Y-99678769D03*
%TO.P,U13,2,SDX_2*%
%TO.N,GND*%
X240801212Y-99325216D03*
%TO.P,U13,3,SCX_3*%
X241154765Y-98971663D03*
%TO.P,U13,4,INT1_4*%
%TO.N,unconnected-(U13-INT1-Pad4)*%
X241508318Y-98618109D03*
D50*
%TO.P,U13,5,VDDIO_5*%
%TO.N,+3V3*%
X242091682Y-98971663D03*
%TO.P,U13,6,GND_6*%
%TO.N,GND*%
X242445235Y-99325216D03*
%TO.P,U13,7,GND_7*%
X242798788Y-99678769D03*
D49*
%TO.P,U13,8,VDD_8*%
%TO.N,+3V3*%
X243152342Y-100262133D03*
%TO.P,U13,9,INT2_9*%
%TO.N,unconnected-(U13-INT2-Pad9)*%
X242798788Y-100615686D03*
%TO.P,U13,10,NC_10*%
%TO.N,unconnected-(U13-NC-Pad10)*%
X242445235Y-100969239D03*
%TO.P,U13,11,NC_11*%
%TO.N,unconnected-(U13-NC-Pad11)*%
X242091682Y-101322793D03*
D50*
%TO.P,U13,12,CS_12*%
%TO.N,Net-(U13-CS)*%
X241508318Y-100969239D03*
%TO.P,U13,13,SCL_13*%
%TO.N,I2C_SCL*%
X241154765Y-100615686D03*
%TO.P,U13,14,SDA_14*%
%TO.N,I2C_SDA*%
X240801212Y-100262133D03*
%TD*%
D15*
%TO.P,C20,1*%
%TO.N,VDD_HP*%
X227523297Y-94573223D03*
%TO.P,C20,2*%
%TO.N,GND*%
X227070749Y-95025771D03*
%TD*%
D51*
%TO.P,L2,1,1_1*%
%TO.N,+3V3*%
X256445118Y-89116871D03*
%TO.P,L2,2,2_2*%
%TO.N,Net-(U4-VDDA1)*%
X255759224Y-89802765D03*
%TD*%
D17*
%TO.P,R108,1*%
%TO.N,/Motors/ESC2/VSENSE_C*%
X255400000Y-80427494D03*
%TO.P,R108,2*%
%TO.N,/Motors/ESC2/VSENSE_REF*%
X255852548Y-79974946D03*
%TD*%
D21*
%TO.P,C29,1*%
%TO.N,/MCU/VDD_PSRAM*%
X228903822Y-97903822D03*
%TO.P,C29,2*%
%TO.N,GND*%
X228225000Y-97225000D03*
%TD*%
D18*
%TO.P,C133,1*%
%TO.N,/Motors/ESC2/PHASE_A*%
X248868826Y-74848870D03*
%TO.P,C133,2*%
%TO.N,/Motors/ESC2/BSTA*%
X248190004Y-75527692D03*
%TD*%
D16*
%TO.P,TP37,1,1_1*%
%TO.N,+3V3*%
X256300000Y-104200000D03*
%TD*%
D27*
%TO.P,C51,1*%
%TO.N,+3V3*%
X257420925Y-92652405D03*
%TO.P,C51,2*%
%TO.N,GND*%
X256968377Y-92199857D03*
%TD*%
D17*
%TO.P,C178,1*%
%TO.N,GND*%
X242374460Y-84395853D03*
%TO.P,C178,2*%
%TO.N,+3V3*%
X242827008Y-83943305D03*
%TD*%
D16*
%TO.P,TP30,1,1_1*%
%TO.N,Net-(U4-MTDO{slash}GPIO5{slash}FSPIWP{slash}ADC1_CH4)*%
X255400000Y-103300000D03*
%TD*%
D15*
%TO.P,R85,1*%
%TO.N,/Motors/ESC1/PHASE_C*%
X241876274Y-78973726D03*
%TO.P,R85,2*%
%TO.N,/Motors/ESC1/VSENSE_C*%
X241423726Y-79426274D03*
%TD*%
D20*
%TO.P,R18,1*%
%TO.N,Net-(JP6-C)*%
X250225000Y-91375000D03*
%TO.P,R18,2*%
%TO.N,Net-(U4-GPIO25)*%
X250677548Y-91827548D03*
%TD*%
%TO.P,R136,1*%
%TO.N,Net-(U20-PA1)*%
X240776795Y-85873726D03*
%TO.P,R136,2*%
%TO.N,Net-(D14-A)*%
X241229343Y-86326274D03*
%TD*%
D27*
%TO.P,R99,1*%
%TO.N,Net-(Q14-G)*%
X253901274Y-75628768D03*
%TO.P,R99,2*%
%TO.N,/Motors/ESC2/GLB*%
X253448726Y-75176220D03*
%TD*%
D19*
%TO.P,C182,1*%
%TO.N,/Motors/ESC4/PHASE_B*%
X251910589Y-111733095D03*
%TO.P,C182,2*%
%TO.N,Net-(U25-BSTB)*%
X252589411Y-112411917D03*
%TD*%
D52*
%TO.P,JP5,1,A_1*%
%TO.N,Net-(JP5-A)*%
X254150555Y-89353751D03*
%TO.P,JP5,2,B_2*%
%TO.N,GND*%
X253655580Y-89848726D03*
%TD*%
D20*
%TO.P,R138,1*%
%TO.N,Net-(U25-DT)*%
X257098726Y-108071232D03*
%TO.P,R138,2*%
%TO.N,GND*%
X257551274Y-108523780D03*
%TD*%
D17*
%TO.P,R16,1*%
%TO.N,CP_SDIO_D1*%
X250673726Y-100226274D03*
%TO.P,R16,2*%
%TO.N,+3V3*%
X251126274Y-99773726D03*
%TD*%
D15*
%TO.P,R75,1*%
%TO.N,/Motors/ESC1/VSENSE_A*%
X239731299Y-85578752D03*
%TO.P,R75,2*%
%TO.N,/Motors/ESC1/VSENSE_REF*%
X239278751Y-86031300D03*
%TD*%
D53*
%TO.P,C67,1*%
%TO.N,VDD_HP*%
X233198008Y-100701992D03*
%TO.P,C67,2*%
%TO.N,GND*%
X232101992Y-101798008D03*
%TD*%
D16*
%TO.P,TP23,1,1_1*%
%TO.N,/Motors/ESC1/SWCLK*%
X243200000Y-78200000D03*
%TD*%
D18*
%TO.P,C83,1*%
%TO.N,GND*%
X245526174Y-97187986D03*
%TO.P,C83,2*%
%TO.N,+3V3*%
X244847352Y-97866808D03*
%TD*%
D54*
%TO.P,C57,1*%
%TO.N,Net-(J5-In)*%
X261470228Y-87538298D03*
%TO.P,C57,2*%
%TO.N,GND*%
X262110228Y-87538298D03*
%TD*%
D17*
%TO.P,R157,1*%
%TO.N,Net-(Q28-G)*%
X249675000Y-109597506D03*
%TO.P,R157,2*%
%TO.N,/Motors/ESC4/GLC*%
X250127548Y-109144958D03*
%TD*%
D31*
%TO.P,C129,1*%
%TO.N,/Motors/ESC2/GVDD*%
X246175000Y-75302494D03*
%TO.P,C129,2*%
%TO.N,GND*%
X244275000Y-75302494D03*
%TD*%
D15*
%TO.P,C23,1*%
%TO.N,+3V3*%
X230126274Y-98673726D03*
%TO.P,C23,2*%
%TO.N,GND*%
X229673726Y-99126274D03*
%TD*%
D27*
%TO.P,R48,1*%
%TO.N,Net-(U14-NRESET)*%
X245526274Y-92026274D03*
%TO.P,R48,2*%
%TO.N,+3V3*%
X245073726Y-91573726D03*
%TD*%
D15*
%TO.P,R107,1*%
%TO.N,Net-(Q16-G)*%
X253925000Y-77902494D03*
%TO.P,R107,2*%
%TO.N,/Motors/ESC2/GLC*%
X253472452Y-78355042D03*
%TD*%
%TO.P,R142,1*%
%TO.N,Net-(U23-PA0)*%
X254901274Y-85076220D03*
%TO.P,R142,2*%
%TO.N,DSHOT_2*%
X254448726Y-85528768D03*
%TD*%
D23*
%TO.P,C213,1*%
%TO.N,GND*%
X233396178Y-104703822D03*
%TO.P,C213,2*%
%TO.N,+3V3*%
X234075000Y-104025000D03*
%TD*%
D27*
%TO.P,R167,1*%
%TO.N,Net-(U30-PA1)*%
X249848205Y-101623780D03*
%TO.P,R167,2*%
%TO.N,Net-(D17-A)*%
X249395657Y-101171232D03*
%TD*%
D17*
%TO.P,R156,1*%
%TO.N,Net-(Q27-G)*%
X250173870Y-110087868D03*
%TO.P,R156,2*%
%TO.N,/Motors/ESC4/GHC*%
X250626418Y-109635320D03*
%TD*%
D55*
%TO.P,Y2,1,1_1*%
%TO.N,Net-(C35-Pad1)*%
X257463351Y-99012830D03*
%TO.P,Y2,2,G_2*%
%TO.N,GND*%
X258700788Y-97775393D03*
%TO.P,Y2,3,3_3*%
%TO.N,Net-(U4-XTAL_N)*%
X259690737Y-98765342D03*
%TO.P,Y2,4,G_4*%
%TO.N,GND*%
X258453300Y-100002779D03*
%TD*%
D27*
%TO.P,R20,1*%
%TO.N,Net-(U4-GPIO26)*%
X253026274Y-87326274D03*
%TO.P,R20,2*%
%TO.N,Net-(JP3-B)*%
X252573726Y-86873726D03*
%TD*%
D56*
%TO.P,JP6,1,A_1*%
%TO.N,GND*%
X249075297Y-93258749D03*
%TO.P,JP6,2,C_2*%
%TO.N,Net-(JP6-C)*%
X249570272Y-92763774D03*
%TO.P,JP6,3,B_3*%
%TO.N,+3V3*%
X250065247Y-92268799D03*
%TD*%
D15*
%TO.P,C10,1*%
%TO.N,+3V3*%
X231302548Y-87347452D03*
%TO.P,C10,2*%
%TO.N,GND*%
X230850000Y-87800000D03*
%TD*%
D20*
%TO.P,C55,1*%
%TO.N,Net-(U5-P2)*%
X257656038Y-90136873D03*
%TO.P,C55,2*%
%TO.N,GND*%
X258108586Y-90589421D03*
%TD*%
%TO.P,R98,1*%
%TO.N,Net-(Q13-G)*%
X252048726Y-74976220D03*
%TO.P,R98,2*%
%TO.N,/Motors/ESC2/GHB*%
X252501274Y-75428768D03*
%TD*%
D57*
%TO.P,U6,1,EN_1*%
%TO.N,EN_DCDC*%
X229244999Y-103390001D03*
%TO.P,U6,2,GND_2*%
%TO.N,GND*%
X229244999Y-104340000D03*
%TO.P,U6,3,SW_3*%
%TO.N,Net-(U6-SW)*%
X229244999Y-105289999D03*
%TO.P,U6,4,VIN_4*%
%TO.N,+3V3*%
X226969999Y-105289999D03*
%TO.P,U6,5,FB_5*%
%TO.N,FB_DCDC*%
X226969999Y-103390001D03*
%TD*%
D27*
%TO.P,C26,1*%
%TO.N,/MCU/VDD_PSRAM*%
X229526274Y-97351274D03*
%TO.P,C26,2*%
%TO.N,GND*%
X229073726Y-96898726D03*
%TD*%
D17*
%TO.P,R130,1*%
%TO.N,/Motors/ESC3/PHASE_B*%
X233742427Y-106520029D03*
%TO.P,R130,2*%
%TO.N,/Motors/ESC3/VSENSE_B*%
X234194975Y-106067481D03*
%TD*%
D15*
%TO.P,R80,1*%
%TO.N,/Motors/ESC1/PHASE_B*%
X243882573Y-80977477D03*
%TO.P,R80,2*%
%TO.N,/Motors/ESC1/VSENSE_B*%
X243430025Y-81430025D03*
%TD*%
D17*
%TO.P,R159,1*%
%TO.N,GND*%
X248248726Y-108023780D03*
%TO.P,R159,2*%
%TO.N,/Motors/ESC4/VSENSE_C*%
X248701274Y-107571232D03*
%TD*%
D20*
%TO.P,C47,1*%
%TO.N,+3V3*%
X256936557Y-88491082D03*
%TO.P,C47,2*%
%TO.N,GND*%
X257389105Y-88943630D03*
%TD*%
D21*
%TO.P,C45,1*%
%TO.N,+3V3*%
X258120959Y-92185714D03*
%TO.P,C45,2*%
%TO.N,GND*%
X257442137Y-91506892D03*
%TD*%
%TO.P,C36,1*%
%TO.N,Net-(U4-XTAL_N)*%
X260475625Y-97641043D03*
%TO.P,C36,2*%
%TO.N,GND*%
X259796803Y-96962221D03*
%TD*%
D16*
%TO.P,TP31,1,1_1*%
%TO.N,/Motors/ESC4/SWCLK*%
X247425000Y-109297506D03*
%TD*%
D17*
%TO.P,R83,1*%
%TO.N,/Motors/ESC1/VSENSE_C*%
X242425000Y-80425000D03*
%TO.P,R83,2*%
%TO.N,/Motors/ESC1/VSENSE_REF*%
X242877548Y-79972452D03*
%TD*%
D20*
%TO.P,R30,1*%
%TO.N,GND*%
X227523726Y-87773726D03*
%TO.P,R30,2*%
%TO.N,BAT_VSENSE*%
X227976274Y-88226274D03*
%TD*%
D54*
%TO.P,R32,1*%
%TO.N,GND*%
X226454999Y-102275000D03*
%TO.P,R32,2*%
%TO.N,FB_DCDC*%
X227094999Y-102275000D03*
%TD*%
D21*
%TO.P,C151,1*%
%TO.N,+BATT*%
X244361611Y-109476221D03*
%TO.P,C151,2*%
%TO.N,GND*%
X243682789Y-108797399D03*
%TD*%
D20*
%TO.P,R113,1*%
%TO.N,Net-(U22-DT)*%
X244098726Y-108071232D03*
%TO.P,R113,2*%
%TO.N,GND*%
X244551274Y-108523780D03*
%TD*%
D58*
%TO.P,R112,1*%
%TO.N,+3V3*%
X241375000Y-104227506D03*
%TO.P,R112,2*%
%TO.N,/Motors/ESC3/NFAULT*%
X241375000Y-104867506D03*
%TD*%
D16*
%TO.P,TP18,1,1_1*%
%TO.N,Net-(U4-MTMS{slash}GPIO2{slash}FSPIQ{slash}ADC1_CH1)*%
X256400000Y-102500000D03*
%TD*%
D20*
%TO.P,R165,1*%
%TO.N,Net-(U23-PA1)*%
X253751795Y-85876220D03*
%TO.P,R165,2*%
%TO.N,Net-(D15-A)*%
X254204343Y-86328768D03*
%TD*%
D59*
%TO.P,U12,1,SCL/SPC_1*%
%TO.N,I2C_SCL*%
X242658856Y-96555125D03*
%TO.P,U12,2,NC_2*%
%TO.N,unconnected-(U12-NC-Pad2)*%
X243012409Y-96201572D03*
%TO.P,U12,3,~{CS}_3*%
%TO.N,Net-(U12-~{CS})*%
X243365963Y-95848018D03*
%TO.P,U12,4,SDA/SDI/SDO_4*%
%TO.N,I2C_SDA*%
X243719516Y-95494465D03*
D60*
%TO.P,U12,5,C1_5*%
%TO.N,Net-(U12-C1)*%
X244090747Y-95848018D03*
%TO.P,U12,6,GND_6*%
%TO.N,GND*%
X244444301Y-96201572D03*
D59*
%TO.P,U12,7,DRDY_7*%
%TO.N,unconnected-(U12-DRDY-Pad7)*%
X244797854Y-96572803D03*
%TO.P,U12,8,GND_8*%
%TO.N,GND*%
X244444301Y-96926356D03*
%TO.P,U12,9,Vdd_9*%
%TO.N,+3V3*%
X244090747Y-97279910D03*
%TO.P,U12,10,Vdd_IO_10*%
X243737194Y-97633463D03*
D60*
%TO.P,U12,11,NC_11*%
%TO.N,unconnected-(U12-NC-Pad11)*%
X243365963Y-97279910D03*
%TO.P,U12,12,NC_12*%
%TO.N,unconnected-(U12-NC-Pad12)*%
X243012409Y-96926356D03*
%TD*%
D18*
%TO.P,C38,1*%
%TO.N,+3V3*%
X255752152Y-99592658D03*
%TO.P,C38,2*%
%TO.N,GND*%
X255073330Y-100271480D03*
%TD*%
D16*
%TO.P,TP39,1,1_1*%
%TO.N,Net-(R8-Pad1)*%
X228694903Y-82594903D03*
%TD*%
%TO.P,TP41,1,1_1*%
%TO.N,/Motors/ESC3/NRST*%
X233375000Y-109897506D03*
%TD*%
D17*
%TO.P,R49,1*%
%TO.N,I2C_SCL*%
X236953883Y-87066647D03*
%TO.P,R49,2*%
%TO.N,+3V3*%
X237406431Y-86614099D03*
%TD*%
%TO.P,R143,1*%
%TO.N,Net-(U26-PA0)*%
X235698726Y-102423780D03*
%TO.P,R143,2*%
%TO.N,DSHOT_3*%
X236151274Y-101971232D03*
%TD*%
D18*
%TO.P,C155,1*%
%TO.N,Net-(U22-CPL)*%
X243864411Y-110358095D03*
%TO.P,C155,2*%
%TO.N,Net-(U22-CPH)*%
X243185589Y-111036917D03*
%TD*%
D15*
%TO.P,R133,1*%
%TO.N,/Motors/ESC3/VSENSE_C*%
X235200000Y-107072506D03*
%TO.P,R133,2*%
%TO.N,/Motors/ESC3/VSENSE_REF*%
X234747452Y-107525054D03*
%TD*%
D20*
%TO.P,R124,1*%
%TO.N,Net-(Q20-G)*%
X236698726Y-111871232D03*
%TO.P,R124,2*%
%TO.N,/Motors/ESC3/GLB*%
X237151274Y-112323780D03*
%TD*%
D27*
%TO.P,D16,1,K_1*%
%TO.N,GND*%
X237681891Y-100753822D03*
%TO.P,D16,2,A_2*%
%TO.N,Net-(D16-A)*%
X237229343Y-100301274D03*
%TD*%
D20*
%TO.P,C3,1*%
%TO.N,VDD_HP*%
X241294202Y-91479631D03*
%TO.P,C3,2*%
%TO.N,GND*%
X241746750Y-91932179D03*
%TD*%
D23*
%TO.P,C183,1*%
%TO.N,/Motors/ESC4/PHASE_C*%
X250347112Y-111378338D03*
%TO.P,C183,2*%
%TO.N,Net-(U25-BSTC)*%
X251025934Y-110699516D03*
%TD*%
D17*
%TO.P,R50,1*%
%TO.N,SPI_PMW3901_CS*%
X244100000Y-85400000D03*
%TO.P,R50,2*%
%TO.N,+3V3*%
X244552548Y-84947452D03*
%TD*%
D23*
%TO.P,C181,1*%
%TO.N,/Motors/ESC4/PHASE_A*%
X254731174Y-112651130D03*
%TO.P,C181,2*%
%TO.N,/Motors/ESC4/BSTA*%
X255409996Y-111972308D03*
%TD*%
D27*
%TO.P,R14,1*%
%TO.N,+3V3*%
X256204700Y-98531997D03*
%TO.P,R14,2*%
%TO.N,Net-(U4-CHIP_PU)*%
X255752152Y-98079449D03*
%TD*%
D17*
%TO.P,C13,1*%
%TO.N,/MCU/VDDO_3*%
X238177630Y-97318564D03*
%TO.P,C13,2*%
%TO.N,GND*%
X238630178Y-96866016D03*
%TD*%
D61*
%TO.P,U16,1,PVDD_1*%
%TO.N,+BATT*%
X234776598Y-77731371D03*
%TO.P,U16,2,CPL_2*%
%TO.N,Net-(U16-CPL)*%
X235059440Y-77448528D03*
%TO.P,U16,3,CPH_3*%
%TO.N,Net-(U16-CPH)*%
X235342283Y-77165685D03*
%TO.P,U16,4,GVDD_4*%
%TO.N,/Motors/ESC1/GVDD*%
X235625126Y-76882843D03*
%TO.P,U16,5,BSTA_5*%
%TO.N,/Motors/ESC1/BSTA*%
X235907968Y-76600000D03*
%TO.P,U16,6,SHA_6*%
%TO.N,/Motors/ESC1/PHASE_A*%
X236190811Y-76317157D03*
%TO.P,U16,7,GHA_7*%
%TO.N,/Motors/ESC1/GHA*%
X236473654Y-76034315D03*
D62*
%TO.P,U16,8,GLA_8*%
%TO.N,/Motors/ESC1/GLA*%
X237534314Y-76034315D03*
%TO.P,U16,9,BSTB_9*%
%TO.N,Net-(U16-BSTB)*%
X237817157Y-76317157D03*
%TO.P,U16,10,SHB_10*%
%TO.N,/Motors/ESC1/PHASE_B*%
X238100000Y-76600000D03*
%TO.P,U16,11,GHB_11*%
%TO.N,/Motors/ESC1/GHB*%
X238382842Y-76882843D03*
%TO.P,U16,12,GLB_12*%
%TO.N,/Motors/ESC1/GLB*%
X238665685Y-77165685D03*
%TO.P,U16,13,BSTC_13*%
%TO.N,Net-(U16-BSTC)*%
X238948528Y-77448528D03*
%TO.P,U16,14,SHC_14*%
%TO.N,/Motors/ESC1/PHASE_C*%
X239231370Y-77731371D03*
D61*
%TO.P,U16,15,GHC_15*%
%TO.N,/Motors/ESC1/GHC*%
X239231370Y-78792031D03*
%TO.P,U16,16,GLC_16*%
%TO.N,/Motors/ESC1/GLC*%
X238948528Y-79074874D03*
%TO.P,U16,17,LSS_17*%
%TO.N,GND*%
X238665685Y-79357717D03*
%TO.P,U16,18,INHC_18*%
%TO.N,/Motors/ESC1/C_HIGH*%
X238382842Y-79640559D03*
%TO.P,U16,19,INHB_19*%
%TO.N,/Motors/ESC1/B_HIGH*%
X238100000Y-79923402D03*
%TO.P,U16,20,INHA_20*%
%TO.N,/Motors/ESC1/A_HIGH*%
X237817157Y-80206245D03*
%TO.P,U16,21,INLC_21*%
%TO.N,/Motors/ESC1/C_LOW*%
X237534314Y-80489087D03*
D62*
%TO.P,U16,22,INLB_22*%
%TO.N,/Motors/ESC1/B_LOW*%
X236473654Y-80489087D03*
%TO.P,U16,23,INLA_23*%
%TO.N,/Motors/ESC1/A_LOW*%
X236190811Y-80206245D03*
%TO.P,U16,24,nFAULT_24*%
%TO.N,/Motors/ESC1/NFAULT*%
X235907968Y-79923402D03*
%TO.P,U16,25,nSLEEP_25*%
%TO.N,/Motors/ESC1/NSLEEP*%
X235625126Y-79640559D03*
%TO.P,U16,26,VDSLVL_26*%
%TO.N,Net-(U16-VDSLVL)*%
X235342283Y-79357717D03*
%TO.P,U16,27,DT_27*%
%TO.N,Net-(U16-DT)*%
X235059440Y-79074874D03*
%TO.P,U16,28,GND_28*%
%TO.N,GND*%
X234776598Y-78792031D03*
D63*
%TO.P,U16,29,EP_29*%
X237003984Y-78261701D03*
%TD*%
D20*
%TO.P,R73,1*%
%TO.N,Net-(Q7-G)*%
X239073726Y-74973726D03*
%TO.P,R73,2*%
%TO.N,/Motors/ESC1/GHB*%
X239526274Y-75426274D03*
%TD*%
D16*
%TO.P,TP42,1,1_1*%
%TO.N,I2C_SDA*%
X227761522Y-83500000D03*
%TD*%
D27*
%TO.P,C54,1*%
%TO.N,Net-(U5-P1)*%
X259455625Y-91936459D03*
%TO.P,C54,2*%
%TO.N,GND*%
X259003077Y-91483911D03*
%TD*%
D15*
%TO.P,R109,1*%
%TO.N,GND*%
X255351274Y-79476220D03*
%TO.P,R109,2*%
%TO.N,/Motors/ESC2/VSENSE_C*%
X254898726Y-79928768D03*
%TD*%
D54*
%TO.P,R7,1*%
%TO.N,Net-(JP1-B)*%
X228030000Y-100000000D03*
%TO.P,R7,2*%
%TO.N,GND*%
X228670000Y-100000000D03*
%TD*%
D17*
%TO.P,R76,1*%
%TO.N,GND*%
X238773726Y-85526274D03*
%TO.P,R76,2*%
%TO.N,/Motors/ESC1/VSENSE_A*%
X239226274Y-85073726D03*
%TD*%
D16*
%TO.P,TP24,1,1_1*%
%TO.N,/Motors/ESC2/SWDIO*%
X256175000Y-77002494D03*
%TD*%
D17*
%TO.P,R22,1*%
%TO.N,Net-(U4-GPIO28)*%
X254242479Y-90393198D03*
%TO.P,R22,2*%
%TO.N,Net-(JP5-A)*%
X254695027Y-89940650D03*
%TD*%
D64*
%TO.P,C86,1*%
%TO.N,GND*%
X244751992Y-92851992D03*
%TO.P,C86,2*%
%TO.N,+3V3*%
X245848008Y-93948008D03*
%TD*%
D65*
%TO.P,C66,1*%
%TO.N,VDD_HP*%
X229914999Y-102275000D03*
%TO.P,C66,2*%
%TO.N,FB_DCDC*%
X229274999Y-102275000D03*
%TD*%
D27*
%TO.P,C17,1*%
%TO.N,+3V3*%
X228952548Y-89602548D03*
%TO.P,C17,2*%
%TO.N,GND*%
X228500000Y-89150000D03*
%TD*%
D15*
%TO.P,R106,1*%
%TO.N,Net-(Q15-G)*%
X253426130Y-77412132D03*
%TO.P,R106,2*%
%TO.N,/Motors/ESC2/GHC*%
X252973582Y-77864680D03*
%TD*%
D27*
%TO.P,R21,1*%
%TO.N,Net-(U4-GPIO27)*%
X252633812Y-90304810D03*
%TO.P,R21,2*%
%TO.N,Net-(JP4-A)*%
X252181264Y-89852262D03*
%TD*%
D16*
%TO.P,TP35,1,1_1*%
%TO.N,Net-(U4-MTCK{slash}GPIO4{slash}FSPIHD{slash}ADC1_CH3)*%
X254500000Y-102400000D03*
%TD*%
D66*
%TO.P,U4,1,VDDA6_1*%
%TO.N,+3V3*%
X256791600Y-95530330D03*
%TO.P,U4,2,GND_2*%
%TO.N,GND*%
X256508757Y-95813173D03*
%TO.P,U4,3,VDDA7_3*%
%TO.N,+3V3*%
X256225914Y-96096016D03*
%TO.P,U4,4,XTAL_N_4*%
%TO.N,Net-(U4-XTAL_N)*%
X255943072Y-96378858D03*
%TO.P,U4,5,XTAL_P_5*%
%TO.N,Net-(U4-XTAL_P)*%
X255660229Y-96661701D03*
%TO.P,U4,6,VDDA8_6*%
%TO.N,+3V3*%
X255377386Y-96944544D03*
%TO.P,U4,7,CHIP_PU_7*%
%TO.N,Net-(U4-CHIP_PU)*%
X255094544Y-97227386D03*
%TO.P,U4,8,VDDPST1_8*%
%TO.N,+3V3*%
X254811701Y-97510229D03*
%TO.P,U4,9,GPIO0/XTAL_32K_P_9*%
%TO.N,unconnected-(U4-GPIO0{slash}XTAL_32K_P-Pad9)*%
X254528858Y-97793072D03*
%TO.P,U4,10,GPIO1/XTAL_32K_N/ADC1_CH0_10*%
%TO.N,unconnected-(U4-GPIO1{slash}XTAL_32K_N{slash}ADC1_CH0-Pad10)*%
X254246016Y-98075914D03*
%TO.P,U4,11,MTMS/GPIO2/FSPIQ/ADC1_CH1_11*%
%TO.N,Net-(U4-MTMS{slash}GPIO2{slash}FSPIQ{slash}ADC1_CH1)*%
X253963173Y-98358757D03*
%TO.P,U4,12,MTDI/GPIO3/ADC1_CH2_12*%
%TO.N,Net-(U4-MTDI{slash}GPIO3{slash}ADC1_CH2)*%
X253680330Y-98641600D03*
D67*
%TO.P,U4,13,MTCK/GPIO4/FSPIHD/ADC1_CH3_13*%
%TO.N,Net-(U4-MTCK{slash}GPIO4{slash}FSPIHD{slash}ADC1_CH3)*%
X252619670Y-98641600D03*
%TO.P,U4,14,MTDO/GPIO5/FSPIWP/ADC1_CH4_14*%
%TO.N,Net-(U4-MTDO{slash}GPIO5{slash}FSPIWP{slash}ADC1_CH4)*%
X252336827Y-98358757D03*
%TO.P,U4,15,GPIO6/FSPICLK/ADC1_CH5_15*%
%TO.N,unconnected-(U4-GPIO6{slash}FSPICLK{slash}ADC1_CH5-Pad15)*%
X252053984Y-98075914D03*
%TO.P,U4,16,GPIO7/SDIO_DATA1/FSPID_16*%
%TO.N,CP_SDIO_D1*%
X251771142Y-97793072D03*
%TO.P,U4,17,GPIO8/SDIO_DATA0_17*%
%TO.N,CP_SDIO_D0*%
X251488299Y-97510229D03*
%TO.P,U4,18,GPIO9/SDIO_CLK_18*%
%TO.N,CP_SDIO_CLK*%
X251205456Y-97227386D03*
%TO.P,U4,19,GPIO10/SDIO_CMD_19*%
%TO.N,CP_SDIO_CMD*%
X250922614Y-96944544D03*
%TO.P,U4,20,GPIO11/U0TXD_20*%
%TO.N,unconnected-(U4-GPIO11{slash}U0TXD-Pad20)*%
X250639771Y-96661701D03*
%TO.P,U4,21,GPIO12/U0RXD_21*%
%TO.N,unconnected-(U4-GPIO12{slash}U0RXD-Pad21)*%
X250356928Y-96378858D03*
%TO.P,U4,22,GPIO13/USB_D+/SDIO_DATA3_22*%
%TO.N,CP_SDIO_D3*%
X250074086Y-96096016D03*
%TO.P,U4,23,GPIO14/USB_D-/SDIO_DATA2_23*%
%TO.N,CP_SDIO_D2*%
X249791243Y-95813173D03*
%TO.P,U4,24,VDDPST2_24*%
%TO.N,+3V3*%
X249508400Y-95530330D03*
D66*
%TO.P,U4,25,GPIO15/SPICS1_25*%
%TO.N,unconnected-(U4-GPIO15{slash}SPICS1-Pad25)*%
X249508400Y-94469670D03*
%TO.P,U4,26,GPIO16/SPICS0_26*%
%TO.N,unconnected-(U4-GPIO16{slash}SPICS0-Pad26)*%
X249791243Y-94186827D03*
%TO.P,U4,27,GPIO17/SPIQ_27*%
%TO.N,unconnected-(U4-GPIO17{slash}SPIQ-Pad27)*%
X250074086Y-93903984D03*
%TO.P,U4,28,GPIO18/SPIWP_28*%
%TO.N,unconnected-(U4-GPIO18{slash}SPIWP-Pad28)*%
X250356928Y-93621142D03*
%TO.P,U4,29,GPIO19/VDD_SPI_29*%
%TO.N,unconnected-(U4-GPIO19{slash}VDD_SPI-Pad29)*%
X250639771Y-93338299D03*
%TO.P,U4,30,GPIO20/SPIHD_30*%
%TO.N,unconnected-(U4-GPIO20{slash}SPIHD-Pad30)*%
X250922614Y-93055456D03*
%TO.P,U4,31,GPIO21/SPICLK_31*%
%TO.N,unconnected-(U4-GPIO21{slash}SPICLK-Pad31)*%
X251205456Y-92772614D03*
%TO.P,U4,32,GPIO22/SPID_32*%
%TO.N,unconnected-(U4-GPIO22{slash}SPID-Pad32)*%
X251488299Y-92489771D03*
%TO.P,U4,33,GPIO23_33*%
%TO.N,unconnected-(U4-GPIO23-Pad33)*%
X251771142Y-92206928D03*
%TO.P,U4,34,GPIO24_34*%
%TO.N,unconnected-(U4-GPIO24-Pad34)*%
X252053984Y-91924086D03*
%TO.P,U4,35,GPIO25_35*%
%TO.N,Net-(U4-GPIO25)*%
X252336827Y-91641243D03*
%TO.P,U4,36,GPIO26_36*%
%TO.N,Net-(U4-GPIO26)*%
X252619670Y-91358400D03*
D67*
%TO.P,U4,37,GPIO27_37*%
%TO.N,Net-(U4-GPIO27)*%
X253680330Y-91358400D03*
%TO.P,U4,38,GPIO28_38*%
%TO.N,Net-(U4-GPIO28)*%
X253963173Y-91641243D03*
%TO.P,U4,39,VDDPST3_39*%
%TO.N,+3V3*%
X254246016Y-91924086D03*
%TO.P,U4,40,VDDA1_40*%
%TO.N,Net-(U4-VDDA1)*%
X254528858Y-92206928D03*
%TO.P,U4,41,VDDA2_41*%
X254811701Y-92489771D03*
%TO.P,U4,42,ANT_2G_42*%
%TO.N,/Coprocessor/ANT_2G*%
X255094544Y-92772614D03*
%TO.P,U4,43,GND_43*%
%TO.N,GND*%
X255377386Y-93055456D03*
%TO.P,U4,44,VDDA3_44*%
%TO.N,+3V3*%
X255660229Y-93338299D03*
%TO.P,U4,45,VDDA4_45*%
X255943072Y-93621142D03*
%TO.P,U4,46,VDDA5_46*%
X256225914Y-93903984D03*
%TO.P,U4,47,GND_47*%
%TO.N,GND*%
X256508757Y-94186827D03*
%TO.P,U4,48,ANT_5G_48*%
%TO.N,/Coprocessor/ANT_5G*%
X256791600Y-94469670D03*
D68*
%TO.P,U4,49,GND_49*%
%TO.N,GND*%
X253150000Y-95000000D03*
%TD*%
D20*
%TO.P,R8,1*%
%TO.N,Net-(R8-Pad1)*%
X229161594Y-81505959D03*
%TO.P,R8,2*%
%TO.N,UART_RX*%
X229614142Y-81958507D03*
%TD*%
D15*
%TO.P,C42,1*%
%TO.N,+3V3*%
X257795690Y-96011162D03*
%TO.P,C42,2*%
%TO.N,GND*%
X257343142Y-96463710D03*
%TD*%
D20*
%TO.P,D14,1,K_1*%
%TO.N,GND*%
X240272452Y-86372452D03*
%TO.P,D14,2,A_2*%
%TO.N,Net-(D14-A)*%
X240725000Y-86825000D03*
%TD*%
D21*
%TO.P,C134,1*%
%TO.N,/Motors/ESC2/PHASE_B*%
X251689411Y-75766905D03*
%TO.P,C134,2*%
%TO.N,Net-(U19-BSTB)*%
X251010589Y-75088083D03*
%TD*%
D17*
%TO.P,C19,1*%
%TO.N,+3V3*%
X235347452Y-100152548D03*
%TO.P,C19,2*%
%TO.N,GND*%
X235800000Y-99700000D03*
%TD*%
D16*
%TO.P,TP53,1,1_1*%
%TO.N,/Motors/ESC4/NRST*%
X246375000Y-109897506D03*
%TD*%
D27*
%TO.P,C15,1*%
%TO.N,+3V3*%
X233152548Y-85352548D03*
%TO.P,C15,2*%
%TO.N,GND*%
X232700000Y-84900000D03*
%TD*%
D23*
%TO.P,C37,1*%
%TO.N,Net-(U4-CHIP_PU)*%
X254000000Y-100000000D03*
%TO.P,C37,2*%
%TO.N,GND*%
X254678822Y-99321178D03*
%TD*%
D16*
%TO.P,TP38,1,1_1*%
%TO.N,GND*%
X257300000Y-103400000D03*
%TD*%
D17*
%TO.P,R132,1*%
%TO.N,Net-(Q22-G)*%
X236675000Y-109597506D03*
%TO.P,R132,2*%
%TO.N,/Motors/ESC3/GLC*%
X237127548Y-109144958D03*
%TD*%
D61*
%TO.P,U19,1,PVDD_1*%
%TO.N,+BATT*%
X247751598Y-77733865D03*
%TO.P,U19,2,CPL_2*%
%TO.N,Net-(U19-CPL)*%
X248034440Y-77451022D03*
%TO.P,U19,3,CPH_3*%
%TO.N,Net-(U19-CPH)*%
X248317283Y-77168179D03*
%TO.P,U19,4,GVDD_4*%
%TO.N,/Motors/ESC2/GVDD*%
X248600126Y-76885337D03*
%TO.P,U19,5,BSTA_5*%
%TO.N,/Motors/ESC2/BSTA*%
X248882968Y-76602494D03*
%TO.P,U19,6,SHA_6*%
%TO.N,/Motors/ESC2/PHASE_A*%
X249165811Y-76319651D03*
%TO.P,U19,7,GHA_7*%
%TO.N,/Motors/ESC2/GHA*%
X249448654Y-76036809D03*
D62*
%TO.P,U19,8,GLA_8*%
%TO.N,/Motors/ESC2/GLA*%
X250509314Y-76036809D03*
%TO.P,U19,9,BSTB_9*%
%TO.N,Net-(U19-BSTB)*%
X250792157Y-76319651D03*
%TO.P,U19,10,SHB_10*%
%TO.N,/Motors/ESC2/PHASE_B*%
X251075000Y-76602494D03*
%TO.P,U19,11,GHB_11*%
%TO.N,/Motors/ESC2/GHB*%
X251357842Y-76885337D03*
%TO.P,U19,12,GLB_12*%
%TO.N,/Motors/ESC2/GLB*%
X251640685Y-77168179D03*
%TO.P,U19,13,BSTC_13*%
%TO.N,Net-(U19-BSTC)*%
X251923528Y-77451022D03*
%TO.P,U19,14,SHC_14*%
%TO.N,/Motors/ESC2/PHASE_C*%
X252206370Y-77733865D03*
D61*
%TO.P,U19,15,GHC_15*%
%TO.N,/Motors/ESC2/GHC*%
X252206370Y-78794525D03*
%TO.P,U19,16,GLC_16*%
%TO.N,/Motors/ESC2/GLC*%
X251923528Y-79077368D03*
%TO.P,U19,17,LSS_17*%
%TO.N,GND*%
X251640685Y-79360211D03*
%TO.P,U19,18,INHC_18*%
%TO.N,/Motors/ESC2/C_HIGH*%
X251357842Y-79643053D03*
%TO.P,U19,19,INHB_19*%
%TO.N,/Motors/ESC2/B_HIGH*%
X251075000Y-79925896D03*
%TO.P,U19,20,INHA_20*%
%TO.N,/Motors/ESC2/A_HIGH*%
X250792157Y-80208739D03*
%TO.P,U19,21,INLC_21*%
%TO.N,/Motors/ESC2/C_LOW*%
X250509314Y-80491581D03*
D62*
%TO.P,U19,22,INLB_22*%
%TO.N,/Motors/ESC2/B_LOW*%
X249448654Y-80491581D03*
%TO.P,U19,23,INLA_23*%
%TO.N,/Motors/ESC2/A_LOW*%
X249165811Y-80208739D03*
%TO.P,U19,24,nFAULT_24*%
%TO.N,/Motors/ESC2/NFAULT*%
X248882968Y-79925896D03*
%TO.P,U19,25,nSLEEP_25*%
%TO.N,/Motors/ESC2/NSLEEP*%
X248600126Y-79643053D03*
%TO.P,U19,26,VDSLVL_26*%
%TO.N,Net-(U19-VDSLVL)*%
X248317283Y-79360211D03*
%TO.P,U19,27,DT_27*%
%TO.N,Net-(U19-DT)*%
X248034440Y-79077368D03*
%TO.P,U19,28,GND_28*%
%TO.N,GND*%
X247751598Y-78794525D03*
D63*
%TO.P,U19,29,EP_29*%
X249978984Y-78264195D03*
%TD*%
D17*
%TO.P,R101,1*%
%TO.N,GND*%
X251748726Y-85528768D03*
%TO.P,R101,2*%
%TO.N,/Motors/ESC2/VSENSE_A*%
X252201274Y-85076220D03*
%TD*%
%TO.P,R150,1*%
%TO.N,/Motors/ESC4/VSENSE_A*%
X250893701Y-101918754D03*
%TO.P,R150,2*%
%TO.N,/Motors/ESC4/VSENSE_REF*%
X251346249Y-101466206D03*
%TD*%
%TO.P,R102,1*%
%TO.N,/Motors/ESC2/PHASE_A*%
X251253751Y-85033794D03*
%TO.P,R102,2*%
%TO.N,/Motors/ESC2/VSENSE_A*%
X251706299Y-84581246D03*
%TD*%
D69*
%TO.P,Y1,1,1_1*%
%TO.N,Net-(U1-XTAL_P)*%
X231523303Y-85426159D03*
%TO.P,Y1,2,G_2*%
%TO.N,GND*%
X230533354Y-86416108D03*
%TO.P,Y1,3,3_3*%
%TO.N,Net-(U1-XTAL_N)*%
X229755537Y-85638291D03*
%TO.P,Y1,4,G_4*%
%TO.N,GND*%
X230745486Y-84648342D03*
%TD*%
D15*
%TO.P,R126,1*%
%TO.N,GND*%
X238851274Y-101971232D03*
%TO.P,R126,2*%
%TO.N,/Motors/ESC3/VSENSE_A*%
X238398726Y-102423780D03*
%TD*%
D17*
%TO.P,R129,1*%
%TO.N,GND*%
X233247452Y-106025055D03*
%TO.P,R129,2*%
%TO.N,/Motors/ESC3/VSENSE_B*%
X233700000Y-105572507D03*
%TD*%
D23*
%TO.P,C216,1*%
%TO.N,GND*%
X246396178Y-104653822D03*
%TO.P,C216,2*%
%TO.N,+3V3*%
X247075000Y-103975000D03*
%TD*%
D17*
%TO.P,C2,1*%
%TO.N,+3V3*%
X240800000Y-90900000D03*
%TO.P,C2,2*%
%TO.N,GND*%
X241252548Y-90447452D03*
%TD*%
D54*
%TO.P,R31,1*%
%TO.N,FB_DCDC*%
X227864999Y-102275000D03*
%TO.P,R31,2*%
%TO.N,VDD_HP*%
X228504999Y-102275000D03*
%TD*%
D15*
%TO.P,R17,1*%
%TO.N,CP_SDIO_D0*%
X249176274Y-100273726D03*
%TO.P,R17,2*%
%TO.N,+3V3*%
X248723726Y-100726274D03*
%TD*%
D70*
%TO.P,C58,1*%
%TO.N,+3V3*%
X228375000Y-101150000D03*
%TO.P,C58,2*%
%TO.N,GND*%
X226825000Y-101150000D03*
%TD*%
D16*
%TO.P,TP47,1,1_1*%
%TO.N,+3V3*%
X226842283Y-84419239D03*
%TD*%
D17*
%TO.P,C21,1*%
%TO.N,+3V3*%
X235842426Y-100647522D03*
%TO.P,C21,2*%
%TO.N,GND*%
X236294974Y-100194974D03*
%TD*%
D27*
%TO.P,R74,1*%
%TO.N,Net-(Q8-G)*%
X240926274Y-75626274D03*
%TO.P,R74,2*%
%TO.N,/Motors/ESC1/GLB*%
X240473726Y-75173726D03*
%TD*%
%TO.P,R123,1*%
%TO.N,Net-(Q19-G)*%
X238551274Y-112523780D03*
%TO.P,R123,2*%
%TO.N,/Motors/ESC3/GHB*%
X238098726Y-112071232D03*
%TD*%
%TO.P,C60,1*%
%TO.N,BAT_VSENSE*%
X228494975Y-87705025D03*
%TO.P,C60,2*%
%TO.N,GND*%
X228042427Y-87252477D03*
%TD*%
D15*
%TO.P,R127,1*%
%TO.N,/Motors/ESC3/PHASE_A*%
X239346249Y-102466206D03*
%TO.P,R127,2*%
%TO.N,/Motors/ESC3/VSENSE_A*%
X238893701Y-102918754D03*
%TD*%
D20*
%TO.P,R47,1*%
%TO.N,Net-(U13-CS)*%
X240932026Y-101718773D03*
%TO.P,R47,2*%
%TO.N,+3V3*%
X241384574Y-102171321D03*
%TD*%
D17*
%TO.P,C187,1*%
%TO.N,GND*%
X255349460Y-84398347D03*
%TO.P,C187,2*%
%TO.N,+3V3*%
X255802008Y-83945799D03*
%TD*%
D20*
%TO.P,C52,1*%
%TO.N,/Coprocessor/ANT_5G*%
X257569418Y-93826202D03*
%TO.P,C52,2*%
%TO.N,GND*%
X258021966Y-94278750D03*
%TD*%
D71*
%TO.P,U14,1,GND_1*%
%TO.N,GND*%
X249752691Y-88494975D03*
%TO.P,U14,2,VDD_2*%
%TO.N,Net-(U14-VDD)*%
X249293072Y-88954594D03*
%TO.P,U14,3,VDDIO_3*%
%TO.N,+3V3*%
X248833452Y-89414214D03*
%TO.P,U14,4,VREG_4*%
%TO.N,Net-(U14-VREG)*%
X248373833Y-89873833D03*
%TO.P,U14,5,NC_5*%
%TO.N,unconnected-(U14-NC-Pad5)*%
X247914214Y-90333452D03*
%TO.P,U14,6,NC_6*%
%TO.N,unconnected-(U14-NC-Pad6)*%
X247454594Y-90793072D03*
%TO.P,U14,7,NRESET_7*%
%TO.N,Net-(U14-NRESET)*%
X246994975Y-91252691D03*
D72*
%TO.P,U14,8,NC_8*%
%TO.N,unconnected-(U14-NC-Pad8)*%
X246005025Y-91252691D03*
%TO.P,U14,9,NC_9*%
%TO.N,unconnected-(U14-NC-Pad9)*%
X245545406Y-90793072D03*
%TO.P,U14,10,NC_10*%
%TO.N,unconnected-(U14-NC-Pad10)*%
X245085786Y-90333452D03*
%TO.P,U14,11,NC_11*%
%TO.N,unconnected-(U14-NC-Pad11)*%
X244626167Y-89873833D03*
%TO.P,U14,12,NC_12*%
%TO.N,unconnected-(U14-NC-Pad12)*%
X244166548Y-89414214D03*
%TO.P,U14,13,NC_13*%
%TO.N,unconnected-(U14-NC-Pad13)*%
X243706928Y-88954594D03*
%TO.P,U14,14,NC_14*%
%TO.N,unconnected-(U14-NC-Pad14)*%
X243247309Y-88494975D03*
D71*
%TO.P,U14,15,MOTION_15*%
%TO.N,unconnected-(U14-MOTION-Pad15)*%
X243247309Y-87505025D03*
%TO.P,U14,16,MOSI_16*%
%TO.N,SPI_MOSI*%
X243706928Y-87045406D03*
%TO.P,U14,17,SCLK_17*%
%TO.N,SPI_CLK*%
X244166548Y-86585786D03*
%TO.P,U14,18,MISO_18*%
%TO.N,SPI_MISO*%
X244626167Y-86126167D03*
%TO.P,U14,19,NCS_19*%
%TO.N,SPI_PMW3901_CS*%
X245085786Y-85666548D03*
%TO.P,U14,20,NC_20*%
%TO.N,unconnected-(U14-NC-Pad20)*%
X245545406Y-85206928D03*
%TO.P,U14,21,GND_21*%
%TO.N,GND*%
X246005025Y-84747309D03*
D72*
%TO.P,U14,22,NC_22*%
%TO.N,unconnected-(U14-NC-Pad22)*%
X246994975Y-84747309D03*
%TO.P,U14,23,NC_23*%
%TO.N,unconnected-(U14-NC-Pad23)*%
X247454594Y-85206928D03*
%TO.P,U14,24,NC_24*%
%TO.N,unconnected-(U14-NC-Pad24)*%
X247914214Y-85666548D03*
%TO.P,U14,25,NC_25*%
%TO.N,unconnected-(U14-NC-Pad25)*%
X248373833Y-86126167D03*
%TO.P,U14,26,NC_26*%
%TO.N,unconnected-(U14-NC-Pad26)*%
X248833452Y-86585786D03*
%TO.P,U14,27,NC_27*%
%TO.N,unconnected-(U14-NC-Pad27)*%
X249293072Y-87045406D03*
%TO.P,U14,28,NC_28*%
%TO.N,unconnected-(U14-NC-Pad28)*%
X249752691Y-87505025D03*
D73*
%TO.P,U14,29,GND_29*%
%TO.N,GND*%
X246500000Y-88000000D03*
%TD*%
D17*
%TO.P,C4,1*%
%TO.N,+3V3*%
X237448857Y-87561622D03*
%TO.P,C4,2*%
%TO.N,GND*%
X237901405Y-87109074D03*
%TD*%
D15*
%TO.P,R84,1*%
%TO.N,GND*%
X242376274Y-79473726D03*
%TO.P,R84,2*%
%TO.N,/Motors/ESC1/VSENSE_C*%
X241923726Y-79926274D03*
%TD*%
D23*
%TO.P,C107,1*%
%TO.N,Net-(U16-CPL)*%
X233760589Y-77139411D03*
%TO.P,C107,2*%
%TO.N,Net-(U16-CPH)*%
X234439411Y-76460589D03*
%TD*%
D17*
%TO.P,C16,1*%
%TO.N,VDD_HP*%
X229597452Y-89002548D03*
%TO.P,C16,2*%
%TO.N,GND*%
X230050000Y-88550000D03*
%TD*%
D27*
%TO.P,C84,1*%
%TO.N,GND*%
X244670575Y-98849687D03*
%TO.P,C84,2*%
%TO.N,+3V3*%
X244218027Y-98397139D03*
%TD*%
%TO.P,R1,1*%
%TO.N,+3V3*%
X235209550Y-85394977D03*
%TO.P,R1,2*%
%TO.N,Net-(U1-CHIP_PU)*%
X234757002Y-84942429D03*
%TD*%
D16*
%TO.P,TP25,1,1_1*%
%TO.N,/Motors/ESC2/SWCLK*%
X256175000Y-78202494D03*
%TD*%
D15*
%TO.P,R2,1*%
%TO.N,Net-(U1-GPIO28)*%
X232076274Y-99123726D03*
%TO.P,R2,2*%
%TO.N,Net-(D1-A)*%
X231623726Y-99576274D03*
%TD*%
D20*
%TO.P,R149,1*%
%TO.N,Net-(Q26-G)*%
X249698726Y-111871232D03*
%TO.P,R149,2*%
%TO.N,/Motors/ESC4/GLB*%
X250151274Y-112323780D03*
%TD*%
D74*
%TO.P,U30,1,PC14-OSC32_IN_1*%
%TO.N,unconnected-(U30-PC14-OSC32_IN-Pad1)*%
X247706068Y-104735070D03*
D75*
%TO.P,U30,2,PC15-OSC32_OUT_2*%
%TO.N,unconnected-(U30-PC15-OSC32_OUT-Pad2)*%
X248024266Y-104346162D03*
%TO.P,U30,3,VDDA/DDA_3*%
%TO.N,+3V3*%
X248377820Y-103992608D03*
%TO.P,U30,4,VSS/VSSA_4*%
%TO.N,GND*%
X248731373Y-103639055D03*
%TO.P,U30,5,PF2-NRST_5*%
%TO.N,/Motors/ESC4/NRST*%
X249084926Y-103285502D03*
%TO.P,U30,6,PA0_6*%
%TO.N,Net-(U30-PA0)*%
X249438480Y-102931948D03*
D76*
%TO.P,U30,7,PA1_7*%
%TO.N,Net-(U30-PA1)*%
X249827388Y-102613750D03*
D77*
%TO.P,U30,8,PA2_8*%
%TO.N,/Motors/ESC4/VSENSE_REF*%
X250364790Y-102613750D03*
D78*
%TO.P,U30,9,PA3_9*%
%TO.N,/Motors/ESC4/VSENSE_A*%
X250753698Y-102931948D03*
%TO.P,U30,10,PA4_10*%
%TO.N,unconnected-(U30-PA4-Pad10)*%
X251107252Y-103285502D03*
%TO.P,U30,11,PA5_11*%
%TO.N,/Motors/ESC4/NSLEEP*%
X251460805Y-103639055D03*
%TO.P,U30,12,PA6_12*%
%TO.N,/Motors/ESC4/NFAULT*%
X251814358Y-103992608D03*
%TO.P,U30,13,PA7_13*%
%TO.N,/Motors/ESC4/A_LOW*%
X252167912Y-104346162D03*
D79*
%TO.P,U30,14,PB0_14*%
%TO.N,/Motors/ESC4/B_LOW*%
X252486110Y-104735070D03*
D80*
%TO.P,U30,15,PB1_15*%
%TO.N,/Motors/ESC4/C_LOW*%
X252486110Y-105272472D03*
D75*
%TO.P,U30,16,PA8_16*%
%TO.N,/Motors/ESC4/A_HIGH*%
X252167912Y-105661380D03*
%TO.P,U30,17,PC6_17*%
%TO.N,unconnected-(U30-PC6-Pad17)*%
X251814358Y-106014934D03*
%TO.P,U30,18,PA11[PA9]_18*%
%TO.N,/Motors/ESC4/B_HIGH*%
X251460805Y-106368487D03*
%TO.P,U30,19,PA12[PA10]_19*%
%TO.N,/Motors/ESC4/C_HIGH*%
X251107252Y-106722040D03*
%TO.P,U30,20,PA13_20*%
%TO.N,/Motors/ESC4/SWDIO*%
X250753698Y-107075594D03*
D81*
%TO.P,U30,21,PA14-BOOT0_21*%
%TO.N,/Motors/ESC4/SWCLK*%
X250364790Y-107393792D03*
D82*
%TO.P,U30,22,PA15_22*%
%TO.N,unconnected-(U30-PA15-Pad22)*%
X249827388Y-107393792D03*
D78*
%TO.P,U30,23,PB3_23*%
%TO.N,/Motors/ESC4/VSENSE_C*%
X249442015Y-107072058D03*
%TO.P,U30,24,PB4_24*%
%TO.N,unconnected-(U30-PB4-Pad24)*%
X249084926Y-106722040D03*
%TO.P,U30,25,PB5_25*%
%TO.N,unconnected-(U30-PB5-Pad25)*%
X248731373Y-106368487D03*
%TO.P,U30,26,PB6_26*%
%TO.N,unconnected-(U30-PB6-Pad26)*%
X248377820Y-106014934D03*
%TO.P,U30,27,PB7_27*%
%TO.N,/Motors/ESC4/VSENSE_B*%
X248024266Y-105661380D03*
D83*
%TO.P,U30,28,PB8_28*%
%TO.N,unconnected-(U30-PB8-Pad28)*%
X247706068Y-105272472D03*
%TD*%
D27*
%TO.P,R148,1*%
%TO.N,Net-(Q25-G)*%
X251551274Y-112523780D03*
%TO.P,R148,2*%
%TO.N,/Motors/ESC4/GHB*%
X251098726Y-112071232D03*
%TD*%
D32*
%TO.P,U20,1,PC14-OSC32_IN_1*%
%TO.N,unconnected-(U20-PC14-OSC32_IN-Pad1)*%
X242918932Y-82762436D03*
D33*
%TO.P,U20,2,PC15-OSC32_OUT_2*%
%TO.N,unconnected-(U20-PC15-OSC32_OUT-Pad2)*%
X242600734Y-83151344D03*
%TO.P,U20,3,VDDA/DDA_3*%
%TO.N,+3V3*%
X242247180Y-83504898D03*
%TO.P,U20,4,VSS/VSSA_4*%
%TO.N,GND*%
X241893627Y-83858451D03*
%TO.P,U20,5,PF2-NRST_5*%
%TO.N,/Motors/ESC1/NRST*%
X241540074Y-84212004D03*
%TO.P,U20,6,PA0_6*%
%TO.N,Net-(U20-PA0)*%
X241186520Y-84565558D03*
D34*
%TO.P,U20,7,PA1_7*%
%TO.N,Net-(U20-PA1)*%
X240797612Y-84883756D03*
D35*
%TO.P,U20,8,PA2_8*%
%TO.N,/Motors/ESC1/VSENSE_REF*%
X240260210Y-84883756D03*
D36*
%TO.P,U20,9,PA3_9*%
%TO.N,/Motors/ESC1/VSENSE_A*%
X239871302Y-84565558D03*
%TO.P,U20,10,PA4_10*%
%TO.N,unconnected-(U20-PA4-Pad10)*%
X239517748Y-84212004D03*
%TO.P,U20,11,PA5_11*%
%TO.N,/Motors/ESC1/NSLEEP*%
X239164195Y-83858451D03*
%TO.P,U20,12,PA6_12*%
%TO.N,/Motors/ESC1/NFAULT*%
X238810642Y-83504898D03*
%TO.P,U20,13,PA7_13*%
%TO.N,/Motors/ESC1/A_LOW*%
X238457088Y-83151344D03*
D37*
%TO.P,U20,14,PB0_14*%
%TO.N,/Motors/ESC1/B_LOW*%
X238138890Y-82762436D03*
D38*
%TO.P,U20,15,PB1_15*%
%TO.N,/Motors/ESC1/C_LOW*%
X238138890Y-82225034D03*
D33*
%TO.P,U20,16,PA8_16*%
%TO.N,/Motors/ESC1/A_HIGH*%
X238457088Y-81836126D03*
%TO.P,U20,17,PC6_17*%
%TO.N,unconnected-(U20-PC6-Pad17)*%
X238810642Y-81482572D03*
%TO.P,U20,18,PA11[PA9]_18*%
%TO.N,/Motors/ESC1/B_HIGH*%
X239164195Y-81129019D03*
%TO.P,U20,19,PA12[PA10]_19*%
%TO.N,/Motors/ESC1/C_HIGH*%
X239517748Y-80775466D03*
%TO.P,U20,20,PA13_20*%
%TO.N,/Motors/ESC1/SWDIO*%
X239871302Y-80421912D03*
D39*
%TO.P,U20,21,PA14-BOOT0_21*%
%TO.N,/Motors/ESC1/SWCLK*%
X240260210Y-80103714D03*
D40*
%TO.P,U20,22,PA15_22*%
%TO.N,unconnected-(U20-PA15-Pad22)*%
X240797612Y-80103714D03*
D36*
%TO.P,U20,23,PB3_23*%
%TO.N,/Motors/ESC1/VSENSE_C*%
X241182985Y-80425448D03*
%TO.P,U20,24,PB4_24*%
%TO.N,unconnected-(U20-PB4-Pad24)*%
X241540074Y-80775466D03*
%TO.P,U20,25,PB5_25*%
%TO.N,unconnected-(U20-PB5-Pad25)*%
X241893627Y-81129019D03*
%TO.P,U20,26,PB6_26*%
%TO.N,unconnected-(U20-PB6-Pad26)*%
X242247180Y-81482572D03*
%TO.P,U20,27,PB7_27*%
%TO.N,/Motors/ESC1/VSENSE_B*%
X242600734Y-81836126D03*
D41*
%TO.P,U20,28,PB8_28*%
%TO.N,unconnected-(U20-PB8-Pad28)*%
X242918932Y-82225034D03*
%TD*%
D21*
%TO.P,C110,1*%
%TO.N,/Motors/ESC1/PHASE_B*%
X238714411Y-75764411D03*
%TO.P,C110,2*%
%TO.N,Net-(U16-BSTB)*%
X238035589Y-75085589D03*
%TD*%
D17*
%TO.P,R77,1*%
%TO.N,/Motors/ESC1/PHASE_A*%
X238278751Y-85031300D03*
%TO.P,R77,2*%
%TO.N,/Motors/ESC1/VSENSE_A*%
X238731299Y-84578752D03*
%TD*%
D19*
%TO.P,C32,1*%
%TO.N,/MCU/VDDO_3*%
X227110589Y-97410589D03*
%TO.P,C32,2*%
%TO.N,GND*%
X227789411Y-98089411D03*
%TD*%
D15*
%TO.P,C43,1*%
%TO.N,+3V3*%
X248403545Y-94496186D03*
%TO.P,C43,2*%
%TO.N,GND*%
X247950997Y-94948734D03*
%TD*%
%TO.P,C22,1*%
%TO.N,+3V3*%
X227028323Y-94078249D03*
%TO.P,C22,2*%
%TO.N,GND*%
X226575775Y-94530797D03*
%TD*%
%TO.P,R19,1*%
%TO.N,CP_SDIO_CMD*%
X250017517Y-97566797D03*
%TO.P,R19,2*%
%TO.N,+3V3*%
X249564969Y-98019345D03*
%TD*%
%TO.P,C40,1*%
%TO.N,+3V3*%
X258290666Y-96506137D03*
%TO.P,C40,2*%
%TO.N,GND*%
X257838118Y-96958685D03*
%TD*%
D19*
%TO.P,C127,1*%
%TO.N,+BATT*%
X246238389Y-78023779D03*
%TO.P,C127,2*%
%TO.N,GND*%
X246917211Y-78702601D03*
%TD*%
D17*
%TO.P,R131,1*%
%TO.N,Net-(Q21-G)*%
X237173870Y-110087868D03*
%TO.P,R131,2*%
%TO.N,/Motors/ESC3/GHC*%
X237626418Y-109635320D03*
%TD*%
%TO.P,R155,1*%
%TO.N,/Motors/ESC4/PHASE_B*%
X246742427Y-106520029D03*
%TO.P,R155,2*%
%TO.N,/Motors/ESC4/VSENSE_B*%
X247194975Y-106067481D03*
%TD*%
D19*
%TO.P,C158,1*%
%TO.N,/Motors/ESC3/PHASE_B*%
X238910589Y-111733095D03*
%TO.P,C158,2*%
%TO.N,Net-(U22-BSTB)*%
X239589411Y-112411917D03*
%TD*%
D46*
%TO.P,U22,1,PVDD_1*%
%TO.N,+BATT*%
X242848402Y-109766135D03*
%TO.P,U22,2,CPL_2*%
%TO.N,Net-(U22-CPL)*%
X242565560Y-110048978D03*
%TO.P,U22,3,CPH_3*%
%TO.N,Net-(U22-CPH)*%
X242282717Y-110331821D03*
%TO.P,U22,4,GVDD_4*%
%TO.N,/Motors/ESC3/GVDD*%
X241999874Y-110614663D03*
%TO.P,U22,5,BSTA_5*%
%TO.N,/Motors/ESC3/BSTA*%
X241717032Y-110897506D03*
%TO.P,U22,6,SHA_6*%
%TO.N,/Motors/ESC3/PHASE_A*%
X241434189Y-111180349D03*
%TO.P,U22,7,GHA_7*%
%TO.N,/Motors/ESC3/GHA*%
X241151346Y-111463191D03*
D47*
%TO.P,U22,8,GLA_8*%
%TO.N,/Motors/ESC3/GLA*%
X240090686Y-111463191D03*
%TO.P,U22,9,BSTB_9*%
%TO.N,Net-(U22-BSTB)*%
X239807843Y-111180349D03*
%TO.P,U22,10,SHB_10*%
%TO.N,/Motors/ESC3/PHASE_B*%
X239525000Y-110897506D03*
%TO.P,U22,11,GHB_11*%
%TO.N,/Motors/ESC3/GHB*%
X239242158Y-110614663D03*
%TO.P,U22,12,GLB_12*%
%TO.N,/Motors/ESC3/GLB*%
X238959315Y-110331821D03*
%TO.P,U22,13,BSTC_13*%
%TO.N,Net-(U22-BSTC)*%
X238676472Y-110048978D03*
%TO.P,U22,14,SHC_14*%
%TO.N,/Motors/ESC3/PHASE_C*%
X238393630Y-109766135D03*
D46*
%TO.P,U22,15,GHC_15*%
%TO.N,/Motors/ESC3/GHC*%
X238393630Y-108705475D03*
%TO.P,U22,16,GLC_16*%
%TO.N,/Motors/ESC3/GLC*%
X238676472Y-108422632D03*
%TO.P,U22,17,LSS_17*%
%TO.N,GND*%
X238959315Y-108139789D03*
%TO.P,U22,18,INHC_18*%
%TO.N,/Motors/ESC3/C_HIGH*%
X239242158Y-107856947D03*
%TO.P,U22,19,INHB_19*%
%TO.N,/Motors/ESC3/B_HIGH*%
X239525000Y-107574104D03*
%TO.P,U22,20,INHA_20*%
%TO.N,/Motors/ESC3/A_HIGH*%
X239807843Y-107291261D03*
%TO.P,U22,21,INLC_21*%
%TO.N,/Motors/ESC3/C_LOW*%
X240090686Y-107008419D03*
D47*
%TO.P,U22,22,INLB_22*%
%TO.N,/Motors/ESC3/B_LOW*%
X241151346Y-107008419D03*
%TO.P,U22,23,INLA_23*%
%TO.N,/Motors/ESC3/A_LOW*%
X241434189Y-107291261D03*
%TO.P,U22,24,nFAULT_24*%
%TO.N,/Motors/ESC3/NFAULT*%
X241717032Y-107574104D03*
%TO.P,U22,25,nSLEEP_25*%
%TO.N,/Motors/ESC3/NSLEEP*%
X241999874Y-107856947D03*
%TO.P,U22,26,VDSLVL_26*%
%TO.N,Net-(U22-VDSLVL)*%
X242282717Y-108139789D03*
%TO.P,U22,27,DT_27*%
%TO.N,Net-(U22-DT)*%
X242565560Y-108422632D03*
%TO.P,U22,28,GND_28*%
%TO.N,GND*%
X242848402Y-108705475D03*
D48*
%TO.P,U22,29,EP_29*%
X240621016Y-109235805D03*
%TD*%
D84*
%TO.P,R87,1*%
%TO.N,+3V3*%
X249225000Y-83272494D03*
%TO.P,R87,2*%
%TO.N,/Motors/ESC2/NFAULT*%
X249225000Y-82632494D03*
%TD*%
D17*
%TO.P,R125,1*%
%TO.N,/Motors/ESC3/VSENSE_A*%
X237893701Y-101918754D03*
%TO.P,R125,2*%
%TO.N,/Motors/ESC3/VSENSE_REF*%
X238346249Y-101466206D03*
%TD*%
%TO.P,C46,1*%
%TO.N,Net-(U4-VDDA1)*%
X256217076Y-90501032D03*
%TO.P,C46,2*%
%TO.N,GND*%
X256669624Y-90048484D03*
%TD*%
D18*
%TO.P,C109,1*%
%TO.N,/Motors/ESC1/PHASE_A*%
X235893826Y-74846376D03*
%TO.P,C109,2*%
%TO.N,/Motors/ESC1/BSTA*%
X235215004Y-75525198D03*
%TD*%
D15*
%TO.P,R128,1*%
%TO.N,/Motors/ESC3/VSENSE_B*%
X234701274Y-106571232D03*
%TO.P,R128,2*%
%TO.N,/Motors/ESC3/VSENSE_REF*%
X234248726Y-107023780D03*
%TD*%
D27*
%TO.P,C49,1*%
%TO.N,+3V3*%
X256925949Y-93147379D03*
%TO.P,C49,2*%
%TO.N,GND*%
X256473401Y-92694831D03*
%TD*%
D22*
%TO.P,C27,1*%
%TO.N,+3V3*%
X226851992Y-91248008D03*
%TO.P,C27,2*%
%TO.N,GND*%
X227948008Y-90151992D03*
%TD*%
D27*
%TO.P,C56,1*%
%TO.N,Net-(U5-P3)*%
X260186502Y-89364572D03*
%TO.P,C56,2*%
%TO.N,GND*%
X259733954Y-88912024D03*
%TD*%
D58*
%TO.P,R137,1*%
%TO.N,+3V3*%
X254375000Y-104227506D03*
%TO.P,R137,2*%
%TO.N,/Motors/ESC4/NFAULT*%
X254375000Y-104867506D03*
%TD*%
D17*
%TO.P,C14,1*%
%TO.N,/MCU/VDDO_3*%
X238672605Y-97813541D03*
%TO.P,C14,2*%
%TO.N,GND*%
X239125153Y-97360993D03*
%TD*%
D19*
%TO.P,C103,1*%
%TO.N,+BATT*%
X233263389Y-78021285D03*
%TO.P,C103,2*%
%TO.N,GND*%
X233942211Y-78700107D03*
%TD*%
D17*
%TO.P,R140,1*%
%TO.N,Net-(U25-VDSLVL)*%
X255880222Y-107139233D03*
%TO.P,R140,2*%
%TO.N,+3V3*%
X256332770Y-106686685D03*
%TD*%
D74*
%TO.P,U26,1,PC14-OSC32_IN_1*%
%TO.N,unconnected-(U26-PC14-OSC32_IN-Pad1)*%
X234706068Y-104735070D03*
D75*
%TO.P,U26,2,PC15-OSC32_OUT_2*%
%TO.N,unconnected-(U26-PC15-OSC32_OUT-Pad2)*%
X235024266Y-104346162D03*
%TO.P,U26,3,VDDA/DDA_3*%
%TO.N,+3V3*%
X235377820Y-103992608D03*
%TO.P,U26,4,VSS/VSSA_4*%
%TO.N,GND*%
X235731373Y-103639055D03*
%TO.P,U26,5,PF2-NRST_5*%
%TO.N,/Motors/ESC3/NRST*%
X236084926Y-103285502D03*
%TO.P,U26,6,PA0_6*%
%TO.N,Net-(U26-PA0)*%
X236438480Y-102931948D03*
D76*
%TO.P,U26,7,PA1_7*%
%TO.N,Net-(U26-PA1)*%
X236827388Y-102613750D03*
D77*
%TO.P,U26,8,PA2_8*%
%TO.N,/Motors/ESC3/VSENSE_REF*%
X237364790Y-102613750D03*
D78*
%TO.P,U26,9,PA3_9*%
%TO.N,/Motors/ESC3/VSENSE_A*%
X237753698Y-102931948D03*
%TO.P,U26,10,PA4_10*%
%TO.N,unconnected-(U26-PA4-Pad10)*%
X238107252Y-103285502D03*
%TO.P,U26,11,PA5_11*%
%TO.N,/Motors/ESC3/NSLEEP*%
X238460805Y-103639055D03*
%TO.P,U26,12,PA6_12*%
%TO.N,/Motors/ESC3/NFAULT*%
X238814358Y-103992608D03*
%TO.P,U26,13,PA7_13*%
%TO.N,/Motors/ESC3/A_LOW*%
X239167912Y-104346162D03*
D79*
%TO.P,U26,14,PB0_14*%
%TO.N,/Motors/ESC3/B_LOW*%
X239486110Y-104735070D03*
D80*
%TO.P,U26,15,PB1_15*%
%TO.N,/Motors/ESC3/C_LOW*%
X239486110Y-105272472D03*
D75*
%TO.P,U26,16,PA8_16*%
%TO.N,/Motors/ESC3/A_HIGH*%
X239167912Y-105661380D03*
%TO.P,U26,17,PC6_17*%
%TO.N,unconnected-(U26-PC6-Pad17)*%
X238814358Y-106014934D03*
%TO.P,U26,18,PA11[PA9]_18*%
%TO.N,/Motors/ESC3/B_HIGH*%
X238460805Y-106368487D03*
%TO.P,U26,19,PA12[PA10]_19*%
%TO.N,/Motors/ESC3/C_HIGH*%
X238107252Y-106722040D03*
%TO.P,U26,20,PA13_20*%
%TO.N,/Motors/ESC3/SWDIO*%
X237753698Y-107075594D03*
D81*
%TO.P,U26,21,PA14-BOOT0_21*%
%TO.N,/Motors/ESC3/SWCLK*%
X237364790Y-107393792D03*
D82*
%TO.P,U26,22,PA15_22*%
%TO.N,unconnected-(U26-PA15-Pad22)*%
X236827388Y-107393792D03*
D78*
%TO.P,U26,23,PB3_23*%
%TO.N,/Motors/ESC3/VSENSE_C*%
X236442015Y-107072058D03*
%TO.P,U26,24,PB4_24*%
%TO.N,unconnected-(U26-PB4-Pad24)*%
X236084926Y-106722040D03*
%TO.P,U26,25,PB5_25*%
%TO.N,unconnected-(U26-PB5-Pad25)*%
X235731373Y-106368487D03*
%TO.P,U26,26,PB6_26*%
%TO.N,unconnected-(U26-PB6-Pad26)*%
X235377820Y-106014934D03*
%TO.P,U26,27,PB7_27*%
%TO.N,/Motors/ESC3/VSENSE_B*%
X235024266Y-105661380D03*
D83*
%TO.P,U26,28,PB8_28*%
%TO.N,unconnected-(U26-PB8-Pad28)*%
X234706068Y-105272472D03*
%TD*%
D53*
%TO.P,C88,1*%
%TO.N,GND*%
X251338379Y-88489672D03*
%TO.P,C88,2*%
%TO.N,Net-(U14-VDD)*%
X250242363Y-89585688D03*
%TD*%
D18*
%TO.P,C210,1*%
%TO.N,GND*%
X257173795Y-82821178D03*
%TO.P,C210,2*%
%TO.N,+3V3*%
X256494973Y-83500000D03*
%TD*%
D22*
%TO.P,C39,1*%
%TO.N,+3V3*%
X258801992Y-95448007D03*
%TO.P,C39,2*%
%TO.N,GND*%
X259898008Y-94351991D03*
%TD*%
D15*
%TO.P,R82,1*%
%TO.N,Net-(Q10-G)*%
X240950000Y-77900000D03*
%TO.P,R82,2*%
%TO.N,/Motors/ESC1/GLC*%
X240497452Y-78352548D03*
%TD*%
%TO.P,C212,1*%
%TO.N,GND*%
X235250540Y-103101653D03*
%TO.P,C212,2*%
%TO.N,+3V3*%
X234797992Y-103554201D03*
%TD*%
D23*
%TO.P,C159,1*%
%TO.N,/Motors/ESC3/PHASE_C*%
X237347112Y-111378338D03*
%TO.P,C159,2*%
%TO.N,Net-(U22-BSTC)*%
X238025934Y-110699516D03*
%TD*%
D17*
%TO.P,R160,1*%
%TO.N,/Motors/ESC4/PHASE_C*%
X248748726Y-108523780D03*
%TO.P,R160,2*%
%TO.N,/Motors/ESC4/VSENSE_C*%
X249201274Y-108071232D03*
%TD*%
D18*
%TO.P,C179,1*%
%TO.N,Net-(U25-CPL)*%
X256864411Y-110358095D03*
%TO.P,C179,2*%
%TO.N,Net-(U25-CPH)*%
X256185589Y-111036917D03*
%TD*%
D27*
%TO.P,R5,1*%
%TO.N,GND*%
X236801274Y-99651274D03*
%TO.P,R5,2*%
%TO.N,CSI_REXT*%
X236348726Y-99198726D03*
%TD*%
D85*
%TO.P,U11,1,AVDDVCSEL_1*%
%TO.N,+3V3*%
X245246931Y-102407663D03*
D86*
X245434315Y-102397056D03*
%TO.P,U11,2,AVSSVCSEL_2*%
%TO.N,GND*%
X246000000Y-101831371D03*
%TO.P,U11,3,GND_3*%
X246565685Y-101265685D03*
%TO.P,U11,4,GND_4*%
X247131371Y-100700000D03*
%TO.P,U11,5,XSHUT_5*%
%TO.N,Net-(U11-XSHUT)*%
X247697056Y-100134315D03*
%TO.P,U11,6,GND_6*%
%TO.N,GND*%
X247131371Y-99568629D03*
%TO.P,U11,7,GPIO1_7*%
%TO.N,unconnected-(U11-GPIO1-Pad7)*%
X246565685Y-99002944D03*
%TO.P,U11,8,DNC_8*%
%TO.N,unconnected-(U11-DNC-Pad8)*%
X246000000Y-99568629D03*
%TO.P,U11,9,SDA_9*%
%TO.N,I2C_SDA*%
X245434315Y-100134315D03*
%TO.P,U11,10,SCL_10*%
%TO.N,I2C_SCL*%
X244868629Y-100700000D03*
%TO.P,U11,11,AVDD_11*%
%TO.N,+3V3*%
X244302944Y-101265685D03*
%TO.P,U11,12,GND_12*%
%TO.N,GND*%
X244868629Y-101831371D03*
%TD*%
D27*
%TO.P,R166,1*%
%TO.N,Net-(U26-PA1)*%
X237177548Y-101252548D03*
%TO.P,R166,2*%
%TO.N,Net-(D16-A)*%
X236725000Y-100800000D03*
%TD*%
%TO.P,L1,1,1_1*%
%TO.N,Net-(C35-Pad1)*%
X256841096Y-97895601D03*
%TO.P,L1,2,2_2*%
%TO.N,Net-(U4-XTAL_P)*%
X256388548Y-97443053D03*
%TD*%
D16*
%TO.P,TP17,1,1_1*%
%TO.N,/Motors/ESC1/NRST*%
X244250000Y-77600000D03*
%TD*%
D18*
%TO.P,C111,1*%
%TO.N,/Motors/ESC1/PHASE_C*%
X240277888Y-76119168D03*
%TO.P,C111,2*%
%TO.N,Net-(U16-BSTC)*%
X239599066Y-76797990D03*
%TD*%
D27*
%TO.P,R45,1*%
%TO.N,Net-(U11-XSHUT)*%
X248026274Y-98426274D03*
%TO.P,R45,2*%
%TO.N,+3V3*%
X247573726Y-97973726D03*
%TD*%
D17*
%TO.P,R103,1*%
%TO.N,/Motors/ESC2/VSENSE_B*%
X255898726Y-80928768D03*
%TO.P,R103,2*%
%TO.N,/Motors/ESC2/VSENSE_REF*%
X256351274Y-80476220D03*
%TD*%
D84*
%TO.P,R13,1*%
%TO.N,Net-(U4-MTDI{slash}GPIO3{slash}ADC1_CH2)*%
X258550000Y-102750000D03*
%TO.P,R13,2*%
%TO.N,Net-(JP2-C)*%
X258550000Y-102110000D03*
%TD*%
D53*
%TO.P,C25,1*%
%TO.N,+3V3*%
X234848008Y-101176992D03*
%TO.P,C25,2*%
%TO.N,GND*%
X233751992Y-102273008D03*
%TD*%
D17*
%TO.P,D1,1,K_1*%
%TO.N,GND*%
X230623726Y-100576274D03*
%TO.P,D1,2,A_2*%
%TO.N,Net-(D1-A)*%
X231076274Y-100123726D03*
%TD*%
D87*
%TO.P,JP3,1,A_1*%
%TO.N,GND*%
X252432843Y-87882843D03*
%TO.P,JP3,2,B_2*%
%TO.N,Net-(JP3-B)*%
X251937868Y-87387868D03*
%TD*%
D17*
%TO.P,C184,1*%
%TO.N,GND*%
X255879790Y-84928677D03*
%TO.P,C184,2*%
%TO.N,+3V3*%
X256332338Y-84476129D03*
%TD*%
D64*
%TO.P,C81,1*%
%TO.N,GND*%
X242977119Y-102626866D03*
%TO.P,C81,2*%
%TO.N,+3V3*%
X244073135Y-103722882D03*
%TD*%
D15*
%TO.P,R110,1*%
%TO.N,/Motors/ESC2/PHASE_C*%
X254851274Y-78976220D03*
%TO.P,R110,2*%
%TO.N,/Motors/ESC2/VSENSE_C*%
X254398726Y-79428768D03*
%TD*%
D84*
%TO.P,R62,1*%
%TO.N,+3V3*%
X236250000Y-83270000D03*
%TO.P,R62,2*%
%TO.N,/Motors/ESC1/NFAULT*%
X236250000Y-82630000D03*
%TD*%
D16*
%TO.P,TP48,1,1_1*%
%TO.N,GND*%
X227761522Y-85338478D03*
%TD*%
D52*
%TO.P,JP4,1,A_1*%
%TO.N,Net-(JP4-A)*%
X253517696Y-88713820D03*
%TO.P,JP4,2,B_2*%
%TO.N,GND*%
X253022721Y-89208795D03*
%TD*%
D16*
%TO.P,TP28,1,1_1*%
%TO.N,/Motors/ESC4/SWDIO*%
X247425000Y-110497506D03*
%TD*%
D27*
%TO.P,R29,1*%
%TO.N,BAT_VSENSE*%
X227476274Y-88726274D03*
%TO.P,R29,2*%
%TO.N,+BATT*%
X227023726Y-88273726D03*
%TD*%
D21*
%TO.P,C11,1*%
%TO.N,Net-(U1-XTAL_P)*%
X232145557Y-84209935D03*
%TO.P,C11,2*%
%TO.N,GND*%
X231466735Y-83531113D03*
%TD*%
D88*
%TO.P,JP1,1,A_1*%
%TO.N,Net-(JP1-A)*%
X226500000Y-99900000D03*
%TO.P,JP1,2,B_2*%
%TO.N,Net-(JP1-B)*%
X227200000Y-99900000D03*
%TD*%
D16*
%TO.P,TP27,1,1_1*%
%TO.N,/Motors/ESC3/SWCLK*%
X234425000Y-109297506D03*
%TD*%
D27*
%TO.P,D17,1,K_1*%
%TO.N,GND*%
X250352548Y-101125054D03*
%TO.P,D17,2,A_2*%
%TO.N,Net-(D17-A)*%
X249900000Y-100672506D03*
%TD*%
D17*
%TO.P,R78,1*%
%TO.N,/Motors/ESC1/VSENSE_B*%
X242923726Y-80926274D03*
%TO.P,R78,2*%
%TO.N,/Motors/ESC1/VSENSE_REF*%
X243376274Y-80473726D03*
%TD*%
D89*
%TO.P,L3,1,1_1*%
%TO.N,Net-(U6-SW)*%
X231149999Y-105299999D03*
%TO.P,L3,2,2_2*%
%TO.N,VDD_HP*%
X231149999Y-103299999D03*
%TD*%
D15*
%TO.P,R152,1*%
%TO.N,/Motors/ESC4/PHASE_A*%
X252346249Y-102466206D03*
%TO.P,R152,2*%
%TO.N,/Motors/ESC4/VSENSE_A*%
X251893701Y-102918754D03*
%TD*%
D17*
%TO.P,R154,1*%
%TO.N,GND*%
X246247452Y-106025055D03*
%TO.P,R154,2*%
%TO.N,/Motors/ESC4/VSENSE_B*%
X246700000Y-105572507D03*
%TD*%
D16*
%TO.P,TP29,1,1_1*%
%TO.N,/Motors/ESC2/NRST*%
X257225000Y-77602494D03*
%TD*%
D90*
%TO.N,GND*%
X262138460Y-89032925D03*
X260787500Y-83000000D03*
X258607429Y-93707429D03*
X231246914Y-84146914D03*
D91*
X264200000Y-102300000D03*
D90*
X241475000Y-108947506D03*
X256481227Y-92702657D03*
D91*
X263000000Y-104700000D03*
D90*
X255165254Y-90432090D03*
X250475000Y-79002494D03*
X257825000Y-79902494D03*
D91*
X262400000Y-104700000D03*
X262400000Y-102900000D03*
D90*
X253125000Y-109747506D03*
X258700000Y-100075000D03*
X233225000Y-108047506D03*
X259700000Y-85020000D03*
X244735002Y-84300000D03*
X234800000Y-88075000D03*
X237050000Y-78550000D03*
D91*
X263000000Y-105900000D03*
D90*
X232500000Y-94100000D03*
D91*
X263600000Y-102300000D03*
D90*
X240125000Y-108497506D03*
X233230000Y-107590000D03*
D91*
X264200000Y-102900000D03*
D90*
X259100000Y-84350000D03*
X232644998Y-79035772D03*
D91*
X263600000Y-105900000D03*
D90*
X244500000Y-88500000D03*
X245775000Y-107597506D03*
X257375000Y-79002494D03*
X253125000Y-108947506D03*
X237050000Y-79000000D03*
X234300000Y-92200000D03*
X233225000Y-108947506D03*
X241025000Y-108947506D03*
X228500000Y-89150000D03*
X251338379Y-88489672D03*
X250082305Y-99101924D03*
X241643530Y-103172506D03*
X245700000Y-88050000D03*
X257825000Y-79452494D03*
X237500000Y-78550000D03*
X230144897Y-88451446D03*
X229073726Y-96898726D03*
X260832201Y-89487675D03*
X232775000Y-108497506D03*
X241475000Y-108497506D03*
D91*
X263600000Y-102900000D03*
D90*
X239900000Y-109347506D03*
X262300000Y-83313298D03*
X260118392Y-83131422D03*
D91*
X263600000Y-103500000D03*
X263600000Y-105300000D03*
X261800000Y-105900000D03*
D90*
X244855002Y-82500000D03*
D91*
X262400000Y-104100000D03*
D90*
X232775000Y-108947506D03*
X257830002Y-82502494D03*
X258700000Y-90800000D03*
X240575000Y-108947506D03*
X245775000Y-108047506D03*
X237500000Y-79000000D03*
X230835355Y-87798400D03*
X236150000Y-78550000D03*
X233700000Y-96000000D03*
X253350000Y-109347506D03*
X235600000Y-96600000D03*
X257800000Y-99975000D03*
X249125000Y-78552494D03*
X240125000Y-109747506D03*
X245700000Y-88500000D03*
X247950000Y-94950000D03*
D91*
X262400000Y-105900000D03*
D90*
X246225000Y-108947506D03*
X255700000Y-87985049D03*
X250700000Y-78152494D03*
X250025000Y-79002494D03*
X249575000Y-78552494D03*
X244850000Y-79900000D03*
X237878249Y-100850000D03*
D91*
X261800000Y-102300000D03*
X261800000Y-104700000D03*
D90*
X257375000Y-78552494D03*
X228200000Y-104300000D03*
X253247452Y-86374946D03*
X232775000Y-108047506D03*
X246225000Y-108497506D03*
X229777746Y-86577746D03*
X257900000Y-91287689D03*
X259700000Y-88020000D03*
X259355965Y-86225000D03*
X244400000Y-79450000D03*
X232769998Y-104997506D03*
X247131371Y-100850000D03*
X251400000Y-99200000D03*
X246230000Y-107590000D03*
X257375000Y-79452494D03*
X253500000Y-94870000D03*
X241500000Y-92719365D03*
D91*
X264200000Y-105300000D03*
X263600000Y-104100000D03*
D90*
X238300000Y-92400000D03*
X253575000Y-108947506D03*
X258250000Y-99600000D03*
X237500000Y-77750000D03*
X245769998Y-104997506D03*
D91*
X261800000Y-102900000D03*
D90*
X237275000Y-78150000D03*
X253022721Y-89208795D03*
X257980002Y-108461734D03*
X226825000Y-101150000D03*
X258700000Y-99625000D03*
X240125000Y-108947506D03*
X259100000Y-112222506D03*
X228787232Y-100195803D03*
X227797452Y-87497452D03*
X257779045Y-100479045D03*
X245889998Y-103197506D03*
X231172945Y-91127055D03*
X259800000Y-95135002D03*
X234800000Y-88525000D03*
X245775000Y-108947506D03*
X251370000Y-94080000D03*
D91*
X262400000Y-102300000D03*
D90*
X241025000Y-108497506D03*
X262935229Y-84638298D03*
X253575000Y-108497506D03*
X254900000Y-99900000D03*
X244400000Y-79000000D03*
X262950000Y-83900000D03*
D91*
X261800000Y-103500000D03*
D90*
X252900000Y-109347506D03*
X226937364Y-95029131D03*
X254475000Y-108947506D03*
X236600000Y-78550000D03*
X259429511Y-97329511D03*
X259812498Y-83775010D03*
X246225000Y-108047506D03*
X257825000Y-78552494D03*
X245574840Y-97972506D03*
X240272452Y-86372452D03*
X249575000Y-79452494D03*
X248108817Y-93488238D03*
X262900000Y-85400000D03*
X254609036Y-93490964D03*
X250475000Y-78552494D03*
X238431680Y-86288772D03*
X250025000Y-78552494D03*
X238972490Y-101340931D03*
D91*
X264200000Y-104700000D03*
D90*
X237899701Y-87100299D03*
X244400000Y-78550000D03*
X254025000Y-108947506D03*
X249365868Y-90792310D03*
D91*
X261800000Y-105300000D03*
D90*
X259156325Y-87074999D03*
X234350000Y-88075000D03*
X249708221Y-99473726D03*
X247500000Y-88050000D03*
X244850000Y-79000000D03*
X245619998Y-79038266D03*
X258700000Y-100525000D03*
X257370000Y-79910000D03*
X254025000Y-108047506D03*
X251327453Y-86310394D03*
X231525000Y-75275000D03*
X249575000Y-79002494D03*
D91*
X263000000Y-105300000D03*
D90*
X234350000Y-88525000D03*
X240619669Y-88880331D03*
X244050000Y-92854610D03*
X246100000Y-112222506D03*
X251972490Y-101340931D03*
D91*
X264200000Y-103500000D03*
D90*
X262612500Y-86200000D03*
X261571349Y-83173158D03*
X244000000Y-88000000D03*
D91*
X262400000Y-105300000D03*
D90*
X247500000Y-88500000D03*
X256300000Y-88100000D03*
X236000000Y-96200000D03*
D91*
X263000000Y-102300000D03*
D90*
X257359442Y-96482765D03*
D91*
X263000000Y-102900000D03*
D90*
X240575000Y-108497506D03*
D91*
X261800000Y-104100000D03*
D90*
X258250000Y-100500000D03*
X245775000Y-108497506D03*
X253500000Y-96910000D03*
X240127297Y-88750000D03*
X250100000Y-88000000D03*
D91*
X263600000Y-104700000D03*
D90*
X254025000Y-108497506D03*
X236100000Y-94000000D03*
X232454998Y-82900000D03*
X227139411Y-98739411D03*
X232775000Y-107597506D03*
X244850000Y-79450000D03*
X258250000Y-100050000D03*
X240015418Y-97689236D03*
X262612500Y-86800000D03*
X247201776Y-93051776D03*
X262612500Y-88300000D03*
D91*
X262400000Y-103500000D03*
X264200000Y-104100000D03*
D90*
X233225000Y-108497506D03*
X249125000Y-79002494D03*
X244400000Y-79900000D03*
X238718032Y-96483002D03*
X236600000Y-79000000D03*
X228700000Y-85400000D03*
X240350000Y-109347506D03*
X236600000Y-79450000D03*
X244500000Y-88000000D03*
X244739871Y-95939871D03*
X257825000Y-79002494D03*
X236150000Y-79000000D03*
X257710002Y-84302494D03*
X255860653Y-91009483D03*
X254678822Y-99321178D03*
X250250000Y-78152494D03*
X237189261Y-98450000D03*
X262612500Y-87500000D03*
X250475000Y-77752494D03*
X232889998Y-103197506D03*
X229673726Y-99126274D03*
X259775001Y-85875000D03*
X244850000Y-78550000D03*
X253125000Y-108497506D03*
X254475000Y-108497506D03*
X241025000Y-108047506D03*
X253800000Y-88000000D03*
X244980002Y-108461734D03*
X257389105Y-88943630D03*
X237725000Y-78150000D03*
X244500000Y-75277494D03*
D91*
X263000000Y-103500000D03*
X263000000Y-104100000D03*
X264200000Y-105900000D03*
D90*
X250700000Y-88000000D03*
%TO.N,+BATT*%
X247250000Y-83750000D03*
X263850000Y-92100000D03*
X257821010Y-110143520D03*
X247228716Y-101442053D03*
X263850000Y-93900000D03*
X248750000Y-84875000D03*
X264300000Y-92550000D03*
X245900000Y-82400000D03*
X250246120Y-104406202D03*
X263850000Y-93450000D03*
X249650000Y-85325000D03*
X239450865Y-83049106D03*
X234450000Y-85675000D03*
X250047872Y-105347506D03*
X244250000Y-105125000D03*
X256375000Y-105575000D03*
X263850000Y-93000000D03*
X252875000Y-83102494D03*
X240486603Y-102513397D03*
X247700000Y-83300000D03*
X257275000Y-105575000D03*
X250725000Y-104397506D03*
X250418830Y-105851233D03*
X263400000Y-93450000D03*
X237800000Y-86110202D03*
X240378880Y-83091304D03*
X246350000Y-82400000D03*
X249200000Y-85325000D03*
X249925000Y-105847504D03*
X250775000Y-104897506D03*
X239705835Y-81683395D03*
X240350000Y-82600000D03*
X246800000Y-82850000D03*
X257275000Y-105125000D03*
X264300000Y-91650000D03*
X262950000Y-92100000D03*
X236850000Y-84810202D03*
X240450040Y-102049960D03*
X240700000Y-81650002D03*
X248200000Y-101900000D03*
X236925000Y-105847504D03*
X243800000Y-105125000D03*
X243916117Y-101900000D03*
X262500000Y-93450000D03*
X258529286Y-101505000D03*
X256825000Y-105125000D03*
X261600000Y-92100000D03*
X252680835Y-81685889D03*
X237418830Y-105851233D03*
X247250000Y-82850000D03*
X243452334Y-101900000D03*
X245947806Y-86324806D03*
X247250000Y-82400000D03*
X255300000Y-85575000D03*
X262050000Y-93450000D03*
X248750000Y-85325000D03*
X247200000Y-101900000D03*
X253019454Y-101980546D03*
X263850000Y-91650000D03*
X240100000Y-82150000D03*
X246350000Y-83300000D03*
X234157314Y-82376992D03*
X238025000Y-105347506D03*
X239850000Y-82600000D03*
X262050000Y-92100000D03*
X262500000Y-92550000D03*
X246350000Y-82850000D03*
X233700000Y-82376992D03*
X262500000Y-93900000D03*
X262500000Y-92100000D03*
X264300000Y-93900000D03*
X262050000Y-93000000D03*
X262950000Y-92550000D03*
X238275000Y-104897506D03*
X261600000Y-92550000D03*
X262950000Y-93000000D03*
X247680000Y-101450000D03*
X262950000Y-91650000D03*
X244700000Y-105125000D03*
X264300000Y-93450000D03*
X252575000Y-82152494D03*
X247250000Y-81950000D03*
X243350000Y-105575000D03*
X247523680Y-86301320D03*
X234175000Y-81925000D03*
X261600000Y-93450000D03*
X246800000Y-82400000D03*
X253075000Y-82152494D03*
X253325000Y-82602494D03*
X239350000Y-82600000D03*
X237775000Y-104897506D03*
X244821010Y-110143520D03*
X251174135Y-104448400D03*
X250919165Y-105814111D03*
X245900000Y-83750000D03*
X261600000Y-93000000D03*
X253325001Y-102351796D03*
X253675000Y-81652496D03*
X262950000Y-93450000D03*
X237725000Y-104397506D03*
X245476710Y-86300930D03*
X236358642Y-84810202D03*
X263400000Y-92100000D03*
X262050000Y-93900000D03*
X247025000Y-86325000D03*
X247700000Y-83750000D03*
X227013218Y-88263020D03*
X263400000Y-91650000D03*
X262050000Y-91650000D03*
X250275000Y-104897506D03*
X250100000Y-85325000D03*
X239973189Y-102032619D03*
X261600000Y-93900000D03*
X257550000Y-85600000D03*
X245900000Y-82850000D03*
X237275000Y-104897506D03*
X262050000Y-92550000D03*
X246350000Y-81950000D03*
X247250000Y-83300000D03*
X245778990Y-77356480D03*
X262500000Y-91650000D03*
X262500000Y-93000000D03*
X244250000Y-105575000D03*
X248148812Y-101431228D03*
X233700000Y-81925000D03*
X252325000Y-82602494D03*
X257725000Y-105125000D03*
X256200000Y-85575000D03*
X233225000Y-81925000D03*
X232803990Y-77353986D03*
X253181170Y-81648767D03*
X253353880Y-83093798D03*
X244700000Y-105575000D03*
X251025000Y-105347506D03*
X261600000Y-91650000D03*
X250525000Y-105347506D03*
X263400000Y-93000000D03*
X243800000Y-105575000D03*
X239600000Y-82150000D03*
X245900000Y-81950000D03*
X239900000Y-83100000D03*
X246800000Y-83300000D03*
X252425865Y-83051600D03*
X253552128Y-82152494D03*
X243350000Y-105125000D03*
X256825000Y-105575000D03*
X255750000Y-85575000D03*
X240577128Y-82150000D03*
X237246120Y-104406202D03*
X251275000Y-104897506D03*
X256650000Y-85575000D03*
X246350000Y-83750000D03*
X252600000Y-101800000D03*
X238174135Y-104448400D03*
X249650000Y-84875000D03*
X257725000Y-105575000D03*
X246800000Y-83750000D03*
X257100000Y-85600000D03*
X240206170Y-81646273D03*
X246800000Y-81950000D03*
X248300000Y-84875000D03*
X263400000Y-93900000D03*
X240956674Y-102556595D03*
X263400000Y-92550000D03*
X252825000Y-82602494D03*
X237047872Y-105347506D03*
X247700000Y-101900000D03*
X264300000Y-93000000D03*
X264300000Y-92100000D03*
X262950000Y-93900000D03*
X256375000Y-105125000D03*
X263850000Y-92550000D03*
X245900000Y-83300000D03*
X249200000Y-84875000D03*
X237919165Y-105814111D03*
X246700000Y-101934277D03*
X237525000Y-105347506D03*
D91*
%TO.N,/Motors/ESC4/PHASE_B*%
X251924732Y-111747238D03*
D90*
X245803229Y-106436432D03*
X253306407Y-112527370D03*
X253026337Y-112901301D03*
X250051118Y-106655856D03*
X252069389Y-112860630D03*
X253187580Y-112038050D03*
%TO.N,/Motors/ESC1/PHASE_A*%
X234100000Y-74800000D03*
X234542231Y-75256644D03*
X234784372Y-81131850D03*
X234074999Y-75275000D03*
X235000000Y-74800000D03*
X233713541Y-76346753D03*
X237026041Y-84200000D03*
X235450000Y-74750000D03*
X233250000Y-76500000D03*
X235893826Y-74846376D03*
X234550000Y-74800000D03*
%TO.N,/Motors/ESC1/PHASE_B*%
X237598663Y-74596205D03*
X237318593Y-74970136D03*
X240573882Y-80841650D03*
X244821771Y-81061074D03*
X238555611Y-74636876D03*
X237437420Y-75459456D03*
D91*
X238700268Y-75750268D03*
D90*
%TO.N,/Motors/ESC2/GHA*%
X249349998Y-75603198D03*
X245475000Y-79782494D03*
%TO.N,/Motors/ESC4/PHASE_C*%
X249125000Y-110797506D03*
X248625000Y-112797506D03*
X248625000Y-111297506D03*
X247625000Y-112797506D03*
X248125000Y-112797506D03*
X247625000Y-112297506D03*
X248125000Y-112297506D03*
X248625000Y-111797506D03*
X248725000Y-108497506D03*
X248625000Y-112297506D03*
X248125000Y-111797506D03*
X249125000Y-111297506D03*
%TO.N,/Motors/ESC2/PHASE_B*%
X250573663Y-74598699D03*
X253548882Y-80844144D03*
X251530611Y-74639370D03*
X257796771Y-81063568D03*
X250293593Y-74972630D03*
X250412420Y-75461950D03*
D91*
X251675268Y-75752762D03*
D90*
%TO.N,Net-(Q14-G)*%
X253861291Y-74527496D03*
X249978984Y-80633004D03*
%TO.N,/Motors/ESC3/PHASE_A*%
X242175000Y-112747506D03*
X244375000Y-110997506D03*
X241731174Y-112651130D03*
X240598959Y-103297506D03*
X242840628Y-106365656D03*
X242625000Y-112697506D03*
X243525000Y-112697506D03*
X243075000Y-112697506D03*
X243550001Y-112222506D03*
X243911459Y-111150753D03*
X243082769Y-112240862D03*
%TO.N,/Motors/ESC1/PHASE_C*%
X242000000Y-76200000D03*
X241900000Y-79000000D03*
X243000000Y-75200000D03*
X242000000Y-74700000D03*
X242000000Y-75700000D03*
X241500000Y-76700000D03*
X242500000Y-75200000D03*
X241500000Y-76200000D03*
X242500000Y-74700000D03*
X242000000Y-75200000D03*
X242500000Y-75700000D03*
X243000000Y-74700000D03*
%TO.N,Net-(Q10-G)*%
X244475000Y-76700018D03*
D91*
%TO.N,/Motors/ESC3/PHASE_B*%
X238924732Y-111747238D03*
D90*
X240026337Y-112901301D03*
X237051118Y-106655856D03*
X239069389Y-112860630D03*
X240306407Y-112527370D03*
X240187580Y-112038050D03*
X232803229Y-106436432D03*
%TO.N,Net-(Q20-G)*%
X240621016Y-106866996D03*
X236738709Y-112972504D03*
%TO.N,/Motors/ESC4/PHASE_A*%
X255840628Y-106365656D03*
X253598959Y-103297506D03*
X255625000Y-112697506D03*
X256075000Y-112697506D03*
X256082769Y-112240862D03*
X254731174Y-112651130D03*
X257375000Y-110997506D03*
X256525000Y-112697506D03*
X256550001Y-112222506D03*
X256911459Y-111150753D03*
X255175000Y-112747506D03*
%TO.N,Net-(Q26-G)*%
X253621016Y-106866996D03*
X249738709Y-112972504D03*
%TO.N,/Motors/ESC2/GLA*%
X249700000Y-75115860D03*
%TO.N,/MCU/FLASH_CS*%
X242313623Y-92203383D03*
%TO.N,/MCU/FLASH_Q*%
X242685000Y-91604967D03*
%TO.N,/MCU/FLASH_WP*%
X239550000Y-92250000D03*
%TO.N,/MCU/FLASH_D*%
X237630000Y-95285256D03*
%TO.N,/MCU/FLASH_CLK*%
X239577208Y-96957448D03*
%TO.N,/MCU/FLASH_HD*%
X240800000Y-97200000D03*
%TO.N,/Motors/ESC3/PHASE_C*%
X235625000Y-111297506D03*
X235125000Y-112797506D03*
X235625000Y-111797506D03*
X235125000Y-111797506D03*
X235625000Y-112297506D03*
X234625000Y-112297506D03*
X236125000Y-111297506D03*
X234625000Y-112797506D03*
X236125000Y-110797506D03*
X235125000Y-112297506D03*
X235725000Y-108497506D03*
X235625000Y-112797506D03*
%TO.N,+3V3*%
X232769998Y-103998400D03*
X245078353Y-106414462D03*
X256758759Y-89227494D03*
X226851992Y-91200000D03*
X245725000Y-94300000D03*
X242681067Y-94548554D03*
X254737454Y-90859888D03*
X245769998Y-103998400D03*
X249203680Y-95296320D03*
X230126274Y-98673726D03*
X244855002Y-83499106D03*
X231302548Y-87347452D03*
X251281358Y-100376612D03*
X245725000Y-93827500D03*
X235856887Y-84340242D03*
X231035018Y-102122518D03*
X226882918Y-93988398D03*
X258524013Y-91835695D03*
X249225000Y-83252494D03*
X227623726Y-96726274D03*
X258078353Y-106414462D03*
X241375000Y-104247506D03*
X257792265Y-96007735D03*
X236250000Y-83250000D03*
X248582090Y-97022325D03*
X235506436Y-101006436D03*
X247434887Y-98065113D03*
X245750000Y-95650000D03*
X245700000Y-96150000D03*
X226886519Y-83500000D03*
X254375000Y-104247506D03*
X232546647Y-81083044D03*
X244276363Y-97960500D03*
X258400000Y-104200000D03*
X232904208Y-86325000D03*
X228175092Y-101417556D03*
X240597750Y-90883145D03*
X227000000Y-105300000D03*
X245521647Y-81085538D03*
X245105545Y-91591404D03*
X238598468Y-87464798D03*
X257830002Y-83501600D03*
X233337349Y-97849489D03*
X228952548Y-89602548D03*
X256359672Y-98272506D03*
%TO.N,Net-(U14-VDD)*%
X249681739Y-89275000D03*
%TO.N,VDDO_4*%
X226460589Y-98060589D03*
X236979328Y-89745696D03*
%TO.N,Net-(Q21-G)*%
X236266568Y-105878377D03*
X237054134Y-110207605D03*
%TO.N,CSI_DATA0N*%
X237800000Y-97800000D03*
%TO.N,CSI_DATA0P*%
X237200000Y-97850000D03*
%TO.N,CSI_DATA1N*%
X236618726Y-98264282D03*
%TO.N,CSI_DATA1P*%
X235146586Y-97847806D03*
%TO.N,CSI_CLKN*%
X235750431Y-97249568D03*
%TO.N,CSI_CLKP*%
X236174695Y-96825304D03*
%TO.N,CAM_EN*%
X229483184Y-93916816D03*
%TO.N,I2C_SCL*%
X240300000Y-101000000D03*
X242500000Y-97972506D03*
X242034188Y-89234188D03*
X228636525Y-83500000D03*
X243834748Y-100850000D03*
X231538172Y-100475000D03*
X236953882Y-87066648D03*
%TO.N,I2C_SDA*%
X245900000Y-100850000D03*
X227791631Y-84399951D03*
X236458908Y-86571673D03*
X239700000Y-100850000D03*
X242634118Y-89225000D03*
X231259478Y-101159478D03*
%TO.N,/Motors/ESC2/PHASE_C*%
X254975000Y-75702494D03*
X255975000Y-74702494D03*
X255475000Y-75702494D03*
X255975000Y-75202494D03*
X254975000Y-76202494D03*
X254975000Y-74702494D03*
X255475000Y-75202494D03*
X254475000Y-76702494D03*
X254875000Y-79002494D03*
X254975000Y-75202494D03*
X254475000Y-76202494D03*
X255475000Y-74702494D03*
D91*
%TO.N,Net-(R3-Pad2)*%
X262700000Y-97600000D03*
X262700000Y-100000000D03*
D90*
X262700000Y-94800000D03*
X264050000Y-94800000D03*
D91*
X263300000Y-98200000D03*
D90*
X263600000Y-95700000D03*
X262700000Y-95700000D03*
D91*
X262100000Y-100600000D03*
X262700000Y-98800000D03*
X262700000Y-100600000D03*
D90*
X263600000Y-94800000D03*
X264050000Y-95250000D03*
D91*
X263300000Y-97600000D03*
X262700000Y-99400000D03*
X262700000Y-98200000D03*
X263900000Y-97600000D03*
X263300000Y-100000000D03*
D90*
X263150000Y-95700000D03*
D91*
X262100000Y-98800000D03*
D90*
X263600000Y-95250000D03*
X261800000Y-94800000D03*
X261800000Y-95700000D03*
X263150000Y-95250000D03*
D91*
X263900000Y-100600000D03*
X263900000Y-100000000D03*
D90*
X263150000Y-94800000D03*
D91*
X262100000Y-100000000D03*
X263300000Y-99400000D03*
D90*
X261800000Y-95250000D03*
D91*
X262100000Y-97600000D03*
D90*
X262250000Y-95700000D03*
D91*
X263900000Y-98200000D03*
X262100000Y-99400000D03*
X263900000Y-99400000D03*
D90*
X262250000Y-94800000D03*
X264050000Y-95700000D03*
X262250000Y-95250000D03*
D91*
X263300000Y-98800000D03*
X262100000Y-98200000D03*
X263300000Y-100600000D03*
X263900000Y-98800000D03*
D90*
X262700000Y-95250000D03*
%TO.N,Net-(Q13-G)*%
X250034314Y-81230450D03*
X253261289Y-74527495D03*
%TO.N,/Motors/ESC2/PHASE_A*%
X247759372Y-81134344D03*
X247525000Y-74802494D03*
X250001041Y-84202494D03*
X246225000Y-76502494D03*
X248425000Y-74752494D03*
X247975000Y-74802494D03*
X247517231Y-75259138D03*
X247075000Y-74802494D03*
X248868826Y-74848870D03*
X246688541Y-76349247D03*
X247049999Y-75277494D03*
%TO.N,Net-(Q9-G)*%
X241358432Y-81619129D03*
X240570866Y-77289901D03*
%TO.N,/MCU/USB_D+*%
X244124085Y-93457278D03*
X233912741Y-100250000D03*
%TO.N,/MCU/USB_D-*%
X244614051Y-93803596D03*
X234525000Y-100250000D03*
%TO.N,Net-(Q22-G)*%
X233150000Y-110797488D03*
%TO.N,Net-(Q25-G)*%
X250338711Y-112972505D03*
X253565686Y-106269550D03*
%TO.N,/Motors/ESC3/GLA*%
X240900000Y-112384140D03*
%TO.N,/Motors/ESC4/GLA*%
X253900000Y-112384140D03*
%TO.N,Net-(Q19-G)*%
X237338711Y-112972505D03*
X240565686Y-106269550D03*
%TO.N,Net-(Q8-G)*%
X240886291Y-74525002D03*
X237003984Y-80630510D03*
%TO.N,Net-(Q7-G)*%
X240286289Y-74525001D03*
X237059314Y-81227956D03*
%TO.N,/Motors/ESC3/GHA*%
X245125000Y-107717506D03*
X241250002Y-111896802D03*
%TO.N,/Motors/ESC1/GHA*%
X236374998Y-75600704D03*
X232500000Y-79780000D03*
%TO.N,Net-(Q27-G)*%
X250054134Y-110207605D03*
X249266568Y-105878377D03*
%TO.N,Net-(Q28-G)*%
X246150000Y-110797488D03*
%TO.N,/Motors/ESC1/GLA*%
X236725000Y-75113366D03*
%TO.N,/Motors/ESC4/GHA*%
X254250002Y-111896802D03*
X258125000Y-107717506D03*
%TO.N,Net-(Q16-G)*%
X257450000Y-76702512D03*
%TO.N,Net-(Q15-G)*%
X254333432Y-81621623D03*
X253545866Y-77292395D03*
%TO.N,BAT_ISENSE*%
X257422580Y-87287457D03*
X239688990Y-86574481D03*
X238118250Y-90885395D03*
X260900000Y-91900000D03*
%TO.N,DSHOT_1*%
X235603066Y-86319935D03*
X241895663Y-86115080D03*
%TO.N,Net-(U4-MTDI{slash}GPIO3{slash}ADC1_CH2)*%
X255163057Y-101349039D03*
X258501650Y-102715000D03*
%TO.N,DSHOT_4*%
X238224266Y-98224266D03*
X229232381Y-91864104D03*
X247200000Y-97400000D03*
%TO.N,CP_SDIO_D3*%
X249526078Y-97068288D03*
X229199657Y-100861790D03*
%TO.N,/Motors/ESC4/VSENSE_REF*%
X245939999Y-107020636D03*
X249269998Y-104758193D03*
%TO.N,UART_TX*%
X229247652Y-95960140D03*
X230222254Y-82566619D03*
%TO.N,CP_SDIO_D2*%
X249034638Y-96569777D03*
X229271911Y-99842124D03*
%TO.N,/Motors/ESC2/NRST*%
X257875000Y-77347492D03*
X254363386Y-83340880D03*
%TO.N,/Motors/ESC2/VSENSE_REF*%
X257660001Y-80479364D03*
X254330002Y-82741807D03*
%TO.N,/MCU/VDDO_3*%
X227110589Y-97410589D03*
X238629175Y-97781493D03*
%TO.N,VDD_HP*%
X230500000Y-103000000D03*
X229597452Y-89002548D03*
X241414005Y-91410395D03*
X230500000Y-103600000D03*
X232919669Y-101042100D03*
X227837364Y-94259156D03*
%TO.N,CP_SDIO_D1*%
X250673726Y-100226274D03*
X232647749Y-100047117D03*
%TO.N,/Motors/ESC1/VSENSE_REF*%
X241355002Y-82739313D03*
X244685001Y-80476870D03*
%TO.N,DSHOT_2*%
X234719030Y-87325000D03*
X254875001Y-86112696D03*
%TO.N,CP_SDIO_D0*%
X249226777Y-100373726D03*
X232268719Y-100592100D03*
%TO.N,CP_SDIO_CLK*%
X230182786Y-101599773D03*
X250286217Y-98146625D03*
%TO.N,CP_SDIO_CMD*%
X250017517Y-97566797D03*
X229654082Y-101253577D03*
%TO.N,UART_RX*%
X229614142Y-81958507D03*
X228778542Y-95262524D03*
%TO.N,FB_DCDC*%
X227611686Y-93105976D03*
X227094999Y-102275000D03*
%TO.N,EN_DCDC*%
X227545659Y-92509619D03*
X229296752Y-102925001D03*
%TO.N,DSHOT_3*%
X228876915Y-92371077D03*
X236188672Y-101172667D03*
%TO.N,/Motors/ESC3/NRST*%
X236236614Y-104159120D03*
X232725000Y-110152508D03*
%TO.N,/Motors/ESC3/VSENSE_REF*%
X232939999Y-107020636D03*
X236269998Y-104758193D03*
%TO.N,Net-(U4-CHIP_PU)*%
X254000000Y-100172506D03*
X255716797Y-98114804D03*
%TO.N,/Motors/ESC4/NRST*%
X249236614Y-104159120D03*
X245725000Y-110152508D03*
%TO.N,/Motors/ESC1/NRST*%
X244900000Y-77344998D03*
X241388386Y-83338386D03*
%TD*%
%TO.N,GND*%
D92*
X259733954Y-88053954D02*
X259700000Y-88020000D01*
D93*
X255380922Y-91566996D02*
X255380922Y-91489214D01*
D94*
X246954595Y-99745405D02*
X246954595Y-100523224D01*
D92*
X259358398Y-89287580D02*
X259733954Y-88912024D01*
D95*
X255351274Y-79476220D02*
X255375000Y-79452494D01*
D92*
X251826014Y-88489672D02*
X251338379Y-88489672D01*
D95*
X235306928Y-78261701D02*
X237003984Y-78261701D01*
D94*
X251851274Y-101811029D02*
X251851274Y-101971232D01*
D95*
X229777746Y-86577746D02*
X229939383Y-86416109D01*
X226940724Y-95025771D02*
X227070749Y-95025771D01*
D94*
X250575990Y-100901612D02*
X250352548Y-101125054D01*
X243470539Y-98812564D02*
X242798788Y-99484315D01*
D95*
X238715243Y-100827548D02*
X237780617Y-100827548D01*
D94*
X233426205Y-104643146D02*
X233124358Y-104643146D01*
D95*
X246048726Y-78976220D02*
X245682044Y-78976220D01*
D93*
X258021966Y-94278750D02*
X258036108Y-94278750D01*
D95*
X247751598Y-78794525D02*
X248281928Y-78264195D01*
D94*
X256715914Y-108764274D02*
X257310780Y-108764274D01*
X257343142Y-96463710D02*
X257359443Y-96480011D01*
D95*
X244917956Y-108523780D02*
X244980002Y-108461734D01*
D93*
X258036108Y-94278750D02*
X258607429Y-93707429D01*
D94*
X232889998Y-102586014D02*
X232889998Y-103197506D01*
X240801211Y-99325216D02*
X241154765Y-98971663D01*
X241939005Y-91133909D02*
X241252548Y-90447452D01*
D95*
X255695584Y-95000000D02*
X253150000Y-95000000D01*
X234660589Y-83160589D02*
X234351992Y-82851992D01*
D96*
X232331624Y-94750000D02*
X234240813Y-96659189D01*
D94*
X247351992Y-92901560D02*
X247201776Y-93051776D01*
X248338306Y-93258749D02*
X248108817Y-93488238D01*
X239125154Y-97360992D02*
X238630178Y-96866016D01*
D92*
X255860653Y-91087265D02*
X255860653Y-91009483D01*
D94*
X242189170Y-102626866D02*
X241643530Y-103172506D01*
X242940326Y-108797399D02*
X242848402Y-108705475D01*
D95*
X255349460Y-84398347D02*
X254868628Y-83917514D01*
D92*
X259733954Y-88912024D02*
X259733954Y-88053954D01*
D94*
X241939005Y-91739924D02*
X241939005Y-91133909D01*
X241746750Y-91932179D02*
X241939005Y-91739924D01*
X251715380Y-100901612D02*
X250575990Y-100901612D01*
D96*
X236150000Y-90931623D02*
X238059189Y-92840812D01*
D95*
X242376274Y-79473726D02*
X242400000Y-79450000D01*
D96*
X236150001Y-94749999D02*
X238059189Y-92840812D01*
D95*
X244697659Y-98849687D02*
X245574840Y-97972506D01*
D94*
X254678822Y-99321178D02*
X254678822Y-99876972D01*
D95*
X244377548Y-81472451D02*
X244855002Y-81949905D01*
X242374460Y-84395853D02*
X242904790Y-84926183D01*
X255380922Y-91566996D02*
X255410454Y-91537464D01*
X261300000Y-101800000D02*
X259400000Y-101800000D01*
X242787139Y-99667121D02*
X242787139Y-99664010D01*
X246736900Y-80282985D02*
X246476526Y-80282985D01*
X242374460Y-84395853D02*
X241893628Y-83915020D01*
D94*
X239989411Y-97660589D02*
X239424749Y-97660589D01*
D95*
X255193538Y-90432090D02*
X255165254Y-90432090D01*
D94*
X257310780Y-108764274D02*
X257551274Y-108523780D01*
D95*
X248225000Y-108047506D02*
X246225000Y-108047506D01*
D94*
X232454998Y-82900000D02*
X232503006Y-82851992D01*
D95*
X245986680Y-79038266D02*
X246048726Y-78976220D01*
X241746750Y-92472615D02*
X241500000Y-92719365D01*
X233761900Y-80280491D02*
X233501526Y-80280491D01*
X248250540Y-103101653D02*
X248731372Y-103582486D01*
X256508757Y-94186827D02*
X255695584Y-95000000D01*
X259429511Y-97329511D02*
X258983630Y-97775393D01*
X257917956Y-108523780D02*
X257980002Y-108461734D01*
D94*
X238630178Y-96866016D02*
X238630178Y-96570856D01*
X257389105Y-89589377D02*
X257389105Y-88943630D01*
X233909086Y-78733232D02*
X233314220Y-78733232D01*
X242977119Y-102626866D02*
X242189170Y-102626866D01*
D95*
X233073726Y-78973726D02*
X232707044Y-78973726D01*
X257399711Y-100858378D02*
X257399711Y-103300289D01*
D94*
X251972490Y-101689813D02*
X251851274Y-101811029D01*
X227789411Y-98089411D02*
X227139411Y-98739411D01*
D95*
X244551274Y-108523780D02*
X244917956Y-108523780D01*
X257779045Y-100479045D02*
X258255310Y-100002779D01*
D94*
X259898008Y-95036994D02*
X259800000Y-95135002D01*
D95*
X229939383Y-86416109D02*
X230533354Y-86416109D01*
D94*
X233942211Y-78700107D02*
X233909086Y-78733232D01*
X251972490Y-101340931D02*
X251972490Y-101158722D01*
X228225000Y-97225000D02*
X228225000Y-97653822D01*
D95*
X228670000Y-100000000D02*
X228670000Y-100078571D01*
X233011680Y-79035772D02*
X233073726Y-78973726D01*
X248248726Y-108023780D02*
X248225000Y-108047506D01*
D94*
X255940326Y-108797399D02*
X255848402Y-108705475D01*
D95*
X237569669Y-78261701D02*
X237003984Y-78261701D01*
X232757504Y-83057504D02*
X232551992Y-82851992D01*
D94*
X251327453Y-86110244D02*
X251748726Y-85688971D01*
D95*
X258983630Y-97775393D02*
X258700787Y-97775393D01*
D94*
X238773726Y-85686477D02*
X238773726Y-85526274D01*
X256281979Y-88081979D02*
X256300000Y-88100000D01*
X247720210Y-102571323D02*
X247608164Y-102459277D01*
D95*
X242848402Y-108705475D02*
X242318072Y-109235805D01*
D94*
X247131371Y-100700000D02*
X246000000Y-101831371D01*
D95*
X245682044Y-78976220D02*
X245619998Y-79038266D01*
D94*
X236801274Y-99651274D02*
X236801274Y-99688674D01*
X256929998Y-90048484D02*
X257389105Y-89589377D01*
D95*
X244478171Y-96201572D02*
X244444301Y-96201572D01*
X230745486Y-84648342D02*
X231246914Y-84146914D01*
X242400000Y-79450000D02*
X244400000Y-79450000D01*
D94*
X242957887Y-99325216D02*
X242445235Y-99325216D01*
X255879790Y-84928677D02*
X255991836Y-85040723D01*
D95*
X235248726Y-108023780D02*
X235225000Y-108047506D01*
D94*
X236801274Y-99688674D02*
X236294974Y-100194974D01*
D95*
X259796803Y-96962220D02*
X259429511Y-97329511D01*
D94*
X229073726Y-96898726D02*
X228551274Y-96898726D01*
D95*
X240015418Y-97832316D02*
X240015418Y-97689236D01*
D94*
X256682789Y-108797399D02*
X256715914Y-108764274D01*
D96*
X244073134Y-102626866D02*
X242977119Y-102626866D01*
D95*
X244706002Y-95939871D02*
X244739871Y-95939871D01*
X256473401Y-92694831D02*
X255738009Y-92694831D01*
X255848402Y-108705475D02*
X255318072Y-109235805D01*
X245986680Y-79793139D02*
X245986680Y-79038266D01*
D94*
X244310780Y-108764274D02*
X244551274Y-108523780D01*
D95*
X234351992Y-82851992D02*
X232551992Y-82851992D01*
X256473401Y-92694831D02*
X256481227Y-92702657D01*
D93*
X255380922Y-91489214D02*
X255860653Y-91009483D01*
D95*
X226937364Y-95029131D02*
X226940724Y-95025771D01*
D96*
X232331624Y-94750000D02*
X234240813Y-92840812D01*
D94*
X226825000Y-101150000D02*
X226454999Y-101520001D01*
D95*
X235731372Y-103582486D02*
X235731372Y-103639054D01*
D94*
X257900000Y-91287689D02*
X257661340Y-91287689D01*
X258108586Y-90840443D02*
X257442137Y-91506892D01*
X257343142Y-96463710D02*
X257838118Y-96958685D01*
D95*
X241893628Y-83915020D02*
X241893628Y-83858452D01*
X230647452Y-101219204D02*
X231075766Y-101647518D01*
X248281928Y-78264195D02*
X249978984Y-78264195D01*
D94*
X259898008Y-94351991D02*
X259898008Y-95036994D01*
X238972490Y-101340931D02*
X238972490Y-101689813D01*
X259003077Y-91483911D02*
X258806855Y-91287689D01*
X249752691Y-88494975D02*
X249257716Y-88000000D01*
D96*
X244751992Y-92851992D02*
X247048008Y-92851992D01*
D95*
X255204145Y-90421483D02*
X255193538Y-90432090D01*
D94*
X258806855Y-91287689D02*
X257900000Y-91287689D01*
X227761522Y-85338478D02*
X228638478Y-85338478D01*
X251748726Y-85688971D02*
X251748726Y-85528768D01*
X256971773Y-85040723D02*
X257710002Y-84302494D01*
D95*
X257830002Y-81952399D02*
X257830002Y-82502494D01*
D94*
X249752691Y-88494975D02*
X251333076Y-88494975D01*
X246500000Y-85242284D02*
X246500000Y-88000000D01*
D95*
X238959315Y-108139789D02*
X240055331Y-109235805D01*
D94*
X246628227Y-102459277D02*
X245889998Y-103197506D01*
D96*
X230422437Y-92840813D02*
X232331624Y-94750000D01*
D95*
X247131371Y-100700000D02*
X247131371Y-100850000D01*
D94*
X234608164Y-102459277D02*
X233628227Y-102459277D01*
D95*
X232769998Y-105547601D02*
X232769998Y-104997506D01*
X232757504Y-84842496D02*
X232757504Y-83057504D01*
D94*
X246005025Y-84747309D02*
X246500000Y-85242284D01*
D95*
X237901405Y-87109074D02*
X237901405Y-87102003D01*
X257613320Y-108461734D02*
X257551274Y-108523780D01*
D94*
X233628227Y-102459277D02*
X232889998Y-103197506D01*
D95*
X257613320Y-107706861D02*
X257613320Y-108461734D01*
D94*
X251333076Y-88494975D02*
X251338379Y-88489672D01*
D95*
X257352548Y-81474945D02*
X257830002Y-81952399D01*
X244855002Y-81949905D02*
X244855002Y-82500000D01*
D94*
X244500642Y-82854360D02*
X244855002Y-82500000D01*
X238630178Y-96570856D02*
X238718032Y-96483002D01*
D95*
X245769998Y-105547601D02*
X245769998Y-104997506D01*
D92*
X252432843Y-87882843D02*
X251826014Y-88489672D01*
D95*
X244739871Y-95939871D02*
X244170297Y-96509445D01*
D94*
X241154765Y-98971663D02*
X241764950Y-99581848D01*
D95*
X229317131Y-87038362D02*
X229777746Y-86577746D01*
D96*
X234240813Y-89022436D02*
X232331624Y-90931623D01*
D95*
X257551274Y-108523780D02*
X257917956Y-108523780D01*
D94*
X232101992Y-101798008D02*
X232889998Y-102586014D01*
X238431680Y-86028523D02*
X238773726Y-85686477D01*
X228225000Y-97653822D02*
X227789411Y-98089411D01*
D95*
X238972490Y-101084795D02*
X238715243Y-100827548D01*
X255349460Y-84398347D02*
X255879790Y-84928677D01*
D94*
X257884080Y-88448655D02*
X257389105Y-88943630D01*
D95*
X241154765Y-98971663D02*
X240015418Y-97832316D01*
X233247452Y-106025055D02*
X232769998Y-105547601D01*
X243863100Y-107217015D02*
X244123474Y-107217015D01*
X235250540Y-103101653D02*
X235731372Y-103582486D01*
D94*
X243682789Y-108797399D02*
X243715914Y-108764274D01*
X233942211Y-78700107D02*
X234684674Y-78700107D01*
D95*
X227523726Y-87773726D02*
X227523726Y-87771178D01*
X248250540Y-103101653D02*
X247720210Y-102571323D01*
D92*
X230850000Y-87800000D02*
X230836955Y-87800000D01*
D94*
X239424749Y-97660589D02*
X239125153Y-97360993D01*
D95*
X237189261Y-99263287D02*
X237189261Y-98450000D01*
D94*
X246289220Y-78735726D02*
X246048726Y-78976220D01*
D96*
X234240813Y-92840812D02*
X232331624Y-90931623D01*
D95*
X238665685Y-79357717D02*
X237569669Y-78261701D01*
D92*
X230836955Y-87800000D02*
X230835355Y-87798400D01*
D95*
X257123474Y-107217015D02*
X257613320Y-107706861D01*
D94*
X249257716Y-88000000D02*
X246500000Y-88000000D01*
X243513442Y-85067604D02*
X244281046Y-84300000D01*
X230144897Y-88451446D02*
X230159718Y-88451446D01*
D95*
X246476526Y-80282985D02*
X245986680Y-79793139D01*
X235250540Y-103101653D02*
X234720210Y-102571323D01*
D94*
X243682789Y-108797399D02*
X242940326Y-108797399D01*
X232503006Y-82851992D02*
X232551992Y-82851992D01*
D95*
X258255310Y-100002779D02*
X258453300Y-100002779D01*
X254868628Y-83917514D02*
X254868628Y-83860946D01*
X230647452Y-100552548D02*
X230647452Y-101219204D01*
X241746750Y-91932179D02*
X241746750Y-92472615D01*
X262110228Y-87538298D02*
X262574202Y-87538298D01*
D94*
X254678822Y-99876972D02*
X255073330Y-100271480D01*
X256669624Y-90048484D02*
X256929998Y-90048484D01*
D95*
X244678671Y-97160727D02*
X245498915Y-97160727D01*
D94*
X255991836Y-85040723D02*
X256971773Y-85040723D01*
X247608164Y-102459277D02*
X246628227Y-102459277D01*
X239072121Y-97307959D02*
X239125154Y-97360992D01*
X258108586Y-90589421D02*
X258108586Y-90840443D01*
X253655580Y-89848726D02*
X253655580Y-89841654D01*
D95*
X255738009Y-92694831D02*
X255377385Y-93055455D01*
X228240000Y-104340000D02*
X228200000Y-104300000D01*
D94*
X244198795Y-82854360D02*
X244500642Y-82854360D01*
X256682789Y-108797399D02*
X255940326Y-108797399D01*
D95*
X244170297Y-96509445D02*
X244170297Y-96652353D01*
D94*
X249075297Y-93258749D02*
X248338306Y-93258749D01*
X238972490Y-101689813D02*
X238851274Y-101811029D01*
X256281979Y-87166547D02*
X256281979Y-88081979D01*
D95*
X251959315Y-108139789D02*
X253055331Y-109235805D01*
D92*
X259358398Y-89498709D02*
X259358398Y-89287580D01*
D95*
X250544669Y-78264195D02*
X249978984Y-78264195D01*
D94*
X244281046Y-84300000D02*
X244735002Y-84300000D01*
X226822489Y-94777511D02*
X226575775Y-94530797D01*
X243046211Y-85067604D02*
X243513442Y-85067604D01*
D96*
X230422437Y-92840813D02*
X232331624Y-90931623D01*
D95*
X229244999Y-104340000D02*
X228240000Y-104340000D01*
X251640685Y-79360211D02*
X250544669Y-78264195D01*
D96*
X234240813Y-92840812D02*
X236150001Y-94749999D01*
X247048008Y-92851992D02*
X247351992Y-92548008D01*
X244868629Y-101831371D02*
X244073134Y-102626866D01*
D95*
X257399711Y-103300289D02*
X257300000Y-103400000D01*
D94*
X247659674Y-78702601D02*
X247751598Y-78794525D01*
D95*
X235225000Y-108047506D02*
X233225000Y-108047506D01*
D94*
X228500000Y-89150000D02*
X227948008Y-89701992D01*
D95*
X244613320Y-107706861D02*
X244613320Y-108461734D01*
D94*
X247351992Y-92548008D02*
X247351992Y-92901560D01*
X243470539Y-98812564D02*
X242957887Y-99325216D01*
X238851274Y-101811029D02*
X238851274Y-101971232D01*
D95*
X246247452Y-106025055D02*
X245769998Y-105547601D01*
D94*
X234720210Y-102571323D02*
X234608164Y-102459277D01*
D95*
X245074651Y-95605092D02*
X244478171Y-96201572D01*
X236801274Y-99651274D02*
X237189261Y-99263287D01*
D92*
X259011342Y-90488658D02*
X258700000Y-90800000D01*
D95*
X231466735Y-83927094D02*
X231466735Y-83531113D01*
X255318072Y-109235805D02*
X253621016Y-109235805D01*
D94*
X228638478Y-85338478D02*
X228700000Y-85400000D01*
X242798788Y-99484315D02*
X242798788Y-99678770D01*
D95*
X248731372Y-103582486D02*
X248731372Y-103639054D01*
D94*
X257173795Y-82856854D02*
X257475642Y-82856854D01*
X242904790Y-84926183D02*
X243046211Y-85067604D01*
X233314220Y-78733232D02*
X233073726Y-78973726D01*
D95*
X237901405Y-87102003D02*
X237899701Y-87100299D01*
X240055331Y-109235805D02*
X240621016Y-109235805D01*
D94*
X256473402Y-92694832D02*
X257442138Y-91726095D01*
X246426205Y-104643146D02*
X246124358Y-104643146D01*
X227948008Y-89701992D02*
X227948008Y-90151992D01*
D95*
X227523726Y-87771178D02*
X228042427Y-87252477D01*
D94*
X251972490Y-101340931D02*
X251972490Y-101689813D01*
D95*
X234776598Y-78792031D02*
X235306928Y-78261701D01*
D94*
X246124358Y-104643146D02*
X245769998Y-104997506D01*
X235800000Y-99700000D02*
X236294974Y-100194974D01*
D95*
X244444301Y-96201572D02*
X244706002Y-95939871D01*
D94*
X234684674Y-78700107D02*
X234776598Y-78792031D01*
X242188603Y-99581848D02*
X242445235Y-99325216D01*
X257475642Y-82856854D02*
X257830002Y-82502494D01*
D95*
X255695583Y-94999999D02*
X253150000Y-95000000D01*
D94*
X243715914Y-108764274D02*
X244310780Y-108764274D01*
D95*
X242798788Y-99678770D02*
X242787139Y-99667121D01*
X242318072Y-109235805D02*
X240621016Y-109235805D01*
D94*
X253655580Y-89841654D02*
X253022721Y-89208795D01*
D95*
X228670000Y-100078571D02*
X228787232Y-100195803D01*
X233011680Y-79790645D02*
X233011680Y-79035772D01*
D94*
X257359443Y-96480011D02*
X257359442Y-96482765D01*
D95*
X233501526Y-80280491D02*
X233011680Y-79790645D01*
X244123474Y-107217015D02*
X244613320Y-107706861D01*
X231075766Y-101647518D02*
X231951502Y-101647518D01*
X253055331Y-109235805D02*
X253621016Y-109235805D01*
D94*
X241764950Y-99581848D02*
X242188603Y-99581848D01*
X233124358Y-104643146D02*
X232769998Y-104997506D01*
D95*
X255410454Y-91537464D02*
X255410453Y-91516250D01*
D94*
X238431680Y-86288772D02*
X238431680Y-86028523D01*
D95*
X231951502Y-101647518D02*
X232101992Y-101798008D01*
D94*
X227070749Y-95025771D02*
X226822489Y-94777511D01*
X246884086Y-78735726D02*
X246289220Y-78735726D01*
D96*
X234240813Y-92840812D02*
X236150000Y-90931623D01*
D94*
X226454999Y-101520001D02*
X226454999Y-102275000D01*
D95*
X257399711Y-100858379D02*
X257779045Y-100479045D01*
D96*
X234240813Y-89022436D02*
X236150000Y-90931623D01*
D94*
X257661340Y-91287689D02*
X257442137Y-91506892D01*
D92*
X259075555Y-90488658D02*
X259011342Y-90488658D01*
D95*
X238972490Y-101340931D02*
X238972490Y-101084795D01*
D94*
X251972490Y-101158722D02*
X251715380Y-100901612D01*
D95*
X256863100Y-107217015D02*
X257123474Y-107217015D01*
X232700000Y-84900000D02*
X232757504Y-84842496D01*
D94*
X228551274Y-96898726D02*
X228225000Y-97225000D01*
D96*
X234240813Y-96659189D02*
X236150001Y-94749999D01*
D95*
X255375000Y-79452494D02*
X257375000Y-79452494D01*
D94*
X251327453Y-86310394D02*
X251327453Y-86110244D01*
D95*
X261800000Y-102300000D02*
X261300000Y-101800000D01*
X256508757Y-95813172D02*
X255695583Y-94999999D01*
X244613320Y-108461734D02*
X244551274Y-108523780D01*
D94*
X257442138Y-91726095D02*
X257442138Y-91506892D01*
D95*
X262574202Y-87538298D02*
X262612500Y-87500000D01*
D92*
X260114061Y-90205815D02*
X260832201Y-89487675D01*
D95*
X244670575Y-98849687D02*
X244697659Y-98849687D01*
X232707044Y-78973726D02*
X232644998Y-79035772D01*
X244170297Y-96652353D02*
X244678671Y-97160727D01*
D92*
X260065504Y-90205815D02*
X260114061Y-90205815D01*
D95*
X231246914Y-84146914D02*
X231466735Y-83927094D01*
D94*
X246917211Y-78702601D02*
X247659674Y-78702601D01*
X246917211Y-78702601D02*
X246884086Y-78735726D01*
%TO.N,+BATT*%
X257361611Y-109476221D02*
X257328486Y-109509346D01*
D95*
X233263389Y-77813385D02*
X232803990Y-77353986D01*
X257361611Y-109684121D02*
X257821010Y-110143520D01*
X244361611Y-109476221D02*
X244361611Y-109684121D01*
D94*
X246238389Y-78023779D02*
X246271514Y-77990654D01*
X244328486Y-109509346D02*
X243105191Y-109509346D01*
X233263389Y-78021285D02*
X233296514Y-77988160D01*
D95*
X233263389Y-78021285D02*
X233263389Y-77813385D01*
X246238389Y-77815879D02*
X245778990Y-77356480D01*
X246238389Y-78023779D02*
X246238389Y-77815879D01*
X227013218Y-88263020D02*
X227013218Y-88263218D01*
X244361611Y-109684121D02*
X244821010Y-110143520D01*
D94*
X243105191Y-109509346D02*
X242883758Y-109730779D01*
X247494809Y-77990654D02*
X247716242Y-77769221D01*
X233296514Y-77988160D02*
X234519809Y-77988160D01*
X257328486Y-109509346D02*
X256105191Y-109509346D01*
D95*
X257361611Y-109476221D02*
X257361611Y-109684121D01*
X227013218Y-88263218D02*
X227023726Y-88273726D01*
D94*
X256105191Y-109509346D02*
X255883758Y-109730779D01*
X246271514Y-77990654D02*
X247494809Y-77990654D01*
X244361611Y-109476221D02*
X244328486Y-109509346D01*
X234519809Y-77988160D02*
X234741242Y-77766727D01*
%TO.N,/Motors/ESC4/PHASE_B*%
D95*
X252525000Y-110897506D02*
X251910589Y-111511917D01*
X251910589Y-111733095D02*
X251924732Y-111747238D01*
X246722807Y-106539649D02*
X245906446Y-106539649D01*
X246742427Y-106520029D02*
X246722807Y-106539649D01*
X245906446Y-106539649D02*
X245803229Y-106436432D01*
X251910589Y-111511917D02*
X251910589Y-111733095D01*
%TO.N,/Motors/ESC1/PHASE_A*%
X235893826Y-76020172D02*
X236190811Y-76317157D01*
X238278751Y-85031300D02*
X237857341Y-85031300D01*
X235893826Y-74846376D02*
X235893826Y-76020172D01*
X237857341Y-85031300D02*
X237026041Y-84200000D01*
%TO.N,/Motors/ESC1/PHASE_B*%
X238714411Y-75764411D02*
X238700268Y-75750268D01*
X243902193Y-80957857D02*
X244718554Y-80957857D01*
X244718554Y-80957857D02*
X244821771Y-81061074D01*
X238714411Y-75985589D02*
X238714411Y-75764411D01*
X238100000Y-76600000D02*
X238714411Y-75985589D01*
X243882573Y-80977477D02*
X243902193Y-80957857D01*
%TO.N,/Motors/ESC2/GHA*%
D92*
X249448654Y-75701854D02*
X249349998Y-75603198D01*
X249448654Y-76036809D02*
X249448654Y-75701854D01*
%TO.N,/Motors/ESC4/PHASE_C*%
D95*
X250375000Y-111350450D02*
X250347112Y-111378338D01*
X250375000Y-110558490D02*
X250375000Y-111350450D01*
X251393630Y-109766135D02*
X251167355Y-109766135D01*
X251167355Y-109766135D02*
X250375000Y-110558490D01*
X250347112Y-111378338D02*
X250266280Y-111297506D01*
X250266280Y-111297506D02*
X249125000Y-111297506D01*
X248748726Y-108523780D02*
X248748726Y-108521232D01*
X248748726Y-108521232D02*
X248725000Y-108497506D01*
%TO.N,/Motors/ESC2/PHASE_B*%
X251689411Y-75988083D02*
X251689411Y-75766905D01*
X257693554Y-80960351D02*
X257796771Y-81063568D01*
X256877193Y-80960351D02*
X257693554Y-80960351D01*
X256857573Y-80979971D02*
X256877193Y-80960351D01*
X251075000Y-76602494D02*
X251689411Y-75988083D01*
X251689411Y-75766905D02*
X251675268Y-75752762D01*
%TO.N,Net-(Q14-G)*%
D92*
X254042695Y-75487347D02*
X254042695Y-74708900D01*
X253901274Y-75628768D02*
X254042695Y-75487347D01*
X254042695Y-74708900D02*
X253861291Y-74527496D01*
%TO.N,/Motors/ESC3/PHASE_A*%
D95*
X241731174Y-111477334D02*
X241434189Y-111180349D01*
X241731174Y-112651130D02*
X241731174Y-111477334D01*
X239767659Y-102466206D02*
X240598959Y-103297506D01*
X239346249Y-102466206D02*
X239767659Y-102466206D01*
%TO.N,/Motors/ESC1/PHASE_C*%
X239457645Y-77731371D02*
X240250000Y-76939016D01*
X240277888Y-76119168D02*
X240358720Y-76200000D01*
X239231370Y-77731371D02*
X239457645Y-77731371D01*
X240358720Y-76200000D02*
X241500000Y-76200000D01*
X240250000Y-76147056D02*
X240277888Y-76119168D01*
X240250000Y-76939016D02*
X240250000Y-76147056D01*
X241876274Y-78976274D02*
X241900000Y-79000000D01*
X241876274Y-78973726D02*
X241876274Y-78976274D01*
%TO.N,Net-(Q10-G)*%
D92*
X244000018Y-76700018D02*
X243500000Y-76200000D01*
X242650000Y-76200000D02*
X240950000Y-77900000D01*
X243500000Y-76200000D02*
X242650000Y-76200000D01*
X244475000Y-76700018D02*
X244000018Y-76700018D01*
%TO.N,/Motors/ESC3/PHASE_B*%
D95*
X232906446Y-106539649D02*
X232803229Y-106436432D01*
X233742427Y-106520029D02*
X233722807Y-106539649D01*
X239525000Y-110897506D02*
X238910589Y-111511917D01*
X238910589Y-111511917D02*
X238910589Y-111733095D01*
X233722807Y-106539649D02*
X232906446Y-106539649D01*
X238910589Y-111733095D02*
X238924732Y-111747238D01*
%TO.N,Net-(Q20-G)*%
D92*
X236557305Y-112791100D02*
X236738709Y-112972504D01*
X236557305Y-112012653D02*
X236557305Y-112791100D01*
X236698726Y-111871232D02*
X236557305Y-112012653D01*
%TO.N,/Motors/ESC4/PHASE_A*%
D95*
X252346249Y-102466206D02*
X252767659Y-102466206D01*
X254731174Y-112651130D02*
X254731174Y-111477334D01*
X252767659Y-102466206D02*
X253598959Y-103297506D01*
X254731174Y-111477334D02*
X254434189Y-111180349D01*
%TO.N,Net-(Q26-G)*%
D92*
X249698726Y-111871232D02*
X249557305Y-112012653D01*
X249557305Y-112012653D02*
X249557305Y-112791100D01*
X249557305Y-112791100D02*
X249738709Y-112972504D01*
%TO.N,/Motors/ESC2/GLA*%
X249962420Y-75378280D02*
X249700000Y-75115860D01*
X250350881Y-76036809D02*
X249962420Y-75648348D01*
X249962420Y-75648348D02*
X249962420Y-75378280D01*
X250509314Y-76036809D02*
X250350881Y-76036809D01*
%TO.N,/MCU/FLASH_CS*%
D95*
X242005635Y-93194365D02*
X242313623Y-92886377D01*
X242313623Y-92886377D02*
X242313623Y-92203383D01*
X240781551Y-93194365D02*
X242005635Y-93194365D01*
%TO.N,/MCU/FLASH_Q*%
X242900000Y-92800000D02*
X241996536Y-93703464D01*
X241996536Y-93703464D02*
X240795676Y-93703464D01*
X240795676Y-93703464D02*
X240534063Y-93441853D01*
X242685000Y-91604967D02*
X242900000Y-91819967D01*
X242900000Y-91819967D02*
X242900000Y-92800000D01*
%TO.N,/MCU/FLASH_WP*%
X240024964Y-92724964D02*
X240024964Y-93427728D01*
X239550000Y-92250000D02*
X240024964Y-92724964D01*
X240024964Y-93427728D02*
X240286576Y-93689340D01*
%TO.N,/MCU/FLASH_D*%
X239035014Y-94417678D02*
X239296626Y-94679290D01*
X238582322Y-94417678D02*
X239035014Y-94417678D01*
X237714744Y-95285256D02*
X238582322Y-94417678D01*
X237630000Y-95285256D02*
X237714744Y-95285256D01*
%TO.N,/MCU/FLASH_CLK*%
X239805725Y-94693415D02*
X239805725Y-96728931D01*
X239805725Y-96728931D02*
X239577208Y-96957448D01*
X239544114Y-94431802D02*
X239805725Y-94693415D01*
%TO.N,/MCU/FLASH_HD*%
X240800000Y-95192714D02*
X240800000Y-97200000D01*
X239791601Y-94184315D02*
X240800000Y-95192714D01*
%TO.N,/Motors/ESC3/PHASE_C*%
X237266280Y-111297506D02*
X236125000Y-111297506D01*
X235748726Y-108523780D02*
X235748726Y-108521232D01*
X237347112Y-111378338D02*
X237266280Y-111297506D01*
X237375000Y-111350450D02*
X237347112Y-111378338D01*
X238393630Y-109766135D02*
X238167355Y-109766135D01*
X235748726Y-108521232D02*
X235725000Y-108497506D01*
X237375000Y-110558490D02*
X237375000Y-111350450D01*
X238167355Y-109766135D02*
X237375000Y-110558490D01*
%TO.N,+3V3*%
X258120961Y-92185714D02*
X258470980Y-91835695D01*
X233557279Y-97849489D02*
X233337349Y-97849489D01*
D92*
X254246015Y-91924085D02*
X254591328Y-91578772D01*
D95*
X258400000Y-104200000D02*
X258100000Y-104200000D01*
D92*
X241375000Y-104227506D02*
X241375000Y-104247506D01*
D95*
X245422855Y-101678490D02*
X245010051Y-101265686D01*
X249840868Y-90421630D02*
X248833452Y-89414214D01*
D94*
X244748357Y-97866809D02*
X244847352Y-97866809D01*
D92*
X228184175Y-93205241D02*
X228488769Y-93205241D01*
D95*
X245210002Y-83854106D02*
X244855002Y-83499106D01*
X234841854Y-99134062D02*
X235103465Y-99395675D01*
D94*
X226851992Y-93256088D02*
X226851992Y-91200000D01*
D95*
X251281358Y-99928810D02*
X251281358Y-100376612D01*
X249678004Y-91178368D02*
X249840868Y-91015504D01*
X249073530Y-97527907D02*
X249073530Y-97520836D01*
X238598468Y-87464798D02*
X238598468Y-87468324D01*
X243357339Y-84473634D02*
X242827008Y-83943304D01*
X255626112Y-98589805D02*
X255520046Y-98589805D01*
D94*
X256225914Y-93903984D02*
X256925950Y-93203948D01*
X257795691Y-96011162D02*
X258358845Y-95448007D01*
X245364998Y-103593400D02*
X245769998Y-103998400D01*
X256204700Y-98427478D02*
X256359672Y-98272506D01*
D95*
X243519973Y-83533182D02*
X243109851Y-83943304D01*
X230140310Y-98673726D02*
X230126274Y-98673726D01*
X229185000Y-91002334D02*
X228847452Y-90664786D01*
D94*
X256204700Y-99140109D02*
X256204700Y-98531997D01*
X243152341Y-100262133D02*
X243187697Y-100226778D01*
D95*
X255802008Y-83945798D02*
X255363602Y-83507392D01*
X238629727Y-87158573D02*
X238629727Y-87865678D01*
X247797992Y-103554202D02*
X248236398Y-103992608D01*
D94*
X228375000Y-101150000D02*
X228375000Y-101217648D01*
D95*
X226972769Y-94078249D02*
X226882918Y-93988398D01*
X255678367Y-97245525D02*
X255377385Y-96944544D01*
X258470980Y-91835695D02*
X258524013Y-91835695D01*
X256494973Y-83535676D02*
X256084851Y-83945798D01*
X238629727Y-87499583D02*
X238629727Y-87865678D01*
X244149362Y-98465804D02*
X244149362Y-99491386D01*
D92*
X249225000Y-83272494D02*
X249225000Y-83252494D01*
D95*
X235103465Y-99908561D02*
X235347452Y-100152548D01*
X237406431Y-86614099D02*
X237426051Y-86594479D01*
D94*
X257795926Y-83535676D02*
X257830002Y-83501600D01*
X247855367Y-93948008D02*
X245848008Y-93948008D01*
D95*
X244812922Y-84947452D02*
X245210002Y-84550372D01*
X249073530Y-97520836D02*
X248582090Y-97029396D01*
D94*
X256910342Y-93162988D02*
X256896198Y-93162989D01*
X235609549Y-85794976D02*
X236587309Y-85794976D01*
D95*
X245087867Y-91573726D02*
X245105545Y-91591404D01*
D94*
X244218027Y-98397139D02*
X244486727Y-98128438D01*
X256925950Y-93147380D02*
X257420925Y-92652405D01*
X249437688Y-95530329D02*
X249508399Y-95530329D01*
X234105027Y-103964324D02*
X232804074Y-103964324D01*
X243378616Y-100262133D02*
X243152341Y-100262133D01*
D95*
X243358973Y-100468765D02*
X243152341Y-100262133D01*
X247267661Y-103023872D02*
X247797992Y-103554202D01*
X242388602Y-83504898D02*
X242247181Y-83504898D01*
D94*
X244149362Y-99491387D02*
X243378616Y-100262133D01*
D95*
X249564969Y-98520962D02*
X249564969Y-98019345D01*
D92*
X256225914Y-96096015D02*
X256508757Y-96378858D01*
D94*
X244486727Y-98128438D02*
X244748357Y-97866809D01*
D92*
X257067578Y-96138233D02*
X257067579Y-95806309D01*
D94*
X226842283Y-83544236D02*
X226886519Y-83500000D01*
X226842283Y-84419239D02*
X226842283Y-83544236D01*
X249203680Y-95296320D02*
X249437688Y-95530329D01*
D95*
X249840868Y-91015504D02*
X249840868Y-90421630D01*
X236911457Y-86119124D02*
X237146166Y-86353834D01*
D94*
X233152548Y-85352548D02*
X233648008Y-84857088D01*
X228375000Y-101217648D02*
X228175092Y-101417556D01*
D95*
X251126274Y-99773726D02*
X251281358Y-99928810D01*
D94*
X248403545Y-94496186D02*
X249203680Y-95296320D01*
D92*
X228488769Y-93205241D02*
X228679149Y-93395621D01*
X236250000Y-83270000D02*
X236250000Y-83250000D01*
D95*
X238598468Y-87468324D02*
X238629727Y-87499583D01*
X245848008Y-93948008D02*
X246977296Y-93948008D01*
X227028323Y-94078249D02*
X226972769Y-94078249D01*
D94*
X235209550Y-85394977D02*
X235609549Y-85794976D01*
D95*
X244806130Y-106686685D02*
X245078353Y-106414462D01*
X231645749Y-88018361D02*
X231645749Y-87690653D01*
X238065635Y-86594479D02*
X238629727Y-87158573D01*
X256332770Y-106686685D02*
X257806130Y-106686685D01*
D94*
X257887614Y-92185714D02*
X258120961Y-92185714D01*
D95*
X245210002Y-84550372D02*
X245210002Y-83854106D01*
X242038648Y-102171321D02*
X243358973Y-100850996D01*
D92*
X227947563Y-93441853D02*
X228184175Y-93205241D01*
D96*
X244073134Y-103722882D02*
X245398960Y-102397056D01*
D92*
X248580322Y-94496186D02*
X250383445Y-92693063D01*
D94*
X237752915Y-87865678D02*
X238629727Y-87865678D01*
D92*
X250383445Y-92586997D02*
X250065247Y-92268799D01*
D95*
X244218027Y-98397139D02*
X244149362Y-98465804D01*
D94*
X256494973Y-83535676D02*
X257795926Y-83535676D01*
D92*
X250383445Y-92693063D02*
X250383445Y-92586997D01*
D95*
X234841854Y-99134062D02*
X233557279Y-97849489D01*
D92*
X254375000Y-104227506D02*
X254375000Y-104247506D01*
D95*
X256142655Y-98594043D02*
X255630350Y-98594043D01*
X241384574Y-102171321D02*
X242038648Y-102171321D01*
X239544114Y-91249822D02*
X239893936Y-90900000D01*
D94*
X257420925Y-92652405D02*
X257887614Y-92185714D01*
D95*
X255520046Y-98589805D02*
X255112681Y-98182440D01*
D94*
X243519973Y-83533182D02*
X244820926Y-83533182D01*
D95*
X249564968Y-98019346D02*
X249073530Y-97527907D01*
D94*
X256204700Y-98531997D02*
X256204700Y-98427478D01*
D95*
X242400000Y-95600000D02*
X242337954Y-95537954D01*
D92*
X257067579Y-95806309D02*
X256791600Y-95530329D01*
D95*
X256266746Y-97957647D02*
X255678367Y-97369268D01*
D94*
X248403545Y-94496186D02*
X247855367Y-93948008D01*
D95*
X255363602Y-83507392D02*
X255222181Y-83507392D01*
X249678004Y-91247300D02*
X249678004Y-91178368D01*
X249564968Y-98019346D02*
X249564968Y-98097127D01*
D92*
X228679149Y-93395621D02*
X228679149Y-93700216D01*
D95*
X247515149Y-103554202D02*
X247797992Y-103554202D01*
X245073726Y-91573726D02*
X245087867Y-91573726D01*
X255678367Y-97369268D02*
X255678367Y-97245525D01*
D94*
X254938477Y-88510049D02*
X255838296Y-88510049D01*
D92*
X249508400Y-95530330D02*
X249437690Y-95530330D01*
D94*
X235499187Y-101006436D02*
X235328631Y-101176992D01*
X247105027Y-103964324D02*
X245804074Y-103964324D01*
D95*
X237292616Y-87561622D02*
X237448857Y-87561622D01*
D94*
X235347452Y-100677548D02*
X235347452Y-100152548D01*
X243897205Y-97526115D02*
X244486727Y-98115638D01*
D95*
X256204700Y-98531997D02*
X256266746Y-98469952D01*
X240800000Y-90900000D02*
X240614605Y-90900000D01*
X234292230Y-80810821D02*
X232818870Y-80810821D01*
X242337954Y-94891667D02*
X242681067Y-94548554D01*
D94*
X257792265Y-96007735D02*
X258290666Y-96506137D01*
D95*
X234105027Y-103964324D02*
X234515149Y-103554202D01*
X248236398Y-103992608D02*
X248377819Y-103992608D01*
X242337954Y-95537954D02*
X242337954Y-94891667D01*
X233118467Y-87016205D02*
X233118467Y-86795049D01*
D94*
X244486727Y-98115638D02*
X244486727Y-98128438D01*
D95*
X245010051Y-101265686D02*
X244302944Y-101265686D01*
D94*
X255660228Y-93338298D02*
X256225914Y-93903984D01*
D95*
X248661680Y-100664228D02*
X248661680Y-100151922D01*
X232818870Y-80810821D02*
X232546647Y-81083044D01*
D94*
X244820926Y-83533182D02*
X244855002Y-83499106D01*
D95*
X245246932Y-102407663D02*
X245422855Y-102231739D01*
D92*
X256508757Y-96378858D02*
X256826955Y-96378858D01*
D94*
X236587309Y-85794976D02*
X236911457Y-86119124D01*
X256925950Y-93203948D02*
X256925950Y-93147380D01*
D95*
X258100000Y-104200000D02*
X256300000Y-104200000D01*
X242172595Y-98971663D02*
X242091682Y-98971663D01*
X256266746Y-98469952D02*
X256266746Y-97957647D01*
D94*
X235328631Y-101176992D02*
X234848008Y-101176992D01*
D95*
X248661680Y-100151922D02*
X248801274Y-100012328D01*
X256084851Y-83945798D02*
X255802008Y-83945798D01*
X245422855Y-102231739D02*
X245422855Y-101678490D01*
X234515149Y-103554202D02*
X234797992Y-103554202D01*
X246977296Y-93948008D02*
X249678004Y-91247300D01*
D94*
X255838296Y-88510049D02*
X256445118Y-89116871D01*
X234848008Y-101176992D02*
X235347452Y-100677548D01*
D95*
X242943641Y-98200617D02*
X242172595Y-98971663D01*
D94*
X226851992Y-91200000D02*
X226851992Y-91198008D01*
D95*
X240614605Y-90900000D02*
X240597750Y-90883145D01*
X228847452Y-90664786D02*
X228847452Y-89707644D01*
X248801274Y-100012328D02*
X248801274Y-99284657D01*
X239893936Y-90900000D02*
X240800000Y-90900000D01*
D94*
X237448857Y-87561622D02*
X237752915Y-87865678D01*
X256400000Y-89027639D02*
X256400000Y-89100000D01*
D95*
X236574266Y-88279973D02*
X237292616Y-87561622D01*
X244218027Y-98397139D02*
X244021505Y-98200617D01*
X231907361Y-88279973D02*
X231645749Y-88018361D01*
D94*
X258358845Y-95448007D02*
X258801992Y-95448007D01*
D95*
X248723726Y-100726274D02*
X248661680Y-100664228D01*
X237426051Y-86594479D02*
X238065635Y-86594479D01*
X235236398Y-103992608D02*
X235377819Y-103992608D01*
X243358973Y-100850996D02*
X243358973Y-100468765D01*
X228847452Y-89707644D02*
X228952548Y-89602548D01*
D94*
X226989999Y-105289999D02*
X227000000Y-105300000D01*
X232978159Y-85526937D02*
X232978159Y-86654741D01*
D92*
X227947563Y-93441853D02*
X227311167Y-94078249D01*
X228679149Y-93700216D02*
X228442537Y-93936828D01*
D95*
X259400000Y-103200000D02*
X258400000Y-104200000D01*
D92*
X227311167Y-94078249D02*
X227028323Y-94078249D01*
D94*
X235856887Y-84655714D02*
X235856887Y-84340242D01*
X233152548Y-85352548D02*
X232978159Y-85526937D01*
X257314859Y-95530329D02*
X257792265Y-96007735D01*
X255752152Y-99592657D02*
X256204700Y-99140109D01*
D95*
X233144797Y-87042535D02*
X233118467Y-87016205D01*
X254751597Y-90874031D02*
X254737454Y-90859888D01*
X233392285Y-86795049D02*
X233118467Y-86795049D01*
X235347452Y-100152548D02*
X235842426Y-100647522D01*
D94*
X232978159Y-86654741D02*
X233118467Y-86795049D01*
D92*
X254591328Y-91578772D02*
X254591328Y-91034300D01*
D95*
X245793870Y-80813315D02*
X245521647Y-81085538D01*
X234797992Y-103554202D02*
X235236398Y-103992608D01*
X243109851Y-83943304D02*
X242827008Y-83943304D01*
X247573726Y-97973726D02*
X247526274Y-97973726D01*
D92*
X256826955Y-96378858D02*
X257067578Y-96138233D01*
D94*
X227404270Y-93808366D02*
X226851992Y-93256088D01*
D92*
X248403545Y-94496186D02*
X248580322Y-94496186D01*
D95*
X255112681Y-98182440D02*
X255112681Y-97811209D01*
X235103465Y-99395675D02*
X235103465Y-99908561D01*
D94*
X235506436Y-101006436D02*
X235499187Y-101006436D01*
X235209550Y-85394977D02*
X235209550Y-85303051D01*
X235209550Y-85303051D02*
X235856887Y-84655714D01*
D95*
X237146166Y-86353834D02*
X237406431Y-86614099D01*
X244552548Y-84947452D02*
X244812922Y-84947452D01*
X247267230Y-80813315D02*
X245793870Y-80813315D01*
X247526274Y-97973726D02*
X247434887Y-98065113D01*
X255112681Y-97811209D02*
X254811701Y-97510229D01*
X242827008Y-83943304D02*
X242388602Y-83504898D01*
X231659873Y-97154163D02*
X230140310Y-98673726D01*
X247105027Y-103964324D02*
X247515149Y-103554202D01*
D94*
X257431531Y-87996107D02*
X256936557Y-88491082D01*
X227028323Y-94078249D02*
X227298206Y-93808366D01*
X245804074Y-103964324D02*
X245769998Y-103998400D01*
X226969999Y-105289999D02*
X226989999Y-105289999D01*
X256936557Y-88491082D02*
X256400000Y-89027639D01*
D95*
X257806130Y-106686685D02*
X258078353Y-106414462D01*
D92*
X249437690Y-95530330D02*
X249203680Y-95296320D01*
D94*
X233648008Y-84857088D02*
X233648008Y-83948008D01*
X256925950Y-93147380D02*
X256910342Y-93162988D01*
D95*
X248582090Y-97029396D02*
X248582090Y-97022325D01*
D94*
X256791600Y-95530329D02*
X257314859Y-95530329D01*
D95*
X231645749Y-87690653D02*
X231302548Y-87347452D01*
X248801274Y-99284657D02*
X249564969Y-98520962D01*
X256332339Y-84476128D02*
X255802008Y-83945798D01*
D96*
X245398960Y-102397056D02*
X245434315Y-102397056D01*
D95*
X244021505Y-98200617D02*
X242943641Y-98200617D01*
X255630350Y-98594043D02*
X255626112Y-98589805D01*
D94*
X245364998Y-102466373D02*
X245364998Y-103593400D01*
D95*
X256204700Y-98531997D02*
X256142655Y-98594043D01*
D94*
X232804074Y-103964324D02*
X232769998Y-103998400D01*
D92*
X254591328Y-91034300D02*
X254751597Y-90874031D01*
D95*
X243332770Y-106686685D02*
X244806130Y-106686685D01*
D94*
X245434315Y-102397056D02*
X245364998Y-102466373D01*
%TO.N,Net-(U14-VDD)*%
X249924166Y-89585688D02*
X250242363Y-89585688D01*
D95*
X250242363Y-89585688D02*
X249992427Y-89585688D01*
D94*
X249293072Y-88954594D02*
X249924166Y-89585688D01*
D95*
X249992427Y-89585688D02*
X249681739Y-89275000D01*
%TO.N,VDDO_4*%
D94*
X226460589Y-98060589D02*
X226460589Y-98039411D01*
D95*
X228690025Y-94184315D02*
X226460589Y-96413751D01*
X226460589Y-96413751D02*
X226460589Y-98039411D01*
%TO.N,Net-(Q21-G)*%
D92*
X237173870Y-110087868D02*
X237054134Y-110207605D01*
%TO.N,CSI_DATA0N*%
D93*
X237800000Y-97800000D02*
X237750000Y-97800000D01*
X237299050Y-97207196D02*
X237299050Y-97136486D01*
X237299050Y-97136486D02*
X237069240Y-96906676D01*
X237625000Y-97533146D02*
X237299050Y-97207196D01*
X237750000Y-97800000D02*
X237625000Y-97675000D01*
X237625000Y-97675000D02*
X237625000Y-97533146D01*
%TO.N,CSI_DATA0P*%
X237051563Y-97383973D02*
X237122273Y-97383973D01*
X237375000Y-97636700D02*
X237375000Y-97675000D01*
X237375000Y-97675000D02*
X237200000Y-97850000D01*
X236821753Y-97154163D02*
X237051563Y-97383973D01*
X237122273Y-97383973D02*
X237375000Y-97636700D01*
%TO.N,CSI_DATA1N*%
X236079291Y-97896625D02*
X236446948Y-98264282D01*
X236446948Y-98264282D02*
X236618726Y-98264282D01*
%TO.N,CSI_DATA1P*%
X235831803Y-98144113D02*
X235535496Y-97847806D01*
X235535496Y-97847806D02*
X235146586Y-97847806D01*
%TO.N,CSI_CLKN*%
X235997918Y-97249568D02*
X235750431Y-97249568D01*
X236326778Y-97649138D02*
X236096968Y-97419328D01*
X236096968Y-97419328D02*
X236096968Y-97348618D01*
X236096968Y-97348618D02*
X235997918Y-97249568D01*
%TO.N,CSI_CLKP*%
X236574265Y-97401651D02*
X236344455Y-97171841D01*
X236344455Y-97171841D02*
X236273745Y-97171841D01*
X236273745Y-97171841D02*
X236174695Y-97072791D01*
X236174695Y-97072791D02*
X236174695Y-96825304D01*
%TO.N,CAM_EN*%
D95*
X228588033Y-92880241D02*
X228623389Y-92880241D01*
X228623389Y-92880241D02*
X229483184Y-93740036D01*
X227947563Y-92239771D02*
X228588033Y-92880241D01*
X229483184Y-93740036D02*
X229483184Y-93916816D01*
%TO.N,I2C_SCL*%
D92*
X242500000Y-96713981D02*
X242658856Y-96555125D01*
D95*
X236953882Y-87405381D02*
X236953882Y-87066648D01*
D92*
X243984748Y-100700000D02*
X243834748Y-100850000D01*
X228666619Y-83530094D02*
X228636525Y-83500000D01*
X241910406Y-97382912D02*
X242500000Y-97972506D01*
D95*
X236326778Y-88032485D02*
X236953882Y-87405381D01*
D92*
X228666619Y-84405097D02*
X228666619Y-83530094D01*
X244868629Y-100700000D02*
X243984748Y-100700000D01*
X243300000Y-93293224D02*
X241910406Y-94682818D01*
X242500000Y-97972506D02*
X242500000Y-96713981D01*
D95*
X240770451Y-101000000D02*
X240300000Y-101000000D01*
D92*
X242034188Y-89234188D02*
X242034188Y-89534188D01*
X243300000Y-90800000D02*
X243300000Y-93293224D01*
X242034188Y-89534188D02*
X243300000Y-90800000D01*
X241910406Y-94682818D02*
X241910406Y-97382912D01*
D95*
X241154765Y-100615686D02*
X240770451Y-101000000D01*
%TO.N,I2C_SDA*%
D92*
X245399347Y-94662950D02*
X244468227Y-94662950D01*
X227761522Y-83500000D02*
X227761522Y-84369842D01*
X245434315Y-100134315D02*
X245434315Y-99265685D01*
X244468227Y-94662950D02*
X243719516Y-95411661D01*
X243600000Y-90190882D02*
X243600000Y-95374949D01*
X245434315Y-100384315D02*
X245900000Y-100850000D01*
D95*
X236439288Y-86591292D02*
X236458908Y-86571673D01*
D92*
X246700000Y-95963603D02*
X245399347Y-94662950D01*
D95*
X240801212Y-100262133D02*
X240287867Y-100262133D01*
X236079292Y-87784999D02*
X236439288Y-87425002D01*
X240287867Y-100262133D02*
X239700000Y-100850000D01*
D92*
X243600000Y-95374949D02*
X243719516Y-95494465D01*
X246700000Y-98000000D02*
X246700000Y-95963603D01*
X245434315Y-100134315D02*
X245434315Y-100384315D01*
X227761522Y-84369842D02*
X227791631Y-84399951D01*
X245434315Y-99265685D02*
X246700000Y-98000000D01*
D95*
X236439288Y-87425002D02*
X236439288Y-86591292D01*
D92*
X243719516Y-95411661D02*
X243719516Y-95494465D01*
X242634118Y-89225000D02*
X243600000Y-90190882D01*
%TO.N,/Motors/ESC2/PHASE_C*%
D95*
X253252888Y-76121662D02*
X253333720Y-76202494D01*
X254851274Y-78978768D02*
X254875000Y-79002494D01*
X253225000Y-76149550D02*
X253252888Y-76121662D01*
X252432645Y-77733865D02*
X253225000Y-76941510D01*
X254851274Y-78976220D02*
X254851274Y-78978768D01*
X253333720Y-76202494D02*
X254475000Y-76202494D01*
X253225000Y-76941510D02*
X253225000Y-76149550D01*
X252206370Y-77733865D02*
X252432645Y-77733865D01*
%TO.N,Net-(Q13-G)*%
D92*
X252122452Y-74902494D02*
X252048726Y-74976220D01*
X252886290Y-74902494D02*
X252122452Y-74902494D01*
X253261289Y-74527495D02*
X252886290Y-74902494D01*
%TO.N,/Motors/ESC2/PHASE_A*%
D95*
X248868826Y-76022666D02*
X249165811Y-76319651D01*
X250832341Y-85033794D02*
X250001041Y-84202494D01*
X251253751Y-85033794D02*
X250832341Y-85033794D01*
X248868826Y-74848870D02*
X248868826Y-76022666D01*
%TO.N,Net-(Q9-G)*%
D92*
X240451130Y-77409638D02*
X240570866Y-77289901D01*
%TO.N,/MCU/USB_D+*%
D93*
X233887260Y-99381550D02*
X233887260Y-100224519D01*
X233887260Y-100224519D02*
X233912741Y-100250000D01*
%TO.N,/MCU/USB_D-*%
X234594366Y-99381550D02*
X234594366Y-100180634D01*
X234594366Y-100180634D02*
X234525000Y-100250000D01*
%TO.N,Net-(Q22-G)*%
D92*
X234975000Y-111297506D02*
X236675000Y-109597506D01*
X234125000Y-111297506D02*
X234975000Y-111297506D01*
X233624982Y-110797488D02*
X234125000Y-111297506D01*
X233150000Y-110797488D02*
X233624982Y-110797488D01*
%TO.N,Net-(Q25-G)*%
X251477548Y-112597506D02*
X251551274Y-112523780D01*
X250713710Y-112597506D02*
X251477548Y-112597506D01*
X250338711Y-112972505D02*
X250713710Y-112597506D01*
%TO.N,/Motors/ESC3/GLA*%
X240637580Y-112121720D02*
X240900000Y-112384140D01*
X240249119Y-111463191D02*
X240637580Y-111851652D01*
X240637580Y-111851652D02*
X240637580Y-112121720D01*
X240090686Y-111463191D02*
X240249119Y-111463191D01*
%TO.N,/Motors/ESC4/GLA*%
X253637580Y-112121720D02*
X253900000Y-112384140D01*
X253637580Y-111851652D02*
X253637580Y-112121720D01*
X253090686Y-111463191D02*
X253249119Y-111463191D01*
X253249119Y-111463191D02*
X253637580Y-111851652D01*
%TO.N,Net-(Q19-G)*%
X237713710Y-112597506D02*
X238477548Y-112597506D01*
X238477548Y-112597506D02*
X238551274Y-112523780D01*
X237338711Y-112972505D02*
X237713710Y-112597506D01*
%TO.N,Net-(Q8-G)*%
X240926274Y-75626274D02*
X241067695Y-75484853D01*
X241067695Y-75484853D02*
X241067695Y-74706406D01*
X241067695Y-74706406D02*
X240886291Y-74525002D01*
%TO.N,Net-(Q7-G)*%
X240286289Y-74525001D02*
X239911290Y-74900000D01*
X239911290Y-74900000D02*
X239147452Y-74900000D01*
X239147452Y-74900000D02*
X239073726Y-74973726D01*
%TO.N,/Motors/ESC3/GHA*%
X241151346Y-111798146D02*
X241250002Y-111896802D01*
X241151346Y-111463191D02*
X241151346Y-111798146D01*
%TO.N,/Motors/ESC1/GHA*%
X236473654Y-75699360D02*
X236374998Y-75600704D01*
X236473654Y-76034315D02*
X236473654Y-75699360D01*
%TO.N,Net-(Q27-G)*%
X250173870Y-110087868D02*
X250054134Y-110207605D01*
%TO.N,Net-(Q28-G)*%
X247125000Y-111297506D02*
X247975000Y-111297506D01*
X246150000Y-110797488D02*
X246624982Y-110797488D01*
X247975000Y-111297506D02*
X249675000Y-109597506D01*
X246624982Y-110797488D02*
X247125000Y-111297506D01*
%TO.N,/Motors/ESC1/GLA*%
X236987420Y-75375786D02*
X236725000Y-75113366D01*
X236987420Y-75645854D02*
X236987420Y-75375786D01*
X237375881Y-76034315D02*
X236987420Y-75645854D01*
X237534314Y-76034315D02*
X237375881Y-76034315D01*
%TO.N,/Motors/ESC4/GHA*%
X254151346Y-111798146D02*
X254250002Y-111896802D01*
X254151346Y-111463191D02*
X254151346Y-111798146D01*
%TO.N,Net-(Q16-G)*%
X256475000Y-76202494D02*
X255625000Y-76202494D01*
X257450000Y-76702512D02*
X256975018Y-76702512D01*
X255625000Y-76202494D02*
X253925000Y-77902494D01*
X256975018Y-76702512D02*
X256475000Y-76202494D01*
%TO.N,Net-(Q15-G)*%
X253426130Y-77412132D02*
X253545866Y-77292395D01*
%TO.N,BAT_ISENSE*%
D95*
X239791601Y-91497309D02*
X239529989Y-91758921D01*
X238991776Y-91758921D02*
X238118250Y-90885395D01*
X239529989Y-91758921D02*
X238991776Y-91758921D01*
%TO.N,Net-(U20-PA0)*%
X241186520Y-84565558D02*
X241694688Y-85073726D01*
X241694688Y-85073726D02*
X241926274Y-85073726D01*
%TO.N,DSHOT_1*%
X235139416Y-86250000D02*
X235533131Y-86250000D01*
X235533131Y-86250000D02*
X235603066Y-86319935D01*
X241473726Y-85693143D02*
X241895663Y-86115080D01*
X241473726Y-85526274D02*
X241473726Y-85693143D01*
X234841854Y-86547562D02*
X235139416Y-86250000D01*
%TO.N,Net-(U5-P2)*%
D92*
X257892911Y-89900000D02*
X258486897Y-89900000D01*
X256837562Y-90944742D02*
X256848169Y-90944742D01*
X257656038Y-90136873D02*
X257892911Y-89900000D01*
X256848169Y-90944742D02*
X257656038Y-90136873D01*
X258486897Y-89900000D02*
X258722002Y-90135105D01*
%TO.N,/Coprocessor/ANT_2G*%
X255094544Y-92772614D02*
X256385014Y-91482144D01*
X256385014Y-91482144D02*
X256385014Y-91397290D01*
%TO.N,Net-(U4-MTDI{slash}GPIO3{slash}ADC1_CH2)*%
X258550000Y-102750000D02*
X258536650Y-102750000D01*
X255414018Y-101600000D02*
X255163057Y-101349039D01*
X253680330Y-98641600D02*
X253113053Y-99208877D01*
X254366833Y-101600000D02*
X255500000Y-101600000D01*
X258536650Y-102750000D02*
X258501650Y-102715000D01*
X255500000Y-101600000D02*
X255414018Y-101600000D01*
X253113053Y-100346220D02*
X254366833Y-101600000D01*
X253113053Y-99208877D02*
X253113053Y-100346220D01*
%TO.N,/Coprocessor/ANT_5G*%
X256830330Y-94469670D02*
X258100000Y-93200000D01*
X256791600Y-94469670D02*
X256830330Y-94469670D01*
%TO.N,Net-(U5-P1)*%
X258587651Y-92804433D02*
X259455625Y-91936459D01*
X259700000Y-91113103D02*
X259429108Y-90842211D01*
X259455625Y-91936459D02*
X259700000Y-91692084D01*
X259700000Y-91692084D02*
X259700000Y-91113103D01*
X258587651Y-92843324D02*
X258587651Y-92804433D01*
%TO.N,Net-(U1-XTAL_N)*%
D95*
X230745486Y-85638291D02*
X229755536Y-85638291D01*
X231305470Y-86198277D02*
X230745486Y-85638291D01*
X231310588Y-86198277D02*
X231305470Y-86198277D01*
X229755536Y-85638291D02*
X229034288Y-86359539D01*
X232649822Y-87537511D02*
X231310588Y-86198277D01*
X229034288Y-86359539D02*
X228638308Y-86359539D01*
%TO.N,Net-(D15-A)*%
X254204343Y-86328768D02*
X254198726Y-86328768D01*
X254198726Y-86328768D02*
X253700000Y-86827494D01*
%TO.N,Net-(U22-VDSLVL)*%
X242282717Y-108139789D02*
X242752943Y-107669563D01*
X242752943Y-107669563D02*
X243410552Y-107669563D01*
X243410552Y-107669563D02*
X242880222Y-107139233D01*
%TO.N,Net-(U14-VREG)*%
D94*
X248873726Y-90398726D02*
X248448008Y-90824444D01*
D95*
X248373833Y-89873833D02*
X248373833Y-89898833D01*
X248373833Y-89898833D02*
X248873726Y-90398726D01*
D94*
X248448008Y-90824444D02*
X248448008Y-91451992D01*
%TO.N,/Motors/ESC3/BSTA*%
D95*
X242081174Y-111261648D02*
X242081174Y-111643486D01*
X242081174Y-111643486D02*
X242409996Y-111972308D01*
X241717032Y-110897506D02*
X242081174Y-111261648D01*
%TO.N,Net-(JP2-C)*%
D92*
X259139999Y-102500000D02*
X259400000Y-102500000D01*
X258550000Y-102110000D02*
X258749999Y-102110000D01*
X258749999Y-102110000D02*
X259139999Y-102500000D01*
%TO.N,/Motors/ESC1/SWDIO*%
X239586764Y-80137374D02*
X239586764Y-79713236D01*
X242600000Y-77000000D02*
X243200000Y-77000000D01*
X240250000Y-79350000D02*
X242600000Y-77000000D01*
X239950000Y-79350000D02*
X240250000Y-79350000D01*
X239871302Y-80421912D02*
X239586764Y-80137374D01*
X239586764Y-79713236D02*
X239950000Y-79350000D01*
%TO.N,/Motors/ESC2/VSENSE_B*%
D95*
X255575734Y-81838620D02*
X255981835Y-81432519D01*
X256897451Y-81927493D02*
X255898726Y-80928768D01*
X255981835Y-81432519D02*
X256405025Y-81432519D01*
%TO.N,Net-(U30-PA0)*%
X249438480Y-102931948D02*
X248930312Y-102423780D01*
X248930312Y-102423780D02*
X248698726Y-102423780D01*
%TO.N,DSHOT_4*%
D92*
X249151274Y-101971232D02*
X249151274Y-101797292D01*
D95*
X249151274Y-101755623D02*
X249151274Y-101971232D01*
D92*
X248234132Y-100065868D02*
X248476274Y-99823726D01*
D95*
X248782955Y-101387304D02*
X249151274Y-101755623D01*
X229056820Y-91864104D02*
X229232381Y-91864104D01*
D92*
X247601042Y-97400000D02*
X247200000Y-97400000D01*
X248476274Y-99123726D02*
X248600000Y-99000000D01*
X248600000Y-99000000D02*
X248600000Y-98398958D01*
X248476274Y-99823726D02*
X248476274Y-99123726D01*
X248600000Y-98398958D02*
X247601042Y-97400000D01*
X249151274Y-101797292D02*
X248234132Y-100880150D01*
X248234132Y-100880150D02*
X248234132Y-100065868D01*
D95*
X228690025Y-91497309D02*
X229056820Y-91864104D01*
X248725000Y-101387304D02*
X248782955Y-101387304D01*
%TO.N,/Motors/ESC3/GVDD*%
D94*
X242481174Y-111180815D02*
X242481174Y-111095964D01*
D92*
X241999874Y-110614663D02*
X241999874Y-110657089D01*
D94*
X244625001Y-112147506D02*
X244175001Y-111697506D01*
X243387670Y-111697506D02*
X243386312Y-111698864D01*
X242335229Y-110950019D02*
X241999874Y-110614663D01*
X243025934Y-111697506D02*
X242997865Y-111697506D01*
X244175001Y-111697506D02*
X243387670Y-111697506D01*
X243386312Y-111698864D02*
X243027292Y-111698864D01*
X242481174Y-111095964D02*
X242335229Y-110950019D01*
X243027292Y-111698864D02*
X243025934Y-111697506D01*
X242997865Y-111697506D02*
X242481174Y-111180815D01*
%TO.N,Net-(U19-DT)*%
D95*
X247424388Y-79315843D02*
X246614199Y-79315843D01*
X247471268Y-79362723D02*
X247424388Y-79315843D01*
X248034440Y-79077368D02*
X247749085Y-79362723D01*
X247749085Y-79362723D02*
X247471268Y-79362723D01*
X246614199Y-79315843D02*
X246501274Y-79428768D01*
%TO.N,Net-(U19-VDSLVL)*%
X247189448Y-79830437D02*
X247719778Y-80360767D01*
X247847057Y-79830437D02*
X247189448Y-79830437D01*
X248317283Y-79360211D02*
X247847057Y-79830437D01*
%TO.N,Net-(U19-BSTC)*%
X251923528Y-77451023D02*
X252503355Y-76871195D01*
X252503355Y-76871195D02*
X252644777Y-76871195D01*
%TO.N,Net-(U16-VDSLVL)*%
X234214448Y-79827943D02*
X234744778Y-80358273D01*
X235342283Y-79357717D02*
X234872057Y-79827943D01*
X234872057Y-79827943D02*
X234214448Y-79827943D01*
%TO.N,Net-(U12-~{CS})*%
X242805096Y-95147452D02*
X242726274Y-95226274D01*
X243365963Y-95848018D02*
X242852548Y-95334603D01*
X242852548Y-95147452D02*
X242805096Y-95147452D01*
X242852548Y-95334603D02*
X242852548Y-95147452D01*
%TO.N,/Motors/ESC3/SWDIO*%
D92*
X237375000Y-108147506D02*
X235025000Y-110497506D01*
X237675000Y-108147506D02*
X237375000Y-108147506D01*
X235025000Y-110497506D02*
X234425000Y-110497506D01*
X237753698Y-107075594D02*
X238038236Y-107360132D01*
X238038236Y-107360132D02*
X238038236Y-107784270D01*
X238038236Y-107784270D02*
X237675000Y-108147506D01*
%TO.N,/Motors/ESC4/GVDD*%
D94*
X255997865Y-111697506D02*
X255481174Y-111180815D01*
X255335229Y-110950019D02*
X254999874Y-110614663D01*
X256025934Y-111697506D02*
X255997865Y-111697506D01*
X256387670Y-111697506D02*
X256386312Y-111698864D01*
X255481174Y-111095964D02*
X255335229Y-110950019D01*
X255481174Y-111180815D02*
X255481174Y-111095964D01*
X256386312Y-111698864D02*
X256027292Y-111698864D01*
X257625001Y-112147506D02*
X257175001Y-111697506D01*
D92*
X254999874Y-110614663D02*
X254999874Y-110657089D01*
D94*
X256027292Y-111698864D02*
X256025934Y-111697506D01*
X257175001Y-111697506D02*
X256387670Y-111697506D01*
%TO.N,Net-(U19-CPL)*%
D95*
X248034440Y-77451022D02*
X247699086Y-77115667D01*
X247699086Y-77115667D02*
X246761827Y-77115667D01*
X246761827Y-77115667D02*
X246735589Y-77141905D01*
%TO.N,Net-(U19-CPH)*%
X248317283Y-77168179D02*
X247612187Y-76463083D01*
X247612187Y-76463083D02*
X247414411Y-76463083D01*
%TO.N,Net-(U1-CHIP_PU)*%
X234757002Y-84942429D02*
X234757002Y-84421820D01*
X234431732Y-84942430D02*
X234757001Y-84942430D01*
X233378159Y-85996000D02*
X234431732Y-84942430D01*
X234848925Y-84942430D02*
X234757001Y-84942430D01*
X234757002Y-84421820D02*
X235339411Y-83839411D01*
X233378159Y-86285949D02*
X233378159Y-85996000D01*
X233639772Y-86547562D02*
X233378159Y-86285949D01*
%TO.N,/Motors/ESC1/VSENSE_B*%
X242600734Y-81836126D02*
X243006835Y-81430025D01*
X243922451Y-81924999D02*
X242923726Y-80926274D01*
X243006835Y-81430025D02*
X243430025Y-81430025D01*
%TO.N,CP_SDIO_D3*%
X249688712Y-96905654D02*
X249526078Y-97068288D01*
D92*
X229199657Y-100550773D02*
X229199657Y-100861790D01*
X231618236Y-97690776D02*
X231618236Y-98132194D01*
X231618236Y-98132194D02*
X229199657Y-100550773D01*
D95*
X249688712Y-96481390D02*
X249688712Y-96905654D01*
X250074086Y-96096016D02*
X249688712Y-96481390D01*
D92*
X231907361Y-97401651D02*
X231618236Y-97690776D01*
%TO.N,Net-(U16-DT)*%
D95*
X233639199Y-79313349D02*
X233526274Y-79426274D01*
X234774085Y-79360229D02*
X234496268Y-79360229D01*
X234496268Y-79360229D02*
X234449388Y-79313349D01*
X235059440Y-79074874D02*
X234774085Y-79360229D01*
X234449388Y-79313349D02*
X233639199Y-79313349D01*
%TO.N,/Motors/ESC3/VSENSE_C*%
X235942841Y-107571232D02*
X235701274Y-107571232D01*
X236442015Y-107072058D02*
X235942841Y-107571232D01*
X236201274Y-108071232D02*
X236198726Y-108071232D01*
X236198726Y-108071232D02*
X235200000Y-107072506D01*
%TO.N,Net-(J5-In)*%
D92*
X261470228Y-87538298D02*
X261470228Y-88128298D01*
X261470228Y-86173298D02*
X261460228Y-86163298D01*
X261470228Y-88128298D02*
X261186502Y-88412024D01*
X261470228Y-87538298D02*
X261470228Y-86173298D01*
%TO.N,/Motors/ESC4/VSENSE_C*%
D95*
X249442015Y-107072058D02*
X248942841Y-107571232D01*
X249198726Y-108071232D02*
X248200000Y-107072506D01*
X248942841Y-107571232D02*
X248701274Y-107571232D01*
X249201274Y-108071232D02*
X249198726Y-108071232D01*
%TO.N,/Motors/ESC4/VSENSE_REF*%
X249725000Y-103543426D02*
X250150145Y-103118281D01*
X247248726Y-107023780D02*
X247175000Y-107097506D01*
X250364790Y-101811267D02*
X250364790Y-102613750D01*
D93*
X250364790Y-102825882D02*
X250200145Y-102990527D01*
D95*
X247175000Y-107097506D02*
X246016869Y-107097506D01*
X249725000Y-104342486D02*
X249725000Y-103543426D01*
X251346249Y-101466206D02*
X251284203Y-101404160D01*
X246016869Y-107097506D02*
X245939999Y-107020636D01*
D93*
X250364790Y-102613750D02*
X250364790Y-102825882D01*
D95*
X250771897Y-101404160D02*
X250364790Y-101811267D01*
D93*
X250200145Y-103068281D02*
X250150145Y-103118281D01*
D95*
X249269998Y-104758193D02*
X249309293Y-104758193D01*
X247747452Y-107522506D02*
X247248726Y-107023780D01*
X247747452Y-107525054D02*
X247747452Y-107522506D01*
X251284203Y-101404160D02*
X250771897Y-101404160D01*
D93*
X250200145Y-102990527D02*
X250200145Y-103068281D01*
D95*
X249309293Y-104758193D02*
X249725000Y-104342486D01*
%TO.N,UART_TX*%
D92*
X229927462Y-95421751D02*
X229389074Y-95960140D01*
X229389074Y-95960140D02*
X229247652Y-95960140D01*
%TO.N,Net-(R9-Pad2)*%
X229600000Y-83500000D02*
X230193969Y-83500000D01*
X230193969Y-83500000D02*
X230674802Y-83019167D01*
%TO.N,/Motors/ESC1/GVDD*%
D94*
X235289771Y-76547487D02*
X235625126Y-76882843D01*
X232999999Y-75350000D02*
X233449999Y-75800000D01*
X234627135Y-75800000D02*
X235143826Y-76316691D01*
X235143826Y-76401542D02*
X235289771Y-76547487D01*
X233449999Y-75800000D02*
X234237330Y-75800000D01*
D92*
X235625126Y-76882843D02*
X235625126Y-76840417D01*
D94*
X234237330Y-75800000D02*
X234238688Y-75798642D01*
X234238688Y-75798642D02*
X234597708Y-75798642D01*
X234597708Y-75798642D02*
X234599066Y-75800000D01*
X234599066Y-75800000D02*
X234627135Y-75800000D01*
X235143826Y-76316691D02*
X235143826Y-76401542D01*
%TO.N,CP_SDIO_D2*%
D92*
X229125000Y-99038603D02*
X229125000Y-99695213D01*
X231412386Y-96906676D02*
X230134930Y-98184132D01*
X229125000Y-99695213D02*
X229271911Y-99842124D01*
X229979471Y-98184132D02*
X229125000Y-99038603D01*
X230134930Y-98184132D02*
X229979471Y-98184132D01*
D95*
X249791243Y-95813172D02*
X249034638Y-96569777D01*
%TO.N,/Motors/ESC1/GHC*%
D92*
X239231370Y-78792031D02*
X239231370Y-78629398D01*
X239231370Y-78629398D02*
X239998582Y-77862186D01*
%TO.N,/Motors/ESC4/VSENSE_B*%
D95*
X247618165Y-106067481D02*
X247194975Y-106067481D01*
X246702549Y-105572507D02*
X247701274Y-106571232D01*
X248024266Y-105661380D02*
X247618165Y-106067481D01*
%TO.N,/Motors/ESC2/NRST*%
D92*
X257225000Y-77602494D02*
X257619998Y-77602494D01*
X254267587Y-83436679D02*
X254363386Y-83340880D01*
X257619998Y-77602494D02*
X257875000Y-77347492D01*
X254267587Y-83967011D02*
X254267587Y-83436679D01*
X254515074Y-84214498D02*
X254267587Y-83967011D01*
%TO.N,Net-(U23-PA0)*%
D95*
X254161520Y-84568052D02*
X254669688Y-85076220D01*
X254669688Y-85076220D02*
X254901274Y-85076220D01*
%TO.N,Net-(U23-PA1)*%
X253772612Y-85855403D02*
X253751795Y-85876220D01*
X253772612Y-84886250D02*
X253772612Y-85855403D01*
%TO.N,/Motors/ESC2/VSENSE_REF*%
D93*
X253399855Y-84509473D02*
X253399855Y-84431719D01*
D95*
X255852548Y-79974946D02*
X255852548Y-79977494D01*
X253875000Y-83956574D02*
X253449855Y-84381719D01*
X255852548Y-79977494D02*
X256351274Y-80476220D01*
X253235210Y-85688733D02*
X253235210Y-84886250D01*
X252253751Y-86033794D02*
X252315797Y-86095840D01*
X252828103Y-86095840D02*
X253235210Y-85688733D01*
X256351274Y-80476220D02*
X256425000Y-80402494D01*
X252315797Y-86095840D02*
X252828103Y-86095840D01*
X254330002Y-82741807D02*
X254290707Y-82741807D01*
X254290707Y-82741807D02*
X253875000Y-83157514D01*
D93*
X253235210Y-84674118D02*
X253399855Y-84509473D01*
D95*
X253875000Y-83157514D02*
X253875000Y-83956574D01*
D93*
X253235210Y-84886250D02*
X253235210Y-84674118D01*
D95*
X256425000Y-80402494D02*
X257583131Y-80402494D01*
X257583131Y-80402494D02*
X257660001Y-80479364D01*
D93*
X253399855Y-84431719D02*
X253449855Y-84381719D01*
%TO.N,/Motors/ESC2/VSENSE_A*%
D95*
X252846302Y-84568052D02*
X252709442Y-84568052D01*
X252706299Y-85581246D02*
X251706299Y-84581246D01*
X252709442Y-84568052D02*
X252201274Y-85076220D01*
%TO.N,/Motors/ESC2/NSLEEP*%
D92*
X251911764Y-84088376D02*
X252139195Y-83860945D01*
X248209372Y-80033807D02*
X248209372Y-82949256D01*
X249012610Y-83752494D02*
X250213480Y-83752494D01*
X248209372Y-82949256D02*
X249012610Y-83752494D01*
X250213480Y-83752494D02*
X250549362Y-84088376D01*
X248600126Y-79643053D02*
X248209372Y-80033807D01*
X250549362Y-84088376D02*
X251911764Y-84088376D01*
%TO.N,/Motors/ESC2/NFAULT*%
X248882968Y-79925896D02*
X248547362Y-80261502D01*
X251504658Y-83788376D02*
X251785642Y-83507392D01*
X249225000Y-82632494D02*
X249517744Y-82632494D01*
X250673626Y-83788376D02*
X251504658Y-83788376D01*
X248547362Y-81954856D02*
X249225000Y-82632494D01*
X248547362Y-80261502D02*
X248547362Y-81954856D01*
X249517744Y-82632494D02*
X250673626Y-83788376D01*
%TO.N,/Motors/ESC2/A_LOW*%
D95*
X251122551Y-83463376D02*
X250808246Y-83463376D01*
X250808246Y-83463376D02*
X248872362Y-81527492D01*
X248872362Y-81527492D02*
X248872362Y-80502188D01*
X251432089Y-83153839D02*
X251122551Y-83463376D01*
X248872362Y-80502188D02*
X249165811Y-80208739D01*
%TO.N,/Motors/ESC2/B_LOW*%
X251113890Y-82764930D02*
X250816708Y-82764930D01*
X250816708Y-82764930D02*
X249448654Y-81396876D01*
X249448654Y-81396876D02*
X249448654Y-80491581D01*
%TO.N,/Motors/ESC2/C_LOW*%
X250509314Y-81622952D02*
X250509314Y-80491581D01*
X251113890Y-82227528D02*
X250509314Y-81622952D01*
%TO.N,/Motors/ESC2/A_HIGH*%
X250792157Y-80208739D02*
X251122372Y-80538954D01*
X251122372Y-80538954D02*
X251122372Y-81528903D01*
X251122372Y-81528903D02*
X251432089Y-81838620D01*
%TO.N,/Motors/ESC2/B_HIGH*%
X251075000Y-79925896D02*
X252139195Y-80990092D01*
X252139195Y-80990092D02*
X252139195Y-81131513D01*
%TO.N,/Motors/ESC2/C_HIGH*%
X252492749Y-80777960D02*
X251357842Y-79643054D01*
%TO.N,/Motors/ESC2/SWDIO*%
D92*
X255575000Y-77002494D02*
X256175000Y-77002494D01*
X252561764Y-80139868D02*
X252561764Y-79715730D01*
X252561764Y-79715730D02*
X252925000Y-79352494D01*
X253225000Y-79352494D02*
X255575000Y-77002494D01*
X252846302Y-80424406D02*
X252561764Y-80139868D01*
X252925000Y-79352494D02*
X253225000Y-79352494D01*
%TO.N,/Motors/ESC2/SWCLK*%
X253235210Y-79809026D02*
X254841742Y-78202494D01*
X253235210Y-80106208D02*
X253235210Y-79809026D01*
X254841742Y-78202494D02*
X256175000Y-78202494D01*
%TO.N,/Motors/ESC2/VSENSE_C*%
D95*
X254398726Y-79428768D02*
X254401274Y-79428768D01*
X254657159Y-79928768D02*
X254898726Y-79928768D01*
X254157985Y-80427942D02*
X254657159Y-79928768D01*
X254401274Y-79428768D02*
X255400000Y-80427494D01*
%TO.N,Net-(U25-VDSLVL)*%
X255752943Y-107669563D02*
X256410552Y-107669563D01*
X256410552Y-107669563D02*
X255880222Y-107139233D01*
X255282717Y-108139789D02*
X255752943Y-107669563D01*
%TO.N,Net-(U5-P3)*%
D92*
X259711951Y-89852262D02*
X259746264Y-89852262D01*
X259746264Y-89852262D02*
X260733954Y-88864572D01*
%TO.N,Net-(C35-Pad1)*%
D95*
X257463350Y-98517855D02*
X257463350Y-99012830D01*
X256720888Y-100179556D02*
X257463350Y-99437094D01*
X256841096Y-97895601D02*
X257463350Y-98517855D01*
X257463350Y-99437094D02*
X257463350Y-99012830D01*
%TO.N,/MCU/VDDO_3*%
X237976104Y-97318565D02*
X238177630Y-97318566D01*
X237316727Y-96659188D02*
X237976104Y-97318565D01*
D94*
X239198475Y-98339411D02*
X238672605Y-97813541D01*
D95*
X228937512Y-94431802D02*
X227110589Y-96258725D01*
D94*
X238177630Y-97318566D02*
X238672604Y-97813540D01*
X239310589Y-98339411D02*
X239198475Y-98339411D01*
D95*
X227110589Y-96258725D02*
X227110589Y-97410589D01*
D92*
X238177630Y-97318566D02*
X238177630Y-97329948D01*
X238177630Y-97329948D02*
X238629175Y-97781493D01*
%TO.N,/Motors/ESC4/VSENSE_A*%
D95*
X250890558Y-102931948D02*
X251398726Y-102423780D01*
X250753698Y-102931948D02*
X250890558Y-102931948D01*
X250893701Y-101918754D02*
X251893701Y-102918754D01*
%TO.N,Net-(U1-GPIO36)*%
D92*
X230174949Y-95669239D02*
X229434049Y-96410140D01*
X229434049Y-96410140D02*
X228294436Y-96410140D01*
X228294436Y-96410140D02*
X228178688Y-96294390D01*
%TO.N,Net-(U12-C1)*%
D95*
X244090747Y-95848019D02*
X244622103Y-95316663D01*
X244622103Y-95316663D02*
X244622103Y-95152544D01*
%TO.N,Net-(U25-CPL)*%
X255565560Y-110048978D02*
X255900914Y-110384333D01*
X255900914Y-110384333D02*
X256838173Y-110384333D01*
X256838173Y-110384333D02*
X256864411Y-110358095D01*
%TO.N,Net-(U25-CPH)*%
X255987813Y-111036917D02*
X256185589Y-111036917D01*
X255282717Y-110331821D02*
X255987813Y-111036917D01*
%TO.N,/Motors/ESC4/BSTA*%
X255081174Y-111261648D02*
X255081174Y-111643486D01*
X255081174Y-111643486D02*
X255409996Y-111972308D01*
X254717032Y-110897506D02*
X255081174Y-111261648D01*
%TO.N,Net-(U25-BSTB)*%
X252522488Y-111465704D02*
X252522488Y-112344994D01*
X252807843Y-111180349D02*
X252522488Y-111465704D01*
X252522488Y-112344994D02*
X252589411Y-112411917D01*
%TO.N,/Motors/ESC4/GHB*%
D92*
X252242158Y-110687348D02*
X251098726Y-111830780D01*
X252242158Y-110614663D02*
X252242158Y-110687348D01*
X251098726Y-111830780D02*
X251098726Y-112071232D01*
%TO.N,/Motors/ESC4/GLB*%
X251612881Y-110869173D02*
X250158274Y-112323780D01*
X251959315Y-110331821D02*
X251612881Y-110678255D01*
X251612881Y-110678255D02*
X251612881Y-110869173D01*
X250158274Y-112323780D02*
X250151274Y-112323780D01*
%TO.N,Net-(U25-BSTC)*%
D95*
X251096645Y-110628805D02*
X250955223Y-110628805D01*
X251676472Y-110048977D02*
X251096645Y-110628805D01*
%TO.N,/Motors/ESC4/GHC*%
D92*
X251393630Y-108868108D02*
X250626418Y-109635320D01*
X251393630Y-108705475D02*
X251393630Y-108868108D01*
%TO.N,/Motors/ESC4/GLC*%
X251110229Y-108162277D02*
X250127548Y-109144958D01*
X251416117Y-108162277D02*
X251110229Y-108162277D01*
X251676472Y-108422632D02*
X251416117Y-108162277D01*
%TO.N,/Motors/ESC4/C_HIGH*%
D95*
X251107251Y-106722040D02*
X252242158Y-107856946D01*
%TO.N,/Motors/ESC4/B_HIGH*%
X252525000Y-107574104D02*
X251460805Y-106509908D01*
X251460805Y-106509908D02*
X251460805Y-106368487D01*
%TO.N,/Motors/ESC4/A_HIGH*%
X252807843Y-107291261D02*
X252477628Y-106961046D01*
X252477628Y-105971097D02*
X252167911Y-105661380D01*
X252477628Y-106961046D02*
X252477628Y-105971097D01*
%TO.N,/Motors/ESC4/C_LOW*%
X252486110Y-105272472D02*
X253090686Y-105877048D01*
X253090686Y-105877048D02*
X253090686Y-107008419D01*
%TO.N,/Motors/ESC4/B_LOW*%
X252486110Y-104735070D02*
X252783292Y-104735070D01*
X252783292Y-104735070D02*
X254151346Y-106103124D01*
X254151346Y-106103124D02*
X254151346Y-107008419D01*
%TO.N,/Motors/ESC4/A_LOW*%
X254727638Y-106997812D02*
X254434189Y-107291261D01*
X252791754Y-104036624D02*
X254727638Y-105972508D01*
X254727638Y-105972508D02*
X254727638Y-106997812D01*
X252477449Y-104036624D02*
X252791754Y-104036624D01*
X252167911Y-104346161D02*
X252477449Y-104036624D01*
%TO.N,/Motors/ESC4/NFAULT*%
D92*
X252095342Y-103711624D02*
X251814358Y-103992608D01*
X255052638Y-105545144D02*
X254375000Y-104867506D01*
X252926374Y-103711624D02*
X252095342Y-103711624D01*
X255052638Y-107238498D02*
X255052638Y-105545144D01*
X254717032Y-107574104D02*
X255052638Y-107238498D01*
X254082256Y-104867506D02*
X252926374Y-103711624D01*
X254375000Y-104867506D02*
X254082256Y-104867506D01*
%TO.N,/Motors/ESC4/NSLEEP*%
X254587390Y-103747506D02*
X253386520Y-103747506D01*
X255390628Y-107466193D02*
X255390628Y-104550744D01*
X254999874Y-107856947D02*
X255390628Y-107466193D01*
X255390628Y-104550744D02*
X254587390Y-103747506D01*
X253050638Y-103411624D02*
X251688236Y-103411624D01*
X253386520Y-103747506D02*
X253050638Y-103411624D01*
X251688236Y-103411624D02*
X251460805Y-103639055D01*
%TO.N,Net-(U25-DT)*%
D95*
X255565560Y-108422632D02*
X255850915Y-108137277D01*
X256128732Y-108137277D02*
X256175612Y-108184157D01*
X256175612Y-108184157D02*
X256985801Y-108184157D01*
X256985801Y-108184157D02*
X257098726Y-108071232D01*
X255850915Y-108137277D02*
X256128732Y-108137277D01*
%TO.N,Net-(U13-CS)*%
X241508318Y-100969240D02*
X240932026Y-101545532D01*
X240932026Y-101545532D02*
X240932026Y-101718773D01*
%TO.N,VDD_HP*%
X233639773Y-99134062D02*
X233224347Y-99549488D01*
D94*
X230939998Y-103299999D02*
X229914999Y-102275000D01*
D95*
X240781550Y-92487258D02*
X241232158Y-92036653D01*
D92*
X228504998Y-102275000D02*
X228929999Y-101849999D01*
D95*
X227837364Y-94259156D02*
X227837364Y-94047026D01*
X230408311Y-89255799D02*
X230669924Y-89517410D01*
D92*
X233198008Y-100701992D02*
X232919669Y-100980331D01*
D95*
X227837364Y-94047026D02*
X228195050Y-93689340D01*
X241294203Y-91479630D02*
X241276524Y-91497309D01*
X229597452Y-89002548D02*
X229790903Y-89002548D01*
X233224347Y-99549488D02*
X233224347Y-100291949D01*
D92*
X228929999Y-101849999D02*
X229689998Y-101849999D01*
D95*
X241232157Y-91541676D02*
X241294203Y-91479630D01*
X229692349Y-88903994D02*
X229597452Y-88998891D01*
X229790903Y-89002548D02*
X230044154Y-89255799D01*
D94*
X231149999Y-103299999D02*
X230939998Y-103299999D01*
D92*
X229689998Y-101849999D02*
X229914999Y-102075000D01*
D95*
X230044154Y-89255799D02*
X230408311Y-89255799D01*
X241344769Y-91479631D02*
X241414005Y-91410395D01*
X229597452Y-88998891D02*
X229597452Y-89002548D01*
X241294202Y-91479631D02*
X241344769Y-91479631D01*
D92*
X229914999Y-102075000D02*
X229914999Y-102275000D01*
D95*
X241232158Y-92036653D02*
X241232157Y-91541676D01*
D92*
X232919669Y-100980331D02*
X232919669Y-101042100D01*
%TO.N,Net-(U4-VDDA1)*%
X255732708Y-90501032D02*
X256217076Y-90501032D01*
X254891328Y-91342412D02*
X255732708Y-90501032D01*
X255732708Y-89829281D02*
X255732708Y-90501032D01*
X254891328Y-91844458D02*
X254891328Y-91342412D01*
X255759224Y-89802763D02*
X255732708Y-89829281D01*
X254811701Y-92489771D02*
X254528858Y-92206928D01*
X254528858Y-92206928D02*
X254891328Y-91844458D01*
%TO.N,/MCU/VDD_PSRAM*%
D95*
X229840388Y-97065138D02*
X229840389Y-96498774D01*
X229736559Y-94417677D02*
X230973996Y-95655114D01*
X232663947Y-97635014D02*
X232663947Y-97345063D01*
D94*
X228970648Y-97906595D02*
X228970648Y-97963162D01*
X229578759Y-97298483D02*
X228970648Y-97906595D01*
D95*
X230973996Y-95655114D02*
X230684048Y-95655115D01*
X230684048Y-95655115D02*
X230422436Y-95916725D01*
X229446610Y-94417677D02*
X229736559Y-94417677D01*
X232663947Y-97345063D02*
X230973996Y-95655114D01*
X229840389Y-96498774D02*
X230422436Y-95916725D01*
X232402335Y-97896624D02*
X232663947Y-97635014D01*
X229184999Y-94679289D02*
X229446610Y-94417677D01*
X229522191Y-97383335D02*
X229840388Y-97065138D01*
%TO.N,/Motors/ESC2/BSTA*%
X248518826Y-75856514D02*
X248190004Y-75527692D01*
X248882968Y-76602494D02*
X248518826Y-76238352D01*
X248518826Y-76238352D02*
X248518826Y-75856514D01*
%TO.N,Net-(U4-MTDO{slash}GPIO5{slash}FSPIWP{slash}ADC1_CH4)*%
D92*
X252060848Y-98634736D02*
X252060848Y-100385543D01*
X254274695Y-103200000D02*
X255500000Y-103200000D01*
X253775000Y-102700305D02*
X254274695Y-103200000D01*
X253775000Y-102099695D02*
X253775000Y-102700305D01*
X252060848Y-100385543D02*
X253775000Y-102099695D01*
X252336827Y-98358757D02*
X252060848Y-98634736D01*
%TO.N,/Motors/ESC1/VSENSE_C*%
D95*
X241682159Y-79926274D02*
X241923726Y-79926274D01*
X241423726Y-79426274D02*
X241426274Y-79426274D01*
X241182985Y-80425448D02*
X241682159Y-79926274D01*
X241426274Y-79426274D02*
X242425000Y-80425000D01*
%TO.N,Net-(JP6-C)*%
D92*
X249252074Y-92445576D02*
X249570272Y-92763774D01*
X250166009Y-91308902D02*
X249252074Y-92222837D01*
X249252074Y-92222837D02*
X249252074Y-92445576D01*
%TO.N,Net-(U4-GPIO25)*%
X250781192Y-91924084D02*
X250618558Y-91761450D01*
X252336827Y-91641242D02*
X252009789Y-91314205D01*
X252009789Y-91314205D02*
X251779981Y-91314205D01*
X251170101Y-91924085D02*
X250781192Y-91924084D01*
X251779981Y-91314205D02*
X251170101Y-91924085D01*
%TO.N,Net-(U20-PA1)*%
D95*
X240797612Y-84883756D02*
X240797612Y-85852909D01*
X240797612Y-85852909D02*
X240776795Y-85873726D01*
%TO.N,Net-(D14-A)*%
X241229343Y-86326274D02*
X241223726Y-86326274D01*
X241223726Y-86326274D02*
X240725000Y-86825000D01*
%TO.N,/Motors/ESC2/GLB*%
D92*
X253441726Y-75176220D02*
X253448726Y-75176220D01*
X251640685Y-77168179D02*
X251987119Y-76821745D01*
X251987119Y-76630827D02*
X253441726Y-75176220D01*
X251987119Y-76821745D02*
X251987119Y-76630827D01*
%TO.N,Net-(JP5-A)*%
X254150556Y-89396178D02*
X254150556Y-89353752D01*
X254695027Y-89940650D02*
X254150556Y-89396178D01*
%TO.N,CP_SDIO_D1*%
X233392285Y-98886575D02*
X232465406Y-99813454D01*
X250532305Y-99031909D02*
X250532305Y-100084853D01*
X232465406Y-99813454D02*
X232465406Y-99864774D01*
X251771142Y-97793072D02*
X250532305Y-99031909D01*
X250532305Y-100084853D02*
X250673726Y-100226274D01*
X232465406Y-99864774D02*
X232647749Y-100047117D01*
%TO.N,/Motors/ESC1/VSENSE_A*%
D95*
X239871302Y-84565558D02*
X239734442Y-84565558D01*
X239734442Y-84565558D02*
X239226274Y-85073726D01*
X239731299Y-85578752D02*
X238731299Y-84578752D01*
%TO.N,/Motors/ESC1/VSENSE_REF*%
X244608131Y-80400000D02*
X244685001Y-80476870D01*
X239853103Y-86093346D02*
X240260210Y-85686239D01*
D93*
X240424855Y-84506979D02*
X240424855Y-84429225D01*
D95*
X243450000Y-80400000D02*
X244608131Y-80400000D01*
X240260210Y-85686239D02*
X240260210Y-84883756D01*
X242877548Y-79972452D02*
X242877548Y-79975000D01*
X241355002Y-82739313D02*
X241315707Y-82739313D01*
D93*
X240260210Y-84671624D02*
X240424855Y-84506979D01*
D95*
X240900000Y-83954080D02*
X240474855Y-84379225D01*
X241315707Y-82739313D02*
X240900000Y-83155020D01*
D93*
X240424855Y-84429225D02*
X240474855Y-84379225D01*
D95*
X242877548Y-79975000D02*
X243376274Y-80473726D01*
X239278751Y-86031300D02*
X239340797Y-86093346D01*
X239340797Y-86093346D02*
X239853103Y-86093346D01*
X240900000Y-83155020D02*
X240900000Y-83954080D01*
D93*
X240260210Y-84883756D02*
X240260210Y-84671624D01*
D95*
X243376274Y-80473726D02*
X243450000Y-80400000D01*
%TO.N,/Motors/ESC1/SWCLK*%
D92*
X240260210Y-80103714D02*
X240260210Y-79806532D01*
X240260210Y-79806532D02*
X241866742Y-78200000D01*
X241866742Y-78200000D02*
X243200000Y-78200000D01*
%TO.N,/Motors/ESC2/GVDD*%
X248600126Y-76885337D02*
X248600126Y-76842911D01*
D94*
X247213688Y-75801136D02*
X247572708Y-75801136D01*
X246424999Y-75802494D02*
X247212330Y-75802494D01*
X247212330Y-75802494D02*
X247213688Y-75801136D01*
X245974999Y-75352494D02*
X246424999Y-75802494D01*
X247574066Y-75802494D02*
X247602135Y-75802494D01*
X248118826Y-76319185D02*
X248118826Y-76404036D01*
X248118826Y-76404036D02*
X248264771Y-76549981D01*
X247602135Y-75802494D02*
X248118826Y-76319185D01*
X247572708Y-75801136D02*
X247574066Y-75802494D01*
X248264771Y-76549981D02*
X248600126Y-76885337D01*
%TO.N,Net-(U14-NRESET)*%
D95*
X245526274Y-92026274D02*
X246221392Y-92026274D01*
X246221392Y-92026274D02*
X246994975Y-91252691D01*
%TO.N,/Motors/ESC2/GLC*%
D92*
X252489771Y-79337723D02*
X253472452Y-78355042D01*
X251923528Y-79077368D02*
X252183883Y-79337723D01*
X252183883Y-79337723D02*
X252489771Y-79337723D01*
%TO.N,DSHOT_2*%
D95*
X234719030Y-87165360D02*
X234719030Y-87325000D01*
X254448726Y-85686421D02*
X254875001Y-86112696D01*
X254448726Y-85528768D02*
X254448726Y-85686421D01*
X235089341Y-86795049D02*
X234719030Y-87165360D01*
%TO.N,Net-(U30-PA1)*%
X249827388Y-101644597D02*
X249848205Y-101623780D01*
X249827388Y-102613750D02*
X249827388Y-101644597D01*
%TO.N,Net-(D17-A)*%
X249401274Y-101171232D02*
X249900000Y-100672506D01*
X249395657Y-101171232D02*
X249401274Y-101171232D01*
%TO.N,Net-(U4-XTAL_N)*%
X258382589Y-98765343D02*
X259690737Y-98765343D01*
X260475625Y-97641043D02*
X259690737Y-98425931D01*
X259690737Y-98425931D02*
X259690737Y-98765343D01*
X255943072Y-96378858D02*
X255996105Y-96378858D01*
X255996105Y-96378858D02*
X258382589Y-98765343D01*
%TO.N,Net-(U4-GPIO26)*%
D92*
X253026274Y-87326274D02*
X253188908Y-87488908D01*
X253188908Y-87805171D02*
X251691670Y-89302409D01*
X251691670Y-90430400D02*
X252619670Y-91358400D01*
X253188908Y-87488908D02*
X253188908Y-87805171D01*
X251691670Y-89302409D02*
X251691670Y-90430400D01*
%TO.N,Net-(JP3-B)*%
X252452010Y-86873726D02*
X251937868Y-87387868D01*
X252573726Y-86873726D02*
X252452010Y-86873726D01*
%TO.N,SPI_PMW3901_CS*%
X243166368Y-85500000D02*
X244919238Y-85500000D01*
X238554164Y-90259872D02*
X238961005Y-89853031D01*
X238961005Y-89853031D02*
X238961005Y-88832927D01*
X240987167Y-87679201D02*
X243166368Y-85500000D01*
X240114731Y-87679201D02*
X240987167Y-87679201D01*
X238961005Y-88832927D02*
X240114731Y-87679201D01*
X244919238Y-85500000D02*
X245085786Y-85666548D01*
%TO.N,SPI_MISO*%
X244626167Y-86126167D02*
X244489555Y-85989555D01*
X240238995Y-87979201D02*
X239279201Y-88938995D01*
X243101077Y-85989555D02*
X241111431Y-87979201D01*
X239279201Y-88938995D02*
X239279201Y-90029811D01*
X244489555Y-85989555D02*
X243101077Y-85989555D01*
X241111431Y-87979201D02*
X240238995Y-87979201D01*
X239279201Y-90029811D02*
X238801652Y-90507360D01*
%TO.N,SPI_CLK*%
X241284188Y-89091548D02*
X241284188Y-88923527D01*
X243176598Y-86338298D02*
X243919060Y-86338298D01*
X240100736Y-90275000D02*
X241284188Y-89091548D01*
X242351078Y-87856637D02*
X242351078Y-87163818D01*
X242351078Y-87163818D02*
X243176598Y-86338298D01*
X239528986Y-90275000D02*
X240100736Y-90275000D01*
X239049139Y-90754847D02*
X239528986Y-90275000D01*
X241284188Y-88923527D02*
X242351078Y-87856637D01*
X243919060Y-86338298D02*
X244166548Y-86585786D01*
%TO.N,SPI_MOSI*%
X241584188Y-89047791D02*
X242651078Y-87980901D01*
X243570316Y-86908794D02*
X243706928Y-87045406D01*
X243030366Y-86908794D02*
X243570316Y-86908794D01*
X239759317Y-90575000D02*
X240225000Y-90575000D01*
X242651078Y-87288082D02*
X243030366Y-86908794D01*
X241584188Y-89215812D02*
X241584188Y-89047791D01*
X239331982Y-91002334D02*
X239759317Y-90575000D01*
X242651078Y-87980901D02*
X242651078Y-87288082D01*
X240225000Y-90575000D02*
X241584188Y-89215812D01*
X239296626Y-91002334D02*
X239331982Y-91002334D01*
%TO.N,CSI_REXT*%
D95*
X236348726Y-99156010D02*
X236348726Y-99198726D01*
X235584316Y-98391600D02*
X236348726Y-99156010D01*
%TO.N,CP_SDIO_D0*%
D92*
X249948926Y-98596625D02*
X250472614Y-98596625D01*
X232165406Y-99653834D02*
X232165406Y-100488787D01*
X249226777Y-100281047D02*
X249126274Y-100180544D01*
X250472614Y-98596625D02*
X251488299Y-97580940D01*
X249226777Y-100373726D02*
X249226777Y-100281047D01*
X251488299Y-97580940D02*
X251488299Y-97510229D01*
X233144797Y-98674443D02*
X232165406Y-99653834D01*
X232165406Y-100488787D02*
X232268719Y-100592100D01*
X233144797Y-98639088D02*
X233144797Y-98674443D01*
X249126274Y-99419277D02*
X249948926Y-98596625D01*
X249126274Y-100180544D02*
X249126274Y-99419277D01*
%TO.N,Net-(U1-GPIO28)*%
D95*
X232897310Y-98391600D02*
X232188910Y-99100000D01*
X232188910Y-99100000D02*
X232100000Y-99100000D01*
%TO.N,CP_SDIO_CLK*%
D92*
X230104082Y-100494876D02*
X230104082Y-101521069D01*
X232218234Y-98380724D02*
X230104082Y-100494876D01*
D95*
X251205455Y-97227385D02*
X250286217Y-98146625D01*
D92*
X230104082Y-101521069D02*
X230182786Y-101599773D01*
X232649823Y-98144113D02*
X232413212Y-98380724D01*
X232413212Y-98380724D02*
X232218234Y-98380724D01*
%TO.N,CP_SDIO_CMD*%
X231918236Y-97885750D02*
X231918236Y-98256458D01*
X232154848Y-97649138D02*
X232154848Y-97684491D01*
X231918236Y-98256458D02*
X229654082Y-100520612D01*
D95*
X250300361Y-97566797D02*
X250017517Y-97566797D01*
D92*
X229654082Y-100520612D02*
X229654082Y-101253577D01*
X232154848Y-97649138D02*
X231918236Y-97885750D01*
D95*
X250922614Y-96944544D02*
X250300361Y-97566797D01*
%TO.N,Net-(JP1-A)*%
D92*
X230165389Y-96668749D02*
X230669924Y-96164214D01*
X228225000Y-99375000D02*
X230165389Y-97434611D01*
X230165389Y-97434611D02*
X230165389Y-96668749D01*
X226500000Y-99900000D02*
X226500000Y-99450000D01*
X226500000Y-99450000D02*
X226575000Y-99375000D01*
X226575000Y-99375000D02*
X228225000Y-99375000D01*
%TO.N,UART_RX*%
X229344098Y-95510140D02*
X229026156Y-95510140D01*
X229679975Y-95174264D02*
X229344098Y-95510140D01*
X229026156Y-95510140D02*
X228778542Y-95262524D01*
%TO.N,FB_DCDC*%
D95*
X227094999Y-103265000D02*
X226970000Y-103390000D01*
X227611686Y-93105976D02*
X227700075Y-93194365D01*
X228227253Y-102725000D02*
X227864999Y-102362746D01*
X227864999Y-102275000D02*
X227094999Y-102275000D01*
X227094999Y-102275000D02*
X227094999Y-103265000D01*
X228825000Y-102725000D02*
X228227253Y-102725000D01*
X229275000Y-102275000D02*
X228825000Y-102725000D01*
X227864999Y-102362746D02*
X227864999Y-102275000D01*
%TO.N,EN_DCDC*%
X229244999Y-103390001D02*
X229244999Y-102976754D01*
X227545659Y-92509619D02*
X227677715Y-92509619D01*
X229244999Y-102976754D02*
X229296752Y-102925001D01*
X227677715Y-92509619D02*
X227700075Y-92487259D01*
%TO.N,DSHOT_3*%
X236151274Y-101971232D02*
X236151274Y-101210065D01*
X236151274Y-101210065D02*
X236188672Y-101172667D01*
X228442537Y-91744796D02*
X228876915Y-92179174D01*
X228876915Y-92179174D02*
X228876915Y-92371077D01*
%TO.N,BAT_VSENSE*%
X230619897Y-88477433D02*
X230619897Y-88254694D01*
X230619897Y-88254694D02*
X230070228Y-87705025D01*
X228494975Y-87705025D02*
X227505024Y-88694974D01*
X230070228Y-87705025D02*
X228494975Y-87705025D01*
X231164899Y-89022435D02*
X230619897Y-88477433D01*
%TO.N,Net-(U1-XTAL_P)*%
X232897311Y-87290023D02*
X231523302Y-85916017D01*
X231523302Y-85916017D02*
X231523303Y-85426159D01*
X232145557Y-84803905D02*
X232145556Y-84209936D01*
X231523303Y-85426159D02*
X232145557Y-84803905D01*
%TO.N,/Motors/ESC2/GHB*%
D92*
X252501274Y-75669220D02*
X252501274Y-75428768D01*
X251357842Y-76812652D02*
X252501274Y-75669220D01*
X251357842Y-76885337D02*
X251357842Y-76812652D01*
%TO.N,Net-(U6-SW)*%
D96*
X231139999Y-105290000D02*
X231149999Y-105300000D01*
X229244999Y-105289999D02*
X231139999Y-105290000D01*
%TO.N,/Motors/ESC3/VSENSE_B*%
D95*
X233702549Y-105572507D02*
X234701274Y-106571232D01*
X235024266Y-105661380D02*
X234618165Y-106067481D01*
X234618165Y-106067481D02*
X234194975Y-106067481D01*
%TO.N,/Motors/ESC4/SWCLK*%
D92*
X248758258Y-109297506D02*
X247425000Y-109297506D01*
X250364790Y-107393792D02*
X250364790Y-107690974D01*
X250364790Y-107690974D02*
X248758258Y-109297506D01*
%TO.N,Net-(U22-DT)*%
D95*
X243128732Y-108137277D02*
X243175612Y-108184157D01*
X243985801Y-108184157D02*
X244098726Y-108071232D01*
X243175612Y-108184157D02*
X243985801Y-108184157D01*
X242850915Y-108137277D02*
X243128732Y-108137277D01*
X242565560Y-108422632D02*
X242850915Y-108137277D01*
%TO.N,/Motors/ESC3/NFAULT*%
D92*
X239095342Y-103711624D02*
X238814358Y-103992608D01*
X241717032Y-107574104D02*
X242052638Y-107238498D01*
X241082256Y-104867506D02*
X239926374Y-103711624D01*
X239926374Y-103711624D02*
X239095342Y-103711624D01*
X242052638Y-107238498D02*
X242052638Y-105545144D01*
X242052638Y-105545144D02*
X241375000Y-104867506D01*
X241375000Y-104867506D02*
X241082256Y-104867506D01*
%TO.N,Net-(U4-MTMS{slash}GPIO2{slash}FSPIQ{slash}ADC1_CH1)*%
X254239152Y-99004244D02*
X253413053Y-99830343D01*
X253413053Y-99830343D02*
X253413053Y-100221956D01*
X255783732Y-100858427D02*
X256500000Y-101574695D01*
X254049524Y-100858427D02*
X255783732Y-100858427D01*
X253963173Y-98358757D02*
X254239152Y-98634736D01*
X254239152Y-98634736D02*
X254239152Y-99004244D01*
X253413053Y-100221956D02*
X254049524Y-100858427D01*
X256500000Y-101574695D02*
X256500000Y-102400000D01*
%TO.N,Net-(R8-Pad1)*%
X228694903Y-81972650D02*
X229161594Y-81505959D01*
X228694903Y-82594903D02*
X228694903Y-81972650D01*
%TO.N,/Motors/ESC3/NRST*%
X236332413Y-104063321D02*
X236236614Y-104159120D01*
X236084926Y-103285502D02*
X236332413Y-103532989D01*
X232980002Y-109897506D02*
X232725000Y-110152508D01*
X236332413Y-103532989D02*
X236332413Y-104063321D01*
X233375000Y-109897506D02*
X232980002Y-109897506D01*
%TO.N,Net-(U26-PA0)*%
D95*
X236438480Y-102931948D02*
X235930312Y-102423780D01*
X235930312Y-102423780D02*
X235698726Y-102423780D01*
%TO.N,Net-(U22-CPL)*%
X243838173Y-110384333D02*
X243864411Y-110358095D01*
X242900914Y-110384333D02*
X243838173Y-110384333D01*
X242565560Y-110048978D02*
X242900914Y-110384333D01*
%TO.N,Net-(U22-CPH)*%
X242987813Y-111036917D02*
X243185589Y-111036917D01*
X242282717Y-110331821D02*
X242987813Y-111036917D01*
%TO.N,/Motors/ESC3/VSENSE_REF*%
X233016869Y-107097506D02*
X232939999Y-107020636D01*
X238346249Y-101466206D02*
X238284203Y-101404160D01*
X234747452Y-107525054D02*
X234747452Y-107522506D01*
X234175000Y-107097506D02*
X233016869Y-107097506D01*
X236725000Y-103543426D02*
X237150145Y-103118281D01*
X237364790Y-101811267D02*
X237364790Y-102613750D01*
X236725000Y-104342486D02*
X236725000Y-103543426D01*
D93*
X237200145Y-102990527D02*
X237200145Y-103068281D01*
X237364790Y-102825882D02*
X237200145Y-102990527D01*
D95*
X234248726Y-107023780D02*
X234175000Y-107097506D01*
X236269998Y-104758193D02*
X236309293Y-104758193D01*
D93*
X237364790Y-102613750D02*
X237364790Y-102825882D01*
D95*
X237771897Y-101404160D02*
X237364790Y-101811267D01*
X238284203Y-101404160D02*
X237771897Y-101404160D01*
D93*
X237200145Y-103068281D02*
X237150145Y-103118281D01*
D95*
X234747452Y-107522506D02*
X234248726Y-107023780D01*
X236309293Y-104758193D02*
X236725000Y-104342486D01*
%TO.N,/Motors/ESC3/GLB*%
D92*
X238612881Y-110869173D02*
X237158274Y-112323780D01*
X238612881Y-110678255D02*
X238612881Y-110869173D01*
X238959315Y-110331821D02*
X238612881Y-110678255D01*
X237158274Y-112323780D02*
X237151274Y-112323780D01*
%TO.N,Net-(D16-A)*%
D95*
X236725000Y-100800000D02*
X237223726Y-100301274D01*
X237223726Y-100301274D02*
X237229343Y-100301274D01*
%TO.N,Net-(U4-CHIP_PU)*%
X255752152Y-98079449D02*
X255716797Y-98114804D01*
X255716797Y-97902672D02*
X255716797Y-98114804D01*
X254000000Y-100000000D02*
X254000000Y-100172506D01*
X255094544Y-97227385D02*
X255094544Y-97280420D01*
X255094544Y-97280420D02*
X255716797Y-97902672D01*
%TO.N,Net-(U16-CPL)*%
X233786827Y-77113173D02*
X233760589Y-77139411D01*
X234724086Y-77113173D02*
X233786827Y-77113173D01*
X235059440Y-77448528D02*
X234724086Y-77113173D01*
%TO.N,Net-(U16-CPH)*%
X235342283Y-77165685D02*
X234637187Y-76460589D01*
X234637187Y-76460589D02*
X234439411Y-76460589D01*
%TO.N,/Motors/ESC1/BSTA*%
X235543826Y-75854020D02*
X235215004Y-75525198D01*
X235543826Y-76235858D02*
X235543826Y-75854020D01*
X235907968Y-76600000D02*
X235543826Y-76235858D01*
%TO.N,Net-(U16-BSTB)*%
X237817157Y-76317157D02*
X238102512Y-76031802D01*
X238102512Y-75152512D02*
X238035589Y-75085589D01*
X238102512Y-76031802D02*
X238102512Y-75152512D01*
%TO.N,/Motors/ESC1/GHB*%
D92*
X239526274Y-75666726D02*
X239526274Y-75426274D01*
X238382842Y-76882843D02*
X238382842Y-76810158D01*
X238382842Y-76810158D02*
X239526274Y-75666726D01*
%TO.N,/Motors/ESC1/GLB*%
X238665685Y-77165685D02*
X239012119Y-76819251D01*
X239012119Y-76628333D02*
X240466726Y-75173726D01*
X240466726Y-75173726D02*
X240473726Y-75173726D01*
X239012119Y-76819251D02*
X239012119Y-76628333D01*
%TO.N,Net-(U16-BSTC)*%
D95*
X238948528Y-77448529D02*
X239528355Y-76868701D01*
X239528355Y-76868701D02*
X239669777Y-76868701D01*
%TO.N,/Motors/ESC1/GLC*%
D92*
X238948528Y-79074874D02*
X239208883Y-79335229D01*
X239208883Y-79335229D02*
X239514771Y-79335229D01*
X239514771Y-79335229D02*
X240497452Y-78352548D01*
%TO.N,/Motors/ESC1/C_HIGH*%
D95*
X239517749Y-80775466D02*
X238382842Y-79640560D01*
%TO.N,/Motors/ESC1/B_HIGH*%
X238100000Y-79923402D02*
X239164195Y-80987598D01*
X239164195Y-80987598D02*
X239164195Y-81129019D01*
%TO.N,/Motors/ESC1/A_HIGH*%
X237817157Y-80206245D02*
X238147372Y-80536460D01*
X238147372Y-80536460D02*
X238147372Y-81526409D01*
X238147372Y-81526409D02*
X238457089Y-81836126D01*
%TO.N,/Motors/ESC1/C_LOW*%
X238138890Y-82225034D02*
X237534314Y-81620458D01*
X237534314Y-81620458D02*
X237534314Y-80489087D01*
%TO.N,/Motors/ESC1/B_LOW*%
X238138890Y-82762436D02*
X237841708Y-82762436D01*
X236473654Y-81394382D02*
X236473654Y-80489087D01*
X237841708Y-82762436D02*
X236473654Y-81394382D01*
%TO.N,/Motors/ESC1/A_LOW*%
X235897362Y-81524998D02*
X235897362Y-80499694D01*
X235897362Y-80499694D02*
X236190811Y-80206245D01*
X238147551Y-83460882D02*
X237833246Y-83460882D01*
X237833246Y-83460882D02*
X235897362Y-81524998D01*
X238457089Y-83151345D02*
X238147551Y-83460882D01*
%TO.N,/Motors/ESC1/NFAULT*%
D92*
X236542744Y-82630000D02*
X237698626Y-83785882D01*
X238529658Y-83785882D02*
X238810642Y-83504898D01*
X236250000Y-82630000D02*
X236542744Y-82630000D01*
X237698626Y-83785882D02*
X238529658Y-83785882D01*
X235907968Y-79923402D02*
X235572362Y-80259008D01*
X235572362Y-80259008D02*
X235572362Y-81952362D01*
X235572362Y-81952362D02*
X236250000Y-82630000D01*
%TO.N,/Motors/ESC1/NSLEEP*%
X235234372Y-82946762D02*
X236037610Y-83750000D01*
X237574362Y-84085882D02*
X238936764Y-84085882D01*
X238936764Y-84085882D02*
X239164195Y-83858451D01*
X235234372Y-80031313D02*
X235234372Y-82946762D01*
X237238480Y-83750000D02*
X237574362Y-84085882D01*
X236037610Y-83750000D02*
X237238480Y-83750000D01*
X235625126Y-79640559D02*
X235234372Y-80031313D01*
%TO.N,Net-(JP1-B)*%
X227930000Y-99900000D02*
X228030000Y-100000000D01*
X227200000Y-99900000D02*
X227930000Y-99900000D01*
%TO.N,Net-(U4-GPIO28)*%
X254242480Y-91361935D02*
X254242480Y-90393199D01*
X253963173Y-91641242D02*
X254242480Y-91361935D01*
%TO.N,/Motors/ESC2/GHC*%
X252206370Y-78794525D02*
X252206370Y-78631892D01*
X252206370Y-78631892D02*
X252973582Y-77864680D01*
%TO.N,Net-(U4-GPIO27)*%
X253680329Y-91358399D02*
X252633812Y-90311882D01*
X252633812Y-90311882D02*
X252633812Y-90304811D01*
%TO.N,Net-(JP4-A)*%
D95*
X253164142Y-88360267D02*
X253517696Y-88713820D01*
X253093431Y-88360267D02*
X253164142Y-88360267D01*
X252181263Y-89852262D02*
X252181264Y-89272434D01*
X252181264Y-89272434D02*
X253093431Y-88360267D01*
%TO.N,Net-(U4-MTCK{slash}GPIO4{slash}FSPIHD{slash}ADC1_CH3)*%
D92*
X252619670Y-98641600D02*
X252619670Y-100519670D01*
X252619670Y-100519670D02*
X254500000Y-102400000D01*
%TO.N,Net-(U4-XTAL_P)*%
D95*
X256388548Y-97390020D02*
X256388548Y-97443053D01*
X255660229Y-96661701D02*
X256388548Y-97390020D01*
%TO.N,Net-(U19-BSTB)*%
X250792157Y-76319651D02*
X251077512Y-76034296D01*
X251077512Y-76034296D02*
X251077512Y-75155006D01*
X251077512Y-75155006D02*
X251010589Y-75088083D01*
%TO.N,/Motors/ESC4/NRST*%
D92*
X249084926Y-103285502D02*
X249332413Y-103532989D01*
X249332413Y-103532989D02*
X249332413Y-104063321D01*
X246375000Y-109897506D02*
X245980002Y-109897506D01*
X245980002Y-109897506D02*
X245725000Y-110152508D01*
X249332413Y-104063321D02*
X249236614Y-104159120D01*
%TO.N,/Motors/ESC3/GLC*%
X238416117Y-108162277D02*
X238110229Y-108162277D01*
X238676472Y-108422632D02*
X238416117Y-108162277D01*
X238110229Y-108162277D02*
X237127548Y-109144958D01*
%TO.N,/Motors/ESC3/VSENSE_A*%
D95*
X237893701Y-101918754D02*
X238893701Y-102918754D01*
X237890558Y-102931948D02*
X238398726Y-102423780D01*
X237753698Y-102931948D02*
X237890558Y-102931948D01*
%TO.N,/Motors/ESC3/GHB*%
D92*
X239242158Y-110614663D02*
X239242158Y-110687348D01*
X239242158Y-110687348D02*
X238098726Y-111830780D01*
X238098726Y-111830780D02*
X238098726Y-112071232D01*
%TO.N,Net-(D1-A)*%
D95*
X231647452Y-99552548D02*
X231100000Y-100100000D01*
%TO.N,/Motors/ESC4/SWDIO*%
D92*
X251038236Y-107360132D02*
X251038236Y-107784270D01*
X250375000Y-108147506D02*
X248025000Y-110497506D01*
X248025000Y-110497506D02*
X247425000Y-110497506D01*
X251038236Y-107784270D02*
X250675000Y-108147506D01*
X250753698Y-107075594D02*
X251038236Y-107360132D01*
X250675000Y-108147506D02*
X250375000Y-108147506D01*
%TO.N,/Motors/ESC1/NRST*%
X244250000Y-77600000D02*
X244644998Y-77600000D01*
X241540074Y-84212004D02*
X241292587Y-83964517D01*
X241292587Y-83964517D02*
X241292587Y-83434185D01*
X244644998Y-77600000D02*
X244900000Y-77344998D01*
X241292587Y-83434185D02*
X241388386Y-83338386D01*
%TO.N,/Motors/ESC3/GHC*%
X238393630Y-108868108D02*
X237626418Y-109635320D01*
X238393630Y-108705475D02*
X238393630Y-108868108D01*
%TO.N,Net-(U22-BSTB)*%
D95*
X239522488Y-111465704D02*
X239522488Y-112344994D01*
X239522488Y-112344994D02*
X239589411Y-112411917D01*
X239807843Y-111180349D02*
X239522488Y-111465704D01*
%TO.N,Net-(U22-BSTC)*%
X238096645Y-110628805D02*
X237955223Y-110628805D01*
X238676472Y-110048977D02*
X238096645Y-110628805D01*
%TO.N,/Motors/ESC3/C_HIGH*%
X238107251Y-106722040D02*
X239242158Y-107856946D01*
%TO.N,/Motors/ESC3/B_HIGH*%
X239525000Y-107574104D02*
X238460805Y-106509908D01*
X238460805Y-106509908D02*
X238460805Y-106368487D01*
%TO.N,/Motors/ESC3/A_HIGH*%
X239807843Y-107291261D02*
X239477628Y-106961046D01*
X239477628Y-106961046D02*
X239477628Y-105971097D01*
X239477628Y-105971097D02*
X239167911Y-105661380D01*
%TO.N,/Motors/ESC3/C_LOW*%
X239486110Y-105272472D02*
X240090686Y-105877048D01*
X240090686Y-105877048D02*
X240090686Y-107008419D01*
%TO.N,/Motors/ESC3/B_LOW*%
X239783292Y-104735070D02*
X241151346Y-106103124D01*
X239486110Y-104735070D02*
X239783292Y-104735070D01*
X241151346Y-106103124D02*
X241151346Y-107008419D01*
%TO.N,/Motors/ESC3/A_LOW*%
X239791754Y-104036624D02*
X241727638Y-105972508D01*
X239477449Y-104036624D02*
X239791754Y-104036624D01*
X241727638Y-105972508D02*
X241727638Y-106997812D01*
X241727638Y-106997812D02*
X241434189Y-107291261D01*
X239167911Y-104346161D02*
X239477449Y-104036624D01*
%TO.N,/Motors/ESC3/NSLEEP*%
D92*
X242390628Y-104550744D02*
X241587390Y-103747506D01*
X241999874Y-107856947D02*
X242390628Y-107466193D01*
X238688236Y-103411624D02*
X238460805Y-103639055D01*
X241587390Y-103747506D02*
X240386520Y-103747506D01*
X240050638Y-103411624D02*
X238688236Y-103411624D01*
X240386520Y-103747506D02*
X240050638Y-103411624D01*
X242390628Y-107466193D02*
X242390628Y-104550744D01*
%TO.N,Net-(U26-PA1)*%
D95*
X236827388Y-101775160D02*
X236827388Y-102613750D01*
X237177548Y-101425000D02*
X236827388Y-101775160D01*
X237177548Y-101252548D02*
X237177548Y-101425000D01*
%TO.N,/Motors/ESC3/SWCLK*%
D92*
X235758258Y-109297506D02*
X234425000Y-109297506D01*
X237364790Y-107690974D02*
X235758258Y-109297506D01*
X237364790Y-107393792D02*
X237364790Y-107690974D01*
%TO.N,Net-(U11-XSHUT)*%
D95*
X248026274Y-98426274D02*
X248026274Y-99805097D01*
X248026274Y-99805097D02*
X247697056Y-100134315D01*
%TD*%
%TA.AperFunction,Conductor*%
%TO.N,Net-(R3-Pad2)*%
G36*
X264413039Y-94519685D02*
G01*
X264458794Y-94572489D01*
X264470000Y-94624000D01*
X264470000Y-100276000D01*
X264450315Y-100343039D01*
X264397511Y-100388794D01*
X264346000Y-100400000D01*
X261604000Y-100400000D01*
X261536961Y-100380315D01*
X261491206Y-100327511D01*
X261480000Y-100276000D01*
X261480000Y-94624000D01*
X261499685Y-94556961D01*
X261552489Y-94511206D01*
X261604000Y-94500000D01*
X264346000Y-94500000D01*
X264413039Y-94519685D01*
G37*
%TD.AperFunction*%
%TD*%
M02*
