%TF.GenerationSoftware,KiCad,Pcbnew,8.0.1-8.0.1-1~ubuntu22.04.1*%
%TF.CreationDate,2024-03-26T17:18:08+01:00*%
%TF.ProjectId,espdrone,65737064-726f-46e6-952e-6b696361645f,rev?*%
%TF.SameCoordinates,Original*%
%TF.FileFunction,Soldermask,Bot*%
%TF.FilePolarity,Negative*%
%FSLAX46Y46*%
G04 Gerber Fmt 4.6, Leading zero omitted, Abs format (unit mm)*
G04 Created by KiCad (PCBNEW 8.0.1-8.0.1-1~ubuntu22.04.1) date 2024-03-26 17:18:08*
%MOMM*%
%LPD*%
G01*
G04 APERTURE LIST*
G04 Aperture macros list*
%AMRoundRect*
0 Rectangle with rounded corners*
0 $1 Rounding radius*
0 $2 $3 $4 $5 $6 $7 $8 $9 X,Y pos of 4 corners*
0 Add a 4 corners polygon primitive as box body*
4,1,4,$2,$3,$4,$5,$6,$7,$8,$9,$2,$3,0*
0 Add four circle primitives for the rounded corners*
1,1,$1+$1,$2,$3*
1,1,$1+$1,$4,$5*
1,1,$1+$1,$6,$7*
1,1,$1+$1,$8,$9*
0 Add four rect primitives between the rounded corners*
20,1,$1+$1,$2,$3,$4,$5,0*
20,1,$1+$1,$4,$5,$6,$7,0*
20,1,$1+$1,$6,$7,$8,$9,0*
20,1,$1+$1,$8,$9,$2,$3,0*%
%AMRotRect*
0 Rectangle, with rotation*
0 The origin of the aperture is its center*
0 $1 length*
0 $2 width*
0 $3 Rotation angle, in degrees counterclockwise*
0 Add horizontal line*
21,1,$1,$2,0,0,$3*%
G04 Aperture macros list end*
%ADD10C,1.300000*%
%ADD11C,1.000000*%
%ADD12C,0.700000*%
%ADD13O,2.000000X1.100000*%
%ADD14O,1.800000X1.200000*%
%ADD15C,2.100000*%
%ADD16C,3.800000*%
%ADD17C,0.900000*%
%ADD18RoundRect,0.225000X0.335876X0.017678X0.017678X0.335876X-0.335876X-0.017678X-0.017678X-0.335876X0*%
%ADD19RoundRect,0.500000X-0.500000X0.500000X-0.500000X-0.500000X0.500000X-0.500000X0.500000X0.500000X0*%
%ADD20RoundRect,0.225000X-0.017678X0.335876X-0.335876X0.017678X0.017678X-0.335876X0.335876X-0.017678X0*%
%ADD21RotRect,0.700000X0.700000X45.000000*%
%ADD22RotRect,0.700000X0.700000X135.000000*%
%ADD23RoundRect,0.225000X0.017678X-0.335876X0.335876X-0.017678X-0.017678X0.335876X-0.335876X0.017678X0*%
%ADD24RotRect,0.700000X0.700000X225.000000*%
%ADD25RoundRect,0.225000X-0.335876X-0.017678X-0.017678X-0.335876X0.335876X0.017678X0.017678X0.335876X0*%
%ADD26RotRect,0.700000X0.700000X315.000000*%
G04 APERTURE END LIST*
D10*
%TO.C,REF\u002A\u002A*%
X144250000Y-129500000D03*
%TD*%
D11*
%TO.C,Card1*%
X120400000Y-94600000D03*
X120400000Y-86600000D03*
%TD*%
%TO.C,BAT PWR*%
X77750000Y-87500000D03*
X80750000Y-87500000D03*
%TD*%
D12*
%TO.C,USB1*%
X80420000Y-73910000D03*
X80420000Y-79690000D03*
D13*
X80950000Y-72480000D03*
D14*
X76740000Y-72480000D03*
D13*
X80950000Y-81120000D03*
D14*
X76740000Y-81120000D03*
%TD*%
D15*
%TO.C,H1*%
X78000000Y-107000000D03*
%TD*%
D16*
%TO.C,TP10*%
X81250000Y-97400000D03*
%TD*%
%TO.C,TP9*%
X86500000Y-97400000D03*
%TD*%
D15*
%TO.C,H2*%
X122000000Y-107000000D03*
%TD*%
%TO.C,H4*%
X78000000Y-63000000D03*
%TD*%
D10*
%TO.C,REF\u002A\u002A*%
X144250000Y-39750000D03*
%TD*%
D17*
%TO.C,BOOT*%
X122855000Y-75900000D03*
X122855000Y-72900000D03*
%TD*%
D15*
%TO.C,H3*%
X122000000Y-63000000D03*
%TD*%
D10*
%TO.C,REF\u002A\u002A*%
X55250000Y-129000000D03*
%TD*%
D18*
%TO.C,C20*%
X134016567Y-51905653D03*
X132920551Y-50809637D03*
%TD*%
D19*
%TO.C,J4*%
X113300000Y-70200000D03*
X113300000Y-72700000D03*
X113300000Y-75200000D03*
X113300000Y-77700000D03*
X115800000Y-70200000D03*
X115800000Y-72700000D03*
X115800000Y-75200000D03*
X115800000Y-77700000D03*
%TD*%
D20*
%TO.C,C1*%
X66693988Y-51000000D03*
X65597972Y-52096016D03*
%TD*%
D21*
%TO.C,D3*%
X134741906Y-120785911D03*
X133964089Y-120008094D03*
X135258094Y-118714089D03*
X136035911Y-119491906D03*
%TD*%
D22*
%TO.C,D2*%
X136000000Y-50000000D03*
X135222183Y-50777817D03*
X133928178Y-49483812D03*
X134705995Y-48705995D03*
%TD*%
D23*
%TO.C,C19*%
X132889286Y-118749444D03*
X133985302Y-117653428D03*
%TD*%
D24*
%TO.C,D5*%
X64818387Y-48937017D03*
X65596204Y-49714834D03*
X64302199Y-51008839D03*
X63524382Y-50231022D03*
%TD*%
D25*
%TO.C,C2*%
X65992462Y-117853375D03*
X67088478Y-118949391D03*
%TD*%
D26*
%TO.C,D4*%
X63955995Y-119705995D03*
X64733812Y-118928178D03*
X66027817Y-120222183D03*
X65250000Y-121000000D03*
%TD*%
M02*
