%TF.GenerationSoftware,KiCad,Pcbnew,10.0.5*%
%TF.CreationDate,2026-09-20T01:47:09+02:00*%
%TF.ProjectId,espdrone,65737064-726f-46e6-952e-6b696361645f,rev?*%
%TF.SameCoordinates,Original*%
%TF.FileFunction,Legend,Top*%
%TF.FilePolarity,Positive*%
%FSLAX46Y46*%
G04 Gerber Fmt 4.6, Leading zero omitted, Abs format (unit mm)*
G04 Created by KiCad (PCBNEW 10.0.5) date 2026-09-20 01:47:09*
%MOMM*%
%LPD*%
G01*
G04 APERTURE LIST*
%ADD10C,0.120000*%
%ADD11C,0.200000*%
%ADD12C,0.060000*%
%ADD13C,0.250000*%
%ADD14C,0.150000*%
%ADD15C,0.240000*%
G04 APERTURE END LIST*
%TO.C,C193*%
D10*
X248965000Y-99986254D02*
X248965000Y-101408758D01*
X251685000Y-99986254D02*
X251685000Y-101408758D01*
%TO.C,U9*%
D11*
X253450000Y-95252500D02*
X253960000Y-95252500D01*
X253450000Y-95302500D02*
X253450000Y-95252500D01*
X253450000Y-97452500D02*
X253450000Y-97402500D01*
X253450000Y-97452500D02*
X253950000Y-97452500D01*
X255440000Y-95252500D02*
X255950000Y-95252500D01*
X255440000Y-97452500D02*
X255950000Y-97452500D01*
X255950000Y-95302500D02*
X255950000Y-95252500D01*
X255950000Y-97452500D02*
X255950000Y-97402500D01*
D12*
X253480000Y-97352500D02*
G75*
G02*
X253420000Y-97352500I-30000J0D01*
G01*
X253420000Y-97352500D02*
G75*
G02*
X253480000Y-97352500I30000J0D01*
G01*
D11*
X254300000Y-97852500D02*
G75*
G02*
X254100000Y-97852500I-100000J0D01*
G01*
X254100000Y-97852500D02*
G75*
G02*
X254300000Y-97852500I100000J0D01*
G01*
%TO.C,C80*%
D10*
X253638748Y-92265000D02*
X254161252Y-92265000D01*
X253638748Y-93735000D02*
X254161252Y-93735000D01*
%TO.C,C200*%
X232765000Y-99986254D02*
X232765000Y-101408758D01*
X235485000Y-99986254D02*
X235485000Y-101408758D01*
%TO.C,Q14*%
D11*
X250515000Y-77312494D02*
X250515000Y-77502494D01*
X250515000Y-77312494D02*
X251715000Y-77312494D01*
X250515000Y-80262494D02*
X250515000Y-80462494D01*
X251715000Y-80462494D02*
X250515000Y-80462494D01*
X252425000Y-77312494D02*
X253615000Y-77312494D01*
X253615000Y-77312494D02*
X253615000Y-77472494D01*
X253615000Y-80332494D02*
X253615000Y-80462494D01*
X253615000Y-80462494D02*
X252425000Y-80462494D01*
X249915000Y-77902494D02*
G75*
G02*
X249715000Y-77902494I-100000J0D01*
G01*
X249715000Y-77902494D02*
G75*
G02*
X249915000Y-77902494I100000J0D01*
G01*
D12*
X250425000Y-77302494D02*
G75*
G02*
X250365000Y-77302494I-30000J0D01*
G01*
X250365000Y-77302494D02*
G75*
G02*
X250425000Y-77302494I30000J0D01*
G01*
%TO.C,Q17*%
D11*
X241855000Y-103507506D02*
X242015000Y-103507506D01*
X241855000Y-104697506D02*
X241855000Y-103507506D01*
X241855000Y-106607506D02*
X241855000Y-105407506D01*
X241855000Y-106607506D02*
X242045000Y-106607506D01*
X244805000Y-106607506D02*
X245005000Y-106607506D01*
X244875000Y-103507506D02*
X245005000Y-103507506D01*
X245005000Y-103507506D02*
X245005000Y-104697506D01*
X245005000Y-105407506D02*
X245005000Y-106607506D01*
D12*
X241875000Y-106727506D02*
G75*
G02*
X241815000Y-106727506I-30000J0D01*
G01*
X241815000Y-106727506D02*
G75*
G02*
X241875000Y-106727506I30000J0D01*
G01*
D11*
X242545000Y-107307506D02*
G75*
G02*
X242345000Y-107307506I-100000J0D01*
G01*
X242345000Y-107307506D02*
G75*
G02*
X242545000Y-107307506I100000J0D01*
G01*
%TO.C,Q5*%
X232620000Y-82090000D02*
X232620000Y-80890000D01*
X232620000Y-83990000D02*
X232620000Y-82800000D01*
X232750000Y-83990000D02*
X232620000Y-83990000D01*
X232820000Y-80890000D02*
X232620000Y-80890000D01*
X235770000Y-80890000D02*
X235580000Y-80890000D01*
X235770000Y-80890000D02*
X235770000Y-82090000D01*
X235770000Y-82800000D02*
X235770000Y-83990000D01*
X235770000Y-83990000D02*
X235610000Y-83990000D01*
X235280000Y-80190000D02*
G75*
G02*
X235080000Y-80190000I-100000J0D01*
G01*
X235080000Y-80190000D02*
G75*
G02*
X235280000Y-80190000I100000J0D01*
G01*
D12*
X235810000Y-80770000D02*
G75*
G02*
X235750000Y-80770000I-30000J0D01*
G01*
X235750000Y-80770000D02*
G75*
G02*
X235810000Y-80770000I30000J0D01*
G01*
%TO.C,Q10*%
D11*
X241490000Y-77340000D02*
X242680000Y-77340000D01*
X241490000Y-77470000D02*
X241490000Y-77340000D01*
X241490000Y-80490000D02*
X241490000Y-80330000D01*
X242680000Y-80490000D02*
X241490000Y-80490000D01*
X243390000Y-77340000D02*
X244590000Y-77340000D01*
X244590000Y-77540000D02*
X244590000Y-77340000D01*
X244590000Y-80490000D02*
X243390000Y-80490000D01*
X244590000Y-80490000D02*
X244590000Y-80300000D01*
D12*
X244740000Y-80500000D02*
G75*
G02*
X244680000Y-80500000I-30000J0D01*
G01*
X244680000Y-80500000D02*
G75*
G02*
X244740000Y-80500000I30000J0D01*
G01*
D11*
X245390000Y-79900000D02*
G75*
G02*
X245190000Y-79900000I-100000J0D01*
G01*
X245190000Y-79900000D02*
G75*
G02*
X245390000Y-79900000I100000J0D01*
G01*
%TO.C,C201*%
D10*
X245765000Y-99986254D02*
X245765000Y-101408758D01*
X248485000Y-99986254D02*
X248485000Y-101408758D01*
%TO.C,Q20*%
D11*
X236985000Y-107037506D02*
X238175000Y-107037506D01*
X236985000Y-107167506D02*
X236985000Y-107037506D01*
X236985000Y-110187506D02*
X236985000Y-110027506D01*
X238175000Y-110187506D02*
X236985000Y-110187506D01*
X238885000Y-107037506D02*
X240085000Y-107037506D01*
X240085000Y-107237506D02*
X240085000Y-107037506D01*
X240085000Y-110187506D02*
X238885000Y-110187506D01*
X240085000Y-110187506D02*
X240085000Y-109997506D01*
D12*
X240235000Y-110197506D02*
G75*
G02*
X240175000Y-110197506I-30000J0D01*
G01*
X240175000Y-110197506D02*
G75*
G02*
X240235000Y-110197506I30000J0D01*
G01*
D11*
X240885000Y-109597506D02*
G75*
G02*
X240685000Y-109597506I-100000J0D01*
G01*
X240685000Y-109597506D02*
G75*
G02*
X240885000Y-109597506I100000J0D01*
G01*
%TO.C,Q26*%
X249985000Y-107037506D02*
X251175000Y-107037506D01*
X249985000Y-107167506D02*
X249985000Y-107037506D01*
X249985000Y-110187506D02*
X249985000Y-110027506D01*
X251175000Y-110187506D02*
X249985000Y-110187506D01*
X251885000Y-107037506D02*
X253085000Y-107037506D01*
X253085000Y-107237506D02*
X253085000Y-107037506D01*
X253085000Y-110187506D02*
X251885000Y-110187506D01*
X253085000Y-110187506D02*
X253085000Y-109997506D01*
D12*
X253235000Y-110197506D02*
G75*
G02*
X253175000Y-110197506I-30000J0D01*
G01*
X253175000Y-110197506D02*
G75*
G02*
X253235000Y-110197506I30000J0D01*
G01*
D11*
X253885000Y-109597506D02*
G75*
G02*
X253685000Y-109597506I-100000J0D01*
G01*
X253685000Y-109597506D02*
G75*
G02*
X253885000Y-109597506I100000J0D01*
G01*
%TO.C,C199*%
D10*
X255115000Y-87513746D02*
X255115000Y-86091242D01*
X257835000Y-87513746D02*
X257835000Y-86091242D01*
%TO.C,C113*%
X232540000Y-87511252D02*
X232540000Y-86088748D01*
X235260000Y-87511252D02*
X235260000Y-86088748D01*
%TO.C,Q23*%
D11*
X254855000Y-103507506D02*
X255015000Y-103507506D01*
X254855000Y-104697506D02*
X254855000Y-103507506D01*
X254855000Y-106607506D02*
X254855000Y-105407506D01*
X254855000Y-106607506D02*
X255045000Y-106607506D01*
X257805000Y-106607506D02*
X258005000Y-106607506D01*
X257875000Y-103507506D02*
X258005000Y-103507506D01*
X258005000Y-103507506D02*
X258005000Y-104697506D01*
X258005000Y-105407506D02*
X258005000Y-106607506D01*
D12*
X254875000Y-106727506D02*
G75*
G02*
X254815000Y-106727506I-30000J0D01*
G01*
X254815000Y-106727506D02*
G75*
G02*
X254875000Y-106727506I30000J0D01*
G01*
D11*
X255545000Y-107307506D02*
G75*
G02*
X255345000Y-107307506I-100000J0D01*
G01*
X255345000Y-107307506D02*
G75*
G02*
X255545000Y-107307506I100000J0D01*
G01*
%TO.C,Q24*%
X254185000Y-107007506D02*
X254185000Y-107197506D01*
X254185000Y-107007506D02*
X255385000Y-107007506D01*
X254185000Y-109957506D02*
X254185000Y-110157506D01*
X255385000Y-110157506D02*
X254185000Y-110157506D01*
X256095000Y-107007506D02*
X257285000Y-107007506D01*
X257285000Y-107007506D02*
X257285000Y-107167506D01*
X257285000Y-110027506D02*
X257285000Y-110157506D01*
X257285000Y-110157506D02*
X256095000Y-110157506D01*
X253585000Y-107597506D02*
G75*
G02*
X253385000Y-107597506I-100000J0D01*
G01*
X253385000Y-107597506D02*
G75*
G02*
X253585000Y-107597506I100000J0D01*
G01*
D12*
X254095000Y-106997506D02*
G75*
G02*
X254035000Y-106997506I-30000J0D01*
G01*
X254035000Y-106997506D02*
G75*
G02*
X254095000Y-106997506I30000J0D01*
G01*
%TO.C,C162*%
D10*
X239165000Y-99986254D02*
X239165000Y-101408758D01*
X241885000Y-99986254D02*
X241885000Y-101408758D01*
%TO.C,C185*%
X255365000Y-99986254D02*
X255365000Y-101408758D01*
X258085000Y-99986254D02*
X258085000Y-101408758D01*
%TO.C,U3*%
X237545000Y-91290000D02*
X237740000Y-91290000D01*
X237545000Y-97510000D02*
X237545000Y-91290000D01*
X237740000Y-97510000D02*
X237545000Y-97510000D01*
X242570000Y-91290000D02*
X242765000Y-91290000D01*
X242765000Y-91290000D02*
X242765000Y-97510000D01*
X242765000Y-97510000D02*
X242570000Y-97510000D01*
X242065000Y-91060000D02*
X241825000Y-90730000D01*
X242305000Y-90730001D01*
X242065000Y-91060000D01*
G36*
X242305000Y-90730001D02*
G01*
X242065000Y-91060000D01*
X241825000Y-90730000D01*
X242305000Y-90730001D01*
G37*
%TO.C,U8*%
D11*
X259300000Y-92800000D02*
X257900000Y-92800000D01*
X259300000Y-95000000D02*
X257900000Y-95000000D01*
X257630000Y-92760000D02*
G75*
G02*
X257632632Y-92759973I0J130000D01*
G01*
D12*
X257580000Y-92900000D02*
G75*
G02*
X257520000Y-92900000I-30000J0D01*
G01*
X257520000Y-92900000D02*
G75*
G02*
X257580000Y-92900000I30000J0D01*
G01*
%TO.C,C75*%
D10*
X231090000Y-104140580D02*
X231090000Y-103859420D01*
X232110000Y-104140580D02*
X232110000Y-103859420D01*
%TO.C,C76*%
X249527836Y-92980000D02*
X249312164Y-92980000D01*
X249527836Y-93700000D02*
X249312164Y-93700000D01*
%TO.C,C161*%
X242365000Y-99986254D02*
X242365000Y-101408758D01*
X245085000Y-99986254D02*
X245085000Y-101408758D01*
%TO.C,Q21*%
D11*
X232905000Y-103507506D02*
X233065000Y-103507506D01*
X232905000Y-104697506D02*
X232905000Y-103507506D01*
X232905000Y-106607506D02*
X232905000Y-105407506D01*
X232905000Y-106607506D02*
X233095000Y-106607506D01*
X235855000Y-106607506D02*
X236055000Y-106607506D01*
X235925000Y-103507506D02*
X236055000Y-103507506D01*
X236055000Y-103507506D02*
X236055000Y-104697506D01*
X236055000Y-105407506D02*
X236055000Y-106607506D01*
D12*
X232925000Y-106727506D02*
G75*
G02*
X232865000Y-106727506I-30000J0D01*
G01*
X232865000Y-106727506D02*
G75*
G02*
X232925000Y-106727506I30000J0D01*
G01*
D11*
X233595000Y-107307506D02*
G75*
G02*
X233395000Y-107307506I-100000J0D01*
G01*
X233395000Y-107307506D02*
G75*
G02*
X233595000Y-107307506I100000J0D01*
G01*
%TO.C,U10*%
D13*
X225562500Y-85150000D02*
X225562500Y-105050000D01*
X225562500Y-105050000D02*
X227692500Y-105050000D01*
X227532500Y-85150000D02*
X225562500Y-85150000D01*
X229852500Y-105050000D02*
X230762500Y-105050000D01*
X230762500Y-85150000D02*
X229692500Y-85150000D01*
X230762500Y-87620000D02*
X230762500Y-85200000D01*
X230762500Y-88620000D02*
X230762500Y-88580000D01*
X230762500Y-89620000D02*
X230762500Y-89580000D01*
X230762500Y-90620000D02*
X230762500Y-90580000D01*
X230762500Y-91620000D02*
X230762500Y-91580000D01*
X230762500Y-92620000D02*
X230762500Y-92580000D01*
X230762500Y-93620000D02*
X230762500Y-93580000D01*
X230762500Y-94620000D02*
X230762500Y-94580000D01*
X230762500Y-95620000D02*
X230762500Y-95580000D01*
X230762500Y-96620000D02*
X230762500Y-96580000D01*
X230762500Y-97620000D02*
X230762500Y-97580000D01*
X230762500Y-98620000D02*
X230762500Y-98580000D01*
X230762500Y-99620000D02*
X230762500Y-99580000D01*
X230762500Y-100620000D02*
X230762500Y-100580000D01*
X230762500Y-101620000D02*
X230762500Y-101580000D01*
X230762500Y-105050000D02*
X230762500Y-102580000D01*
X230932500Y-87080000D02*
X231442500Y-87080000D01*
X231192500Y-87340000D02*
X230932500Y-87080000D01*
X231442500Y-87080000D02*
X231192500Y-87340000D01*
D12*
X231632500Y-85150000D02*
G75*
G02*
X231572500Y-85150000I-30000J0D01*
G01*
X231572500Y-85150000D02*
G75*
G02*
X231632500Y-85150000I30000J0D01*
G01*
%TO.C,C186*%
D10*
X252165000Y-99986254D02*
X252165000Y-101408758D01*
X254885000Y-99986254D02*
X254885000Y-101408758D01*
%TO.C,C169*%
X235965000Y-99986254D02*
X235965000Y-101408758D01*
X238685000Y-99986254D02*
X238685000Y-101408758D01*
%TO.C,R3*%
D14*
X259958289Y-92212500D02*
X259958289Y-93902500D01*
X259958289Y-92212500D02*
X264648289Y-92212500D01*
X259958289Y-96242500D02*
X259958289Y-94562500D01*
X264648289Y-92212500D02*
X264648289Y-96242500D01*
X264648289Y-96242500D02*
X259958289Y-96242500D01*
X259958289Y-93902500D02*
G75*
G02*
X259951711Y-94565214I-140001J-330000D01*
G01*
D15*
X260288289Y-96622500D02*
G75*
G02*
X260048289Y-96622500I-120000J0D01*
G01*
X260048289Y-96622500D02*
G75*
G02*
X260288289Y-96622500I120000J0D01*
G01*
D12*
X260278289Y-95782500D02*
G75*
G02*
X260218289Y-95782500I-30000J0D01*
G01*
X260218289Y-95782500D02*
G75*
G02*
X260278289Y-95782500I30000J0D01*
G01*
%TO.C,L5*%
D10*
X247161252Y-90367500D02*
X246638748Y-90367500D01*
X247161252Y-92587500D02*
X246638748Y-92587500D01*
%TO.C,C138*%
X248715000Y-87513746D02*
X248715000Y-86091242D01*
X251435000Y-87513746D02*
X251435000Y-86091242D01*
%TO.C,Q18*%
D11*
X241185000Y-107007506D02*
X241185000Y-107197506D01*
X241185000Y-107007506D02*
X242385000Y-107007506D01*
X241185000Y-109957506D02*
X241185000Y-110157506D01*
X242385000Y-110157506D02*
X241185000Y-110157506D01*
X243095000Y-107007506D02*
X244285000Y-107007506D01*
X244285000Y-107007506D02*
X244285000Y-107167506D01*
X244285000Y-110027506D02*
X244285000Y-110157506D01*
X244285000Y-110157506D02*
X243095000Y-110157506D01*
X240585000Y-107597506D02*
G75*
G02*
X240385000Y-107597506I-100000J0D01*
G01*
X240385000Y-107597506D02*
G75*
G02*
X240585000Y-107597506I100000J0D01*
G01*
D12*
X241095000Y-106997506D02*
G75*
G02*
X241035000Y-106997506I-30000J0D01*
G01*
X241035000Y-106997506D02*
G75*
G02*
X241095000Y-106997506I30000J0D01*
G01*
%TO.C,Q13*%
D11*
X251045000Y-82092494D02*
X251045000Y-80892494D01*
X251045000Y-83992494D02*
X251045000Y-82802494D01*
X251175000Y-83992494D02*
X251045000Y-83992494D01*
X251245000Y-80892494D02*
X251045000Y-80892494D01*
X254195000Y-80892494D02*
X254005000Y-80892494D01*
X254195000Y-80892494D02*
X254195000Y-82092494D01*
X254195000Y-82802494D02*
X254195000Y-83992494D01*
X254195000Y-83992494D02*
X254035000Y-83992494D01*
X253705000Y-80192494D02*
G75*
G02*
X253505000Y-80192494I-100000J0D01*
G01*
X253505000Y-80192494D02*
G75*
G02*
X253705000Y-80192494I100000J0D01*
G01*
D12*
X254235000Y-80772494D02*
G75*
G02*
X254175000Y-80772494I-30000J0D01*
G01*
X254175000Y-80772494D02*
G75*
G02*
X254235000Y-80772494I30000J0D01*
G01*
%TO.C,Q11*%
D11*
X245595000Y-82092494D02*
X245595000Y-80892494D01*
X245595000Y-83992494D02*
X245595000Y-82802494D01*
X245725000Y-83992494D02*
X245595000Y-83992494D01*
X245795000Y-80892494D02*
X245595000Y-80892494D01*
X248745000Y-80892494D02*
X248555000Y-80892494D01*
X248745000Y-80892494D02*
X248745000Y-82092494D01*
X248745000Y-82802494D02*
X248745000Y-83992494D01*
X248745000Y-83992494D02*
X248585000Y-83992494D01*
X248255000Y-80192494D02*
G75*
G02*
X248055000Y-80192494I-100000J0D01*
G01*
X248055000Y-80192494D02*
G75*
G02*
X248255000Y-80192494I100000J0D01*
G01*
D12*
X248785000Y-80772494D02*
G75*
G02*
X248725000Y-80772494I-30000J0D01*
G01*
X248725000Y-80772494D02*
G75*
G02*
X248785000Y-80772494I30000J0D01*
G01*
%TO.C,Q9*%
D11*
X241570000Y-82090000D02*
X241570000Y-80890000D01*
X241570000Y-83990000D02*
X241570000Y-82800000D01*
X241700000Y-83990000D02*
X241570000Y-83990000D01*
X241770000Y-80890000D02*
X241570000Y-80890000D01*
X244720000Y-80890000D02*
X244530000Y-80890000D01*
X244720000Y-80890000D02*
X244720000Y-82090000D01*
X244720000Y-82800000D02*
X244720000Y-83990000D01*
X244720000Y-83990000D02*
X244560000Y-83990000D01*
X244230000Y-80190000D02*
G75*
G02*
X244030000Y-80190000I-100000J0D01*
G01*
X244030000Y-80190000D02*
G75*
G02*
X244230000Y-80190000I100000J0D01*
G01*
D12*
X244760000Y-80770000D02*
G75*
G02*
X244700000Y-80770000I-30000J0D01*
G01*
X244700000Y-80770000D02*
G75*
G02*
X244760000Y-80770000I30000J0D01*
G01*
%TO.C,U7*%
D13*
X260947500Y-82470000D02*
X260947500Y-82380000D01*
X260947500Y-90020000D02*
X260947500Y-89930000D01*
X261587500Y-86200000D02*
X265237500Y-86200000D01*
X261637500Y-83000000D02*
X265237500Y-83000000D01*
X261637500Y-89400000D02*
X265237500Y-89400000D01*
X262717500Y-81530000D02*
X262347500Y-81530000D01*
X262717500Y-90850000D02*
X262347500Y-90850000D01*
X265237500Y-81530000D02*
X264747500Y-81530000D01*
X265237500Y-90850000D02*
X264747500Y-90850000D01*
X265237500Y-91220000D02*
X265237500Y-81180000D01*
X265237500Y-91220000D02*
X266337500Y-91220000D01*
X265597500Y-91220000D02*
X265597500Y-81180000D01*
X265967500Y-91220000D02*
X265967500Y-81180000D01*
X266337500Y-81180000D02*
X265237500Y-81180000D01*
X266337500Y-91220000D02*
X266337500Y-81180000D01*
X266667500Y-82900000D02*
X266337500Y-82900000D01*
X266667500Y-89500000D02*
X266337500Y-89500000D01*
X267287500Y-83000000D02*
X266667500Y-82900000D01*
X267287500Y-89400000D02*
X266667500Y-89500000D01*
X267287500Y-89400000D02*
X267287500Y-83000000D01*
D12*
X260617500Y-91220000D02*
G75*
G02*
X260557500Y-91220000I-30000J0D01*
G01*
X260557500Y-91220000D02*
G75*
G02*
X260617500Y-91220000I30000J0D01*
G01*
%TO.C,U15*%
D10*
X259025000Y-85550000D02*
X259575000Y-85550000D01*
X259025000Y-86850000D02*
X259575000Y-86850000D01*
X259575000Y-85550000D02*
X259575000Y-85750000D01*
X259575000Y-86850000D02*
X259575000Y-86650000D01*
X258595000Y-85440000D02*
X258315000Y-85440000D01*
X258595000Y-85160000D01*
X258595000Y-85440000D01*
G36*
X258595000Y-85440000D02*
G01*
X258315000Y-85440000D01*
X258595000Y-85160000D01*
X258595000Y-85440000D01*
G37*
%TO.C,C198*%
X242140000Y-87511252D02*
X242140000Y-86088748D01*
X244860000Y-87511252D02*
X244860000Y-86088748D01*
%TO.C,Q22*%
D11*
X233035000Y-107007506D02*
X233035000Y-107197506D01*
X233035000Y-107007506D02*
X234235000Y-107007506D01*
X233035000Y-109957506D02*
X233035000Y-110157506D01*
X234235000Y-110157506D02*
X233035000Y-110157506D01*
X234945000Y-107007506D02*
X236135000Y-107007506D01*
X236135000Y-107007506D02*
X236135000Y-107167506D01*
X236135000Y-110027506D02*
X236135000Y-110157506D01*
X236135000Y-110157506D02*
X234945000Y-110157506D01*
X232435000Y-107597506D02*
G75*
G02*
X232235000Y-107597506I-100000J0D01*
G01*
X232235000Y-107597506D02*
G75*
G02*
X232435000Y-107597506I100000J0D01*
G01*
D12*
X232945000Y-106997506D02*
G75*
G02*
X232885000Y-106997506I-30000J0D01*
G01*
X232885000Y-106997506D02*
G75*
G02*
X232945000Y-106997506I30000J0D01*
G01*
%TO.C,Q25*%
D11*
X249405000Y-103507506D02*
X249565000Y-103507506D01*
X249405000Y-104697506D02*
X249405000Y-103507506D01*
X249405000Y-106607506D02*
X249405000Y-105407506D01*
X249405000Y-106607506D02*
X249595000Y-106607506D01*
X252355000Y-106607506D02*
X252555000Y-106607506D01*
X252425000Y-103507506D02*
X252555000Y-103507506D01*
X252555000Y-103507506D02*
X252555000Y-104697506D01*
X252555000Y-105407506D02*
X252555000Y-106607506D01*
D12*
X249425000Y-106727506D02*
G75*
G02*
X249365000Y-106727506I-30000J0D01*
G01*
X249365000Y-106727506D02*
G75*
G02*
X249425000Y-106727506I30000J0D01*
G01*
D11*
X250095000Y-107307506D02*
G75*
G02*
X249895000Y-107307506I-100000J0D01*
G01*
X249895000Y-107307506D02*
G75*
G02*
X250095000Y-107307506I100000J0D01*
G01*
%TO.C,C78*%
D10*
X246936252Y-95065000D02*
X246413748Y-95065000D01*
X246936252Y-96535000D02*
X246413748Y-96535000D01*
%TO.C,U17*%
X248990000Y-92150000D02*
X248990000Y-90850000D01*
X251310000Y-92150000D02*
X251310000Y-91100000D01*
X251310000Y-90740000D02*
X251310000Y-90460000D01*
X251590000Y-90740000D01*
X251310000Y-90740000D01*
G36*
X251590000Y-90740000D02*
G01*
X251310000Y-90740000D01*
X251310000Y-90460000D01*
X251590000Y-90740000D01*
G37*
%TO.C,Q19*%
D11*
X236405000Y-103507506D02*
X236565000Y-103507506D01*
X236405000Y-104697506D02*
X236405000Y-103507506D01*
X236405000Y-106607506D02*
X236405000Y-105407506D01*
X236405000Y-106607506D02*
X236595000Y-106607506D01*
X239355000Y-106607506D02*
X239555000Y-106607506D01*
X239425000Y-103507506D02*
X239555000Y-103507506D01*
X239555000Y-103507506D02*
X239555000Y-104697506D01*
X239555000Y-105407506D02*
X239555000Y-106607506D01*
D12*
X236425000Y-106727506D02*
G75*
G02*
X236365000Y-106727506I-30000J0D01*
G01*
X236365000Y-106727506D02*
G75*
G02*
X236425000Y-106727506I30000J0D01*
G01*
D11*
X237095000Y-107307506D02*
G75*
G02*
X236895000Y-107307506I-100000J0D01*
G01*
X236895000Y-107307506D02*
G75*
G02*
X237095000Y-107307506I100000J0D01*
G01*
%TO.C,C121*%
D10*
X238940000Y-87511252D02*
X238940000Y-86088748D01*
X241660000Y-87511252D02*
X241660000Y-86088748D01*
%TO.C,Q12*%
D11*
X246315000Y-77342494D02*
X247505000Y-77342494D01*
X246315000Y-77472494D02*
X246315000Y-77342494D01*
X246315000Y-80492494D02*
X246315000Y-80332494D01*
X247505000Y-80492494D02*
X246315000Y-80492494D01*
X248215000Y-77342494D02*
X249415000Y-77342494D01*
X249415000Y-77542494D02*
X249415000Y-77342494D01*
X249415000Y-80492494D02*
X248215000Y-80492494D01*
X249415000Y-80492494D02*
X249415000Y-80302494D01*
D12*
X249565000Y-80502494D02*
G75*
G02*
X249505000Y-80502494I-30000J0D01*
G01*
X249505000Y-80502494D02*
G75*
G02*
X249565000Y-80502494I30000J0D01*
G01*
D11*
X250215000Y-79902494D02*
G75*
G02*
X250015000Y-79902494I-100000J0D01*
G01*
X250015000Y-79902494D02*
G75*
G02*
X250215000Y-79902494I100000J0D01*
G01*
%TO.C,C145*%
D10*
X251915000Y-87513746D02*
X251915000Y-86091242D01*
X254635000Y-87513746D02*
X254635000Y-86091242D01*
%TO.C,Q8*%
D11*
X237540000Y-77310000D02*
X237540000Y-77500000D01*
X237540000Y-77310000D02*
X238740000Y-77310000D01*
X237540000Y-80260000D02*
X237540000Y-80460000D01*
X238740000Y-80460000D02*
X237540000Y-80460000D01*
X239450000Y-77310000D02*
X240640000Y-77310000D01*
X240640000Y-77310000D02*
X240640000Y-77470000D01*
X240640000Y-80330000D02*
X240640000Y-80460000D01*
X240640000Y-80460000D02*
X239450000Y-80460000D01*
X236940000Y-77900000D02*
G75*
G02*
X236740000Y-77900000I-100000J0D01*
G01*
X236740000Y-77900000D02*
G75*
G02*
X236940000Y-77900000I100000J0D01*
G01*
D12*
X237450000Y-77300000D02*
G75*
G02*
X237390000Y-77300000I-30000J0D01*
G01*
X237390000Y-77300000D02*
G75*
G02*
X237450000Y-77300000I30000J0D01*
G01*
%TO.C,Q7*%
D11*
X238070000Y-82090000D02*
X238070000Y-80890000D01*
X238070000Y-83990000D02*
X238070000Y-82800000D01*
X238200000Y-83990000D02*
X238070000Y-83990000D01*
X238270000Y-80890000D02*
X238070000Y-80890000D01*
X241220000Y-80890000D02*
X241030000Y-80890000D01*
X241220000Y-80890000D02*
X241220000Y-82090000D01*
X241220000Y-82800000D02*
X241220000Y-83990000D01*
X241220000Y-83990000D02*
X241060000Y-83990000D01*
X240730000Y-80190000D02*
G75*
G02*
X240530000Y-80190000I-100000J0D01*
G01*
X240530000Y-80190000D02*
G75*
G02*
X240730000Y-80190000I100000J0D01*
G01*
D12*
X241260000Y-80770000D02*
G75*
G02*
X241200000Y-80770000I-30000J0D01*
G01*
X241200000Y-80770000D02*
G75*
G02*
X241260000Y-80770000I30000J0D01*
G01*
%TO.C,C137*%
D10*
X245515000Y-87513746D02*
X245515000Y-86091242D01*
X248235000Y-87513746D02*
X248235000Y-86091242D01*
%TO.C,C114*%
X235740000Y-87511252D02*
X235740000Y-86088748D01*
X238460000Y-87511252D02*
X238460000Y-86088748D01*
%TO.C,Q27*%
D11*
X245905000Y-103507506D02*
X246065000Y-103507506D01*
X245905000Y-104697506D02*
X245905000Y-103507506D01*
X245905000Y-106607506D02*
X245905000Y-105407506D01*
X245905000Y-106607506D02*
X246095000Y-106607506D01*
X248855000Y-106607506D02*
X249055000Y-106607506D01*
X248925000Y-103507506D02*
X249055000Y-103507506D01*
X249055000Y-103507506D02*
X249055000Y-104697506D01*
X249055000Y-105407506D02*
X249055000Y-106607506D01*
D12*
X245925000Y-106727506D02*
G75*
G02*
X245865000Y-106727506I-30000J0D01*
G01*
X245865000Y-106727506D02*
G75*
G02*
X245925000Y-106727506I30000J0D01*
G01*
D11*
X246595000Y-107307506D02*
G75*
G02*
X246395000Y-107307506I-100000J0D01*
G01*
X246395000Y-107307506D02*
G75*
G02*
X246595000Y-107307506I100000J0D01*
G01*
%TO.C,C79*%
D10*
X253638748Y-90265000D02*
X254161252Y-90265000D01*
X253638748Y-91735000D02*
X254161252Y-91735000D01*
%TO.C,Q28*%
D11*
X246035000Y-107007506D02*
X246035000Y-107197506D01*
X246035000Y-107007506D02*
X247235000Y-107007506D01*
X246035000Y-109957506D02*
X246035000Y-110157506D01*
X247235000Y-110157506D02*
X246035000Y-110157506D01*
X247945000Y-107007506D02*
X249135000Y-107007506D01*
X249135000Y-107007506D02*
X249135000Y-107167506D01*
X249135000Y-110027506D02*
X249135000Y-110157506D01*
X249135000Y-110157506D02*
X247945000Y-110157506D01*
X245435000Y-107597506D02*
G75*
G02*
X245235000Y-107597506I-100000J0D01*
G01*
X245235000Y-107597506D02*
G75*
G02*
X245435000Y-107597506I100000J0D01*
G01*
D12*
X245945000Y-106997506D02*
G75*
G02*
X245885000Y-106997506I-30000J0D01*
G01*
X245885000Y-106997506D02*
G75*
G02*
X245945000Y-106997506I30000J0D01*
G01*
%TO.C,C77*%
D10*
X246936252Y-93092500D02*
X246413748Y-93092500D01*
X246936252Y-94562500D02*
X246413748Y-94562500D01*
%TO.C,Q6*%
D11*
X233340000Y-77340000D02*
X234530000Y-77340000D01*
X233340000Y-77470000D02*
X233340000Y-77340000D01*
X233340000Y-80490000D02*
X233340000Y-80330000D01*
X234530000Y-80490000D02*
X233340000Y-80490000D01*
X235240000Y-77340000D02*
X236440000Y-77340000D01*
X236440000Y-77540000D02*
X236440000Y-77340000D01*
X236440000Y-80490000D02*
X235240000Y-80490000D01*
X236440000Y-80490000D02*
X236440000Y-80300000D01*
D12*
X236590000Y-80500000D02*
G75*
G02*
X236530000Y-80500000I-30000J0D01*
G01*
X236530000Y-80500000D02*
G75*
G02*
X236590000Y-80500000I30000J0D01*
G01*
D11*
X237240000Y-79900000D02*
G75*
G02*
X237040000Y-79900000I-100000J0D01*
G01*
X237040000Y-79900000D02*
G75*
G02*
X237240000Y-79900000I100000J0D01*
G01*
%TO.C,Q16*%
X254465000Y-77342494D02*
X255655000Y-77342494D01*
X254465000Y-77472494D02*
X254465000Y-77342494D01*
X254465000Y-80492494D02*
X254465000Y-80332494D01*
X255655000Y-80492494D02*
X254465000Y-80492494D01*
X256365000Y-77342494D02*
X257565000Y-77342494D01*
X257565000Y-77542494D02*
X257565000Y-77342494D01*
X257565000Y-80492494D02*
X256365000Y-80492494D01*
X257565000Y-80492494D02*
X257565000Y-80302494D01*
D12*
X257715000Y-80502494D02*
G75*
G02*
X257655000Y-80502494I-30000J0D01*
G01*
X257655000Y-80502494D02*
G75*
G02*
X257715000Y-80502494I30000J0D01*
G01*
D11*
X258365000Y-79902494D02*
G75*
G02*
X258165000Y-79902494I-100000J0D01*
G01*
X258165000Y-79902494D02*
G75*
G02*
X258365000Y-79902494I100000J0D01*
G01*
%TO.C,Q15*%
X254545000Y-82092494D02*
X254545000Y-80892494D01*
X254545000Y-83992494D02*
X254545000Y-82802494D01*
X254675000Y-83992494D02*
X254545000Y-83992494D01*
X254745000Y-80892494D02*
X254545000Y-80892494D01*
X257695000Y-80892494D02*
X257505000Y-80892494D01*
X257695000Y-80892494D02*
X257695000Y-82092494D01*
X257695000Y-82802494D02*
X257695000Y-83992494D01*
X257695000Y-83992494D02*
X257535000Y-83992494D01*
X257205000Y-80192494D02*
G75*
G02*
X257005000Y-80192494I-100000J0D01*
G01*
X257005000Y-80192494D02*
G75*
G02*
X257205000Y-80192494I100000J0D01*
G01*
D12*
X257735000Y-80772494D02*
G75*
G02*
X257675000Y-80772494I-30000J0D01*
G01*
X257675000Y-80772494D02*
G75*
G02*
X257735000Y-80772494I30000J0D01*
G01*
%TD*%
M02*
