%TF.GenerationSoftware,KiCad,Pcbnew,10.0.6-10.0.6~ubuntu24.04.1*%
%TF.CreationDate,2026-09-21T04:17:46+02:00*%
%TF.ProjectId,espdrone,65737064-726f-46e6-952e-6b696361645f,rev?*%
%TF.SameCoordinates,Original*%
%TF.FileFunction,Legend,Top*%
%TF.FilePolarity,Positive*%
%FSLAX46Y46*%
G04 Gerber Fmt 4.6, Leading zero omitted, Abs format (unit mm)*
G04 Created by KiCad (PCBNEW 10.0.6-10.0.6~ubuntu24.04.1) date 2026-09-21 04:17:46*
%MOMM*%
%LPD*%
G01*
G04 APERTURE LIST*
%ADD10C,0.100000*%
%ADD11C,0.120000*%
%ADD12C,0.200000*%
%ADD13C,0.060000*%
%ADD14C,0.250000*%
%ADD15C,0.150000*%
%ADD16C,0.240000*%
G04 APERTURE END LIST*
D10*
X245100000Y-77200000D02*
X245100000Y-74400000D01*
X245600000Y-113000000D02*
X245600000Y-110200000D01*
X260591466Y-99496115D02*
X260591466Y-98734211D01*
X260972419Y-99115163D02*
X260210514Y-99115163D01*
X260591466Y-104496115D02*
X260591466Y-103734211D01*
%TO.C,C193*%
D11*
X248965000Y-99986254D02*
X248965000Y-101408758D01*
X251685000Y-99986254D02*
X251685000Y-101408758D01*
%TO.C,U9*%
D12*
X254100000Y-94800000D02*
X254610000Y-94800000D01*
X254100000Y-94850000D02*
X254100000Y-94800000D01*
X254100000Y-97000000D02*
X254100000Y-96950000D01*
X254100000Y-97000000D02*
X254600000Y-97000000D01*
X256090000Y-94800000D02*
X256600000Y-94800000D01*
X256090000Y-97000000D02*
X256600000Y-97000000D01*
X256600000Y-94850000D02*
X256600000Y-94800000D01*
X256600000Y-97000000D02*
X256600000Y-96950000D01*
D13*
X254130000Y-96900000D02*
G75*
G02*
X254070000Y-96900000I-30000J0D01*
G01*
X254070000Y-96900000D02*
G75*
G02*
X254130000Y-96900000I30000J0D01*
G01*
D12*
X254950000Y-97400000D02*
G75*
G02*
X254750000Y-97400000I-100000J0D01*
G01*
X254750000Y-97400000D02*
G75*
G02*
X254950000Y-97400000I100000J0D01*
G01*
%TO.C,C80*%
D11*
X253638748Y-92265000D02*
X254161252Y-92265000D01*
X253638748Y-93735000D02*
X254161252Y-93735000D01*
%TO.C,C200*%
X232765000Y-99986254D02*
X232765000Y-101408758D01*
X235485000Y-99986254D02*
X235485000Y-101408758D01*
%TO.C,Q14*%
D12*
X249915000Y-77902494D02*
G75*
G02*
X249715000Y-77902494I-100000J0D01*
G01*
X249715000Y-77902494D02*
G75*
G02*
X249915000Y-77902494I100000J0D01*
G01*
%TO.C,Q17*%
X242545000Y-107307506D02*
G75*
G02*
X242345000Y-107307506I-100000J0D01*
G01*
X242345000Y-107307506D02*
G75*
G02*
X242545000Y-107307506I100000J0D01*
G01*
%TO.C,Q5*%
X235280000Y-80190000D02*
G75*
G02*
X235080000Y-80190000I-100000J0D01*
G01*
X235080000Y-80190000D02*
G75*
G02*
X235280000Y-80190000I100000J0D01*
G01*
%TO.C,Q10*%
X245390000Y-79900000D02*
G75*
G02*
X245190000Y-79900000I-100000J0D01*
G01*
X245190000Y-79900000D02*
G75*
G02*
X245390000Y-79900000I100000J0D01*
G01*
%TO.C,C201*%
D11*
X245765000Y-99986254D02*
X245765000Y-101408758D01*
X248485000Y-99986254D02*
X248485000Y-101408758D01*
%TO.C,Q20*%
D12*
X240885000Y-109597506D02*
G75*
G02*
X240685000Y-109597506I-100000J0D01*
G01*
X240685000Y-109597506D02*
G75*
G02*
X240885000Y-109597506I100000J0D01*
G01*
%TO.C,Q26*%
X253885000Y-109597506D02*
G75*
G02*
X253685000Y-109597506I-100000J0D01*
G01*
X253685000Y-109597506D02*
G75*
G02*
X253885000Y-109597506I100000J0D01*
G01*
%TO.C,C199*%
D11*
X255115000Y-87513746D02*
X255115000Y-86091242D01*
X257835000Y-87513746D02*
X257835000Y-86091242D01*
%TO.C,C113*%
X232540000Y-87511252D02*
X232540000Y-86088748D01*
X235260000Y-87511252D02*
X235260000Y-86088748D01*
%TO.C,Q23*%
D12*
X255545000Y-107307506D02*
G75*
G02*
X255345000Y-107307506I-100000J0D01*
G01*
X255345000Y-107307506D02*
G75*
G02*
X255545000Y-107307506I100000J0D01*
G01*
%TO.C,Q24*%
X253585000Y-107597506D02*
G75*
G02*
X253385000Y-107597506I-100000J0D01*
G01*
X253385000Y-107597506D02*
G75*
G02*
X253585000Y-107597506I100000J0D01*
G01*
%TO.C,C162*%
D11*
X239165000Y-99986254D02*
X239165000Y-101408758D01*
X241885000Y-99986254D02*
X241885000Y-101408758D01*
%TO.C,C185*%
X255365000Y-99986254D02*
X255365000Y-101408758D01*
X258085000Y-99986254D02*
X258085000Y-101408758D01*
%TO.C,U3*%
X237545000Y-91290000D02*
X237740000Y-91290000D01*
X237545000Y-97510000D02*
X237545000Y-91290000D01*
X237740000Y-97510000D02*
X237545000Y-97510000D01*
X242570000Y-91290000D02*
X242765000Y-91290000D01*
X242765000Y-91290000D02*
X242765000Y-97510000D01*
X242765000Y-97510000D02*
X242570000Y-97510000D01*
X242065000Y-91060000D02*
X241825000Y-90730000D01*
X242305000Y-90730001D01*
X242065000Y-91060000D01*
G36*
X242305000Y-90730001D02*
G01*
X242065000Y-91060000D01*
X241825000Y-90730000D01*
X242305000Y-90730001D01*
G37*
%TO.C,U8*%
D12*
X259300000Y-92800000D02*
X257900000Y-92800000D01*
X259300000Y-95000000D02*
X257900000Y-95000000D01*
X257630000Y-92760000D02*
G75*
G02*
X257632632Y-92759973I0J130000D01*
G01*
D13*
X257580000Y-92900000D02*
G75*
G02*
X257520000Y-92900000I-30000J0D01*
G01*
X257520000Y-92900000D02*
G75*
G02*
X257580000Y-92900000I30000J0D01*
G01*
%TO.C,C75*%
D11*
X231090000Y-104140580D02*
X231090000Y-103859420D01*
X232110000Y-104140580D02*
X232110000Y-103859420D01*
%TO.C,C76*%
X249527836Y-92980000D02*
X249312164Y-92980000D01*
X249527836Y-93700000D02*
X249312164Y-93700000D01*
%TO.C,C161*%
X242365000Y-99986254D02*
X242365000Y-101408758D01*
X245085000Y-99986254D02*
X245085000Y-101408758D01*
%TO.C,Q21*%
D12*
X233595000Y-107307506D02*
G75*
G02*
X233395000Y-107307506I-100000J0D01*
G01*
X233395000Y-107307506D02*
G75*
G02*
X233595000Y-107307506I100000J0D01*
G01*
%TO.C,U10*%
D14*
X225562500Y-85150000D02*
X225562500Y-105050000D01*
X225562500Y-105050000D02*
X227692500Y-105050000D01*
X227532500Y-85150000D02*
X225562500Y-85150000D01*
X229852500Y-105050000D02*
X230762500Y-105050000D01*
X230762500Y-85150000D02*
X229692500Y-85150000D01*
X230762500Y-87620000D02*
X230762500Y-85200000D01*
X230762500Y-88620000D02*
X230762500Y-88580000D01*
X230762500Y-89620000D02*
X230762500Y-89580000D01*
X230762500Y-90620000D02*
X230762500Y-90580000D01*
X230762500Y-91620000D02*
X230762500Y-91580000D01*
X230762500Y-92620000D02*
X230762500Y-92580000D01*
X230762500Y-93620000D02*
X230762500Y-93580000D01*
X230762500Y-94620000D02*
X230762500Y-94580000D01*
X230762500Y-95620000D02*
X230762500Y-95580000D01*
X230762500Y-96620000D02*
X230762500Y-96580000D01*
X230762500Y-97620000D02*
X230762500Y-97580000D01*
X230762500Y-98620000D02*
X230762500Y-98580000D01*
X230762500Y-99620000D02*
X230762500Y-99580000D01*
X230762500Y-100620000D02*
X230762500Y-100580000D01*
X230762500Y-101620000D02*
X230762500Y-101580000D01*
X230762500Y-105050000D02*
X230762500Y-102580000D01*
X230932500Y-87080000D02*
X231442500Y-87080000D01*
X231192500Y-87340000D02*
X230932500Y-87080000D01*
X231442500Y-87080000D02*
X231192500Y-87340000D01*
D13*
X231632500Y-85150000D02*
G75*
G02*
X231572500Y-85150000I-30000J0D01*
G01*
X231572500Y-85150000D02*
G75*
G02*
X231632500Y-85150000I30000J0D01*
G01*
%TO.C,C186*%
D11*
X252165000Y-99986254D02*
X252165000Y-101408758D01*
X254885000Y-99986254D02*
X254885000Y-101408758D01*
%TO.C,C169*%
X235965000Y-99986254D02*
X235965000Y-101408758D01*
X238685000Y-99986254D02*
X238685000Y-101408758D01*
%TO.C,R3*%
D15*
X259958289Y-92212500D02*
X259958289Y-93902500D01*
X259958289Y-92212500D02*
X264648289Y-92212500D01*
X259958289Y-96242500D02*
X259958289Y-94562500D01*
X264648289Y-92212500D02*
X264648289Y-96242500D01*
X264648289Y-96242500D02*
X259958289Y-96242500D01*
X259958289Y-93902500D02*
G75*
G02*
X259951711Y-94565214I-140001J-330000D01*
G01*
D16*
X260288289Y-96622500D02*
G75*
G02*
X260048289Y-96622500I-120000J0D01*
G01*
X260048289Y-96622500D02*
G75*
G02*
X260288289Y-96622500I120000J0D01*
G01*
D13*
X260278289Y-95782500D02*
G75*
G02*
X260218289Y-95782500I-30000J0D01*
G01*
X260218289Y-95782500D02*
G75*
G02*
X260278289Y-95782500I30000J0D01*
G01*
%TO.C,L5*%
D11*
X247161252Y-90367500D02*
X246638748Y-90367500D01*
X247161252Y-92587500D02*
X246638748Y-92587500D01*
%TO.C,C138*%
X248715000Y-87513746D02*
X248715000Y-86091242D01*
X251435000Y-87513746D02*
X251435000Y-86091242D01*
%TO.C,Q18*%
D12*
X240585000Y-107597506D02*
G75*
G02*
X240385000Y-107597506I-100000J0D01*
G01*
X240385000Y-107597506D02*
G75*
G02*
X240585000Y-107597506I100000J0D01*
G01*
%TO.C,Q13*%
X253705000Y-80192494D02*
G75*
G02*
X253505000Y-80192494I-100000J0D01*
G01*
X253505000Y-80192494D02*
G75*
G02*
X253705000Y-80192494I100000J0D01*
G01*
%TO.C,Q11*%
X248255000Y-80192494D02*
G75*
G02*
X248055000Y-80192494I-100000J0D01*
G01*
X248055000Y-80192494D02*
G75*
G02*
X248255000Y-80192494I100000J0D01*
G01*
%TO.C,Q9*%
X244230000Y-80190000D02*
G75*
G02*
X244030000Y-80190000I-100000J0D01*
G01*
X244030000Y-80190000D02*
G75*
G02*
X244230000Y-80190000I100000J0D01*
G01*
%TO.C,U7*%
D14*
X260947500Y-82470000D02*
X260947500Y-82380000D01*
X260947500Y-90020000D02*
X260947500Y-89930000D01*
X262717500Y-81530000D02*
X262347500Y-81530000D01*
X262717500Y-90850000D02*
X262347500Y-90850000D01*
D13*
X260617500Y-91220000D02*
G75*
G02*
X260557500Y-91220000I-30000J0D01*
G01*
X260557500Y-91220000D02*
G75*
G02*
X260617500Y-91220000I30000J0D01*
G01*
%TO.C,U15*%
D11*
X259025000Y-85550000D02*
X259575000Y-85550000D01*
X259025000Y-86850000D02*
X259575000Y-86850000D01*
X259575000Y-85550000D02*
X259575000Y-85750000D01*
X259575000Y-86850000D02*
X259575000Y-86650000D01*
X258595000Y-85440000D02*
X258315000Y-85440000D01*
X258595000Y-85160000D01*
X258595000Y-85440000D01*
G36*
X258595000Y-85440000D02*
G01*
X258315000Y-85440000D01*
X258595000Y-85160000D01*
X258595000Y-85440000D01*
G37*
%TO.C,C198*%
X242140000Y-87511252D02*
X242140000Y-86088748D01*
X244860000Y-87511252D02*
X244860000Y-86088748D01*
%TO.C,Q22*%
D12*
X232435000Y-107597506D02*
G75*
G02*
X232235000Y-107597506I-100000J0D01*
G01*
X232235000Y-107597506D02*
G75*
G02*
X232435000Y-107597506I100000J0D01*
G01*
%TO.C,Q25*%
X250095000Y-107307506D02*
G75*
G02*
X249895000Y-107307506I-100000J0D01*
G01*
X249895000Y-107307506D02*
G75*
G02*
X250095000Y-107307506I100000J0D01*
G01*
%TO.C,C78*%
D11*
X246936252Y-95065000D02*
X246413748Y-95065000D01*
X246936252Y-96535000D02*
X246413748Y-96535000D01*
%TO.C,U17*%
X248990000Y-92150000D02*
X248990000Y-90850000D01*
X251310000Y-92150000D02*
X251310000Y-91100000D01*
X251310000Y-90740000D02*
X251310000Y-90460000D01*
X251590000Y-90740000D01*
X251310000Y-90740000D01*
G36*
X251590000Y-90740000D02*
G01*
X251310000Y-90740000D01*
X251310000Y-90460000D01*
X251590000Y-90740000D01*
G37*
%TO.C,Q19*%
D12*
X237095000Y-107307506D02*
G75*
G02*
X236895000Y-107307506I-100000J0D01*
G01*
X236895000Y-107307506D02*
G75*
G02*
X237095000Y-107307506I100000J0D01*
G01*
%TO.C,C121*%
D11*
X238940000Y-87511252D02*
X238940000Y-86088748D01*
X241660000Y-87511252D02*
X241660000Y-86088748D01*
%TO.C,Q12*%
D12*
X250215000Y-79902494D02*
G75*
G02*
X250015000Y-79902494I-100000J0D01*
G01*
X250015000Y-79902494D02*
G75*
G02*
X250215000Y-79902494I100000J0D01*
G01*
%TO.C,C145*%
D11*
X251915000Y-87513746D02*
X251915000Y-86091242D01*
X254635000Y-87513746D02*
X254635000Y-86091242D01*
%TO.C,Q8*%
D12*
X236940000Y-77900000D02*
G75*
G02*
X236740000Y-77900000I-100000J0D01*
G01*
X236740000Y-77900000D02*
G75*
G02*
X236940000Y-77900000I100000J0D01*
G01*
%TO.C,Q7*%
X240730000Y-80190000D02*
G75*
G02*
X240530000Y-80190000I-100000J0D01*
G01*
X240530000Y-80190000D02*
G75*
G02*
X240730000Y-80190000I100000J0D01*
G01*
%TO.C,C137*%
D11*
X245515000Y-87513746D02*
X245515000Y-86091242D01*
X248235000Y-87513746D02*
X248235000Y-86091242D01*
%TO.C,C114*%
X235740000Y-87511252D02*
X235740000Y-86088748D01*
X238460000Y-87511252D02*
X238460000Y-86088748D01*
%TO.C,Q27*%
D12*
X246595000Y-107307506D02*
G75*
G02*
X246395000Y-107307506I-100000J0D01*
G01*
X246395000Y-107307506D02*
G75*
G02*
X246595000Y-107307506I100000J0D01*
G01*
%TO.C,C79*%
D11*
X254438748Y-90215000D02*
X254961252Y-90215000D01*
X254438748Y-91685000D02*
X254961252Y-91685000D01*
%TO.C,Q28*%
D12*
X245435000Y-107597506D02*
G75*
G02*
X245235000Y-107597506I-100000J0D01*
G01*
X245235000Y-107597506D02*
G75*
G02*
X245435000Y-107597506I100000J0D01*
G01*
%TO.C,C77*%
D11*
X246936252Y-93092500D02*
X246413748Y-93092500D01*
X246936252Y-94562500D02*
X246413748Y-94562500D01*
%TO.C,Q6*%
D12*
X237240000Y-79900000D02*
G75*
G02*
X237040000Y-79900000I-100000J0D01*
G01*
X237040000Y-79900000D02*
G75*
G02*
X237240000Y-79900000I100000J0D01*
G01*
%TO.C,Q16*%
X258365000Y-79902494D02*
G75*
G02*
X258165000Y-79902494I-100000J0D01*
G01*
X258165000Y-79902494D02*
G75*
G02*
X258365000Y-79902494I100000J0D01*
G01*
%TO.C,Q15*%
X257205000Y-80192494D02*
G75*
G02*
X257005000Y-80192494I-100000J0D01*
G01*
X257005000Y-80192494D02*
G75*
G02*
X257205000Y-80192494I100000J0D01*
G01*
%TD*%
M02*
