M48
; DRILL file KiCad 10.0.6-10.0.6~ubuntu24.04.1 date 2026-09-21T04:17:43
; FORMAT={-:-/ absolute / metric / decimal}
; #@! TF.CreationDate,2026-09-21T04:17:43+02:00
; #@! TF.GenerationSoftware,Kicad,Pcbnew,10.0.6-10.0.6~ubuntu24.04.1
; #@! TF.FileFunction,Plated,1,6,PTH
FMAT,2
METRIC
; #@! TA.AperFunction,Plated,PTH,ViaDrill
T1C0.250
; #@! TA.AperFunction,Plated,PTH,ViaDrill
T2C0.300
; #@! TA.AperFunction,Plated,PTH,ComponentDrill
T3C0.500
; #@! TA.AperFunction,Plated,PTH,ComponentDrill
T4C0.500
%
G90
G05
T1
X226.461Y-98.061
X226.825Y-101.15
X226.852Y-91.2
X226.883Y-93.988
X226.887Y-83.5
X226.937Y-95.029
X227.0Y-105.3
X227.013Y-88.263
X227.095Y-102.275
X227.111Y-97.411
X227.139Y-98.739
X227.546Y-92.51
X227.612Y-93.106
X227.624Y-96.726
X227.792Y-84.4
X227.797Y-87.497
X227.837Y-94.259
X228.175Y-101.418
X228.2Y-104.3
X228.5Y-89.15
X228.637Y-83.5
X228.7Y-85.4
X228.779Y-95.263
X228.787Y-100.196
X228.877Y-92.371
X228.953Y-89.603
X229.074Y-96.899
X229.2Y-100.862
X229.232Y-91.864
X229.248Y-95.96
X229.272Y-99.842
X229.297Y-102.925
X229.483Y-93.917
X229.597Y-89.003
X229.614Y-81.959
X229.654Y-101.254
X229.674Y-99.126
X229.778Y-86.578
X230.126Y-98.674
X230.145Y-88.451
X230.183Y-101.6
X230.222Y-82.567
X230.5Y-103.0
X230.5Y-103.6
X230.835Y-87.798
X231.035Y-102.123
X231.173Y-91.127
X231.247Y-84.147
X231.259Y-101.159
X231.303Y-87.347
X231.525Y-75.275
X231.538Y-100.475
X232.269Y-100.592
X232.455Y-82.9
X232.5Y-79.78
X232.5Y-94.1
X232.547Y-81.083
X232.645Y-79.036
X232.648Y-100.047
X232.725Y-110.153
X232.77Y-103.998
X232.77Y-104.998
X232.775Y-107.598
X232.775Y-108.048
X232.775Y-108.498
X232.775Y-108.948
X232.803Y-106.436
X232.804Y-77.354
X232.89Y-103.198
X232.904Y-86.325
X232.92Y-101.042
X232.94Y-107.021
X233.15Y-110.797
X233.225Y-81.925
X233.225Y-108.048
X233.225Y-108.498
X233.225Y-108.948
X233.23Y-107.59
X233.25Y-76.5
X233.337Y-97.849
X233.7Y-81.925
X233.7Y-82.377
X233.7Y-96.0
X233.714Y-76.347
X233.913Y-100.25
X234.075Y-75.275
X234.1Y-74.8
X234.157Y-82.377
X234.175Y-81.925
X234.3Y-92.2
X234.35Y-88.075
X234.35Y-88.525
X234.45Y-85.675
X234.525Y-100.25
X234.542Y-75.257
X234.55Y-74.8
X234.625Y-112.298
X234.625Y-112.798
X234.719Y-87.325
X234.784Y-81.132
X234.8Y-88.075
X234.8Y-88.525
X235.0Y-74.8
X235.125Y-111.798
X235.125Y-112.298
X235.125Y-112.798
X235.147Y-97.848
X235.45Y-74.75
X235.506Y-101.006
X235.6Y-96.6
X235.603Y-86.32
X235.625Y-111.298
X235.625Y-111.798
X235.625Y-112.298
X235.625Y-112.798
X235.725Y-108.498
X235.75Y-97.25
X235.857Y-84.34
X235.894Y-74.846
X236.0Y-96.2
X236.1Y-94.0
X236.125Y-110.798
X236.125Y-111.298
X236.15Y-78.55
X236.15Y-79.0
X236.175Y-96.825
X236.189Y-101.173
X236.237Y-104.159
X236.25Y-83.25
X236.267Y-105.878
X236.27Y-104.758
X236.359Y-84.81
X236.375Y-75.601
X236.459Y-86.572
X236.6Y-78.55
X236.6Y-79.0
X236.6Y-79.45
X236.619Y-98.264
X236.725Y-75.113
X236.739Y-112.973
X236.85Y-84.81
X236.925Y-105.848
X236.954Y-87.067
X236.979Y-89.746
X237.004Y-80.631
X237.026Y-84.2
X237.048Y-105.348
X237.05Y-78.55
X237.05Y-79.0
X237.051Y-106.656
X237.054Y-110.208
X237.059Y-81.228
X237.189Y-98.45
X237.2Y-97.85
X237.246Y-104.406
X237.275Y-78.15
X237.275Y-104.898
X237.319Y-74.97
X237.339Y-112.973
X237.419Y-105.851
X237.437Y-75.459
X237.5Y-77.75
X237.5Y-78.55
X237.5Y-79.0
X237.525Y-105.348
X237.599Y-74.596
X237.63Y-95.285
X237.725Y-78.15
X237.725Y-104.398
X237.775Y-104.898
X237.8Y-86.11
X237.8Y-97.8
X237.878Y-100.85
X237.9Y-87.1
X237.919Y-105.814
X238.025Y-105.348
X238.118Y-90.885
X238.174Y-104.448
X238.224Y-98.224
X238.275Y-104.898
X238.3Y-92.4
X238.432Y-86.289
X238.556Y-74.637
X238.598Y-87.465
X238.629Y-97.781
X238.718Y-96.483
X238.972Y-101.341
X239.069Y-112.861
X239.35Y-82.6
X239.451Y-83.049
X239.55Y-92.25
X239.577Y-96.957
X239.6Y-82.15
X239.689Y-86.574
X239.7Y-100.85
X239.706Y-81.683
X239.85Y-82.6
X239.9Y-83.1
X239.9Y-109.348
X239.973Y-102.033
X240.015Y-97.689
X240.026Y-112.901
X240.1Y-82.15
X240.125Y-108.498
X240.125Y-108.948
X240.125Y-109.748
X240.127Y-88.75
X240.188Y-112.038
X240.206Y-81.646
X240.272Y-86.372
X240.286Y-74.525
X240.3Y-101.0
X240.306Y-112.527
X240.35Y-82.6
X240.35Y-109.348
X240.379Y-83.091
X240.45Y-102.05
X240.487Y-102.513
X240.566Y-106.27
X240.571Y-77.29
X240.574Y-80.842
X240.575Y-108.498
X240.575Y-108.948
X240.577Y-82.15
X240.598Y-90.883
X240.599Y-103.298
X240.62Y-88.88
X240.621Y-106.867
X240.7Y-81.65
X240.8Y-97.2
X240.886Y-74.525
X240.9Y-112.384
X240.957Y-102.557
X241.025Y-108.048
X241.025Y-108.498
X241.025Y-108.948
X241.25Y-111.897
X241.355Y-82.739
X241.358Y-81.619
X241.375Y-104.248
X241.388Y-83.338
X241.414Y-91.41
X241.475Y-108.498
X241.475Y-108.948
X241.5Y-76.2
X241.5Y-76.7
X241.5Y-92.719
X241.644Y-103.173
X241.731Y-112.651
X241.896Y-86.115
X241.9Y-79.0
X242.0Y-74.7
X242.0Y-75.2
X242.0Y-75.7
X242.0Y-76.2
X242.034Y-89.234
X242.175Y-112.748
X242.314Y-92.203
X242.5Y-74.7
X242.5Y-75.2
X242.5Y-75.7
X242.5Y-97.973
X242.625Y-112.698
X242.634Y-89.225
X242.681Y-94.549
X242.685Y-91.605
X242.841Y-106.366
X243.0Y-74.7
X243.0Y-75.2
X243.075Y-112.698
X243.083Y-112.241
X243.35Y-105.125
X243.35Y-105.575
X243.452Y-101.9
X243.525Y-112.698
X243.55Y-112.223
X243.8Y-105.125
X243.8Y-105.575
X243.835Y-100.85
X243.911Y-111.151
X243.916Y-101.9
X244.0Y-88.0
X244.05Y-92.855
X244.124Y-93.457
X244.25Y-105.125
X244.25Y-105.575
X244.276Y-97.96
X244.375Y-110.998
X244.4Y-78.55
X244.4Y-79.0
X244.4Y-79.45
X244.4Y-79.9
X244.475Y-76.7
X244.5Y-75.277
X244.5Y-88.0
X244.5Y-88.5
X244.614Y-93.804
X244.685Y-80.477
X244.7Y-105.125
X244.7Y-105.575
X244.735Y-84.3
X244.74Y-95.94
X244.821Y-110.144
X244.822Y-81.061
X244.85Y-78.55
X244.85Y-79.0
X244.85Y-79.45
X244.85Y-79.9
X244.855Y-82.5
X244.855Y-83.499
X244.9Y-77.345
X244.98Y-108.462
X245.078Y-106.414
X245.106Y-91.591
X245.125Y-107.718
X245.475Y-79.782
X245.477Y-86.301
X245.522Y-81.086
X245.575Y-97.973
X245.62Y-79.038
X245.7Y-88.05
X245.7Y-88.5
X245.7Y-96.15
X245.725Y-93.828
X245.725Y-94.3
X245.725Y-110.153
X245.75Y-95.65
X245.77Y-103.998
X245.77Y-104.998
X245.775Y-107.598
X245.775Y-108.048
X245.775Y-108.498
X245.775Y-108.948
X245.779Y-77.356
X245.803Y-106.436
X245.89Y-103.198
X245.9Y-81.95
X245.9Y-82.4
X245.9Y-82.85
X245.9Y-83.3
X245.9Y-83.75
X245.9Y-100.85
X245.94Y-107.021
X245.948Y-86.325
X246.1Y-112.223
X246.15Y-110.797
X246.225Y-76.502
X246.225Y-108.048
X246.225Y-108.498
X246.225Y-108.948
X246.23Y-107.59
X246.35Y-81.95
X246.35Y-82.4
X246.35Y-82.85
X246.35Y-83.3
X246.35Y-83.75
X246.689Y-76.349
X246.7Y-101.934
X246.8Y-81.95
X246.8Y-82.4
X246.8Y-82.85
X246.8Y-83.3
X246.8Y-83.75
X247.025Y-86.325
X247.05Y-75.277
X247.075Y-74.802
X247.131Y-100.85
X247.2Y-97.4
X247.2Y-101.9
X247.202Y-93.052
X247.229Y-101.442
X247.25Y-81.95
X247.25Y-82.4
X247.25Y-82.85
X247.25Y-83.3
X247.25Y-83.75
X247.435Y-98.065
X247.5Y-88.05
X247.5Y-88.5
X247.517Y-75.259
X247.524Y-86.301
X247.525Y-74.802
X247.625Y-112.298
X247.625Y-112.798
X247.68Y-101.45
X247.7Y-83.3
X247.7Y-83.75
X247.7Y-101.9
X247.759Y-81.134
X247.95Y-94.95
X247.975Y-74.802
X248.109Y-93.488
X248.125Y-111.798
X248.125Y-112.298
X248.125Y-112.798
X248.149Y-101.431
X248.2Y-101.9
X248.3Y-84.875
X248.425Y-74.752
X248.582Y-97.022
X248.625Y-111.298
X248.625Y-111.798
X248.625Y-112.298
X248.625Y-112.798
X248.725Y-108.498
X248.75Y-84.875
X248.75Y-85.325
X248.869Y-74.849
X249.035Y-96.57
X249.125Y-78.552
X249.125Y-79.002
X249.125Y-110.798
X249.125Y-111.298
X249.2Y-84.875
X249.2Y-85.325
X249.204Y-95.296
X249.225Y-83.252
X249.227Y-100.374
X249.237Y-104.159
X249.267Y-105.878
X249.27Y-104.758
X249.35Y-75.603
X249.366Y-90.792
X249.526Y-97.068
X249.575Y-78.552
X249.575Y-79.002
X249.575Y-79.452
X249.65Y-84.875
X249.65Y-85.325
X249.682Y-89.275
X249.7Y-75.116
X249.708Y-99.474
X249.739Y-112.973
X249.925Y-105.848
X249.979Y-80.633
X250.001Y-84.202
X250.018Y-97.567
X250.025Y-78.552
X250.025Y-79.002
X250.034Y-81.23
X250.048Y-105.348
X250.051Y-106.656
X250.054Y-110.208
X250.082Y-99.102
X250.1Y-85.325
X250.1Y-88.0
X250.246Y-104.406
X250.25Y-78.152
X250.275Y-104.898
X250.286Y-98.147
X250.294Y-74.973
X250.339Y-112.973
X250.412Y-75.462
X250.419Y-105.851
X250.475Y-77.752
X250.475Y-78.552
X250.475Y-79.002
X250.525Y-105.348
X250.574Y-74.599
X250.674Y-100.226
X250.7Y-78.152
X250.7Y-88.0
X250.725Y-104.398
X250.775Y-104.898
X250.919Y-105.814
X251.025Y-105.348
X251.174Y-104.448
X251.275Y-104.898
X251.281Y-100.377
X251.327Y-86.31
X251.338Y-88.49
X251.37Y-94.08
X251.4Y-99.2
X251.531Y-74.639
X251.972Y-101.341
X252.069Y-112.861
X252.325Y-82.602
X252.426Y-83.052
X252.575Y-82.152
X252.6Y-101.8
X252.681Y-81.686
X252.825Y-82.602
X252.875Y-83.102
X252.9Y-109.348
X253.019Y-101.981
X253.023Y-89.209
X253.026Y-112.901
X253.075Y-82.152
X253.125Y-108.498
X253.125Y-108.948
X253.125Y-109.748
X253.181Y-81.649
X253.188Y-112.038
X253.247Y-86.375
X253.261Y-74.527
X253.306Y-112.527
X253.325Y-82.602
X253.325Y-102.352
X253.35Y-109.348
X253.354Y-83.094
X253.5Y-94.87
X253.5Y-96.91
X253.546Y-77.292
X253.549Y-80.844
X253.552Y-82.152
X253.566Y-106.27
X253.575Y-108.498
X253.575Y-108.948
X253.599Y-103.298
X253.621Y-106.867
X253.675Y-81.652
X253.8Y-88.0
X253.861Y-74.527
X253.9Y-112.384
X254.0Y-100.173
X254.025Y-108.048
X254.025Y-108.498
X254.025Y-108.948
X254.25Y-111.897
X254.33Y-82.742
X254.333Y-81.622
X254.363Y-83.341
X254.375Y-104.248
X254.475Y-76.202
X254.475Y-76.702
X254.475Y-108.498
X254.475Y-108.948
X254.609Y-93.491
X254.679Y-99.321
X254.731Y-112.651
X254.737Y-90.86
X254.875Y-79.002
X254.875Y-86.113
X254.9Y-99.9
X254.975Y-74.702
X254.975Y-75.202
X254.975Y-75.702
X254.975Y-76.202
X255.163Y-101.349
X255.165Y-90.432
X255.175Y-112.748
X255.3Y-85.575
X255.475Y-74.702
X255.475Y-75.202
X255.475Y-75.702
X255.625Y-112.698
X255.7Y-87.985
X255.717Y-98.115
X255.75Y-85.575
X255.841Y-106.366
X255.861Y-91.009
X255.975Y-74.702
X255.975Y-75.202
X256.075Y-112.698
X256.083Y-112.241
X256.2Y-85.575
X256.3Y-88.1
X256.36Y-98.273
X256.375Y-105.125
X256.375Y-105.575
X256.481Y-92.703
X256.525Y-112.698
X256.55Y-112.223
X256.65Y-85.575
X256.759Y-89.227
X256.825Y-105.125
X256.825Y-105.575
X256.911Y-111.151
X257.1Y-85.6
X257.275Y-105.125
X257.275Y-105.575
X257.359Y-96.483
X257.37Y-79.91
X257.375Y-78.552
X257.375Y-79.002
X257.375Y-79.452
X257.375Y-110.998
X257.389Y-88.944
X257.423Y-87.287
X257.45Y-76.703
X257.55Y-85.6
X257.66Y-80.479
X257.71Y-84.302
X257.725Y-105.125
X257.725Y-105.575
X257.779Y-100.479
X257.792Y-96.008
X257.797Y-81.064
X257.8Y-99.975
X257.821Y-110.144
X257.825Y-78.552
X257.825Y-79.002
X257.825Y-79.452
X257.825Y-79.902
X257.83Y-82.502
X257.83Y-83.502
X257.875Y-77.347
X257.9Y-91.288
X257.98Y-108.462
X258.078Y-106.414
X258.125Y-107.718
X258.25Y-99.6
X258.25Y-100.05
X258.25Y-100.5
X258.4Y-104.2
X258.502Y-102.715
X258.524Y-91.836
X258.529Y-101.505
X258.607Y-93.707
X258.7Y-90.8
X258.7Y-99.625
X258.7Y-100.075
X258.7Y-100.525
X259.1Y-84.35
X259.1Y-112.223
X259.156Y-87.075
X259.356Y-86.225
X259.43Y-97.33
X259.7Y-85.02
X259.7Y-88.02
X259.775Y-85.875
X259.8Y-95.135
X259.812Y-83.775
X260.118Y-83.131
X260.787Y-83.0
X260.832Y-89.488
X260.9Y-91.9
X261.571Y-83.173
X261.6Y-91.65
X261.6Y-92.1
X261.6Y-92.55
X261.6Y-93.0
X261.6Y-93.45
X261.6Y-93.9
X261.8Y-94.8
X261.8Y-95.25
X261.8Y-95.7
X262.05Y-91.65
X262.05Y-92.1
X262.05Y-92.55
X262.05Y-93.0
X262.05Y-93.45
X262.05Y-93.9
X262.138Y-89.033
X262.25Y-94.8
X262.25Y-95.25
X262.25Y-95.7
X262.3Y-83.313
X262.5Y-91.65
X262.5Y-92.1
X262.5Y-92.55
X262.5Y-93.0
X262.5Y-93.45
X262.5Y-93.9
X262.613Y-86.2
X262.613Y-86.8
X262.613Y-87.5
X262.613Y-88.3
X262.7Y-94.8
X262.7Y-95.25
X262.7Y-95.7
X262.9Y-85.4
X262.935Y-84.638
X262.95Y-83.9
X262.95Y-91.65
X262.95Y-92.1
X262.95Y-92.55
X262.95Y-93.0
X262.95Y-93.45
X262.95Y-93.9
X263.15Y-94.8
X263.15Y-95.25
X263.15Y-95.7
X263.4Y-91.65
X263.4Y-92.1
X263.4Y-92.55
X263.4Y-93.0
X263.4Y-93.45
X263.4Y-93.9
X263.6Y-94.8
X263.6Y-95.25
X263.6Y-95.7
X263.85Y-91.65
X263.85Y-92.1
X263.85Y-92.55
X263.85Y-93.0
X263.85Y-93.45
X263.85Y-93.9
X264.05Y-94.8
X264.05Y-95.25
X264.05Y-95.7
X264.3Y-91.65
X264.3Y-92.1
X264.3Y-92.55
X264.3Y-93.0
X264.3Y-93.45
X264.3Y-93.9
T2
X238.7Y-75.75
X238.925Y-111.747
X251.675Y-75.753
X251.925Y-111.747
X261.8Y-102.3
X261.8Y-102.9
X261.8Y-103.5
X261.8Y-104.1
X261.8Y-104.7
X261.8Y-105.3
X261.8Y-105.9
X262.1Y-97.6
X262.1Y-98.2
X262.1Y-98.8
X262.1Y-99.4
X262.1Y-100.0
X262.1Y-100.6
X262.4Y-102.3
X262.4Y-102.9
X262.4Y-103.5
X262.4Y-104.1
X262.4Y-104.7
X262.4Y-105.3
X262.4Y-105.9
X262.7Y-97.6
X262.7Y-98.2
X262.7Y-98.8
X262.7Y-99.4
X262.7Y-100.0
X262.7Y-100.6
X263.0Y-102.3
X263.0Y-102.9
X263.0Y-103.5
X263.0Y-104.1
X263.0Y-104.7
X263.0Y-105.3
X263.0Y-105.9
X263.3Y-97.6
X263.3Y-98.2
X263.3Y-98.8
X263.3Y-99.4
X263.3Y-100.0
X263.3Y-100.6
X263.6Y-102.3
X263.6Y-102.9
X263.6Y-103.5
X263.6Y-104.1
X263.6Y-104.7
X263.6Y-105.3
X263.6Y-105.9
X263.9Y-97.6
X263.9Y-98.2
X263.9Y-98.8
X263.9Y-99.4
X263.9Y-100.0
X263.9Y-100.6
X264.2Y-102.3
X264.2Y-102.9
X264.2Y-103.5
X264.2Y-104.1
X264.2Y-104.7
X264.2Y-105.3
X264.2Y-105.9
T3
X261.637Y-82.45
X261.637Y-89.95
T4
G00X260.988Y-81.7
M15
G01X261.687Y-81.7
M16
G05
G00X260.988Y-90.7
M15
G01X261.687Y-90.7
M16
G05
G00X263.378Y-81.7
M15
G01X264.077Y-81.7
M16
G05
G00X263.378Y-90.7
M15
G01X264.077Y-90.7
M16
G05
M30
