M48
; DRILL file KiCad 10.0.5 date 2026-09-20T01:47:10
; FORMAT={-:-/ absolute / metric / decimal}
; #@! TF.CreationDate,2026-09-20T01:47:10+02:00
; #@! TF.GenerationSoftware,Kicad,Pcbnew,10.0.5
; #@! TF.FileFunction,Plated,1,6,PTH
FMAT,2
METRIC
; #@! TA.AperFunction,Plated,PTH,ViaDrill
T1C0.250
; #@! TA.AperFunction,Plated,PTH,ViaDrill
T2C0.300
; #@! TA.AperFunction,Plated,PTH,ComponentDrill
T3C0.500
; #@! TA.AperFunction,Plated,PTH,ComponentDrill
T4C0.500
%
G90
G05
T1
X226.461Y-98.061
X226.822Y-94.778
X226.852Y-91.2
X227.025Y-94.075
X227.111Y-97.411
X227.139Y-98.739
X227.523Y-94.573
X227.546Y-92.51
X227.612Y-93.106
X227.624Y-96.726
X228.5Y-89.15
X228.779Y-95.263
X228.953Y-89.603
X229.074Y-96.899
X229.2Y-100.862
X229.248Y-95.96
X229.272Y-99.842
X229.654Y-101.254
X229.674Y-99.126
X229.694Y-88.906
X229.778Y-86.578
X230.126Y-98.674
X230.145Y-88.451
X230.183Y-101.6
X230.5Y-103.0
X230.5Y-103.6
X231.149Y-87.463
X231.247Y-84.147
X231.525Y-75.275
X232.269Y-100.592
X232.455Y-82.9
X232.5Y-79.78
X232.547Y-81.083
X232.645Y-79.036
X232.648Y-100.047
X232.725Y-110.153
X232.77Y-103.998
X232.77Y-104.998
X232.775Y-107.598
X232.775Y-108.048
X232.775Y-108.498
X232.775Y-108.948
X232.803Y-106.436
X232.804Y-77.354
X232.89Y-103.198
X232.904Y-86.325
X232.94Y-107.021
X233.15Y-110.797
X233.198Y-100.702
X233.225Y-108.048
X233.225Y-108.498
X233.225Y-108.948
X233.25Y-76.5
X233.714Y-76.347
X233.966Y-100.3
X234.075Y-75.275
X234.1Y-74.8
X234.516Y-100.3
X234.542Y-75.257
X234.55Y-74.8
X234.625Y-112.298
X234.625Y-112.798
X234.784Y-81.132
X235.0Y-74.8
X235.125Y-111.798
X235.125Y-112.298
X235.125Y-112.798
X235.147Y-97.848
X235.45Y-74.75
X235.625Y-111.298
X235.625Y-111.798
X235.625Y-112.298
X235.625Y-112.798
X235.725Y-108.498
X235.75Y-97.25
X235.894Y-74.846
X236.125Y-110.798
X236.125Y-111.298
X236.15Y-78.55
X236.15Y-79.0
X236.175Y-96.825
X236.237Y-104.159
X236.25Y-83.25
X236.267Y-105.878
X236.27Y-104.758
X236.375Y-75.601
X236.459Y-86.572
X236.6Y-78.55
X236.6Y-79.0
X236.6Y-79.45
X236.619Y-98.264
X236.725Y-75.113
X236.739Y-112.973
X236.925Y-105.848
X236.954Y-87.067
X236.979Y-89.746
X237.004Y-80.631
X237.026Y-84.2
X237.048Y-105.348
X237.05Y-78.55
X237.05Y-79.0
X237.051Y-106.656
X237.054Y-110.208
X237.059Y-81.228
X237.146Y-86.354
X237.2Y-97.85
X237.246Y-104.406
X237.275Y-78.15
X237.275Y-104.898
X237.319Y-74.97
X237.339Y-112.973
X237.353Y-101.125
X237.419Y-105.851
X237.437Y-75.459
X237.5Y-77.75
X237.5Y-78.55
X237.5Y-79.0
X237.525Y-105.348
X237.599Y-74.596
X237.63Y-95.285
X237.725Y-78.15
X237.725Y-104.398
X237.775Y-104.898
X237.8Y-97.8
X237.9Y-87.1
X237.919Y-105.814
X238.025Y-105.348
X238.174Y-104.448
X238.275Y-104.898
X238.35Y-86.11
X238.556Y-74.637
X238.635Y-87.494
X238.718Y-96.483
X239.069Y-112.861
X239.275Y-101.387
X239.35Y-82.6
X239.451Y-83.049
X239.55Y-92.25
X239.577Y-96.957
X239.6Y-82.15
X239.706Y-81.683
X239.85Y-82.6
X239.9Y-83.1
X239.9Y-109.348
X239.973Y-89.209
X240.026Y-112.901
X240.1Y-82.15
X240.125Y-108.498
X240.125Y-108.948
X240.125Y-109.748
X240.188Y-112.038
X240.206Y-81.646
X240.272Y-86.372
X240.286Y-74.525
X240.306Y-112.527
X240.35Y-82.6
X240.35Y-109.348
X240.379Y-83.091
X240.566Y-106.27
X240.571Y-77.29
X240.574Y-80.842
X240.575Y-108.498
X240.575Y-108.948
X240.577Y-82.15
X240.598Y-90.883
X240.599Y-103.298
X240.621Y-106.867
X240.7Y-81.65
X240.8Y-97.2
X240.886Y-74.525
X240.9Y-112.384
X241.025Y-108.048
X241.025Y-108.498
X241.025Y-108.948
X241.25Y-111.897
X241.253Y-90.447
X241.355Y-82.739
X241.358Y-81.619
X241.375Y-104.248
X241.388Y-83.338
X241.414Y-91.41
X241.475Y-108.498
X241.475Y-108.948
X241.5Y-76.2
X241.5Y-76.7
X241.731Y-112.651
X241.9Y-79.0
X242.0Y-74.7
X242.0Y-75.2
X242.0Y-75.7
X242.0Y-76.2
X242.175Y-112.748
X242.314Y-92.203
X242.388Y-97.615
X242.5Y-74.7
X242.5Y-75.2
X242.5Y-75.7
X242.589Y-99.664
X242.625Y-112.698
X242.841Y-106.366
X242.9Y-92.0
X243.0Y-74.7
X243.0Y-75.2
X243.075Y-112.698
X243.083Y-112.241
X243.525Y-112.698
X243.55Y-112.223
X243.911Y-111.151
X244.17Y-96.476
X244.256Y-94.156
X244.276Y-97.96
X244.375Y-110.998
X244.4Y-78.55
X244.4Y-79.0
X244.4Y-79.45
X244.475Y-76.7
X244.5Y-75.277
X244.644Y-94.544
X244.685Y-80.477
X244.735Y-84.3
X244.821Y-110.144
X244.822Y-81.061
X244.85Y-78.55
X244.85Y-79.0
X244.85Y-79.45
X244.85Y-79.9
X244.855Y-82.5
X244.855Y-83.499
X244.9Y-77.345
X244.98Y-108.462
X245.078Y-106.414
X245.106Y-91.591
X245.125Y-107.718
X245.475Y-79.782
X245.5Y-87.85
X245.522Y-81.086
X245.62Y-79.038
X245.725Y-110.153
X245.77Y-103.998
X245.77Y-104.998
X245.775Y-107.598
X245.775Y-108.048
X245.775Y-108.498
X245.775Y-108.948
X245.779Y-77.356
X245.803Y-106.436
X245.89Y-103.198
X245.94Y-107.021
X246.1Y-112.223
X246.15Y-110.797
X246.225Y-76.502
X246.225Y-108.048
X246.225Y-108.498
X246.225Y-108.948
X246.6Y-87.925
X246.625Y-88.625
X246.689Y-76.349
X247.05Y-75.277
X247.075Y-74.802
X247.5Y-88.175
X247.517Y-75.259
X247.525Y-74.802
X247.625Y-112.298
X247.625Y-112.798
X247.759Y-81.134
X247.975Y-74.802
X248.125Y-111.798
X248.125Y-112.298
X248.125Y-112.798
X248.425Y-74.752
X248.625Y-111.298
X248.625Y-111.798
X248.625Y-112.298
X248.625Y-112.798
X248.725Y-108.498
X248.869Y-74.849
X249.035Y-96.57
X249.125Y-78.552
X249.125Y-79.002
X249.125Y-110.798
X249.125Y-111.298
X249.126Y-100.374
X249.225Y-83.252
X249.237Y-104.159
X249.267Y-105.878
X249.27Y-104.758
X249.35Y-75.603
X249.526Y-97.068
X249.575Y-78.552
X249.575Y-79.002
X249.575Y-79.452
X249.682Y-89.275
X249.7Y-75.116
X249.739Y-112.973
X249.925Y-105.848
X249.979Y-80.633
X250.001Y-84.202
X250.018Y-97.567
X250.025Y-78.552
X250.025Y-79.002
X250.034Y-81.23
X250.048Y-105.348
X250.051Y-106.656
X250.054Y-110.208
X250.246Y-104.406
X250.25Y-78.152
X250.275Y-104.898
X250.286Y-98.147
X250.294Y-74.973
X250.339Y-112.973
X250.412Y-75.462
X250.419Y-105.851
X250.475Y-77.752
X250.475Y-78.552
X250.475Y-79.002
X250.525Y-105.348
X250.574Y-74.599
X250.674Y-100.226
X250.7Y-78.152
X250.725Y-104.398
X250.775Y-104.898
X250.919Y-105.814
X251.025Y-105.348
X251.174Y-104.448
X251.275Y-104.898
X251.325Y-86.113
X251.338Y-88.49
X251.531Y-74.639
X252.069Y-112.861
X252.275Y-101.387
X252.325Y-82.602
X252.426Y-83.052
X252.575Y-82.152
X252.681Y-81.686
X252.825Y-82.602
X252.862Y-98.57
X252.875Y-83.102
X252.9Y-109.348
X252.972Y-99.16
X253.026Y-112.901
X253.075Y-82.152
X253.125Y-108.498
X253.125Y-108.948
X253.125Y-109.748
X253.181Y-81.649
X253.188Y-112.038
X253.247Y-86.375
X253.261Y-74.527
X253.306Y-112.527
X253.325Y-82.602
X253.35Y-109.348
X253.354Y-83.094
X253.457Y-98.647
X253.546Y-77.292
X253.549Y-80.844
X253.552Y-82.152
X253.566Y-106.27
X253.575Y-108.498
X253.575Y-108.948
X253.591Y-99.232
X253.599Y-103.298
X253.621Y-106.867
X253.675Y-81.652
X253.861Y-74.527
X253.9Y-112.384
X254.0Y-100.173
X254.025Y-108.048
X254.025Y-108.498
X254.025Y-108.948
X254.25Y-111.897
X254.33Y-82.742
X254.333Y-81.622
X254.363Y-83.341
X254.375Y-104.248
X254.475Y-76.202
X254.475Y-76.702
X254.475Y-108.498
X254.475Y-108.948
X254.731Y-112.651
X254.875Y-79.002
X254.975Y-74.702
X254.975Y-75.202
X254.975Y-75.702
X254.975Y-76.202
X255.165Y-90.432
X255.175Y-112.748
X255.475Y-74.702
X255.475Y-75.202
X255.475Y-75.702
X255.625Y-112.698
X255.717Y-98.115
X255.841Y-106.366
X255.861Y-91.009
X255.975Y-74.702
X255.975Y-75.202
X256.075Y-112.698
X256.083Y-112.241
X256.3Y-88.1
X256.473Y-92.695
X256.525Y-112.698
X256.55Y-112.223
X256.759Y-89.227
X256.911Y-111.151
X257.359Y-96.483
X257.375Y-78.552
X257.375Y-79.002
X257.375Y-79.452
X257.375Y-110.998
X257.389Y-88.944
X257.45Y-76.703
X257.66Y-80.479
X257.71Y-84.302
X257.797Y-81.064
X257.808Y-91.173
X257.821Y-110.144
X257.825Y-78.552
X257.825Y-79.002
X257.825Y-79.452
X257.825Y-79.902
X257.83Y-82.502
X257.83Y-83.502
X257.875Y-77.347
X257.98Y-108.462
X258.078Y-106.414
X258.125Y-107.718
X258.524Y-91.836
X258.627Y-93.759
X259.1Y-112.223
X259.45Y-86.2
X259.7Y-85.02
X259.7Y-88.02
X260.787Y-83.0
X260.832Y-89.488
X261.8Y-94.8
X261.8Y-95.25
X261.8Y-95.7
X261.85Y-92.7
X261.85Y-93.15
X261.85Y-93.6
X262.25Y-94.8
X262.25Y-95.25
X262.25Y-95.7
X262.3Y-92.7
X262.3Y-93.15
X262.3Y-93.6
X262.7Y-94.8
X262.7Y-95.25
X262.7Y-95.7
X262.75Y-92.7
X262.75Y-93.15
X262.75Y-93.6
X263.15Y-94.8
X263.15Y-95.25
X263.15Y-95.7
X263.2Y-92.7
X263.2Y-93.15
X263.2Y-93.6
X263.6Y-94.8
X263.6Y-95.25
X263.6Y-95.7
X263.65Y-92.7
X263.65Y-93.15
X263.65Y-93.6
X264.05Y-94.8
X264.05Y-95.25
X264.05Y-95.7
X264.1Y-92.7
X264.1Y-93.15
X264.1Y-93.6
T2
X238.7Y-75.75
X238.925Y-111.747
X251.675Y-75.753
X251.925Y-111.747
X262.1Y-97.6
X262.1Y-98.2
X262.1Y-98.8
X262.1Y-99.4
X262.1Y-100.0
X262.1Y-100.6
X262.1Y-102.6
X262.1Y-103.2
X262.1Y-103.8
X262.1Y-104.4
X262.1Y-105.0
X262.1Y-105.6
X262.7Y-97.6
X262.7Y-98.2
X262.7Y-98.8
X262.7Y-99.4
X262.7Y-100.0
X262.7Y-100.6
X262.7Y-102.6
X262.7Y-103.2
X262.7Y-103.8
X262.7Y-104.4
X262.7Y-105.0
X262.7Y-105.6
X263.3Y-97.6
X263.3Y-98.2
X263.3Y-98.8
X263.3Y-99.4
X263.3Y-100.0
X263.3Y-100.6
X263.3Y-102.6
X263.3Y-103.2
X263.3Y-103.8
X263.3Y-104.4
X263.3Y-105.0
X263.3Y-105.6
X263.9Y-97.6
X263.9Y-98.2
X263.9Y-98.8
X263.9Y-99.4
X263.9Y-100.0
X263.9Y-100.6
X263.9Y-102.6
X263.9Y-103.2
X263.9Y-103.8
X263.9Y-104.4
X263.9Y-105.0
X263.9Y-105.6
T3
X261.637Y-82.45
X261.637Y-89.95
T4
G00X260.988Y-81.7
M15
G01X261.687Y-81.7
M16
G05
G00X260.988Y-90.7
M15
G01X261.687Y-90.7
M16
G05
G00X263.378Y-81.7
M15
G01X264.077Y-81.7
M16
G05
G00X263.378Y-90.7
M15
G01X264.077Y-90.7
M16
G05
M30
