M48
; DRILL file KiCad 10.0.5 date 2026-09-07T04:17:58
; FORMAT={-:-/ absolute / metric / decimal}
; #@! TF.CreationDate,2026-09-07T04:17:58+02:00
; #@! TF.GenerationSoftware,Kicad,Pcbnew,10.0.5
; #@! TF.FileFunction,Plated,1,6,PTH
FMAT,2
METRIC
; #@! TA.AperFunction,Plated,PTH,ViaDrill
T1C0.250
; #@! TA.AperFunction,Plated,PTH,ViaDrill
T2C0.300
; #@! TA.AperFunction,Plated,PTH,ComponentDrill
T3C0.600
; #@! TA.AperFunction,Plated,PTH,ComponentDrill
T4C0.700
; #@! TA.AperFunction,Plated,PTH,ComponentDrill
T5C1.000
%
G90
G05
T1
X129.015Y-90.696
X129.05Y-114.1
X129.05Y-114.7
X129.05Y-115.4
X129.065Y-88.048
X129.09Y-86.808
X129.11Y-89.348
X129.11Y-91.948
X129.11Y-93.248
X129.11Y-94.638
X129.31Y-75.283
X129.31Y-75.783
X129.31Y-76.283
X129.31Y-76.783
X129.31Y-77.283
X129.368Y-83.448
X129.55Y-77.863
X129.81Y-75.283
X129.81Y-75.783
X129.81Y-76.283
X129.81Y-76.783
X129.81Y-77.283
X130.035Y-113.655
X130.31Y-93.548
X130.43Y-78.823
X130.61Y-94.648
X130.635Y-120.355
X130.71Y-77.848
X130.71Y-85.848
X130.716Y-92.474
X130.735Y-113.655
X131.148Y-84.41
X131.435Y-113.855
X132.21Y-84.348
X132.21Y-85.148
X132.21Y-93.873
X132.21Y-95.423
X132.245Y-119.405
X132.499Y-99.048
X132.66Y-89.128
X132.965Y-120.945
X132.965Y-121.445
X132.965Y-121.945
X132.965Y-122.445
X132.965Y-122.945
X133.01Y-89.748
X133.01Y-92.128
X133.11Y-82.248
X133.225Y-120.365
X133.235Y-115.955
X133.46Y-86.498
X133.465Y-120.945
X133.465Y-121.445
X133.465Y-121.945
X133.465Y-122.445
X133.465Y-122.945
X133.51Y-75.283
X133.51Y-75.783
X133.51Y-76.283
X133.51Y-76.783
X133.51Y-77.283
X133.51Y-87.048
X133.75Y-77.863
X133.81Y-82.248
X133.811Y-92.133
X133.935Y-115.955
X134.0Y-84.457
X134.01Y-75.283
X134.01Y-75.783
X134.01Y-76.283
X134.01Y-76.783
X134.01Y-77.283
X134.41Y-94.688
X134.585Y-114.239
X134.63Y-78.823
X134.835Y-120.355
X135.01Y-77.848
X135.21Y-94.688
X135.26Y-86.898
X135.51Y-86.348
X135.885Y-85.348
X135.91Y-92.988
X136.2Y-113.88
X136.285Y-113.195
X136.51Y-84.548
X136.545Y-119.405
X136.61Y-92.148
X136.776Y-90.188
X137.165Y-120.945
X137.165Y-121.445
X137.165Y-121.945
X137.165Y-122.445
X137.165Y-122.945
X137.31Y-85.348
X137.425Y-120.365
X137.485Y-113.33
X137.665Y-120.945
X137.665Y-121.445
X137.665Y-121.945
X137.665Y-122.445
X137.665Y-122.945
X137.71Y-75.283
X137.71Y-75.783
X137.71Y-76.283
X137.71Y-76.783
X137.71Y-77.283
X137.95Y-77.863
X138.0Y-92.388
X138.21Y-75.283
X138.21Y-75.783
X138.21Y-76.283
X138.21Y-76.783
X138.21Y-77.283
X138.494Y-92.048
X138.495Y-100.355
X138.495Y-101.155
X138.495Y-101.955
X138.665Y-108.655
X138.894Y-105.924
X138.93Y-78.823
X139.035Y-120.355
X139.11Y-77.91
X139.225Y-98.848
X139.368Y-99.956
X139.931Y-98.489
X140.015Y-101.955
X140.475Y-97.948
X140.655Y-100.355
X140.655Y-101.155
X140.655Y-101.955
X140.745Y-119.405
X141.1Y-105.7
X141.165Y-103.33
X141.365Y-120.945
X141.365Y-121.445
X141.365Y-121.945
X141.365Y-122.445
X141.365Y-122.945
X141.585Y-84.091
X141.625Y-120.365
X141.638Y-108.163
X141.689Y-108.933
X141.865Y-120.945
X141.865Y-121.445
X141.865Y-121.945
X141.865Y-122.445
X141.865Y-122.945
X142.06Y-79.748
X142.11Y-76.648
X142.735Y-122.055
X143.21Y-117.76
X143.35Y-98.462
X143.695Y-122.055
X144.5Y-91.5
X144.577Y-105.771
X144.925Y-109.771
X145.252Y-81.04
X145.252Y-82.99
X145.4Y-121.7
X145.477Y-109.771
X145.6Y-102.48
X145.932Y-98.539
X145.95Y-105.0
X145.952Y-97.925
X146.0Y-103.4
X146.07Y-112.572
X146.28Y-114.009
X146.352Y-99.84
X146.535Y-97.431
X146.623Y-96.67
X146.752Y-82.94
X146.808Y-95.913
X146.945Y-113.015
X147.077Y-105.771
X147.3Y-93.9
X147.63Y-116.009
X147.653Y-109.071
X147.9Y-92.75
X148.042Y-90.34
X148.052Y-89.14
X148.153Y-101.04
X148.171Y-95.488
X148.197Y-101.65
X148.198Y-99.2
X148.227Y-97.055
X148.25Y-102.34
X148.268Y-98.425
X148.518Y-88.49
X148.542Y-91.44
X148.916Y-82.277
X149.052Y-87.94
X149.4Y-105.096
X149.403Y-76.84
X149.452Y-103.8
X149.802Y-78.24
X150.1Y-95.346
X150.2Y-93.767
X150.286Y-81.347
X150.377Y-79.29
X150.45Y-93.2
X150.646Y-92.633
X151.07Y-92.209
X151.243Y-90.64
X151.495Y-91.784
X151.552Y-76.54
X152.064Y-103.87
X152.4Y-91.5
X152.507Y-89.465
X152.6Y-94.0
X152.752Y-80.84
X152.782Y-78.14
X152.802Y-82.09
X152.832Y-88.632
X152.952Y-95.54
X153.215Y-90.83
X153.351Y-93.74
X153.6Y-92.08
X153.65Y-98.325
X153.8Y-119.4
X153.83Y-95.54
X153.946Y-93.822
X154.052Y-76.54
X154.534Y-105.358
X154.952Y-95.54
X155.134Y-103.858
X155.153Y-105.34
X155.482Y-84.88
X155.5Y-86.157
X155.53Y-86.764
X155.752Y-103.84
X155.802Y-82.24
X155.802Y-83.54
X155.952Y-95.55
X156.0Y-93.79
X156.005Y-88.555
X156.052Y-87.53
X156.442Y-82.89
X156.45Y-79.35
X156.452Y-103.84
X156.5Y-97.84
X156.734Y-105.958
X157.002Y-81.79
X157.052Y-87.78
X157.231Y-105.02
X157.653Y-94.34
X157.752Y-105.54
X157.852Y-86.04
X157.952Y-81.54
X158.099Y-98.325
X158.452Y-91.14
X158.452Y-91.84
X158.452Y-97.84
X158.499Y-96.642
X158.505Y-97.242
X158.857Y-98.485
X159.254Y-105.817
X159.257Y-95.197
X159.852Y-95.74
X159.945Y-94.441
X160.15Y-80.8
X160.352Y-86.29
X160.756Y-85.744
X161.144Y-85.356
X161.6Y-90.1
X162.25Y-97.74
X163.559Y-97.77
X163.605Y-93.375
X163.68Y-95.35
X164.0Y-92.5
X164.1Y-79.35
X164.7Y-89.2
X164.75Y-93.0
X164.834Y-96.9
X165.8Y-94.1
X165.8Y-96.0
X167.8Y-94.1
X167.8Y-96.0
X168.71Y-121.631
X168.76Y-118.531
X169.164Y-89.487
X169.215Y-90.257
X169.688Y-95.09
X170.197Y-96.465
X170.197Y-97.265
X170.197Y-98.065
X170.838Y-96.465
X171.71Y-120.369
X171.89Y-119.456
X171.952Y-89.765
X172.117Y-92.465
X172.357Y-96.465
X172.357Y-97.265
X172.357Y-98.065
X172.61Y-120.996
X172.61Y-121.496
X172.61Y-121.996
X172.61Y-122.496
X172.61Y-122.996
X172.87Y-120.416
X173.11Y-120.996
X173.11Y-121.496
X173.11Y-121.996
X173.11Y-122.496
X173.11Y-122.996
X173.188Y-75.475
X173.188Y-75.975
X173.188Y-76.475
X173.188Y-76.975
X173.188Y-77.475
X173.218Y-96.465
X173.218Y-98.065
X173.367Y-85.09
X173.427Y-78.055
X173.688Y-75.475
X173.688Y-75.975
X173.688Y-76.475
X173.688Y-76.975
X173.688Y-77.475
X173.968Y-92.19
X174.308Y-79.015
X174.517Y-84.565
X174.567Y-85.225
X174.827Y-93.6
X175.81Y-120.431
X176.017Y-78.065
X176.19Y-119.456
X176.268Y-84.181
X176.81Y-120.996
X176.81Y-121.496
X176.81Y-121.996
X176.81Y-122.496
X176.81Y-122.996
X176.917Y-82.465
X177.07Y-120.416
X177.31Y-120.996
X177.31Y-121.496
X177.31Y-121.996
X177.31Y-122.496
X177.31Y-122.996
X177.387Y-75.475
X177.387Y-75.975
X177.387Y-76.475
X177.387Y-76.975
X177.387Y-77.475
X177.617Y-82.465
X177.627Y-78.055
X177.887Y-75.475
X177.887Y-75.975
X177.887Y-76.475
X177.887Y-76.975
X177.887Y-77.475
X178.607Y-79.015
X179.417Y-84.565
X180.11Y-120.431
X180.117Y-84.765
X180.218Y-78.065
X180.39Y-119.456
X180.817Y-84.765
X181.01Y-120.996
X181.01Y-121.496
X181.01Y-121.996
X181.01Y-122.496
X181.01Y-122.996
X181.27Y-120.416
X181.51Y-120.996
X181.51Y-121.496
X181.51Y-121.996
X181.51Y-122.496
X181.51Y-122.996
X181.718Y-83.265
X181.718Y-83.865
X181.718Y-84.465
T2
X129.11Y-95.908
X129.11Y-97.178
X129.11Y-98.448
X129.11Y-99.76
X129.11Y-101.03
X129.11Y-102.3
X129.11Y-103.57
X129.11Y-104.93
X129.11Y-106.23
X129.11Y-107.53
X129.11Y-110.13
X129.11Y-111.43
X129.135Y-117.155
X129.135Y-117.755
X129.135Y-118.355
X129.64Y-79.873
X129.64Y-80.573
X129.928Y-111.03
X130.335Y-108.755
X130.42Y-106.272
X130.54Y-80.073
X130.54Y-80.673
X130.54Y-81.273
X130.785Y-109.18
X131.09Y-96.548
X131.11Y-97.348
X131.11Y-98.148
X131.14Y-80.073
X131.14Y-80.673
X131.14Y-81.273
X131.65Y-116.75
X131.65Y-117.35
X131.73Y-96.548
X131.75Y-105.535
X132.21Y-109.08
X132.25Y-116.75
X132.25Y-117.35
X132.25Y-117.95
X132.285Y-108.05
X132.335Y-99.815
X132.365Y-101.88
X132.365Y-103.08
X132.365Y-104.28
X132.635Y-110.255
X132.635Y-111.155
X132.635Y-112.055
X132.685Y-108.575
X133.195Y-106.18
X133.215Y-97.348
X133.25Y-96.548
X133.365Y-117.78
X133.365Y-118.38
X133.41Y-95.648
X133.465Y-101.88
X133.465Y-103.08
X133.465Y-104.28
X133.51Y-79.848
X133.51Y-80.448
X133.51Y-81.048
X133.535Y-110.255
X133.535Y-111.155
X133.535Y-112.055
X133.62Y-99.47
X133.71Y-98.123
X133.806Y-106.18
X134.102Y-107.796
X134.11Y-96.548
X134.415Y-107.48
X134.435Y-99.655
X134.435Y-110.255
X134.435Y-111.155
X134.435Y-112.055
X134.735Y-106.155
X134.74Y-80.073
X134.74Y-80.673
X134.74Y-81.273
X134.765Y-101.88
X134.765Y-103.08
X134.765Y-104.28
X135.325Y-92.123
X135.34Y-80.073
X135.34Y-80.673
X135.34Y-81.273
X135.34Y-109.105
X135.441Y-108.412
X135.575Y-105.355
X135.835Y-116.955
X135.835Y-117.555
X136.025Y-104.82
X136.435Y-116.955
X136.435Y-117.555
X136.435Y-118.155
X136.885Y-106.23
X136.91Y-96.548
X137.31Y-98.848
X137.315Y-103.03
X137.315Y-103.815
X137.635Y-100.355
X137.635Y-101.955
X137.665Y-117.18
X137.665Y-117.78
X137.665Y-118.38
X137.81Y-79.848
X137.81Y-80.448
X138.01Y-85.548
X138.01Y-86.148
X138.01Y-86.748
X138.01Y-94.148
X138.01Y-95.348
X138.01Y-96.548
X138.297Y-114.193
X138.61Y-85.548
X138.61Y-86.148
X138.61Y-86.748
X138.735Y-111.555
X138.735Y-112.155
X138.735Y-112.755
X138.865Y-102.855
X138.95Y-104.045
X138.96Y-90.198
X138.969Y-92.448
X139.04Y-80.073
X139.04Y-80.673
X139.04Y-81.273
X139.21Y-85.548
X139.21Y-86.148
X139.21Y-86.748
X139.21Y-89.648
X139.31Y-94.148
X139.31Y-95.348
X139.31Y-96.548
X139.335Y-111.555
X139.335Y-112.155
X139.335Y-112.755
X139.64Y-80.073
X139.64Y-80.673
X139.64Y-81.273
X139.81Y-85.548
X139.81Y-86.148
X139.81Y-86.748
X139.935Y-111.555
X139.935Y-112.155
X139.935Y-112.755
X140.035Y-116.955
X140.035Y-117.555
X140.035Y-118.155
X140.193Y-106.607
X140.41Y-85.548
X140.41Y-86.148
X140.41Y-86.748
X140.495Y-108.195
X140.535Y-111.555
X140.535Y-112.155
X140.535Y-112.755
X140.56Y-89.998
X140.575Y-91.283
X140.635Y-116.955
X140.635Y-117.555
X140.635Y-118.155
X141.01Y-85.548
X141.01Y-86.148
X141.01Y-86.748
X141.11Y-89.648
X141.135Y-111.555
X141.135Y-112.155
X141.135Y-112.755
X141.235Y-109.755
X141.235Y-110.455
X141.535Y-117.655
X141.535Y-118.355
X141.66Y-89.198
X141.71Y-87.148
X141.735Y-111.555
X141.735Y-112.155
X141.735Y-112.755
X142.21Y-78.528
X142.4Y-99.7
X142.44Y-103.3
X142.635Y-106.855
X142.635Y-107.455
X142.76Y-89.048
X142.817Y-90.091
X142.935Y-113.855
X142.935Y-114.455
X142.935Y-115.055
X143.21Y-86.148
X143.235Y-106.855
X143.235Y-107.455
X143.235Y-108.055
X143.265Y-119.78
X143.535Y-113.855
X143.535Y-114.455
X143.535Y-115.055
X143.56Y-89.048
X143.66Y-90.148
X143.71Y-91.398
X143.835Y-106.855
X143.835Y-107.455
X143.835Y-108.055
X146.4Y-100.915
X146.6Y-103.0
X146.612Y-123.06
X146.699Y-85.575
X147.123Y-86.0
X147.665Y-120.235
X149.352Y-99.86
X149.425Y-102.32
X149.5Y-123.6
X149.55Y-112.347
X149.653Y-97.14
X149.8Y-119.4
X150.002Y-84.03
X150.002Y-86.03
X150.615Y-100.72
X150.8Y-119.4
X151.4Y-86.0
X151.49Y-102.84
X151.502Y-83.99
X151.852Y-96.54
X151.852Y-99.24
X152.502Y-83.99
X152.752Y-86.03
X152.8Y-119.4
X152.903Y-108.702
X152.952Y-100.19
X153.425Y-103.04
X153.553Y-108.7
X153.67Y-114.33
X153.752Y-83.99
X154.13Y-113.87
X154.412Y-109.612
X154.925Y-119.1
X154.965Y-96.78
X155.052Y-97.84
X155.2Y-108.8
X155.575Y-119.1
X155.752Y-102.44
X155.776Y-99.864
X155.965Y-96.78
X156.0Y-109.6
X156.8Y-119.4
X157.1Y-109.0
X158.052Y-113.752
X158.102Y-89.74
X158.352Y-88.43
X158.86Y-108.922
X159.0Y-107.6
X159.204Y-108.242
X159.3Y-103.0
X159.558Y-98.68
X159.752Y-88.43
X159.8Y-119.4
X159.854Y-105.817
X160.157Y-98.695
X160.274Y-114.4
X160.454Y-105.817
X160.5Y-111.0
X160.508Y-96.423
X160.508Y-97.693
X160.85Y-99.923
X160.858Y-98.678
X161.1Y-109.2
X161.204Y-112.9
X161.3Y-99.119
X161.304Y-105.398
X161.411Y-99.709
X161.546Y-100.556
X161.607Y-101.9
X161.617Y-101.151
X161.95Y-103.7
X162.054Y-104.317
X162.25Y-100.58
X162.5Y-105.8
X162.504Y-112.9
X162.8Y-122.1
X162.982Y-103.418
X163.52Y-101.6
X163.6Y-103.4
X163.8Y-89.83
X163.9Y-98.545
X163.9Y-99.145
X163.9Y-99.745
X163.969Y-107.818
X163.969Y-108.618
X164.5Y-105.0
X164.6Y-112.675
X164.8Y-85.7
X164.834Y-101.2
X165.0Y-123.6
X165.4Y-103.675
X165.4Y-108.2
X165.5Y-102.125
X165.998Y-110.802
X166.3Y-99.1
X166.9Y-103.675
X167.0Y-102.125
X167.017Y-83.365
X167.017Y-83.965
X167.017Y-84.565
X167.017Y-90.365
X167.017Y-90.965
X167.017Y-91.565
X167.11Y-106.881
X167.157Y-76.365
X167.16Y-108.131
X167.26Y-109.231
X167.588Y-78.64
X167.61Y-112.131
X167.617Y-83.365
X167.617Y-83.965
X167.617Y-84.565
X167.617Y-90.365
X167.617Y-90.965
X167.617Y-91.565
X167.642Y-80.66
X168.003Y-108.188
X168.06Y-109.231
X168.117Y-76.365
X168.218Y-90.965
X168.218Y-91.565
X168.4Y-102.125
X168.61Y-119.751
X168.987Y-75.475
X168.987Y-75.975
X168.987Y-76.475
X168.987Y-76.975
X168.987Y-77.475
X169.11Y-111.131
X169.117Y-85.665
X169.117Y-86.265
X169.117Y-86.865
X169.16Y-109.081
X169.227Y-78.055
X169.235Y-114.188
X169.317Y-80.065
X169.317Y-80.765
X169.487Y-75.475
X169.487Y-75.975
X169.487Y-76.475
X169.487Y-76.975
X169.487Y-77.475
X169.617Y-87.965
X169.617Y-88.665
X169.71Y-108.631
X169.718Y-85.665
X169.718Y-86.265
X169.718Y-86.865
X169.81Y-111.531
X169.81Y-112.131
X169.81Y-112.731
X170.107Y-79.015
X170.218Y-80.265
X170.218Y-80.865
X170.218Y-81.465
X170.245Y-106.996
X170.26Y-108.281
X170.317Y-85.665
X170.317Y-86.265
X170.317Y-86.865
X170.317Y-90.265
X170.345Y-100.6
X170.41Y-111.531
X170.41Y-112.131
X170.41Y-112.731
X170.71Y-99.531
X170.817Y-80.265
X170.817Y-80.865
X170.817Y-81.465
X170.917Y-85.665
X170.917Y-86.265
X170.917Y-86.865
X171.01Y-111.531
X171.01Y-112.131
X171.01Y-112.731
X171.18Y-117.006
X171.18Y-117.606
X171.18Y-118.206
X171.2Y-104.2
X171.218Y-91.765
X171.3Y-101.5
X171.3Y-102.931
X171.414Y-98.495
X171.517Y-85.665
X171.517Y-86.265
X171.517Y-86.865
X171.61Y-108.631
X171.61Y-111.531
X171.61Y-112.131
X171.61Y-112.731
X171.78Y-117.006
X171.78Y-117.606
X171.78Y-118.206
X171.817Y-78.065
X171.851Y-105.831
X171.86Y-108.081
X171.903Y-94.375
X171.987Y-95.565
X172.117Y-85.665
X172.117Y-86.265
X172.117Y-86.865
X172.21Y-111.531
X172.21Y-112.131
X172.21Y-112.731
X172.326Y-106.231
X172.642Y-84.313
X172.8Y-101.5
X172.8Y-104.2
X172.81Y-102.931
X172.81Y-111.531
X172.81Y-112.131
X172.81Y-112.731
X172.82Y-105.891
X172.83Y-99.431
X173.01Y-117.831
X173.01Y-118.431
X173.188Y-80.04
X173.188Y-80.64
X173.188Y-81.24
X173.51Y-99.431
X173.51Y-112.931
X173.537Y-94.605
X173.537Y-95.39
X174.044Y-108.091
X174.21Y-106.131
X174.31Y-113.731
X174.417Y-80.265
X174.417Y-80.865
X174.417Y-81.465
X174.91Y-105.291
X174.935Y-112.931
X175.017Y-80.865
X175.017Y-81.465
X175.278Y-93.065
X175.31Y-111.931
X175.411Y-90.008
X175.48Y-117.006
X175.48Y-117.606
X175.48Y-118.206
X175.495Y-106.156
X175.512Y-89.315
X175.56Y-111.381
X175.61Y-103.591
X176.08Y-117.006
X176.08Y-117.606
X176.08Y-118.206
X176.088Y-94.14
X176.088Y-95.34
X176.088Y-96.54
X176.117Y-92.265
X176.41Y-103.591
X176.417Y-86.365
X176.417Y-87.265
X176.417Y-88.165
X176.438Y-90.94
X176.71Y-101.731
X176.751Y-90.624
X176.82Y-113.821
X177.009Y-106.146
X177.01Y-116.031
X177.047Y-92.24
X177.11Y-100.156
X177.232Y-98.925
X177.31Y-111.231
X177.31Y-117.231
X177.31Y-117.831
X177.31Y-118.431
X177.317Y-86.365
X177.317Y-87.265
X177.317Y-88.165
X177.36Y-111.781
X177.387Y-94.14
X177.387Y-95.34
X177.387Y-96.54
X177.41Y-102.631
X177.487Y-80.04
X177.487Y-80.64
X177.57Y-101.731
X177.605Y-100.931
X177.657Y-92.24
X177.71Y-116.031
X177.81Y-106.151
X177.81Y-108.531
X178.16Y-109.151
X178.167Y-89.845
X178.218Y-86.365
X178.218Y-87.265
X178.218Y-88.165
X178.487Y-94.14
X178.487Y-95.34
X178.487Y-96.54
X178.517Y-98.605
X178.567Y-90.37
X178.61Y-102.856
X178.61Y-104.406
X178.61Y-113.131
X178.61Y-113.931
X178.642Y-89.34
X178.718Y-80.265
X178.718Y-80.865
X178.718Y-81.465
X179.09Y-101.731
X179.103Y-92.885
X179.317Y-80.865
X179.317Y-81.465
X179.672Y-113.869
X179.68Y-117.006
X179.68Y-117.606
X179.68Y-118.206
X179.71Y-100.131
X179.71Y-100.931
X179.73Y-101.731
X180.067Y-89.24
X180.104Y-105.805
X180.11Y-112.431
X180.21Y-103.631
X180.28Y-117.006
X180.28Y-117.606
X180.28Y-118.206
X180.433Y-92.148
X180.51Y-104.731
X180.517Y-89.665
X180.924Y-87.39
X181.18Y-117.706
X181.18Y-118.406
X181.452Y-114.831
X181.71Y-99.831
X181.71Y-101.101
X181.71Y-102.371
X181.71Y-103.641
X181.71Y-105.031
X181.71Y-106.331
X181.71Y-108.931
X181.718Y-80.065
X181.718Y-80.665
X181.718Y-81.265
X181.73Y-111.471
X181.742Y-86.99
X181.742Y-88.29
X181.742Y-90.89
X181.742Y-92.19
X181.742Y-93.49
X181.742Y-94.85
X181.742Y-96.12
X181.742Y-97.39
X181.742Y-98.66
X181.755Y-110.231
X181.805Y-107.583
T4
X157.357Y-77.328
X163.137Y-77.328
T5
X152.35Y-122.347
X160.35Y-122.347
T3
G00X155.927Y-73.947
M15
G01X155.927Y-73.347
M16
G05
G00X155.927Y-78.308
M15
G01X155.927Y-77.407
M16
G05
G00X164.567Y-73.947
M15
G01X164.567Y-73.347
M16
G05
G00X164.567Y-78.307
M15
G01X164.567Y-77.408
M16
G05
M30
