%TF.GenerationSoftware,KiCad,Pcbnew,10.0.5*%
%TF.CreationDate,2026-09-20T01:47:09+02:00*%
%TF.ProjectId,espdrone,65737064-726f-46e6-952e-6b696361645f,rev?*%
%TF.SameCoordinates,Original*%
%TF.FileFunction,Soldermask,Bot*%
%TF.FilePolarity,Negative*%
%FSLAX46Y46*%
G04 Gerber Fmt 4.6, Leading zero omitted, Abs format (unit mm)*
G04 Created by KiCad (PCBNEW 10.0.5) date 2026-09-20 01:47:09*
%MOMM*%
%LPD*%
G01*
G04 APERTURE LIST*
G04 Aperture macros list*
%AMRoundRect*
0 Rectangle with rounded corners*
0 $1 Rounding radius*
0 $2 $3 $4 $5 $6 $7 $8 $9 X,Y pos of 4 corners*
0 Add a 4 corners polygon primitive as box body*
4,1,4,$2,$3,$4,$5,$6,$7,$8,$9,$2,$3,0*
0 Add four circle primitives for the rounded corners*
1,1,$1+$1,$2,$3*
1,1,$1+$1,$4,$5*
1,1,$1+$1,$6,$7*
1,1,$1+$1,$8,$9*
0 Add four rect primitives between the rounded corners*
20,1,$1+$1,$2,$3,$4,$5,0*
20,1,$1+$1,$4,$5,$6,$7,0*
20,1,$1+$1,$6,$7,$8,$9,0*
20,1,$1+$1,$8,$9,$2,$3,0*%
%AMHorizOval*
0 Thick line with rounded ends*
0 $1 width*
0 $2 $3 position (X,Y) of the first rounded end (center of the circle)*
0 $4 $5 position (X,Y) of the second rounded end (center of the circle)*
0 Add line between two ends*
20,1,$1,$2,$3,$4,$5,0*
0 Add two circle primitives to create the rounded ends*
1,1,$1,$2,$3*
1,1,$1,$4,$5*%
%AMRotRect*
0 Rectangle, with rotation*
0 The origin of the aperture is its center*
0 $1 length*
0 $2 width*
0 $3 Rotation angle, in degrees counterclockwise*
0 Add horizontal line*
21,1,$1,$2,0,0,$3*%
%AMFreePoly0*
4,1,14,0.185240,0.435354,0.199885,0.399999,0.199885,-0.275057,0.185240,-0.310412,0.149885,-0.325057,0.099899,-0.325057,0.064544,-0.310414,-0.185492,-0.060401,-0.200139,-0.025046,-0.200140,0.399999,-0.185494,0.435354,-0.150139,0.449999,0.149885,0.449999,0.185240,0.435354,0.185240,0.435354,$1*%
%AMFreePoly1*
4,1,14,0.185240,0.435354,0.199885,0.399999,0.199885,-0.024968,0.185239,-0.060325,-0.064799,-0.310337,-0.100152,-0.324980,-0.150139,-0.324980,-0.185494,-0.310335,-0.200139,-0.274980,-0.200140,0.399999,-0.185494,0.435354,-0.150139,0.449999,0.149885,0.449999,0.185240,0.435354,0.185240,0.435354,$1*%
%AMFreePoly2*
4,1,14,0.435354,0.185240,0.449999,0.149885,0.449999,-0.150139,0.435354,-0.185494,0.399999,-0.200140,-0.275057,-0.200139,-0.310411,-0.185494,-0.325057,-0.150139,-0.325057,-0.100152,-0.310414,-0.064798,-0.060401,0.185239,-0.025046,0.199885,0.399999,0.199885,0.435354,0.185240,0.435354,0.185240,$1*%
%AMFreePoly3*
4,1,14,0.435354,0.185240,0.449999,0.149885,0.449999,-0.150139,0.435354,-0.185494,0.399999,-0.200140,-0.024968,-0.200140,-0.060325,-0.185493,-0.310337,0.064544,-0.324980,0.099898,-0.324980,0.149885,-0.310335,0.185239,-0.274980,0.199885,0.399999,0.199885,0.435354,0.185240,0.435354,0.185240,$1*%
%AMFreePoly4*
4,1,14,-0.064798,0.310414,0.185239,0.060401,0.199885,0.025046,0.199885,-0.399999,0.185240,-0.435354,0.149885,-0.449999,-0.150139,-0.449999,-0.185494,-0.435354,-0.200140,-0.399999,-0.200139,0.275057,-0.185494,0.310411,-0.150139,0.325057,-0.100152,0.325057,-0.064798,0.310414,-0.064798,0.310414,$1*%
%AMFreePoly5*
4,1,14,0.185215,0.310335,0.199860,0.274982,0.199885,-0.399998,0.185242,-0.435353,0.149887,-0.449999,-0.150139,-0.449999,-0.185494,-0.435354,-0.200140,-0.399999,-0.200140,0.024968,-0.185493,0.060325,0.064544,0.310337,0.099898,0.324980,0.149860,0.324981,0.185215,0.310335,0.185215,0.310335,$1*%
%AMFreePoly6*
4,1,14,0.310412,0.185266,0.325057,0.149911,0.325057,0.099899,0.310414,0.064544,0.060401,-0.185492,0.025046,-0.200139,-0.400002,-0.200114,-0.435356,-0.185467,-0.449999,-0.150114,-0.449999,0.149911,-0.435354,0.185266,-0.399999,0.199910,0.275057,0.199911,0.310412,0.185266,0.310412,0.185266,$1*%
%AMFreePoly7*
4,1,15,0.060323,0.185240,0.060325,0.185239,0.310337,-0.064799,0.324980,-0.100152,0.324980,-0.150139,0.310335,-0.185494,0.274980,-0.200139,-0.399999,-0.200140,-0.435354,-0.185494,-0.449999,-0.150139,-0.449999,0.149885,-0.435354,0.185240,-0.399999,0.199885,0.024968,0.199885,0.060323,0.185240,0.060323,0.185240,$1*%
G04 Aperture macros list end*
%ADD10C,0.000000*%
%ADD11C,0.500000*%
%ADD12O,1.600000X0.900000*%
%ADD13RoundRect,0.100000X0.021213X0.162635X-0.162635X-0.021213X-0.021213X-0.162635X0.162635X0.021213X0*%
%ADD14RoundRect,0.100000X-0.021213X-0.162635X0.162635X0.021213X0.021213X0.162635X-0.162635X-0.021213X0*%
%ADD15RoundRect,0.140000X-0.021213X0.219203X-0.219203X0.021213X0.021213X-0.219203X0.219203X-0.021213X0*%
%ADD16RoundRect,0.140000X-0.219203X-0.021213X-0.021213X-0.219203X0.219203X0.021213X0.021213X0.219203X0*%
%ADD17RoundRect,0.100000X-0.162635X0.021213X0.021213X-0.162635X0.162635X-0.021213X-0.021213X0.162635X0*%
%ADD18RoundRect,0.140000X0.219203X0.021213X0.021213X0.219203X-0.219203X-0.021213X-0.021213X-0.219203X0*%
%ADD19RoundRect,0.225000X0.017678X-0.335876X0.335876X-0.017678X-0.017678X0.335876X-0.335876X0.017678X0*%
%ADD20RoundRect,0.140000X0.021213X-0.219203X0.219203X-0.021213X-0.021213X0.219203X-0.219203X0.021213X0*%
%ADD21RotRect,0.500000X0.600000X315.000000*%
%ADD22C,1.000000*%
%ADD23RoundRect,0.250000X-0.250000X-0.475000X0.250000X-0.475000X0.250000X0.475000X-0.250000X0.475000X0*%
%ADD24RoundRect,0.250000X0.159099X-0.512652X0.512652X-0.159099X-0.159099X0.512652X-0.512652X0.159099X0*%
%ADD25RoundRect,0.100000X0.162635X-0.021213X-0.021213X0.162635X-0.162635X0.021213X0.021213X-0.162635X0*%
%ADD26RoundRect,0.225000X0.335876X0.017678X0.017678X0.335876X-0.335876X-0.017678X-0.017678X-0.335876X0*%
%ADD27RoundRect,0.250000X0.250000X-0.275000X0.250000X0.275000X-0.250000X0.275000X-0.250000X-0.275000X0*%
%ADD28RoundRect,0.250000X0.275000X-0.850000X0.275000X0.850000X-0.275000X0.850000X-0.275000X-0.850000X0*%
%ADD29RoundRect,0.250000X0.250000X0.475000X-0.250000X0.475000X-0.250000X-0.475000X0.250000X-0.475000X0*%
%ADD30FreePoly0,225.000000*%
%ADD31RotRect,0.300000X0.700000X225.000000*%
%ADD32FreePoly1,225.000000*%
%ADD33FreePoly2,225.000000*%
%ADD34RotRect,0.700000X0.300000X225.000000*%
%ADD35FreePoly3,225.000000*%
%ADD36FreePoly4,225.000000*%
%ADD37FreePoly5,225.000000*%
%ADD38FreePoly6,225.000000*%
%ADD39FreePoly7,225.000000*%
%ADD40RotRect,0.200000X0.300000X315.000000*%
%ADD41RotRect,0.200000X0.250000X225.000000*%
%ADD42RotRect,0.200000X0.300000X135.000000*%
%ADD43RoundRect,0.250000X-0.512652X-0.159099X-0.159099X-0.512652X0.512652X0.159099X0.159099X0.512652X0*%
%ADD44RotRect,0.700000X0.200000X135.000000*%
%ADD45RotRect,0.200000X0.700000X135.000000*%
%ADD46RotRect,2.600000X2.600000X135.000000*%
%ADD47RoundRect,0.087500X-0.220971X0.097227X0.097227X-0.220971X0.220971X-0.097227X-0.097227X0.220971X0*%
%ADD48RoundRect,0.087500X-0.220971X-0.097227X-0.097227X-0.220971X0.220971X0.097227X0.097227X0.220971X0*%
%ADD49RoundRect,0.147500X-0.017678X0.226274X-0.226274X0.017678X0.017678X-0.226274X0.226274X-0.017678X0*%
%ADD50RotRect,0.500000X0.600000X225.000000*%
%ADD51RoundRect,0.225000X-0.017678X0.335876X-0.335876X0.017678X0.017678X-0.335876X0.335876X-0.017678X0*%
%ADD52RoundRect,0.100000X-0.130000X-0.100000X0.130000X-0.100000X0.130000X0.100000X-0.130000X0.100000X0*%
%ADD53RoundRect,0.250000X-0.053033X-0.406586X0.406586X0.053033X0.053033X0.406586X-0.406586X-0.053033X0*%
%ADD54RotRect,0.500000X0.600000X45.000000*%
%ADD55HorizOval,0.200000X0.159099X0.159099X-0.159099X-0.159099X0*%
%ADD56HorizOval,0.200000X-0.159099X0.159099X0.159099X-0.159099X0*%
%ADD57RotRect,2.100000X2.100000X225.000000*%
%ADD58RoundRect,0.150000X0.512500X0.150000X-0.512500X0.150000X-0.512500X-0.150000X0.512500X-0.150000X0*%
%ADD59RoundRect,0.100000X-0.100000X0.130000X-0.100000X-0.130000X0.100000X-0.130000X0.100000X0.130000X0*%
%ADD60RotRect,0.375000X0.350000X315.000000*%
%ADD61RotRect,0.375000X0.350000X225.000000*%
%ADD62RotRect,0.700000X0.200000X315.000000*%
%ADD63RotRect,0.200000X0.700000X315.000000*%
%ADD64RotRect,2.600000X2.600000X315.000000*%
%ADD65RoundRect,0.225000X-0.335876X-0.017678X-0.017678X-0.335876X0.335876X0.017678X0.017678X0.335876X0*%
%ADD66RoundRect,0.100000X0.130000X0.100000X-0.130000X0.100000X-0.130000X-0.100000X0.130000X-0.100000X0*%
%ADD67RoundRect,0.050000X0.282843X-0.212132X-0.212132X0.282843X-0.282843X0.212132X0.212132X-0.282843X0*%
%ADD68RoundRect,0.050000X0.282843X0.212132X0.212132X0.282843X-0.282843X-0.212132X-0.212132X-0.282843X0*%
%ADD69RotRect,4.600000X4.600000X135.000000*%
%ADD70RoundRect,0.200000X0.035355X0.318198X-0.318198X-0.035355X-0.035355X-0.318198X0.318198X0.035355X0*%
%ADD71RoundRect,0.225000X0.225000X0.250000X-0.225000X0.250000X-0.225000X-0.250000X0.225000X-0.250000X0*%
%ADD72RotRect,0.700000X0.350000X135.000000*%
%ADD73RotRect,0.350000X0.700000X135.000000*%
%ADD74RotRect,2.400000X1.900000X135.000000*%
%ADD75FreePoly0,45.000000*%
%ADD76RotRect,0.300000X0.700000X45.000000*%
%ADD77FreePoly1,45.000000*%
%ADD78FreePoly2,45.000000*%
%ADD79RotRect,0.700000X0.300000X45.000000*%
%ADD80FreePoly3,45.000000*%
%ADD81FreePoly4,45.000000*%
%ADD82FreePoly5,45.000000*%
%ADD83FreePoly6,45.000000*%
%ADD84FreePoly7,45.000000*%
%ADD85RoundRect,0.100000X0.100000X-0.130000X0.100000X0.130000X-0.100000X0.130000X-0.100000X-0.130000X0*%
%ADD86RotRect,1.000000X1.000000X225.000000*%
%ADD87RoundRect,0.062500X-0.045962X-0.134350X0.134350X0.045962X0.045962X0.134350X-0.134350X-0.045962X0*%
%ADD88RoundRect,0.125000X0.000000X-0.176777X0.176777X0.000000X0.000000X0.176777X-0.176777X0.000000X0*%
%ADD89RotRect,0.500000X0.600000X135.000000*%
%ADD90R,0.500000X0.600000*%
%ADD91R,1.800000X1.200000*%
G04 APERTURE END LIST*
D10*
%TO.C,JP2*%
G36*
X252336826Y-100250266D02*
G01*
X251912562Y-100674530D01*
X251771141Y-100533109D01*
X252195405Y-100108845D01*
X252336826Y-100250266D01*
G37*
G36*
X252831801Y-100745241D02*
G01*
X252407537Y-101169505D01*
X252266116Y-101028084D01*
X252690380Y-100603820D01*
X252831801Y-100745241D01*
G37*
%TO.C,J5*%
G36*
X262400228Y-85628298D02*
G01*
X260520228Y-85628298D01*
X260520228Y-83538298D01*
X262400228Y-83538298D01*
X262400228Y-85628298D01*
G37*
%TO.C,JP5*%
G36*
X254185910Y-89742660D02*
G01*
X254044489Y-89884081D01*
X253620225Y-89459817D01*
X253761646Y-89318396D01*
X254185910Y-89742660D01*
G37*
%TO.C,JP6*%
G36*
X249605627Y-93152683D02*
G01*
X249464206Y-93294104D01*
X249039942Y-92869840D01*
X249181363Y-92728419D01*
X249605627Y-93152683D01*
G37*
G36*
X250100602Y-92657708D02*
G01*
X249959181Y-92799129D01*
X249534917Y-92374865D01*
X249676338Y-92233444D01*
X250100602Y-92657708D01*
G37*
%TO.C,JP3*%
G36*
X251240812Y-90828069D02*
G01*
X250816548Y-91252333D01*
X250675127Y-91110912D01*
X251099391Y-90686648D01*
X251240812Y-90828069D01*
G37*
%TO.C,JP4*%
G36*
X253553051Y-89102729D02*
G01*
X253411630Y-89244150D01*
X252987366Y-88819886D01*
X253128787Y-88678465D01*
X253553051Y-89102729D01*
G37*
%TO.C,JP1*%
G36*
X226950000Y-100200000D02*
G01*
X226750000Y-100200000D01*
X226750000Y-99600000D01*
X226950000Y-99600000D01*
X226950000Y-100200000D01*
G37*
%TD*%
D11*
%TO.C,U7*%
X261637500Y-89950000D03*
X261637500Y-82450000D03*
D12*
X261337500Y-90700000D03*
X263727500Y-90700000D03*
X263727500Y-81700000D03*
X261337500Y-81700000D03*
%TD*%
D13*
%TO.C,R139*%
X241926274Y-85073726D03*
X241473726Y-85526274D03*
%TD*%
%TO.C,R27*%
X256837562Y-90944742D03*
X256385014Y-91397290D03*
%TD*%
D14*
%TO.C,R26*%
X258135103Y-93295872D03*
X258587651Y-92843324D03*
%TD*%
D15*
%TO.C,C180*%
X244198795Y-82854360D03*
X243519973Y-83533182D03*
%TD*%
D16*
%TO.C,C12*%
X228638308Y-86359540D03*
X229317130Y-87038362D03*
%TD*%
D17*
%TO.C,D15*%
X253247452Y-86374946D03*
X253700000Y-86827494D03*
%TD*%
D18*
%TO.C,C175*%
X257361611Y-109476221D03*
X256682789Y-108797399D03*
%TD*%
D14*
%TO.C,R115*%
X242880222Y-107139233D03*
X243332770Y-106686685D03*
%TD*%
D19*
%TO.C,C89*%
X247351992Y-92548008D03*
X248448008Y-91451992D03*
%TD*%
D20*
%TO.C,C157*%
X241731174Y-112651130D03*
X242409996Y-111972308D03*
%TD*%
D21*
%TO.C,JP2*%
X251806496Y-100144200D03*
X252301471Y-100639175D03*
X252796446Y-101134150D03*
%TD*%
D22*
%TO.C,TP19*%
X243200000Y-77000000D03*
%TD*%
D13*
%TO.C,R104*%
X257352548Y-81474945D03*
X256900000Y-81927493D03*
%TD*%
D14*
%TO.C,R146*%
X248698726Y-102423780D03*
X249151274Y-101971232D03*
%TD*%
D23*
%TO.C,C153*%
X244425000Y-112197506D03*
X246325000Y-112197506D03*
%TD*%
D24*
%TO.C,C50*%
X254938477Y-88510049D03*
X256281979Y-87166547D03*
%TD*%
D25*
%TO.C,R88*%
X246501274Y-79428768D03*
X246048726Y-78976220D03*
%TD*%
D13*
%TO.C,R90*%
X247719778Y-80360767D03*
X247267230Y-80813315D03*
%TD*%
D15*
%TO.C,C135*%
X253252888Y-76121662D03*
X252574066Y-76800484D03*
%TD*%
D25*
%TO.C,C91*%
X249326274Y-90851274D03*
X248873726Y-90398726D03*
%TD*%
D16*
%TO.C,C33*%
X226460589Y-98060589D03*
X227139411Y-98739411D03*
%TD*%
D14*
%TO.C,R66*%
X233761900Y-80280491D03*
X234214448Y-79827943D03*
%TD*%
D25*
%TO.C,R46*%
X242730309Y-98127696D03*
X242277761Y-97675148D03*
%TD*%
D26*
%TO.C,C8*%
X233648008Y-83948008D03*
X232551992Y-82851992D03*
%TD*%
D22*
%TO.C,TP26*%
X234425000Y-110497506D03*
%TD*%
D17*
%TO.C,C48*%
X257431531Y-87996107D03*
X257884079Y-88448655D03*
%TD*%
D14*
%TO.C,C176*%
X242904790Y-84926183D03*
X243357338Y-84473635D03*
%TD*%
D23*
%TO.C,C177*%
X257425000Y-112197506D03*
X259325000Y-112197506D03*
%TD*%
D20*
%TO.C,C131*%
X246735589Y-77141905D03*
X247414411Y-76463083D03*
%TD*%
D18*
%TO.C,C7*%
X236065148Y-85083849D03*
X235386326Y-84405027D03*
%TD*%
D13*
%TO.C,R79*%
X244377548Y-81472451D03*
X243925000Y-81924999D03*
%TD*%
%TO.C,R116*%
X243863100Y-107217015D03*
X243410552Y-107669563D03*
%TD*%
D14*
%TO.C,C44*%
X254751597Y-90874031D03*
X255204145Y-90421483D03*
%TD*%
D13*
%TO.C,C215*%
X248250540Y-103101653D03*
X247797992Y-103554201D03*
%TD*%
%TO.C,R23*%
X249526078Y-97068288D03*
X249073530Y-97520836D03*
%TD*%
%TO.C,R65*%
X234744778Y-80358273D03*
X234292230Y-80810821D03*
%TD*%
D25*
%TO.C,R63*%
X233526274Y-79426274D03*
X233073726Y-78973726D03*
%TD*%
D13*
%TO.C,R105*%
X256857573Y-80979971D03*
X256405025Y-81432519D03*
%TD*%
D14*
%TO.C,R135*%
X235748726Y-108523780D03*
X236201274Y-108071232D03*
%TD*%
D16*
%TO.C,C93*%
X243272272Y-98812564D03*
X243951094Y-99491386D03*
%TD*%
D27*
%TO.C,J5*%
X261460228Y-86163298D03*
D28*
X259985227Y-84638298D03*
X262935229Y-84638298D03*
%TD*%
D13*
%TO.C,R158*%
X248200000Y-107072506D03*
X247747452Y-107525054D03*
%TD*%
D29*
%TO.C,C105*%
X233199999Y-75300000D03*
X231300001Y-75300000D03*
%TD*%
D13*
%TO.C,R25*%
X249034638Y-96569777D03*
X248582090Y-97022325D03*
%TD*%
%TO.C,R81*%
X240451130Y-77409638D03*
X239998582Y-77862186D03*
%TD*%
%TO.C,R153*%
X247701274Y-106571232D03*
X247248726Y-107023780D03*
%TD*%
D30*
%TO.C,U23*%
X255893932Y-82764930D03*
D31*
X255575734Y-83153838D03*
X255222180Y-83507392D03*
X254868627Y-83860945D03*
X254515074Y-84214498D03*
X254161520Y-84568052D03*
D32*
X253772612Y-84886250D03*
D33*
X253235210Y-84886250D03*
D34*
X252846302Y-84568052D03*
X252492748Y-84214498D03*
X252139195Y-83860945D03*
X251785642Y-83507392D03*
X251432088Y-83153838D03*
D35*
X251113890Y-82764930D03*
D36*
X251113890Y-82227528D03*
D31*
X251432088Y-81838620D03*
X251785642Y-81485066D03*
X252139195Y-81131513D03*
X252492748Y-80777960D03*
X252846302Y-80424406D03*
D37*
X253235210Y-80106208D03*
D38*
X253772612Y-80106208D03*
D34*
X254157985Y-80427942D03*
X254515074Y-80777960D03*
X254868627Y-81131513D03*
X255222180Y-81485066D03*
X255575734Y-81838620D03*
D39*
X255893932Y-82227528D03*
%TD*%
D13*
%TO.C,R141*%
X256863100Y-107217015D03*
X256410552Y-107669563D03*
%TD*%
D40*
%TO.C,U5*%
X259429108Y-90842211D03*
X259075555Y-90488658D03*
X258722002Y-90135105D03*
D41*
X258842210Y-89618917D03*
D42*
X259358398Y-89498709D03*
D40*
X259711951Y-89852262D03*
X260065504Y-90205815D03*
D41*
X259945296Y-90722003D03*
%TD*%
D25*
%TO.C,C53*%
X255833470Y-92019544D03*
X255380922Y-91566996D03*
%TD*%
D13*
%TO.C,C214*%
X247720210Y-102571323D03*
X247267662Y-103023871D03*
%TD*%
D14*
%TO.C,R91*%
X246736900Y-80282985D03*
X247189448Y-79830437D03*
%TD*%
D16*
%TO.C,C35*%
X256720889Y-100179556D03*
X257399711Y-100858378D03*
%TD*%
D13*
%TO.C,R100*%
X252706299Y-85581246D03*
X252253751Y-86033794D03*
%TD*%
D14*
%TO.C,R28*%
X260733954Y-88864572D03*
X261186502Y-88412024D03*
%TD*%
D43*
%TO.C,C1*%
X238928249Y-87628249D03*
X240271751Y-88971751D03*
%TD*%
D20*
%TO.C,C18*%
X239310589Y-98339411D03*
X239989411Y-97660589D03*
%TD*%
D13*
%TO.C,R151*%
X251851274Y-101971232D03*
X251398726Y-102423780D03*
%TD*%
%TO.C,R6*%
X228076274Y-96273726D03*
X227623726Y-96726274D03*
%TD*%
D14*
%TO.C,R51*%
X236458909Y-86571672D03*
X236911457Y-86119124D03*
%TD*%
%TO.C,R134*%
X235248726Y-108023780D03*
X235701274Y-107571232D03*
%TD*%
D25*
%TO.C,C85*%
X245074651Y-95605092D03*
X244622103Y-95152544D03*
%TD*%
D44*
%TO.C,U25*%
X255848402Y-109766135D03*
X255565560Y-110048978D03*
X255282717Y-110331821D03*
X254999874Y-110614663D03*
X254717032Y-110897506D03*
X254434189Y-111180349D03*
X254151346Y-111463191D03*
D45*
X253090686Y-111463191D03*
X252807843Y-111180349D03*
X252525000Y-110897506D03*
X252242158Y-110614663D03*
X251959315Y-110331821D03*
X251676472Y-110048978D03*
X251393630Y-109766135D03*
D44*
X251393630Y-108705475D03*
X251676472Y-108422632D03*
X251959315Y-108139789D03*
X252242158Y-107856947D03*
X252525000Y-107574104D03*
X252807843Y-107291261D03*
X253090686Y-107008419D03*
D45*
X254151346Y-107008419D03*
X254434189Y-107291261D03*
X254717032Y-107574104D03*
X254999874Y-107856947D03*
X255282717Y-108139789D03*
X255565560Y-108422632D03*
X255848402Y-108705475D03*
D46*
X253621016Y-109235805D03*
%TD*%
D47*
%TO.C,U13*%
X240249390Y-99678769D03*
X240602944Y-99325216D03*
X240956497Y-98971663D03*
X241310050Y-98618109D03*
D48*
X241893414Y-98971663D03*
X242246967Y-99325216D03*
X242600520Y-99678769D03*
D47*
X242954074Y-100262133D03*
X242600520Y-100615686D03*
X242246967Y-100969239D03*
X241893414Y-101322793D03*
D48*
X241310050Y-100969239D03*
X240956497Y-100615686D03*
X240602944Y-100262133D03*
%TD*%
D13*
%TO.C,C20*%
X227523297Y-94573223D03*
X227070749Y-95025771D03*
%TD*%
D49*
%TO.C,L2*%
X256445118Y-89116871D03*
X255759224Y-89802765D03*
%TD*%
D13*
%TO.C,C211*%
X234720210Y-102571323D03*
X234267662Y-103023871D03*
%TD*%
D14*
%TO.C,R108*%
X255400000Y-80427494D03*
X255852548Y-79974946D03*
%TD*%
D18*
%TO.C,C29*%
X228903822Y-97903822D03*
X228225000Y-97225000D03*
%TD*%
D15*
%TO.C,C133*%
X248868826Y-74848870D03*
X248190004Y-75527692D03*
%TD*%
D25*
%TO.C,C51*%
X257420925Y-92652405D03*
X256968377Y-92199857D03*
%TD*%
D14*
%TO.C,C178*%
X242374460Y-84395853D03*
X242827008Y-83943305D03*
%TD*%
D13*
%TO.C,R85*%
X241876274Y-78973726D03*
X241423726Y-79426274D03*
%TD*%
D17*
%TO.C,R18*%
X250225000Y-91375000D03*
X250677548Y-91827548D03*
%TD*%
%TO.C,R136*%
X240776795Y-85873726D03*
X241229343Y-86326274D03*
%TD*%
D25*
%TO.C,R99*%
X253901274Y-75628768D03*
X253448726Y-75176220D03*
%TD*%
D16*
%TO.C,C182*%
X251910589Y-111733095D03*
X252589411Y-112411917D03*
%TD*%
D50*
%TO.C,JP5*%
X254150555Y-89353751D03*
X253655580Y-89848726D03*
%TD*%
D17*
%TO.C,R138*%
X257098726Y-108071232D03*
X257551274Y-108523780D03*
%TD*%
D14*
%TO.C,R16*%
X250673726Y-100226274D03*
X251126274Y-99773726D03*
%TD*%
D13*
%TO.C,R75*%
X239731299Y-85578752D03*
X239278751Y-86031300D03*
%TD*%
D51*
%TO.C,C67*%
X233198008Y-100701992D03*
X232101992Y-101798008D03*
%TD*%
D22*
%TO.C,TP23*%
X243200000Y-78200000D03*
%TD*%
D15*
%TO.C,C83*%
X245526174Y-97187986D03*
X244847352Y-97866808D03*
%TD*%
D52*
%TO.C,C57*%
X261470228Y-87538298D03*
X262110228Y-87538298D03*
%TD*%
D14*
%TO.C,R157*%
X249675000Y-109597506D03*
X250127548Y-109144958D03*
%TD*%
D29*
%TO.C,C129*%
X246175000Y-75302494D03*
X244275000Y-75302494D03*
%TD*%
D13*
%TO.C,C23*%
X230126274Y-98673726D03*
X229673726Y-99126274D03*
%TD*%
D25*
%TO.C,R48*%
X245526274Y-92026274D03*
X245073726Y-91573726D03*
%TD*%
D13*
%TO.C,R107*%
X253925000Y-77902494D03*
X253472452Y-78355042D03*
%TD*%
%TO.C,R142*%
X254901274Y-85076220D03*
X254448726Y-85528768D03*
%TD*%
D20*
%TO.C,C213*%
X233426205Y-104643146D03*
X234105027Y-103964324D03*
%TD*%
D25*
%TO.C,R167*%
X249848205Y-101623780D03*
X249395657Y-101171232D03*
%TD*%
D14*
%TO.C,R156*%
X250173870Y-110087868D03*
X250626418Y-109635320D03*
%TD*%
D53*
%TO.C,Y2*%
X257463351Y-99012830D03*
X258700788Y-97775393D03*
X259690737Y-98765342D03*
X258453300Y-100002779D03*
%TD*%
D25*
%TO.C,R20*%
X251735786Y-90615937D03*
X251283238Y-90163389D03*
%TD*%
D54*
%TO.C,JP6*%
X249075297Y-93258749D03*
X249570272Y-92763774D03*
X250065247Y-92268799D03*
%TD*%
D55*
%TO.C,U1*%
X234594366Y-86300074D03*
X234841854Y-86547562D03*
X235089341Y-86795049D03*
X235336829Y-87042536D03*
X235584316Y-87290024D03*
X235831803Y-87537511D03*
X236079291Y-87784999D03*
X236326778Y-88032486D03*
X236574265Y-88279973D03*
X236821753Y-88527461D03*
X237069240Y-88774948D03*
X237316727Y-89022435D03*
X237564215Y-89269923D03*
X237811702Y-89517410D03*
X238059190Y-89764898D03*
X238306677Y-90012385D03*
X238554164Y-90259872D03*
X238801652Y-90507360D03*
X239049139Y-90754847D03*
X239296626Y-91002334D03*
X239544114Y-91249822D03*
X239791601Y-91497309D03*
X240039089Y-91744796D03*
X240286576Y-91992284D03*
X240534063Y-92239771D03*
X240781551Y-92487259D03*
D56*
X240781551Y-93194365D03*
X240534063Y-93441853D03*
X240286576Y-93689340D03*
X240039089Y-93936828D03*
X239791601Y-94184315D03*
X239544114Y-94431802D03*
X239296626Y-94679290D03*
X239049139Y-94926777D03*
X238801652Y-95174264D03*
X238554164Y-95421752D03*
X238306677Y-95669239D03*
X238059190Y-95916726D03*
X237811702Y-96164214D03*
X237564215Y-96411701D03*
X237316727Y-96659189D03*
X237069240Y-96906676D03*
X236821753Y-97154163D03*
X236574265Y-97401651D03*
X236326778Y-97649138D03*
X236079291Y-97896625D03*
X235831803Y-98144113D03*
X235584316Y-98391600D03*
X235336829Y-98639088D03*
X235089341Y-98886575D03*
X234841854Y-99134062D03*
X234594366Y-99381550D03*
D55*
X233887260Y-99381550D03*
X233639772Y-99134062D03*
X233392285Y-98886575D03*
X233144797Y-98639088D03*
X232897310Y-98391600D03*
X232649823Y-98144113D03*
X232402335Y-97896625D03*
X232154848Y-97649138D03*
X231907361Y-97401651D03*
X231659873Y-97154163D03*
X231412386Y-96906676D03*
X231164899Y-96659189D03*
X230917411Y-96411701D03*
X230669924Y-96164214D03*
X230422436Y-95916726D03*
X230174949Y-95669239D03*
X229927462Y-95421752D03*
X229679974Y-95174264D03*
X229432487Y-94926777D03*
X229185000Y-94679290D03*
X228937512Y-94431802D03*
X228690025Y-94184315D03*
X228442537Y-93936828D03*
X228195050Y-93689340D03*
X227947563Y-93441853D03*
X227700075Y-93194365D03*
D56*
X227700075Y-92487259D03*
X227947563Y-92239771D03*
X228195050Y-91992284D03*
X228442537Y-91744796D03*
X228690025Y-91497309D03*
X228937512Y-91249822D03*
X229185000Y-91002334D03*
X229432487Y-90754847D03*
X229679974Y-90507360D03*
X229927462Y-90259872D03*
X230174949Y-90012385D03*
X230422436Y-89764898D03*
X230669924Y-89517410D03*
X230917411Y-89269923D03*
X231164899Y-89022435D03*
X231412386Y-88774948D03*
X231659873Y-88527461D03*
X231907361Y-88279973D03*
X232154848Y-88032486D03*
X232402335Y-87784999D03*
X232649823Y-87537511D03*
X232897310Y-87290024D03*
X233144797Y-87042536D03*
X233392285Y-86795049D03*
X233639772Y-86547562D03*
X233887260Y-86300074D03*
D57*
X238059190Y-92840812D03*
X236150001Y-90931624D03*
X234240813Y-89022435D03*
X236150001Y-94750000D03*
X234240813Y-92840812D03*
X232331625Y-90931624D03*
X234240813Y-96659189D03*
X232331625Y-94750000D03*
X230422436Y-92840812D03*
%TD*%
D13*
%TO.C,C10*%
X231148536Y-87462628D03*
X230695988Y-87915176D03*
%TD*%
D17*
%TO.C,C55*%
X257656038Y-90136873D03*
X258108586Y-90589421D03*
%TD*%
%TO.C,R98*%
X252048726Y-74976220D03*
X252501274Y-75428768D03*
%TD*%
D58*
%TO.C,U6*%
X229244999Y-103390001D03*
X229244999Y-104340000D03*
X229244999Y-105289999D03*
X226969999Y-105289999D03*
X226969999Y-103390001D03*
%TD*%
D25*
%TO.C,C26*%
X229526274Y-97351274D03*
X229073726Y-96898726D03*
%TD*%
D14*
%TO.C,R130*%
X233742427Y-106520029D03*
X234194975Y-106067481D03*
%TD*%
D13*
%TO.C,R80*%
X243882573Y-80977477D03*
X243430025Y-81430025D03*
%TD*%
D14*
%TO.C,R159*%
X248248726Y-108023780D03*
X248701274Y-107571232D03*
%TD*%
D17*
%TO.C,C47*%
X256936557Y-88491082D03*
X257389105Y-88943630D03*
%TD*%
D18*
%TO.C,C45*%
X258120959Y-92185714D03*
X257442137Y-91506892D03*
%TD*%
%TO.C,C36*%
X260475625Y-97641043D03*
X259796803Y-96962221D03*
%TD*%
D22*
%TO.C,TP31*%
X247425000Y-109297506D03*
%TD*%
D14*
%TO.C,R83*%
X242425000Y-80425000D03*
X242877548Y-79972452D03*
%TD*%
D17*
%TO.C,R30*%
X227052476Y-88242426D03*
X227505024Y-88694974D03*
%TD*%
D52*
%TO.C,R32*%
X226454999Y-102275000D03*
X227094999Y-102275000D03*
%TD*%
D18*
%TO.C,C151*%
X244361611Y-109476221D03*
X243682789Y-108797399D03*
%TD*%
D17*
%TO.C,R113*%
X244098726Y-108071232D03*
X244551274Y-108523780D03*
%TD*%
D59*
%TO.C,R112*%
X241375000Y-104227506D03*
X241375000Y-104867506D03*
%TD*%
D17*
%TO.C,R165*%
X253751795Y-85876220D03*
X254204343Y-86328768D03*
%TD*%
D60*
%TO.C,U12*%
X242658856Y-96555125D03*
X243012409Y-96201572D03*
X243365963Y-95848018D03*
X243719516Y-95494465D03*
D61*
X244090747Y-95848018D03*
X244444301Y-96201572D03*
D60*
X244797854Y-96572803D03*
X244444301Y-96926356D03*
X244090747Y-97279910D03*
X243737194Y-97633463D03*
D61*
X243365963Y-97279910D03*
X243012409Y-96926356D03*
%TD*%
D15*
%TO.C,C38*%
X255752152Y-99592658D03*
X255073330Y-100271480D03*
%TD*%
D22*
%TO.C,TP41*%
X233375000Y-109897506D03*
%TD*%
D14*
%TO.C,R49*%
X236953883Y-87066647D03*
X237406431Y-86614099D03*
%TD*%
%TO.C,R143*%
X235698726Y-102423780D03*
X236151274Y-101971232D03*
%TD*%
D15*
%TO.C,C155*%
X243864411Y-110358095D03*
X243185589Y-111036917D03*
%TD*%
D13*
%TO.C,R133*%
X235200000Y-107072506D03*
X234747452Y-107525054D03*
%TD*%
D17*
%TO.C,R124*%
X236698726Y-111871232D03*
X237151274Y-112323780D03*
%TD*%
D25*
%TO.C,D16*%
X237352548Y-101125054D03*
X236900000Y-100672506D03*
%TD*%
D17*
%TO.C,C3*%
X241294202Y-91479631D03*
X241746750Y-91932179D03*
%TD*%
D20*
%TO.C,C183*%
X250347112Y-111378338D03*
X251025934Y-110699516D03*
%TD*%
D14*
%TO.C,R50*%
X244100000Y-85400000D03*
X244552548Y-84947452D03*
%TD*%
D20*
%TO.C,C181*%
X254731174Y-112651130D03*
X255409996Y-111972308D03*
%TD*%
D25*
%TO.C,R14*%
X256204700Y-98531997D03*
X255752152Y-98079449D03*
%TD*%
D14*
%TO.C,C13*%
X238177630Y-97318564D03*
X238630178Y-96866016D03*
%TD*%
D62*
%TO.C,U16*%
X234776598Y-77731371D03*
X235059440Y-77448528D03*
X235342283Y-77165685D03*
X235625126Y-76882843D03*
X235907968Y-76600000D03*
X236190811Y-76317157D03*
X236473654Y-76034315D03*
D63*
X237534314Y-76034315D03*
X237817157Y-76317157D03*
X238100000Y-76600000D03*
X238382842Y-76882843D03*
X238665685Y-77165685D03*
X238948528Y-77448528D03*
X239231370Y-77731371D03*
D62*
X239231370Y-78792031D03*
X238948528Y-79074874D03*
X238665685Y-79357717D03*
X238382842Y-79640559D03*
X238100000Y-79923402D03*
X237817157Y-80206245D03*
X237534314Y-80489087D03*
D63*
X236473654Y-80489087D03*
X236190811Y-80206245D03*
X235907968Y-79923402D03*
X235625126Y-79640559D03*
X235342283Y-79357717D03*
X235059440Y-79074874D03*
X234776598Y-78792031D03*
D64*
X237003984Y-78261701D03*
%TD*%
D17*
%TO.C,R73*%
X239073726Y-74973726D03*
X239526274Y-75426274D03*
%TD*%
D25*
%TO.C,C54*%
X259455625Y-91936459D03*
X259003077Y-91483911D03*
%TD*%
D13*
%TO.C,R109*%
X255351274Y-79476220D03*
X254898726Y-79928768D03*
%TD*%
D52*
%TO.C,R7*%
X228030000Y-100000000D03*
X228670000Y-100000000D03*
%TD*%
D14*
%TO.C,R76*%
X238773726Y-85526274D03*
X239226274Y-85073726D03*
%TD*%
D22*
%TO.C,TP24*%
X256175000Y-77002494D03*
%TD*%
D14*
%TO.C,R22*%
X254242479Y-90393198D03*
X254695027Y-89940650D03*
%TD*%
D65*
%TO.C,C86*%
X244751992Y-92851992D03*
X245848008Y-93948008D03*
%TD*%
D66*
%TO.C,C66*%
X229914999Y-102275000D03*
X229274999Y-102275000D03*
%TD*%
D25*
%TO.C,C17*%
X228952548Y-89602548D03*
X228500000Y-89150000D03*
%TD*%
D13*
%TO.C,R106*%
X253426130Y-77412132D03*
X252973582Y-77864680D03*
%TD*%
D25*
%TO.C,R21*%
X252633812Y-90304810D03*
X252181264Y-89852262D03*
%TD*%
D67*
%TO.C,U4*%
X256791600Y-95530330D03*
X256508757Y-95813173D03*
X256225914Y-96096016D03*
X255943072Y-96378858D03*
X255660229Y-96661701D03*
X255377386Y-96944544D03*
X255094544Y-97227386D03*
X254811701Y-97510229D03*
X254528858Y-97793072D03*
X254246016Y-98075914D03*
X253963173Y-98358757D03*
X253680330Y-98641600D03*
D68*
X252619670Y-98641600D03*
X252336827Y-98358757D03*
X252053984Y-98075914D03*
X251771142Y-97793072D03*
X251488299Y-97510229D03*
X251205456Y-97227386D03*
X250922614Y-96944544D03*
X250639771Y-96661701D03*
X250356928Y-96378858D03*
X250074086Y-96096016D03*
X249791243Y-95813173D03*
X249508400Y-95530330D03*
D67*
X249508400Y-94469670D03*
X249791243Y-94186827D03*
X250074086Y-93903984D03*
X250356928Y-93621142D03*
X250639771Y-93338299D03*
X250922614Y-93055456D03*
X251205456Y-92772614D03*
X251488299Y-92489771D03*
X251771142Y-92206928D03*
X252053984Y-91924086D03*
X252336827Y-91641243D03*
X252619670Y-91358400D03*
D68*
X253680330Y-91358400D03*
X253963173Y-91641243D03*
X254246016Y-91924086D03*
X254528858Y-92206928D03*
X254811701Y-92489771D03*
X255094544Y-92772614D03*
X255377386Y-93055456D03*
X255660229Y-93338299D03*
X255943072Y-93621142D03*
X256225914Y-93903984D03*
X256508757Y-94186827D03*
X256791600Y-94469670D03*
D69*
X253150000Y-95000000D03*
%TD*%
D13*
%TO.C,C42*%
X257795690Y-96011162D03*
X257343142Y-96463710D03*
%TD*%
D17*
%TO.C,D14*%
X240272452Y-86372452D03*
X240725000Y-86825000D03*
%TD*%
D18*
%TO.C,C134*%
X251689411Y-75766905D03*
X251010589Y-75088083D03*
%TD*%
D14*
%TO.C,C19*%
X235347452Y-100152548D03*
X235800000Y-99700000D03*
%TD*%
D22*
%TO.C,TP53*%
X246375000Y-109897506D03*
%TD*%
D25*
%TO.C,C15*%
X233152548Y-85352548D03*
X232700000Y-84900000D03*
%TD*%
D20*
%TO.C,C37*%
X254000000Y-100000000D03*
X254678822Y-99321178D03*
%TD*%
D14*
%TO.C,R132*%
X236675000Y-109597506D03*
X237127548Y-109144958D03*
%TD*%
D62*
%TO.C,U19*%
X247751598Y-77733865D03*
X248034440Y-77451022D03*
X248317283Y-77168179D03*
X248600126Y-76885337D03*
X248882968Y-76602494D03*
X249165811Y-76319651D03*
X249448654Y-76036809D03*
D63*
X250509314Y-76036809D03*
X250792157Y-76319651D03*
X251075000Y-76602494D03*
X251357842Y-76885337D03*
X251640685Y-77168179D03*
X251923528Y-77451022D03*
X252206370Y-77733865D03*
D62*
X252206370Y-78794525D03*
X251923528Y-79077368D03*
X251640685Y-79360211D03*
X251357842Y-79643053D03*
X251075000Y-79925896D03*
X250792157Y-80208739D03*
X250509314Y-80491581D03*
D63*
X249448654Y-80491581D03*
X249165811Y-80208739D03*
X248882968Y-79925896D03*
X248600126Y-79643053D03*
X248317283Y-79360211D03*
X248034440Y-79077368D03*
X247751598Y-78794525D03*
D64*
X249978984Y-78264195D03*
%TD*%
D14*
%TO.C,R101*%
X251748726Y-85528768D03*
X252201274Y-85076220D03*
%TD*%
%TO.C,R150*%
X250893701Y-101918754D03*
X251346249Y-101466206D03*
%TD*%
%TO.C,R102*%
X251253751Y-85033794D03*
X251706299Y-84581246D03*
%TD*%
D70*
%TO.C,Y1*%
X231523303Y-85426159D03*
X230533354Y-86416108D03*
X229755537Y-85638291D03*
X230745486Y-84648342D03*
%TD*%
D13*
%TO.C,R126*%
X238851274Y-101971232D03*
X238398726Y-102423780D03*
%TD*%
D14*
%TO.C,R129*%
X233247452Y-106025055D03*
X233700000Y-105572507D03*
%TD*%
D20*
%TO.C,C216*%
X246426205Y-104643146D03*
X247105027Y-103964324D03*
%TD*%
D14*
%TO.C,C2*%
X240800000Y-90900000D03*
X241252548Y-90447452D03*
%TD*%
D52*
%TO.C,R31*%
X227864999Y-102275000D03*
X228504999Y-102275000D03*
%TD*%
D13*
%TO.C,R17*%
X249126274Y-100373726D03*
X248673726Y-100826274D03*
%TD*%
D71*
%TO.C,C58*%
X228375000Y-101150000D03*
X226825000Y-101150000D03*
%TD*%
D14*
%TO.C,C21*%
X235842426Y-100647522D03*
X236294974Y-100194974D03*
%TD*%
D25*
%TO.C,R74*%
X240926274Y-75626274D03*
X240473726Y-75173726D03*
%TD*%
%TO.C,R123*%
X238551274Y-112523780D03*
X238098726Y-112071232D03*
%TD*%
%TO.C,C60*%
X228494975Y-87705025D03*
X228042427Y-87252477D03*
%TD*%
D13*
%TO.C,R127*%
X239346249Y-102466206D03*
X238893701Y-102918754D03*
%TD*%
D17*
%TO.C,R47*%
X240733758Y-101718773D03*
X241186306Y-102171321D03*
%TD*%
D14*
%TO.C,C187*%
X255349460Y-84398347D03*
X255802008Y-83945799D03*
%TD*%
D17*
%TO.C,C52*%
X257569418Y-93826202D03*
X258021966Y-94278750D03*
%TD*%
D72*
%TO.C,U14*%
X249752691Y-88494975D03*
X249293072Y-88954594D03*
X248833452Y-89414214D03*
X248373833Y-89873833D03*
X247914214Y-90333452D03*
X247454594Y-90793072D03*
X246994975Y-91252691D03*
D73*
X246005025Y-91252691D03*
X245545406Y-90793072D03*
X245085786Y-90333452D03*
X244626167Y-89873833D03*
X244166548Y-89414214D03*
X243706928Y-88954594D03*
X243247309Y-88494975D03*
D72*
X243247309Y-87505025D03*
X243706928Y-87045406D03*
X244166548Y-86585786D03*
X244626167Y-86126167D03*
X245085786Y-85666548D03*
X245545406Y-85206928D03*
X246005025Y-84747309D03*
D73*
X246994975Y-84747309D03*
X247454594Y-85206928D03*
X247914214Y-85666548D03*
X248373833Y-86126167D03*
X248833452Y-86585786D03*
X249293072Y-87045406D03*
X249752691Y-87505025D03*
D74*
X246500000Y-88000000D03*
%TD*%
D14*
%TO.C,C4*%
X237448857Y-87561622D03*
X237901405Y-87109074D03*
%TD*%
D13*
%TO.C,R84*%
X242376274Y-79473726D03*
X241923726Y-79926274D03*
%TD*%
D20*
%TO.C,C107*%
X233760589Y-77139411D03*
X234439411Y-76460589D03*
%TD*%
D14*
%TO.C,C16*%
X229692349Y-88903994D03*
X230144897Y-88451446D03*
%TD*%
D25*
%TO.C,C84*%
X244670575Y-98849687D03*
X244218027Y-98397139D03*
%TD*%
%TO.C,R1*%
X235209550Y-85394977D03*
X234757002Y-84942429D03*
%TD*%
D22*
%TO.C,TP25*%
X256175000Y-78202494D03*
%TD*%
D13*
%TO.C,R2*%
X232100000Y-99100000D03*
X231647452Y-99552548D03*
%TD*%
D17*
%TO.C,R149*%
X249698726Y-111871232D03*
X250151274Y-112323780D03*
%TD*%
D75*
%TO.C,U30*%
X247706068Y-104735070D03*
D76*
X248024266Y-104346162D03*
X248377820Y-103992608D03*
X248731373Y-103639055D03*
X249084926Y-103285502D03*
X249438480Y-102931948D03*
D77*
X249827388Y-102613750D03*
D78*
X250364790Y-102613750D03*
D79*
X250753698Y-102931948D03*
X251107252Y-103285502D03*
X251460805Y-103639055D03*
X251814358Y-103992608D03*
X252167912Y-104346162D03*
D80*
X252486110Y-104735070D03*
D81*
X252486110Y-105272472D03*
D76*
X252167912Y-105661380D03*
X251814358Y-106014934D03*
X251460805Y-106368487D03*
X251107252Y-106722040D03*
X250753698Y-107075594D03*
D82*
X250364790Y-107393792D03*
D83*
X249827388Y-107393792D03*
D79*
X249442015Y-107072058D03*
X249084926Y-106722040D03*
X248731373Y-106368487D03*
X248377820Y-106014934D03*
X248024266Y-105661380D03*
D84*
X247706068Y-105272472D03*
%TD*%
D25*
%TO.C,R148*%
X251551274Y-112523780D03*
X251098726Y-112071232D03*
%TD*%
D30*
%TO.C,U20*%
X242918932Y-82762436D03*
D31*
X242600734Y-83151344D03*
X242247180Y-83504898D03*
X241893627Y-83858451D03*
X241540074Y-84212004D03*
X241186520Y-84565558D03*
D32*
X240797612Y-84883756D03*
D33*
X240260210Y-84883756D03*
D34*
X239871302Y-84565558D03*
X239517748Y-84212004D03*
X239164195Y-83858451D03*
X238810642Y-83504898D03*
X238457088Y-83151344D03*
D35*
X238138890Y-82762436D03*
D36*
X238138890Y-82225034D03*
D31*
X238457088Y-81836126D03*
X238810642Y-81482572D03*
X239164195Y-81129019D03*
X239517748Y-80775466D03*
X239871302Y-80421912D03*
D37*
X240260210Y-80103714D03*
D38*
X240797612Y-80103714D03*
D34*
X241182985Y-80425448D03*
X241540074Y-80775466D03*
X241893627Y-81129019D03*
X242247180Y-81482572D03*
X242600734Y-81836126D03*
D39*
X242918932Y-82225034D03*
%TD*%
D18*
%TO.C,C110*%
X238714411Y-75764411D03*
X238035589Y-75085589D03*
%TD*%
D14*
%TO.C,R77*%
X238278751Y-85031300D03*
X238731299Y-84578752D03*
%TD*%
D16*
%TO.C,C32*%
X227110589Y-97410589D03*
X227789411Y-98089411D03*
%TD*%
D13*
%TO.C,C43*%
X248403545Y-94496186D03*
X247950997Y-94948734D03*
%TD*%
%TO.C,C22*%
X227028323Y-94078249D03*
X226575775Y-94530797D03*
%TD*%
%TO.C,R19*%
X250017517Y-97566797D03*
X249564969Y-98019345D03*
%TD*%
%TO.C,C40*%
X258290666Y-96506137D03*
X257838118Y-96958685D03*
%TD*%
D16*
%TO.C,C127*%
X246238389Y-78023779D03*
X246917211Y-78702601D03*
%TD*%
D14*
%TO.C,R131*%
X237173870Y-110087868D03*
X237626418Y-109635320D03*
%TD*%
%TO.C,R155*%
X246742427Y-106520029D03*
X247194975Y-106067481D03*
%TD*%
D16*
%TO.C,C158*%
X238910589Y-111733095D03*
X239589411Y-112411917D03*
%TD*%
D44*
%TO.C,U22*%
X242848402Y-109766135D03*
X242565560Y-110048978D03*
X242282717Y-110331821D03*
X241999874Y-110614663D03*
X241717032Y-110897506D03*
X241434189Y-111180349D03*
X241151346Y-111463191D03*
D45*
X240090686Y-111463191D03*
X239807843Y-111180349D03*
X239525000Y-110897506D03*
X239242158Y-110614663D03*
X238959315Y-110331821D03*
X238676472Y-110048978D03*
X238393630Y-109766135D03*
D44*
X238393630Y-108705475D03*
X238676472Y-108422632D03*
X238959315Y-108139789D03*
X239242158Y-107856947D03*
X239525000Y-107574104D03*
X239807843Y-107291261D03*
X240090686Y-107008419D03*
D45*
X241151346Y-107008419D03*
X241434189Y-107291261D03*
X241717032Y-107574104D03*
X241999874Y-107856947D03*
X242282717Y-108139789D03*
X242565560Y-108422632D03*
X242848402Y-108705475D03*
D46*
X240621016Y-109235805D03*
%TD*%
D85*
%TO.C,R87*%
X249225000Y-83272494D03*
X249225000Y-82632494D03*
%TD*%
D14*
%TO.C,R125*%
X237893701Y-101918754D03*
X238346249Y-101466206D03*
%TD*%
%TO.C,C46*%
X256217076Y-90501032D03*
X256669624Y-90048484D03*
%TD*%
D15*
%TO.C,C109*%
X235893826Y-74846376D03*
X235215004Y-75525198D03*
%TD*%
D13*
%TO.C,R128*%
X234701274Y-106571232D03*
X234248726Y-107023780D03*
%TD*%
D25*
%TO.C,C49*%
X256925949Y-93147379D03*
X256473401Y-92694831D03*
%TD*%
D19*
%TO.C,C27*%
X226851992Y-91248008D03*
X227948008Y-90151992D03*
%TD*%
D25*
%TO.C,C56*%
X260186502Y-89364572D03*
X259733954Y-88912024D03*
%TD*%
D59*
%TO.C,R137*%
X254375000Y-104227506D03*
X254375000Y-104867506D03*
%TD*%
D14*
%TO.C,C14*%
X238672605Y-97813541D03*
X239125153Y-97360993D03*
%TD*%
D16*
%TO.C,C103*%
X233263389Y-78021285D03*
X233942211Y-78700107D03*
%TD*%
D14*
%TO.C,R140*%
X255880222Y-107139233D03*
X256332770Y-106686685D03*
%TD*%
D75*
%TO.C,U26*%
X234706068Y-104735070D03*
D76*
X235024266Y-104346162D03*
X235377820Y-103992608D03*
X235731373Y-103639055D03*
X236084926Y-103285502D03*
X236438480Y-102931948D03*
D77*
X236827388Y-102613750D03*
D78*
X237364790Y-102613750D03*
D79*
X237753698Y-102931948D03*
X238107252Y-103285502D03*
X238460805Y-103639055D03*
X238814358Y-103992608D03*
X239167912Y-104346162D03*
D80*
X239486110Y-104735070D03*
D81*
X239486110Y-105272472D03*
D76*
X239167912Y-105661380D03*
X238814358Y-106014934D03*
X238460805Y-106368487D03*
X238107252Y-106722040D03*
X237753698Y-107075594D03*
D82*
X237364790Y-107393792D03*
D83*
X236827388Y-107393792D03*
D79*
X236442015Y-107072058D03*
X236084926Y-106722040D03*
X235731373Y-106368487D03*
X235377820Y-106014934D03*
X235024266Y-105661380D03*
D84*
X234706068Y-105272472D03*
%TD*%
D51*
%TO.C,C88*%
X251338379Y-88489672D03*
X250242363Y-89585688D03*
%TD*%
D15*
%TO.C,C210*%
X257173795Y-82856854D03*
X256494973Y-83535676D03*
%TD*%
D19*
%TO.C,C39*%
X258801992Y-95448007D03*
X259898008Y-94351991D03*
%TD*%
D86*
%TO.C,J4*%
X254151472Y-101351472D03*
D22*
X255000000Y-102200000D03*
X255848528Y-103048528D03*
X256697056Y-103897056D03*
X257545584Y-104745584D03*
X258394112Y-105594112D03*
%TD*%
D13*
%TO.C,R82*%
X240950000Y-77900000D03*
X240497452Y-78352548D03*
%TD*%
%TO.C,C212*%
X235250540Y-103101653D03*
X234797992Y-103554201D03*
%TD*%
D20*
%TO.C,C159*%
X237347112Y-111378338D03*
X238025934Y-110699516D03*
%TD*%
D14*
%TO.C,R160*%
X248748726Y-108523780D03*
X249201274Y-108071232D03*
%TD*%
D15*
%TO.C,C179*%
X256864411Y-110358095D03*
X256185589Y-111036917D03*
%TD*%
D25*
%TO.C,R5*%
X236801274Y-99651274D03*
X236348726Y-99198726D03*
%TD*%
D87*
%TO.C,U11*%
X245246931Y-102407663D03*
D88*
X245434315Y-102397056D03*
X246000000Y-101831371D03*
X246565685Y-101265685D03*
X247131371Y-100700000D03*
X247697056Y-100134315D03*
X247131371Y-99568629D03*
X246565685Y-99002944D03*
X246000000Y-99568629D03*
X245434315Y-100134315D03*
X244868629Y-100700000D03*
X244302944Y-101265685D03*
X244868629Y-101831371D03*
%TD*%
D25*
%TO.C,R166*%
X236848205Y-101623780D03*
X236395657Y-101171232D03*
%TD*%
%TO.C,L1*%
X256841096Y-97895601D03*
X256388548Y-97443053D03*
%TD*%
D22*
%TO.C,TP17*%
X244250000Y-77600000D03*
%TD*%
D15*
%TO.C,C111*%
X240277888Y-76119168D03*
X239599066Y-76797990D03*
%TD*%
D25*
%TO.C,R45*%
X248545585Y-98861522D03*
X248093037Y-98408974D03*
%TD*%
D14*
%TO.C,R103*%
X255898726Y-80928768D03*
X256351274Y-80476220D03*
%TD*%
D17*
%TO.C,R13*%
X252725735Y-99861358D03*
X253178283Y-100313906D03*
%TD*%
D51*
%TO.C,C25*%
X234848008Y-101176992D03*
X233751992Y-102273008D03*
%TD*%
D14*
%TO.C,D1*%
X230647452Y-100552548D03*
X231100000Y-100100000D03*
%TD*%
D89*
%TO.C,JP3*%
X251205457Y-91216978D03*
X250710482Y-90722003D03*
%TD*%
D14*
%TO.C,C184*%
X255879790Y-84928677D03*
X256332338Y-84476129D03*
%TD*%
D65*
%TO.C,C81*%
X242977119Y-102626866D03*
X244073135Y-103722882D03*
%TD*%
D13*
%TO.C,R110*%
X254851274Y-78976220D03*
X254398726Y-79428768D03*
%TD*%
D85*
%TO.C,R62*%
X236250000Y-83270000D03*
X236250000Y-82630000D03*
%TD*%
D50*
%TO.C,JP4*%
X253517696Y-88713820D03*
X253022721Y-89208795D03*
%TD*%
D22*
%TO.C,TP28*%
X247425000Y-110497506D03*
%TD*%
D25*
%TO.C,R29*%
X228000000Y-88200000D03*
X227547452Y-87747452D03*
%TD*%
D18*
%TO.C,C11*%
X232145557Y-84209935D03*
X231466735Y-83531113D03*
%TD*%
D90*
%TO.C,JP1*%
X226500000Y-99900000D03*
X227200000Y-99900000D03*
%TD*%
D22*
%TO.C,TP27*%
X234425000Y-109297506D03*
%TD*%
D25*
%TO.C,D17*%
X250352548Y-101125054D03*
X249900000Y-100672506D03*
%TD*%
D14*
%TO.C,R78*%
X242923726Y-80926274D03*
X243376274Y-80473726D03*
%TD*%
D91*
%TO.C,L3*%
X231149999Y-105299999D03*
X231149999Y-103299999D03*
%TD*%
D13*
%TO.C,R152*%
X252346249Y-102466206D03*
X251893701Y-102918754D03*
%TD*%
D14*
%TO.C,R154*%
X246247452Y-106025055D03*
X246700000Y-105572507D03*
%TD*%
D22*
%TO.C,TP29*%
X257225000Y-77602494D03*
%TD*%
M02*
