%TF.GenerationSoftware,KiCad,Pcbnew,10.0.6-10.0.6~ubuntu24.04.1*%
%TF.CreationDate,2026-09-22T00:24:45+02:00*%
%TF.ProjectId,p4eregrine,70346572-6567-4726-996e-652e6b696361,rev?*%
%TF.SameCoordinates,Original*%
%TF.FileFunction,Soldermask,Top*%
%TF.FilePolarity,Negative*%
%FSLAX46Y46*%
G04 Gerber Fmt 4.6, Leading zero omitted, Abs format (unit mm)*
G04 Created by KiCad (PCBNEW 10.0.6-10.0.6~ubuntu24.04.1) date 2026-09-22 00:24:45*
%MOMM*%
%LPD*%
G01*
G04 APERTURE LIST*
G04 Aperture macros list*
%AMRoundRect*
0 Rectangle with rounded corners*
0 $1 Rounding radius*
0 $2 $3 $4 $5 $6 $7 $8 $9 X,Y pos of 4 corners*
0 Add a 4 corners polygon primitive as box body*
4,1,4,$2,$3,$4,$5,$6,$7,$8,$9,$2,$3,0*
0 Add four circle primitives for the rounded corners*
1,1,$1+$1,$2,$3*
1,1,$1+$1,$4,$5*
1,1,$1+$1,$6,$7*
1,1,$1+$1,$8,$9*
0 Add four rect primitives between the rounded corners*
20,1,$1+$1,$2,$3,$4,$5,0*
20,1,$1+$1,$4,$5,$6,$7,0*
20,1,$1+$1,$6,$7,$8,$9,0*
20,1,$1+$1,$8,$9,$2,$3,0*%
G04 Aperture macros list end*
%ADD10RoundRect,0.250000X0.325000X1.100000X-0.325000X1.100000X-0.325000X-1.100000X0.325000X-1.100000X0*%
%ADD11RoundRect,0.750000X0.750000X-0.750000X0.750000X0.750000X-0.750000X0.750000X-0.750000X-0.750000X0*%
%ADD12RoundRect,0.750000X-0.750000X0.750000X-0.750000X-0.750000X0.750000X-0.750000X0.750000X0.750000X0*%
%ADD13R,1.050000X0.400000*%
%ADD14O,1.050000X0.400000*%
%ADD15O,0.200000X0.600000*%
%ADD16RoundRect,0.100000X0.130000X0.100000X-0.130000X0.100000X-0.130000X-0.100000X0.130000X-0.100000X0*%
%ADD17RoundRect,0.250000X-0.475000X0.250000X-0.475000X-0.250000X0.475000X-0.250000X0.475000X0.250000X0*%
%ADD18RoundRect,0.100000X-0.130000X-0.100000X0.130000X-0.100000X0.130000X0.100000X-0.130000X0.100000X0*%
%ADD19RoundRect,0.100000X-0.100000X0.130000X-0.100000X-0.130000X0.100000X-0.130000X0.100000X0.130000X0*%
%ADD20RoundRect,0.750000X-1.250000X-0.750000X1.250000X-0.750000X1.250000X0.750000X-1.250000X0.750000X0*%
%ADD21R,0.400000X0.800000*%
%ADD22R,2.600000X2.000000*%
%ADD23R,0.400000X0.750000*%
%ADD24R,0.800000X0.400000*%
%ADD25R,2.000000X2.600000*%
%ADD26R,0.750000X0.400000*%
%ADD27RoundRect,0.250000X-0.325000X-1.100000X0.325000X-1.100000X0.325000X1.100000X-0.325000X1.100000X0*%
%ADD28RoundRect,0.125000X0.250000X0.125000X-0.250000X0.125000X-0.250000X-0.125000X0.250000X-0.125000X0*%
%ADD29R,3.400000X4.300000*%
%ADD30R,0.420000X0.600000*%
%ADD31RoundRect,0.225000X-0.225000X-0.250000X0.225000X-0.250000X0.225000X0.250000X-0.225000X0.250000X0*%
%ADD32RoundRect,0.100000X0.100000X-0.130000X0.100000X0.130000X-0.100000X0.130000X-0.100000X-0.130000X0*%
%ADD33R,0.500000X1.500000*%
%ADD34R,2.000000X1.700000*%
%ADD35R,1.500000X2.900000*%
%ADD36R,1.500000X0.800000*%
%ADD37RoundRect,0.250000X0.850000X-0.375000X0.850000X0.375000X-0.850000X0.375000X-0.850000X-0.375000X0*%
%ADD38C,0.500000*%
%ADD39O,0.900000X1.600000*%
%ADD40R,0.300000X1.200000*%
%ADD41R,0.600000X1.200000*%
%ADD42RoundRect,0.075000X0.075000X0.075000X-0.075000X0.075000X-0.075000X-0.075000X0.075000X-0.075000X0*%
%ADD43RoundRect,0.250000X0.475000X-0.250000X0.475000X0.250000X-0.475000X0.250000X-0.475000X-0.250000X0*%
%ADD44RoundRect,0.050000X0.285000X0.100000X-0.285000X0.100000X-0.285000X-0.100000X0.285000X-0.100000X0*%
G04 APERTURE END LIST*
D10*
%TO.C,C193*%
X144573747Y-94921387D03*
X141623747Y-94921387D03*
%TD*%
D11*
%TO.C,TP57*%
X132198747Y-96621387D03*
%TD*%
D12*
%TO.C,TP20*%
X167896253Y-79096387D03*
%TD*%
D13*
%TO.C,U9*%
X147226253Y-99596387D03*
D14*
X147226253Y-100296387D03*
D15*
X147146253Y-101096387D03*
X147646253Y-101096387D03*
X148146253Y-101096387D03*
X148646253Y-101096387D03*
D14*
X148576253Y-100296387D03*
X148576253Y-99596387D03*
D15*
X148646253Y-98796387D03*
X148146253Y-98796387D03*
X147646253Y-98796387D03*
X147146253Y-98796387D03*
%TD*%
D12*
%TO.C,TP21*%
X167896253Y-83196387D03*
%TD*%
D16*
%TO.C,R11*%
X156416253Y-104296387D03*
X155776253Y-104296387D03*
%TD*%
D17*
%TO.C,C80*%
X150796253Y-97546387D03*
X150796253Y-99446387D03*
%TD*%
D18*
%TO.C,R94*%
X163393759Y-90071387D03*
X164033759Y-90071387D03*
%TD*%
D19*
%TO.C,R34*%
X149246253Y-100296387D03*
X149246253Y-100936387D03*
%TD*%
D10*
%TO.C,C200*%
X144573747Y-78721387D03*
X141623747Y-78721387D03*
%TD*%
D20*
%TO.C,TP2*%
X139696253Y-107596387D03*
%TD*%
D16*
%TO.C,C73*%
X147526253Y-98096387D03*
X146886253Y-98096387D03*
%TD*%
D11*
%TO.C,TP58*%
X132198747Y-92621387D03*
%TD*%
D21*
%TO.C,Q14*%
X165873759Y-98131387D03*
X165213759Y-98131387D03*
D22*
X164893759Y-96931387D03*
D21*
X164563759Y-98131387D03*
X163913759Y-98131387D03*
D23*
X163913759Y-95071387D03*
X165873759Y-95071387D03*
X165213759Y-95071387D03*
X164563759Y-95071387D03*
%TD*%
D24*
%TO.C,Q17*%
X140208747Y-87061387D03*
X140208747Y-87721387D03*
D25*
X139008747Y-88041387D03*
D24*
X140208747Y-88371387D03*
X140208747Y-89021387D03*
D26*
X137148747Y-89021387D03*
X137148747Y-87061387D03*
X137148747Y-87721387D03*
X137148747Y-88371387D03*
%TD*%
D19*
%TO.C,C65*%
X149716253Y-95326387D03*
X149716253Y-95966387D03*
%TD*%
D24*
%TO.C,Q5*%
X159886253Y-79756387D03*
X159886253Y-79096387D03*
D25*
X161086253Y-78776387D03*
D24*
X159886253Y-78446387D03*
X159886253Y-77796387D03*
D26*
X162946253Y-77796387D03*
X162946253Y-79756387D03*
X162946253Y-79096387D03*
X162946253Y-78446387D03*
%TD*%
D16*
%TO.C,R41*%
X151856253Y-96396387D03*
X151216253Y-96396387D03*
%TD*%
D21*
%TO.C,Q10*%
X163916253Y-86166387D03*
X164576253Y-86166387D03*
D22*
X164896253Y-87366387D03*
D21*
X165226253Y-86166387D03*
X165876253Y-86166387D03*
D23*
X165876253Y-89226387D03*
X163916253Y-89226387D03*
X164576253Y-89226387D03*
X165226253Y-89226387D03*
%TD*%
D10*
%TO.C,C201*%
X144573747Y-91721387D03*
X141623747Y-91721387D03*
%TD*%
D21*
%TO.C,Q20*%
X134218747Y-81661387D03*
X134878747Y-81661387D03*
D22*
X135198747Y-82861387D03*
D21*
X135528747Y-81661387D03*
X136178747Y-81661387D03*
D23*
X136178747Y-84721387D03*
X134218747Y-84721387D03*
X134878747Y-84721387D03*
X135528747Y-84721387D03*
%TD*%
D12*
%TO.C,TP33*%
X167893759Y-96171387D03*
%TD*%
D11*
%TO.C,TP56*%
X132198747Y-100721387D03*
%TD*%
D16*
%TO.C,R10*%
X159416253Y-104296387D03*
X158776253Y-104296387D03*
%TD*%
D21*
%TO.C,Q26*%
X134218747Y-94661387D03*
X134878747Y-94661387D03*
D22*
X135198747Y-95861387D03*
D21*
X135528747Y-94661387D03*
X136178747Y-94661387D03*
D23*
X136178747Y-97721387D03*
X134218747Y-97721387D03*
X134878747Y-97721387D03*
X135528747Y-97721387D03*
%TD*%
D18*
%TO.C,R95*%
X166953759Y-94121387D03*
X167593759Y-94121387D03*
%TD*%
D27*
%TO.C,C199*%
X155518759Y-101071387D03*
X158468759Y-101071387D03*
%TD*%
%TO.C,C113*%
X155521253Y-78496387D03*
X158471253Y-78496387D03*
%TD*%
D16*
%TO.C,R39*%
X148926253Y-98096387D03*
X148286253Y-98096387D03*
%TD*%
D24*
%TO.C,Q23*%
X140208747Y-100061387D03*
X140208747Y-100721387D03*
D25*
X139008747Y-101041387D03*
D24*
X140208747Y-101371387D03*
X140208747Y-102021387D03*
D26*
X137148747Y-102021387D03*
X137148747Y-100061387D03*
X137148747Y-100721387D03*
X137148747Y-101371387D03*
%TD*%
D21*
%TO.C,Q24*%
X136178747Y-101801387D03*
X135518747Y-101801387D03*
D22*
X135198747Y-100601387D03*
D21*
X134868747Y-101801387D03*
X134218747Y-101801387D03*
D23*
X134218747Y-98741387D03*
X136178747Y-98741387D03*
X135518747Y-98741387D03*
X134868747Y-98741387D03*
%TD*%
D10*
%TO.C,C162*%
X144573747Y-85121387D03*
X141623747Y-85121387D03*
%TD*%
%TO.C,C185*%
X144573747Y-101321387D03*
X141623747Y-101321387D03*
%TD*%
D28*
%TO.C,U3*%
X152096253Y-86656387D03*
X152096253Y-85386387D03*
X152096253Y-84116387D03*
X152096253Y-82846387D03*
X146696253Y-82846387D03*
X146696253Y-84116387D03*
X146696253Y-85386387D03*
X146696253Y-86656387D03*
D29*
X149396253Y-84751387D03*
%TD*%
D11*
%TO.C,TP46*%
X132198747Y-79621387D03*
%TD*%
D30*
%TO.C,U8*%
X150546253Y-102246387D03*
X149896253Y-102246387D03*
X149246253Y-102246387D03*
X149246253Y-104146387D03*
X149896253Y-104146387D03*
X150546253Y-104146387D03*
%TD*%
D31*
%TO.C,C75*%
X139021253Y-76196387D03*
X140571253Y-76196387D03*
%TD*%
D32*
%TO.C,C76*%
X150621253Y-94336387D03*
X150621253Y-93696387D03*
%TD*%
%TO.C,R72*%
X153596253Y-88516387D03*
X153596253Y-87876387D03*
%TD*%
D10*
%TO.C,C161*%
X144573747Y-88321387D03*
X141623747Y-88321387D03*
%TD*%
D24*
%TO.C,Q21*%
X140208747Y-78111387D03*
X140208747Y-78771387D03*
D25*
X139008747Y-79091387D03*
D24*
X140208747Y-79421387D03*
X140208747Y-80071387D03*
D26*
X137148747Y-80071387D03*
X137148747Y-78111387D03*
X137148747Y-78771387D03*
X137148747Y-79421387D03*
%TD*%
D33*
%TO.C,U10*%
X155696253Y-75808887D03*
X154696253Y-75808887D03*
X153696253Y-75808887D03*
X152696253Y-75808887D03*
X151696253Y-75808887D03*
X150696253Y-75808887D03*
X149696253Y-75808887D03*
X148696253Y-75808887D03*
X147696253Y-75808887D03*
X146696253Y-75808887D03*
X145696253Y-75808887D03*
X144696253Y-75808887D03*
X143696253Y-75808887D03*
X142696253Y-75808887D03*
X141696253Y-75808887D03*
D34*
X139496253Y-73368887D03*
X157896253Y-73208887D03*
%TD*%
D32*
%TO.C,R71*%
X152846253Y-88516387D03*
X152846253Y-87876387D03*
%TD*%
D12*
%TO.C,TP34*%
X167893759Y-100171387D03*
%TD*%
D10*
%TO.C,C186*%
X144573747Y-98121387D03*
X141623747Y-98121387D03*
%TD*%
%TO.C,C169*%
X144573747Y-81921387D03*
X141623747Y-81921387D03*
%TD*%
D35*
%TO.C,R3*%
X150613753Y-107574676D03*
X148513753Y-107574676D03*
D36*
X150613753Y-105254676D03*
X148513753Y-105254676D03*
%TD*%
D16*
%TO.C,R35*%
X148521253Y-101696387D03*
X147881253Y-101696387D03*
%TD*%
D37*
%TO.C,L5*%
X152318753Y-92571387D03*
X152318753Y-90421387D03*
%TD*%
D11*
%TO.C,TP44*%
X132198747Y-87721387D03*
%TD*%
D27*
%TO.C,C138*%
X155518759Y-94671387D03*
X158468759Y-94671387D03*
%TD*%
D21*
%TO.C,Q18*%
X136178747Y-88801387D03*
X135518747Y-88801387D03*
D22*
X135198747Y-87601387D03*
D21*
X134868747Y-88801387D03*
X134218747Y-88801387D03*
D23*
X134218747Y-85741387D03*
X136178747Y-85741387D03*
X135518747Y-85741387D03*
X134868747Y-85741387D03*
%TD*%
D24*
%TO.C,Q13*%
X159883759Y-98181387D03*
X159883759Y-97521387D03*
D25*
X161083759Y-97201387D03*
D24*
X159883759Y-96871387D03*
X159883759Y-96221387D03*
D26*
X162943759Y-96221387D03*
X162943759Y-98181387D03*
X162943759Y-97521387D03*
X162943759Y-96871387D03*
%TD*%
D24*
%TO.C,Q11*%
X159883759Y-92731387D03*
X159883759Y-92071387D03*
D25*
X161083759Y-91751387D03*
D24*
X159883759Y-91421387D03*
X159883759Y-90771387D03*
D26*
X162943759Y-90771387D03*
X162943759Y-92731387D03*
X162943759Y-92071387D03*
X162943759Y-91421387D03*
%TD*%
D24*
%TO.C,Q9*%
X159886253Y-88706387D03*
X159886253Y-88046387D03*
D25*
X161086253Y-87726387D03*
D24*
X159886253Y-87396387D03*
X159886253Y-86746387D03*
D26*
X162946253Y-86746387D03*
X162946253Y-88706387D03*
X162946253Y-88046387D03*
X162946253Y-87396387D03*
%TD*%
D38*
%TO.C,U7*%
X153846253Y-106233887D03*
X161346253Y-106233887D03*
D39*
X153096253Y-105933887D03*
X153096253Y-108323887D03*
X162096253Y-108323887D03*
X162096253Y-105933887D03*
D40*
X156346253Y-105383887D03*
X157346253Y-105383887D03*
X157846253Y-105383887D03*
X158846253Y-105383887D03*
D41*
X159996253Y-105383887D03*
X160796253Y-105383887D03*
D40*
X159346253Y-105383887D03*
X158346253Y-105383887D03*
X156846253Y-105383887D03*
X155846253Y-105383887D03*
D41*
X155196253Y-105383887D03*
X154396253Y-105383887D03*
%TD*%
D42*
%TO.C,U15*%
X157946253Y-103196387D03*
X157246253Y-103196387D03*
X157596253Y-104046387D03*
%TD*%
D27*
%TO.C,C198*%
X155521253Y-88096387D03*
X158471253Y-88096387D03*
%TD*%
D19*
%TO.C,R42*%
X152596253Y-96431387D03*
X152596253Y-97071387D03*
%TD*%
D21*
%TO.C,Q22*%
X136178747Y-80651387D03*
X135518747Y-80651387D03*
D22*
X135198747Y-79451387D03*
D21*
X134868747Y-80651387D03*
X134218747Y-80651387D03*
D23*
X134218747Y-77591387D03*
X136178747Y-77591387D03*
X135518747Y-77591387D03*
X134868747Y-77591387D03*
%TD*%
D24*
%TO.C,Q25*%
X140208747Y-94611387D03*
X140208747Y-95271387D03*
D25*
X139008747Y-95591387D03*
D24*
X140208747Y-95921387D03*
X140208747Y-96571387D03*
D26*
X137148747Y-96571387D03*
X137148747Y-94611387D03*
X137148747Y-95271387D03*
X137148747Y-95921387D03*
%TD*%
D43*
%TO.C,C78*%
X147996253Y-92221387D03*
X147996253Y-90321387D03*
%TD*%
D16*
%TO.C,R120*%
X133138747Y-85671387D03*
X132498747Y-85671387D03*
%TD*%
D44*
%TO.C,U17*%
X153036253Y-95496387D03*
X153036253Y-94996387D03*
X153036253Y-94496387D03*
X153036253Y-93996387D03*
X151556253Y-93996387D03*
X151556253Y-94496387D03*
X151556253Y-94996387D03*
X151556253Y-95496387D03*
%TD*%
D16*
%TO.C,R145*%
X133138747Y-98671387D03*
X132498747Y-98671387D03*
%TD*%
D24*
%TO.C,Q19*%
X140208747Y-81611387D03*
X140208747Y-82271387D03*
D25*
X139008747Y-82591387D03*
D24*
X140208747Y-82921387D03*
X140208747Y-83571387D03*
D26*
X137148747Y-83571387D03*
X137148747Y-81611387D03*
X137148747Y-82271387D03*
X137148747Y-82921387D03*
%TD*%
D11*
%TO.C,TP45*%
X132198747Y-83621387D03*
%TD*%
D27*
%TO.C,C121*%
X155521253Y-84896387D03*
X158471253Y-84896387D03*
%TD*%
D21*
%TO.C,Q12*%
X163913759Y-90991387D03*
X164573759Y-90991387D03*
D22*
X164893759Y-92191387D03*
D21*
X165223759Y-90991387D03*
X165873759Y-90991387D03*
D23*
X165873759Y-94051387D03*
X163913759Y-94051387D03*
X164573759Y-94051387D03*
X165223759Y-94051387D03*
%TD*%
D27*
%TO.C,C145*%
X155518759Y-97871387D03*
X158468759Y-97871387D03*
%TD*%
D21*
%TO.C,Q8*%
X165876253Y-85156387D03*
X165216253Y-85156387D03*
D22*
X164896253Y-83956387D03*
D21*
X164566253Y-85156387D03*
X163916253Y-85156387D03*
D23*
X163916253Y-82096387D03*
X165876253Y-82096387D03*
X165216253Y-82096387D03*
X164566253Y-82096387D03*
%TD*%
D32*
%TO.C,R86*%
X154346254Y-88516387D03*
X154346254Y-87876387D03*
%TD*%
D12*
%TO.C,TP22*%
X167896253Y-87196387D03*
%TD*%
D24*
%TO.C,Q7*%
X159886253Y-85206387D03*
X159886253Y-84546387D03*
D25*
X161086253Y-84226387D03*
D24*
X159886253Y-83896387D03*
X159886253Y-83246387D03*
D26*
X162946253Y-83246387D03*
X162946253Y-85206387D03*
X162946253Y-84546387D03*
X162946253Y-83896387D03*
%TD*%
D16*
%TO.C,R119*%
X136698747Y-89721387D03*
X136058747Y-89721387D03*
%TD*%
D20*
%TO.C,TP1*%
X144696253Y-107596387D03*
%TD*%
D32*
%TO.C,R40*%
X150466253Y-96386387D03*
X150466253Y-95746387D03*
%TD*%
D27*
%TO.C,C137*%
X155518759Y-91471387D03*
X158468759Y-91471387D03*
%TD*%
D16*
%TO.C,R12*%
X151136253Y-87896387D03*
X150496253Y-87896387D03*
%TD*%
D27*
%TO.C,C114*%
X155521253Y-81696387D03*
X158471253Y-81696387D03*
%TD*%
D18*
%TO.C,R69*%
X163396253Y-77096387D03*
X164036253Y-77096387D03*
%TD*%
D24*
%TO.C,Q27*%
X140208747Y-91111387D03*
X140208747Y-91771387D03*
D25*
X139008747Y-92091387D03*
D24*
X140208747Y-92421387D03*
X140208747Y-93071387D03*
D26*
X137148747Y-93071387D03*
X137148747Y-91111387D03*
X137148747Y-91771387D03*
X137148747Y-92421387D03*
%TD*%
D12*
%TO.C,TP32*%
X167893759Y-92071387D03*
%TD*%
D17*
%TO.C,C79*%
X152846253Y-98346387D03*
X152846253Y-100246387D03*
%TD*%
D18*
%TO.C,C34*%
X146476253Y-87896387D03*
X147116253Y-87896387D03*
%TD*%
D21*
%TO.C,Q28*%
X136178747Y-93651387D03*
X135518747Y-93651387D03*
D22*
X135198747Y-92451387D03*
D21*
X134868747Y-93651387D03*
X134218747Y-93651387D03*
D23*
X134218747Y-90591387D03*
X136178747Y-90591387D03*
X135518747Y-90591387D03*
X134868747Y-90591387D03*
%TD*%
D18*
%TO.C,R70*%
X166956253Y-81146387D03*
X167596253Y-81146387D03*
%TD*%
D43*
%TO.C,C77*%
X149968753Y-92221387D03*
X149968753Y-90321387D03*
%TD*%
D16*
%TO.C,R144*%
X136698747Y-102721387D03*
X136058747Y-102721387D03*
%TD*%
D21*
%TO.C,Q6*%
X163916253Y-78016387D03*
X164576253Y-78016387D03*
D22*
X164896253Y-79216387D03*
D21*
X165226253Y-78016387D03*
X165876253Y-78016387D03*
D23*
X165876253Y-81076387D03*
X163916253Y-81076387D03*
X164576253Y-81076387D03*
X165226253Y-81076387D03*
%TD*%
D21*
%TO.C,Q16*%
X163913759Y-99141387D03*
X164573759Y-99141387D03*
D22*
X164893759Y-100341387D03*
D21*
X165223759Y-99141387D03*
X165873759Y-99141387D03*
D23*
X165873759Y-102201387D03*
X163913759Y-102201387D03*
X164573759Y-102201387D03*
X165223759Y-102201387D03*
%TD*%
D24*
%TO.C,Q15*%
X159883759Y-101681387D03*
X159883759Y-101021387D03*
D25*
X161083759Y-100701387D03*
D24*
X159883759Y-100371387D03*
X159883759Y-99721387D03*
D26*
X162943759Y-99721387D03*
X162943759Y-101681387D03*
X162943759Y-101021387D03*
X162943759Y-100371387D03*
%TD*%
D19*
%TO.C,C61*%
X148496253Y-102456387D03*
X148496253Y-103096387D03*
%TD*%
D32*
%TO.C,R43*%
X151296253Y-104116387D03*
X151296253Y-103476387D03*
%TD*%
M02*
