%TF.GenerationSoftware,KiCad,Pcbnew,10.0.6-10.0.6~ubuntu24.04.1*%
%TF.CreationDate,2026-09-22T00:24:45+02:00*%
%TF.ProjectId,p4eregrine,70346572-6567-4726-996e-652e6b696361,rev?*%
%TF.SameCoordinates,Original*%
%TF.FileFunction,Legend,Top*%
%TF.FilePolarity,Positive*%
%FSLAX46Y46*%
G04 Gerber Fmt 4.6, Leading zero omitted, Abs format (unit mm)*
G04 Created by KiCad (PCBNEW 10.0.6-10.0.6~ubuntu24.04.1) date 2026-09-22 00:24:45*
%MOMM*%
%LPD*%
G01*
G04 APERTURE LIST*
%ADD10C,0.200000*%
%ADD11C,0.100000*%
%ADD12C,0.253779*%
%ADD13C,0.150000*%
%ADD14C,0.120000*%
%ADD15C,0.060000*%
%ADD16C,0.000000*%
%ADD17C,0.250000*%
%ADD18C,0.240000*%
G04 APERTURE END LIST*
D10*
X131196253Y-90196387D02*
X133196253Y-90196387D01*
X131396253Y-74596387D02*
X131396253Y-76996387D01*
X131396253Y-74596387D02*
X131396383Y-74566716D01*
X131396383Y-74566716D02*
X131396771Y-74537048D01*
X131396771Y-74537048D02*
X131397418Y-74507384D01*
X131397418Y-74507384D02*
X131398325Y-74477727D01*
X131398325Y-74477727D02*
X131399490Y-74448079D01*
X131399490Y-74448079D02*
X131400913Y-74418442D01*
X131400913Y-74418442D02*
X131402596Y-74388819D01*
X131402596Y-74388819D02*
X131404536Y-74359212D01*
X131404536Y-74359212D02*
X131406735Y-74329622D01*
X131406735Y-74329622D02*
X131409192Y-74300053D01*
X131409192Y-74300053D02*
X131411907Y-74270507D01*
X131411907Y-74270507D02*
X131414880Y-74240985D01*
X131414880Y-74240985D02*
X131418110Y-74211491D01*
X131418110Y-74211491D02*
X131421598Y-74182026D01*
X131421598Y-74182026D02*
X131425343Y-74152592D01*
X131425343Y-74152592D02*
X131429344Y-74123192D01*
X131429344Y-74123192D02*
X131433602Y-74093828D01*
X131433602Y-74093828D02*
X131438115Y-74064503D01*
X131438115Y-74064503D02*
X131442885Y-74035218D01*
X131442885Y-74035218D02*
X131447910Y-74005975D01*
X131447910Y-74005975D02*
X131453189Y-73976778D01*
X131453189Y-73976778D02*
X131458724Y-73947628D01*
X131458724Y-73947628D02*
X131464513Y-73918527D01*
X131464513Y-73918527D02*
X131470555Y-73889478D01*
X131470555Y-73889478D02*
X131476851Y-73860482D01*
X131476851Y-73860482D02*
X131483399Y-73831543D01*
X131483399Y-73831543D02*
X131490200Y-73802662D01*
X131490200Y-73802662D02*
X131497252Y-73773842D01*
X131497252Y-73773842D02*
X131504556Y-73745084D01*
X131504556Y-73745084D02*
X131512110Y-73716391D01*
X131512110Y-73716391D02*
X131519915Y-73687764D01*
X131519915Y-73687764D02*
X131527969Y-73659208D01*
X131527969Y-73659208D02*
X131536272Y-73630722D01*
X131536272Y-73630722D02*
X131544823Y-73602310D01*
X131544823Y-73602310D02*
X131553621Y-73573974D01*
X131553621Y-73573974D02*
X131562667Y-73545715D01*
X131562667Y-73545715D02*
X131571959Y-73517537D01*
X131571959Y-73517537D02*
X131581497Y-73489441D01*
X131581497Y-73489441D02*
X131591279Y-73461429D01*
X131591279Y-73461429D02*
X131601305Y-73433503D01*
X131601305Y-73433503D02*
X131611575Y-73405666D01*
X131611575Y-73405666D02*
X131622087Y-73377920D01*
X131622087Y-73377920D02*
X131632841Y-73350267D01*
X131632841Y-73350267D02*
X131643836Y-73322708D01*
X131643836Y-73322708D02*
X131655071Y-73295246D01*
X131655071Y-73295246D02*
X131666545Y-73267884D01*
X131666545Y-73267884D02*
X131678258Y-73240623D01*
X131678258Y-73240623D02*
X131690208Y-73213464D01*
X131690208Y-73213464D02*
X131702394Y-73186412D01*
X131702394Y-73186412D02*
X131714816Y-73159466D01*
X131714816Y-73159466D02*
X131727473Y-73132630D01*
X131727473Y-73132630D02*
X131740364Y-73105906D01*
X131740364Y-73105906D02*
X131753487Y-73079295D01*
X131753487Y-73079295D02*
X131766842Y-73052799D01*
X131766842Y-73052799D02*
X131780427Y-73026421D01*
X131780427Y-73026421D02*
X131794243Y-73000163D01*
X131794243Y-73000163D02*
X131808287Y-72974026D01*
X131808287Y-72974026D02*
X131822558Y-72948013D01*
X131822558Y-72948013D02*
X131837056Y-72922125D01*
X131837056Y-72922125D02*
X131851779Y-72896365D01*
X131851779Y-72896365D02*
X131866727Y-72870735D01*
X131866727Y-72870735D02*
X131881898Y-72845235D01*
X131881898Y-72845235D02*
X131897290Y-72819869D01*
X131897290Y-72819869D02*
X131912904Y-72794639D01*
X131912904Y-72794639D02*
X131928736Y-72769545D01*
X131928736Y-72769545D02*
X131944788Y-72744591D01*
X131944788Y-72744591D02*
X131961056Y-72719777D01*
X131961056Y-72719777D02*
X131977541Y-72695107D01*
X131977541Y-72695107D02*
X131994240Y-72670581D01*
X131994240Y-72670581D02*
X132011152Y-72646203D01*
X132011152Y-72646203D02*
X132028277Y-72621972D01*
X132028277Y-72621972D02*
X132045612Y-72597892D01*
X132045612Y-72597892D02*
X132063157Y-72573964D01*
X132063157Y-72573964D02*
X132080910Y-72550190D01*
X132080910Y-72550190D02*
X132083527Y-72546722D01*
X132636106Y-71970780D02*
X132667144Y-71945548D01*
X133343792Y-71522227D02*
X133370674Y-71509669D01*
X133370674Y-71509669D02*
X133397665Y-71497345D01*
X133397665Y-71497345D02*
X133424762Y-71485258D01*
X133424762Y-71485258D02*
X133451964Y-71473408D01*
X133451964Y-71473408D02*
X133479268Y-71461795D01*
X133479268Y-71461795D02*
X133506672Y-71450422D01*
X133506672Y-71450422D02*
X133534175Y-71439287D01*
X133534175Y-71439287D02*
X133561773Y-71428394D01*
X133561773Y-71428394D02*
X133589466Y-71417741D01*
X133589466Y-71417741D02*
X133617251Y-71407331D01*
X133617251Y-71407331D02*
X133645125Y-71397163D01*
X133645125Y-71397163D02*
X133673087Y-71387239D01*
X133673087Y-71387239D02*
X133701135Y-71377560D01*
X133701135Y-71377560D02*
X133729266Y-71368125D01*
X133729266Y-71368125D02*
X133757478Y-71358937D01*
X133757478Y-71358937D02*
X133785770Y-71349995D01*
X133785770Y-71349995D02*
X133814138Y-71341300D01*
X133814138Y-71341300D02*
X133842581Y-71332853D01*
X133842581Y-71332853D02*
X133871097Y-71324654D01*
X133871097Y-71324654D02*
X133899683Y-71316705D01*
X133899683Y-71316705D02*
X133928338Y-71309006D01*
X133928338Y-71309006D02*
X133957058Y-71301557D01*
X133957058Y-71301557D02*
X133985843Y-71294358D01*
X133985843Y-71294358D02*
X134014689Y-71287412D01*
X134014689Y-71287412D02*
X134043595Y-71280717D01*
X134043595Y-71280717D02*
X134072558Y-71274275D01*
X134072558Y-71274275D02*
X134101576Y-71268085D01*
X134101576Y-71268085D02*
X134130647Y-71262150D01*
X134130647Y-71262150D02*
X134159769Y-71256468D01*
X134159769Y-71256468D02*
X134188939Y-71251040D01*
X134188939Y-71251040D02*
X134218156Y-71245867D01*
X134218156Y-71245867D02*
X134247416Y-71240950D01*
X134247416Y-71240950D02*
X134276719Y-71236288D01*
X134276719Y-71236288D02*
X134306061Y-71231881D01*
X134306061Y-71231881D02*
X134335440Y-71227731D01*
X134335440Y-71227731D02*
X134364854Y-71223838D01*
X134364854Y-71223838D02*
X134394301Y-71220201D01*
X134394301Y-71220201D02*
X134423779Y-71216822D01*
X134423779Y-71216822D02*
X134453285Y-71213700D01*
X134453285Y-71213700D02*
X134482818Y-71210835D01*
X134482818Y-71210835D02*
X134512374Y-71208229D01*
X134512374Y-71208229D02*
X134541952Y-71205880D01*
X134541952Y-71205880D02*
X134571549Y-71203789D01*
X134571549Y-71203789D02*
X134601163Y-71201957D01*
X134601163Y-71201957D02*
X134630792Y-71200384D01*
X134630792Y-71200384D02*
X134660434Y-71199069D01*
X134660434Y-71199069D02*
X134690086Y-71198012D01*
X134690086Y-71198012D02*
X134719746Y-71197215D01*
X134719746Y-71197215D02*
X134749413Y-71196676D01*
X134749413Y-71196676D02*
X134779082Y-71196397D01*
X134779082Y-71196397D02*
X134796253Y-71196353D01*
X131396253Y-105096389D02*
X131396253Y-102696389D01*
X134796253Y-71196387D02*
X137196253Y-71196387D01*
X134796253Y-108496389D02*
X134766583Y-108496259D01*
X134766583Y-108496259D02*
X134736915Y-108495870D01*
X134736915Y-108495870D02*
X134707252Y-108495223D01*
X134707252Y-108495223D02*
X134677595Y-108494316D01*
X134677595Y-108494316D02*
X134647948Y-108493151D01*
X134647948Y-108493151D02*
X134618311Y-108491727D01*
X134618311Y-108491727D02*
X134588689Y-108490044D01*
X134588689Y-108490044D02*
X134559082Y-108488104D01*
X134559082Y-108488104D02*
X134529493Y-108485904D01*
X134529493Y-108485904D02*
X134499925Y-108483447D01*
X134499925Y-108483447D02*
X134470379Y-108480732D01*
X134470379Y-108480732D02*
X134440858Y-108477759D01*
X134440858Y-108477759D02*
X134411364Y-108474528D01*
X134411364Y-108474528D02*
X134381899Y-108471040D01*
X134381899Y-108471040D02*
X134352466Y-108467295D01*
X134352466Y-108467295D02*
X134323066Y-108463294D01*
X134323066Y-108463294D02*
X134293703Y-108459036D01*
X134293703Y-108459036D02*
X134264378Y-108454522D01*
X134264378Y-108454522D02*
X134235094Y-108449752D01*
X134235094Y-108449752D02*
X134205852Y-108444727D01*
X134205852Y-108444727D02*
X134176655Y-108439447D01*
X134176655Y-108439447D02*
X134147505Y-108433913D01*
X134147505Y-108433913D02*
X134118405Y-108428124D01*
X134118405Y-108428124D02*
X134089357Y-108422081D01*
X134089357Y-108422081D02*
X134060362Y-108415786D01*
X134060362Y-108415786D02*
X134031423Y-108409237D01*
X134031423Y-108409237D02*
X134002543Y-108402436D01*
X134002543Y-108402436D02*
X133973723Y-108395383D01*
X133973723Y-108395383D02*
X133944965Y-108388080D01*
X133944965Y-108388080D02*
X133916273Y-108380525D01*
X133916273Y-108380525D02*
X133887647Y-108372720D01*
X133887647Y-108372720D02*
X133859091Y-108364666D01*
X133859091Y-108364666D02*
X133830606Y-108356363D01*
X133830606Y-108356363D02*
X133802194Y-108347812D01*
X133802194Y-108347812D02*
X133773859Y-108339013D01*
X133773859Y-108339013D02*
X133745601Y-108329967D01*
X133745601Y-108329967D02*
X133717423Y-108320675D01*
X133717423Y-108320675D02*
X133689327Y-108311137D01*
X133689327Y-108311137D02*
X133661316Y-108301355D01*
X133661316Y-108301355D02*
X133633391Y-108291328D01*
X133633391Y-108291328D02*
X133605555Y-108281059D01*
X133605555Y-108281059D02*
X133577809Y-108270546D01*
X133577809Y-108270546D02*
X133550156Y-108259792D01*
X133550156Y-108259792D02*
X133522598Y-108248797D01*
X133522598Y-108248797D02*
X133495137Y-108237562D01*
X133495137Y-108237562D02*
X133467775Y-108226088D01*
X133467775Y-108226088D02*
X133440514Y-108214375D01*
X133440514Y-108214375D02*
X133413357Y-108202425D01*
X133413357Y-108202425D02*
X133386305Y-108190239D01*
X133386305Y-108190239D02*
X133359360Y-108177817D01*
X133359360Y-108177817D02*
X133332525Y-108165160D01*
X133332525Y-108165160D02*
X133305801Y-108152269D01*
X133305801Y-108152269D02*
X133279190Y-108139146D01*
X133279190Y-108139146D02*
X133252695Y-108125791D01*
X133252695Y-108125791D02*
X133226318Y-108112205D01*
X133226318Y-108112205D02*
X133200060Y-108098390D01*
X133200060Y-108098390D02*
X133173924Y-108084346D01*
X133173924Y-108084346D02*
X133147912Y-108070075D01*
X133147912Y-108070075D02*
X133122024Y-108055577D01*
X133122024Y-108055577D02*
X133096265Y-108040853D01*
X133096265Y-108040853D02*
X133070635Y-108025906D01*
X133070635Y-108025906D02*
X133045136Y-108010735D01*
X133045136Y-108010735D02*
X133019771Y-107995343D01*
X133019771Y-107995343D02*
X132994540Y-107979729D01*
X132994540Y-107979729D02*
X132969448Y-107963896D01*
X132969448Y-107963896D02*
X132944494Y-107947845D01*
X132944494Y-107947845D02*
X132919681Y-107931577D01*
X132919681Y-107931577D02*
X132895011Y-107915092D01*
X132895011Y-107915092D02*
X132870486Y-107898393D01*
X132870486Y-107898393D02*
X132846108Y-107881481D01*
X132846108Y-107881481D02*
X132821878Y-107864357D01*
X132821878Y-107864357D02*
X132797799Y-107847021D01*
X132797799Y-107847021D02*
X132773871Y-107829477D01*
X132773871Y-107829477D02*
X132750098Y-107811724D01*
X132750098Y-107811724D02*
X132746599Y-107809084D01*
X132170670Y-107256491D02*
X132145440Y-107225453D01*
X131722137Y-106548793D02*
X131709580Y-106521911D01*
X131709580Y-106521911D02*
X131697257Y-106494921D01*
X131697257Y-106494921D02*
X131685171Y-106467824D01*
X131685171Y-106467824D02*
X131673322Y-106440622D01*
X131673322Y-106440622D02*
X131661710Y-106413318D01*
X131661710Y-106413318D02*
X131650338Y-106385914D01*
X131650338Y-106385914D02*
X131639204Y-106358411D01*
X131639204Y-106358411D02*
X131628312Y-106330813D01*
X131628312Y-106330813D02*
X131617660Y-106303120D01*
X131617660Y-106303120D02*
X131607251Y-106275336D01*
X131607251Y-106275336D02*
X131597084Y-106247461D01*
X131597084Y-106247461D02*
X131587161Y-106219500D01*
X131587161Y-106219500D02*
X131577483Y-106191452D01*
X131577483Y-106191452D02*
X131568049Y-106163321D01*
X131568049Y-106163321D02*
X131558861Y-106135109D01*
X131558861Y-106135109D02*
X131549920Y-106106818D01*
X131549920Y-106106818D02*
X131541227Y-106078450D01*
X131541227Y-106078450D02*
X131532781Y-106050007D01*
X131532781Y-106050007D02*
X131524583Y-106021492D01*
X131524583Y-106021492D02*
X131516635Y-105992906D01*
X131516635Y-105992906D02*
X131508936Y-105964251D01*
X131508936Y-105964251D02*
X131501488Y-105935531D01*
X131501488Y-105935531D02*
X131494291Y-105906747D01*
X131494291Y-105906747D02*
X131487345Y-105877901D01*
X131487345Y-105877901D02*
X131480651Y-105848995D01*
X131480651Y-105848995D02*
X131474210Y-105820033D01*
X131474210Y-105820033D02*
X131468022Y-105791015D01*
X131468022Y-105791015D02*
X131462087Y-105761944D01*
X131462087Y-105761944D02*
X131456406Y-105732822D01*
X131456406Y-105732822D02*
X131450979Y-105703652D01*
X131450979Y-105703652D02*
X131445808Y-105674436D01*
X131445808Y-105674436D02*
X131440891Y-105645176D01*
X131440891Y-105645176D02*
X131436230Y-105615874D01*
X131436230Y-105615874D02*
X131431825Y-105586533D01*
X131431825Y-105586533D02*
X131427675Y-105557154D01*
X131427675Y-105557154D02*
X131423783Y-105527740D01*
X131423783Y-105527740D02*
X131420147Y-105498293D01*
X131420147Y-105498293D02*
X131416769Y-105468815D01*
X131416769Y-105468815D02*
X131413647Y-105439310D01*
X131413647Y-105439310D02*
X131410784Y-105409778D01*
X131410784Y-105409778D02*
X131408178Y-105380222D01*
X131408178Y-105380222D02*
X131405830Y-105350645D01*
X131405830Y-105350645D02*
X131403741Y-105321048D01*
X131403741Y-105321048D02*
X131401909Y-105291434D01*
X131401909Y-105291434D02*
X131400337Y-105261805D01*
X131400337Y-105261805D02*
X131399023Y-105232164D01*
X131399023Y-105232164D02*
X131397967Y-105202512D01*
X131397967Y-105202512D02*
X131397171Y-105172853D01*
X131397171Y-105172853D02*
X131396633Y-105143187D01*
X131396633Y-105143187D02*
X131396354Y-105113518D01*
X131396354Y-105113518D02*
X131396311Y-105096389D01*
X134796253Y-108496389D02*
X137196253Y-108496389D01*
X159796253Y-73096387D02*
X159396253Y-73496387D01*
X159796253Y-73096387D02*
X159796253Y-76096387D01*
X159796253Y-73096387D02*
X160196253Y-73496387D01*
D11*
X159796253Y-76096387D02*
X159796253Y-73096387D01*
D12*
X159923142Y-76096387D02*
G75*
G02*
X159669364Y-76096387I-126889J0D01*
G01*
X159669364Y-76096387D02*
G75*
G02*
X159923142Y-76096387I126889J0D01*
G01*
D10*
X160362057Y-76096387D02*
G75*
G02*
X159230449Y-76096387I-565804J0D01*
G01*
X159230449Y-76096387D02*
G75*
G02*
X160362057Y-76096387I565804J0D01*
G01*
X159796253Y-76096387D02*
X162796253Y-76096387D01*
X162796253Y-76096387D02*
X162396253Y-75696387D01*
X162796253Y-76096387D02*
X162396253Y-76496387D01*
X165296253Y-71200550D02*
X162896253Y-71200550D01*
X165296253Y-71200550D02*
X165325924Y-71200679D01*
X165325924Y-71200679D02*
X165355592Y-71201067D01*
X165355592Y-71201067D02*
X165385256Y-71201714D01*
X165385256Y-71201714D02*
X165414913Y-71202620D01*
X165414913Y-71202620D02*
X165444561Y-71203784D01*
X165444561Y-71203784D02*
X165474198Y-71205207D01*
X165474198Y-71205207D02*
X165503821Y-71206889D01*
X165503821Y-71206889D02*
X165533429Y-71208829D01*
X165533429Y-71208829D02*
X165563018Y-71211028D01*
X165563018Y-71211028D02*
X165592587Y-71213484D01*
X165592587Y-71213484D02*
X165622134Y-71216199D01*
X165622134Y-71216199D02*
X165651655Y-71219171D01*
X165651655Y-71219171D02*
X165681150Y-71222401D01*
X165681150Y-71222401D02*
X165710615Y-71225888D01*
X165710615Y-71225888D02*
X165740049Y-71229632D01*
X165740049Y-71229632D02*
X165769449Y-71233633D01*
X165769449Y-71233633D02*
X165798813Y-71237890D01*
X165798813Y-71237890D02*
X165828139Y-71242403D01*
X165828139Y-71242403D02*
X165857424Y-71247172D01*
X165857424Y-71247172D02*
X165886666Y-71252196D01*
X165886666Y-71252196D02*
X165915864Y-71257476D01*
X165915864Y-71257476D02*
X165945014Y-71263010D01*
X165945014Y-71263010D02*
X165974115Y-71268798D01*
X165974115Y-71268798D02*
X166003164Y-71274839D01*
X166003164Y-71274839D02*
X166032160Y-71281135D01*
X166032160Y-71281135D02*
X166061099Y-71287682D01*
X166061099Y-71287682D02*
X166089980Y-71294483D01*
X166089980Y-71294483D02*
X166118801Y-71301535D01*
X166118801Y-71301535D02*
X166147559Y-71308838D01*
X166147559Y-71308838D02*
X166176252Y-71316392D01*
X166176252Y-71316392D02*
X166204879Y-71324196D01*
X166204879Y-71324196D02*
X166233436Y-71332249D01*
X166233436Y-71332249D02*
X166261921Y-71340552D01*
X166261921Y-71340552D02*
X166290333Y-71349102D01*
X166290333Y-71349102D02*
X166318670Y-71357901D01*
X166318670Y-71357901D02*
X166346929Y-71366946D01*
X166346929Y-71366946D02*
X166375107Y-71376237D01*
X166375107Y-71376237D02*
X166403204Y-71385774D01*
X166403204Y-71385774D02*
X166431216Y-71395556D01*
X166431216Y-71395556D02*
X166459141Y-71405582D01*
X166459141Y-71405582D02*
X166486979Y-71415851D01*
X166486979Y-71415851D02*
X166514725Y-71426363D01*
X166514725Y-71426363D02*
X166542379Y-71437117D01*
X166542379Y-71437117D02*
X166569938Y-71448111D01*
X166569938Y-71448111D02*
X166597399Y-71459345D01*
X166597399Y-71459345D02*
X166624762Y-71470819D01*
X166624762Y-71470819D02*
X166652024Y-71482531D01*
X166652024Y-71482531D02*
X166679182Y-71494481D01*
X166679182Y-71494481D02*
X166706235Y-71506667D01*
X166706235Y-71506667D02*
X166733181Y-71519088D01*
X166733181Y-71519088D02*
X166760017Y-71531745D01*
X166760017Y-71531745D02*
X166786742Y-71544635D01*
X166786742Y-71544635D02*
X166813353Y-71557757D01*
X166813353Y-71557757D02*
X166839849Y-71571112D01*
X166839849Y-71571112D02*
X166866227Y-71584697D01*
X166866227Y-71584697D02*
X166892485Y-71598512D01*
X166892485Y-71598512D02*
X166918622Y-71612555D01*
X166918622Y-71612555D02*
X166944636Y-71626826D01*
X166944636Y-71626826D02*
X166970524Y-71641324D01*
X166970524Y-71641324D02*
X166996284Y-71656047D01*
X166996284Y-71656047D02*
X167021915Y-71670994D01*
X167021915Y-71670994D02*
X167047415Y-71686164D01*
X167047415Y-71686164D02*
X167072781Y-71701556D01*
X167072781Y-71701556D02*
X167098012Y-71717169D01*
X167098012Y-71717169D02*
X167123106Y-71733002D01*
X167123106Y-71733002D02*
X167148061Y-71749053D01*
X167148061Y-71749053D02*
X167172874Y-71765321D01*
X167172874Y-71765321D02*
X167197545Y-71781805D01*
X167197545Y-71781805D02*
X167222071Y-71798503D01*
X167222071Y-71798503D02*
X167246450Y-71815415D01*
X167246450Y-71815415D02*
X167270681Y-71832539D01*
X167270681Y-71832539D02*
X167294761Y-71849874D01*
X167294761Y-71849874D02*
X167318689Y-71867419D01*
X167318689Y-71867419D02*
X167342464Y-71885171D01*
X167342464Y-71885171D02*
X167345931Y-71887787D01*
X167921883Y-72440356D02*
X167947115Y-72471393D01*
X168370449Y-73148033D02*
X168383007Y-73174915D01*
X168383007Y-73174915D02*
X168395331Y-73201906D01*
X168395331Y-73201906D02*
X168407419Y-73229003D01*
X168407419Y-73229003D02*
X168419270Y-73256204D01*
X168419270Y-73256204D02*
X168430883Y-73283508D01*
X168430883Y-73283508D02*
X168442257Y-73310912D01*
X168442257Y-73310912D02*
X168453392Y-73338415D01*
X168453392Y-73338415D02*
X168464286Y-73366013D01*
X168464286Y-73366013D02*
X168474939Y-73393706D01*
X168474939Y-73393706D02*
X168485350Y-73421490D01*
X168485350Y-73421490D02*
X168495518Y-73449365D01*
X168495518Y-73449365D02*
X168505443Y-73477327D01*
X168505443Y-73477327D02*
X168515123Y-73505374D01*
X168515123Y-73505374D02*
X168524558Y-73533505D01*
X168524558Y-73533505D02*
X168533747Y-73561717D01*
X168533747Y-73561717D02*
X168542689Y-73590008D01*
X168542689Y-73590008D02*
X168551385Y-73618376D01*
X168551385Y-73618376D02*
X168559832Y-73646819D01*
X168559832Y-73646819D02*
X168568031Y-73675335D01*
X168568031Y-73675335D02*
X168575981Y-73703921D01*
X168575981Y-73703921D02*
X168583681Y-73732576D01*
X168583681Y-73732576D02*
X168591131Y-73761296D01*
X168591131Y-73761296D02*
X168598329Y-73790081D01*
X168598329Y-73790081D02*
X168605277Y-73818927D01*
X168605277Y-73818927D02*
X168611972Y-73847832D01*
X168611972Y-73847832D02*
X168618415Y-73876795D01*
X168618415Y-73876795D02*
X168624605Y-73905813D01*
X168624605Y-73905813D02*
X168630541Y-73934884D01*
X168630541Y-73934884D02*
X168636223Y-73964006D01*
X168636223Y-73964006D02*
X168641651Y-73993176D01*
X168641651Y-73993176D02*
X168646825Y-74022393D01*
X168646825Y-74022393D02*
X168651743Y-74051653D01*
X168651743Y-74051653D02*
X168656406Y-74080956D01*
X168656406Y-74080956D02*
X168660812Y-74110297D01*
X168660812Y-74110297D02*
X168664963Y-74139677D01*
X168664963Y-74139677D02*
X168668857Y-74169091D01*
X168668857Y-74169091D02*
X168672494Y-74198538D01*
X168672494Y-74198538D02*
X168675874Y-74228016D01*
X168675874Y-74228016D02*
X168678997Y-74257522D01*
X168678997Y-74257522D02*
X168681862Y-74287054D01*
X168681862Y-74287054D02*
X168684469Y-74316611D01*
X168684469Y-74316611D02*
X168686818Y-74346188D01*
X168686818Y-74346188D02*
X168688909Y-74375786D01*
X168688909Y-74375786D02*
X168690742Y-74405400D01*
X168690742Y-74405400D02*
X168692316Y-74435029D01*
X168692316Y-74435029D02*
X168693632Y-74464671D01*
X168693632Y-74464671D02*
X168694689Y-74494323D01*
X168694689Y-74494323D02*
X168695487Y-74523983D01*
X168695487Y-74523983D02*
X168696026Y-74553649D01*
X168696026Y-74553649D02*
X168696306Y-74583319D01*
X168696306Y-74583319D02*
X168696350Y-74600550D01*
X165296253Y-108496387D02*
X162896253Y-108496387D01*
X166896253Y-89696387D02*
X168896253Y-89696387D01*
X168696253Y-74600550D02*
X168696253Y-77000550D01*
X168696253Y-105096389D02*
X168696124Y-105126059D01*
X168696124Y-105126059D02*
X168695735Y-105155726D01*
X168695735Y-105155726D02*
X168695088Y-105185389D01*
X168695088Y-105185389D02*
X168694182Y-105215046D01*
X168694182Y-105215046D02*
X168693017Y-105244693D01*
X168693017Y-105244693D02*
X168691594Y-105274329D01*
X168691594Y-105274329D02*
X168689912Y-105303951D01*
X168689912Y-105303951D02*
X168687972Y-105333558D01*
X168687972Y-105333558D02*
X168685773Y-105363146D01*
X168685773Y-105363146D02*
X168683316Y-105392714D01*
X168683316Y-105392714D02*
X168680601Y-105422260D01*
X168680601Y-105422260D02*
X168677629Y-105451781D01*
X168677629Y-105451781D02*
X168674399Y-105481275D01*
X168674399Y-105481275D02*
X168670912Y-105510739D01*
X168670912Y-105510739D02*
X168667167Y-105540172D01*
X168667167Y-105540172D02*
X168663166Y-105569571D01*
X168663166Y-105569571D02*
X168658909Y-105598934D01*
X168658909Y-105598934D02*
X168654396Y-105628259D01*
X168654396Y-105628259D02*
X168649627Y-105657543D01*
X168649627Y-105657543D02*
X168644602Y-105686785D01*
X168644602Y-105686785D02*
X168639322Y-105715981D01*
X168639322Y-105715981D02*
X168633788Y-105745131D01*
X168633788Y-105745131D02*
X168628000Y-105774231D01*
X168628000Y-105774231D02*
X168621958Y-105803279D01*
X168621958Y-105803279D02*
X168615663Y-105832274D01*
X168615663Y-105832274D02*
X168609115Y-105861212D01*
X168609115Y-105861212D02*
X168602315Y-105890093D01*
X168602315Y-105890093D02*
X168595263Y-105918912D01*
X168595263Y-105918912D02*
X168587959Y-105947670D01*
X168587959Y-105947670D02*
X168580405Y-105976362D01*
X168580405Y-105976362D02*
X168572601Y-106004987D01*
X168572601Y-106004987D02*
X168564548Y-106033543D01*
X168564548Y-106033543D02*
X168556245Y-106062028D01*
X168556245Y-106062028D02*
X168547694Y-106090440D01*
X168547694Y-106090440D02*
X168538896Y-106118775D01*
X168538896Y-106118775D02*
X168529851Y-106147033D01*
X168529851Y-106147033D02*
X168520559Y-106175210D01*
X168520559Y-106175210D02*
X168511022Y-106203306D01*
X168511022Y-106203306D02*
X168501240Y-106231317D01*
X168501240Y-106231317D02*
X168491215Y-106259242D01*
X168491215Y-106259242D02*
X168480945Y-106287078D01*
X168480945Y-106287078D02*
X168470434Y-106314824D01*
X168470434Y-106314824D02*
X168459680Y-106342477D01*
X168459680Y-106342477D02*
X168448686Y-106370035D01*
X168448686Y-106370035D02*
X168437451Y-106397496D01*
X168437451Y-106397496D02*
X168425978Y-106424857D01*
X168425978Y-106424857D02*
X168414266Y-106452118D01*
X168414266Y-106452118D02*
X168402316Y-106479275D01*
X168402316Y-106479275D02*
X168390130Y-106506328D01*
X168390130Y-106506328D02*
X168377709Y-106533272D01*
X168377709Y-106533272D02*
X168365052Y-106560108D01*
X168365052Y-106560108D02*
X168352162Y-106586831D01*
X168352162Y-106586831D02*
X168339040Y-106613442D01*
X168339040Y-106613442D02*
X168325685Y-106639937D01*
X168325685Y-106639937D02*
X168312100Y-106666314D01*
X168312100Y-106666314D02*
X168298285Y-106692572D01*
X168298285Y-106692572D02*
X168284242Y-106718708D01*
X168284242Y-106718708D02*
X168269971Y-106744720D01*
X168269971Y-106744720D02*
X168255474Y-106770607D01*
X168255474Y-106770607D02*
X168240751Y-106796367D01*
X168240751Y-106796367D02*
X168225804Y-106821997D01*
X168225804Y-106821997D02*
X168210634Y-106847496D01*
X168210634Y-106847496D02*
X168195242Y-106872861D01*
X168195242Y-106872861D02*
X168179629Y-106898091D01*
X168179629Y-106898091D02*
X168163797Y-106923184D01*
X168163797Y-106923184D02*
X168147747Y-106948138D01*
X168147747Y-106948138D02*
X168131479Y-106972951D01*
X168131479Y-106972951D02*
X168114995Y-106997620D01*
X168114995Y-106997620D02*
X168098297Y-107022146D01*
X168098297Y-107022146D02*
X168081385Y-107046524D01*
X168081385Y-107046524D02*
X168064261Y-107070754D01*
X168064261Y-107070754D02*
X168046926Y-107094833D01*
X168046926Y-107094833D02*
X168029382Y-107118761D01*
X168029382Y-107118761D02*
X168011630Y-107142534D01*
X168011630Y-107142534D02*
X168008976Y-107146051D01*
X167456389Y-107721985D02*
X167425350Y-107747216D01*
X166748694Y-108170523D02*
X166721812Y-108183080D01*
X166721812Y-108183080D02*
X166694822Y-108195403D01*
X166694822Y-108195403D02*
X166667725Y-108207489D01*
X166667725Y-108207489D02*
X166640524Y-108219338D01*
X166640524Y-108219338D02*
X166613220Y-108230950D01*
X166613220Y-108230950D02*
X166585816Y-108242323D01*
X166585816Y-108242323D02*
X166558314Y-108253456D01*
X166558314Y-108253456D02*
X166530716Y-108264349D01*
X166530716Y-108264349D02*
X166503024Y-108275000D01*
X166503024Y-108275000D02*
X166475240Y-108285410D01*
X166475240Y-108285410D02*
X166447366Y-108295576D01*
X166447366Y-108295576D02*
X166419404Y-108305499D01*
X166419404Y-108305499D02*
X166391357Y-108315178D01*
X166391357Y-108315178D02*
X166363227Y-108324611D01*
X166363227Y-108324611D02*
X166335015Y-108333799D01*
X166335015Y-108333799D02*
X166306724Y-108342740D01*
X166306724Y-108342740D02*
X166278356Y-108351434D01*
X166278356Y-108351434D02*
X166249914Y-108359880D01*
X166249914Y-108359880D02*
X166221398Y-108368077D01*
X166221398Y-108368077D02*
X166192813Y-108376026D01*
X166192813Y-108376026D02*
X166164159Y-108383724D01*
X166164159Y-108383724D02*
X166135439Y-108391173D01*
X166135439Y-108391173D02*
X166106655Y-108398370D01*
X166106655Y-108398370D02*
X166077809Y-108405316D01*
X166077809Y-108405316D02*
X166048904Y-108412010D01*
X166048904Y-108412010D02*
X166019942Y-108418451D01*
X166019942Y-108418451D02*
X165990924Y-108424639D01*
X165990924Y-108424639D02*
X165961854Y-108430574D01*
X165961854Y-108430574D02*
X165932733Y-108436255D01*
X165932733Y-108436255D02*
X165903563Y-108441682D01*
X165903563Y-108441682D02*
X165874347Y-108446854D01*
X165874347Y-108446854D02*
X165845087Y-108451771D01*
X165845087Y-108451771D02*
X165815786Y-108456432D01*
X165815786Y-108456432D02*
X165786444Y-108460837D01*
X165786444Y-108460837D02*
X165757066Y-108464987D01*
X165757066Y-108464987D02*
X165727652Y-108468879D01*
X165727652Y-108468879D02*
X165698206Y-108472515D01*
X165698206Y-108472515D02*
X165668729Y-108475894D01*
X165668729Y-108475894D02*
X165639223Y-108479015D01*
X165639223Y-108479015D02*
X165609692Y-108481879D01*
X165609692Y-108481879D02*
X165580136Y-108484485D01*
X165580136Y-108484485D02*
X165550559Y-108486833D01*
X165550559Y-108486833D02*
X165520963Y-108488922D01*
X165520963Y-108488922D02*
X165491349Y-108490754D01*
X165491349Y-108490754D02*
X165461721Y-108492326D01*
X165461721Y-108492326D02*
X165432080Y-108493641D01*
X165432080Y-108493641D02*
X165402429Y-108494696D01*
X165402429Y-108494696D02*
X165372769Y-108495493D01*
X165372769Y-108495493D02*
X165343104Y-108496031D01*
X165343104Y-108496031D02*
X165313435Y-108496310D01*
X165313435Y-108496310D02*
X165296253Y-108496353D01*
X168696253Y-105096387D02*
X168696253Y-102696387D01*
D13*
X146505826Y-80869819D02*
X146255826Y-80393628D01*
X146077255Y-80869819D02*
X146077255Y-79869819D01*
X146077255Y-79869819D02*
X146362969Y-79869819D01*
X146362969Y-79869819D02*
X146434398Y-79917438D01*
X146434398Y-79917438D02*
X146470112Y-79965057D01*
X146470112Y-79965057D02*
X146505826Y-80060295D01*
X146505826Y-80060295D02*
X146505826Y-80203152D01*
X146505826Y-80203152D02*
X146470112Y-80298390D01*
X146470112Y-80298390D02*
X146434398Y-80346009D01*
X146434398Y-80346009D02*
X146362969Y-80393628D01*
X146362969Y-80393628D02*
X146077255Y-80393628D01*
X147112969Y-80822200D02*
X147041541Y-80869819D01*
X147041541Y-80869819D02*
X146898684Y-80869819D01*
X146898684Y-80869819D02*
X146827255Y-80822200D01*
X146827255Y-80822200D02*
X146791541Y-80726961D01*
X146791541Y-80726961D02*
X146791541Y-80346009D01*
X146791541Y-80346009D02*
X146827255Y-80250771D01*
X146827255Y-80250771D02*
X146898684Y-80203152D01*
X146898684Y-80203152D02*
X147041541Y-80203152D01*
X147041541Y-80203152D02*
X147112969Y-80250771D01*
X147112969Y-80250771D02*
X147148684Y-80346009D01*
X147148684Y-80346009D02*
X147148684Y-80441247D01*
X147148684Y-80441247D02*
X146791541Y-80536485D01*
X147398683Y-80203152D02*
X147577255Y-80869819D01*
X147577255Y-80869819D02*
X147755826Y-80203152D01*
X148577256Y-80584104D02*
X148934399Y-80584104D01*
X148505827Y-80869819D02*
X148755827Y-79869819D01*
X148755827Y-79869819D02*
X149005827Y-80869819D01*
X150005827Y-81203152D02*
X150005827Y-79774580D01*
X151077257Y-79965057D02*
X151112971Y-79917438D01*
X151112971Y-79917438D02*
X151184400Y-79869819D01*
X151184400Y-79869819D02*
X151362971Y-79869819D01*
X151362971Y-79869819D02*
X151434400Y-79917438D01*
X151434400Y-79917438D02*
X151470114Y-79965057D01*
X151470114Y-79965057D02*
X151505828Y-80060295D01*
X151505828Y-80060295D02*
X151505828Y-80155533D01*
X151505828Y-80155533D02*
X151470114Y-80298390D01*
X151470114Y-80298390D02*
X151041542Y-80869819D01*
X151041542Y-80869819D02*
X151505828Y-80869819D01*
X151827257Y-80488866D02*
X152398686Y-80488866D01*
X152684399Y-79869819D02*
X153148685Y-79869819D01*
X153148685Y-79869819D02*
X152898685Y-80250771D01*
X152898685Y-80250771D02*
X153005828Y-80250771D01*
X153005828Y-80250771D02*
X153077257Y-80298390D01*
X153077257Y-80298390D02*
X153112971Y-80346009D01*
X153112971Y-80346009D02*
X153148685Y-80441247D01*
X153148685Y-80441247D02*
X153148685Y-80679342D01*
X153148685Y-80679342D02*
X153112971Y-80774580D01*
X153112971Y-80774580D02*
X153077257Y-80822200D01*
X153077257Y-80822200D02*
X153005828Y-80869819D01*
X153005828Y-80869819D02*
X152791542Y-80869819D01*
X152791542Y-80869819D02*
X152720114Y-80822200D01*
X152720114Y-80822200D02*
X152684399Y-80774580D01*
X153434400Y-80822200D02*
X153541543Y-80869819D01*
X153541543Y-80869819D02*
X153720114Y-80869819D01*
X153720114Y-80869819D02*
X153791543Y-80822200D01*
X153791543Y-80822200D02*
X153827257Y-80774580D01*
X153827257Y-80774580D02*
X153862971Y-80679342D01*
X153862971Y-80679342D02*
X153862971Y-80584104D01*
X153862971Y-80584104D02*
X153827257Y-80488866D01*
X153827257Y-80488866D02*
X153791543Y-80441247D01*
X153791543Y-80441247D02*
X153720114Y-80393628D01*
X153720114Y-80393628D02*
X153577257Y-80346009D01*
X153577257Y-80346009D02*
X153505828Y-80298390D01*
X153505828Y-80298390D02*
X153470114Y-80250771D01*
X153470114Y-80250771D02*
X153434400Y-80155533D01*
X153434400Y-80155533D02*
X153434400Y-80060295D01*
X153434400Y-80060295D02*
X153470114Y-79965057D01*
X153470114Y-79965057D02*
X153505828Y-79917438D01*
X153505828Y-79917438D02*
X153577257Y-79869819D01*
X153577257Y-79869819D02*
X153755828Y-79869819D01*
X153755828Y-79869819D02*
X153862971Y-79917438D01*
X159572109Y-72666206D02*
X160095918Y-71999539D01*
X159572109Y-71999539D02*
X160095918Y-72666206D01*
X160337794Y-74599539D02*
X160861603Y-74599539D01*
X160861603Y-74599539D02*
X160337794Y-75266206D01*
X160337794Y-75266206D02*
X160861603Y-75266206D01*
X162237794Y-74399539D02*
X162475889Y-75066206D01*
X162713984Y-74399539D02*
X162475889Y-75066206D01*
X162475889Y-75066206D02*
X162380651Y-75304301D01*
X162380651Y-75304301D02*
X162333032Y-75351920D01*
X162333032Y-75351920D02*
X162237794Y-75399539D01*
D10*
X139365926Y-105282653D02*
X140127831Y-105282653D01*
X144365926Y-105282653D02*
X145127831Y-105282653D01*
X144746878Y-105663606D02*
X144746878Y-104901701D01*
G36*
X150780212Y-78106361D02*
G01*
X150780212Y-78554183D01*
X150761367Y-78563606D01*
X150618105Y-78563606D01*
X150558495Y-78533801D01*
X150533828Y-78509133D01*
X150504022Y-78449521D01*
X150504022Y-78211022D01*
X150533827Y-78151412D01*
X150558495Y-78126743D01*
X150618105Y-78096939D01*
X150761367Y-78096939D01*
X150780212Y-78106361D01*
G37*
G36*
X148424723Y-78119094D02*
G01*
X148442173Y-78153994D01*
X148170688Y-78208291D01*
X148170688Y-78163403D01*
X148192843Y-78119093D01*
X148237152Y-78096939D01*
X148380414Y-78096939D01*
X148424723Y-78119094D01*
G37*
G36*
X149900914Y-78119094D02*
G01*
X149918364Y-78153994D01*
X149646879Y-78208291D01*
X149646879Y-78163403D01*
X149669034Y-78119093D01*
X149713343Y-78096939D01*
X149856605Y-78096939D01*
X149900914Y-78119094D01*
G37*
G36*
X153662819Y-78119094D02*
G01*
X153680269Y-78153994D01*
X153408784Y-78208291D01*
X153408784Y-78163403D01*
X153430939Y-78119093D01*
X153475248Y-78096939D01*
X153618510Y-78096939D01*
X153662819Y-78119094D01*
G37*
G36*
X146582880Y-77793411D02*
G01*
X146607549Y-77818079D01*
X146637354Y-77877689D01*
X146637354Y-77973332D01*
X146607549Y-78032941D01*
X146582880Y-78057609D01*
X146523271Y-78087415D01*
X146265926Y-78087415D01*
X146265926Y-77763606D01*
X146523271Y-77763606D01*
X146582880Y-77793411D01*
G37*
G36*
X153996085Y-79208050D02*
G01*
X145954815Y-79208050D01*
X145954815Y-77663606D01*
X146065926Y-77663606D01*
X146065926Y-78663606D01*
X146067847Y-78683115D01*
X146082779Y-78719163D01*
X146110369Y-78746753D01*
X146146417Y-78761685D01*
X146185435Y-78761685D01*
X146221483Y-78746753D01*
X146249073Y-78719163D01*
X146264005Y-78683115D01*
X146265926Y-78663606D01*
X146265926Y-78317765D01*
X147019092Y-78317765D01*
X147020228Y-78333749D01*
X147020228Y-78349781D01*
X147021603Y-78353101D01*
X147021858Y-78356685D01*
X147029025Y-78371020D01*
X147035160Y-78385829D01*
X147037700Y-78388369D01*
X147039308Y-78391584D01*
X147051419Y-78402088D01*
X147062750Y-78413419D01*
X147066068Y-78414793D01*
X147068784Y-78417149D01*
X147083993Y-78422218D01*
X147098798Y-78428351D01*
X147103898Y-78428853D01*
X147105800Y-78429487D01*
X147108433Y-78429299D01*
X147118307Y-78430272D01*
X147494497Y-78430272D01*
X147494497Y-78663606D01*
X147496418Y-78683115D01*
X147511350Y-78719163D01*
X147538940Y-78746753D01*
X147574988Y-78761685D01*
X147614006Y-78761685D01*
X147650054Y-78746753D01*
X147677644Y-78719163D01*
X147692576Y-78683115D01*
X147694497Y-78663606D01*
X147694497Y-78430272D01*
X147737354Y-78430272D01*
X147756863Y-78428351D01*
X147792911Y-78413419D01*
X147820501Y-78385829D01*
X147835433Y-78349781D01*
X147835433Y-78310763D01*
X147820501Y-78274715D01*
X147792911Y-78247125D01*
X147756863Y-78232193D01*
X147737354Y-78230272D01*
X147694497Y-78230272D01*
X147694497Y-78139796D01*
X147970688Y-78139796D01*
X147970688Y-78520748D01*
X147972609Y-78540257D01*
X147973984Y-78543577D01*
X147974239Y-78547160D01*
X147981245Y-78565469D01*
X148028864Y-78660708D01*
X148030917Y-78663971D01*
X148031431Y-78665510D01*
X148033093Y-78667426D01*
X148039307Y-78677298D01*
X148048778Y-78685512D01*
X148056995Y-78694987D01*
X148066865Y-78701199D01*
X148068783Y-78702863D01*
X148070323Y-78703376D01*
X148073586Y-78705430D01*
X148168823Y-78753049D01*
X148187132Y-78760055D01*
X148190715Y-78760309D01*
X148194036Y-78761685D01*
X148213545Y-78763606D01*
X148404021Y-78763606D01*
X148423530Y-78761685D01*
X148426850Y-78760309D01*
X148430434Y-78760055D01*
X148448742Y-78753049D01*
X148543980Y-78705430D01*
X148560570Y-78694987D01*
X148586135Y-78665510D01*
X148598473Y-78628494D01*
X148595708Y-78589574D01*
X148578259Y-78554676D01*
X148548782Y-78529111D01*
X148511766Y-78516772D01*
X148472846Y-78519538D01*
X148454537Y-78526544D01*
X148380414Y-78563606D01*
X148237152Y-78563606D01*
X148192842Y-78541451D01*
X148170688Y-78497141D01*
X148170688Y-78412252D01*
X148566384Y-78333113D01*
X148566387Y-78333113D01*
X148566389Y-78333111D01*
X148566489Y-78333092D01*
X148585243Y-78327382D01*
X148593383Y-78321930D01*
X148602435Y-78318181D01*
X148609436Y-78311179D01*
X148617662Y-78305671D01*
X148623096Y-78297519D01*
X148630025Y-78290591D01*
X148633814Y-78281443D01*
X148639306Y-78273206D01*
X148641207Y-78263595D01*
X148644957Y-78254543D01*
X148646878Y-78235034D01*
X148646878Y-78139796D01*
X148644957Y-78120287D01*
X148643581Y-78116966D01*
X148643327Y-78113383D01*
X148636321Y-78095074D01*
X148588702Y-77999837D01*
X148586877Y-77996939D01*
X148875450Y-77996939D01*
X148875450Y-78663606D01*
X148877371Y-78683115D01*
X148892303Y-78719163D01*
X148919893Y-78746753D01*
X148955941Y-78761685D01*
X148994959Y-78761685D01*
X149031007Y-78746753D01*
X149058597Y-78719163D01*
X149073529Y-78683115D01*
X149075450Y-78663606D01*
X149075450Y-78211022D01*
X149105255Y-78151412D01*
X149116871Y-78139796D01*
X149446879Y-78139796D01*
X149446879Y-78520748D01*
X149448800Y-78540257D01*
X149450175Y-78543577D01*
X149450430Y-78547160D01*
X149457436Y-78565469D01*
X149505055Y-78660708D01*
X149507108Y-78663971D01*
X149507622Y-78665510D01*
X149509284Y-78667426D01*
X149515498Y-78677298D01*
X149524969Y-78685512D01*
X149533186Y-78694987D01*
X149543056Y-78701199D01*
X149544974Y-78702863D01*
X149546514Y-78703376D01*
X149549777Y-78705430D01*
X149645014Y-78753049D01*
X149663323Y-78760055D01*
X149666906Y-78760309D01*
X149670227Y-78761685D01*
X149689736Y-78763606D01*
X149880212Y-78763606D01*
X149899721Y-78761685D01*
X149903041Y-78760309D01*
X149906625Y-78760055D01*
X149924933Y-78753049D01*
X150020171Y-78705430D01*
X150036761Y-78694987D01*
X150062326Y-78665510D01*
X150074664Y-78628494D01*
X150071899Y-78589574D01*
X150054450Y-78554676D01*
X150024973Y-78529111D01*
X149987957Y-78516772D01*
X149949037Y-78519538D01*
X149930728Y-78526544D01*
X149856605Y-78563606D01*
X149713343Y-78563606D01*
X149669033Y-78541451D01*
X149646879Y-78497141D01*
X149646879Y-78412252D01*
X150042575Y-78333113D01*
X150042578Y-78333113D01*
X150042580Y-78333111D01*
X150042680Y-78333092D01*
X150061434Y-78327382D01*
X150069574Y-78321930D01*
X150078626Y-78318181D01*
X150085627Y-78311179D01*
X150093853Y-78305671D01*
X150099287Y-78297519D01*
X150106216Y-78290591D01*
X150110005Y-78281443D01*
X150115497Y-78273206D01*
X150117398Y-78263595D01*
X150121148Y-78254543D01*
X150123069Y-78235034D01*
X150123069Y-78187415D01*
X150304022Y-78187415D01*
X150304022Y-78473129D01*
X150305943Y-78492638D01*
X150307318Y-78495958D01*
X150307573Y-78499542D01*
X150314579Y-78517850D01*
X150362198Y-78613088D01*
X150367481Y-78621480D01*
X150368493Y-78623924D01*
X150370749Y-78626673D01*
X150372641Y-78629678D01*
X150374635Y-78631407D01*
X150380930Y-78639077D01*
X150428548Y-78686697D01*
X150436216Y-78692990D01*
X150437948Y-78694987D01*
X150440956Y-78696880D01*
X150443702Y-78699134D01*
X150446142Y-78700144D01*
X150454539Y-78705430D01*
X150549776Y-78753049D01*
X150568085Y-78760055D01*
X150571668Y-78760309D01*
X150574989Y-78761685D01*
X150594498Y-78763606D01*
X150780212Y-78763606D01*
X150780212Y-78782856D01*
X150750407Y-78842465D01*
X150725738Y-78867133D01*
X150666129Y-78896939D01*
X150570486Y-78896939D01*
X150496362Y-78859877D01*
X150478054Y-78852871D01*
X150439134Y-78850105D01*
X150402118Y-78862444D01*
X150372641Y-78888008D01*
X150355192Y-78922907D01*
X150352426Y-78961827D01*
X150364765Y-78998843D01*
X150390329Y-79028320D01*
X150406920Y-79038763D01*
X150502157Y-79086382D01*
X150520466Y-79093388D01*
X150524049Y-79093642D01*
X150527370Y-79095018D01*
X150546879Y-79096939D01*
X150689736Y-79096939D01*
X150709245Y-79095018D01*
X150712565Y-79093642D01*
X150716149Y-79093388D01*
X150734457Y-79086382D01*
X150829695Y-79038763D01*
X150838091Y-79033477D01*
X150840531Y-79032467D01*
X150843277Y-79030213D01*
X150846285Y-79028320D01*
X150848014Y-79026325D01*
X150855685Y-79020031D01*
X150903303Y-78972412D01*
X150909595Y-78964745D01*
X150911593Y-78963013D01*
X150913486Y-78960004D01*
X150915740Y-78957259D01*
X150916750Y-78954818D01*
X150922036Y-78946422D01*
X150969655Y-78851185D01*
X150976661Y-78832876D01*
X150976915Y-78829292D01*
X150978291Y-78825972D01*
X150980212Y-78806463D01*
X150980212Y-77996939D01*
X151256403Y-77996939D01*
X151256403Y-78663606D01*
X151258324Y-78683115D01*
X151273256Y-78719163D01*
X151300846Y-78746753D01*
X151336894Y-78761685D01*
X151375912Y-78761685D01*
X151411960Y-78746753D01*
X151439550Y-78719163D01*
X151454482Y-78683115D01*
X151456403Y-78663606D01*
X151456403Y-78211022D01*
X151486208Y-78151412D01*
X151510876Y-78126743D01*
X151570486Y-78096939D01*
X151642117Y-78096939D01*
X151661626Y-78095018D01*
X151697674Y-78080086D01*
X151725264Y-78052496D01*
X151740196Y-78016448D01*
X151740196Y-77996939D01*
X151875451Y-77996939D01*
X151875451Y-78663606D01*
X151877372Y-78683115D01*
X151892304Y-78719163D01*
X151919894Y-78746753D01*
X151955942Y-78761685D01*
X151994960Y-78761685D01*
X152031008Y-78746753D01*
X152058598Y-78719163D01*
X152073530Y-78683115D01*
X152075451Y-78663606D01*
X152075451Y-77996939D01*
X152351641Y-77996939D01*
X152351641Y-78663606D01*
X152353562Y-78683115D01*
X152368494Y-78719163D01*
X152396084Y-78746753D01*
X152432132Y-78761685D01*
X152471150Y-78761685D01*
X152507198Y-78746753D01*
X152534788Y-78719163D01*
X152549720Y-78683115D01*
X152551641Y-78663606D01*
X152551641Y-78133598D01*
X152558495Y-78126743D01*
X152618105Y-78096939D01*
X152713748Y-78096939D01*
X152758057Y-78119094D01*
X152780212Y-78163403D01*
X152780212Y-78663606D01*
X152782133Y-78683115D01*
X152797065Y-78719163D01*
X152824655Y-78746753D01*
X152860703Y-78761685D01*
X152899721Y-78761685D01*
X152935769Y-78746753D01*
X152963359Y-78719163D01*
X152978291Y-78683115D01*
X152980212Y-78663606D01*
X152980212Y-78139796D01*
X153208784Y-78139796D01*
X153208784Y-78520748D01*
X153210705Y-78540257D01*
X153212080Y-78543577D01*
X153212335Y-78547160D01*
X153219341Y-78565469D01*
X153266960Y-78660708D01*
X153269013Y-78663971D01*
X153269527Y-78665510D01*
X153271189Y-78667426D01*
X153277403Y-78677298D01*
X153286874Y-78685512D01*
X153295091Y-78694987D01*
X153304961Y-78701199D01*
X153306879Y-78702863D01*
X153308419Y-78703376D01*
X153311682Y-78705430D01*
X153406919Y-78753049D01*
X153425228Y-78760055D01*
X153428811Y-78760309D01*
X153432132Y-78761685D01*
X153451641Y-78763606D01*
X153642117Y-78763606D01*
X153661626Y-78761685D01*
X153664946Y-78760309D01*
X153668530Y-78760055D01*
X153686838Y-78753049D01*
X153782076Y-78705430D01*
X153798666Y-78694987D01*
X153824231Y-78665510D01*
X153836569Y-78628494D01*
X153833804Y-78589574D01*
X153816355Y-78554676D01*
X153786878Y-78529111D01*
X153749862Y-78516772D01*
X153710942Y-78519538D01*
X153692633Y-78526544D01*
X153618510Y-78563606D01*
X153475248Y-78563606D01*
X153430938Y-78541451D01*
X153408784Y-78497141D01*
X153408784Y-78412252D01*
X153804480Y-78333113D01*
X153804483Y-78333113D01*
X153804485Y-78333111D01*
X153804585Y-78333092D01*
X153823339Y-78327382D01*
X153831479Y-78321930D01*
X153840531Y-78318181D01*
X153847532Y-78311179D01*
X153855758Y-78305671D01*
X153861192Y-78297519D01*
X153868121Y-78290591D01*
X153871910Y-78281443D01*
X153877402Y-78273206D01*
X153879303Y-78263595D01*
X153883053Y-78254543D01*
X153884974Y-78235034D01*
X153884974Y-78139796D01*
X153883053Y-78120287D01*
X153881677Y-78116966D01*
X153881423Y-78113383D01*
X153874417Y-78095074D01*
X153826798Y-77999837D01*
X153824743Y-77996573D01*
X153824231Y-77995035D01*
X153822569Y-77993119D01*
X153816355Y-77983246D01*
X153806879Y-77975028D01*
X153798666Y-77965558D01*
X153788794Y-77959344D01*
X153786878Y-77957682D01*
X153785339Y-77957168D01*
X153782076Y-77955115D01*
X153686838Y-77907496D01*
X153668530Y-77900490D01*
X153664946Y-77900235D01*
X153661626Y-77898860D01*
X153642117Y-77896939D01*
X153451641Y-77896939D01*
X153432132Y-77898860D01*
X153428811Y-77900235D01*
X153425228Y-77900490D01*
X153406919Y-77907496D01*
X153311682Y-77955115D01*
X153308418Y-77957169D01*
X153306880Y-77957682D01*
X153304964Y-77959343D01*
X153295091Y-77965558D01*
X153286873Y-77975033D01*
X153277403Y-77983247D01*
X153271189Y-77993118D01*
X153269527Y-77995035D01*
X153269013Y-77996573D01*
X153266960Y-77999837D01*
X153219341Y-78095075D01*
X153212335Y-78113383D01*
X153212080Y-78116966D01*
X153210705Y-78120287D01*
X153208784Y-78139796D01*
X152980212Y-78139796D01*
X152978291Y-78120287D01*
X152976915Y-78116966D01*
X152976661Y-78113383D01*
X152969655Y-78095074D01*
X152922036Y-77999837D01*
X152919981Y-77996573D01*
X152919469Y-77995035D01*
X152917807Y-77993119D01*
X152911593Y-77983246D01*
X152902117Y-77975028D01*
X152893904Y-77965558D01*
X152884032Y-77959344D01*
X152882116Y-77957682D01*
X152880577Y-77957168D01*
X152877314Y-77955115D01*
X152782076Y-77907496D01*
X152763768Y-77900490D01*
X152760184Y-77900235D01*
X152756864Y-77898860D01*
X152737355Y-77896939D01*
X152594498Y-77896939D01*
X152574989Y-77898860D01*
X152571668Y-77900235D01*
X152568085Y-77900490D01*
X152549776Y-77907496D01*
X152517193Y-77923787D01*
X152507198Y-77913792D01*
X152471150Y-77898860D01*
X152432132Y-77898860D01*
X152396084Y-77913792D01*
X152368494Y-77941382D01*
X152353562Y-77977430D01*
X152351641Y-77996939D01*
X152075451Y-77996939D01*
X152073530Y-77977430D01*
X152058598Y-77941382D01*
X152031008Y-77913792D01*
X151994960Y-77898860D01*
X151955942Y-77898860D01*
X151919894Y-77913792D01*
X151892304Y-77941382D01*
X151877372Y-77977430D01*
X151875451Y-77996939D01*
X151740196Y-77996939D01*
X151740196Y-77977430D01*
X151725264Y-77941382D01*
X151697674Y-77913792D01*
X151661626Y-77898860D01*
X151642117Y-77896939D01*
X151546879Y-77896939D01*
X151527370Y-77898860D01*
X151524049Y-77900235D01*
X151520466Y-77900490D01*
X151502157Y-77907496D01*
X151437828Y-77939660D01*
X151411960Y-77913792D01*
X151375912Y-77898860D01*
X151336894Y-77898860D01*
X151300846Y-77913792D01*
X151273256Y-77941382D01*
X151258324Y-77977430D01*
X151256403Y-77996939D01*
X150980212Y-77996939D01*
X150978291Y-77977430D01*
X150963359Y-77941382D01*
X150935769Y-77913792D01*
X150899721Y-77898860D01*
X150860703Y-77898860D01*
X150834298Y-77909797D01*
X150829695Y-77907496D01*
X150811387Y-77900490D01*
X150807803Y-77900235D01*
X150804483Y-77898860D01*
X150784974Y-77896939D01*
X150594498Y-77896939D01*
X150574989Y-77898860D01*
X150571668Y-77900235D01*
X150568085Y-77900490D01*
X150549776Y-77907496D01*
X150454539Y-77955115D01*
X150446142Y-77960400D01*
X150443702Y-77961411D01*
X150440956Y-77963664D01*
X150437948Y-77965558D01*
X150436215Y-77967555D01*
X150428549Y-77973848D01*
X150380930Y-78021466D01*
X150374635Y-78029136D01*
X150372641Y-78030866D01*
X150370747Y-78033873D01*
X150368494Y-78036620D01*
X150367483Y-78039059D01*
X150362198Y-78047456D01*
X150314579Y-78142694D01*
X150307573Y-78161002D01*
X150307318Y-78164585D01*
X150305943Y-78167906D01*
X150304022Y-78187415D01*
X150123069Y-78187415D01*
X150123069Y-78139796D01*
X150121148Y-78120287D01*
X150119772Y-78116966D01*
X150119518Y-78113383D01*
X150112512Y-78095074D01*
X150064893Y-77999837D01*
X150062838Y-77996573D01*
X150062326Y-77995035D01*
X150060664Y-77993119D01*
X150054450Y-77983246D01*
X150044974Y-77975028D01*
X150036761Y-77965558D01*
X150026889Y-77959344D01*
X150024973Y-77957682D01*
X150023434Y-77957168D01*
X150020171Y-77955115D01*
X149924933Y-77907496D01*
X149906625Y-77900490D01*
X149903041Y-77900235D01*
X149899721Y-77898860D01*
X149880212Y-77896939D01*
X149689736Y-77896939D01*
X149670227Y-77898860D01*
X149666906Y-77900235D01*
X149663323Y-77900490D01*
X149645014Y-77907496D01*
X149549777Y-77955115D01*
X149546513Y-77957169D01*
X149544975Y-77957682D01*
X149543059Y-77959343D01*
X149533186Y-77965558D01*
X149524968Y-77975033D01*
X149515498Y-77983247D01*
X149509284Y-77993118D01*
X149507622Y-77995035D01*
X149507108Y-77996573D01*
X149505055Y-77999837D01*
X149457436Y-78095075D01*
X149450430Y-78113383D01*
X149450175Y-78116966D01*
X149448800Y-78120287D01*
X149446879Y-78139796D01*
X149116871Y-78139796D01*
X149129923Y-78126743D01*
X149189533Y-78096939D01*
X149261164Y-78096939D01*
X149280673Y-78095018D01*
X149316721Y-78080086D01*
X149344311Y-78052496D01*
X149359243Y-78016448D01*
X149359243Y-77977430D01*
X149344311Y-77941382D01*
X149316721Y-77913792D01*
X149280673Y-77898860D01*
X149261164Y-77896939D01*
X149165926Y-77896939D01*
X149146417Y-77898860D01*
X149143096Y-77900235D01*
X149139513Y-77900490D01*
X149121204Y-77907496D01*
X149056875Y-77939660D01*
X149031007Y-77913792D01*
X148994959Y-77898860D01*
X148955941Y-77898860D01*
X148919893Y-77913792D01*
X148892303Y-77941382D01*
X148877371Y-77977430D01*
X148875450Y-77996939D01*
X148586877Y-77996939D01*
X148586647Y-77996573D01*
X148586135Y-77995035D01*
X148584473Y-77993119D01*
X148578259Y-77983246D01*
X148568783Y-77975028D01*
X148560570Y-77965558D01*
X148550698Y-77959344D01*
X148548782Y-77957682D01*
X148547243Y-77957168D01*
X148543980Y-77955115D01*
X148448742Y-77907496D01*
X148430434Y-77900490D01*
X148426850Y-77900235D01*
X148423530Y-77898860D01*
X148404021Y-77896939D01*
X148213545Y-77896939D01*
X148194036Y-77898860D01*
X148190715Y-77900235D01*
X148187132Y-77900490D01*
X148168823Y-77907496D01*
X148073586Y-77955115D01*
X148070322Y-77957169D01*
X148068784Y-77957682D01*
X148066868Y-77959343D01*
X148056995Y-77965558D01*
X148048777Y-77975033D01*
X148039307Y-77983247D01*
X148033093Y-77993118D01*
X148031431Y-77995035D01*
X148030917Y-77996573D01*
X148028864Y-77999837D01*
X147981245Y-78095075D01*
X147974239Y-78113383D01*
X147973984Y-78116966D01*
X147972609Y-78120287D01*
X147970688Y-78139796D01*
X147694497Y-78139796D01*
X147694497Y-77996939D01*
X147692576Y-77977430D01*
X147677644Y-77941382D01*
X147650054Y-77913792D01*
X147614006Y-77898860D01*
X147574988Y-77898860D01*
X147538940Y-77913792D01*
X147511350Y-77941382D01*
X147496418Y-77977430D01*
X147494497Y-77996939D01*
X147494497Y-78230272D01*
X147257049Y-78230272D01*
X147436568Y-77691716D01*
X151829753Y-77691716D01*
X151829753Y-77730734D01*
X151844685Y-77766782D01*
X151857121Y-77781936D01*
X151904740Y-77829554D01*
X151919893Y-77841991D01*
X151930451Y-77846364D01*
X151955942Y-77856923D01*
X151994960Y-77856923D01*
X152031008Y-77841991D01*
X152046162Y-77829555D01*
X152093780Y-77781936D01*
X152106217Y-77766783D01*
X152121148Y-77730734D01*
X152121148Y-77691716D01*
X152119664Y-77688133D01*
X152106217Y-77655667D01*
X152093780Y-77640514D01*
X152046162Y-77592895D01*
X152031008Y-77580459D01*
X151994960Y-77565527D01*
X151955942Y-77565527D01*
X151930451Y-77576085D01*
X151919893Y-77580459D01*
X151904740Y-77592896D01*
X151857121Y-77640514D01*
X151844686Y-77655667D01*
X151844685Y-77655668D01*
X151829753Y-77691716D01*
X147436568Y-77691716D01*
X147451270Y-77647610D01*
X147455617Y-77628495D01*
X147452851Y-77589575D01*
X147435401Y-77554676D01*
X147405925Y-77529111D01*
X147368909Y-77516772D01*
X147329989Y-77519539D01*
X147295090Y-77536988D01*
X147269525Y-77566464D01*
X147261534Y-77584365D01*
X147023439Y-78298649D01*
X147021239Y-78308320D01*
X147020228Y-78310763D01*
X147020228Y-78312769D01*
X147019092Y-78317765D01*
X146265926Y-78317765D01*
X146265926Y-78287415D01*
X146546878Y-78287415D01*
X146566387Y-78285494D01*
X146569707Y-78284118D01*
X146573291Y-78283864D01*
X146591599Y-78276858D01*
X146686837Y-78229239D01*
X146695233Y-78223953D01*
X146697673Y-78222943D01*
X146700419Y-78220689D01*
X146703427Y-78218796D01*
X146705156Y-78216801D01*
X146712827Y-78210507D01*
X146760445Y-78162888D01*
X146766737Y-78155221D01*
X146768735Y-78153489D01*
X146770628Y-78150480D01*
X146772882Y-78147735D01*
X146773892Y-78145294D01*
X146779178Y-78136898D01*
X146826797Y-78041661D01*
X146833803Y-78023352D01*
X146834057Y-78019768D01*
X146835433Y-78016448D01*
X146837354Y-77996939D01*
X146837354Y-77854082D01*
X146835433Y-77834573D01*
X146834057Y-77831252D01*
X146833803Y-77827669D01*
X146826797Y-77809360D01*
X146779178Y-77714123D01*
X146773892Y-77705726D01*
X146772882Y-77703286D01*
X146770628Y-77700540D01*
X146768735Y-77697532D01*
X146766737Y-77695799D01*
X146760445Y-77688133D01*
X146712827Y-77640514D01*
X146705156Y-77634219D01*
X146703427Y-77632225D01*
X146700419Y-77630331D01*
X146697673Y-77628078D01*
X146695233Y-77627067D01*
X146686837Y-77621782D01*
X146591599Y-77574163D01*
X146573291Y-77567157D01*
X146569707Y-77566902D01*
X146566387Y-77565527D01*
X146546878Y-77563606D01*
X146165926Y-77563606D01*
X146146417Y-77565527D01*
X146110369Y-77580459D01*
X146082779Y-77608049D01*
X146067847Y-77644097D01*
X146065926Y-77663606D01*
X145954815Y-77663606D01*
X145954815Y-77405661D01*
X153996085Y-77405661D01*
X153996085Y-79208050D01*
G37*
%TO.C,C193*%
D14*
X143809999Y-93561387D02*
X142387495Y-93561387D01*
X143809999Y-96281387D02*
X142387495Y-96281387D01*
%TO.C,U9*%
D10*
X146796253Y-98696387D02*
X146796253Y-99196387D01*
X146796253Y-98696387D02*
X146846253Y-98696387D01*
X146796253Y-100686387D02*
X146796253Y-101196387D01*
X146796253Y-101196387D02*
X146846253Y-101196387D01*
X148946253Y-98696387D02*
X148996253Y-98696387D01*
X148946253Y-101196387D02*
X148996253Y-101196387D01*
X148996253Y-98696387D02*
X148996253Y-99206387D01*
X148996253Y-100686387D02*
X148996253Y-101196387D01*
X146496253Y-99446387D02*
G75*
G02*
X146296253Y-99446387I-100000J0D01*
G01*
X146296253Y-99446387D02*
G75*
G02*
X146496253Y-99446387I100000J0D01*
G01*
D15*
X146926253Y-98696387D02*
G75*
G02*
X146866253Y-98696387I-30000J0D01*
G01*
X146866253Y-98696387D02*
G75*
G02*
X146926253Y-98696387I30000J0D01*
G01*
%TO.C,C80*%
D14*
X150061253Y-98235135D02*
X150061253Y-98757639D01*
X151531253Y-98235135D02*
X151531253Y-98757639D01*
%TO.C,C200*%
X143809999Y-77361387D02*
X142387495Y-77361387D01*
X143809999Y-80081387D02*
X142387495Y-80081387D01*
%TO.C,Q14*%
D10*
X165993759Y-94411387D02*
G75*
G02*
X165793759Y-94411387I-100000J0D01*
G01*
X165793759Y-94411387D02*
G75*
G02*
X165993759Y-94411387I100000J0D01*
G01*
%TO.C,Q17*%
X136588747Y-87041387D02*
G75*
G02*
X136388747Y-87041387I-100000J0D01*
G01*
X136388747Y-87041387D02*
G75*
G02*
X136588747Y-87041387I100000J0D01*
G01*
%TO.C,Q5*%
X163706253Y-79776387D02*
G75*
G02*
X163506253Y-79776387I-100000J0D01*
G01*
X163506253Y-79776387D02*
G75*
G02*
X163706253Y-79776387I100000J0D01*
G01*
%TO.C,Q10*%
X163996253Y-89886387D02*
G75*
G02*
X163796253Y-89886387I-100000J0D01*
G01*
X163796253Y-89886387D02*
G75*
G02*
X163996253Y-89886387I100000J0D01*
G01*
%TO.C,C201*%
D14*
X143809999Y-90361387D02*
X142387495Y-90361387D01*
X143809999Y-93081387D02*
X142387495Y-93081387D01*
%TO.C,Q20*%
D10*
X134298747Y-85381387D02*
G75*
G02*
X134098747Y-85381387I-100000J0D01*
G01*
X134098747Y-85381387D02*
G75*
G02*
X134298747Y-85381387I100000J0D01*
G01*
%TO.C,Q26*%
X134298747Y-98381387D02*
G75*
G02*
X134098747Y-98381387I-100000J0D01*
G01*
X134098747Y-98381387D02*
G75*
G02*
X134298747Y-98381387I100000J0D01*
G01*
%TO.C,C199*%
D14*
X156282507Y-99711387D02*
X157705011Y-99711387D01*
X156282507Y-102431387D02*
X157705011Y-102431387D01*
%TO.C,C113*%
X156285001Y-77136387D02*
X157707505Y-77136387D01*
X156285001Y-79856387D02*
X157707505Y-79856387D01*
%TO.C,Q23*%
D10*
X136588747Y-100041387D02*
G75*
G02*
X136388747Y-100041387I-100000J0D01*
G01*
X136388747Y-100041387D02*
G75*
G02*
X136588747Y-100041387I100000J0D01*
G01*
%TO.C,Q24*%
X136298747Y-98081387D02*
G75*
G02*
X136098747Y-98081387I-100000J0D01*
G01*
X136098747Y-98081387D02*
G75*
G02*
X136298747Y-98081387I100000J0D01*
G01*
%TO.C,C162*%
D14*
X143809999Y-83761387D02*
X142387495Y-83761387D01*
X143809999Y-86481387D02*
X142387495Y-86481387D01*
%TO.C,C185*%
X143809999Y-99961387D02*
X142387495Y-99961387D01*
X143809999Y-102681387D02*
X142387495Y-102681387D01*
%TO.C,U3*%
X146286253Y-82141387D02*
X152506253Y-82141387D01*
X146286253Y-82336387D02*
X146286253Y-82141387D01*
X146286253Y-87361387D02*
X146286253Y-87166387D01*
X152506253Y-82141387D02*
X152506253Y-82336387D01*
X152506253Y-87166387D02*
X152506253Y-87361387D01*
X152506253Y-87361387D02*
X146286253Y-87361387D01*
X152736253Y-86661387D02*
X153066253Y-86421387D01*
X153066252Y-86901387D01*
X152736253Y-86661387D01*
G36*
X153066252Y-86901387D02*
G01*
X152736253Y-86661387D01*
X153066253Y-86421387D01*
X153066252Y-86901387D01*
G37*
D16*
%TO.C,G\u002A\u002A\u002A*%
G36*
X148329729Y-96273632D02*
G01*
X148329729Y-96308724D01*
X148293635Y-96309726D01*
X148257541Y-96310727D01*
X148258542Y-96274633D01*
X148259543Y-96238539D01*
X148294636Y-96238539D01*
X148329729Y-96238539D01*
X148329729Y-96273632D01*
G37*
G36*
X148330680Y-95758648D02*
G01*
X148329729Y-95827956D01*
X148293759Y-95828956D01*
X148257789Y-95829956D01*
X148257789Y-95759648D01*
X148257789Y-95689340D01*
X148294710Y-95689340D01*
X148331632Y-95689340D01*
X148330680Y-95758648D01*
G37*
G36*
X148535020Y-95689340D02*
G01*
X148535020Y-95759525D01*
X148499927Y-95759525D01*
X148464835Y-95759525D01*
X148464835Y-95689340D01*
X148464835Y-95619155D01*
X148499927Y-95619155D01*
X148535020Y-95619155D01*
X148535020Y-95689340D01*
G37*
G36*
X148671881Y-95552479D02*
G01*
X148671881Y-95622664D01*
X148636789Y-95622664D01*
X148601696Y-95622664D01*
X148601696Y-95552479D01*
X148601696Y-95482294D01*
X148636789Y-95482294D01*
X148671881Y-95482294D01*
X148671881Y-95552479D01*
G37*
G36*
X148192317Y-96118394D02*
G01*
X148193190Y-96133698D01*
X148192787Y-96150054D01*
X148192312Y-96155241D01*
X148190135Y-96173618D01*
X148155532Y-96173618D01*
X148120928Y-96173618D01*
X148120928Y-96136771D01*
X148120928Y-96099923D01*
X148155537Y-96099923D01*
X148190147Y-96099923D01*
X148192317Y-96118394D01*
G37*
G36*
X148192502Y-95919408D02*
G01*
X148193409Y-95933557D01*
X148193354Y-95946764D01*
X148192596Y-95954500D01*
X148190332Y-95966572D01*
X148155630Y-95966572D01*
X148120928Y-95966572D01*
X148120928Y-95931479D01*
X148120928Y-95896386D01*
X148155536Y-95896386D01*
X148190144Y-95896386D01*
X148192502Y-95919408D01*
G37*
G36*
X147505096Y-96883494D02*
G01*
X147506727Y-96901393D01*
X147506996Y-96913467D01*
X147504934Y-96920902D01*
X147499567Y-96924879D01*
X147489923Y-96926582D01*
X147475032Y-96927196D01*
X147469083Y-96927353D01*
X147433113Y-96928353D01*
X147433113Y-96893138D01*
X147433113Y-96857923D01*
X147467907Y-96857923D01*
X147502700Y-96857923D01*
X147505096Y-96883494D01*
G37*
G36*
X147985821Y-96480678D02*
G01*
X147985821Y-96515770D01*
X147951606Y-96516775D01*
X147917391Y-96517779D01*
X147917391Y-96550990D01*
X147917391Y-96584201D01*
X147880417Y-96584201D01*
X147843442Y-96584201D01*
X147844447Y-96549986D01*
X147845451Y-96515770D01*
X147879541Y-96514767D01*
X147913631Y-96513765D01*
X147914633Y-96479675D01*
X147915636Y-96445585D01*
X147950729Y-96445585D01*
X147985821Y-96445585D01*
X147985821Y-96480678D01*
G37*
G36*
X148225761Y-95412864D02*
G01*
X148259543Y-95413864D01*
X148259543Y-95484049D01*
X148259543Y-95554234D01*
X148225612Y-95555235D01*
X148207161Y-95555351D01*
X148194995Y-95554449D01*
X148189434Y-95552553D01*
X148189268Y-95552334D01*
X148188648Y-95547756D01*
X148188348Y-95537313D01*
X148188364Y-95522150D01*
X148188696Y-95503414D01*
X148189340Y-95482251D01*
X148189417Y-95480149D01*
X148191978Y-95411865D01*
X148225761Y-95412864D01*
G37*
G36*
X148467540Y-95484926D02*
G01*
X148468490Y-95555989D01*
X148433324Y-95555989D01*
X148398159Y-95555989D01*
X148398159Y-95589326D01*
X148398159Y-95622664D01*
X148363066Y-95622664D01*
X148327974Y-95622664D01*
X148327974Y-95587572D01*
X148327974Y-95552479D01*
X148361238Y-95552479D01*
X148394501Y-95552479D01*
X148395453Y-95483171D01*
X148396404Y-95413864D01*
X148431497Y-95413864D01*
X148466590Y-95413864D01*
X148467540Y-95484926D01*
G37*
G36*
X148605205Y-95278757D02*
G01*
X148605205Y-95348942D01*
X148570698Y-95348942D01*
X148555775Y-95348718D01*
X148543589Y-95348115D01*
X148535776Y-95347236D01*
X148533850Y-95346603D01*
X148533125Y-95342522D01*
X148532491Y-95332540D01*
X148531986Y-95317777D01*
X148531647Y-95299349D01*
X148531512Y-95278376D01*
X148531511Y-95276418D01*
X148531511Y-95208572D01*
X148568358Y-95208572D01*
X148605205Y-95208572D01*
X148605205Y-95278757D01*
G37*
G36*
X148261298Y-95036369D02*
G01*
X148261298Y-95071457D01*
X148227083Y-95072461D01*
X148192868Y-95073466D01*
X148193969Y-95085748D01*
X148194201Y-95096064D01*
X148193645Y-95109806D01*
X148192812Y-95119963D01*
X148190554Y-95141896D01*
X148155741Y-95141896D01*
X148120928Y-95141896D01*
X148120928Y-95106804D01*
X148120928Y-95071711D01*
X148154139Y-95071711D01*
X148187349Y-95071711D01*
X148188354Y-95037496D01*
X148189358Y-95003281D01*
X148225328Y-95002281D01*
X148261298Y-95001280D01*
X148261298Y-95036369D01*
G37*
G36*
X147366438Y-96756154D02*
G01*
X147366438Y-96791247D01*
X147331345Y-96791247D01*
X147296252Y-96791247D01*
X147296252Y-96826339D01*
X147296252Y-96861432D01*
X147263499Y-96861432D01*
X147248972Y-96861196D01*
X147237208Y-96860563D01*
X147229893Y-96859646D01*
X147228407Y-96859093D01*
X147227410Y-96854789D01*
X147226625Y-96845104D01*
X147226155Y-96831674D01*
X147226067Y-96822245D01*
X147226067Y-96787738D01*
X147261160Y-96787738D01*
X147296252Y-96787738D01*
X147296252Y-96754400D01*
X147296252Y-96721062D01*
X147331345Y-96721062D01*
X147366438Y-96721062D01*
X147366438Y-96756154D01*
G37*
G36*
X148088467Y-96237407D02*
G01*
X148122682Y-96238539D01*
X148122682Y-96273632D01*
X148122682Y-96308724D01*
X148088467Y-96309729D01*
X148054252Y-96310733D01*
X148054252Y-96345698D01*
X148054252Y-96380664D01*
X148019159Y-96380664D01*
X147984067Y-96380664D01*
X147984067Y-96343817D01*
X147984067Y-96306969D01*
X148017405Y-96306969D01*
X148050743Y-96306969D01*
X148051343Y-96281527D01*
X148051744Y-96268223D01*
X148052230Y-96257292D01*
X148052701Y-96250991D01*
X148052724Y-96250821D01*
X148053701Y-96242856D01*
X148053879Y-96240916D01*
X148055683Y-96238730D01*
X148061358Y-96237486D01*
X148071943Y-96237081D01*
X148088467Y-96237407D01*
G37*
G36*
X148192893Y-95223486D02*
G01*
X148193983Y-95236097D01*
X148194221Y-95251015D01*
X148193985Y-95257702D01*
X148192868Y-95277003D01*
X148158652Y-95278007D01*
X148124437Y-95279011D01*
X148124437Y-95313977D01*
X148124437Y-95348942D01*
X148089754Y-95348942D01*
X148073871Y-95348850D01*
X148063637Y-95348379D01*
X148057684Y-95347234D01*
X148054645Y-95345122D01*
X148053149Y-95341749D01*
X148052954Y-95341047D01*
X148051047Y-95326918D01*
X148051289Y-95308141D01*
X148052974Y-95291529D01*
X148055206Y-95275248D01*
X148088067Y-95275248D01*
X148120928Y-95275248D01*
X148120928Y-95241910D01*
X148120928Y-95208572D01*
X148155805Y-95208572D01*
X148190683Y-95208572D01*
X148192893Y-95223486D01*
G37*
G36*
X148398159Y-95208572D02*
G01*
X148398159Y-95278757D01*
X148367453Y-95279173D01*
X148353354Y-95279315D01*
X148342007Y-95279339D01*
X148335185Y-95279245D01*
X148334115Y-95279173D01*
X148333012Y-95282252D01*
X148332136Y-95290886D01*
X148331599Y-95303614D01*
X148331483Y-95313850D01*
X148331483Y-95348942D01*
X148294513Y-95348942D01*
X148257543Y-95348942D01*
X148258543Y-95312973D01*
X148259543Y-95277003D01*
X148291487Y-95276000D01*
X148323431Y-95274998D01*
X148325703Y-95243001D01*
X148326739Y-95224375D01*
X148327527Y-95202541D01*
X148327941Y-95181309D01*
X148327974Y-95174695D01*
X148327974Y-95138387D01*
X148363066Y-95138387D01*
X148398159Y-95138387D01*
X148398159Y-95208572D01*
G37*
G36*
X148468344Y-95896386D02*
G01*
X148468344Y-95966572D01*
X148433252Y-95966572D01*
X148398159Y-95966572D01*
X148398159Y-96035002D01*
X148398159Y-96103433D01*
X148363274Y-96103433D01*
X148348389Y-96103184D01*
X148336354Y-96102516D01*
X148328745Y-96101541D01*
X148326920Y-96100801D01*
X148326460Y-96096507D01*
X148326173Y-96086379D01*
X148326055Y-96071597D01*
X148326100Y-96053342D01*
X148326306Y-96032795D01*
X148326667Y-96011139D01*
X148327178Y-95989553D01*
X148327361Y-95983241D01*
X148327974Y-95963062D01*
X148361312Y-95963062D01*
X148394650Y-95963062D01*
X148394650Y-95894632D01*
X148394650Y-95826201D01*
X148431497Y-95826201D01*
X148468344Y-95826201D01*
X148468344Y-95896386D01*
G37*
G36*
X147916636Y-96274509D02*
G01*
X147917636Y-96310479D01*
X147882421Y-96310479D01*
X147847206Y-96310479D01*
X147847206Y-96345571D01*
X147847206Y-96380664D01*
X147813868Y-96380664D01*
X147780530Y-96380664D01*
X147780530Y-96414002D01*
X147780530Y-96447340D01*
X147745437Y-96447340D01*
X147710345Y-96447340D01*
X147710345Y-96482432D01*
X147710345Y-96517525D01*
X147677007Y-96517525D01*
X147643669Y-96517525D01*
X147643669Y-96551311D01*
X147643669Y-96585098D01*
X147657667Y-96582859D01*
X147669572Y-96581982D01*
X147684003Y-96582280D01*
X147691005Y-96582894D01*
X147710345Y-96585167D01*
X147710345Y-96619776D01*
X147710345Y-96654386D01*
X147675252Y-96654386D01*
X147640160Y-96654386D01*
X147640160Y-96619293D01*
X147640160Y-96584201D01*
X147606822Y-96584201D01*
X147573484Y-96584201D01*
X147573484Y-96619293D01*
X147573484Y-96654386D01*
X147540146Y-96654386D01*
X147506808Y-96654386D01*
X147506808Y-96687724D01*
X147506808Y-96721062D01*
X147540146Y-96721062D01*
X147573484Y-96721062D01*
X147573484Y-96756154D01*
X147573484Y-96791247D01*
X147538391Y-96791247D01*
X147503299Y-96791247D01*
X147503299Y-96761418D01*
X147503374Y-96747525D01*
X147503574Y-96736398D01*
X147503861Y-96729843D01*
X147503977Y-96728958D01*
X147501376Y-96726199D01*
X147492598Y-96723945D01*
X147478478Y-96722333D01*
X147459848Y-96721500D01*
X147458556Y-96721477D01*
X147433113Y-96721062D01*
X147433113Y-96685969D01*
X147433113Y-96650877D01*
X147467329Y-96650861D01*
X147501544Y-96650846D01*
X147502736Y-96618401D01*
X147503387Y-96604098D01*
X147504141Y-96592710D01*
X147504879Y-96585867D01*
X147505215Y-96584646D01*
X147509056Y-96583882D01*
X147518263Y-96582935D01*
X147531189Y-96581960D01*
X147538238Y-96581528D01*
X147569974Y-96579718D01*
X147569974Y-96546867D01*
X147569974Y-96514016D01*
X147604940Y-96514016D01*
X147639905Y-96514016D01*
X147640910Y-96479800D01*
X147641914Y-96445585D01*
X147674375Y-96444576D01*
X147706835Y-96443567D01*
X147706835Y-96410361D01*
X147706835Y-96377155D01*
X147741928Y-96377155D01*
X147777021Y-96377155D01*
X147777021Y-96342062D01*
X147777021Y-96306969D01*
X147810231Y-96306969D01*
X147843442Y-96306969D01*
X147844447Y-96273300D01*
X147845451Y-96239630D01*
X147880544Y-96239084D01*
X147915636Y-96238539D01*
X147916636Y-96274509D01*
G37*
G36*
X148468344Y-94003011D02*
G01*
X148468344Y-94036217D01*
X148500805Y-94037226D01*
X148533265Y-94038235D01*
X148534273Y-94070620D01*
X148535281Y-94103006D01*
X148602704Y-94103958D01*
X148670126Y-94104911D01*
X148671078Y-94174093D01*
X148672029Y-94243274D01*
X148706170Y-94244278D01*
X148740312Y-94245281D01*
X148741316Y-94279496D01*
X148742320Y-94313712D01*
X148775531Y-94313712D01*
X148808742Y-94313712D01*
X148809158Y-94379510D01*
X148809267Y-94400350D01*
X148809322Y-94418755D01*
X148809322Y-94433583D01*
X148809268Y-94443690D01*
X148809159Y-94447933D01*
X148809158Y-94447941D01*
X148812236Y-94449045D01*
X148820869Y-94449921D01*
X148833594Y-94450458D01*
X148843794Y-94450573D01*
X148878846Y-94450573D01*
X148879764Y-94588311D01*
X148880682Y-94726049D01*
X148914897Y-94727054D01*
X148949112Y-94728058D01*
X148949112Y-94882211D01*
X148949112Y-95036364D01*
X148983328Y-95037369D01*
X149017543Y-95038373D01*
X149018467Y-95156680D01*
X149019391Y-95274986D01*
X149051805Y-95275994D01*
X149084219Y-95277003D01*
X149085223Y-95311218D01*
X149086228Y-95345433D01*
X149119438Y-95345433D01*
X149152649Y-95345433D01*
X149152649Y-95519141D01*
X149152649Y-95692850D01*
X149119311Y-95692850D01*
X149085973Y-95692850D01*
X149085973Y-95761280D01*
X149085973Y-95829711D01*
X149052635Y-95829711D01*
X149019297Y-95829711D01*
X149019297Y-95863049D01*
X149019297Y-95896386D01*
X148984279Y-95896386D01*
X148949261Y-95896386D01*
X148948309Y-95965694D01*
X148947358Y-96035002D01*
X148913142Y-96036006D01*
X148878927Y-96037011D01*
X148878927Y-96070095D01*
X148878927Y-96103178D01*
X148844712Y-96104183D01*
X148827190Y-96105029D01*
X148816067Y-96106402D01*
X148810735Y-96108396D01*
X148810058Y-96109574D01*
X148809808Y-96114931D01*
X148809524Y-96125364D01*
X148809257Y-96138930D01*
X148809181Y-96143789D01*
X148808742Y-96173618D01*
X148775531Y-96173618D01*
X148742320Y-96173618D01*
X148741316Y-96207833D01*
X148740312Y-96242048D01*
X148672758Y-96243001D01*
X148605205Y-96243954D01*
X148605205Y-96277217D01*
X148605205Y-96310479D01*
X148570113Y-96310479D01*
X148535020Y-96310479D01*
X148535020Y-96345571D01*
X148535020Y-96380664D01*
X148501682Y-96380664D01*
X148468344Y-96380664D01*
X148468344Y-96414002D01*
X148468344Y-96447340D01*
X148400041Y-96447340D01*
X148331737Y-96447340D01*
X148330733Y-96481555D01*
X148329729Y-96515770D01*
X148295513Y-96516775D01*
X148261298Y-96517779D01*
X148261298Y-96550990D01*
X148261298Y-96584201D01*
X148227960Y-96584201D01*
X148212151Y-96584174D01*
X148202087Y-96584834D01*
X148196507Y-96587289D01*
X148194152Y-96592646D01*
X148193761Y-96602014D01*
X148194032Y-96614029D01*
X148193861Y-96627094D01*
X148193043Y-96639290D01*
X148192578Y-96642981D01*
X148190795Y-96654386D01*
X148157692Y-96654386D01*
X148124589Y-96654386D01*
X148123635Y-96721939D01*
X148122682Y-96789492D01*
X148088467Y-96790497D01*
X148054252Y-96791501D01*
X148054252Y-96861726D01*
X148054252Y-96931952D01*
X148020815Y-96930907D01*
X147987378Y-96929863D01*
X147986600Y-97031631D01*
X147985821Y-97133399D01*
X147951606Y-97134404D01*
X147917391Y-97135408D01*
X147917391Y-97168619D01*
X147917648Y-97182856D01*
X147918339Y-97193948D01*
X147919344Y-97200395D01*
X147920023Y-97201414D01*
X147924486Y-97201274D01*
X147934250Y-97201246D01*
X147947601Y-97201330D01*
X147955115Y-97201414D01*
X147987576Y-97201830D01*
X147987576Y-97236923D01*
X147987576Y-97272015D01*
X148020838Y-97272015D01*
X148054100Y-97272015D01*
X148055053Y-97339568D01*
X148056007Y-97407121D01*
X148090222Y-97408126D01*
X148124437Y-97409130D01*
X148124437Y-97442341D01*
X148124437Y-97475552D01*
X148226205Y-97475552D01*
X148327974Y-97475552D01*
X148327974Y-97442214D01*
X148327974Y-97408876D01*
X148398159Y-97408876D01*
X148468344Y-97408876D01*
X148468344Y-97442214D01*
X148468344Y-97475552D01*
X148524492Y-97475552D01*
X148580640Y-97475552D01*
X148580640Y-97512399D01*
X148580640Y-97549246D01*
X148617488Y-97549246D01*
X148654335Y-97549246D01*
X148654335Y-97635223D01*
X148654335Y-97721200D01*
X148619242Y-97721200D01*
X148584150Y-97721200D01*
X148584102Y-97676457D01*
X148584056Y-97654546D01*
X148583667Y-97638679D01*
X148582478Y-97627882D01*
X148580030Y-97621180D01*
X148575868Y-97617601D01*
X148569533Y-97616170D01*
X148560568Y-97615914D01*
X148555666Y-97615922D01*
X148531511Y-97615922D01*
X148531511Y-97582584D01*
X148531511Y-97549246D01*
X148464888Y-97549246D01*
X148398265Y-97549246D01*
X148397335Y-97651892D01*
X148396404Y-97754538D01*
X148361357Y-97754538D01*
X148326310Y-97754538D01*
X148326264Y-97686107D01*
X148326219Y-97617677D01*
X148258666Y-97616724D01*
X148191113Y-97615771D01*
X148190404Y-97592159D01*
X148190013Y-97578376D01*
X148189705Y-97566095D01*
X148189561Y-97558897D01*
X148189426Y-97549246D01*
X148086746Y-97549246D01*
X147984067Y-97549246D01*
X147984067Y-97545737D01*
X148331483Y-97545737D01*
X148363066Y-97545737D01*
X148394650Y-97545737D01*
X148394650Y-97512399D01*
X148394650Y-97479061D01*
X148363066Y-97479061D01*
X148331483Y-97479061D01*
X148331483Y-97512399D01*
X148331483Y-97545737D01*
X147984067Y-97545737D01*
X147984067Y-97514154D01*
X147984067Y-97512399D01*
X147984067Y-97479061D01*
X147917391Y-97479061D01*
X147892926Y-97479172D01*
X147874767Y-97479535D01*
X147862204Y-97480198D01*
X147854530Y-97481207D01*
X147851033Y-97482608D01*
X147850630Y-97483448D01*
X147850169Y-97495435D01*
X147849296Y-97509346D01*
X147848175Y-97523280D01*
X147846972Y-97535336D01*
X147845850Y-97543613D01*
X147845202Y-97546140D01*
X147841059Y-97547520D01*
X147831601Y-97548586D01*
X147818529Y-97549177D01*
X147811906Y-97549246D01*
X147780530Y-97549246D01*
X147780530Y-97580830D01*
X147780530Y-97612413D01*
X147848960Y-97612413D01*
X147917391Y-97612413D01*
X147917391Y-97631714D01*
X147917391Y-97651015D01*
X147952483Y-97651015D01*
X147987576Y-97651015D01*
X147987576Y-97680843D01*
X147987576Y-97710672D01*
X148020914Y-97710672D01*
X148054252Y-97710672D01*
X148054252Y-97801913D01*
X148054252Y-97893154D01*
X148019159Y-97893154D01*
X147984067Y-97893154D01*
X147984067Y-97851042D01*
X147984067Y-97808931D01*
X147962134Y-97808893D01*
X147947845Y-97808508D01*
X147934222Y-97807559D01*
X147927041Y-97806679D01*
X147913882Y-97804504D01*
X147913882Y-97780398D01*
X147913882Y-97756293D01*
X147880611Y-97756293D01*
X147864724Y-97756172D01*
X147854037Y-97755044D01*
X147847588Y-97751759D01*
X147844418Y-97745168D01*
X147843568Y-97734122D01*
X147844078Y-97717470D01*
X147844284Y-97712779D01*
X147845451Y-97686091D01*
X147777390Y-97686099D01*
X147709330Y-97686107D01*
X147711567Y-97709795D01*
X147712727Y-97723187D01*
X147713545Y-97734732D01*
X147713829Y-97741378D01*
X147714383Y-97745664D01*
X147717072Y-97748034D01*
X147723488Y-97749050D01*
X147735222Y-97749274D01*
X147736226Y-97749274D01*
X147750059Y-97749624D01*
X147762707Y-97750529D01*
X147769563Y-97751467D01*
X147780530Y-97753661D01*
X147780530Y-97842708D01*
X147780530Y-97931755D01*
X147743683Y-97931755D01*
X147706835Y-97931755D01*
X147706835Y-97877362D01*
X147706835Y-97822968D01*
X147673498Y-97822968D01*
X147640160Y-97822968D01*
X147640160Y-97789758D01*
X147640160Y-97756547D01*
X147605944Y-97755542D01*
X147571729Y-97754538D01*
X147570730Y-97718694D01*
X147569732Y-97682849D01*
X147535934Y-97681846D01*
X147502136Y-97680843D01*
X147501714Y-97665052D01*
X147501265Y-97650969D01*
X147500683Y-97635850D01*
X147500540Y-97632591D01*
X147499789Y-97615922D01*
X147398021Y-97615922D01*
X147296252Y-97615922D01*
X147296252Y-97647506D01*
X147296252Y-97679089D01*
X147263037Y-97679089D01*
X147229822Y-97679089D01*
X147228822Y-97715059D01*
X147227822Y-97751029D01*
X147193607Y-97752033D01*
X147159391Y-97753037D01*
X147159391Y-97807304D01*
X147159391Y-97861570D01*
X147124299Y-97861570D01*
X147089206Y-97861570D01*
X147089206Y-97784367D01*
X147089206Y-97707163D01*
X147120790Y-97707163D01*
X147134637Y-97706893D01*
X147145299Y-97706170D01*
X147151238Y-97705124D01*
X147151957Y-97704531D01*
X147151807Y-97699950D01*
X147151801Y-97690346D01*
X147151937Y-97677711D01*
X147151957Y-97676457D01*
X147152373Y-97651015D01*
X147187465Y-97651015D01*
X147222558Y-97651015D01*
X147222558Y-97622941D01*
X147222558Y-97594867D01*
X147259405Y-97594867D01*
X147296252Y-97594867D01*
X147296252Y-97570302D01*
X147296252Y-97545737D01*
X147364683Y-97545737D01*
X147433113Y-97545737D01*
X147433113Y-97477307D01*
X147433113Y-97408876D01*
X147397503Y-97408876D01*
X147361892Y-97408876D01*
X147364236Y-97375538D01*
X147366579Y-97342200D01*
X147296323Y-97342200D01*
X147226067Y-97342200D01*
X147226067Y-97273897D01*
X147226067Y-97205593D01*
X147217465Y-97205339D01*
X147295989Y-97205339D01*
X147296998Y-97237800D01*
X147298007Y-97270260D01*
X147332222Y-97271265D01*
X147366438Y-97272269D01*
X147366438Y-97305480D01*
X147366438Y-97338691D01*
X147399776Y-97338691D01*
X147433113Y-97338691D01*
X147433113Y-97272015D01*
X147506808Y-97272015D01*
X147506808Y-97338691D01*
X147540146Y-97338691D01*
X147573484Y-97338691D01*
X147573484Y-97442214D01*
X147573484Y-97545737D01*
X147608576Y-97545737D01*
X147643669Y-97545737D01*
X147643669Y-97579075D01*
X147643669Y-97612413D01*
X147675252Y-97612413D01*
X147706835Y-97612413D01*
X147706835Y-97543982D01*
X147706835Y-97475552D01*
X147741928Y-97475552D01*
X147777021Y-97475552D01*
X147777021Y-97442214D01*
X147777021Y-97408876D01*
X147832291Y-97408837D01*
X147852407Y-97408687D01*
X147871051Y-97408297D01*
X147886631Y-97407719D01*
X147897559Y-97407006D01*
X147900722Y-97406624D01*
X147913882Y-97404449D01*
X147913882Y-97373451D01*
X147913882Y-97342454D01*
X147879666Y-97341450D01*
X147845451Y-97340446D01*
X147844498Y-97272892D01*
X147843545Y-97205339D01*
X147810283Y-97205339D01*
X147777021Y-97205339D01*
X147777021Y-97136909D01*
X147777021Y-97068478D01*
X147755088Y-97068440D01*
X147740798Y-97068055D01*
X147727176Y-97067106D01*
X147719995Y-97066226D01*
X147706835Y-97064051D01*
X147706835Y-96998243D01*
X147706894Y-96974381D01*
X147706775Y-96961446D01*
X147780530Y-96961446D01*
X147780530Y-97061460D01*
X147813868Y-97061460D01*
X147847206Y-97061460D01*
X147847782Y-97079883D01*
X147847945Y-97094733D01*
X147847669Y-97110113D01*
X147847459Y-97114976D01*
X147846561Y-97131645D01*
X147880168Y-97131645D01*
X147913776Y-97131645D01*
X147914706Y-97028999D01*
X147915636Y-96926353D01*
X147949852Y-96925349D01*
X147984067Y-96924345D01*
X147984067Y-96856041D01*
X147984067Y-96787738D01*
X148018282Y-96787718D01*
X148052497Y-96787699D01*
X148053773Y-96721043D01*
X148055048Y-96654386D01*
X148021312Y-96654386D01*
X147987576Y-96654386D01*
X147987576Y-96687724D01*
X147987576Y-96721062D01*
X147941078Y-96721087D01*
X147921011Y-96721278D01*
X147900948Y-96721780D01*
X147883245Y-96722516D01*
X147870470Y-96723388D01*
X147846359Y-96725665D01*
X147847376Y-96776880D01*
X147847705Y-96796729D01*
X147847903Y-96815537D01*
X147847957Y-96831478D01*
X147847855Y-96842729D01*
X147847799Y-96844763D01*
X147847206Y-96861432D01*
X147813868Y-96861432D01*
X147780530Y-96861432D01*
X147780530Y-96961446D01*
X147706775Y-96961446D01*
X147706731Y-96956632D01*
X147705841Y-96944097D01*
X147703717Y-96935876D01*
X147699851Y-96931069D01*
X147693737Y-96928777D01*
X147684869Y-96928101D01*
X147672740Y-96928140D01*
X147667356Y-96928156D01*
X147643669Y-96928108D01*
X147643669Y-96963200D01*
X147643669Y-96998293D01*
X147608576Y-96998293D01*
X147573484Y-96998293D01*
X147573484Y-97101816D01*
X147573484Y-97205339D01*
X147540146Y-97205339D01*
X147506808Y-97205339D01*
X147506808Y-97272015D01*
X147433113Y-97272015D01*
X147433113Y-97236923D01*
X147433113Y-97205339D01*
X147433113Y-97135154D01*
X147399776Y-97135154D01*
X147366438Y-97135154D01*
X147366438Y-97170247D01*
X147366438Y-97205339D01*
X147331213Y-97205339D01*
X147295989Y-97205339D01*
X147217465Y-97205339D01*
X147192065Y-97204589D01*
X147158063Y-97203585D01*
X147157469Y-97135154D01*
X147156876Y-97066724D01*
X147132692Y-97066286D01*
X147118787Y-97065996D01*
X147106398Y-97065671D01*
X147098857Y-97065408D01*
X147089206Y-97064969D01*
X147089206Y-96963200D01*
X147089206Y-96861432D01*
X147022530Y-96861432D01*
X146955855Y-96861432D01*
X146955855Y-96894770D01*
X146955855Y-96928108D01*
X146926903Y-96928923D01*
X146910648Y-96929374D01*
X146895291Y-96929782D01*
X146878749Y-96930199D01*
X146858941Y-96930679D01*
X146839303Y-96931145D01*
X146819257Y-96931617D01*
X146818248Y-96964078D01*
X146817239Y-96996538D01*
X146748057Y-96997490D01*
X146678876Y-96998441D01*
X146677872Y-97032582D01*
X146676869Y-97066724D01*
X146589137Y-97067123D01*
X146564255Y-97067253D01*
X146541043Y-97067405D01*
X146520635Y-97067570D01*
X146504168Y-97067737D01*
X146492775Y-97067896D01*
X146488378Y-97068000D01*
X146475350Y-97068478D01*
X146474341Y-97100939D01*
X146473332Y-97133399D01*
X146404024Y-97134351D01*
X146334716Y-97135302D01*
X146334716Y-97170321D01*
X146334716Y-97205339D01*
X146266286Y-97205339D01*
X146197855Y-97205339D01*
X146197855Y-97238677D01*
X146197855Y-97272015D01*
X146129425Y-97272015D01*
X146060994Y-97272015D01*
X146060994Y-97307108D01*
X146060994Y-97342200D01*
X145991686Y-97342192D01*
X145922378Y-97342184D01*
X145923497Y-97375530D01*
X145924615Y-97408876D01*
X145889281Y-97408876D01*
X145853948Y-97408876D01*
X145853948Y-97443969D01*
X145853948Y-97479061D01*
X145818855Y-97479061D01*
X145783763Y-97479061D01*
X145783763Y-97408876D01*
X145783763Y-97338691D01*
X145817101Y-97338691D01*
X145850439Y-97338691D01*
X145850439Y-97270260D01*
X145850439Y-97201830D01*
X145885531Y-97201830D01*
X145920624Y-97201830D01*
X145920624Y-97166737D01*
X145920624Y-97166153D01*
X145920624Y-97135154D01*
X146060994Y-97135154D01*
X146060994Y-97166153D01*
X146061261Y-97180299D01*
X146061973Y-97191680D01*
X146063001Y-97198540D01*
X146063497Y-97199654D01*
X146067946Y-97200736D01*
X146077585Y-97201415D01*
X146090592Y-97201585D01*
X146095081Y-97201517D01*
X146124161Y-97200876D01*
X146124161Y-97184296D01*
X146124694Y-97169674D01*
X146126015Y-97154426D01*
X146126392Y-97151436D01*
X146128624Y-97135154D01*
X146094809Y-97135154D01*
X146060994Y-97135154D01*
X145920624Y-97135154D01*
X145920624Y-97131645D01*
X145955672Y-97131645D01*
X145990719Y-97131645D01*
X145988529Y-97105726D01*
X145988215Y-97100061D01*
X146131179Y-97100061D01*
X146131179Y-97131645D01*
X146162763Y-97131645D01*
X146194346Y-97131645D01*
X146194346Y-97097898D01*
X146194283Y-97082361D01*
X146193893Y-97072619D01*
X146192868Y-97067451D01*
X146190905Y-97065633D01*
X146187698Y-97065942D01*
X146186450Y-97066266D01*
X146178908Y-97067370D01*
X146167053Y-97068153D01*
X146154867Y-97068430D01*
X146131179Y-97068478D01*
X146131179Y-97100061D01*
X145988215Y-97100061D01*
X145987746Y-97091600D01*
X145987769Y-97079098D01*
X145988590Y-97070841D01*
X145988640Y-97070634D01*
X145989310Y-97068478D01*
X145989962Y-97066379D01*
X145992275Y-97063698D01*
X145996988Y-97062226D01*
X146005509Y-97061602D01*
X146019246Y-97061462D01*
X146024214Y-97061460D01*
X146057485Y-97061460D01*
X146197855Y-97061460D01*
X146264531Y-97061460D01*
X146331207Y-97061460D01*
X146331207Y-97029876D01*
X146331207Y-96998293D01*
X146264531Y-96998293D01*
X146197855Y-96998293D01*
X146197855Y-97029876D01*
X146197855Y-97061460D01*
X146057485Y-97061460D01*
X146057485Y-97029876D01*
X146057485Y-97028122D01*
X146057485Y-96994784D01*
X146092731Y-96994784D01*
X146334453Y-96994784D01*
X146367922Y-96994784D01*
X146401392Y-96994784D01*
X146401392Y-96961166D01*
X146401392Y-96927549D01*
X146368931Y-96929262D01*
X146336471Y-96930976D01*
X146335462Y-96962880D01*
X146334453Y-96994784D01*
X146092731Y-96994784D01*
X146109800Y-96994536D01*
X146120698Y-96993724D01*
X146126256Y-96992241D01*
X146127408Y-96990397D01*
X146127196Y-96985066D01*
X146127119Y-96974622D01*
X146127188Y-96960970D01*
X146127254Y-96955305D01*
X146127670Y-96924599D01*
X146161008Y-96924599D01*
X146194346Y-96924599D01*
X146404901Y-96924599D01*
X146471577Y-96924599D01*
X146538253Y-96924599D01*
X146538253Y-96893015D01*
X146538253Y-96861432D01*
X146678268Y-96861432D01*
X146678907Y-96893015D01*
X146679546Y-96924599D01*
X146712422Y-96924599D01*
X146745299Y-96924599D01*
X146745299Y-96893015D01*
X146745299Y-96861432D01*
X146711783Y-96861432D01*
X146678268Y-96861432D01*
X146538253Y-96861432D01*
X146471577Y-96861432D01*
X146404901Y-96861432D01*
X146404901Y-96893015D01*
X146404901Y-96924599D01*
X146194346Y-96924599D01*
X146194346Y-96893015D01*
X146194346Y-96891261D01*
X146194346Y-96857923D01*
X146229311Y-96857923D01*
X146264277Y-96857923D01*
X146334716Y-96857923D01*
X146368186Y-96857923D01*
X146401655Y-96857923D01*
X146541762Y-96857923D01*
X146608438Y-96857923D01*
X146675114Y-96857923D01*
X146675114Y-96825046D01*
X146818994Y-96825046D01*
X146818994Y-96857923D01*
X146850577Y-96857923D01*
X146882160Y-96857923D01*
X146882160Y-96824585D01*
X147092716Y-96824585D01*
X147092716Y-96857923D01*
X147126054Y-96857923D01*
X147159391Y-96857923D01*
X147159391Y-96959691D01*
X147159391Y-97061460D01*
X147192729Y-97061460D01*
X147226067Y-97061460D01*
X147226067Y-97028122D01*
X147226067Y-96994784D01*
X147261160Y-96994784D01*
X147296252Y-96994784D01*
X147296252Y-96959691D01*
X147296252Y-96924599D01*
X147331345Y-96924599D01*
X147366438Y-96924599D01*
X147366438Y-96961446D01*
X147366438Y-96998293D01*
X147331472Y-96998293D01*
X147296507Y-96998293D01*
X147295502Y-97032508D01*
X147294498Y-97066724D01*
X147262037Y-97065548D01*
X147229577Y-97064373D01*
X147229577Y-97131103D01*
X147229500Y-97155035D01*
X147229613Y-97172843D01*
X147230431Y-97185412D01*
X147232469Y-97193631D01*
X147236242Y-97198384D01*
X147242266Y-97200559D01*
X147251056Y-97201041D01*
X147263126Y-97200718D01*
X147269933Y-97200543D01*
X147294498Y-97200075D01*
X147295502Y-97165860D01*
X147296507Y-97131645D01*
X147329590Y-97131645D01*
X147362674Y-97131645D01*
X147363679Y-97097430D01*
X147364683Y-97063214D01*
X147397728Y-97062198D01*
X147414966Y-97061992D01*
X147426157Y-97062701D01*
X147432224Y-97064415D01*
X147433644Y-97065707D01*
X147434950Y-97071105D01*
X147435959Y-97081606D01*
X147436512Y-97095293D01*
X147436569Y-97100939D01*
X147436623Y-97131645D01*
X147470409Y-97131645D01*
X147504196Y-97131645D01*
X147502870Y-97064092D01*
X147501544Y-96996538D01*
X147535634Y-96995536D01*
X147569723Y-96994533D01*
X147570726Y-96960443D01*
X147571729Y-96926353D01*
X147605944Y-96925349D01*
X147640160Y-96924345D01*
X147640160Y-96861432D01*
X147640160Y-96856041D01*
X147640160Y-96787738D01*
X147673498Y-96787738D01*
X147706835Y-96787738D01*
X147706835Y-96754400D01*
X147706835Y-96721062D01*
X147736377Y-96721062D01*
X147750680Y-96720818D01*
X147762680Y-96720172D01*
X147770329Y-96719246D01*
X147771470Y-96718932D01*
X147774154Y-96716639D01*
X147775837Y-96711402D01*
X147776724Y-96701937D01*
X147777016Y-96686960D01*
X147777021Y-96683839D01*
X147777021Y-96650877D01*
X147880544Y-96650877D01*
X147906662Y-96650791D01*
X147930334Y-96650549D01*
X147950698Y-96650173D01*
X147966895Y-96649685D01*
X147978064Y-96649106D01*
X147983345Y-96648458D01*
X147983651Y-96648245D01*
X147983509Y-96643756D01*
X147983485Y-96634024D01*
X147983579Y-96620824D01*
X147983651Y-96614907D01*
X147984067Y-96584201D01*
X148004567Y-96584201D01*
X148015996Y-96584027D01*
X148032330Y-96583552D01*
X148051464Y-96582847D01*
X148071295Y-96581983D01*
X148072998Y-96581902D01*
X148120928Y-96579603D01*
X148120928Y-96546810D01*
X148120928Y-96514016D01*
X148189358Y-96514016D01*
X148257789Y-96514016D01*
X148257789Y-96480805D01*
X148257789Y-96447594D01*
X148223574Y-96446590D01*
X148189358Y-96445585D01*
X148188180Y-96433303D01*
X148187918Y-96422991D01*
X148188477Y-96409254D01*
X148189336Y-96399087D01*
X148191672Y-96377155D01*
X148226485Y-96377155D01*
X148261298Y-96377155D01*
X148261298Y-96410493D01*
X148261298Y-96443830D01*
X148294943Y-96443830D01*
X148328588Y-96443830D01*
X148327404Y-96411413D01*
X148326219Y-96378996D01*
X148336747Y-96376736D01*
X148345809Y-96375489D01*
X148358836Y-96374509D01*
X148370962Y-96374061D01*
X148394650Y-96373645D01*
X148394650Y-96340307D01*
X148394650Y-96306969D01*
X148428865Y-96306976D01*
X148463080Y-96306982D01*
X148463153Y-96286798D01*
X148463241Y-96275520D01*
X148463429Y-96259304D01*
X148463690Y-96240231D01*
X148463997Y-96220379D01*
X148464030Y-96218361D01*
X148464835Y-96170108D01*
X148498046Y-96170108D01*
X148531257Y-96170108D01*
X148605205Y-96170108D01*
X148638097Y-96170108D01*
X148670988Y-96170108D01*
X148671610Y-96136771D01*
X148672231Y-96103433D01*
X148638718Y-96103433D01*
X148605205Y-96103433D01*
X148605205Y-96136771D01*
X148605205Y-96170108D01*
X148531257Y-96170108D01*
X148532235Y-96136771D01*
X148532261Y-96135893D01*
X148533265Y-96101678D01*
X148567481Y-96100674D01*
X148601696Y-96099669D01*
X148601696Y-96068340D01*
X148671881Y-96068340D01*
X148671881Y-96099923D01*
X148705219Y-96099923D01*
X148738557Y-96099923D01*
X148738557Y-96066210D01*
X148738422Y-96050579D01*
X148737882Y-96040810D01*
X148736734Y-96035752D01*
X148734776Y-96034252D01*
X148733006Y-96034627D01*
X148726989Y-96035641D01*
X148716099Y-96036393D01*
X148702479Y-96036746D01*
X148699668Y-96036757D01*
X148671881Y-96036757D01*
X148671881Y-96068340D01*
X148601696Y-96068340D01*
X148601696Y-96036757D01*
X148601696Y-96031366D01*
X148601696Y-95964817D01*
X148742066Y-95964817D01*
X148742066Y-96033247D01*
X148775404Y-96033247D01*
X148808742Y-96033247D01*
X148808742Y-95964817D01*
X148808742Y-95896386D01*
X148842080Y-95896386D01*
X148875418Y-95896386D01*
X148875418Y-95863049D01*
X148875418Y-95829711D01*
X148844273Y-95829711D01*
X148813129Y-95829711D01*
X148810935Y-95840677D01*
X148809751Y-95850169D01*
X148808954Y-95863383D01*
X148808742Y-95874015D01*
X148808742Y-95896386D01*
X148775404Y-95896386D01*
X148742066Y-95896386D01*
X148742066Y-95964817D01*
X148601696Y-95964817D01*
X148601696Y-95963062D01*
X148635034Y-95963062D01*
X148668372Y-95963062D01*
X148668402Y-95948148D01*
X148668875Y-95935342D01*
X148670031Y-95920508D01*
X148670646Y-95914810D01*
X148672859Y-95896386D01*
X148705634Y-95896386D01*
X148738409Y-95896386D01*
X148739360Y-95827079D01*
X148739372Y-95826201D01*
X148878927Y-95826201D01*
X148912265Y-95826201D01*
X148945603Y-95826201D01*
X148945603Y-95759525D01*
X148945603Y-95692850D01*
X148912265Y-95692850D01*
X148878927Y-95692850D01*
X148878927Y-95759525D01*
X148878927Y-95826201D01*
X148739372Y-95826201D01*
X148740288Y-95759525D01*
X148740312Y-95757771D01*
X148774527Y-95756766D01*
X148808742Y-95755762D01*
X148808742Y-95722551D01*
X148808742Y-95689340D01*
X148842080Y-95689340D01*
X148875418Y-95689340D01*
X148875418Y-95622664D01*
X148949112Y-95622664D01*
X148949112Y-95689340D01*
X148967536Y-95689302D01*
X148981231Y-95688844D01*
X148994438Y-95687733D01*
X148998973Y-95687112D01*
X149011986Y-95684960D01*
X149013010Y-95620470D01*
X149014034Y-95555980D01*
X148981573Y-95555985D01*
X148949112Y-95555989D01*
X148949112Y-95622664D01*
X148875418Y-95622664D01*
X148875418Y-95555989D01*
X148875418Y-95552479D01*
X149019297Y-95552479D01*
X149050881Y-95552479D01*
X149082464Y-95552479D01*
X149082464Y-95450711D01*
X149082464Y-95348942D01*
X149050881Y-95348942D01*
X149019297Y-95348942D01*
X149019297Y-95450711D01*
X149019297Y-95552479D01*
X148875418Y-95552479D01*
X148875418Y-95517387D01*
X148875418Y-95450711D01*
X148875418Y-95345433D01*
X148910511Y-95345433D01*
X148945603Y-95345433D01*
X148945603Y-95243665D01*
X148945603Y-95141896D01*
X148910511Y-95141896D01*
X148875418Y-95141896D01*
X148875418Y-95038373D01*
X148875418Y-94934850D01*
X148842080Y-94934850D01*
X148808742Y-94934850D01*
X148808327Y-94904144D01*
X148808184Y-94890045D01*
X148808160Y-94878698D01*
X148808255Y-94871876D01*
X148808327Y-94870806D01*
X148805248Y-94869703D01*
X148796614Y-94868827D01*
X148783886Y-94868290D01*
X148773650Y-94868174D01*
X148738557Y-94868174D01*
X148738557Y-94833082D01*
X148738557Y-94797989D01*
X148705534Y-94797989D01*
X148672511Y-94797989D01*
X148670209Y-94769038D01*
X148669335Y-94752830D01*
X148668848Y-94732694D01*
X148668803Y-94711712D01*
X148669017Y-94699730D01*
X148670126Y-94659373D01*
X148704342Y-94658369D01*
X148738557Y-94657365D01*
X148738557Y-94626067D01*
X148738557Y-94594770D01*
X148727152Y-94592842D01*
X148717380Y-94591658D01*
X148703968Y-94590599D01*
X148693463Y-94590051D01*
X148671179Y-94589188D01*
X148671256Y-94556978D01*
X148671334Y-94524767D01*
X148649675Y-94523003D01*
X148635687Y-94522136D01*
X148622544Y-94521769D01*
X148615733Y-94521875D01*
X148603451Y-94522512D01*
X148602446Y-94488297D01*
X148601442Y-94454082D01*
X148566476Y-94454082D01*
X148531511Y-94454082D01*
X148531511Y-94418989D01*
X148531511Y-94383897D01*
X148464835Y-94383897D01*
X148398159Y-94383897D01*
X148398159Y-94417235D01*
X148398159Y-94450573D01*
X148433252Y-94450573D01*
X148468344Y-94450573D01*
X148468344Y-94485665D01*
X148468344Y-94520758D01*
X148501805Y-94520758D01*
X148535266Y-94520758D01*
X148534266Y-94556728D01*
X148533265Y-94592698D01*
X148500800Y-94592698D01*
X148468334Y-94592698D01*
X148468339Y-94626913D01*
X148468344Y-94661128D01*
X148435006Y-94661128D01*
X148401668Y-94661128D01*
X148401668Y-94692711D01*
X148401668Y-94724295D01*
X148421847Y-94724333D01*
X148435849Y-94724753D01*
X148449288Y-94725783D01*
X148455184Y-94726547D01*
X148468344Y-94728722D01*
X148468344Y-94763356D01*
X148468344Y-94797989D01*
X148398159Y-94797989D01*
X148327974Y-94797989D01*
X148327974Y-94764651D01*
X148327974Y-94731313D01*
X148292881Y-94731313D01*
X148257789Y-94731313D01*
X148257789Y-94696348D01*
X148257789Y-94661382D01*
X148223693Y-94660378D01*
X148208037Y-94659849D01*
X148198084Y-94659130D01*
X148192522Y-94657849D01*
X148190039Y-94655633D01*
X148189321Y-94652109D01*
X148189249Y-94650600D01*
X148188982Y-94642686D01*
X148188621Y-94630433D01*
X148188251Y-94616750D01*
X148187604Y-94591672D01*
X148169180Y-94591990D01*
X148154894Y-94592041D01*
X148140577Y-94591798D01*
X148135842Y-94591625D01*
X148120928Y-94590943D01*
X148120928Y-94555850D01*
X148120684Y-94541176D01*
X148120026Y-94529602D01*
X148119065Y-94522590D01*
X148118296Y-94521173D01*
X148111291Y-94521632D01*
X148100396Y-94521655D01*
X148087429Y-94521326D01*
X148074205Y-94520726D01*
X148062541Y-94519939D01*
X148054253Y-94519046D01*
X148051158Y-94518130D01*
X148051158Y-94518126D01*
X148051300Y-94513637D01*
X148051324Y-94503906D01*
X148051230Y-94490705D01*
X148051158Y-94484788D01*
X148050743Y-94454082D01*
X148017405Y-94454082D01*
X147984067Y-94454082D01*
X147984067Y-94421153D01*
X147983993Y-94405634D01*
X147983001Y-94395175D01*
X147979938Y-94388777D01*
X147973646Y-94385439D01*
X147962973Y-94384164D01*
X147946762Y-94383950D01*
X147941078Y-94383945D01*
X147913882Y-94383897D01*
X147913882Y-94315466D01*
X147913882Y-94313712D01*
X147987576Y-94313712D01*
X148021038Y-94313712D01*
X148054501Y-94313712D01*
X148054099Y-94247036D01*
X148054078Y-94243527D01*
X148124437Y-94243527D01*
X148143738Y-94243527D01*
X148163039Y-94243527D01*
X148163039Y-94225980D01*
X148163039Y-94208434D01*
X148143738Y-94208434D01*
X148124437Y-94208434D01*
X148124437Y-94225980D01*
X148124437Y-94243527D01*
X148054078Y-94243527D01*
X148053972Y-94225980D01*
X148053697Y-94180360D01*
X148020636Y-94180360D01*
X147987576Y-94180360D01*
X147987576Y-94247036D01*
X147987576Y-94313712D01*
X147913882Y-94313712D01*
X147913882Y-94247036D01*
X147880044Y-94247036D01*
X147846206Y-94247036D01*
X147848444Y-94268452D01*
X147849318Y-94282711D01*
X147849172Y-94296483D01*
X147848496Y-94303544D01*
X147846309Y-94317221D01*
X147811665Y-94317221D01*
X147777021Y-94317221D01*
X147777021Y-94282128D01*
X147777021Y-94247036D01*
X147743683Y-94247036D01*
X147710345Y-94247036D01*
X147710345Y-94282128D01*
X147710345Y-94317221D01*
X147677007Y-94317221D01*
X147643669Y-94317221D01*
X147643669Y-94383897D01*
X147643669Y-94450573D01*
X147675252Y-94450573D01*
X147706835Y-94450573D01*
X147706835Y-94417235D01*
X147706835Y-94383897D01*
X147743683Y-94383897D01*
X147780530Y-94383897D01*
X147780530Y-94417235D01*
X147780530Y-94450573D01*
X147848960Y-94450573D01*
X147917391Y-94450573D01*
X147917391Y-94485665D01*
X147917391Y-94520758D01*
X147895458Y-94520796D01*
X147881172Y-94521180D01*
X147867557Y-94522128D01*
X147860380Y-94523008D01*
X147847235Y-94525181D01*
X147849462Y-94555430D01*
X147850560Y-94569166D01*
X147851584Y-94579914D01*
X147852366Y-94586002D01*
X147852575Y-94586760D01*
X147856228Y-94587445D01*
X147865277Y-94588380D01*
X147878111Y-94589410D01*
X147885426Y-94589911D01*
X147917391Y-94591982D01*
X147917391Y-94624673D01*
X147917391Y-94657365D01*
X147951606Y-94658369D01*
X147985821Y-94659373D01*
X147987576Y-94692711D01*
X147989331Y-94726049D01*
X148000736Y-94726448D01*
X148010696Y-94726752D01*
X148024091Y-94727107D01*
X148033196Y-94727325D01*
X148054252Y-94727804D01*
X148054252Y-94829445D01*
X148054252Y-94931087D01*
X148088467Y-94932091D01*
X148122682Y-94933095D01*
X148123682Y-94969065D01*
X148124683Y-95005035D01*
X148089928Y-95005035D01*
X148055174Y-95005035D01*
X148054520Y-95037397D01*
X148054135Y-95051634D01*
X148053649Y-95062903D01*
X148053139Y-95069596D01*
X148052892Y-95070731D01*
X148049201Y-95071390D01*
X148040119Y-95072342D01*
X148027259Y-95073430D01*
X148019873Y-95073979D01*
X147987826Y-95076254D01*
X147986824Y-95108198D01*
X147985821Y-95140142D01*
X147951732Y-95141145D01*
X147917642Y-95142147D01*
X147916639Y-95176237D01*
X147915636Y-95210327D01*
X147881186Y-95211334D01*
X147846736Y-95212341D01*
X147847643Y-95243795D01*
X147848551Y-95275248D01*
X147882971Y-95275248D01*
X147917391Y-95275248D01*
X147917391Y-95310341D01*
X147917391Y-95345433D01*
X147952483Y-95345433D01*
X147987576Y-95345433D01*
X147987576Y-95378639D01*
X147987576Y-95411846D01*
X148020037Y-95412855D01*
X148052497Y-95413864D01*
X148053500Y-95447953D01*
X148054503Y-95482043D01*
X148088593Y-95483046D01*
X148122682Y-95484049D01*
X148122682Y-95656002D01*
X148122682Y-95827956D01*
X148088467Y-95828960D01*
X148054252Y-95829965D01*
X148054252Y-95863176D01*
X148054252Y-95896386D01*
X148020914Y-95896386D01*
X147987576Y-95896386D01*
X147987576Y-95964817D01*
X147987576Y-96033247D01*
X148020914Y-96033247D01*
X148054252Y-96033247D01*
X148054252Y-96068213D01*
X148054252Y-96103178D01*
X148020527Y-96104183D01*
X147986803Y-96105187D01*
X147986312Y-96138525D01*
X147985821Y-96171863D01*
X147950729Y-96171863D01*
X147915636Y-96171863D01*
X147914630Y-96137518D01*
X147913624Y-96103173D01*
X147881402Y-96104180D01*
X147849180Y-96105187D01*
X147850232Y-96122179D01*
X147850360Y-96136848D01*
X147849383Y-96152467D01*
X147848916Y-96156394D01*
X147846547Y-96173618D01*
X147813666Y-96173618D01*
X147780784Y-96173618D01*
X147779780Y-96207833D01*
X147778775Y-96242048D01*
X147746315Y-96243057D01*
X147713854Y-96244066D01*
X147713815Y-96264113D01*
X147713392Y-96278095D01*
X147712357Y-96291521D01*
X147711602Y-96297319D01*
X147709426Y-96310479D01*
X147676675Y-96310479D01*
X147643923Y-96310479D01*
X147642919Y-96344694D01*
X147641914Y-96378909D01*
X147607699Y-96379914D01*
X147573484Y-96380918D01*
X147573484Y-96414129D01*
X147573484Y-96447340D01*
X147539268Y-96447335D01*
X147505053Y-96447330D01*
X147505053Y-96481550D01*
X147505053Y-96515770D01*
X147435745Y-96516722D01*
X147366438Y-96517673D01*
X147366438Y-96550810D01*
X147366438Y-96583947D01*
X147332222Y-96584951D01*
X147298007Y-96585955D01*
X147297054Y-96653509D01*
X147296101Y-96721062D01*
X147261084Y-96721062D01*
X147226067Y-96721062D01*
X147226067Y-96687724D01*
X147226067Y-96654386D01*
X147192729Y-96654386D01*
X147159391Y-96654386D01*
X147159391Y-96722816D01*
X147159391Y-96791247D01*
X147126054Y-96791247D01*
X147092716Y-96791247D01*
X147092716Y-96824585D01*
X146882160Y-96824585D01*
X146882160Y-96824407D01*
X146882160Y-96791247D01*
X146882160Y-96790891D01*
X146850577Y-96791530D01*
X146818994Y-96792169D01*
X146818994Y-96825046D01*
X146675114Y-96825046D01*
X146675114Y-96824585D01*
X146675114Y-96792169D01*
X146675114Y-96791247D01*
X146608438Y-96791247D01*
X146541762Y-96791247D01*
X146541762Y-96824585D01*
X146541762Y-96857923D01*
X146401655Y-96857923D01*
X146400646Y-96825462D01*
X146400619Y-96824585D01*
X146399637Y-96793002D01*
X146367177Y-96791993D01*
X146334716Y-96790984D01*
X146334716Y-96824453D01*
X146334716Y-96857923D01*
X146264277Y-96857923D01*
X146265259Y-96824453D01*
X146265281Y-96823708D01*
X146266286Y-96789492D01*
X146298746Y-96788483D01*
X146322714Y-96787738D01*
X146404901Y-96787738D01*
X146438239Y-96787738D01*
X146471577Y-96787738D01*
X146678360Y-96787738D01*
X146711830Y-96787738D01*
X146745299Y-96787738D01*
X146885669Y-96787738D01*
X146917004Y-96787738D01*
X146948338Y-96787738D01*
X146949464Y-96755846D01*
X146949810Y-96741656D01*
X146949792Y-96730371D01*
X146949427Y-96723640D01*
X146949128Y-96722508D01*
X146945197Y-96721863D01*
X146935930Y-96721366D01*
X146923007Y-96721092D01*
X146916668Y-96721062D01*
X146885669Y-96721062D01*
X146885669Y-96754400D01*
X146885669Y-96787738D01*
X146745299Y-96787738D01*
X146745299Y-96754400D01*
X146745299Y-96754268D01*
X146745299Y-96720798D01*
X146712839Y-96721807D01*
X146680378Y-96722816D01*
X146679369Y-96755277D01*
X146678360Y-96787738D01*
X146471577Y-96787738D01*
X146471577Y-96732028D01*
X146471441Y-96712068D01*
X146471065Y-96693804D01*
X146470837Y-96687724D01*
X146748808Y-96687724D01*
X146748808Y-96721062D01*
X146815484Y-96721062D01*
X146882160Y-96721062D01*
X146882160Y-96685969D01*
X146882160Y-96650877D01*
X146915498Y-96650877D01*
X146948836Y-96650877D01*
X146948836Y-96628505D01*
X146949186Y-96614672D01*
X146950091Y-96602023D01*
X146951029Y-96595167D01*
X146953223Y-96584201D01*
X146886108Y-96584201D01*
X146818994Y-96584201D01*
X146818994Y-96619293D01*
X146818994Y-96654386D01*
X146783901Y-96654386D01*
X146748808Y-96654386D01*
X146748808Y-96687724D01*
X146470837Y-96687724D01*
X146470500Y-96678744D01*
X146469795Y-96668397D01*
X146469384Y-96665352D01*
X146467191Y-96654386D01*
X146436046Y-96654386D01*
X146404901Y-96654386D01*
X146404901Y-96721062D01*
X146404901Y-96787738D01*
X146322714Y-96787738D01*
X146331207Y-96787474D01*
X146331207Y-96754268D01*
X146331207Y-96721062D01*
X146264531Y-96721062D01*
X146197855Y-96721062D01*
X146197855Y-96756154D01*
X146197855Y-96791247D01*
X146096214Y-96791247D01*
X145994572Y-96791247D01*
X145993568Y-96825462D01*
X145992564Y-96859677D01*
X145958474Y-96860680D01*
X145924384Y-96861683D01*
X145923381Y-96895773D01*
X145922378Y-96929863D01*
X145819733Y-96929212D01*
X145717087Y-96928562D01*
X145717087Y-96963500D01*
X145717087Y-96998438D01*
X145646024Y-96997488D01*
X145574962Y-96996538D01*
X145573957Y-96962284D01*
X145572952Y-96928029D01*
X145521318Y-96929570D01*
X145501607Y-96929993D01*
X145483137Y-96930091D01*
X145467652Y-96929874D01*
X145456892Y-96929355D01*
X145454770Y-96929132D01*
X145439856Y-96927154D01*
X145439856Y-96892538D01*
X145439856Y-96857923D01*
X145473067Y-96857923D01*
X145506277Y-96857923D01*
X145507282Y-96823708D01*
X145508286Y-96789492D01*
X145575839Y-96788539D01*
X145643393Y-96787586D01*
X145643393Y-96754516D01*
X145784177Y-96754516D01*
X145784993Y-96768798D01*
X145785485Y-96772823D01*
X145787702Y-96787738D01*
X145854163Y-96787738D01*
X145920624Y-96787738D01*
X145920624Y-96754607D01*
X145920624Y-96721477D01*
X145853071Y-96722147D01*
X145785517Y-96722816D01*
X145784393Y-96740363D01*
X145784177Y-96754516D01*
X145643393Y-96754516D01*
X145643393Y-96754324D01*
X145643393Y-96721062D01*
X145678485Y-96721062D01*
X145713578Y-96721062D01*
X145924133Y-96721062D01*
X145990809Y-96721062D01*
X146057485Y-96721062D01*
X146057485Y-96687724D01*
X146057485Y-96654386D01*
X145990809Y-96654386D01*
X145924133Y-96654386D01*
X145924133Y-96687724D01*
X145924133Y-96721062D01*
X145713578Y-96721062D01*
X145713578Y-96687724D01*
X145713578Y-96685969D01*
X145713578Y-96650877D01*
X145782008Y-96650877D01*
X145850439Y-96650877D01*
X145850492Y-96621925D01*
X145850620Y-96617539D01*
X146060994Y-96617539D01*
X146060994Y-96650877D01*
X146127670Y-96650877D01*
X146194346Y-96650877D01*
X146475086Y-96650877D01*
X146506670Y-96650877D01*
X146538253Y-96650877D01*
X146538253Y-96617539D01*
X146538253Y-96584201D01*
X146506670Y-96584201D01*
X146475086Y-96584201D01*
X146475086Y-96617539D01*
X146475086Y-96650877D01*
X146194346Y-96650877D01*
X146194346Y-96617791D01*
X146194346Y-96617539D01*
X146194346Y-96584706D01*
X146214184Y-96582227D01*
X146225292Y-96581421D01*
X146241357Y-96581001D01*
X146260329Y-96580991D01*
X146280156Y-96581411D01*
X146282493Y-96581492D01*
X146330964Y-96583235D01*
X146331963Y-96549503D01*
X146332314Y-96537645D01*
X146541695Y-96537645D01*
X146541825Y-96555407D01*
X146542647Y-96567934D01*
X146544657Y-96576115D01*
X146548350Y-96580837D01*
X146554221Y-96582990D01*
X146562766Y-96583461D01*
X146574480Y-96583139D01*
X146579723Y-96583000D01*
X146955855Y-96583000D01*
X146975062Y-96583777D01*
X146988671Y-96583789D01*
X147001582Y-96582944D01*
X147006645Y-96582232D01*
X147019021Y-96579910D01*
X147019021Y-96548718D01*
X147019021Y-96517525D01*
X146987438Y-96517525D01*
X146955855Y-96517525D01*
X146955855Y-96550262D01*
X146955855Y-96583000D01*
X146579723Y-96583000D01*
X146580364Y-96582983D01*
X146606684Y-96582446D01*
X146607163Y-96548523D01*
X146607600Y-96517525D01*
X146678623Y-96517525D01*
X146678623Y-96548523D01*
X146678832Y-96562589D01*
X146679391Y-96573807D01*
X146680197Y-96580461D01*
X146680592Y-96581491D01*
X146684618Y-96582116D01*
X146694287Y-96582510D01*
X146708229Y-96582694D01*
X146725075Y-96582687D01*
X146743453Y-96582510D01*
X146761993Y-96582183D01*
X146779325Y-96581725D01*
X146794079Y-96581156D01*
X146804883Y-96580498D01*
X146810369Y-96579768D01*
X146810737Y-96579590D01*
X146811843Y-96575404D01*
X146813078Y-96565956D01*
X146814231Y-96552992D01*
X146814417Y-96550262D01*
X146814600Y-96547563D01*
X146816474Y-96517525D01*
X146747548Y-96517525D01*
X146678623Y-96517525D01*
X146607600Y-96517525D01*
X146607637Y-96514893D01*
X146607649Y-96514016D01*
X147022530Y-96514016D01*
X147055868Y-96514016D01*
X147089206Y-96514016D01*
X147089206Y-96480678D01*
X147089206Y-96447340D01*
X147055868Y-96447340D01*
X147022530Y-96447340D01*
X147022530Y-96480678D01*
X147022530Y-96514016D01*
X146607649Y-96514016D01*
X146608120Y-96480678D01*
X146608590Y-96447340D01*
X146575176Y-96447340D01*
X146541762Y-96447340D01*
X146541762Y-96513758D01*
X146541695Y-96537645D01*
X146332314Y-96537645D01*
X146332961Y-96515770D01*
X146401392Y-96514016D01*
X146469822Y-96512261D01*
X146471577Y-96478923D01*
X146473332Y-96445585D01*
X146505792Y-96444576D01*
X146538253Y-96443567D01*
X146538253Y-96410361D01*
X146538253Y-96377155D01*
X146572928Y-96377155D01*
X146607604Y-96377155D01*
X146610103Y-96410493D01*
X146612602Y-96443830D01*
X146643858Y-96443830D01*
X146675114Y-96443830D01*
X146675114Y-96373338D01*
X147022530Y-96373338D01*
X147047973Y-96374549D01*
X147079000Y-96375824D01*
X147105922Y-96376413D01*
X147131618Y-96376323D01*
X147158966Y-96375560D01*
X147176060Y-96374841D01*
X147226067Y-96372554D01*
X147226067Y-96341516D01*
X147226067Y-96310479D01*
X147124299Y-96310479D01*
X147022530Y-96310479D01*
X147022530Y-96341908D01*
X147022530Y-96373338D01*
X146675114Y-96373338D01*
X146675114Y-96343817D01*
X146675114Y-96341908D01*
X146675114Y-96306969D01*
X146818994Y-96306969D01*
X146919007Y-96306969D01*
X147019021Y-96306969D01*
X147229577Y-96306969D01*
X147262915Y-96306969D01*
X147296252Y-96306969D01*
X147296252Y-96275386D01*
X147296252Y-96243803D01*
X147262915Y-96243803D01*
X147229577Y-96243803D01*
X147229577Y-96275386D01*
X147229577Y-96306969D01*
X147019021Y-96306969D01*
X147019021Y-96275386D01*
X147019021Y-96243803D01*
X146919007Y-96243803D01*
X146818994Y-96243803D01*
X146818994Y-96275386D01*
X146818994Y-96306969D01*
X146675114Y-96306969D01*
X146675114Y-96275386D01*
X146675114Y-96243803D01*
X146641776Y-96243803D01*
X146608438Y-96243803D01*
X146608438Y-96277141D01*
X146608438Y-96310479D01*
X146541889Y-96310479D01*
X146475341Y-96310479D01*
X146474336Y-96344694D01*
X146473332Y-96378909D01*
X146439117Y-96379914D01*
X146404901Y-96380918D01*
X146404901Y-96414129D01*
X146404901Y-96447340D01*
X146336471Y-96447340D01*
X146268040Y-96447340D01*
X146268040Y-96482432D01*
X146268040Y-96517525D01*
X146199610Y-96517525D01*
X146131179Y-96517525D01*
X146131179Y-96550863D01*
X146131179Y-96584201D01*
X146096087Y-96584201D01*
X146060994Y-96584201D01*
X146060994Y-96617539D01*
X145850620Y-96617539D01*
X145850904Y-96607806D01*
X145851950Y-96596037D01*
X145853426Y-96588675D01*
X145853871Y-96587710D01*
X145857837Y-96584872D01*
X145860706Y-96584201D01*
X145866208Y-96582914D01*
X145880034Y-96581643D01*
X145888910Y-96581220D01*
X145920624Y-96579993D01*
X145920624Y-96547004D01*
X145920624Y-96514016D01*
X145988927Y-96514016D01*
X146057231Y-96514016D01*
X146058235Y-96479800D01*
X146059239Y-96445585D01*
X146092577Y-96444599D01*
X146125915Y-96443613D01*
X146124797Y-96410384D01*
X146123679Y-96377155D01*
X146145853Y-96377116D01*
X146160183Y-96376736D01*
X146173833Y-96375797D01*
X146181186Y-96374902D01*
X146194346Y-96372727D01*
X146194346Y-96339848D01*
X146194346Y-96306969D01*
X146262649Y-96306969D01*
X146330953Y-96306969D01*
X146331957Y-96272754D01*
X146332961Y-96238539D01*
X146367177Y-96237535D01*
X146392745Y-96236784D01*
X146475086Y-96236784D01*
X146506670Y-96236784D01*
X146538253Y-96236784D01*
X146538253Y-96205201D01*
X146538253Y-96205064D01*
X146748808Y-96205064D01*
X146748808Y-96236511D01*
X146779514Y-96237525D01*
X146793383Y-96237917D01*
X146804280Y-96238102D01*
X146810538Y-96238055D01*
X146811384Y-96237960D01*
X146811575Y-96236784D01*
X147021975Y-96236784D01*
X147055590Y-96236784D01*
X147089206Y-96236784D01*
X147089206Y-96205201D01*
X147089206Y-96173618D01*
X147056736Y-96173618D01*
X147024266Y-96173618D01*
X147023120Y-96205201D01*
X147021975Y-96236784D01*
X146811575Y-96236784D01*
X146811956Y-96234444D01*
X146812515Y-96225506D01*
X146812974Y-96212743D01*
X146813139Y-96205498D01*
X146813730Y-96173616D01*
X146781269Y-96173617D01*
X146748808Y-96173618D01*
X146748808Y-96205064D01*
X146538253Y-96205064D01*
X146538253Y-96173618D01*
X146506670Y-96173618D01*
X146475086Y-96173618D01*
X146475086Y-96205201D01*
X146475086Y-96236784D01*
X146392745Y-96236784D01*
X146401392Y-96236530D01*
X146401392Y-96205201D01*
X146401392Y-96203319D01*
X146401392Y-96170124D01*
X147434868Y-96170124D01*
X147469560Y-96170116D01*
X147504253Y-96170108D01*
X147502021Y-96153827D01*
X147500598Y-96139501D01*
X147499832Y-96124110D01*
X147499789Y-96120489D01*
X147499789Y-96103433D01*
X147468447Y-96103433D01*
X147437104Y-96103433D01*
X147435986Y-96136778D01*
X147434868Y-96170124D01*
X146401392Y-96170124D01*
X146401392Y-96170108D01*
X146436485Y-96170108D01*
X146471577Y-96170108D01*
X146541762Y-96170108D01*
X146575100Y-96170108D01*
X146608438Y-96170108D01*
X146818994Y-96170108D01*
X146850577Y-96170108D01*
X146882160Y-96170108D01*
X147092716Y-96170108D01*
X147229577Y-96170108D01*
X147297130Y-96170108D01*
X147364683Y-96170108D01*
X147365415Y-96136770D01*
X147366147Y-96103433D01*
X147297862Y-96103433D01*
X147229577Y-96103433D01*
X147229577Y-96136771D01*
X147229577Y-96170108D01*
X147092716Y-96170108D01*
X147125176Y-96170100D01*
X147157637Y-96170091D01*
X147157476Y-96137639D01*
X147157472Y-96136771D01*
X147157316Y-96105187D01*
X147125016Y-96104896D01*
X147092716Y-96104604D01*
X147092716Y-96137356D01*
X147092716Y-96170108D01*
X146882160Y-96170108D01*
X146882160Y-96137356D01*
X146882160Y-96136771D01*
X146882160Y-96103433D01*
X146850577Y-96103433D01*
X146818994Y-96103433D01*
X146818994Y-96136771D01*
X146818994Y-96170108D01*
X146608438Y-96170108D01*
X146608438Y-96136771D01*
X146608438Y-96103433D01*
X146575100Y-96103433D01*
X146541762Y-96103433D01*
X146541762Y-96136771D01*
X146541762Y-96170108D01*
X146471577Y-96170108D01*
X146471577Y-96136771D01*
X146471577Y-96101678D01*
X146471577Y-96099923D01*
X146611947Y-96099923D01*
X146678623Y-96099923D01*
X146745299Y-96099923D01*
X146885669Y-96099923D01*
X146919007Y-96099923D01*
X146933274Y-96099667D01*
X146944400Y-96098978D01*
X146950886Y-96097976D01*
X146951930Y-96097291D01*
X146951787Y-96092803D01*
X146951764Y-96083071D01*
X146951858Y-96069871D01*
X146951930Y-96063953D01*
X146952321Y-96035002D01*
X147022515Y-96035002D01*
X147022523Y-96067463D01*
X147022530Y-96099923D01*
X147055868Y-96099923D01*
X147089206Y-96099923D01*
X147089206Y-96068581D01*
X147089206Y-96037238D01*
X147055860Y-96036120D01*
X147022515Y-96035002D01*
X146952321Y-96035002D01*
X146952345Y-96033247D01*
X146985683Y-96033247D01*
X147019021Y-96033247D01*
X147092716Y-96033247D01*
X147126054Y-96033247D01*
X147159391Y-96033247D01*
X147159391Y-96066585D01*
X147159391Y-96099923D01*
X147192729Y-96099923D01*
X147226067Y-96099923D01*
X147366283Y-96099923D01*
X147399698Y-96099923D01*
X147433113Y-96099923D01*
X147506808Y-96099923D01*
X147538391Y-96099923D01*
X147569974Y-96099923D01*
X147917391Y-96099923D01*
X147950268Y-96099923D01*
X147983144Y-96099923D01*
X147983783Y-96068340D01*
X147984422Y-96036757D01*
X147950907Y-96036757D01*
X147917391Y-96036757D01*
X147917391Y-96068340D01*
X147917391Y-96099923D01*
X147569974Y-96099923D01*
X147569974Y-96068340D01*
X147569974Y-96036757D01*
X147538391Y-96036757D01*
X147506808Y-96036757D01*
X147506808Y-96068340D01*
X147506808Y-96099923D01*
X147433113Y-96099923D01*
X147433113Y-96068340D01*
X147433113Y-96066585D01*
X147433113Y-96033247D01*
X147467789Y-96033247D01*
X147502464Y-96033247D01*
X147573484Y-96033247D01*
X147606822Y-96033247D01*
X147640160Y-96033247D01*
X147640160Y-95999910D01*
X147640160Y-95966572D01*
X147606822Y-95966572D01*
X147573484Y-95966572D01*
X147573484Y-95999910D01*
X147573484Y-96033247D01*
X147502464Y-96033247D01*
X147501539Y-96020088D01*
X147500933Y-96008849D01*
X147500601Y-95999910D01*
X147500407Y-95994668D01*
X147500201Y-95986672D01*
X147499789Y-95966417D01*
X147433991Y-95967371D01*
X147368192Y-95968326D01*
X147367237Y-96034125D01*
X147366283Y-96099923D01*
X147226067Y-96099923D01*
X147226067Y-96033247D01*
X147226067Y-95966572D01*
X147159391Y-95966572D01*
X147092716Y-95966572D01*
X147092716Y-95999910D01*
X147092716Y-96033247D01*
X147019021Y-96033247D01*
X147019021Y-95999910D01*
X147019021Y-95966572D01*
X146952345Y-95966572D01*
X146885669Y-95966572D01*
X146885669Y-96033247D01*
X146885669Y-96099923D01*
X146745299Y-96099923D01*
X146745299Y-96068340D01*
X146745299Y-96036757D01*
X146678623Y-96036757D01*
X146611947Y-96036757D01*
X146611947Y-96068340D01*
X146611947Y-96099923D01*
X146471577Y-96099923D01*
X146471577Y-96068340D01*
X146471577Y-96033247D01*
X146504915Y-96033247D01*
X146538253Y-96033247D01*
X146748808Y-96033247D01*
X146780143Y-96033247D01*
X146811477Y-96033247D01*
X146812603Y-96001356D01*
X146812949Y-95987166D01*
X146812931Y-95975880D01*
X146812566Y-95969150D01*
X146812267Y-95968018D01*
X146808336Y-95967373D01*
X146799069Y-95966876D01*
X146786146Y-95966602D01*
X146779807Y-95966572D01*
X146748808Y-95966572D01*
X146748808Y-95999910D01*
X146748808Y-96033247D01*
X146538253Y-96033247D01*
X146538253Y-95999910D01*
X146538253Y-95998155D01*
X146538253Y-95963062D01*
X146573346Y-95963062D01*
X146608438Y-95963062D01*
X146818994Y-95963062D01*
X146850577Y-95963062D01*
X146882160Y-95963062D01*
X146882160Y-95929724D01*
X147229577Y-95929724D01*
X147229577Y-95963062D01*
X147262915Y-95963062D01*
X147296252Y-95963062D01*
X147643669Y-95963062D01*
X147675252Y-95963062D01*
X147706835Y-95963062D01*
X147706835Y-95929724D01*
X147706835Y-95896386D01*
X147675252Y-95896386D01*
X147643669Y-95896386D01*
X147643669Y-95929724D01*
X147643669Y-95963062D01*
X147296252Y-95963062D01*
X147296252Y-95929724D01*
X147296252Y-95896386D01*
X147329590Y-95896386D01*
X147362928Y-95896386D01*
X147436623Y-95896386D01*
X147503299Y-95896386D01*
X147569974Y-95896386D01*
X147569974Y-95864598D01*
X147710725Y-95864598D01*
X147711499Y-95877783D01*
X147712334Y-95884123D01*
X147714684Y-95896648D01*
X147744975Y-95895640D01*
X147775266Y-95894632D01*
X147776275Y-95862171D01*
X147777284Y-95829711D01*
X147744390Y-95829711D01*
X147711496Y-95829711D01*
X147710741Y-95850655D01*
X147710725Y-95864598D01*
X147569974Y-95864598D01*
X147569974Y-95863049D01*
X147569974Y-95829711D01*
X147503299Y-95829711D01*
X147436623Y-95829711D01*
X147436623Y-95863049D01*
X147436623Y-95896386D01*
X147362928Y-95896386D01*
X147362928Y-95863049D01*
X147362928Y-95829711D01*
X147329590Y-95829711D01*
X147315324Y-95829967D01*
X147304198Y-95830656D01*
X147297712Y-95831658D01*
X147296668Y-95832343D01*
X147296810Y-95836831D01*
X147296834Y-95846563D01*
X147296740Y-95859763D01*
X147296668Y-95865680D01*
X147296252Y-95896386D01*
X147262915Y-95896386D01*
X147229577Y-95896386D01*
X147229577Y-95929724D01*
X146882160Y-95929724D01*
X146882160Y-95896386D01*
X146850577Y-95896386D01*
X146818994Y-95896386D01*
X146818994Y-95929724D01*
X146818994Y-95963062D01*
X146608438Y-95963062D01*
X146608438Y-95929724D01*
X146608438Y-95896386D01*
X146641702Y-95896386D01*
X146674966Y-95896386D01*
X146675423Y-95863049D01*
X146748808Y-95863049D01*
X146748808Y-95896386D01*
X146780151Y-95896386D01*
X146811493Y-95896386D01*
X146812612Y-95863041D01*
X146812690Y-95860709D01*
X146813729Y-95829711D01*
X147022530Y-95829711D01*
X147022530Y-95860709D01*
X147022779Y-95874831D01*
X147023445Y-95886162D01*
X147024404Y-95892959D01*
X147024870Y-95894047D01*
X147028966Y-95894791D01*
X147038930Y-95895437D01*
X147053610Y-95895945D01*
X147071855Y-95896275D01*
X147091546Y-95896386D01*
X147155882Y-95896386D01*
X147155882Y-95863049D01*
X147155882Y-95829711D01*
X147089206Y-95829711D01*
X147022530Y-95829711D01*
X146813729Y-95829711D01*
X146813730Y-95829695D01*
X146781269Y-95829703D01*
X146748808Y-95829711D01*
X146748808Y-95863049D01*
X146675423Y-95863049D01*
X146675881Y-95829711D01*
X146675917Y-95827079D01*
X146675929Y-95826201D01*
X146818994Y-95826201D01*
X146850577Y-95826201D01*
X146882160Y-95826201D01*
X146955855Y-95826201D01*
X146987438Y-95826201D01*
X147019021Y-95826201D01*
X147366438Y-95826201D01*
X147399776Y-95826201D01*
X147433113Y-95826201D01*
X147573484Y-95826201D01*
X147606822Y-95826201D01*
X147640160Y-95826201D01*
X147640160Y-95792863D01*
X147640160Y-95759525D01*
X147606822Y-95759525D01*
X147573484Y-95759525D01*
X147573484Y-95792863D01*
X147573484Y-95826201D01*
X147433113Y-95826201D01*
X147433113Y-95792863D01*
X147433113Y-95759525D01*
X147399776Y-95759525D01*
X147366438Y-95759525D01*
X147366438Y-95792863D01*
X147366438Y-95826201D01*
X147019021Y-95826201D01*
X147019021Y-95792863D01*
X147019021Y-95759525D01*
X146987438Y-95759525D01*
X146955855Y-95759525D01*
X146955855Y-95792863D01*
X146955855Y-95826201D01*
X146882160Y-95826201D01*
X146882160Y-95792863D01*
X146882160Y-95759525D01*
X146850577Y-95759525D01*
X146818994Y-95759525D01*
X146818994Y-95792863D01*
X146818994Y-95826201D01*
X146675929Y-95826201D01*
X146676387Y-95792863D01*
X146676869Y-95757771D01*
X146711084Y-95756766D01*
X146736643Y-95756016D01*
X146885669Y-95756016D01*
X146919185Y-95756016D01*
X146952701Y-95756016D01*
X147159391Y-95756016D01*
X147227822Y-95756016D01*
X147296252Y-95756016D01*
X147436623Y-95756016D01*
X147468206Y-95756016D01*
X147499789Y-95756016D01*
X147499789Y-95724433D01*
X147499789Y-95692850D01*
X147468206Y-95692850D01*
X147436623Y-95692850D01*
X147436623Y-95724433D01*
X147436623Y-95756016D01*
X147296252Y-95756016D01*
X147296252Y-95724433D01*
X147296252Y-95692850D01*
X147227822Y-95692850D01*
X147159391Y-95692850D01*
X147159391Y-95724433D01*
X147159391Y-95756016D01*
X146952701Y-95756016D01*
X146952062Y-95724433D01*
X146951423Y-95692850D01*
X146918546Y-95692850D01*
X146885669Y-95692850D01*
X146885669Y-95724433D01*
X146885669Y-95756016D01*
X146736643Y-95756016D01*
X146745299Y-95755762D01*
X146745299Y-95724433D01*
X146745299Y-95722551D01*
X146745299Y-95689340D01*
X146775128Y-95689340D01*
X146789021Y-95689437D01*
X146800148Y-95689696D01*
X146806703Y-95690068D01*
X146807588Y-95690218D01*
X146807673Y-95689928D01*
X147506808Y-95689928D01*
X147538384Y-95688757D01*
X147569960Y-95687586D01*
X147569967Y-95655125D01*
X147569974Y-95622664D01*
X147538391Y-95622664D01*
X147506808Y-95622664D01*
X147506808Y-95656296D01*
X147506808Y-95689928D01*
X146807673Y-95689928D01*
X146807845Y-95689340D01*
X146955855Y-95689340D01*
X146987438Y-95689340D01*
X147019021Y-95689340D01*
X147092716Y-95689340D01*
X147124299Y-95689340D01*
X147155882Y-95689340D01*
X147155882Y-95656296D01*
X147155882Y-95656002D01*
X147155882Y-95622664D01*
X147124299Y-95622664D01*
X147092716Y-95622664D01*
X147092716Y-95656002D01*
X147092716Y-95689340D01*
X147019021Y-95689340D01*
X147019021Y-95656002D01*
X147019021Y-95622664D01*
X146987438Y-95622664D01*
X146955855Y-95622664D01*
X146955855Y-95656002D01*
X146955855Y-95689340D01*
X146807845Y-95689340D01*
X146808482Y-95687165D01*
X146809427Y-95678140D01*
X146810357Y-95664189D01*
X146810745Y-95656002D01*
X146811202Y-95646358D01*
X146811895Y-95625691D01*
X146811975Y-95622664D01*
X146812065Y-95619155D01*
X147159391Y-95619155D01*
X147192729Y-95619155D01*
X147226067Y-95619155D01*
X147226067Y-95587572D01*
X147296252Y-95587572D01*
X147296252Y-95619155D01*
X147364683Y-95619155D01*
X147433113Y-95619155D01*
X147433113Y-95585817D01*
X147433113Y-95552479D01*
X147468206Y-95552479D01*
X147503299Y-95552479D01*
X147573484Y-95552479D01*
X147629193Y-95552479D01*
X147649153Y-95552343D01*
X147667418Y-95551968D01*
X147682478Y-95551402D01*
X147692824Y-95550697D01*
X147695869Y-95550286D01*
X147706835Y-95548093D01*
X147706835Y-95516948D01*
X147706835Y-95485803D01*
X147640160Y-95485803D01*
X147573484Y-95485803D01*
X147573484Y-95519141D01*
X147573484Y-95552479D01*
X147503299Y-95552479D01*
X147503299Y-95540712D01*
X147502924Y-95530648D01*
X147502102Y-95519141D01*
X147501958Y-95517133D01*
X147501044Y-95507374D01*
X147498790Y-95485803D01*
X147432614Y-95485803D01*
X147366438Y-95485803D01*
X147366438Y-95520896D01*
X147366438Y-95555989D01*
X147331345Y-95555989D01*
X147296252Y-95555989D01*
X147296252Y-95587572D01*
X147226067Y-95587572D01*
X147226067Y-95555989D01*
X147192729Y-95555989D01*
X147159391Y-95555989D01*
X147159391Y-95587572D01*
X147159391Y-95619155D01*
X146812065Y-95619155D01*
X146812875Y-95587572D01*
X146813730Y-95554234D01*
X146847945Y-95553230D01*
X146855843Y-95552998D01*
X147022530Y-95552998D01*
X147037347Y-95552479D01*
X147229577Y-95552479D01*
X147262915Y-95552479D01*
X147296252Y-95552479D01*
X147296252Y-95519141D01*
X147296252Y-95485803D01*
X147262915Y-95485803D01*
X147229577Y-95485803D01*
X147229577Y-95519141D01*
X147229577Y-95552479D01*
X147037347Y-95552479D01*
X147054991Y-95551861D01*
X147087452Y-95550725D01*
X147088434Y-95519141D01*
X147088461Y-95518264D01*
X147089470Y-95485803D01*
X147056000Y-95485803D01*
X147022530Y-95485803D01*
X147022530Y-95519401D01*
X147022530Y-95552998D01*
X146855843Y-95552998D01*
X146882160Y-95552225D01*
X146882160Y-95519401D01*
X146882160Y-95517260D01*
X146882160Y-95482294D01*
X146914998Y-95482294D01*
X146947836Y-95482294D01*
X147092716Y-95482294D01*
X147159391Y-95482294D01*
X147226067Y-95482294D01*
X147710345Y-95482294D01*
X147743683Y-95482294D01*
X147777021Y-95482294D01*
X147777021Y-95450711D01*
X147777021Y-95419128D01*
X147743683Y-95419128D01*
X147710345Y-95419128D01*
X147710345Y-95450711D01*
X147710345Y-95482294D01*
X147226067Y-95482294D01*
X147226067Y-95450711D01*
X147226067Y-95419128D01*
X147159391Y-95419128D01*
X147092716Y-95419128D01*
X147092716Y-95450711D01*
X147092716Y-95482294D01*
X146947836Y-95482294D01*
X146950091Y-95460724D01*
X146950969Y-95450711D01*
X146951343Y-95446453D01*
X146952161Y-95432726D01*
X146952345Y-95425631D01*
X146952345Y-95412109D01*
X146985683Y-95412109D01*
X147019021Y-95412109D01*
X147019021Y-95380268D01*
X147019021Y-95378771D01*
X147019021Y-95348942D01*
X147229577Y-95348942D01*
X147229577Y-95380268D01*
X147229822Y-95396481D01*
X147231121Y-95406826D01*
X147234319Y-95412452D01*
X147240261Y-95414507D01*
X147249791Y-95414139D01*
X147254141Y-95413649D01*
X147266071Y-95412669D01*
X147279392Y-95412164D01*
X147281338Y-95412148D01*
X147296252Y-95412109D01*
X147436623Y-95412109D01*
X147503299Y-95412109D01*
X147569974Y-95412109D01*
X147569974Y-95380526D01*
X147569974Y-95348942D01*
X147503299Y-95348942D01*
X147436623Y-95348942D01*
X147436623Y-95380526D01*
X147436623Y-95412109D01*
X147296252Y-95412109D01*
X147296252Y-95380526D01*
X147296252Y-95348942D01*
X147262915Y-95348942D01*
X147229577Y-95348942D01*
X147019021Y-95348942D01*
X147019021Y-95345433D01*
X147054114Y-95345433D01*
X147089206Y-95345433D01*
X147296940Y-95345433D01*
X147365027Y-95345433D01*
X147433113Y-95345433D01*
X147573220Y-95345433D01*
X147640028Y-95345433D01*
X147706835Y-95345433D01*
X147706834Y-95312973D01*
X147706833Y-95280512D01*
X147641036Y-95280512D01*
X147575238Y-95280512D01*
X147574229Y-95312973D01*
X147573220Y-95345433D01*
X147433113Y-95345433D01*
X147433113Y-95310341D01*
X147433113Y-95275248D01*
X147466451Y-95275248D01*
X147499789Y-95275248D01*
X147499789Y-95243665D01*
X147499789Y-95212081D01*
X147433113Y-95212081D01*
X147366438Y-95212081D01*
X147366438Y-95245292D01*
X147366438Y-95278503D01*
X147332222Y-95279508D01*
X147298007Y-95280512D01*
X147297473Y-95312973D01*
X147296940Y-95345433D01*
X147089206Y-95345433D01*
X147089206Y-95310341D01*
X147089206Y-95275248D01*
X147122217Y-95275248D01*
X147155227Y-95275248D01*
X147157727Y-95241910D01*
X147160226Y-95208572D01*
X147193020Y-95208572D01*
X147225813Y-95208572D01*
X147506808Y-95208572D01*
X147538391Y-95208572D01*
X147569974Y-95208572D01*
X147643669Y-95208572D01*
X147710345Y-95208572D01*
X147777021Y-95208572D01*
X147777021Y-95175234D01*
X147777021Y-95141896D01*
X147710345Y-95141896D01*
X147643669Y-95141896D01*
X147643669Y-95175234D01*
X147643669Y-95208572D01*
X147569974Y-95208572D01*
X147569974Y-95175234D01*
X147569974Y-95141896D01*
X147538391Y-95141896D01*
X147506808Y-95141896D01*
X147506808Y-95175234D01*
X147506808Y-95208572D01*
X147225813Y-95208572D01*
X147226792Y-95175234D01*
X147226818Y-95174357D01*
X147227822Y-95140142D01*
X147295375Y-95139189D01*
X147352165Y-95138387D01*
X147780530Y-95138387D01*
X147812113Y-95138387D01*
X147843696Y-95138387D01*
X147843696Y-95105049D01*
X147843696Y-95071711D01*
X147812113Y-95071711D01*
X147780530Y-95071711D01*
X147780530Y-95105049D01*
X147780530Y-95138387D01*
X147352165Y-95138387D01*
X147362928Y-95138235D01*
X147363367Y-95111992D01*
X147363538Y-95105049D01*
X147363691Y-95098817D01*
X147364139Y-95088319D01*
X147364622Y-95082538D01*
X147364683Y-95082239D01*
X147365966Y-95075476D01*
X147365999Y-95075220D01*
X147369612Y-95074108D01*
X147379968Y-95073196D01*
X147396793Y-95072493D01*
X147419812Y-95072009D01*
X147448754Y-95071752D01*
X147468206Y-95071711D01*
X147569974Y-95071711D01*
X147569974Y-95036746D01*
X147569974Y-95001780D01*
X147604190Y-95000776D01*
X147638405Y-94999771D01*
X147639409Y-94965556D01*
X147640414Y-94931341D01*
X147741923Y-94931341D01*
X147843433Y-94931341D01*
X147844442Y-94898880D01*
X147845451Y-94866420D01*
X147879666Y-94865415D01*
X147913882Y-94864411D01*
X147913882Y-94797989D01*
X147913882Y-94731567D01*
X147879666Y-94730563D01*
X147845451Y-94729559D01*
X147844676Y-94663277D01*
X147844359Y-94642457D01*
X147843940Y-94624159D01*
X147843457Y-94609499D01*
X147842946Y-94599590D01*
X147842444Y-94595544D01*
X147842426Y-94595521D01*
X147838500Y-94594660D01*
X147829216Y-94593588D01*
X147816225Y-94592480D01*
X147808986Y-94591975D01*
X147777021Y-94589904D01*
X147777021Y-94557086D01*
X147777021Y-94524267D01*
X147767370Y-94524130D01*
X147760637Y-94524009D01*
X147748330Y-94523765D01*
X147731892Y-94523426D01*
X147712766Y-94523023D01*
X147700694Y-94522764D01*
X147643669Y-94521534D01*
X147643669Y-94555654D01*
X147643529Y-94570366D01*
X147643154Y-94582213D01*
X147642608Y-94589602D01*
X147642222Y-94591235D01*
X147638325Y-94591746D01*
X147628976Y-94591955D01*
X147615731Y-94591847D01*
X147605374Y-94591587D01*
X147569974Y-94590477D01*
X147569974Y-94452094D01*
X147569974Y-94313712D01*
X147605067Y-94313712D01*
X147640160Y-94313712D01*
X147640160Y-94278619D01*
X147640160Y-94243527D01*
X147673498Y-94243527D01*
X147706835Y-94243527D01*
X147780530Y-94243527D01*
X147812113Y-94243527D01*
X147843696Y-94243527D01*
X147843696Y-94210189D01*
X147843696Y-94176851D01*
X147812113Y-94176851D01*
X147780530Y-94176851D01*
X147780530Y-94210189D01*
X147780530Y-94243527D01*
X147706835Y-94243527D01*
X147706835Y-94210189D01*
X147706835Y-94208434D01*
X147706835Y-94173341D01*
X147741928Y-94173341D01*
X147777021Y-94173341D01*
X147777021Y-94172807D01*
X148054252Y-94172807D01*
X148082892Y-94173952D01*
X148097258Y-94174341D01*
X148106077Y-94173941D01*
X148110797Y-94172512D01*
X148112867Y-94169814D01*
X148113130Y-94168955D01*
X148114625Y-94166226D01*
X148118240Y-94164438D01*
X148125216Y-94163401D01*
X148136796Y-94162924D01*
X148153031Y-94162814D01*
X148170586Y-94162996D01*
X148182281Y-94163644D01*
X148189265Y-94164907D01*
X148192690Y-94166936D01*
X148193353Y-94168078D01*
X148197286Y-94171509D01*
X148206411Y-94173126D01*
X148214012Y-94173341D01*
X148223894Y-94173284D01*
X148231310Y-94173698D01*
X148236614Y-94175459D01*
X148240157Y-94179445D01*
X148242292Y-94186532D01*
X148243369Y-94197598D01*
X148243743Y-94213520D01*
X148243763Y-94235174D01*
X148243752Y-94247411D01*
X148243752Y-94317221D01*
X148219187Y-94317221D01*
X148194622Y-94317221D01*
X148194622Y-94333013D01*
X148194622Y-94348804D01*
X148154266Y-94348804D01*
X148113909Y-94348804D01*
X148113909Y-94333013D01*
X148113909Y-94317221D01*
X148084081Y-94317221D01*
X148054252Y-94317221D01*
X148054252Y-94348219D01*
X148054501Y-94362341D01*
X148055166Y-94373672D01*
X148056125Y-94380469D01*
X148056591Y-94381557D01*
X148060575Y-94382161D01*
X148070666Y-94382707D01*
X148085954Y-94383174D01*
X148105530Y-94383542D01*
X148128481Y-94383789D01*
X148153899Y-94383894D01*
X148158360Y-94383897D01*
X148257789Y-94383897D01*
X148257789Y-94348804D01*
X148257789Y-94313712D01*
X148290847Y-94313712D01*
X148323906Y-94313712D01*
X148326279Y-94291556D01*
X148327106Y-94279175D01*
X148327579Y-94262088D01*
X148327662Y-94242600D01*
X148327347Y-94224003D01*
X148326043Y-94178605D01*
X148291916Y-94177601D01*
X148257789Y-94176597D01*
X148257789Y-94143386D01*
X148257789Y-94110175D01*
X148156020Y-94110175D01*
X148054252Y-94110175D01*
X148054252Y-94141491D01*
X148054252Y-94172807D01*
X147777021Y-94172807D01*
X147777021Y-94141491D01*
X147777021Y-94138249D01*
X147777021Y-94103156D01*
X147810227Y-94103156D01*
X147843433Y-94103156D01*
X147844442Y-94070696D01*
X147845451Y-94038235D01*
X147914759Y-94037284D01*
X147984067Y-94036332D01*
X147984067Y-94003068D01*
X147984067Y-93969805D01*
X148226205Y-93969805D01*
X148468344Y-93969805D01*
X148468344Y-94003011D01*
G37*
%TO.C,U8*%
D10*
X148796253Y-103896387D02*
X148796253Y-102496387D01*
X150996253Y-103896387D02*
X150996253Y-102496387D01*
X151036253Y-102226387D02*
G75*
G02*
X151036280Y-102229019I130000J0D01*
G01*
D15*
X150926253Y-102146387D02*
G75*
G02*
X150866253Y-102146387I-30000J0D01*
G01*
X150866253Y-102146387D02*
G75*
G02*
X150926253Y-102146387I30000J0D01*
G01*
%TO.C,C75*%
D14*
X139655673Y-75686387D02*
X139936833Y-75686387D01*
X139655673Y-76706387D02*
X139936833Y-76706387D01*
%TO.C,C161*%
X143809999Y-86961387D02*
X142387495Y-86961387D01*
X143809999Y-89681387D02*
X142387495Y-89681387D01*
%TO.C,Q21*%
D10*
X136588747Y-78091387D02*
G75*
G02*
X136388747Y-78091387I-100000J0D01*
G01*
X136388747Y-78091387D02*
G75*
G02*
X136588747Y-78091387I100000J0D01*
G01*
%TO.C,U10*%
D17*
X138746253Y-70158887D02*
X138746253Y-72288887D01*
X138746253Y-74448887D02*
X138746253Y-75358887D01*
X138746253Y-75358887D02*
X141216253Y-75358887D01*
X142176253Y-75358887D02*
X142216253Y-75358887D01*
X143176253Y-75358887D02*
X143216253Y-75358887D01*
X144176253Y-75358887D02*
X144216253Y-75358887D01*
X145176253Y-75358887D02*
X145216253Y-75358887D01*
X146176253Y-75358887D02*
X146216253Y-75358887D01*
X147176253Y-75358887D02*
X147216253Y-75358887D01*
X148176253Y-75358887D02*
X148216253Y-75358887D01*
X149176253Y-75358887D02*
X149216253Y-75358887D01*
X150176253Y-75358887D02*
X150216253Y-75358887D01*
X151176253Y-75358887D02*
X151216253Y-75358887D01*
X152176253Y-75358887D02*
X152216253Y-75358887D01*
X153176253Y-75358887D02*
X153216253Y-75358887D01*
X154176253Y-75358887D02*
X154216253Y-75358887D01*
X155176253Y-75358887D02*
X155216253Y-75358887D01*
X156176253Y-75358887D02*
X158596253Y-75358887D01*
X156456253Y-75788887D02*
X156716253Y-75528887D01*
X156716253Y-75528887D02*
X156716253Y-76038887D01*
X156716253Y-76038887D02*
X156456253Y-75788887D01*
X158646253Y-72128887D02*
X158646253Y-70158887D01*
X158646253Y-75358887D02*
X158646253Y-74288887D01*
D15*
X158676253Y-76198887D02*
G75*
G02*
X158616253Y-76198887I-30000J0D01*
G01*
X158616253Y-76198887D02*
G75*
G02*
X158676253Y-76198887I30000J0D01*
G01*
%TO.C,C186*%
D14*
X143809999Y-96761387D02*
X142387495Y-96761387D01*
X143809999Y-99481387D02*
X142387495Y-99481387D01*
%TO.C,C169*%
X143809999Y-80561387D02*
X142387495Y-80561387D01*
X143809999Y-83281387D02*
X142387495Y-83281387D01*
%TO.C,R3*%
D13*
X147553753Y-104554676D02*
X149233753Y-104554676D01*
X147553753Y-109244676D02*
X147553753Y-104554676D01*
X151583753Y-104554676D02*
X149893753Y-104554676D01*
X151583753Y-104554676D02*
X151583753Y-109244676D01*
X151583753Y-109244676D02*
X147553753Y-109244676D01*
X149893753Y-104554676D02*
G75*
G02*
X149231039Y-104548098I-330000J140001D01*
G01*
D18*
X147293753Y-104764676D02*
G75*
G02*
X147053753Y-104764676I-120000J0D01*
G01*
X147053753Y-104764676D02*
G75*
G02*
X147293753Y-104764676I120000J0D01*
G01*
D15*
X148043753Y-104844676D02*
G75*
G02*
X147983753Y-104844676I-30000J0D01*
G01*
X147983753Y-104844676D02*
G75*
G02*
X148043753Y-104844676I30000J0D01*
G01*
%TO.C,L5*%
D14*
X151208753Y-91757639D02*
X151208753Y-91235135D01*
X153428753Y-91757639D02*
X153428753Y-91235135D01*
%TO.C,C138*%
X156282507Y-93311387D02*
X157705011Y-93311387D01*
X156282507Y-96031387D02*
X157705011Y-96031387D01*
%TO.C,Q18*%
D10*
X136298747Y-85081387D02*
G75*
G02*
X136098747Y-85081387I-100000J0D01*
G01*
X136098747Y-85081387D02*
G75*
G02*
X136298747Y-85081387I100000J0D01*
G01*
%TO.C,Q13*%
X163703759Y-98201387D02*
G75*
G02*
X163503759Y-98201387I-100000J0D01*
G01*
X163503759Y-98201387D02*
G75*
G02*
X163703759Y-98201387I100000J0D01*
G01*
%TO.C,Q11*%
X163703759Y-92751387D02*
G75*
G02*
X163503759Y-92751387I-100000J0D01*
G01*
X163503759Y-92751387D02*
G75*
G02*
X163703759Y-92751387I100000J0D01*
G01*
%TO.C,Q9*%
X163706253Y-88726387D02*
G75*
G02*
X163506253Y-88726387I-100000J0D01*
G01*
X163506253Y-88726387D02*
G75*
G02*
X163706253Y-88726387I100000J0D01*
G01*
%TO.C,U7*%
D17*
X152946253Y-107313887D02*
X152946253Y-106943887D01*
X153776253Y-105543887D02*
X153866253Y-105543887D01*
X161326253Y-105543887D02*
X161416253Y-105543887D01*
X162266253Y-107313887D02*
X162266253Y-106943887D01*
D15*
X152606253Y-105183887D02*
G75*
G02*
X152546253Y-105183887I-30000J0D01*
G01*
X152546253Y-105183887D02*
G75*
G02*
X152606253Y-105183887I30000J0D01*
G01*
%TO.C,U15*%
D14*
X156946253Y-103621387D02*
X156946253Y-104171387D01*
X156946253Y-104171387D02*
X157146253Y-104171387D01*
X158246253Y-103621387D02*
X158246253Y-104171387D01*
X158246253Y-104171387D02*
X158046253Y-104171387D01*
X158356253Y-103191387D02*
X158356253Y-102911387D01*
X158636253Y-103191387D01*
X158356253Y-103191387D01*
G36*
X158636253Y-103191387D02*
G01*
X158356253Y-103191387D01*
X158356253Y-102911387D01*
X158636253Y-103191387D01*
G37*
%TO.C,C198*%
X156285001Y-86736387D02*
X157707505Y-86736387D01*
X156285001Y-89456387D02*
X157707505Y-89456387D01*
%TO.C,Q22*%
D10*
X136298747Y-76931387D02*
G75*
G02*
X136098747Y-76931387I-100000J0D01*
G01*
X136098747Y-76931387D02*
G75*
G02*
X136298747Y-76931387I100000J0D01*
G01*
%TO.C,Q25*%
X136588747Y-94591387D02*
G75*
G02*
X136388747Y-94591387I-100000J0D01*
G01*
X136388747Y-94591387D02*
G75*
G02*
X136588747Y-94591387I100000J0D01*
G01*
%TO.C,C78*%
D14*
X147261253Y-91532639D02*
X147261253Y-91010135D01*
X148731253Y-91532639D02*
X148731253Y-91010135D01*
%TO.C,U17*%
X151646253Y-93586387D02*
X152946253Y-93586387D01*
X151646253Y-95906387D02*
X152696253Y-95906387D01*
X153056253Y-95906387D02*
X153336253Y-95906387D01*
X153056253Y-96186387D01*
X153056253Y-95906387D01*
G36*
X153056253Y-96186387D02*
G01*
X153056253Y-95906387D01*
X153336253Y-95906387D01*
X153056253Y-96186387D01*
G37*
%TO.C,Q19*%
D10*
X136588747Y-81591387D02*
G75*
G02*
X136388747Y-81591387I-100000J0D01*
G01*
X136388747Y-81591387D02*
G75*
G02*
X136588747Y-81591387I100000J0D01*
G01*
%TO.C,C121*%
D14*
X156285001Y-83536387D02*
X157707505Y-83536387D01*
X156285001Y-86256387D02*
X157707505Y-86256387D01*
%TO.C,Q12*%
D10*
X163993759Y-94711387D02*
G75*
G02*
X163793759Y-94711387I-100000J0D01*
G01*
X163793759Y-94711387D02*
G75*
G02*
X163993759Y-94711387I100000J0D01*
G01*
%TO.C,C145*%
D14*
X156282507Y-96511387D02*
X157705011Y-96511387D01*
X156282507Y-99231387D02*
X157705011Y-99231387D01*
%TO.C,Q8*%
D10*
X165996253Y-81436387D02*
G75*
G02*
X165796253Y-81436387I-100000J0D01*
G01*
X165796253Y-81436387D02*
G75*
G02*
X165996253Y-81436387I100000J0D01*
G01*
%TO.C,Q7*%
X163706253Y-85226387D02*
G75*
G02*
X163506253Y-85226387I-100000J0D01*
G01*
X163506253Y-85226387D02*
G75*
G02*
X163706253Y-85226387I100000J0D01*
G01*
%TO.C,C137*%
D14*
X156282507Y-90111387D02*
X157705011Y-90111387D01*
X156282507Y-92831387D02*
X157705011Y-92831387D01*
%TO.C,C114*%
X156285001Y-80336387D02*
X157707505Y-80336387D01*
X156285001Y-83056387D02*
X157707505Y-83056387D01*
%TO.C,Q27*%
D10*
X136588747Y-91091387D02*
G75*
G02*
X136388747Y-91091387I-100000J0D01*
G01*
X136388747Y-91091387D02*
G75*
G02*
X136588747Y-91091387I100000J0D01*
G01*
%TO.C,C79*%
D14*
X152111253Y-99035135D02*
X152111253Y-99557639D01*
X153581253Y-99035135D02*
X153581253Y-99557639D01*
%TO.C,Q28*%
D10*
X136298747Y-89931387D02*
G75*
G02*
X136098747Y-89931387I-100000J0D01*
G01*
X136098747Y-89931387D02*
G75*
G02*
X136298747Y-89931387I100000J0D01*
G01*
%TO.C,C77*%
D14*
X149233753Y-91532639D02*
X149233753Y-91010135D01*
X150703753Y-91532639D02*
X150703753Y-91010135D01*
%TO.C,Q6*%
D10*
X163996253Y-81736387D02*
G75*
G02*
X163796253Y-81736387I-100000J0D01*
G01*
X163796253Y-81736387D02*
G75*
G02*
X163996253Y-81736387I100000J0D01*
G01*
%TO.C,Q16*%
X163993759Y-102861387D02*
G75*
G02*
X163793759Y-102861387I-100000J0D01*
G01*
X163793759Y-102861387D02*
G75*
G02*
X163993759Y-102861387I100000J0D01*
G01*
%TO.C,Q15*%
X163703759Y-101701387D02*
G75*
G02*
X163503759Y-101701387I-100000J0D01*
G01*
X163503759Y-101701387D02*
G75*
G02*
X163703759Y-101701387I100000J0D01*
G01*
%TD*%
M02*
