%TF.GenerationSoftware,KiCad,Pcbnew,8.0.1-8.0.1-1~ubuntu22.04.1*%
%TF.CreationDate,2024-03-26T19:18:49+01:00*%
%TF.ProjectId,espdrone,65737064-726f-46e6-952e-6b696361645f,rev?*%
%TF.SameCoordinates,Original*%
%TF.FileFunction,Copper,L2,Inr*%
%TF.FilePolarity,Positive*%
%FSLAX46Y46*%
G04 Gerber Fmt 4.6, Leading zero omitted, Abs format (unit mm)*
G04 Created by KiCad (PCBNEW 8.0.1-8.0.1-1~ubuntu22.04.1) date 2024-03-26 19:18:49*
%MOMM*%
%LPD*%
G01*
G04 APERTURE LIST*
%TA.AperFunction,WasherPad*%
%ADD10C,1.300000*%
%TD*%
%TA.AperFunction,ComponentPad*%
%ADD11C,1.000000*%
%TD*%
%TA.AperFunction,ComponentPad*%
%ADD12C,0.700000*%
%TD*%
%TA.AperFunction,ComponentPad*%
%ADD13O,2.000000X1.100000*%
%TD*%
%TA.AperFunction,ComponentPad*%
%ADD14O,1.800000X1.200000*%
%TD*%
%TA.AperFunction,ComponentPad*%
%ADD15C,3.800000*%
%TD*%
%TA.AperFunction,ViaPad*%
%ADD16C,0.700000*%
%TD*%
%TA.AperFunction,ViaPad*%
%ADD17C,1.000000*%
%TD*%
%TA.AperFunction,ViaPad*%
%ADD18C,1.500000*%
%TD*%
G04 APERTURE END LIST*
D10*
%TO.N,*%
%TO.C,REF\u002A\u002A*%
X144250000Y-129500000D03*
%TD*%
D11*
%TO.N,*%
%TO.C,Card1*%
X120400000Y-94600000D03*
X120400000Y-86600000D03*
%TD*%
%TO.N,*%
%TO.C,BAT_PWR*%
X77750000Y-87500000D03*
X80750000Y-87500000D03*
%TD*%
D12*
%TO.N,*%
%TO.C,USB1*%
X80420000Y-73910000D03*
X80420000Y-79690000D03*
D13*
%TO.N,unconnected-(USB1-SHELL-Pad13)_0*%
X80950000Y-72480000D03*
D14*
%TO.N,unconnected-(USB1-SHELL-Pad13)*%
X76740000Y-72480000D03*
D13*
%TO.N,unconnected-(USB1-SHELL-Pad14)_0*%
X80950000Y-81120000D03*
D14*
%TO.N,unconnected-(USB1-SHELL-Pad14)*%
X76740000Y-81120000D03*
%TD*%
D15*
%TO.N,GND*%
%TO.C,TP10*%
X81250000Y-97400000D03*
%TD*%
%TO.N,+BATT*%
%TO.C,TP9*%
X86500000Y-97400000D03*
%TD*%
D10*
%TO.N,*%
%TO.C,REF\u002A\u002A*%
X144250000Y-39750000D03*
%TD*%
D16*
%TO.N,+3V3*%
X134750000Y-52750000D03*
X107994975Y-90605025D03*
X119600000Y-65800000D03*
X113000000Y-64100000D03*
X119400000Y-72100000D03*
X110200000Y-106000000D03*
D17*
X82800000Y-68800000D03*
D16*
X135800000Y-117500000D03*
D17*
X111200000Y-76500000D03*
X93000000Y-62600000D03*
X82800000Y-67600000D03*
D16*
X93100000Y-97600000D03*
X108200000Y-99800000D03*
X65000000Y-117000000D03*
X107500000Y-96300000D03*
X67026346Y-120487054D03*
X99100000Y-94900000D03*
X132000000Y-119500000D03*
X67500000Y-50250000D03*
X106070000Y-90858619D03*
X133700000Y-47900000D03*
D17*
X85580000Y-66860000D03*
D16*
X63976894Y-52075000D03*
D17*
%TO.N,VBUS*%
X87100000Y-78800000D03*
X93248959Y-81451041D03*
X106400000Y-74900000D03*
X83200000Y-74990000D03*
X93400000Y-77200000D03*
X89700000Y-80900000D03*
X83200000Y-78590000D03*
D16*
%TO.N,+2V8*%
X97354561Y-86727524D03*
X96700000Y-84992344D03*
X93250000Y-85500000D03*
D17*
X105400000Y-97100000D03*
D16*
X101100000Y-92500000D03*
%TO.N,+1V2*%
X96775286Y-88356628D03*
X93100000Y-88600000D03*
X99968211Y-98400000D03*
X97305419Y-90026461D03*
D18*
%TO.N,+BATT*%
X85500000Y-94800000D03*
X64400000Y-56600000D03*
X71900000Y-120600000D03*
X89300000Y-95800000D03*
X87400000Y-94800000D03*
X135700000Y-113100000D03*
X127600000Y-49100000D03*
X89300000Y-97800000D03*
D16*
%TO.N,Net-(D2-DIN)*%
X120250000Y-80000000D03*
X138250000Y-117500000D03*
X136844975Y-52905025D03*
X138250000Y-114250000D03*
%TO.N,Net-(D3-DIN)*%
X113250000Y-105750000D03*
X66200000Y-121950000D03*
X87500000Y-107750000D03*
X137250000Y-118277817D03*
%TO.N,Net-(D4-DIN)*%
X79750000Y-82500000D03*
X67969975Y-120769975D03*
X62500000Y-51100000D03*
X75250000Y-70250000D03*
%TO.N,/LEDD*%
X89750000Y-65250000D03*
X63276894Y-53376894D03*
D17*
%TO.N,/SIOC*%
X107400000Y-101500000D03*
D16*
X103900000Y-102900000D03*
%TO.N,/SIOD*%
X108900000Y-86200000D03*
X110000000Y-103900000D03*
D17*
%TO.N,/PCLK*%
X96100000Y-102500000D03*
D16*
X96900000Y-81000000D03*
%TO.N,/RESETB*%
X100700000Y-94900000D03*
X101700000Y-102400000D03*
%TO.N,/SD_CLK*%
X93800000Y-70000000D03*
X108000000Y-91800000D03*
%TO.N,/SD_DAT1*%
X93750000Y-73150000D03*
X108000000Y-95100000D03*
%TO.N,/SD_DAT0*%
X93800000Y-71600000D03*
X107974070Y-93794154D03*
%TO.N,/SD_CMD*%
X93800000Y-68600000D03*
X108000000Y-89600000D03*
%TO.N,/SD_DAT3*%
X93800000Y-67500000D03*
X107900000Y-88500000D03*
%TO.N,/SD_DAT2*%
X93800000Y-66300000D03*
X108010000Y-87410000D03*
%TO.N,/USB_D-*%
X87800000Y-75600000D03*
X89500000Y-76690000D03*
%TO.N,/USB_D+*%
X86800000Y-75600000D03*
X89500000Y-77690000D03*
%TO.N,/MOT4*%
X76500000Y-55500000D03*
X94700000Y-61300000D03*
%TO.N,Net-(U1-GPIO0{slash}BOOT)*%
X118300000Y-79800000D03*
X108750000Y-79250000D03*
%TO.N,GND*%
X100600000Y-96600000D03*
X106400000Y-92859318D03*
X82855000Y-73245000D03*
D17*
X85580000Y-65060000D03*
X129400000Y-110200000D03*
D16*
X83000000Y-80400000D03*
D17*
X97500000Y-102600000D03*
X79300000Y-66800000D03*
X67200000Y-110600000D03*
X83187500Y-87400000D03*
X75800000Y-110700000D03*
X69500000Y-59250000D03*
D16*
X68000000Y-119750000D03*
X89500000Y-92250000D03*
X132000000Y-50000000D03*
D17*
X110900000Y-68700000D03*
D16*
X135900000Y-51700000D03*
D17*
X125600000Y-117400000D03*
D16*
X64750000Y-53000000D03*
D17*
X103400000Y-93400000D03*
D16*
X99550000Y-92550000D03*
D17*
X132500000Y-59100000D03*
D16*
X93100000Y-99200000D03*
D17*
X74500000Y-54250000D03*
X105500000Y-99400000D03*
D16*
X134750000Y-116750000D03*
D17*
X94200000Y-62600000D03*
X125700000Y-54400000D03*
D16*
X117200000Y-64900000D03*
X66800000Y-49500000D03*
D17*
X84695836Y-93054164D03*
D16*
X63732457Y-118030324D03*
X132800000Y-120800000D03*
D17*
X106800000Y-61300000D03*
X87100000Y-73400000D03*
D16*
X113100000Y-104300000D03*
X89500000Y-88000000D03*
X119400000Y-78200000D03*
%TO.N,/IMU_SDA*%
X105700000Y-66300000D03*
%TO.N,/IMU_SCL*%
X104700000Y-66300000D03*
%TO.N,/GPIO_E*%
X107200000Y-73300000D03*
X117400000Y-72500000D03*
X111200000Y-71700000D03*
%TO.N,Net-(J4-Pin_8)*%
X107200000Y-66400000D03*
%TO.N,Net-(J4-Pin_7)*%
X110500000Y-67100000D03*
%TD*%
%TA.AperFunction,Conductor*%
%TO.N,GND*%
G36*
X130607565Y-44566731D02*
G01*
X130625413Y-44580060D01*
X133283759Y-46965755D01*
X133320505Y-47025181D01*
X133319289Y-47095040D01*
X133280498Y-47153152D01*
X133273824Y-47158359D01*
X133127768Y-47264475D01*
X133008140Y-47397336D01*
X132918750Y-47552164D01*
X132918747Y-47552170D01*
X132863504Y-47722192D01*
X132863503Y-47722194D01*
X132844815Y-47900000D01*
X132863503Y-48077805D01*
X132863504Y-48077807D01*
X132918747Y-48247829D01*
X132918750Y-48247835D01*
X133008141Y-48402665D01*
X133037698Y-48435491D01*
X133127764Y-48535521D01*
X133127767Y-48535523D01*
X133127770Y-48535526D01*
X133272407Y-48640612D01*
X133435733Y-48713329D01*
X133610609Y-48750500D01*
X133610610Y-48750500D01*
X133789389Y-48750500D01*
X133789391Y-48750500D01*
X133964267Y-48713329D01*
X134127593Y-48640612D01*
X134272230Y-48535526D01*
X134391859Y-48402665D01*
X134481250Y-48247835D01*
X134481249Y-48247835D01*
X134483693Y-48243604D01*
X134534260Y-48195388D01*
X134602867Y-48182165D01*
X134667732Y-48208133D01*
X134673901Y-48213318D01*
X140297633Y-53260257D01*
X140334379Y-53319683D01*
X140338811Y-53353029D01*
X140328448Y-55995701D01*
X140308501Y-56062663D01*
X140292130Y-56082896D01*
X124615489Y-71759540D01*
X124559541Y-71815487D01*
X124559535Y-71815495D01*
X124519982Y-71884004D01*
X124519979Y-71884009D01*
X124514834Y-71903211D01*
X124499500Y-71960438D01*
X124499500Y-97639562D01*
X124504813Y-97659389D01*
X124519979Y-97715991D01*
X124519981Y-97715994D01*
X124547970Y-97764471D01*
X124547970Y-97764472D01*
X124547971Y-97764472D01*
X124547972Y-97764474D01*
X124559540Y-97784511D01*
X132272364Y-105497336D01*
X140067092Y-113292064D01*
X140100577Y-113353387D01*
X140103410Y-113380231D01*
X140089234Y-116995174D01*
X140069287Y-117062136D01*
X140051514Y-117083750D01*
X139283309Y-117827949D01*
X139221462Y-117860456D01*
X139151858Y-117854366D01*
X139096596Y-117811613D01*
X139073221Y-117745769D01*
X139079099Y-117700570D01*
X139086497Y-117677803D01*
X139105185Y-117500000D01*
X139086497Y-117322197D01*
X139039581Y-117177805D01*
X139031252Y-117152170D01*
X139031249Y-117152164D01*
X138941859Y-116997335D01*
X138895003Y-116945296D01*
X138822235Y-116864478D01*
X138822232Y-116864476D01*
X138822231Y-116864475D01*
X138822230Y-116864474D01*
X138677593Y-116759388D01*
X138514267Y-116686671D01*
X138514265Y-116686670D01*
X138351952Y-116652170D01*
X138339391Y-116649500D01*
X138160609Y-116649500D01*
X138148048Y-116652170D01*
X137985733Y-116686670D01*
X137985728Y-116686672D01*
X137822408Y-116759387D01*
X137677768Y-116864475D01*
X137558140Y-116997336D01*
X137468750Y-117152164D01*
X137468747Y-117152170D01*
X137413504Y-117322192D01*
X137412153Y-117328551D01*
X137409312Y-117327947D01*
X137387581Y-117380844D01*
X137330304Y-117420858D01*
X137290805Y-117427317D01*
X137160609Y-117427317D01*
X137129954Y-117433832D01*
X136985733Y-117464487D01*
X136822311Y-117537248D01*
X136753061Y-117546532D01*
X136689785Y-117516904D01*
X136652572Y-117457769D01*
X136648557Y-117436939D01*
X136636497Y-117322197D01*
X136589581Y-117177805D01*
X136581252Y-117152170D01*
X136581249Y-117152164D01*
X136491859Y-116997335D01*
X136445003Y-116945296D01*
X136372235Y-116864478D01*
X136372232Y-116864476D01*
X136372231Y-116864475D01*
X136372230Y-116864474D01*
X136227593Y-116759388D01*
X136064267Y-116686671D01*
X136064265Y-116686670D01*
X135901952Y-116652170D01*
X135889391Y-116649500D01*
X135710609Y-116649500D01*
X135698048Y-116652170D01*
X135535733Y-116686670D01*
X135535728Y-116686672D01*
X135372408Y-116759387D01*
X135227768Y-116864475D01*
X135108140Y-116997336D01*
X135018750Y-117152164D01*
X135018747Y-117152170D01*
X134963504Y-117322192D01*
X134963503Y-117322194D01*
X134944815Y-117500000D01*
X134963503Y-117677805D01*
X134963504Y-117677807D01*
X135018747Y-117847829D01*
X135018750Y-117847835D01*
X135108141Y-118002665D01*
X135149812Y-118048946D01*
X135227764Y-118135521D01*
X135227767Y-118135523D01*
X135227770Y-118135526D01*
X135372407Y-118240612D01*
X135535733Y-118313329D01*
X135710609Y-118350500D01*
X135710610Y-118350500D01*
X135889389Y-118350500D01*
X135889391Y-118350500D01*
X136064267Y-118313329D01*
X136227593Y-118240612D01*
X136227597Y-118240609D01*
X136227687Y-118240569D01*
X136296937Y-118231284D01*
X136360214Y-118260912D01*
X136397427Y-118320047D01*
X136401443Y-118340884D01*
X136405286Y-118377443D01*
X136413503Y-118455621D01*
X136413504Y-118455624D01*
X136468747Y-118625646D01*
X136468750Y-118625652D01*
X136558141Y-118780482D01*
X136573018Y-118797004D01*
X136677764Y-118913338D01*
X136677767Y-118913340D01*
X136677770Y-118913343D01*
X136822407Y-119018429D01*
X136985733Y-119091146D01*
X137160609Y-119128317D01*
X137160610Y-119128317D01*
X137339389Y-119128317D01*
X137339391Y-119128317D01*
X137514267Y-119091146D01*
X137677593Y-119018429D01*
X137766313Y-118953969D01*
X137832118Y-118930489D01*
X137900172Y-118946314D01*
X137948867Y-118996419D01*
X137962743Y-119064897D01*
X137937395Y-119130006D01*
X137925477Y-119143349D01*
X132125901Y-124761689D01*
X132064054Y-124794196D01*
X132037700Y-124796612D01*
X128008570Y-124734143D01*
X127941843Y-124713422D01*
X127922811Y-124697839D01*
X122724971Y-119500000D01*
X131144815Y-119500000D01*
X131163503Y-119677805D01*
X131163504Y-119677807D01*
X131218747Y-119847829D01*
X131218750Y-119847835D01*
X131308141Y-120002665D01*
X131332180Y-120029363D01*
X131427764Y-120135521D01*
X131427767Y-120135523D01*
X131427770Y-120135526D01*
X131572407Y-120240612D01*
X131735733Y-120313329D01*
X131910609Y-120350500D01*
X131910610Y-120350500D01*
X132089389Y-120350500D01*
X132089391Y-120350500D01*
X132264267Y-120313329D01*
X132427593Y-120240612D01*
X132572230Y-120135526D01*
X132573197Y-120134453D01*
X132619248Y-120083307D01*
X132691859Y-120002665D01*
X132781250Y-119847835D01*
X132836497Y-119677803D01*
X132855185Y-119500000D01*
X132836497Y-119322197D01*
X132781250Y-119152165D01*
X132691859Y-118997335D01*
X132645003Y-118945296D01*
X132572235Y-118864478D01*
X132572232Y-118864476D01*
X132572231Y-118864475D01*
X132572230Y-118864474D01*
X132427593Y-118759388D01*
X132264267Y-118686671D01*
X132264265Y-118686670D01*
X132136594Y-118659533D01*
X132089391Y-118649500D01*
X131910609Y-118649500D01*
X131879954Y-118656015D01*
X131735733Y-118686670D01*
X131735728Y-118686672D01*
X131572408Y-118759387D01*
X131427768Y-118864475D01*
X131308140Y-118997336D01*
X131218750Y-119152164D01*
X131218747Y-119152170D01*
X131163504Y-119322192D01*
X131163503Y-119322194D01*
X131144815Y-119500000D01*
X122724971Y-119500000D01*
X120553522Y-117328551D01*
X116324973Y-113100002D01*
X134444723Y-113100002D01*
X134463793Y-113317975D01*
X134463793Y-113317979D01*
X134520422Y-113529322D01*
X134520424Y-113529326D01*
X134520425Y-113529330D01*
X134560128Y-113614474D01*
X134612897Y-113727638D01*
X134612898Y-113727639D01*
X134738402Y-113906877D01*
X134893123Y-114061598D01*
X135072361Y-114187102D01*
X135270670Y-114279575D01*
X135482023Y-114336207D01*
X135664926Y-114352208D01*
X135699998Y-114355277D01*
X135700000Y-114355277D01*
X135700002Y-114355277D01*
X135728254Y-114352805D01*
X135917977Y-114336207D01*
X136129330Y-114279575D01*
X136192754Y-114250000D01*
X137394815Y-114250000D01*
X137413503Y-114427805D01*
X137413504Y-114427807D01*
X137468747Y-114597829D01*
X137468750Y-114597835D01*
X137558141Y-114752665D01*
X137599812Y-114798946D01*
X137677764Y-114885521D01*
X137677767Y-114885523D01*
X137677770Y-114885526D01*
X137822407Y-114990612D01*
X137985733Y-115063329D01*
X138160609Y-115100500D01*
X138160610Y-115100500D01*
X138339389Y-115100500D01*
X138339391Y-115100500D01*
X138514267Y-115063329D01*
X138677593Y-114990612D01*
X138822230Y-114885526D01*
X138941859Y-114752665D01*
X139031250Y-114597835D01*
X139086497Y-114427803D01*
X139105185Y-114250000D01*
X139086497Y-114072197D01*
X139058873Y-113987181D01*
X139031252Y-113902170D01*
X139031249Y-113902164D01*
X138941859Y-113747335D01*
X138895003Y-113695296D01*
X138822235Y-113614478D01*
X138822232Y-113614476D01*
X138822231Y-113614475D01*
X138822230Y-113614474D01*
X138677593Y-113509388D01*
X138514267Y-113436671D01*
X138514265Y-113436670D01*
X138386594Y-113409533D01*
X138339391Y-113399500D01*
X138160609Y-113399500D01*
X138129954Y-113406015D01*
X137985733Y-113436670D01*
X137985728Y-113436672D01*
X137822408Y-113509387D01*
X137677768Y-113614475D01*
X137558140Y-113747336D01*
X137468750Y-113902164D01*
X137468747Y-113902170D01*
X137413504Y-114072192D01*
X137413503Y-114072194D01*
X137394815Y-114250000D01*
X136192754Y-114250000D01*
X136327639Y-114187102D01*
X136506877Y-114061598D01*
X136661598Y-113906877D01*
X136787102Y-113727639D01*
X136879575Y-113529330D01*
X136936207Y-113317977D01*
X136955277Y-113100000D01*
X136936207Y-112882023D01*
X136879575Y-112670670D01*
X136787102Y-112472362D01*
X136787100Y-112472359D01*
X136787099Y-112472357D01*
X136661599Y-112293124D01*
X136661596Y-112293121D01*
X136506877Y-112138402D01*
X136327639Y-112012898D01*
X136327640Y-112012898D01*
X136327638Y-112012897D01*
X136228484Y-111966661D01*
X136129330Y-111920425D01*
X136129326Y-111920424D01*
X136129322Y-111920422D01*
X135917977Y-111863793D01*
X135700002Y-111844723D01*
X135699998Y-111844723D01*
X135554682Y-111857436D01*
X135482023Y-111863793D01*
X135482020Y-111863793D01*
X135270677Y-111920422D01*
X135270668Y-111920426D01*
X135072361Y-112012898D01*
X135072357Y-112012900D01*
X134893121Y-112138402D01*
X134738402Y-112293121D01*
X134612900Y-112472357D01*
X134612898Y-112472361D01*
X134520426Y-112670668D01*
X134520422Y-112670677D01*
X134463793Y-112882020D01*
X134463793Y-112882024D01*
X134444723Y-113099997D01*
X134444723Y-113100002D01*
X116324973Y-113100002D01*
X113184511Y-109959540D01*
X113184509Y-109959539D01*
X113184504Y-109959535D01*
X113115995Y-109919982D01*
X113115990Y-109919979D01*
X113090513Y-109913152D01*
X113039562Y-109899500D01*
X86639562Y-109899500D01*
X86560438Y-109899500D01*
X86484010Y-109919978D01*
X86415489Y-109959540D01*
X86415486Y-109959542D01*
X72538575Y-123836450D01*
X72477252Y-123869935D01*
X72448972Y-123872754D01*
X67637908Y-123798165D01*
X67571182Y-123777444D01*
X67553818Y-123763500D01*
X66627080Y-122871085D01*
X66592445Y-122810404D01*
X66596113Y-122740631D01*
X66636922Y-122683917D01*
X66640165Y-122681477D01*
X66772230Y-122585526D01*
X66891859Y-122452665D01*
X66981250Y-122297835D01*
X67036497Y-122127803D01*
X67055185Y-121950000D01*
X67036497Y-121772197D01*
X66997998Y-121653709D01*
X66981252Y-121602170D01*
X66981249Y-121602164D01*
X66970360Y-121583304D01*
X66935864Y-121523554D01*
X66919391Y-121455653D01*
X66942244Y-121389627D01*
X66997165Y-121346436D01*
X67043251Y-121337554D01*
X67115735Y-121337554D01*
X67115737Y-121337554D01*
X67231065Y-121313040D01*
X67300730Y-121318356D01*
X67348992Y-121351355D01*
X67397745Y-121405501D01*
X67542382Y-121510587D01*
X67705708Y-121583304D01*
X67880584Y-121620475D01*
X67880585Y-121620475D01*
X68059364Y-121620475D01*
X68059366Y-121620475D01*
X68234242Y-121583304D01*
X68397568Y-121510587D01*
X68542205Y-121405501D01*
X68661834Y-121272640D01*
X68751225Y-121117810D01*
X68806472Y-120947778D01*
X68825160Y-120769975D01*
X68807295Y-120600000D01*
X70644723Y-120600000D01*
X70659593Y-120769975D01*
X70663793Y-120817975D01*
X70663793Y-120817979D01*
X70720422Y-121029322D01*
X70720424Y-121029326D01*
X70720425Y-121029330D01*
X70728864Y-121047427D01*
X70812897Y-121227638D01*
X70812898Y-121227639D01*
X70938402Y-121406877D01*
X71093123Y-121561598D01*
X71272361Y-121687102D01*
X71470670Y-121779575D01*
X71682023Y-121836207D01*
X71864926Y-121852208D01*
X71899998Y-121855277D01*
X71900000Y-121855277D01*
X71900002Y-121855277D01*
X71928254Y-121852805D01*
X72117977Y-121836207D01*
X72329330Y-121779575D01*
X72527639Y-121687102D01*
X72706877Y-121561598D01*
X72861598Y-121406877D01*
X72987102Y-121227639D01*
X73079575Y-121029330D01*
X73136207Y-120817977D01*
X73155277Y-120600000D01*
X73136207Y-120382023D01*
X73079575Y-120170670D01*
X72987102Y-119972362D01*
X72987100Y-119972359D01*
X72987099Y-119972357D01*
X72861599Y-119793124D01*
X72814916Y-119746441D01*
X72706877Y-119638402D01*
X72527639Y-119512898D01*
X72527640Y-119512898D01*
X72527638Y-119512897D01*
X72428484Y-119466661D01*
X72329330Y-119420425D01*
X72329326Y-119420424D01*
X72329322Y-119420422D01*
X72117977Y-119363793D01*
X71900002Y-119344723D01*
X71899998Y-119344723D01*
X71754682Y-119357436D01*
X71682023Y-119363793D01*
X71682020Y-119363793D01*
X71470677Y-119420422D01*
X71470668Y-119420426D01*
X71272361Y-119512898D01*
X71272357Y-119512900D01*
X71093121Y-119638402D01*
X70938402Y-119793121D01*
X70812900Y-119972357D01*
X70812898Y-119972361D01*
X70720426Y-120170668D01*
X70720422Y-120170677D01*
X70663793Y-120382020D01*
X70663793Y-120382023D01*
X70644723Y-120600000D01*
X68807295Y-120600000D01*
X68806472Y-120592172D01*
X68751225Y-120422140D01*
X68661834Y-120267310D01*
X68614978Y-120215271D01*
X68542210Y-120134453D01*
X68542207Y-120134451D01*
X68542206Y-120134450D01*
X68542205Y-120134449D01*
X68397568Y-120029363D01*
X68234242Y-119956646D01*
X68234240Y-119956645D01*
X68106569Y-119929508D01*
X68059366Y-119919475D01*
X67880584Y-119919475D01*
X67880583Y-119919475D01*
X67765256Y-119943988D01*
X67695589Y-119938672D01*
X67647326Y-119905670D01*
X67598580Y-119851532D01*
X67598578Y-119851530D01*
X67598577Y-119851529D01*
X67598576Y-119851528D01*
X67453939Y-119746442D01*
X67290613Y-119673725D01*
X67290611Y-119673724D01*
X67162940Y-119646587D01*
X67115737Y-119636554D01*
X66936955Y-119636554D01*
X66906300Y-119643069D01*
X66762079Y-119673724D01*
X66762074Y-119673726D01*
X66598754Y-119746441D01*
X66454114Y-119851529D01*
X66334486Y-119984390D01*
X66245096Y-120139218D01*
X66245093Y-120139224D01*
X66189850Y-120309246D01*
X66189849Y-120309248D01*
X66171161Y-120487054D01*
X66189849Y-120664859D01*
X66189850Y-120664861D01*
X66245093Y-120834883D01*
X66245096Y-120834889D01*
X66290482Y-120913500D01*
X66306955Y-120981401D01*
X66284102Y-121047427D01*
X66229181Y-121090618D01*
X66183095Y-121099500D01*
X66110609Y-121099500D01*
X66079954Y-121106015D01*
X65935733Y-121136670D01*
X65935728Y-121136672D01*
X65772408Y-121209387D01*
X65627768Y-121314475D01*
X65508139Y-121447336D01*
X65458902Y-121532618D01*
X65408335Y-121580834D01*
X65339728Y-121594056D01*
X65274863Y-121568088D01*
X65265503Y-121559938D01*
X65237132Y-121532618D01*
X60876407Y-117333401D01*
X60841773Y-117272721D01*
X60838429Y-117245526D01*
X60836134Y-117047408D01*
X60835585Y-117000000D01*
X64144815Y-117000000D01*
X64163503Y-117177805D01*
X64163504Y-117177807D01*
X64218747Y-117347829D01*
X64218750Y-117347835D01*
X64308141Y-117502665D01*
X64320962Y-117516904D01*
X64427764Y-117635521D01*
X64427767Y-117635523D01*
X64427770Y-117635526D01*
X64572407Y-117740612D01*
X64735733Y-117813329D01*
X64910609Y-117850500D01*
X64910610Y-117850500D01*
X65089389Y-117850500D01*
X65089391Y-117850500D01*
X65264267Y-117813329D01*
X65427593Y-117740612D01*
X65572230Y-117635526D01*
X65691859Y-117502665D01*
X65781250Y-117347835D01*
X65836497Y-117177803D01*
X65855185Y-117000000D01*
X65836497Y-116822197D01*
X65792462Y-116686671D01*
X65781252Y-116652170D01*
X65781249Y-116652164D01*
X65779711Y-116649500D01*
X65691859Y-116497335D01*
X65645003Y-116445296D01*
X65572235Y-116364478D01*
X65572232Y-116364476D01*
X65572231Y-116364475D01*
X65572230Y-116364474D01*
X65427593Y-116259388D01*
X65264267Y-116186671D01*
X65264265Y-116186670D01*
X65136594Y-116159533D01*
X65089391Y-116149500D01*
X64910609Y-116149500D01*
X64879954Y-116156015D01*
X64735733Y-116186670D01*
X64735728Y-116186672D01*
X64572408Y-116259387D01*
X64427768Y-116364475D01*
X64308140Y-116497336D01*
X64218750Y-116652164D01*
X64218747Y-116652170D01*
X64163504Y-116822192D01*
X64163503Y-116822194D01*
X64144815Y-117000000D01*
X60835585Y-117000000D01*
X60778815Y-112098958D01*
X60797722Y-112031698D01*
X60815119Y-112009852D01*
X65722300Y-107102671D01*
X76695500Y-107102671D01*
X76727621Y-107305472D01*
X76791070Y-107500751D01*
X76791071Y-107500754D01*
X76884291Y-107683707D01*
X77004983Y-107849825D01*
X77150175Y-107995017D01*
X77316293Y-108115709D01*
X77406026Y-108161430D01*
X77499245Y-108208928D01*
X77499248Y-108208929D01*
X77596887Y-108240653D01*
X77694529Y-108272379D01*
X77788457Y-108287255D01*
X77897329Y-108304500D01*
X77897334Y-108304500D01*
X78102671Y-108304500D01*
X78200986Y-108288927D01*
X78305471Y-108272379D01*
X78500754Y-108208928D01*
X78683707Y-108115709D01*
X78849825Y-107995017D01*
X78995017Y-107849825D01*
X79067544Y-107750000D01*
X86644815Y-107750000D01*
X86663503Y-107927805D01*
X86663504Y-107927807D01*
X86718747Y-108097829D01*
X86718750Y-108097835D01*
X86808141Y-108252665D01*
X86825891Y-108272378D01*
X86927764Y-108385521D01*
X86927767Y-108385523D01*
X86927770Y-108385526D01*
X87072407Y-108490612D01*
X87235733Y-108563329D01*
X87410609Y-108600500D01*
X87410610Y-108600500D01*
X87589389Y-108600500D01*
X87589391Y-108600500D01*
X87764267Y-108563329D01*
X87927593Y-108490612D01*
X88072230Y-108385526D01*
X88191859Y-108252665D01*
X88281250Y-108097835D01*
X88336497Y-107927803D01*
X88355185Y-107750000D01*
X88336497Y-107572197D01*
X88281250Y-107402165D01*
X88191859Y-107247335D01*
X88145003Y-107195296D01*
X88072235Y-107114478D01*
X88072232Y-107114476D01*
X88072231Y-107114475D01*
X88072230Y-107114474D01*
X88055985Y-107102671D01*
X120695500Y-107102671D01*
X120727621Y-107305472D01*
X120791070Y-107500751D01*
X120791071Y-107500754D01*
X120884291Y-107683707D01*
X121004983Y-107849825D01*
X121150175Y-107995017D01*
X121316293Y-108115709D01*
X121406026Y-108161430D01*
X121499245Y-108208928D01*
X121499248Y-108208929D01*
X121596887Y-108240653D01*
X121694529Y-108272379D01*
X121788457Y-108287255D01*
X121897329Y-108304500D01*
X121897334Y-108304500D01*
X122102671Y-108304500D01*
X122200986Y-108288927D01*
X122305471Y-108272379D01*
X122500754Y-108208928D01*
X122683707Y-108115709D01*
X122849825Y-107995017D01*
X122995017Y-107849825D01*
X123115709Y-107683707D01*
X123208928Y-107500754D01*
X123272379Y-107305471D01*
X123288927Y-107200986D01*
X123304500Y-107102671D01*
X123304500Y-106897328D01*
X123285813Y-106779349D01*
X123272379Y-106694529D01*
X123210039Y-106502665D01*
X123208929Y-106499248D01*
X123208928Y-106499245D01*
X123115708Y-106316292D01*
X123069480Y-106252665D01*
X122995017Y-106150175D01*
X122849825Y-106004983D01*
X122683707Y-105884291D01*
X122500754Y-105791071D01*
X122500751Y-105791070D01*
X122305472Y-105727621D01*
X122102671Y-105695500D01*
X122102666Y-105695500D01*
X121897334Y-105695500D01*
X121897329Y-105695500D01*
X121694527Y-105727621D01*
X121499248Y-105791070D01*
X121499245Y-105791071D01*
X121316292Y-105884291D01*
X121256404Y-105927803D01*
X121150175Y-106004983D01*
X121150173Y-106004985D01*
X121150172Y-106004985D01*
X121004985Y-106150172D01*
X121004985Y-106150173D01*
X121004983Y-106150175D01*
X120984910Y-106177803D01*
X120884291Y-106316292D01*
X120791071Y-106499245D01*
X120791070Y-106499248D01*
X120727621Y-106694527D01*
X120695500Y-106897328D01*
X120695500Y-107102671D01*
X88055985Y-107102671D01*
X87927593Y-107009388D01*
X87764267Y-106936671D01*
X87764265Y-106936670D01*
X87636594Y-106909533D01*
X87589391Y-106899500D01*
X87410609Y-106899500D01*
X87379954Y-106906015D01*
X87235733Y-106936670D01*
X87235728Y-106936672D01*
X87072408Y-107009387D01*
X86927768Y-107114475D01*
X86808140Y-107247336D01*
X86718750Y-107402164D01*
X86718747Y-107402170D01*
X86663504Y-107572192D01*
X86663503Y-107572194D01*
X86644815Y-107750000D01*
X79067544Y-107750000D01*
X79115709Y-107683707D01*
X79208928Y-107500754D01*
X79272379Y-107305471D01*
X79288927Y-107200986D01*
X79304500Y-107102671D01*
X79304500Y-106897328D01*
X79285813Y-106779349D01*
X79272379Y-106694529D01*
X79210039Y-106502665D01*
X79208929Y-106499248D01*
X79208928Y-106499245D01*
X79115708Y-106316292D01*
X79069480Y-106252665D01*
X78995017Y-106150175D01*
X78849825Y-106004983D01*
X78842967Y-106000000D01*
X109344815Y-106000000D01*
X109363503Y-106177805D01*
X109363504Y-106177807D01*
X109418747Y-106347829D01*
X109418750Y-106347835D01*
X109508141Y-106502665D01*
X109549812Y-106548946D01*
X109627764Y-106635521D01*
X109627767Y-106635523D01*
X109627770Y-106635526D01*
X109772407Y-106740612D01*
X109935733Y-106813329D01*
X110110609Y-106850500D01*
X110110610Y-106850500D01*
X110289389Y-106850500D01*
X110289391Y-106850500D01*
X110464267Y-106813329D01*
X110627593Y-106740612D01*
X110772230Y-106635526D01*
X110891859Y-106502665D01*
X110981250Y-106347835D01*
X111036497Y-106177803D01*
X111055185Y-106000000D01*
X111036497Y-105822197D01*
X111013038Y-105750000D01*
X112394815Y-105750000D01*
X112413503Y-105927805D01*
X112413504Y-105927807D01*
X112468747Y-106097829D01*
X112468750Y-106097835D01*
X112558141Y-106252665D01*
X112599812Y-106298946D01*
X112677764Y-106385521D01*
X112677767Y-106385523D01*
X112677770Y-106385526D01*
X112822407Y-106490612D01*
X112985733Y-106563329D01*
X113160609Y-106600500D01*
X113160610Y-106600500D01*
X113339389Y-106600500D01*
X113339391Y-106600500D01*
X113514267Y-106563329D01*
X113677593Y-106490612D01*
X113822230Y-106385526D01*
X113941859Y-106252665D01*
X114031250Y-106097835D01*
X114086497Y-105927803D01*
X114105185Y-105750000D01*
X114086497Y-105572197D01*
X114031250Y-105402165D01*
X113941859Y-105247335D01*
X113853768Y-105149500D01*
X113822235Y-105114478D01*
X113822232Y-105114476D01*
X113822231Y-105114475D01*
X113822230Y-105114474D01*
X113677593Y-105009388D01*
X113514267Y-104936671D01*
X113514265Y-104936670D01*
X113386594Y-104909533D01*
X113339391Y-104899500D01*
X113160609Y-104899500D01*
X113129954Y-104906015D01*
X112985733Y-104936670D01*
X112985728Y-104936672D01*
X112822408Y-105009387D01*
X112677768Y-105114475D01*
X112558140Y-105247336D01*
X112468750Y-105402164D01*
X112468747Y-105402170D01*
X112413504Y-105572192D01*
X112413503Y-105572194D01*
X112394815Y-105750000D01*
X111013038Y-105750000D01*
X111005767Y-105727621D01*
X110981252Y-105652170D01*
X110981249Y-105652164D01*
X110891859Y-105497335D01*
X110806172Y-105402170D01*
X110772235Y-105364478D01*
X110772232Y-105364476D01*
X110772231Y-105364475D01*
X110772230Y-105364474D01*
X110627593Y-105259388D01*
X110464267Y-105186671D01*
X110464265Y-105186670D01*
X110336594Y-105159533D01*
X110289391Y-105149500D01*
X110110609Y-105149500D01*
X110079954Y-105156015D01*
X109935733Y-105186670D01*
X109935728Y-105186672D01*
X109772408Y-105259387D01*
X109627768Y-105364475D01*
X109508140Y-105497336D01*
X109418750Y-105652164D01*
X109418747Y-105652170D01*
X109363504Y-105822192D01*
X109363503Y-105822194D01*
X109344815Y-106000000D01*
X78842967Y-106000000D01*
X78683707Y-105884291D01*
X78500754Y-105791071D01*
X78500751Y-105791070D01*
X78305472Y-105727621D01*
X78102671Y-105695500D01*
X78102666Y-105695500D01*
X77897334Y-105695500D01*
X77897329Y-105695500D01*
X77694527Y-105727621D01*
X77499248Y-105791070D01*
X77499245Y-105791071D01*
X77316292Y-105884291D01*
X77256404Y-105927803D01*
X77150175Y-106004983D01*
X77150173Y-106004985D01*
X77150172Y-106004985D01*
X77004985Y-106150172D01*
X77004985Y-106150173D01*
X77004983Y-106150175D01*
X76984910Y-106177803D01*
X76884291Y-106316292D01*
X76791071Y-106499245D01*
X76791070Y-106499248D01*
X76727621Y-106694527D01*
X76695500Y-106897328D01*
X76695500Y-107102671D01*
X65722300Y-107102671D01*
X68924971Y-103900000D01*
X109144815Y-103900000D01*
X109163503Y-104077805D01*
X109163504Y-104077807D01*
X109218747Y-104247829D01*
X109218750Y-104247835D01*
X109308141Y-104402665D01*
X109349812Y-104448946D01*
X109427764Y-104535521D01*
X109427767Y-104535523D01*
X109427770Y-104535526D01*
X109572407Y-104640612D01*
X109735733Y-104713329D01*
X109910609Y-104750500D01*
X109910610Y-104750500D01*
X110089389Y-104750500D01*
X110089391Y-104750500D01*
X110264267Y-104713329D01*
X110427593Y-104640612D01*
X110572230Y-104535526D01*
X110691859Y-104402665D01*
X110781250Y-104247835D01*
X110836497Y-104077803D01*
X110855185Y-103900000D01*
X110836497Y-103722197D01*
X110781250Y-103552165D01*
X110691859Y-103397335D01*
X110636554Y-103335913D01*
X110572235Y-103264478D01*
X110572232Y-103264476D01*
X110572231Y-103264475D01*
X110572230Y-103264474D01*
X110427593Y-103159388D01*
X110264267Y-103086671D01*
X110264265Y-103086670D01*
X110131883Y-103058532D01*
X110089391Y-103049500D01*
X109910609Y-103049500D01*
X109879954Y-103056015D01*
X109735733Y-103086670D01*
X109735728Y-103086672D01*
X109572408Y-103159387D01*
X109427768Y-103264475D01*
X109308140Y-103397336D01*
X109218750Y-103552164D01*
X109218747Y-103552170D01*
X109163504Y-103722192D01*
X109163503Y-103722194D01*
X109144815Y-103900000D01*
X68924971Y-103900000D01*
X70324971Y-102500000D01*
X95094659Y-102500000D01*
X95113975Y-102696129D01*
X95171188Y-102884733D01*
X95264086Y-103058532D01*
X95264090Y-103058539D01*
X95389116Y-103210883D01*
X95541460Y-103335909D01*
X95541467Y-103335913D01*
X95715266Y-103428811D01*
X95715269Y-103428811D01*
X95715273Y-103428814D01*
X95903868Y-103486024D01*
X96100000Y-103505341D01*
X96296132Y-103486024D01*
X96484727Y-103428814D01*
X96658538Y-103335910D01*
X96810883Y-103210883D01*
X96935910Y-103058538D01*
X97019227Y-102902663D01*
X97028811Y-102884733D01*
X97028811Y-102884732D01*
X97028814Y-102884727D01*
X97086024Y-102696132D01*
X97105341Y-102500000D01*
X97095492Y-102400000D01*
X100844815Y-102400000D01*
X100863503Y-102577805D01*
X100863504Y-102577807D01*
X100918747Y-102747829D01*
X100918750Y-102747835D01*
X101008141Y-102902665D01*
X101049812Y-102948946D01*
X101127764Y-103035521D01*
X101127767Y-103035523D01*
X101127770Y-103035526D01*
X101272407Y-103140612D01*
X101435733Y-103213329D01*
X101610609Y-103250500D01*
X101610610Y-103250500D01*
X101789389Y-103250500D01*
X101789391Y-103250500D01*
X101964267Y-103213329D01*
X102127593Y-103140612D01*
X102272230Y-103035526D01*
X102391859Y-102902665D01*
X102393398Y-102900000D01*
X103044815Y-102900000D01*
X103063503Y-103077805D01*
X103063504Y-103077807D01*
X103118747Y-103247829D01*
X103118750Y-103247835D01*
X103208141Y-103402665D01*
X103231683Y-103428811D01*
X103327764Y-103535521D01*
X103327767Y-103535523D01*
X103327770Y-103535526D01*
X103472407Y-103640612D01*
X103635733Y-103713329D01*
X103810609Y-103750500D01*
X103810610Y-103750500D01*
X103989389Y-103750500D01*
X103989391Y-103750500D01*
X104164267Y-103713329D01*
X104327593Y-103640612D01*
X104472230Y-103535526D01*
X104591859Y-103402665D01*
X104681250Y-103247835D01*
X104736497Y-103077803D01*
X104755185Y-102900000D01*
X104736497Y-102722197D01*
X104689581Y-102577805D01*
X104681252Y-102552170D01*
X104681249Y-102552164D01*
X104654216Y-102505341D01*
X104591859Y-102397335D01*
X104536554Y-102335913D01*
X104472235Y-102264478D01*
X104472232Y-102264476D01*
X104472231Y-102264475D01*
X104472230Y-102264474D01*
X104327593Y-102159388D01*
X104164267Y-102086671D01*
X104164265Y-102086670D01*
X104001952Y-102052170D01*
X103989391Y-102049500D01*
X103810609Y-102049500D01*
X103798048Y-102052170D01*
X103635733Y-102086670D01*
X103635728Y-102086672D01*
X103472408Y-102159387D01*
X103327768Y-102264475D01*
X103208140Y-102397336D01*
X103118750Y-102552164D01*
X103118747Y-102552170D01*
X103063504Y-102722192D01*
X103063503Y-102722194D01*
X103044815Y-102900000D01*
X102393398Y-102900000D01*
X102481250Y-102747835D01*
X102536497Y-102577803D01*
X102555185Y-102400000D01*
X102536497Y-102222197D01*
X102492462Y-102086671D01*
X102481252Y-102052170D01*
X102481249Y-102052164D01*
X102479711Y-102049500D01*
X102391859Y-101897335D01*
X102345003Y-101845296D01*
X102272235Y-101764478D01*
X102272232Y-101764476D01*
X102272231Y-101764475D01*
X102272230Y-101764474D01*
X102127593Y-101659388D01*
X101964267Y-101586671D01*
X101964265Y-101586670D01*
X101836594Y-101559533D01*
X101789391Y-101549500D01*
X101610609Y-101549500D01*
X101579954Y-101556015D01*
X101435733Y-101586670D01*
X101435728Y-101586672D01*
X101272408Y-101659387D01*
X101127768Y-101764475D01*
X101008140Y-101897336D01*
X100918750Y-102052164D01*
X100918747Y-102052170D01*
X100863504Y-102222192D01*
X100863503Y-102222194D01*
X100844815Y-102400000D01*
X97095492Y-102400000D01*
X97086024Y-102303868D01*
X97028814Y-102115273D01*
X97028811Y-102115269D01*
X97028811Y-102115266D01*
X96935913Y-101941467D01*
X96935909Y-101941460D01*
X96810883Y-101789116D01*
X96658539Y-101664090D01*
X96658532Y-101664086D01*
X96484733Y-101571188D01*
X96484727Y-101571186D01*
X96296132Y-101513976D01*
X96296129Y-101513975D01*
X96154231Y-101500000D01*
X106394659Y-101500000D01*
X106413975Y-101696129D01*
X106471188Y-101884733D01*
X106564086Y-102058532D01*
X106564090Y-102058539D01*
X106689116Y-102210883D01*
X106841460Y-102335909D01*
X106841467Y-102335913D01*
X107015266Y-102428811D01*
X107015269Y-102428811D01*
X107015273Y-102428814D01*
X107203868Y-102486024D01*
X107400000Y-102505341D01*
X107596132Y-102486024D01*
X107784727Y-102428814D01*
X107958538Y-102335910D01*
X108110883Y-102210883D01*
X108235910Y-102058538D01*
X108298486Y-101941467D01*
X108328811Y-101884733D01*
X108328811Y-101884732D01*
X108328814Y-101884727D01*
X108386024Y-101696132D01*
X108405341Y-101500000D01*
X108386024Y-101303868D01*
X108328814Y-101115273D01*
X108328811Y-101115269D01*
X108328811Y-101115266D01*
X108235913Y-100941467D01*
X108235909Y-100941460D01*
X108163447Y-100853165D01*
X108136134Y-100788855D01*
X108147925Y-100719987D01*
X108195077Y-100668427D01*
X108259300Y-100650500D01*
X108289389Y-100650500D01*
X108289391Y-100650500D01*
X108464267Y-100613329D01*
X108627593Y-100540612D01*
X108772230Y-100435526D01*
X108891859Y-100302665D01*
X108981250Y-100147835D01*
X109036497Y-99977803D01*
X109055185Y-99800000D01*
X109036497Y-99622197D01*
X108981250Y-99452165D01*
X108891859Y-99297335D01*
X108845003Y-99245296D01*
X108772235Y-99164478D01*
X108772232Y-99164476D01*
X108772231Y-99164475D01*
X108772230Y-99164474D01*
X108627593Y-99059388D01*
X108464267Y-98986671D01*
X108464265Y-98986670D01*
X108336594Y-98959533D01*
X108289391Y-98949500D01*
X108110609Y-98949500D01*
X108079954Y-98956015D01*
X107935733Y-98986670D01*
X107935728Y-98986672D01*
X107772408Y-99059387D01*
X107627768Y-99164475D01*
X107508140Y-99297336D01*
X107418750Y-99452164D01*
X107418747Y-99452170D01*
X107363504Y-99622192D01*
X107363503Y-99622194D01*
X107344815Y-99800000D01*
X107363503Y-99977805D01*
X107363504Y-99977807D01*
X107418747Y-100147829D01*
X107418750Y-100147835D01*
X107511390Y-100308293D01*
X107508858Y-100309754D01*
X107528066Y-100363561D01*
X107512251Y-100431617D01*
X107462153Y-100480320D01*
X107404269Y-100494659D01*
X107400000Y-100494659D01*
X107203870Y-100513975D01*
X107015266Y-100571188D01*
X106841467Y-100664086D01*
X106841460Y-100664090D01*
X106689116Y-100789116D01*
X106564090Y-100941460D01*
X106564086Y-100941467D01*
X106471188Y-101115266D01*
X106413975Y-101303870D01*
X106394659Y-101500000D01*
X96154231Y-101500000D01*
X96100000Y-101494659D01*
X95903870Y-101513975D01*
X95715266Y-101571188D01*
X95541467Y-101664086D01*
X95541460Y-101664090D01*
X95389116Y-101789116D01*
X95264090Y-101941460D01*
X95264086Y-101941467D01*
X95171188Y-102115266D01*
X95113975Y-102303870D01*
X95094659Y-102500000D01*
X70324971Y-102500000D01*
X75040460Y-97784511D01*
X75052028Y-97764474D01*
X75080021Y-97715989D01*
X75100500Y-97639562D01*
X75100500Y-97400005D01*
X84094754Y-97400005D01*
X84113718Y-97701446D01*
X84113719Y-97701453D01*
X84170320Y-97998164D01*
X84263659Y-98285431D01*
X84263661Y-98285436D01*
X84392265Y-98558732D01*
X84392268Y-98558738D01*
X84554111Y-98813763D01*
X84554114Y-98813767D01*
X84554115Y-98813768D01*
X84746649Y-99046502D01*
X84746652Y-99046505D01*
X84966836Y-99253272D01*
X84966846Y-99253280D01*
X85211193Y-99430808D01*
X85211198Y-99430810D01*
X85211205Y-99430816D01*
X85475896Y-99576332D01*
X85475901Y-99576334D01*
X85475903Y-99576335D01*
X85475904Y-99576336D01*
X85756734Y-99687524D01*
X85756737Y-99687525D01*
X85854259Y-99712564D01*
X86049302Y-99762642D01*
X86196039Y-99781179D01*
X86348963Y-99800499D01*
X86348969Y-99800499D01*
X86348973Y-99800500D01*
X86348975Y-99800500D01*
X86651025Y-99800500D01*
X86651027Y-99800500D01*
X86651032Y-99800499D01*
X86651036Y-99800499D01*
X86730591Y-99790448D01*
X86950698Y-99762642D01*
X87243262Y-99687525D01*
X87243265Y-99687524D01*
X87524095Y-99576336D01*
X87524096Y-99576335D01*
X87524094Y-99576335D01*
X87524104Y-99576332D01*
X87788795Y-99430816D01*
X88033162Y-99253274D01*
X88253349Y-99046504D01*
X88417603Y-98847954D01*
X88475503Y-98808847D01*
X88545354Y-98807251D01*
X88584268Y-98825418D01*
X88672361Y-98887102D01*
X88870670Y-98979575D01*
X89082023Y-99036207D01*
X89264926Y-99052208D01*
X89299998Y-99055277D01*
X89300000Y-99055277D01*
X89300002Y-99055277D01*
X89328254Y-99052805D01*
X89517977Y-99036207D01*
X89729330Y-98979575D01*
X89927639Y-98887102D01*
X90106877Y-98761598D01*
X90261598Y-98606877D01*
X90387102Y-98427639D01*
X90479575Y-98229330D01*
X90536207Y-98017977D01*
X90555277Y-97800000D01*
X90553335Y-97777807D01*
X90551569Y-97757618D01*
X90537780Y-97600000D01*
X92244815Y-97600000D01*
X92263503Y-97777805D01*
X92263504Y-97777807D01*
X92318747Y-97947829D01*
X92318750Y-97947835D01*
X92408141Y-98102665D01*
X92449812Y-98148946D01*
X92527764Y-98235521D01*
X92527767Y-98235523D01*
X92527770Y-98235526D01*
X92672407Y-98340612D01*
X92835733Y-98413329D01*
X93010609Y-98450500D01*
X93010610Y-98450500D01*
X93189389Y-98450500D01*
X93189391Y-98450500D01*
X93364267Y-98413329D01*
X93394205Y-98400000D01*
X99113026Y-98400000D01*
X99131714Y-98577805D01*
X99131715Y-98577807D01*
X99186958Y-98747829D01*
X99186961Y-98747835D01*
X99276352Y-98902665D01*
X99318023Y-98948946D01*
X99395975Y-99035521D01*
X99395978Y-99035523D01*
X99395981Y-99035526D01*
X99540618Y-99140612D01*
X99703944Y-99213329D01*
X99878820Y-99250500D01*
X99878821Y-99250500D01*
X100057600Y-99250500D01*
X100057602Y-99250500D01*
X100232478Y-99213329D01*
X100395804Y-99140612D01*
X100540441Y-99035526D01*
X100660070Y-98902665D01*
X100749461Y-98747835D01*
X100804708Y-98577803D01*
X100823396Y-98400000D01*
X100804708Y-98222197D01*
X100749461Y-98052165D01*
X100660070Y-97897335D01*
X100613214Y-97845296D01*
X100540446Y-97764478D01*
X100540443Y-97764476D01*
X100540442Y-97764475D01*
X100540441Y-97764474D01*
X100395804Y-97659388D01*
X100232478Y-97586671D01*
X100232476Y-97586670D01*
X100104805Y-97559533D01*
X100057602Y-97549500D01*
X99878820Y-97549500D01*
X99848165Y-97556015D01*
X99703944Y-97586670D01*
X99703939Y-97586672D01*
X99540619Y-97659387D01*
X99395979Y-97764475D01*
X99276351Y-97897336D01*
X99186961Y-98052164D01*
X99186958Y-98052170D01*
X99131715Y-98222192D01*
X99131714Y-98222194D01*
X99113026Y-98400000D01*
X93394205Y-98400000D01*
X93527593Y-98340612D01*
X93672230Y-98235526D01*
X93677817Y-98229322D01*
X93698148Y-98206741D01*
X93791859Y-98102665D01*
X93881250Y-97947835D01*
X93936497Y-97777803D01*
X93955185Y-97600000D01*
X93936497Y-97422197D01*
X93881250Y-97252165D01*
X93793398Y-97100000D01*
X104394659Y-97100000D01*
X104413975Y-97296129D01*
X104471188Y-97484733D01*
X104564086Y-97658532D01*
X104564090Y-97658539D01*
X104689116Y-97810883D01*
X104841460Y-97935909D01*
X104841467Y-97935913D01*
X105015266Y-98028811D01*
X105015269Y-98028811D01*
X105015273Y-98028814D01*
X105203868Y-98086024D01*
X105400000Y-98105341D01*
X105596132Y-98086024D01*
X105784727Y-98028814D01*
X105805006Y-98017975D01*
X105958532Y-97935913D01*
X105958538Y-97935910D01*
X106110883Y-97810883D01*
X106235910Y-97658538D01*
X106328814Y-97484727D01*
X106386024Y-97296132D01*
X106405341Y-97100000D01*
X106386024Y-96903868D01*
X106328814Y-96715273D01*
X106328811Y-96715269D01*
X106328811Y-96715266D01*
X106235913Y-96541467D01*
X106235909Y-96541460D01*
X106110883Y-96389116D01*
X106002295Y-96300000D01*
X106644815Y-96300000D01*
X106663503Y-96477805D01*
X106663504Y-96477807D01*
X106718747Y-96647829D01*
X106718750Y-96647835D01*
X106808141Y-96802665D01*
X106840319Y-96838402D01*
X106927764Y-96935521D01*
X106927767Y-96935523D01*
X106927770Y-96935526D01*
X107072407Y-97040612D01*
X107235733Y-97113329D01*
X107410609Y-97150500D01*
X107410610Y-97150500D01*
X107589389Y-97150500D01*
X107589391Y-97150500D01*
X107764267Y-97113329D01*
X107927593Y-97040612D01*
X108072230Y-96935526D01*
X108191859Y-96802665D01*
X108281250Y-96647835D01*
X108336497Y-96477803D01*
X108355185Y-96300000D01*
X108336497Y-96122197D01*
X108302580Y-96017814D01*
X108300586Y-95947975D01*
X108336666Y-95888142D01*
X108370072Y-95866221D01*
X108427593Y-95840612D01*
X108572230Y-95735526D01*
X108691859Y-95602665D01*
X108781250Y-95447835D01*
X108836497Y-95277803D01*
X108855185Y-95100000D01*
X108836497Y-94922197D01*
X108796792Y-94799997D01*
X108781252Y-94752170D01*
X108781249Y-94752164D01*
X108758579Y-94712898D01*
X108693397Y-94599999D01*
X119394659Y-94599999D01*
X119398903Y-94643090D01*
X119399500Y-94655244D01*
X119399500Y-94698544D01*
X119407945Y-94741006D01*
X119409730Y-94753035D01*
X119413975Y-94796130D01*
X119413976Y-94796134D01*
X119426547Y-94837575D01*
X119429503Y-94849378D01*
X119437946Y-94891827D01*
X119437948Y-94891834D01*
X119454517Y-94931834D01*
X119458612Y-94943277D01*
X119471186Y-94984726D01*
X119471187Y-94984729D01*
X119491597Y-95022913D01*
X119496800Y-95033915D01*
X119513368Y-95073914D01*
X119513370Y-95073918D01*
X119537425Y-95109918D01*
X119543678Y-95120350D01*
X119554948Y-95141436D01*
X119564088Y-95158535D01*
X119564094Y-95158543D01*
X119591552Y-95192002D01*
X119598799Y-95201772D01*
X119622860Y-95237781D01*
X119622862Y-95237783D01*
X119622865Y-95237787D01*
X119653479Y-95268401D01*
X119661651Y-95277416D01*
X119689117Y-95310883D01*
X119722579Y-95338345D01*
X119722581Y-95338346D01*
X119731599Y-95346520D01*
X119762214Y-95377136D01*
X119762217Y-95377138D01*
X119762218Y-95377139D01*
X119798217Y-95401193D01*
X119798219Y-95401194D01*
X119807988Y-95408438D01*
X119841462Y-95435910D01*
X119879640Y-95456316D01*
X119890078Y-95462572D01*
X119897899Y-95467797D01*
X119926086Y-95486632D01*
X119966095Y-95503203D01*
X119977091Y-95508404D01*
X120015273Y-95528814D01*
X120056710Y-95541383D01*
X120068160Y-95545480D01*
X120108165Y-95562051D01*
X120150640Y-95570499D01*
X120162414Y-95573448D01*
X120203868Y-95586024D01*
X120246964Y-95590268D01*
X120258990Y-95592052D01*
X120289480Y-95598117D01*
X120301458Y-95600500D01*
X120301459Y-95600500D01*
X120344756Y-95600500D01*
X120356909Y-95601096D01*
X120400000Y-95605341D01*
X120443090Y-95601096D01*
X120455244Y-95600500D01*
X120498542Y-95600500D01*
X120514454Y-95597334D01*
X120541005Y-95592053D01*
X120553037Y-95590268D01*
X120596132Y-95586024D01*
X120637580Y-95573450D01*
X120649353Y-95570500D01*
X120691835Y-95562051D01*
X120731847Y-95545476D01*
X120743280Y-95541386D01*
X120784727Y-95528814D01*
X120822918Y-95508399D01*
X120833910Y-95503201D01*
X120873914Y-95486632D01*
X120909938Y-95462560D01*
X120920351Y-95456320D01*
X120946591Y-95442295D01*
X120958535Y-95435912D01*
X120958539Y-95435909D01*
X120992005Y-95408444D01*
X121001782Y-95401193D01*
X121037781Y-95377140D01*
X121037783Y-95377138D01*
X121044253Y-95370668D01*
X121068408Y-95346512D01*
X121077402Y-95338359D01*
X121110883Y-95310883D01*
X121138359Y-95277402D01*
X121146512Y-95268408D01*
X121177139Y-95237782D01*
X121182787Y-95229330D01*
X121201193Y-95201782D01*
X121208444Y-95192005D01*
X121235909Y-95158539D01*
X121235912Y-95158535D01*
X121242295Y-95146591D01*
X121256320Y-95120351D01*
X121262560Y-95109938D01*
X121286632Y-95073914D01*
X121303202Y-95033906D01*
X121308402Y-95022913D01*
X121328814Y-94984727D01*
X121341386Y-94943280D01*
X121345476Y-94931847D01*
X121362051Y-94891835D01*
X121370500Y-94849353D01*
X121373450Y-94837580D01*
X121386024Y-94796132D01*
X121390268Y-94753037D01*
X121392054Y-94740999D01*
X121400500Y-94698541D01*
X121400500Y-94655244D01*
X121401097Y-94643090D01*
X121403329Y-94620425D01*
X121405341Y-94600000D01*
X121401097Y-94556907D01*
X121400500Y-94544754D01*
X121400500Y-94501458D01*
X121393143Y-94464474D01*
X121392052Y-94458990D01*
X121390268Y-94446961D01*
X121386024Y-94403869D01*
X121386024Y-94403868D01*
X121373448Y-94362414D01*
X121370499Y-94350640D01*
X121362051Y-94308165D01*
X121345480Y-94268159D01*
X121341383Y-94256710D01*
X121328814Y-94215273D01*
X121308404Y-94177091D01*
X121303203Y-94166095D01*
X121286632Y-94126086D01*
X121262572Y-94090078D01*
X121256316Y-94079640D01*
X121235911Y-94041464D01*
X121235910Y-94041462D01*
X121208438Y-94007988D01*
X121201194Y-93998219D01*
X121177140Y-93962219D01*
X121177136Y-93962214D01*
X121146520Y-93931599D01*
X121138346Y-93922581D01*
X121110884Y-93889118D01*
X121077416Y-93861651D01*
X121068401Y-93853479D01*
X121037787Y-93822865D01*
X121037783Y-93822862D01*
X121037780Y-93822860D01*
X121021139Y-93811740D01*
X121001772Y-93798799D01*
X120992002Y-93791552D01*
X120958543Y-93764094D01*
X120958535Y-93764088D01*
X120941436Y-93754948D01*
X120920350Y-93743678D01*
X120909918Y-93737425D01*
X120873918Y-93713370D01*
X120873914Y-93713368D01*
X120833915Y-93696800D01*
X120822913Y-93691597D01*
X120784729Y-93671187D01*
X120784728Y-93671186D01*
X120784727Y-93671186D01*
X120743277Y-93658612D01*
X120731834Y-93654517D01*
X120691834Y-93637948D01*
X120691827Y-93637946D01*
X120649378Y-93629503D01*
X120637575Y-93626547D01*
X120596134Y-93613976D01*
X120596130Y-93613975D01*
X120553035Y-93609730D01*
X120541006Y-93607945D01*
X120498544Y-93599500D01*
X120498541Y-93599500D01*
X120455244Y-93599500D01*
X120443090Y-93598903D01*
X120400000Y-93594659D01*
X120356910Y-93598903D01*
X120344756Y-93599500D01*
X120301453Y-93599500D01*
X120258991Y-93607945D01*
X120246963Y-93609730D01*
X120203867Y-93613976D01*
X120162427Y-93626546D01*
X120150626Y-93629502D01*
X120108166Y-93637948D01*
X120108161Y-93637949D01*
X120068159Y-93654518D01*
X120056707Y-93658616D01*
X120015272Y-93671186D01*
X119977091Y-93691594D01*
X119966093Y-93696795D01*
X119926091Y-93713364D01*
X119890080Y-93737426D01*
X119879645Y-93743680D01*
X119841465Y-93764087D01*
X119841460Y-93764091D01*
X119807990Y-93791557D01*
X119798225Y-93798799D01*
X119762225Y-93822855D01*
X119762219Y-93822860D01*
X119731595Y-93853483D01*
X119722584Y-93861650D01*
X119689117Y-93889117D01*
X119661650Y-93922584D01*
X119653483Y-93931595D01*
X119622860Y-93962219D01*
X119622855Y-93962225D01*
X119598799Y-93998225D01*
X119591557Y-94007990D01*
X119564091Y-94041460D01*
X119564087Y-94041465D01*
X119543680Y-94079645D01*
X119537426Y-94090080D01*
X119513364Y-94126091D01*
X119496795Y-94166093D01*
X119491594Y-94177091D01*
X119471186Y-94215272D01*
X119458616Y-94256707D01*
X119454518Y-94268159D01*
X119437949Y-94308161D01*
X119437948Y-94308166D01*
X119429502Y-94350626D01*
X119426546Y-94362427D01*
X119413976Y-94403867D01*
X119409730Y-94446963D01*
X119407945Y-94458991D01*
X119399500Y-94501453D01*
X119399500Y-94544754D01*
X119398903Y-94556907D01*
X119394659Y-94599999D01*
X108693397Y-94599999D01*
X108691859Y-94597335D01*
X108644237Y-94544446D01*
X108618309Y-94515649D01*
X108588079Y-94452657D01*
X108596705Y-94383322D01*
X108618307Y-94349707D01*
X108665929Y-94296819D01*
X108755320Y-94141989D01*
X108810567Y-93971957D01*
X108829255Y-93794154D01*
X108810567Y-93616351D01*
X108755320Y-93446319D01*
X108665929Y-93291489D01*
X108619073Y-93239450D01*
X108546305Y-93158632D01*
X108546302Y-93158630D01*
X108546301Y-93158629D01*
X108546300Y-93158628D01*
X108401663Y-93053542D01*
X108238337Y-92980825D01*
X108238335Y-92980824D01*
X108110664Y-92953687D01*
X108063461Y-92943654D01*
X107884679Y-92943654D01*
X107854024Y-92950169D01*
X107709803Y-92980824D01*
X107709798Y-92980826D01*
X107546478Y-93053541D01*
X107401838Y-93158629D01*
X107282210Y-93291490D01*
X107192820Y-93446318D01*
X107192817Y-93446324D01*
X107137574Y-93616346D01*
X107137573Y-93616348D01*
X107118885Y-93794154D01*
X107137573Y-93971959D01*
X107137574Y-93971961D01*
X107192817Y-94141983D01*
X107192820Y-94141989D01*
X107282211Y-94296819D01*
X107341285Y-94362427D01*
X107355760Y-94378503D01*
X107385990Y-94441494D01*
X107377365Y-94510829D01*
X107355761Y-94544446D01*
X107308140Y-94597335D01*
X107218750Y-94752164D01*
X107218747Y-94752170D01*
X107163504Y-94922192D01*
X107163503Y-94922194D01*
X107144815Y-95100000D01*
X107163503Y-95277805D01*
X107163504Y-95277807D01*
X107197418Y-95382183D01*
X107199413Y-95452024D01*
X107163333Y-95511857D01*
X107129924Y-95533780D01*
X107072406Y-95559388D01*
X106927768Y-95664475D01*
X106808140Y-95797336D01*
X106718750Y-95952164D01*
X106718747Y-95952170D01*
X106663504Y-96122192D01*
X106663503Y-96122194D01*
X106644815Y-96300000D01*
X106002295Y-96300000D01*
X105958539Y-96264090D01*
X105958532Y-96264086D01*
X105784733Y-96171188D01*
X105784727Y-96171186D01*
X105623223Y-96122194D01*
X105596129Y-96113975D01*
X105400000Y-96094659D01*
X105203870Y-96113975D01*
X105015266Y-96171188D01*
X104841467Y-96264086D01*
X104841460Y-96264090D01*
X104689116Y-96389116D01*
X104564090Y-96541460D01*
X104564086Y-96541467D01*
X104471188Y-96715266D01*
X104413975Y-96903870D01*
X104394659Y-97100000D01*
X93793398Y-97100000D01*
X93791859Y-97097335D01*
X93740783Y-97040610D01*
X93672235Y-96964478D01*
X93672232Y-96964476D01*
X93672231Y-96964475D01*
X93672230Y-96964474D01*
X93527593Y-96859388D01*
X93364267Y-96786671D01*
X93364265Y-96786670D01*
X93236594Y-96759533D01*
X93189391Y-96749500D01*
X93010609Y-96749500D01*
X92979954Y-96756015D01*
X92835733Y-96786670D01*
X92835728Y-96786672D01*
X92672408Y-96859387D01*
X92527768Y-96964475D01*
X92408140Y-97097336D01*
X92318750Y-97252164D01*
X92318747Y-97252170D01*
X92263504Y-97422192D01*
X92263503Y-97422194D01*
X92244815Y-97600000D01*
X90537780Y-97600000D01*
X90536207Y-97582023D01*
X90479575Y-97370670D01*
X90387102Y-97172362D01*
X90387100Y-97172359D01*
X90387099Y-97172357D01*
X90261597Y-96993121D01*
X90156156Y-96887680D01*
X90122671Y-96826357D01*
X90127655Y-96756665D01*
X90156152Y-96712322D01*
X90261598Y-96606877D01*
X90387102Y-96427639D01*
X90479575Y-96229330D01*
X90536207Y-96017977D01*
X90555277Y-95800000D01*
X90536207Y-95582023D01*
X90479575Y-95370670D01*
X90387102Y-95172362D01*
X90387100Y-95172359D01*
X90387099Y-95172357D01*
X90261599Y-94993124D01*
X90190667Y-94922192D01*
X90168475Y-94900000D01*
X98244815Y-94900000D01*
X98263503Y-95077805D01*
X98263504Y-95077807D01*
X98318747Y-95247829D01*
X98318750Y-95247835D01*
X98408141Y-95402665D01*
X98430627Y-95427638D01*
X98527764Y-95535521D01*
X98527767Y-95535523D01*
X98527770Y-95535526D01*
X98672407Y-95640612D01*
X98835733Y-95713329D01*
X99010609Y-95750500D01*
X99010610Y-95750500D01*
X99189389Y-95750500D01*
X99189391Y-95750500D01*
X99364267Y-95713329D01*
X99527593Y-95640612D01*
X99672230Y-95535526D01*
X99673803Y-95533780D01*
X99743555Y-95456312D01*
X99791859Y-95402665D01*
X99792611Y-95401363D01*
X99793243Y-95400760D01*
X99795681Y-95397405D01*
X99796294Y-95397850D01*
X99843176Y-95353146D01*
X99911782Y-95339920D01*
X99976648Y-95365886D01*
X100004098Y-95397565D01*
X100004319Y-95397405D01*
X100006186Y-95399975D01*
X100007389Y-95401363D01*
X100008139Y-95402663D01*
X100127764Y-95535521D01*
X100127767Y-95535523D01*
X100127770Y-95535526D01*
X100272407Y-95640612D01*
X100435733Y-95713329D01*
X100610609Y-95750500D01*
X100610610Y-95750500D01*
X100789389Y-95750500D01*
X100789391Y-95750500D01*
X100964267Y-95713329D01*
X101127593Y-95640612D01*
X101272230Y-95535526D01*
X101273803Y-95533780D01*
X101316219Y-95486671D01*
X101391859Y-95402665D01*
X101481250Y-95247835D01*
X101536497Y-95077803D01*
X101555185Y-94900000D01*
X101536497Y-94722197D01*
X101507471Y-94632865D01*
X101481252Y-94552170D01*
X101481249Y-94552164D01*
X101476793Y-94544446D01*
X101391859Y-94397335D01*
X101311569Y-94308164D01*
X101272235Y-94264478D01*
X101272232Y-94264476D01*
X101272231Y-94264475D01*
X101272230Y-94264474D01*
X101127593Y-94159388D01*
X100964267Y-94086671D01*
X100964265Y-94086670D01*
X100836594Y-94059533D01*
X100789391Y-94049500D01*
X100610609Y-94049500D01*
X100579954Y-94056015D01*
X100435733Y-94086670D01*
X100435728Y-94086672D01*
X100272408Y-94159387D01*
X100127768Y-94264475D01*
X100008141Y-94397334D01*
X100007386Y-94398643D01*
X100006749Y-94399249D01*
X100004319Y-94402595D01*
X100003707Y-94402150D01*
X99956817Y-94446857D01*
X99888210Y-94460078D01*
X99823346Y-94434109D01*
X99795900Y-94402435D01*
X99795681Y-94402595D01*
X99793824Y-94400040D01*
X99792614Y-94398643D01*
X99791859Y-94397335D01*
X99767848Y-94370668D01*
X99672235Y-94264478D01*
X99672232Y-94264476D01*
X99672231Y-94264475D01*
X99672230Y-94264474D01*
X99527593Y-94159388D01*
X99364267Y-94086671D01*
X99364265Y-94086670D01*
X99236594Y-94059533D01*
X99189391Y-94049500D01*
X99010609Y-94049500D01*
X98979954Y-94056015D01*
X98835733Y-94086670D01*
X98835728Y-94086672D01*
X98672408Y-94159387D01*
X98527768Y-94264475D01*
X98408140Y-94397336D01*
X98318750Y-94552164D01*
X98318747Y-94552170D01*
X98263504Y-94722192D01*
X98263503Y-94722194D01*
X98244815Y-94900000D01*
X90168475Y-94900000D01*
X90106877Y-94838402D01*
X89950918Y-94729198D01*
X89927638Y-94712897D01*
X89817171Y-94661386D01*
X89729330Y-94620425D01*
X89729326Y-94620424D01*
X89729322Y-94620422D01*
X89517977Y-94563793D01*
X89300002Y-94544723D01*
X89299998Y-94544723D01*
X89160732Y-94556907D01*
X89082023Y-94563793D01*
X89082020Y-94563793D01*
X88870677Y-94620422D01*
X88870667Y-94620426D01*
X88805325Y-94650895D01*
X88736248Y-94661386D01*
X88672464Y-94632865D01*
X88634225Y-94574388D01*
X88633156Y-94570637D01*
X88579575Y-94370670D01*
X88487102Y-94172362D01*
X88487100Y-94172359D01*
X88487099Y-94172357D01*
X88361599Y-93993124D01*
X88290818Y-93922343D01*
X88206877Y-93838402D01*
X88062667Y-93737425D01*
X88027638Y-93712897D01*
X87907439Y-93656848D01*
X87829330Y-93620425D01*
X87829326Y-93620424D01*
X87829322Y-93620422D01*
X87617977Y-93563793D01*
X87400002Y-93544723D01*
X87399998Y-93544723D01*
X87254682Y-93557436D01*
X87182023Y-93563793D01*
X87182020Y-93563793D01*
X86970677Y-93620422D01*
X86970668Y-93620426D01*
X86772361Y-93712898D01*
X86772357Y-93712900D01*
X86593124Y-93838400D01*
X86537680Y-93893844D01*
X86476356Y-93927328D01*
X86406664Y-93922343D01*
X86362318Y-93893843D01*
X86306881Y-93838406D01*
X86306877Y-93838402D01*
X86162667Y-93737425D01*
X86127638Y-93712897D01*
X86007439Y-93656848D01*
X85929330Y-93620425D01*
X85929326Y-93620424D01*
X85929322Y-93620422D01*
X85717977Y-93563793D01*
X85500002Y-93544723D01*
X85499998Y-93544723D01*
X85354682Y-93557436D01*
X85282023Y-93563793D01*
X85282020Y-93563793D01*
X85070677Y-93620422D01*
X85070668Y-93620426D01*
X84872361Y-93712898D01*
X84872357Y-93712900D01*
X84693121Y-93838402D01*
X84538402Y-93993121D01*
X84412900Y-94172357D01*
X84412898Y-94172361D01*
X84320426Y-94370668D01*
X84320422Y-94370677D01*
X84263793Y-94582020D01*
X84263793Y-94582024D01*
X84244723Y-94799997D01*
X84244723Y-94800002D01*
X84263793Y-95017975D01*
X84263793Y-95017979D01*
X84320422Y-95229322D01*
X84320424Y-95229326D01*
X84320425Y-95229330D01*
X84343030Y-95277807D01*
X84412897Y-95427638D01*
X84432975Y-95456312D01*
X84538402Y-95606877D01*
X84595999Y-95664474D01*
X84638965Y-95707440D01*
X84672449Y-95768763D01*
X84667465Y-95838455D01*
X84646827Y-95874161D01*
X84554115Y-95986230D01*
X84554113Y-95986233D01*
X84392268Y-96241261D01*
X84392265Y-96241267D01*
X84263661Y-96514563D01*
X84263659Y-96514568D01*
X84170320Y-96801835D01*
X84113719Y-97098546D01*
X84113718Y-97098553D01*
X84094754Y-97399994D01*
X84094754Y-97400005D01*
X75100500Y-97400005D01*
X75100500Y-92500000D01*
X100244815Y-92500000D01*
X100263503Y-92677805D01*
X100263504Y-92677807D01*
X100318747Y-92847829D01*
X100318750Y-92847835D01*
X100408141Y-93002665D01*
X100449812Y-93048946D01*
X100527764Y-93135521D01*
X100527767Y-93135523D01*
X100527770Y-93135526D01*
X100672407Y-93240612D01*
X100835733Y-93313329D01*
X101010609Y-93350500D01*
X101010610Y-93350500D01*
X101189389Y-93350500D01*
X101189391Y-93350500D01*
X101364267Y-93313329D01*
X101527593Y-93240612D01*
X101672230Y-93135526D01*
X101791859Y-93002665D01*
X101881250Y-92847835D01*
X101936497Y-92677803D01*
X101955185Y-92500000D01*
X101936497Y-92322197D01*
X101881250Y-92152165D01*
X101791859Y-91997335D01*
X101745003Y-91945296D01*
X101672235Y-91864478D01*
X101672232Y-91864476D01*
X101672231Y-91864475D01*
X101672230Y-91864474D01*
X101527593Y-91759388D01*
X101364267Y-91686671D01*
X101364265Y-91686670D01*
X101236594Y-91659533D01*
X101189391Y-91649500D01*
X101010609Y-91649500D01*
X100979954Y-91656015D01*
X100835733Y-91686670D01*
X100835728Y-91686672D01*
X100672408Y-91759387D01*
X100527768Y-91864475D01*
X100408140Y-91997336D01*
X100318750Y-92152164D01*
X100318747Y-92152170D01*
X100263504Y-92322192D01*
X100263503Y-92322194D01*
X100244815Y-92500000D01*
X75100500Y-92500000D01*
X75100500Y-88600000D01*
X92244815Y-88600000D01*
X92263503Y-88777805D01*
X92263504Y-88777807D01*
X92318747Y-88947829D01*
X92318750Y-88947835D01*
X92408141Y-89102665D01*
X92449812Y-89148946D01*
X92527764Y-89235521D01*
X92527767Y-89235523D01*
X92527770Y-89235526D01*
X92672407Y-89340612D01*
X92835733Y-89413329D01*
X93010609Y-89450500D01*
X93010610Y-89450500D01*
X93189389Y-89450500D01*
X93189391Y-89450500D01*
X93364267Y-89413329D01*
X93527593Y-89340612D01*
X93672230Y-89235526D01*
X93673938Y-89233630D01*
X93719840Y-89182650D01*
X93791859Y-89102665D01*
X93881250Y-88947835D01*
X93936497Y-88777803D01*
X93955185Y-88600000D01*
X93936497Y-88422197D01*
X93889365Y-88277139D01*
X93881252Y-88252170D01*
X93881249Y-88252164D01*
X93791859Y-88097335D01*
X93722555Y-88020365D01*
X93672235Y-87964478D01*
X93672232Y-87964476D01*
X93672231Y-87964475D01*
X93672230Y-87964474D01*
X93527593Y-87859388D01*
X93364267Y-87786671D01*
X93364265Y-87786670D01*
X93228576Y-87757829D01*
X93189391Y-87749500D01*
X93010609Y-87749500D01*
X92979954Y-87756015D01*
X92835733Y-87786670D01*
X92835728Y-87786672D01*
X92672408Y-87859387D01*
X92527768Y-87964475D01*
X92408140Y-88097336D01*
X92318750Y-88252164D01*
X92318747Y-88252170D01*
X92263504Y-88422192D01*
X92263503Y-88422194D01*
X92244815Y-88600000D01*
X75100500Y-88600000D01*
X75100500Y-87499999D01*
X76744659Y-87499999D01*
X76748903Y-87543090D01*
X76749500Y-87555244D01*
X76749500Y-87598544D01*
X76757945Y-87641006D01*
X76759730Y-87653035D01*
X76763975Y-87696130D01*
X76763976Y-87696134D01*
X76776547Y-87737575D01*
X76779503Y-87749378D01*
X76787946Y-87791827D01*
X76787948Y-87791834D01*
X76804517Y-87831834D01*
X76808612Y-87843277D01*
X76813500Y-87859389D01*
X76821187Y-87884729D01*
X76841597Y-87922913D01*
X76846800Y-87933915D01*
X76863368Y-87973914D01*
X76863370Y-87973918D01*
X76887425Y-88009918D01*
X76893678Y-88020350D01*
X76898999Y-88030304D01*
X76914088Y-88058535D01*
X76914094Y-88058543D01*
X76941552Y-88092002D01*
X76948799Y-88101772D01*
X76972860Y-88137781D01*
X76972862Y-88137783D01*
X76972865Y-88137787D01*
X77003479Y-88168401D01*
X77011651Y-88177416D01*
X77039117Y-88210883D01*
X77072579Y-88238345D01*
X77072581Y-88238346D01*
X77081599Y-88246520D01*
X77112214Y-88277136D01*
X77112217Y-88277138D01*
X77112218Y-88277139D01*
X77148217Y-88301193D01*
X77148219Y-88301194D01*
X77157988Y-88308438D01*
X77191462Y-88335910D01*
X77229640Y-88356316D01*
X77240078Y-88362572D01*
X77247899Y-88367797D01*
X77276086Y-88386632D01*
X77316095Y-88403203D01*
X77327091Y-88408404D01*
X77365273Y-88428814D01*
X77406710Y-88441383D01*
X77418160Y-88445480D01*
X77458165Y-88462051D01*
X77500640Y-88470499D01*
X77512414Y-88473448D01*
X77553868Y-88486024D01*
X77596964Y-88490268D01*
X77608990Y-88492052D01*
X77639480Y-88498117D01*
X77651458Y-88500500D01*
X77651459Y-88500500D01*
X77694756Y-88500500D01*
X77706909Y-88501096D01*
X77750000Y-88505341D01*
X77793090Y-88501096D01*
X77805244Y-88500500D01*
X77848542Y-88500500D01*
X77864454Y-88497334D01*
X77891005Y-88492053D01*
X77903037Y-88490268D01*
X77946132Y-88486024D01*
X77987580Y-88473450D01*
X77999353Y-88470500D01*
X78041835Y-88462051D01*
X78081847Y-88445476D01*
X78093280Y-88441386D01*
X78134727Y-88428814D01*
X78172918Y-88408399D01*
X78183910Y-88403201D01*
X78223914Y-88386632D01*
X78259938Y-88362560D01*
X78270351Y-88356320D01*
X78296591Y-88342295D01*
X78308535Y-88335912D01*
X78308539Y-88335909D01*
X78342005Y-88308444D01*
X78351782Y-88301193D01*
X78387781Y-88277140D01*
X78387783Y-88277138D01*
X78387785Y-88277136D01*
X78418408Y-88246512D01*
X78427402Y-88238359D01*
X78460883Y-88210883D01*
X78488359Y-88177402D01*
X78496512Y-88168408D01*
X78527139Y-88137782D01*
X78551200Y-88101772D01*
X78558444Y-88092005D01*
X78585909Y-88058539D01*
X78585912Y-88058535D01*
X78592295Y-88046591D01*
X78606320Y-88020351D01*
X78612560Y-88009938D01*
X78636632Y-87973914D01*
X78653202Y-87933906D01*
X78658402Y-87922913D01*
X78678814Y-87884727D01*
X78691386Y-87843280D01*
X78695476Y-87831847D01*
X78712051Y-87791835D01*
X78720500Y-87749353D01*
X78723450Y-87737580D01*
X78736024Y-87696132D01*
X78740268Y-87653037D01*
X78742054Y-87640999D01*
X78750500Y-87598541D01*
X78750500Y-87555244D01*
X78751097Y-87543090D01*
X78752503Y-87528811D01*
X78755341Y-87500000D01*
X78755341Y-87499999D01*
X79744659Y-87499999D01*
X79748903Y-87543090D01*
X79749500Y-87555244D01*
X79749500Y-87598544D01*
X79757945Y-87641006D01*
X79759730Y-87653035D01*
X79763975Y-87696130D01*
X79763976Y-87696134D01*
X79776547Y-87737575D01*
X79779503Y-87749378D01*
X79787946Y-87791827D01*
X79787948Y-87791834D01*
X79804517Y-87831834D01*
X79808612Y-87843277D01*
X79813500Y-87859389D01*
X79821187Y-87884729D01*
X79841597Y-87922913D01*
X79846800Y-87933915D01*
X79863368Y-87973914D01*
X79863370Y-87973918D01*
X79887425Y-88009918D01*
X79893678Y-88020350D01*
X79898999Y-88030304D01*
X79914088Y-88058535D01*
X79914094Y-88058543D01*
X79941552Y-88092002D01*
X79948799Y-88101772D01*
X79972860Y-88137781D01*
X79972862Y-88137783D01*
X79972865Y-88137787D01*
X80003479Y-88168401D01*
X80011651Y-88177416D01*
X80039117Y-88210883D01*
X80072579Y-88238345D01*
X80072581Y-88238346D01*
X80081599Y-88246520D01*
X80112214Y-88277136D01*
X80112217Y-88277138D01*
X80112218Y-88277139D01*
X80148217Y-88301193D01*
X80148219Y-88301194D01*
X80157988Y-88308438D01*
X80191462Y-88335910D01*
X80229640Y-88356316D01*
X80240078Y-88362572D01*
X80247899Y-88367797D01*
X80276086Y-88386632D01*
X80316095Y-88403203D01*
X80327091Y-88408404D01*
X80365273Y-88428814D01*
X80406710Y-88441383D01*
X80418160Y-88445480D01*
X80458165Y-88462051D01*
X80500640Y-88470499D01*
X80512414Y-88473448D01*
X80553868Y-88486024D01*
X80596964Y-88490268D01*
X80608990Y-88492052D01*
X80639480Y-88498117D01*
X80651458Y-88500500D01*
X80651459Y-88500500D01*
X80694756Y-88500500D01*
X80706909Y-88501096D01*
X80750000Y-88505341D01*
X80793090Y-88501096D01*
X80805244Y-88500500D01*
X80848542Y-88500500D01*
X80864454Y-88497334D01*
X80891005Y-88492053D01*
X80903037Y-88490268D01*
X80946132Y-88486024D01*
X80987580Y-88473450D01*
X80999353Y-88470500D01*
X81041835Y-88462051D01*
X81081847Y-88445476D01*
X81093280Y-88441386D01*
X81134727Y-88428814D01*
X81172918Y-88408399D01*
X81183910Y-88403201D01*
X81223914Y-88386632D01*
X81259938Y-88362560D01*
X81270351Y-88356320D01*
X81296591Y-88342295D01*
X81308535Y-88335912D01*
X81308539Y-88335909D01*
X81342005Y-88308444D01*
X81351782Y-88301193D01*
X81387781Y-88277140D01*
X81387783Y-88277138D01*
X81387785Y-88277136D01*
X81418408Y-88246512D01*
X81427402Y-88238359D01*
X81460883Y-88210883D01*
X81488359Y-88177402D01*
X81496512Y-88168408D01*
X81527139Y-88137782D01*
X81551200Y-88101772D01*
X81558444Y-88092005D01*
X81585909Y-88058539D01*
X81585912Y-88058535D01*
X81592295Y-88046591D01*
X81606320Y-88020351D01*
X81612560Y-88009938D01*
X81636632Y-87973914D01*
X81653202Y-87933906D01*
X81658402Y-87922913D01*
X81678814Y-87884727D01*
X81691386Y-87843280D01*
X81695476Y-87831847D01*
X81712051Y-87791835D01*
X81720500Y-87749353D01*
X81723450Y-87737580D01*
X81736024Y-87696132D01*
X81740268Y-87653037D01*
X81742054Y-87640999D01*
X81750500Y-87598541D01*
X81750500Y-87555244D01*
X81751097Y-87543090D01*
X81752503Y-87528811D01*
X81755341Y-87500000D01*
X81751097Y-87456907D01*
X81750500Y-87444754D01*
X81750500Y-87401458D01*
X81748117Y-87389480D01*
X81742052Y-87358990D01*
X81740268Y-87346961D01*
X81739419Y-87338345D01*
X81736024Y-87303868D01*
X81723448Y-87262414D01*
X81720499Y-87250640D01*
X81712051Y-87208165D01*
X81695480Y-87168159D01*
X81691383Y-87156710D01*
X81678814Y-87115273D01*
X81658404Y-87077091D01*
X81653203Y-87066095D01*
X81636632Y-87026086D01*
X81612572Y-86990078D01*
X81606316Y-86979640D01*
X81586888Y-86943291D01*
X81585910Y-86941462D01*
X81558438Y-86907988D01*
X81551194Y-86898219D01*
X81546928Y-86891835D01*
X81527139Y-86862218D01*
X81527136Y-86862214D01*
X81496520Y-86831599D01*
X81488346Y-86822581D01*
X81460884Y-86789118D01*
X81427416Y-86761651D01*
X81418401Y-86753479D01*
X81387787Y-86722865D01*
X81387783Y-86722862D01*
X81387780Y-86722860D01*
X81371139Y-86711740D01*
X81351772Y-86698799D01*
X81342002Y-86691552D01*
X81308543Y-86664094D01*
X81308535Y-86664088D01*
X81291436Y-86654948D01*
X81270350Y-86643678D01*
X81259918Y-86637425D01*
X81223918Y-86613370D01*
X81223914Y-86613368D01*
X81183915Y-86596800D01*
X81172913Y-86591597D01*
X81134729Y-86571187D01*
X81134728Y-86571186D01*
X81134727Y-86571186D01*
X81093277Y-86558612D01*
X81081834Y-86554517D01*
X81041834Y-86537948D01*
X81041827Y-86537946D01*
X80999378Y-86529503D01*
X80987575Y-86526547D01*
X80946134Y-86513976D01*
X80946130Y-86513975D01*
X80903035Y-86509730D01*
X80891006Y-86507945D01*
X80848544Y-86499500D01*
X80848541Y-86499500D01*
X80805244Y-86499500D01*
X80793090Y-86498903D01*
X80750000Y-86494659D01*
X80706910Y-86498903D01*
X80694756Y-86499500D01*
X80651453Y-86499500D01*
X80608991Y-86507945D01*
X80596963Y-86509730D01*
X80553867Y-86513976D01*
X80512427Y-86526546D01*
X80500626Y-86529502D01*
X80458166Y-86537948D01*
X80458161Y-86537949D01*
X80418159Y-86554518D01*
X80406707Y-86558616D01*
X80365272Y-86571186D01*
X80327091Y-86591594D01*
X80316093Y-86596795D01*
X80276091Y-86613364D01*
X80240080Y-86637426D01*
X80229645Y-86643680D01*
X80191465Y-86664087D01*
X80191460Y-86664091D01*
X80157990Y-86691557D01*
X80148225Y-86698799D01*
X80112225Y-86722855D01*
X80112219Y-86722860D01*
X80081595Y-86753483D01*
X80072584Y-86761650D01*
X80039117Y-86789117D01*
X80011650Y-86822584D01*
X80003483Y-86831595D01*
X79972860Y-86862219D01*
X79972855Y-86862225D01*
X79948799Y-86898225D01*
X79941557Y-86907990D01*
X79914091Y-86941460D01*
X79914087Y-86941465D01*
X79893680Y-86979645D01*
X79887426Y-86990080D01*
X79863364Y-87026091D01*
X79846795Y-87066093D01*
X79841594Y-87077091D01*
X79821186Y-87115272D01*
X79808616Y-87156707D01*
X79804518Y-87168159D01*
X79787949Y-87208161D01*
X79787948Y-87208166D01*
X79779502Y-87250626D01*
X79776546Y-87262427D01*
X79763976Y-87303867D01*
X79759730Y-87346963D01*
X79757945Y-87358991D01*
X79749500Y-87401453D01*
X79749500Y-87444754D01*
X79748903Y-87456907D01*
X79744659Y-87499999D01*
X78755341Y-87499999D01*
X78751097Y-87456907D01*
X78750500Y-87444754D01*
X78750500Y-87401458D01*
X78748117Y-87389480D01*
X78742052Y-87358990D01*
X78740268Y-87346961D01*
X78739419Y-87338345D01*
X78736024Y-87303868D01*
X78723448Y-87262414D01*
X78720499Y-87250640D01*
X78712051Y-87208165D01*
X78695480Y-87168159D01*
X78691383Y-87156710D01*
X78678814Y-87115273D01*
X78658404Y-87077091D01*
X78653203Y-87066095D01*
X78636632Y-87026086D01*
X78612572Y-86990078D01*
X78606316Y-86979640D01*
X78586888Y-86943291D01*
X78585910Y-86941462D01*
X78558438Y-86907988D01*
X78551194Y-86898219D01*
X78546928Y-86891835D01*
X78527139Y-86862218D01*
X78527136Y-86862214D01*
X78496520Y-86831599D01*
X78488346Y-86822581D01*
X78460884Y-86789118D01*
X78427416Y-86761651D01*
X78418401Y-86753479D01*
X78387787Y-86722865D01*
X78387783Y-86722862D01*
X78387780Y-86722860D01*
X78371139Y-86711740D01*
X78351772Y-86698799D01*
X78342002Y-86691552D01*
X78308543Y-86664094D01*
X78308535Y-86664088D01*
X78291436Y-86654948D01*
X78270350Y-86643678D01*
X78259918Y-86637425D01*
X78223918Y-86613370D01*
X78223914Y-86613368D01*
X78183915Y-86596800D01*
X78172913Y-86591597D01*
X78134729Y-86571187D01*
X78134728Y-86571186D01*
X78134727Y-86571186D01*
X78093277Y-86558612D01*
X78081834Y-86554517D01*
X78041834Y-86537948D01*
X78041827Y-86537946D01*
X77999378Y-86529503D01*
X77987575Y-86526547D01*
X77946134Y-86513976D01*
X77946130Y-86513975D01*
X77903035Y-86509730D01*
X77891006Y-86507945D01*
X77848544Y-86499500D01*
X77848541Y-86499500D01*
X77805244Y-86499500D01*
X77793090Y-86498903D01*
X77750000Y-86494659D01*
X77706910Y-86498903D01*
X77694756Y-86499500D01*
X77651453Y-86499500D01*
X77608991Y-86507945D01*
X77596963Y-86509730D01*
X77553867Y-86513976D01*
X77512427Y-86526546D01*
X77500626Y-86529502D01*
X77458166Y-86537948D01*
X77458161Y-86537949D01*
X77418159Y-86554518D01*
X77406707Y-86558616D01*
X77365272Y-86571186D01*
X77327091Y-86591594D01*
X77316093Y-86596795D01*
X77276091Y-86613364D01*
X77240080Y-86637426D01*
X77229645Y-86643680D01*
X77191465Y-86664087D01*
X77191460Y-86664091D01*
X77157990Y-86691557D01*
X77148225Y-86698799D01*
X77112225Y-86722855D01*
X77112219Y-86722860D01*
X77081595Y-86753483D01*
X77072584Y-86761650D01*
X77039117Y-86789117D01*
X77011650Y-86822584D01*
X77003483Y-86831595D01*
X76972860Y-86862219D01*
X76972855Y-86862225D01*
X76948799Y-86898225D01*
X76941557Y-86907990D01*
X76914091Y-86941460D01*
X76914087Y-86941465D01*
X76893680Y-86979645D01*
X76887426Y-86990080D01*
X76863364Y-87026091D01*
X76846795Y-87066093D01*
X76841594Y-87077091D01*
X76821186Y-87115272D01*
X76808616Y-87156707D01*
X76804518Y-87168159D01*
X76787949Y-87208161D01*
X76787948Y-87208166D01*
X76779502Y-87250626D01*
X76776546Y-87262427D01*
X76763976Y-87303867D01*
X76759730Y-87346963D01*
X76757945Y-87358991D01*
X76749500Y-87401453D01*
X76749500Y-87444754D01*
X76748903Y-87456907D01*
X76744659Y-87499999D01*
X75100500Y-87499999D01*
X75100500Y-85500000D01*
X92394815Y-85500000D01*
X92413503Y-85677805D01*
X92413504Y-85677807D01*
X92468747Y-85847829D01*
X92468750Y-85847835D01*
X92558141Y-86002665D01*
X92575728Y-86022197D01*
X92677764Y-86135521D01*
X92677767Y-86135523D01*
X92677770Y-86135526D01*
X92822407Y-86240612D01*
X92985733Y-86313329D01*
X93160609Y-86350500D01*
X93160610Y-86350500D01*
X93339389Y-86350500D01*
X93339391Y-86350500D01*
X93514267Y-86313329D01*
X93677593Y-86240612D01*
X93822230Y-86135526D01*
X93830726Y-86126091D01*
X93863150Y-86090080D01*
X93941859Y-86002665D01*
X94031250Y-85847835D01*
X94086497Y-85677803D01*
X94105185Y-85500000D01*
X94086497Y-85322197D01*
X94037094Y-85170151D01*
X94031252Y-85152170D01*
X94031249Y-85152164D01*
X93941859Y-84997335D01*
X93937365Y-84992344D01*
X95844815Y-84992344D01*
X95863503Y-85170149D01*
X95863504Y-85170151D01*
X95918747Y-85340173D01*
X95918750Y-85340179D01*
X96008141Y-85495009D01*
X96049812Y-85541290D01*
X96127764Y-85627865D01*
X96127767Y-85627867D01*
X96127770Y-85627870D01*
X96272407Y-85732956D01*
X96435733Y-85805673D01*
X96610609Y-85842844D01*
X96610610Y-85842844D01*
X96743629Y-85842844D01*
X96810668Y-85862529D01*
X96856423Y-85915333D01*
X96866367Y-85984491D01*
X96837342Y-86048047D01*
X96816515Y-86067162D01*
X96782329Y-86091999D01*
X96662701Y-86224860D01*
X96573311Y-86379688D01*
X96573308Y-86379694D01*
X96518065Y-86549716D01*
X96518064Y-86549718D01*
X96499376Y-86727524D01*
X96518064Y-86905329D01*
X96518065Y-86905331D01*
X96573308Y-87075353D01*
X96573311Y-87075359D01*
X96662702Y-87230189D01*
X96729042Y-87303867D01*
X96731260Y-87306330D01*
X96761490Y-87369321D01*
X96752865Y-87438656D01*
X96708124Y-87492322D01*
X96664891Y-87510592D01*
X96511019Y-87543298D01*
X96511014Y-87543300D01*
X96347694Y-87616015D01*
X96203054Y-87721103D01*
X96083426Y-87853964D01*
X95994036Y-88008792D01*
X95994033Y-88008798D01*
X95938790Y-88178820D01*
X95938789Y-88178822D01*
X95920101Y-88356628D01*
X95938789Y-88534433D01*
X95938790Y-88534435D01*
X95994033Y-88704457D01*
X95994036Y-88704463D01*
X96083427Y-88859293D01*
X96125098Y-88905574D01*
X96203050Y-88992149D01*
X96203053Y-88992151D01*
X96203056Y-88992154D01*
X96347693Y-89097240D01*
X96511019Y-89169957D01*
X96511021Y-89169957D01*
X96511022Y-89169958D01*
X96562866Y-89180977D01*
X96654425Y-89200439D01*
X96715906Y-89233630D01*
X96749683Y-89294793D01*
X96745031Y-89364507D01*
X96720794Y-89404700D01*
X96613559Y-89523797D01*
X96524169Y-89678625D01*
X96524166Y-89678631D01*
X96468923Y-89848653D01*
X96468922Y-89848655D01*
X96450234Y-90026461D01*
X96468922Y-90204266D01*
X96468923Y-90204268D01*
X96524166Y-90374290D01*
X96524169Y-90374296D01*
X96613560Y-90529126D01*
X96655231Y-90575407D01*
X96733183Y-90661982D01*
X96733186Y-90661984D01*
X96733189Y-90661987D01*
X96877826Y-90767073D01*
X97041152Y-90839790D01*
X97216028Y-90876961D01*
X97216029Y-90876961D01*
X97394808Y-90876961D01*
X97394810Y-90876961D01*
X97481102Y-90858619D01*
X105214815Y-90858619D01*
X105233503Y-91036424D01*
X105233504Y-91036426D01*
X105288747Y-91206448D01*
X105288750Y-91206454D01*
X105378141Y-91361284D01*
X105419812Y-91407565D01*
X105497764Y-91494140D01*
X105497767Y-91494142D01*
X105497770Y-91494145D01*
X105642407Y-91599231D01*
X105805733Y-91671948D01*
X105980609Y-91709119D01*
X105980610Y-91709119D01*
X106159389Y-91709119D01*
X106159391Y-91709119D01*
X106334267Y-91671948D01*
X106497593Y-91599231D01*
X106642230Y-91494145D01*
X106761859Y-91361284D01*
X106851250Y-91206454D01*
X106906497Y-91036422D01*
X106925185Y-90858619D01*
X106925182Y-90858593D01*
X106925185Y-90858578D01*
X106925185Y-90852120D01*
X106926366Y-90852120D01*
X106937751Y-90789865D01*
X106985482Y-90738841D01*
X106995223Y-90736379D01*
X106945496Y-90719690D01*
X106901791Y-90665177D01*
X106898545Y-90656344D01*
X106851250Y-90510784D01*
X106761859Y-90355954D01*
X106672936Y-90257195D01*
X106642235Y-90223097D01*
X106642232Y-90223095D01*
X106642231Y-90223094D01*
X106642230Y-90223093D01*
X106497593Y-90118007D01*
X106334267Y-90045290D01*
X106334265Y-90045289D01*
X106206594Y-90018152D01*
X106159391Y-90008119D01*
X105980609Y-90008119D01*
X105949954Y-90014634D01*
X105805733Y-90045289D01*
X105805728Y-90045291D01*
X105642408Y-90118006D01*
X105497768Y-90223094D01*
X105378140Y-90355955D01*
X105288750Y-90510783D01*
X105288747Y-90510789D01*
X105233504Y-90680811D01*
X105233503Y-90680813D01*
X105214815Y-90858619D01*
X97481102Y-90858619D01*
X97569686Y-90839790D01*
X97733012Y-90767073D01*
X97877649Y-90661987D01*
X97997278Y-90529126D01*
X98086669Y-90374296D01*
X98141916Y-90204264D01*
X98160604Y-90026461D01*
X98141916Y-89848658D01*
X98086669Y-89678626D01*
X97997278Y-89523796D01*
X97905798Y-89422197D01*
X97877654Y-89390939D01*
X97877651Y-89390937D01*
X97877650Y-89390936D01*
X97877649Y-89390935D01*
X97733012Y-89285849D01*
X97569686Y-89213132D01*
X97569684Y-89213131D01*
X97426280Y-89182650D01*
X97364798Y-89149458D01*
X97331022Y-89088295D01*
X97335674Y-89018580D01*
X97359911Y-88978388D01*
X97387421Y-88947835D01*
X97467145Y-88859293D01*
X97556536Y-88704463D01*
X97611783Y-88534431D01*
X97615402Y-88500000D01*
X107044815Y-88500000D01*
X107063503Y-88677805D01*
X107063504Y-88677807D01*
X107118747Y-88847829D01*
X107118750Y-88847835D01*
X107208139Y-89002663D01*
X107208140Y-89002664D01*
X107242091Y-89040370D01*
X107272321Y-89103362D01*
X107263696Y-89172697D01*
X107257329Y-89185342D01*
X107218749Y-89252164D01*
X107163504Y-89422192D01*
X107163503Y-89422194D01*
X107144815Y-89600000D01*
X107163503Y-89777805D01*
X107163504Y-89777807D01*
X107218747Y-89947829D01*
X107218748Y-89947830D01*
X107218750Y-89947835D01*
X107253555Y-90008119D01*
X107269745Y-90036161D01*
X107286217Y-90104061D01*
X107269745Y-90160159D01*
X107213724Y-90257192D01*
X107213722Y-90257195D01*
X107158479Y-90427217D01*
X107158478Y-90427219D01*
X107139790Y-90605027D01*
X107139790Y-90605036D01*
X107139793Y-90605065D01*
X107139790Y-90605081D01*
X107139790Y-90611524D01*
X107138611Y-90611524D01*
X107127216Y-90673793D01*
X107079477Y-90724811D01*
X107069752Y-90727267D01*
X107119464Y-90743944D01*
X107163176Y-90798451D01*
X107166434Y-90807314D01*
X107213722Y-90952854D01*
X107213725Y-90952860D01*
X107303116Y-91107690D01*
X107315833Y-91121813D01*
X107316298Y-91122330D01*
X107346528Y-91185321D01*
X107337903Y-91254657D01*
X107316303Y-91288269D01*
X107308142Y-91297333D01*
X107308138Y-91297338D01*
X107218750Y-91452164D01*
X107218747Y-91452170D01*
X107163504Y-91622192D01*
X107163503Y-91622194D01*
X107144815Y-91800000D01*
X107163503Y-91977805D01*
X107163504Y-91977807D01*
X107218747Y-92147829D01*
X107218750Y-92147835D01*
X107308141Y-92302665D01*
X107325728Y-92322197D01*
X107427764Y-92435521D01*
X107427767Y-92435523D01*
X107427770Y-92435526D01*
X107572407Y-92540612D01*
X107735733Y-92613329D01*
X107910609Y-92650500D01*
X107910610Y-92650500D01*
X108089389Y-92650500D01*
X108089391Y-92650500D01*
X108264267Y-92613329D01*
X108427593Y-92540612D01*
X108572230Y-92435526D01*
X108691859Y-92302665D01*
X108781250Y-92147835D01*
X108836497Y-91977803D01*
X108855185Y-91800000D01*
X108836497Y-91622197D01*
X108781250Y-91452165D01*
X108691859Y-91297335D01*
X108683696Y-91288269D01*
X108678674Y-91282691D01*
X108648446Y-91219699D01*
X108657072Y-91150364D01*
X108678675Y-91116750D01*
X108686834Y-91107690D01*
X108776225Y-90952860D01*
X108831472Y-90782828D01*
X108850160Y-90605025D01*
X108831472Y-90427222D01*
X108776225Y-90257190D01*
X108725227Y-90168860D01*
X108708756Y-90100964D01*
X108725226Y-90044869D01*
X108781250Y-89947835D01*
X108836497Y-89777803D01*
X108855185Y-89600000D01*
X108836497Y-89422197D01*
X108781250Y-89252165D01*
X108695339Y-89103362D01*
X108691860Y-89097336D01*
X108691855Y-89097329D01*
X108657908Y-89059628D01*
X108627677Y-88996636D01*
X108636302Y-88927301D01*
X108642665Y-88914665D01*
X108681250Y-88847835D01*
X108736497Y-88677803D01*
X108755185Y-88500000D01*
X108736497Y-88322197D01*
X108700329Y-88210883D01*
X108681252Y-88152170D01*
X108681251Y-88152169D01*
X108681250Y-88152165D01*
X108650093Y-88098199D01*
X108633621Y-88030304D01*
X108656473Y-87964277D01*
X108665313Y-87953252D01*
X108701859Y-87912665D01*
X108791250Y-87757835D01*
X108846497Y-87587803D01*
X108865185Y-87410000D01*
X108846497Y-87232197D01*
X108846495Y-87232193D01*
X108846495Y-87232190D01*
X108840201Y-87212820D01*
X108838204Y-87142979D01*
X108874284Y-87083145D01*
X108936985Y-87052316D01*
X108958131Y-87050500D01*
X108989389Y-87050500D01*
X108989391Y-87050500D01*
X109164267Y-87013329D01*
X109327593Y-86940612D01*
X109472230Y-86835526D01*
X109591859Y-86702665D01*
X109651133Y-86599999D01*
X119394659Y-86599999D01*
X119398903Y-86643090D01*
X119399500Y-86655244D01*
X119399500Y-86698544D01*
X119407945Y-86741006D01*
X119409730Y-86753035D01*
X119413975Y-86796130D01*
X119413976Y-86796134D01*
X119426547Y-86837575D01*
X119429503Y-86849378D01*
X119437946Y-86891827D01*
X119437948Y-86891834D01*
X119454517Y-86931834D01*
X119458612Y-86943277D01*
X119471186Y-86984726D01*
X119471187Y-86984729D01*
X119491597Y-87022913D01*
X119496800Y-87033915D01*
X119513368Y-87073914D01*
X119513370Y-87073918D01*
X119537425Y-87109918D01*
X119543678Y-87120350D01*
X119554948Y-87141436D01*
X119564088Y-87158535D01*
X119564094Y-87158543D01*
X119591552Y-87192002D01*
X119598799Y-87201772D01*
X119611740Y-87221139D01*
X119622860Y-87237781D01*
X119622862Y-87237783D01*
X119622865Y-87237787D01*
X119653479Y-87268401D01*
X119661651Y-87277416D01*
X119689117Y-87310883D01*
X119722579Y-87338345D01*
X119722581Y-87338346D01*
X119731599Y-87346520D01*
X119762214Y-87377136D01*
X119762217Y-87377138D01*
X119762218Y-87377139D01*
X119798217Y-87401193D01*
X119798219Y-87401194D01*
X119807988Y-87408438D01*
X119841462Y-87435910D01*
X119879640Y-87456316D01*
X119890078Y-87462572D01*
X119897899Y-87467797D01*
X119926086Y-87486632D01*
X119966095Y-87503203D01*
X119977091Y-87508404D01*
X120015273Y-87528814D01*
X120056710Y-87541383D01*
X120068160Y-87545480D01*
X120108165Y-87562051D01*
X120150640Y-87570499D01*
X120162414Y-87573448D01*
X120203868Y-87586024D01*
X120246964Y-87590268D01*
X120258990Y-87592052D01*
X120289480Y-87598117D01*
X120301458Y-87600500D01*
X120301459Y-87600500D01*
X120344756Y-87600500D01*
X120356909Y-87601096D01*
X120400000Y-87605341D01*
X120443090Y-87601096D01*
X120455244Y-87600500D01*
X120498542Y-87600500D01*
X120514454Y-87597334D01*
X120541005Y-87592053D01*
X120553037Y-87590268D01*
X120596132Y-87586024D01*
X120637580Y-87573450D01*
X120649353Y-87570500D01*
X120691835Y-87562051D01*
X120731847Y-87545476D01*
X120743280Y-87541386D01*
X120784727Y-87528814D01*
X120822918Y-87508399D01*
X120833910Y-87503201D01*
X120873914Y-87486632D01*
X120909938Y-87462560D01*
X120920351Y-87456320D01*
X120946591Y-87442295D01*
X120958535Y-87435912D01*
X120958539Y-87435909D01*
X120992005Y-87408444D01*
X121001782Y-87401193D01*
X121037781Y-87377140D01*
X121037783Y-87377138D01*
X121037785Y-87377136D01*
X121068408Y-87346512D01*
X121077402Y-87338359D01*
X121110883Y-87310883D01*
X121138359Y-87277402D01*
X121146512Y-87268408D01*
X121177139Y-87237782D01*
X121180876Y-87232190D01*
X121201193Y-87201782D01*
X121208444Y-87192005D01*
X121235909Y-87158539D01*
X121235912Y-87158535D01*
X121244226Y-87142979D01*
X121256320Y-87120351D01*
X121262560Y-87109938D01*
X121286632Y-87073914D01*
X121303202Y-87033906D01*
X121308402Y-87022913D01*
X121328814Y-86984727D01*
X121341386Y-86943280D01*
X121345476Y-86931847D01*
X121362051Y-86891835D01*
X121370500Y-86849353D01*
X121373450Y-86837580D01*
X121386024Y-86796132D01*
X121390268Y-86753037D01*
X121392054Y-86740999D01*
X121395662Y-86722865D01*
X121400500Y-86698541D01*
X121400500Y-86655244D01*
X121401097Y-86643090D01*
X121401655Y-86637425D01*
X121405341Y-86600000D01*
X121401265Y-86558616D01*
X121401097Y-86556907D01*
X121400500Y-86544754D01*
X121400500Y-86501458D01*
X121398117Y-86489480D01*
X121392052Y-86458990D01*
X121390268Y-86446961D01*
X121386024Y-86403869D01*
X121386024Y-86403868D01*
X121373448Y-86362414D01*
X121370499Y-86350640D01*
X121362051Y-86308165D01*
X121345480Y-86268159D01*
X121341383Y-86256710D01*
X121328814Y-86215273D01*
X121308404Y-86177091D01*
X121303203Y-86166095D01*
X121286632Y-86126086D01*
X121267797Y-86097899D01*
X121262572Y-86090078D01*
X121256316Y-86079640D01*
X121235911Y-86041464D01*
X121235910Y-86041462D01*
X121208438Y-86007988D01*
X121201194Y-85998219D01*
X121177140Y-85962219D01*
X121177136Y-85962214D01*
X121146520Y-85931599D01*
X121138346Y-85922581D01*
X121110884Y-85889118D01*
X121077416Y-85861651D01*
X121068401Y-85853479D01*
X121037787Y-85822865D01*
X121037783Y-85822862D01*
X121037780Y-85822860D01*
X121010356Y-85804535D01*
X121001772Y-85798799D01*
X120992002Y-85791552D01*
X120958543Y-85764094D01*
X120958535Y-85764088D01*
X120941436Y-85754948D01*
X120920350Y-85743678D01*
X120909918Y-85737425D01*
X120873918Y-85713370D01*
X120873914Y-85713368D01*
X120833915Y-85696800D01*
X120822913Y-85691597D01*
X120784729Y-85671187D01*
X120784728Y-85671186D01*
X120784727Y-85671186D01*
X120743277Y-85658612D01*
X120731834Y-85654517D01*
X120691834Y-85637948D01*
X120691827Y-85637946D01*
X120649378Y-85629503D01*
X120637575Y-85626547D01*
X120596134Y-85613976D01*
X120596130Y-85613975D01*
X120553035Y-85609730D01*
X120541006Y-85607945D01*
X120498544Y-85599500D01*
X120498541Y-85599500D01*
X120455244Y-85599500D01*
X120443090Y-85598903D01*
X120400000Y-85594659D01*
X120356910Y-85598903D01*
X120344756Y-85599500D01*
X120301453Y-85599500D01*
X120258991Y-85607945D01*
X120246963Y-85609730D01*
X120203867Y-85613976D01*
X120162427Y-85626546D01*
X120150626Y-85629502D01*
X120108166Y-85637948D01*
X120108161Y-85637949D01*
X120068159Y-85654518D01*
X120056707Y-85658616D01*
X120015272Y-85671186D01*
X119977091Y-85691594D01*
X119966093Y-85696795D01*
X119926091Y-85713364D01*
X119890080Y-85737426D01*
X119879645Y-85743680D01*
X119841465Y-85764087D01*
X119841460Y-85764091D01*
X119807990Y-85791557D01*
X119798225Y-85798799D01*
X119762225Y-85822855D01*
X119762219Y-85822860D01*
X119731595Y-85853483D01*
X119722584Y-85861650D01*
X119689117Y-85889117D01*
X119661650Y-85922584D01*
X119653483Y-85931595D01*
X119622860Y-85962219D01*
X119622855Y-85962225D01*
X119598799Y-85998225D01*
X119591557Y-86007990D01*
X119564091Y-86041460D01*
X119564087Y-86041465D01*
X119543680Y-86079645D01*
X119537426Y-86090080D01*
X119513364Y-86126091D01*
X119496795Y-86166093D01*
X119491594Y-86177091D01*
X119471186Y-86215272D01*
X119458616Y-86256707D01*
X119454518Y-86268159D01*
X119437949Y-86308161D01*
X119437948Y-86308166D01*
X119429502Y-86350626D01*
X119426546Y-86362427D01*
X119413976Y-86403867D01*
X119409730Y-86446963D01*
X119407945Y-86458991D01*
X119399500Y-86501453D01*
X119399500Y-86544754D01*
X119398903Y-86556907D01*
X119394659Y-86599999D01*
X109651133Y-86599999D01*
X109681250Y-86547835D01*
X109684463Y-86537948D01*
X109688167Y-86526546D01*
X109736497Y-86377803D01*
X109755185Y-86200000D01*
X109736497Y-86022197D01*
X109707060Y-85931599D01*
X109681252Y-85852170D01*
X109681249Y-85852164D01*
X109678750Y-85847835D01*
X109591859Y-85697335D01*
X109545003Y-85645296D01*
X109472235Y-85564478D01*
X109472232Y-85564476D01*
X109472231Y-85564475D01*
X109472230Y-85564474D01*
X109327593Y-85459388D01*
X109164267Y-85386671D01*
X109164265Y-85386670D01*
X109036594Y-85359533D01*
X108989391Y-85349500D01*
X108810609Y-85349500D01*
X108779954Y-85356015D01*
X108635733Y-85386670D01*
X108635728Y-85386672D01*
X108472408Y-85459387D01*
X108327768Y-85564475D01*
X108208140Y-85697336D01*
X108118750Y-85852164D01*
X108118747Y-85852170D01*
X108063504Y-86022192D01*
X108063503Y-86022194D01*
X108044815Y-86200000D01*
X108063503Y-86377805D01*
X108063504Y-86377809D01*
X108069799Y-86397180D01*
X108071796Y-86467021D01*
X108035716Y-86526855D01*
X107973015Y-86557684D01*
X107951869Y-86559500D01*
X107920609Y-86559500D01*
X107890866Y-86565822D01*
X107745733Y-86596670D01*
X107745728Y-86596672D01*
X107582408Y-86669387D01*
X107437768Y-86774475D01*
X107318140Y-86907336D01*
X107228750Y-87062164D01*
X107228747Y-87062170D01*
X107173504Y-87232192D01*
X107173503Y-87232194D01*
X107154815Y-87410000D01*
X107173503Y-87587805D01*
X107173504Y-87587807D01*
X107228747Y-87757829D01*
X107228750Y-87757835D01*
X107259904Y-87811795D01*
X107276377Y-87879695D01*
X107253524Y-87945722D01*
X107244668Y-87956766D01*
X107208144Y-87997329D01*
X107208139Y-87997336D01*
X107118750Y-88152164D01*
X107118747Y-88152170D01*
X107063504Y-88322192D01*
X107063503Y-88322194D01*
X107044815Y-88500000D01*
X97615402Y-88500000D01*
X97630471Y-88356628D01*
X97611783Y-88178825D01*
X97572698Y-88058535D01*
X97556538Y-88008798D01*
X97556535Y-88008792D01*
X97549921Y-87997336D01*
X97467145Y-87853963D01*
X97398585Y-87777820D01*
X97368356Y-87714830D01*
X97376981Y-87645495D01*
X97421722Y-87591829D01*
X97464953Y-87573559D01*
X97597041Y-87545484D01*
X97618824Y-87540854D01*
X97618824Y-87540853D01*
X97618828Y-87540853D01*
X97782154Y-87468136D01*
X97926791Y-87363050D01*
X97935822Y-87353021D01*
X97952709Y-87334265D01*
X98046420Y-87230189D01*
X98135811Y-87075359D01*
X98191058Y-86905327D01*
X98209746Y-86727524D01*
X98191058Y-86549721D01*
X98143668Y-86403869D01*
X98135813Y-86379694D01*
X98135810Y-86379688D01*
X98046420Y-86224859D01*
X97993504Y-86166090D01*
X97926796Y-86092002D01*
X97926793Y-86092000D01*
X97926792Y-86091999D01*
X97926791Y-86091998D01*
X97782154Y-85986912D01*
X97618828Y-85914195D01*
X97618826Y-85914194D01*
X97491155Y-85887057D01*
X97443952Y-85877024D01*
X97310932Y-85877024D01*
X97243893Y-85857339D01*
X97198138Y-85804535D01*
X97188194Y-85735377D01*
X97217219Y-85671821D01*
X97238044Y-85652707D01*
X97272230Y-85627870D01*
X97273422Y-85626547D01*
X97302133Y-85594659D01*
X97391859Y-85495009D01*
X97481250Y-85340179D01*
X97536497Y-85170147D01*
X97555185Y-84992344D01*
X97536497Y-84814541D01*
X97494950Y-84686672D01*
X97481252Y-84644514D01*
X97481249Y-84644508D01*
X97391859Y-84489679D01*
X97345003Y-84437640D01*
X97272235Y-84356822D01*
X97272232Y-84356820D01*
X97272231Y-84356819D01*
X97272230Y-84356818D01*
X97127593Y-84251732D01*
X96964267Y-84179015D01*
X96964265Y-84179014D01*
X96836594Y-84151877D01*
X96789391Y-84141844D01*
X96610609Y-84141844D01*
X96579954Y-84148359D01*
X96435733Y-84179014D01*
X96435728Y-84179016D01*
X96272408Y-84251731D01*
X96127768Y-84356819D01*
X96008140Y-84489680D01*
X95918750Y-84644508D01*
X95918747Y-84644514D01*
X95863504Y-84814536D01*
X95863503Y-84814538D01*
X95844815Y-84992344D01*
X93937365Y-84992344D01*
X93895003Y-84945296D01*
X93822235Y-84864478D01*
X93822232Y-84864476D01*
X93822231Y-84864475D01*
X93822230Y-84864474D01*
X93677593Y-84759388D01*
X93514267Y-84686671D01*
X93514265Y-84686670D01*
X93386594Y-84659533D01*
X93339391Y-84649500D01*
X93160609Y-84649500D01*
X93129954Y-84656015D01*
X92985733Y-84686670D01*
X92985728Y-84686672D01*
X92822408Y-84759387D01*
X92677768Y-84864475D01*
X92558140Y-84997336D01*
X92468750Y-85152164D01*
X92468747Y-85152170D01*
X92413504Y-85322192D01*
X92413503Y-85322194D01*
X92394815Y-85500000D01*
X75100500Y-85500000D01*
X75100500Y-82500000D01*
X78894815Y-82500000D01*
X78913503Y-82677805D01*
X78913504Y-82677807D01*
X78968747Y-82847829D01*
X78968750Y-82847835D01*
X79058141Y-83002665D01*
X79099812Y-83048946D01*
X79177764Y-83135521D01*
X79177767Y-83135523D01*
X79177770Y-83135526D01*
X79322407Y-83240612D01*
X79485733Y-83313329D01*
X79660609Y-83350500D01*
X79660610Y-83350500D01*
X79839389Y-83350500D01*
X79839391Y-83350500D01*
X80014267Y-83313329D01*
X80177593Y-83240612D01*
X80322230Y-83135526D01*
X80441859Y-83002665D01*
X80531250Y-82847835D01*
X80586497Y-82677803D01*
X80605185Y-82500000D01*
X80586497Y-82322197D01*
X80586495Y-82322190D01*
X80586089Y-82320277D01*
X80586175Y-82319144D01*
X80585817Y-82315734D01*
X80586440Y-82315668D01*
X80591407Y-82250610D01*
X80633546Y-82194878D01*
X80699127Y-82170775D01*
X80707380Y-82170500D01*
X81503466Y-82170500D01*
X81503467Y-82170499D01*
X81706420Y-82130130D01*
X81897598Y-82050941D01*
X82069655Y-81935977D01*
X82215977Y-81789655D01*
X82330941Y-81617598D01*
X82410130Y-81426420D01*
X82450500Y-81223465D01*
X82450500Y-81016535D01*
X82427320Y-80900000D01*
X88694659Y-80900000D01*
X88713975Y-81096129D01*
X88713976Y-81096132D01*
X88762141Y-81254911D01*
X88771188Y-81284733D01*
X88864086Y-81458532D01*
X88864090Y-81458539D01*
X88989116Y-81610883D01*
X89141460Y-81735909D01*
X89141467Y-81735913D01*
X89315266Y-81828811D01*
X89315269Y-81828811D01*
X89315273Y-81828814D01*
X89503868Y-81886024D01*
X89700000Y-81905341D01*
X89896132Y-81886024D01*
X90084727Y-81828814D01*
X90113698Y-81813329D01*
X90214614Y-81759388D01*
X90258538Y-81735910D01*
X90410883Y-81610883D01*
X90535910Y-81458538D01*
X90539917Y-81451041D01*
X92243618Y-81451041D01*
X92262934Y-81647170D01*
X92320147Y-81835774D01*
X92413045Y-82009573D01*
X92413049Y-82009580D01*
X92538075Y-82161924D01*
X92690419Y-82286950D01*
X92690426Y-82286954D01*
X92864225Y-82379852D01*
X92864228Y-82379852D01*
X92864232Y-82379855D01*
X93052827Y-82437065D01*
X93248959Y-82456382D01*
X93445091Y-82437065D01*
X93633686Y-82379855D01*
X93807497Y-82286951D01*
X93959842Y-82161924D01*
X94084869Y-82009579D01*
X94177152Y-81836930D01*
X94177770Y-81835774D01*
X94177770Y-81835773D01*
X94177773Y-81835768D01*
X94234983Y-81647173D01*
X94254300Y-81451041D01*
X94234983Y-81254909D01*
X94177773Y-81066314D01*
X94177770Y-81066310D01*
X94177770Y-81066307D01*
X94142328Y-81000000D01*
X96044815Y-81000000D01*
X96063503Y-81177805D01*
X96063504Y-81177807D01*
X96118747Y-81347829D01*
X96118750Y-81347835D01*
X96208141Y-81502665D01*
X96235448Y-81532992D01*
X96327764Y-81635521D01*
X96327767Y-81635523D01*
X96327770Y-81635526D01*
X96472407Y-81740612D01*
X96635733Y-81813329D01*
X96810609Y-81850500D01*
X96810610Y-81850500D01*
X96989389Y-81850500D01*
X96989391Y-81850500D01*
X97164267Y-81813329D01*
X97327593Y-81740612D01*
X97472230Y-81635526D01*
X97591859Y-81502665D01*
X97681250Y-81347835D01*
X97736497Y-81177803D01*
X97755185Y-81000000D01*
X97736497Y-80822197D01*
X97698050Y-80703870D01*
X97681252Y-80652170D01*
X97681249Y-80652164D01*
X97591859Y-80497335D01*
X97536201Y-80435521D01*
X97472235Y-80364478D01*
X97472232Y-80364476D01*
X97472231Y-80364475D01*
X97472230Y-80364474D01*
X97327593Y-80259388D01*
X97164267Y-80186671D01*
X97164265Y-80186670D01*
X97036594Y-80159533D01*
X96989391Y-80149500D01*
X96810609Y-80149500D01*
X96779954Y-80156015D01*
X96635733Y-80186670D01*
X96635728Y-80186672D01*
X96472408Y-80259387D01*
X96327768Y-80364475D01*
X96208140Y-80497336D01*
X96118750Y-80652164D01*
X96118747Y-80652170D01*
X96063504Y-80822192D01*
X96063503Y-80822194D01*
X96044815Y-81000000D01*
X94142328Y-81000000D01*
X94084872Y-80892508D01*
X94084868Y-80892501D01*
X93959842Y-80740157D01*
X93807498Y-80615131D01*
X93807491Y-80615127D01*
X93633692Y-80522229D01*
X93633686Y-80522227D01*
X93445091Y-80465017D01*
X93445088Y-80465016D01*
X93248959Y-80445700D01*
X93052829Y-80465016D01*
X92864225Y-80522229D01*
X92690426Y-80615127D01*
X92690419Y-80615131D01*
X92538075Y-80740157D01*
X92413049Y-80892501D01*
X92413045Y-80892508D01*
X92320147Y-81066307D01*
X92262934Y-81254911D01*
X92243618Y-81451041D01*
X90539917Y-81451041D01*
X90628814Y-81284727D01*
X90686024Y-81096132D01*
X90705341Y-80900000D01*
X90686024Y-80703868D01*
X90628814Y-80515273D01*
X90628811Y-80515269D01*
X90628811Y-80515266D01*
X90535913Y-80341467D01*
X90535909Y-80341460D01*
X90410883Y-80189116D01*
X90258539Y-80064090D01*
X90258532Y-80064086D01*
X90084733Y-79971188D01*
X90084727Y-79971186D01*
X89896132Y-79913976D01*
X89896129Y-79913975D01*
X89700000Y-79894659D01*
X89503870Y-79913975D01*
X89315266Y-79971188D01*
X89141467Y-80064086D01*
X89141460Y-80064090D01*
X88989116Y-80189116D01*
X88864090Y-80341460D01*
X88864086Y-80341467D01*
X88771188Y-80515266D01*
X88713975Y-80703870D01*
X88694659Y-80900000D01*
X82427320Y-80900000D01*
X82410130Y-80813580D01*
X82330941Y-80622402D01*
X82215977Y-80450345D01*
X82215975Y-80450342D01*
X82069657Y-80304024D01*
X81962107Y-80232162D01*
X81897598Y-80189059D01*
X81891835Y-80186672D01*
X81706420Y-80109870D01*
X81706412Y-80109868D01*
X81503469Y-80069500D01*
X81503465Y-80069500D01*
X81362770Y-80069500D01*
X81295731Y-80049815D01*
X81249976Y-79997011D01*
X81240032Y-79927853D01*
X81241149Y-79921327D01*
X81241875Y-79917671D01*
X81242948Y-79912281D01*
X81246630Y-79898168D01*
X81256497Y-79867803D01*
X81261171Y-79823322D01*
X81262875Y-79812098D01*
X81264220Y-79805340D01*
X81270500Y-79773767D01*
X81270500Y-79741075D01*
X81271179Y-79728114D01*
X81271236Y-79727569D01*
X81275185Y-79690000D01*
X81271179Y-79651885D01*
X81270500Y-79638924D01*
X81270500Y-79606232D01*
X81264491Y-79576024D01*
X81262872Y-79567885D01*
X81261171Y-79556671D01*
X81256497Y-79512197D01*
X81246633Y-79481839D01*
X81242947Y-79467712D01*
X81237817Y-79441925D01*
X81237816Y-79441918D01*
X81220401Y-79399877D01*
X81217045Y-79390780D01*
X81201250Y-79342165D01*
X81188486Y-79320058D01*
X81181314Y-79305513D01*
X81173706Y-79287144D01*
X81173705Y-79287142D01*
X81173703Y-79287137D01*
X81144885Y-79244008D01*
X81140601Y-79237119D01*
X81111860Y-79187336D01*
X81111856Y-79187331D01*
X81099070Y-79173131D01*
X81088115Y-79159047D01*
X81081094Y-79148539D01*
X81080626Y-79147838D01*
X81039441Y-79106653D01*
X81034974Y-79101946D01*
X80992234Y-79054477D01*
X80992230Y-79054474D01*
X80981952Y-79047006D01*
X80967161Y-79034372D01*
X80962165Y-79029376D01*
X80962161Y-79029373D01*
X80908442Y-78993479D01*
X80904448Y-78990695D01*
X80847594Y-78949388D01*
X80847593Y-78949387D01*
X80841855Y-78946833D01*
X80823397Y-78936654D01*
X80822866Y-78936299D01*
X80822865Y-78936298D01*
X80822863Y-78936297D01*
X80757241Y-78909115D01*
X80754289Y-78907846D01*
X80684270Y-78876672D01*
X80683316Y-78876362D01*
X80674047Y-78873492D01*
X80673908Y-78873952D01*
X80668085Y-78872185D01*
X80668082Y-78872184D01*
X80668078Y-78872183D01*
X80668071Y-78872181D01*
X80592172Y-78857084D01*
X80590620Y-78856765D01*
X80509391Y-78839500D01*
X80330609Y-78839500D01*
X80266601Y-78853104D01*
X80249428Y-78856755D01*
X80247841Y-78857081D01*
X80171921Y-78872183D01*
X80166090Y-78873952D01*
X80165949Y-78873490D01*
X80156651Y-78876372D01*
X80155731Y-78876671D01*
X80085721Y-78907840D01*
X80082745Y-78909119D01*
X80017139Y-78936295D01*
X80017132Y-78936299D01*
X80016581Y-78936668D01*
X79998157Y-78946827D01*
X79992413Y-78949384D01*
X79992406Y-78949389D01*
X79935580Y-78990675D01*
X79931590Y-78993456D01*
X79877841Y-79029371D01*
X79877834Y-79029377D01*
X79872830Y-79034381D01*
X79858050Y-79047003D01*
X79847777Y-79054467D01*
X79847767Y-79054476D01*
X79805022Y-79101948D01*
X79800557Y-79106653D01*
X79759377Y-79147834D01*
X79759369Y-79147843D01*
X79751877Y-79159056D01*
X79740932Y-79173128D01*
X79728142Y-79187333D01*
X79728138Y-79187338D01*
X79699392Y-79237127D01*
X79695109Y-79244014D01*
X79666302Y-79287126D01*
X79666296Y-79287137D01*
X79658683Y-79305517D01*
X79651513Y-79320055D01*
X79638752Y-79342158D01*
X79622959Y-79390761D01*
X79619592Y-79399887D01*
X79602183Y-79441919D01*
X79602183Y-79441921D01*
X79597052Y-79467714D01*
X79593367Y-79481834D01*
X79583504Y-79512192D01*
X79583502Y-79512202D01*
X79578828Y-79556664D01*
X79577126Y-79567885D01*
X79569500Y-79606228D01*
X79569500Y-79638924D01*
X79568821Y-79651885D01*
X79564815Y-79690000D01*
X79568821Y-79728114D01*
X79569500Y-79741075D01*
X79569500Y-79773770D01*
X79577126Y-79812114D01*
X79578828Y-79823336D01*
X79583502Y-79867797D01*
X79583503Y-79867804D01*
X79593366Y-79898160D01*
X79597051Y-79912281D01*
X79602183Y-79938079D01*
X79602184Y-79938084D01*
X79619586Y-79980095D01*
X79622955Y-79989226D01*
X79638750Y-80037836D01*
X79651508Y-80059933D01*
X79658682Y-80074479D01*
X79666296Y-80092862D01*
X79695110Y-80135984D01*
X79699389Y-80142865D01*
X79719562Y-80177805D01*
X79728142Y-80192667D01*
X79728143Y-80192668D01*
X79740928Y-80206867D01*
X79751878Y-80220944D01*
X79760044Y-80233164D01*
X79780925Y-80299841D01*
X79762444Y-80367222D01*
X79744627Y-80389741D01*
X79684022Y-80450346D01*
X79569058Y-80622402D01*
X79489870Y-80813579D01*
X79489868Y-80813587D01*
X79449500Y-81016530D01*
X79449500Y-81223469D01*
X79489868Y-81426412D01*
X79489870Y-81426420D01*
X79534014Y-81532992D01*
X79541483Y-81602461D01*
X79510208Y-81664941D01*
X79469889Y-81693724D01*
X79322408Y-81759387D01*
X79177768Y-81864475D01*
X79058140Y-81997336D01*
X78968750Y-82152164D01*
X78968747Y-82152170D01*
X78913504Y-82322192D01*
X78913503Y-82322194D01*
X78894815Y-82500000D01*
X75100500Y-82500000D01*
X75100500Y-81273191D01*
X75120185Y-81206152D01*
X75172989Y-81160397D01*
X75242147Y-81150453D01*
X75305703Y-81179478D01*
X75343477Y-81238256D01*
X75346973Y-81253793D01*
X75361867Y-81347835D01*
X75366598Y-81377701D01*
X75420127Y-81542445D01*
X75498768Y-81696788D01*
X75600586Y-81836928D01*
X75723072Y-81959414D01*
X75863212Y-82061232D01*
X76017555Y-82139873D01*
X76182299Y-82193402D01*
X76353389Y-82220500D01*
X76353390Y-82220500D01*
X77126610Y-82220500D01*
X77126611Y-82220500D01*
X77297701Y-82193402D01*
X77462445Y-82139873D01*
X77616788Y-82061232D01*
X77756928Y-81959414D01*
X77879414Y-81836928D01*
X77981232Y-81696788D01*
X78059873Y-81542445D01*
X78113402Y-81377701D01*
X78140500Y-81206611D01*
X78140500Y-81033389D01*
X78113402Y-80862299D01*
X78059873Y-80697555D01*
X77981232Y-80543212D01*
X77879414Y-80403072D01*
X77756928Y-80280586D01*
X77616788Y-80178768D01*
X77462445Y-80100127D01*
X77297701Y-80046598D01*
X77297699Y-80046597D01*
X77297698Y-80046597D01*
X77166271Y-80025781D01*
X77126611Y-80019500D01*
X76353389Y-80019500D01*
X76313728Y-80025781D01*
X76182302Y-80046597D01*
X76017552Y-80100128D01*
X75863211Y-80178768D01*
X75844080Y-80192668D01*
X75723072Y-80280586D01*
X75723070Y-80280588D01*
X75723069Y-80280588D01*
X75600588Y-80403069D01*
X75600588Y-80403070D01*
X75600586Y-80403072D01*
X75577009Y-80435523D01*
X75498768Y-80543211D01*
X75420128Y-80697552D01*
X75366597Y-80862302D01*
X75346973Y-80986206D01*
X75317044Y-81049341D01*
X75257732Y-81086272D01*
X75187870Y-81085274D01*
X75129637Y-81046664D01*
X75101523Y-80982701D01*
X75100500Y-80966808D01*
X75100500Y-78590000D01*
X82194659Y-78590000D01*
X82213975Y-78786129D01*
X82213976Y-78786132D01*
X82263533Y-78949500D01*
X82271188Y-78974733D01*
X82364086Y-79148532D01*
X82364090Y-79148539D01*
X82489116Y-79300883D01*
X82641460Y-79425909D01*
X82641467Y-79425913D01*
X82815266Y-79518811D01*
X82815269Y-79518811D01*
X82815273Y-79518814D01*
X83003868Y-79576024D01*
X83200000Y-79595341D01*
X83396132Y-79576024D01*
X83584727Y-79518814D01*
X83597098Y-79512202D01*
X83728576Y-79441925D01*
X83758538Y-79425910D01*
X83910883Y-79300883D01*
X84035910Y-79148538D01*
X84099603Y-79029377D01*
X84128811Y-78974733D01*
X84128811Y-78974732D01*
X84128814Y-78974727D01*
X84181817Y-78800000D01*
X86094659Y-78800000D01*
X86113975Y-78996129D01*
X86124061Y-79029377D01*
X86167668Y-79173131D01*
X86171188Y-79184733D01*
X86264086Y-79358532D01*
X86264090Y-79358539D01*
X86389116Y-79510883D01*
X86541460Y-79635909D01*
X86541467Y-79635913D01*
X86715266Y-79728811D01*
X86715269Y-79728811D01*
X86715273Y-79728814D01*
X86903868Y-79786024D01*
X87100000Y-79805341D01*
X87296132Y-79786024D01*
X87484727Y-79728814D01*
X87658538Y-79635910D01*
X87810883Y-79510883D01*
X87935910Y-79358538D01*
X87993924Y-79250000D01*
X107894815Y-79250000D01*
X107913503Y-79427805D01*
X107913504Y-79427807D01*
X107968747Y-79597829D01*
X107968750Y-79597835D01*
X108058141Y-79752665D01*
X108088178Y-79786024D01*
X108177764Y-79885521D01*
X108177767Y-79885523D01*
X108177770Y-79885526D01*
X108322407Y-79990612D01*
X108485733Y-80063329D01*
X108660609Y-80100500D01*
X108660610Y-80100500D01*
X108839389Y-80100500D01*
X108839391Y-80100500D01*
X109014267Y-80063329D01*
X109177593Y-79990612D01*
X109322230Y-79885526D01*
X109338194Y-79867797D01*
X109378226Y-79823336D01*
X109399238Y-79800000D01*
X117444815Y-79800000D01*
X117463503Y-79977805D01*
X117463504Y-79977807D01*
X117518747Y-80147829D01*
X117518750Y-80147835D01*
X117608141Y-80302665D01*
X117643072Y-80341460D01*
X117727764Y-80435521D01*
X117727767Y-80435523D01*
X117727770Y-80435526D01*
X117872407Y-80540612D01*
X118035733Y-80613329D01*
X118210609Y-80650500D01*
X118210610Y-80650500D01*
X118389389Y-80650500D01*
X118389391Y-80650500D01*
X118564267Y-80613329D01*
X118727593Y-80540612D01*
X118872230Y-80435526D01*
X118991859Y-80302665D01*
X119081250Y-80147835D01*
X119129285Y-80000000D01*
X119394815Y-80000000D01*
X119413503Y-80177805D01*
X119413504Y-80177807D01*
X119468747Y-80347829D01*
X119468750Y-80347835D01*
X119558141Y-80502665D01*
X119575755Y-80522227D01*
X119677764Y-80635521D01*
X119677767Y-80635523D01*
X119677770Y-80635526D01*
X119822407Y-80740612D01*
X119985733Y-80813329D01*
X120160609Y-80850500D01*
X120160610Y-80850500D01*
X120339389Y-80850500D01*
X120339391Y-80850500D01*
X120514267Y-80813329D01*
X120677593Y-80740612D01*
X120822230Y-80635526D01*
X120840598Y-80615127D01*
X120848148Y-80606741D01*
X120941859Y-80502665D01*
X121031250Y-80347835D01*
X121086497Y-80177803D01*
X121105185Y-80000000D01*
X121086497Y-79822197D01*
X121055927Y-79728114D01*
X121031252Y-79652170D01*
X121031249Y-79652164D01*
X121031088Y-79651885D01*
X120941859Y-79497335D01*
X120891961Y-79441918D01*
X120822235Y-79364478D01*
X120822232Y-79364476D01*
X120822231Y-79364475D01*
X120822230Y-79364474D01*
X120677593Y-79259388D01*
X120514267Y-79186671D01*
X120514265Y-79186670D01*
X120384306Y-79159047D01*
X120339391Y-79149500D01*
X120160609Y-79149500D01*
X120129954Y-79156015D01*
X119985733Y-79186670D01*
X119985728Y-79186672D01*
X119822408Y-79259387D01*
X119677768Y-79364475D01*
X119558140Y-79497336D01*
X119468750Y-79652164D01*
X119468747Y-79652170D01*
X119413504Y-79822192D01*
X119413503Y-79822194D01*
X119394815Y-80000000D01*
X119129285Y-80000000D01*
X119136497Y-79977803D01*
X119155185Y-79800000D01*
X119136497Y-79622197D01*
X119088632Y-79474884D01*
X119081252Y-79452170D01*
X119081249Y-79452164D01*
X119075338Y-79441925D01*
X118991859Y-79297335D01*
X118937640Y-79237119D01*
X118872235Y-79164478D01*
X118872232Y-79164476D01*
X118872231Y-79164475D01*
X118872230Y-79164474D01*
X118727593Y-79059388D01*
X118564267Y-78986671D01*
X118564265Y-78986670D01*
X118436594Y-78959533D01*
X118389391Y-78949500D01*
X118210609Y-78949500D01*
X118179954Y-78956015D01*
X118035733Y-78986670D01*
X118035728Y-78986672D01*
X117872408Y-79059387D01*
X117727768Y-79164475D01*
X117608140Y-79297336D01*
X117518750Y-79452164D01*
X117518747Y-79452170D01*
X117463504Y-79622192D01*
X117463503Y-79622194D01*
X117444815Y-79800000D01*
X109399238Y-79800000D01*
X109441859Y-79752665D01*
X109531250Y-79597835D01*
X109586497Y-79427803D01*
X109605185Y-79250000D01*
X109586497Y-79072197D01*
X109546594Y-78949388D01*
X109531252Y-78902170D01*
X109531249Y-78902164D01*
X109441859Y-78747335D01*
X109395003Y-78695296D01*
X109322235Y-78614478D01*
X109322232Y-78614476D01*
X109322231Y-78614475D01*
X109322230Y-78614474D01*
X109177593Y-78509388D01*
X109014267Y-78436671D01*
X109014265Y-78436670D01*
X108886594Y-78409533D01*
X108839391Y-78399500D01*
X108660609Y-78399500D01*
X108629954Y-78406015D01*
X108485733Y-78436670D01*
X108485728Y-78436672D01*
X108322408Y-78509387D01*
X108177768Y-78614475D01*
X108058140Y-78747336D01*
X107968750Y-78902164D01*
X107968747Y-78902170D01*
X107913504Y-79072192D01*
X107913503Y-79072194D01*
X107894815Y-79250000D01*
X87993924Y-79250000D01*
X87997124Y-79244014D01*
X88028811Y-79184733D01*
X88028811Y-79184732D01*
X88028814Y-79184727D01*
X88086024Y-78996132D01*
X88105341Y-78800000D01*
X88086024Y-78603868D01*
X88028814Y-78415273D01*
X88028811Y-78415269D01*
X88028811Y-78415266D01*
X87935913Y-78241467D01*
X87935909Y-78241460D01*
X87810883Y-78089116D01*
X87658539Y-77964090D01*
X87658532Y-77964086D01*
X87484733Y-77871188D01*
X87484727Y-77871186D01*
X87296132Y-77813976D01*
X87296129Y-77813975D01*
X87100000Y-77794659D01*
X86903870Y-77813975D01*
X86715266Y-77871188D01*
X86541467Y-77964086D01*
X86541460Y-77964090D01*
X86389116Y-78089116D01*
X86264090Y-78241460D01*
X86264086Y-78241467D01*
X86171188Y-78415266D01*
X86113975Y-78603870D01*
X86094659Y-78800000D01*
X84181817Y-78800000D01*
X84186024Y-78786132D01*
X84205341Y-78590000D01*
X84186024Y-78393868D01*
X84128814Y-78205273D01*
X84128811Y-78205269D01*
X84128811Y-78205266D01*
X84035913Y-78031467D01*
X84035909Y-78031460D01*
X83910883Y-77879116D01*
X83758539Y-77754090D01*
X83758532Y-77754086D01*
X83638636Y-77690000D01*
X88644815Y-77690000D01*
X88663503Y-77867805D01*
X88663504Y-77867807D01*
X88718747Y-78037829D01*
X88718750Y-78037835D01*
X88808141Y-78192665D01*
X88819554Y-78205340D01*
X88927764Y-78325521D01*
X88927767Y-78325523D01*
X88927770Y-78325526D01*
X89072407Y-78430612D01*
X89235733Y-78503329D01*
X89410609Y-78540500D01*
X89410610Y-78540500D01*
X89589389Y-78540500D01*
X89589391Y-78540500D01*
X89764267Y-78503329D01*
X89927593Y-78430612D01*
X90072230Y-78325526D01*
X90191859Y-78192665D01*
X90281250Y-78037835D01*
X90281875Y-78035913D01*
X90305211Y-77964090D01*
X90336497Y-77867803D01*
X90355185Y-77690000D01*
X90336497Y-77512197D01*
X90281250Y-77342165D01*
X90229190Y-77251996D01*
X90216576Y-77200000D01*
X92394659Y-77200000D01*
X92413975Y-77396129D01*
X92413976Y-77396132D01*
X92471165Y-77584659D01*
X92471188Y-77584733D01*
X92564086Y-77758532D01*
X92564090Y-77758539D01*
X92689116Y-77910883D01*
X92841460Y-78035909D01*
X92841467Y-78035913D01*
X93015266Y-78128811D01*
X93015269Y-78128811D01*
X93015273Y-78128814D01*
X93203868Y-78186024D01*
X93400000Y-78205341D01*
X93596132Y-78186024D01*
X93784727Y-78128814D01*
X93958538Y-78035910D01*
X94110883Y-77910883D01*
X94235910Y-77758538D01*
X94328814Y-77584727D01*
X94386024Y-77396132D01*
X94405341Y-77200000D01*
X94386024Y-77003868D01*
X94328814Y-76815273D01*
X94328811Y-76815269D01*
X94328811Y-76815266D01*
X94235913Y-76641467D01*
X94235909Y-76641460D01*
X94119815Y-76500000D01*
X110194659Y-76500000D01*
X110213975Y-76696129D01*
X110213976Y-76696132D01*
X110266053Y-76867807D01*
X110271188Y-76884733D01*
X110364086Y-77058532D01*
X110364090Y-77058539D01*
X110489116Y-77210883D01*
X110641460Y-77335909D01*
X110641467Y-77335913D01*
X110815266Y-77428811D01*
X110815269Y-77428811D01*
X110815273Y-77428814D01*
X111003868Y-77486024D01*
X111200000Y-77505341D01*
X111396132Y-77486024D01*
X111584727Y-77428814D01*
X111758538Y-77335910D01*
X111910883Y-77210883D01*
X112035910Y-77058538D01*
X112128814Y-76884727D01*
X112186024Y-76696132D01*
X112205341Y-76500000D01*
X112186024Y-76303868D01*
X112128814Y-76115273D01*
X112128811Y-76115269D01*
X112128811Y-76115266D01*
X112050839Y-75969391D01*
X122150500Y-75969391D01*
X122177571Y-76105487D01*
X122177573Y-76105495D01*
X122230678Y-76233703D01*
X122230683Y-76233712D01*
X122307778Y-76349092D01*
X122307781Y-76349096D01*
X122405903Y-76447218D01*
X122405907Y-76447221D01*
X122521287Y-76524316D01*
X122521293Y-76524319D01*
X122521294Y-76524320D01*
X122649505Y-76577427D01*
X122785608Y-76604499D01*
X122785612Y-76604500D01*
X122785613Y-76604500D01*
X122924388Y-76604500D01*
X122924389Y-76604499D01*
X123060495Y-76577427D01*
X123188706Y-76524320D01*
X123304093Y-76447221D01*
X123402221Y-76349093D01*
X123479320Y-76233706D01*
X123532427Y-76105495D01*
X123559500Y-75969387D01*
X123559500Y-75830613D01*
X123532427Y-75694505D01*
X123479320Y-75566294D01*
X123479319Y-75566293D01*
X123479316Y-75566287D01*
X123402221Y-75450907D01*
X123402218Y-75450903D01*
X123304096Y-75352781D01*
X123304092Y-75352778D01*
X123188712Y-75275683D01*
X123188703Y-75275678D01*
X123060495Y-75222573D01*
X123060487Y-75222571D01*
X122924391Y-75195500D01*
X122924387Y-75195500D01*
X122785613Y-75195500D01*
X122785608Y-75195500D01*
X122649512Y-75222571D01*
X122649504Y-75222573D01*
X122521296Y-75275678D01*
X122521287Y-75275683D01*
X122405907Y-75352778D01*
X122405903Y-75352781D01*
X122307781Y-75450903D01*
X122307778Y-75450907D01*
X122230683Y-75566287D01*
X122230678Y-75566296D01*
X122177573Y-75694504D01*
X122177571Y-75694512D01*
X122150500Y-75830608D01*
X122150500Y-75969391D01*
X112050839Y-75969391D01*
X112035913Y-75941467D01*
X112035909Y-75941460D01*
X111910883Y-75789116D01*
X111758539Y-75664090D01*
X111758532Y-75664086D01*
X111584733Y-75571188D01*
X111584727Y-75571186D01*
X111396132Y-75513976D01*
X111396129Y-75513975D01*
X111200000Y-75494659D01*
X111003870Y-75513975D01*
X110815266Y-75571188D01*
X110641467Y-75664086D01*
X110641460Y-75664090D01*
X110489116Y-75789116D01*
X110364090Y-75941460D01*
X110364086Y-75941467D01*
X110271188Y-76115266D01*
X110213975Y-76303870D01*
X110194659Y-76500000D01*
X94119815Y-76500000D01*
X94110883Y-76489116D01*
X93958539Y-76364090D01*
X93958532Y-76364086D01*
X93784733Y-76271188D01*
X93784727Y-76271186D01*
X93596132Y-76213976D01*
X93596129Y-76213975D01*
X93400000Y-76194659D01*
X93203870Y-76213975D01*
X93015266Y-76271188D01*
X92841467Y-76364086D01*
X92841460Y-76364090D01*
X92689116Y-76489116D01*
X92564090Y-76641460D01*
X92564086Y-76641467D01*
X92471188Y-76815266D01*
X92413975Y-77003870D01*
X92394659Y-77200000D01*
X90216576Y-77200000D01*
X90212719Y-77184101D01*
X90229190Y-77128004D01*
X90281250Y-77037835D01*
X90336497Y-76867803D01*
X90355185Y-76690000D01*
X90336497Y-76512197D01*
X90281250Y-76342165D01*
X90191859Y-76187335D01*
X90118170Y-76105495D01*
X90072235Y-76054478D01*
X90072232Y-76054476D01*
X90072231Y-76054475D01*
X90072230Y-76054474D01*
X89927593Y-75949388D01*
X89764267Y-75876671D01*
X89764265Y-75876670D01*
X89636594Y-75849533D01*
X89589391Y-75839500D01*
X89410609Y-75839500D01*
X89379954Y-75846015D01*
X89235733Y-75876670D01*
X89235728Y-75876672D01*
X89072408Y-75949387D01*
X88927768Y-76054475D01*
X88808140Y-76187336D01*
X88718750Y-76342164D01*
X88718747Y-76342170D01*
X88663504Y-76512192D01*
X88663503Y-76512194D01*
X88644815Y-76690000D01*
X88663503Y-76867805D01*
X88663504Y-76867807D01*
X88718750Y-77037836D01*
X88770806Y-77128000D01*
X88787279Y-77195900D01*
X88770806Y-77252000D01*
X88718750Y-77342163D01*
X88663504Y-77512192D01*
X88663503Y-77512194D01*
X88644815Y-77690000D01*
X83638636Y-77690000D01*
X83584733Y-77661188D01*
X83584727Y-77661186D01*
X83396132Y-77603976D01*
X83396129Y-77603975D01*
X83200000Y-77584659D01*
X83003870Y-77603975D01*
X82815266Y-77661188D01*
X82641467Y-77754086D01*
X82641460Y-77754090D01*
X82489116Y-77879116D01*
X82364090Y-78031460D01*
X82364086Y-78031467D01*
X82271188Y-78205266D01*
X82213975Y-78393870D01*
X82194659Y-78590000D01*
X75100500Y-78590000D01*
X75100500Y-74990000D01*
X82194659Y-74990000D01*
X82213975Y-75186129D01*
X82213976Y-75186132D01*
X82243886Y-75284733D01*
X82271188Y-75374733D01*
X82364086Y-75548532D01*
X82364090Y-75548539D01*
X82489116Y-75700883D01*
X82641460Y-75825909D01*
X82641467Y-75825913D01*
X82815266Y-75918811D01*
X82815269Y-75918811D01*
X82815273Y-75918814D01*
X83003868Y-75976024D01*
X83200000Y-75995341D01*
X83396132Y-75976024D01*
X83584727Y-75918814D01*
X83758538Y-75825910D01*
X83910883Y-75700883D01*
X83993676Y-75600000D01*
X85944815Y-75600000D01*
X85963503Y-75777805D01*
X85963504Y-75777807D01*
X86018747Y-75947829D01*
X86018750Y-75947835D01*
X86108141Y-76102665D01*
X86149812Y-76148946D01*
X86227764Y-76235521D01*
X86227767Y-76235523D01*
X86227770Y-76235526D01*
X86372407Y-76340612D01*
X86535733Y-76413329D01*
X86710609Y-76450500D01*
X86710610Y-76450500D01*
X86889389Y-76450500D01*
X86889391Y-76450500D01*
X87064267Y-76413329D01*
X87227593Y-76340612D01*
X87227597Y-76340608D01*
X87233224Y-76337361D01*
X87233904Y-76338539D01*
X87292911Y-76317480D01*
X87360966Y-76333300D01*
X87371783Y-76340252D01*
X87372402Y-76340609D01*
X87372404Y-76340610D01*
X87372407Y-76340612D01*
X87535733Y-76413329D01*
X87710609Y-76450500D01*
X87710610Y-76450500D01*
X87889389Y-76450500D01*
X87889391Y-76450500D01*
X88064267Y-76413329D01*
X88227593Y-76340612D01*
X88372230Y-76235526D01*
X88373864Y-76233712D01*
X88409027Y-76194659D01*
X88491859Y-76102665D01*
X88581250Y-75947835D01*
X88636497Y-75777803D01*
X88655185Y-75600000D01*
X88636497Y-75422197D01*
X88591830Y-75284727D01*
X88581252Y-75252170D01*
X88581249Y-75252164D01*
X88564165Y-75222573D01*
X88491859Y-75097335D01*
X88445003Y-75045296D01*
X88372235Y-74964478D01*
X88372232Y-74964476D01*
X88372231Y-74964475D01*
X88372230Y-74964474D01*
X88283490Y-74900000D01*
X105394659Y-74900000D01*
X105413975Y-75096129D01*
X105413976Y-75096132D01*
X105461308Y-75252165D01*
X105471188Y-75284733D01*
X105564086Y-75458532D01*
X105564090Y-75458539D01*
X105689116Y-75610883D01*
X105841460Y-75735909D01*
X105841467Y-75735913D01*
X106015266Y-75828811D01*
X106015269Y-75828811D01*
X106015273Y-75828814D01*
X106203868Y-75886024D01*
X106400000Y-75905341D01*
X106596132Y-75886024D01*
X106784727Y-75828814D01*
X106790155Y-75825913D01*
X106958532Y-75735913D01*
X106958538Y-75735910D01*
X107110883Y-75610883D01*
X107235910Y-75458538D01*
X107328814Y-75284727D01*
X107386024Y-75096132D01*
X107405341Y-74900000D01*
X107386024Y-74703868D01*
X107328814Y-74515273D01*
X107328811Y-74515269D01*
X107328811Y-74515266D01*
X107235913Y-74341467D01*
X107232527Y-74336399D01*
X107234894Y-74334817D01*
X107212395Y-74281622D01*
X107224290Y-74212772D01*
X107271519Y-74161282D01*
X107309801Y-74146161D01*
X107441586Y-74118150D01*
X107464263Y-74113330D01*
X107464263Y-74113329D01*
X107464267Y-74113329D01*
X107627593Y-74040612D01*
X107772230Y-73935526D01*
X107891859Y-73802665D01*
X107981250Y-73647835D01*
X108036497Y-73477803D01*
X108055185Y-73300000D01*
X108036497Y-73122197D01*
X107981250Y-72952165D01*
X107891859Y-72797335D01*
X107836201Y-72735521D01*
X107772235Y-72664478D01*
X107772232Y-72664476D01*
X107772231Y-72664475D01*
X107772230Y-72664474D01*
X107627593Y-72559388D01*
X107464267Y-72486671D01*
X107464265Y-72486670D01*
X107336594Y-72459533D01*
X107289391Y-72449500D01*
X107110609Y-72449500D01*
X107103990Y-72450907D01*
X106935733Y-72486670D01*
X106935728Y-72486672D01*
X106772408Y-72559387D01*
X106627768Y-72664475D01*
X106508140Y-72797336D01*
X106418750Y-72952164D01*
X106418747Y-72952170D01*
X106363504Y-73122192D01*
X106363503Y-73122194D01*
X106344815Y-73300000D01*
X106363503Y-73477805D01*
X106363504Y-73477807D01*
X106418747Y-73647829D01*
X106418750Y-73647835D01*
X106456418Y-73713078D01*
X106472891Y-73780979D01*
X106450038Y-73847005D01*
X106395117Y-73890196D01*
X106361186Y-73898481D01*
X106203870Y-73913975D01*
X106015266Y-73971188D01*
X105841467Y-74064086D01*
X105841460Y-74064090D01*
X105689116Y-74189116D01*
X105564090Y-74341460D01*
X105564086Y-74341467D01*
X105471188Y-74515266D01*
X105413975Y-74703870D01*
X105394659Y-74900000D01*
X88283490Y-74900000D01*
X88227593Y-74859388D01*
X88064267Y-74786671D01*
X88064265Y-74786670D01*
X87936594Y-74759533D01*
X87889391Y-74749500D01*
X87710609Y-74749500D01*
X87679954Y-74756015D01*
X87535733Y-74786670D01*
X87535728Y-74786672D01*
X87372408Y-74859388D01*
X87366775Y-74862640D01*
X87366097Y-74861465D01*
X87307064Y-74882521D01*
X87239012Y-74866687D01*
X87228207Y-74859742D01*
X87227597Y-74859390D01*
X87227593Y-74859388D01*
X87064267Y-74786671D01*
X87064265Y-74786670D01*
X86936594Y-74759533D01*
X86889391Y-74749500D01*
X86710609Y-74749500D01*
X86679954Y-74756015D01*
X86535733Y-74786670D01*
X86535728Y-74786672D01*
X86372408Y-74859387D01*
X86227768Y-74964475D01*
X86108140Y-75097336D01*
X86018750Y-75252164D01*
X86018747Y-75252170D01*
X85963504Y-75422192D01*
X85963503Y-75422194D01*
X85944815Y-75600000D01*
X83993676Y-75600000D01*
X84035910Y-75548538D01*
X84128814Y-75374727D01*
X84186024Y-75186132D01*
X84205341Y-74990000D01*
X84186024Y-74793868D01*
X84128814Y-74605273D01*
X84128811Y-74605269D01*
X84128811Y-74605266D01*
X84035913Y-74431467D01*
X84035909Y-74431460D01*
X83910883Y-74279116D01*
X83758539Y-74154090D01*
X83758532Y-74154086D01*
X83584733Y-74061188D01*
X83584727Y-74061186D01*
X83396132Y-74003976D01*
X83396129Y-74003975D01*
X83200000Y-73984659D01*
X83003870Y-74003975D01*
X82815266Y-74061188D01*
X82641467Y-74154086D01*
X82641460Y-74154090D01*
X82489116Y-74279116D01*
X82364090Y-74431460D01*
X82364086Y-74431467D01*
X82271188Y-74605266D01*
X82213975Y-74793870D01*
X82194659Y-74990000D01*
X75100500Y-74990000D01*
X75100500Y-72633191D01*
X75120185Y-72566152D01*
X75172989Y-72520397D01*
X75242147Y-72510453D01*
X75305703Y-72539478D01*
X75343477Y-72598256D01*
X75346973Y-72613793D01*
X75366253Y-72735526D01*
X75366598Y-72737701D01*
X75420127Y-72902445D01*
X75498768Y-73056788D01*
X75600586Y-73196928D01*
X75723072Y-73319414D01*
X75863212Y-73421232D01*
X76017555Y-73499873D01*
X76182299Y-73553402D01*
X76353389Y-73580500D01*
X76353390Y-73580500D01*
X77126610Y-73580500D01*
X77126611Y-73580500D01*
X77297701Y-73553402D01*
X77462445Y-73499873D01*
X77616788Y-73421232D01*
X77756928Y-73319414D01*
X77879414Y-73196928D01*
X77981232Y-73056788D01*
X78059873Y-72902445D01*
X78113402Y-72737701D01*
X78137830Y-72583469D01*
X79449500Y-72583469D01*
X79489868Y-72786412D01*
X79489870Y-72786420D01*
X79566820Y-72972194D01*
X79569059Y-72977598D01*
X79684023Y-73149655D01*
X79744627Y-73210259D01*
X79778111Y-73271580D01*
X79773127Y-73341272D01*
X79760044Y-73366835D01*
X79751878Y-73379055D01*
X79740932Y-73393128D01*
X79728142Y-73407333D01*
X79728138Y-73407338D01*
X79699392Y-73457127D01*
X79695109Y-73464014D01*
X79666302Y-73507126D01*
X79666296Y-73507137D01*
X79658683Y-73525517D01*
X79651513Y-73540055D01*
X79638752Y-73562158D01*
X79622959Y-73610761D01*
X79619592Y-73619887D01*
X79602183Y-73661919D01*
X79602183Y-73661921D01*
X79597052Y-73687714D01*
X79593367Y-73701834D01*
X79583504Y-73732192D01*
X79583502Y-73732202D01*
X79578828Y-73776664D01*
X79577126Y-73787885D01*
X79569500Y-73826228D01*
X79569500Y-73858924D01*
X79568821Y-73871885D01*
X79564815Y-73910000D01*
X79568821Y-73948114D01*
X79569500Y-73961075D01*
X79569500Y-73993770D01*
X79577126Y-74032114D01*
X79578828Y-74043336D01*
X79583502Y-74087797D01*
X79583503Y-74087804D01*
X79593366Y-74118160D01*
X79597051Y-74132281D01*
X79602183Y-74158079D01*
X79602184Y-74158084D01*
X79619586Y-74200095D01*
X79622955Y-74209226D01*
X79638750Y-74257836D01*
X79651508Y-74279933D01*
X79658682Y-74294479D01*
X79666296Y-74312862D01*
X79695110Y-74355984D01*
X79699389Y-74362865D01*
X79721074Y-74400425D01*
X79728142Y-74412667D01*
X79728143Y-74412668D01*
X79740928Y-74426867D01*
X79751878Y-74440945D01*
X79759372Y-74452160D01*
X79800554Y-74493342D01*
X79805024Y-74498052D01*
X79847770Y-74545526D01*
X79847772Y-74545528D01*
X79858039Y-74552987D01*
X79872837Y-74565626D01*
X79877834Y-74570623D01*
X79877842Y-74570629D01*
X79931556Y-74606520D01*
X79935551Y-74609304D01*
X79992405Y-74650611D01*
X79992406Y-74650611D01*
X79992407Y-74650612D01*
X79998136Y-74653162D01*
X80016606Y-74663348D01*
X80017137Y-74663703D01*
X80082729Y-74690872D01*
X80085696Y-74692147D01*
X80155724Y-74723326D01*
X80156962Y-74723728D01*
X80165940Y-74726520D01*
X80166085Y-74726046D01*
X80171912Y-74727814D01*
X80171914Y-74727814D01*
X80171918Y-74727816D01*
X80247928Y-74742934D01*
X80249393Y-74743236D01*
X80330609Y-74760500D01*
X80330610Y-74760500D01*
X80509389Y-74760500D01*
X80509391Y-74760500D01*
X80590663Y-74743224D01*
X80592068Y-74742935D01*
X80668082Y-74727816D01*
X80668087Y-74727813D01*
X80673913Y-74726046D01*
X80674057Y-74726521D01*
X80683088Y-74723711D01*
X80684251Y-74723332D01*
X80684267Y-74723329D01*
X80754329Y-74692134D01*
X80757212Y-74690895D01*
X80822863Y-74663703D01*
X80823390Y-74663350D01*
X80841865Y-74653162D01*
X80842684Y-74652796D01*
X80847593Y-74650612D01*
X80904505Y-74609261D01*
X80908388Y-74606555D01*
X80962162Y-74570626D01*
X80967164Y-74565622D01*
X80981960Y-74552987D01*
X80992230Y-74545526D01*
X81034994Y-74498030D01*
X81039428Y-74493358D01*
X81080626Y-74452162D01*
X81088120Y-74440945D01*
X81099071Y-74426866D01*
X81111859Y-74412665D01*
X81140610Y-74362863D01*
X81144887Y-74355987D01*
X81144889Y-74355984D01*
X81173703Y-74312863D01*
X81181320Y-74294469D01*
X81188491Y-74279933D01*
X81201250Y-74257835D01*
X81217047Y-74209213D01*
X81220404Y-74200115D01*
X81237816Y-74158082D01*
X81242948Y-74132278D01*
X81246630Y-74118168D01*
X81256497Y-74087803D01*
X81261171Y-74043322D01*
X81262875Y-74032098D01*
X81270500Y-73993767D01*
X81270500Y-73961075D01*
X81271179Y-73948114D01*
X81272502Y-73935523D01*
X81275185Y-73910000D01*
X81271179Y-73871885D01*
X81270500Y-73858924D01*
X81270500Y-73826232D01*
X81265812Y-73802665D01*
X81262872Y-73787885D01*
X81261171Y-73776671D01*
X81256497Y-73732197D01*
X81246633Y-73701839D01*
X81242946Y-73687707D01*
X81241152Y-73678686D01*
X81247382Y-73609095D01*
X81290247Y-73553919D01*
X81356138Y-73530677D01*
X81362770Y-73530500D01*
X81503466Y-73530500D01*
X81503467Y-73530499D01*
X81706420Y-73490130D01*
X81897598Y-73410941D01*
X82069655Y-73295977D01*
X82215632Y-73150000D01*
X92894815Y-73150000D01*
X92913503Y-73327805D01*
X92913504Y-73327807D01*
X92968747Y-73497829D01*
X92968750Y-73497835D01*
X93058141Y-73652665D01*
X93096155Y-73694884D01*
X93177764Y-73785521D01*
X93177767Y-73785523D01*
X93177770Y-73785526D01*
X93322407Y-73890612D01*
X93485733Y-73963329D01*
X93660609Y-74000500D01*
X93660610Y-74000500D01*
X93839389Y-74000500D01*
X93839391Y-74000500D01*
X94014267Y-73963329D01*
X94177593Y-73890612D01*
X94322230Y-73785526D01*
X94326325Y-73780979D01*
X94370243Y-73732202D01*
X94441859Y-73652665D01*
X94531250Y-73497835D01*
X94586497Y-73327803D01*
X94605185Y-73150000D01*
X94586497Y-72972197D01*
X94543742Y-72840610D01*
X94531252Y-72802170D01*
X94531249Y-72802164D01*
X94528461Y-72797335D01*
X94441859Y-72647335D01*
X94368891Y-72566296D01*
X94322235Y-72514478D01*
X94322230Y-72514474D01*
X94293335Y-72493480D01*
X94250670Y-72438149D01*
X94244692Y-72368536D01*
X94277299Y-72306741D01*
X94293331Y-72292849D01*
X94372230Y-72235526D01*
X94491859Y-72102665D01*
X94581250Y-71947835D01*
X94636497Y-71777803D01*
X94644674Y-71700000D01*
X110344815Y-71700000D01*
X110363503Y-71877805D01*
X110363504Y-71877807D01*
X110418747Y-72047829D01*
X110418750Y-72047835D01*
X110508141Y-72202665D01*
X110537731Y-72235528D01*
X110627764Y-72335521D01*
X110627767Y-72335523D01*
X110627770Y-72335526D01*
X110772407Y-72440612D01*
X110935733Y-72513329D01*
X111110609Y-72550500D01*
X111110610Y-72550500D01*
X111289389Y-72550500D01*
X111289391Y-72550500D01*
X111464267Y-72513329D01*
X111494205Y-72500000D01*
X116544815Y-72500000D01*
X116563503Y-72677805D01*
X116563504Y-72677807D01*
X116618747Y-72847829D01*
X116618750Y-72847835D01*
X116708141Y-73002665D01*
X116749812Y-73048946D01*
X116827764Y-73135521D01*
X116827767Y-73135523D01*
X116827770Y-73135526D01*
X116972407Y-73240612D01*
X117135733Y-73313329D01*
X117310609Y-73350500D01*
X117310610Y-73350500D01*
X117489389Y-73350500D01*
X117489391Y-73350500D01*
X117664267Y-73313329D01*
X117827593Y-73240612D01*
X117972230Y-73135526D01*
X118091859Y-73002665D01*
X118111070Y-72969391D01*
X122150500Y-72969391D01*
X122177571Y-73105487D01*
X122177573Y-73105495D01*
X122230678Y-73233703D01*
X122230683Y-73233712D01*
X122307778Y-73349092D01*
X122307781Y-73349096D01*
X122405903Y-73447218D01*
X122405907Y-73447221D01*
X122521287Y-73524316D01*
X122521296Y-73524321D01*
X122536211Y-73530499D01*
X122649505Y-73577427D01*
X122785608Y-73604499D01*
X122785612Y-73604500D01*
X122785613Y-73604500D01*
X122924388Y-73604500D01*
X122924389Y-73604499D01*
X123060495Y-73577427D01*
X123188706Y-73524320D01*
X123304093Y-73447221D01*
X123402221Y-73349093D01*
X123479320Y-73233706D01*
X123532427Y-73105495D01*
X123559500Y-72969387D01*
X123559500Y-72830613D01*
X123532427Y-72694505D01*
X123486433Y-72583466D01*
X123479321Y-72566296D01*
X123479316Y-72566287D01*
X123402221Y-72450907D01*
X123402218Y-72450903D01*
X123304096Y-72352781D01*
X123304092Y-72352778D01*
X123188712Y-72275683D01*
X123188703Y-72275678D01*
X123060495Y-72222573D01*
X123060487Y-72222571D01*
X122924391Y-72195500D01*
X122924387Y-72195500D01*
X122785613Y-72195500D01*
X122785608Y-72195500D01*
X122649512Y-72222571D01*
X122649504Y-72222573D01*
X122521296Y-72275678D01*
X122521287Y-72275683D01*
X122405907Y-72352778D01*
X122405903Y-72352781D01*
X122307781Y-72450903D01*
X122307778Y-72450907D01*
X122230683Y-72566287D01*
X122230678Y-72566296D01*
X122177573Y-72694504D01*
X122177571Y-72694512D01*
X122150500Y-72830608D01*
X122150500Y-72969391D01*
X118111070Y-72969391D01*
X118181250Y-72847835D01*
X118236497Y-72677803D01*
X118255185Y-72500000D01*
X118236497Y-72322197D01*
X118197658Y-72202663D01*
X118181252Y-72152170D01*
X118181249Y-72152164D01*
X118152670Y-72102663D01*
X118151133Y-72100000D01*
X118544815Y-72100000D01*
X118563503Y-72277805D01*
X118563504Y-72277807D01*
X118618747Y-72447829D01*
X118618750Y-72447835D01*
X118708141Y-72602665D01*
X118718161Y-72613793D01*
X118827764Y-72735521D01*
X118827767Y-72735523D01*
X118827770Y-72735526D01*
X118972407Y-72840612D01*
X119135733Y-72913329D01*
X119310609Y-72950500D01*
X119310610Y-72950500D01*
X119489389Y-72950500D01*
X119489391Y-72950500D01*
X119664267Y-72913329D01*
X119827593Y-72840612D01*
X119972230Y-72735526D01*
X120091859Y-72602665D01*
X120181250Y-72447835D01*
X120182738Y-72443257D01*
X120193742Y-72409388D01*
X120236497Y-72277803D01*
X120255185Y-72100000D01*
X120236497Y-71922197D01*
X120189581Y-71777805D01*
X120181252Y-71752170D01*
X120181249Y-71752164D01*
X120091859Y-71597335D01*
X120039125Y-71538768D01*
X119972235Y-71464478D01*
X119972232Y-71464476D01*
X119972231Y-71464475D01*
X119972230Y-71464474D01*
X119827593Y-71359388D01*
X119664267Y-71286671D01*
X119664265Y-71286670D01*
X119501952Y-71252170D01*
X119489391Y-71249500D01*
X119310609Y-71249500D01*
X119298048Y-71252170D01*
X119135733Y-71286670D01*
X119135728Y-71286672D01*
X118972408Y-71359387D01*
X118827768Y-71464475D01*
X118708140Y-71597336D01*
X118618750Y-71752164D01*
X118618747Y-71752170D01*
X118563504Y-71922192D01*
X118563503Y-71922194D01*
X118544815Y-72100000D01*
X118151133Y-72100000D01*
X118091859Y-71997335D01*
X118045003Y-71945296D01*
X117972235Y-71864478D01*
X117972232Y-71864476D01*
X117972231Y-71864475D01*
X117972230Y-71864474D01*
X117827593Y-71759388D01*
X117664267Y-71686671D01*
X117664265Y-71686670D01*
X117536594Y-71659533D01*
X117489391Y-71649500D01*
X117310609Y-71649500D01*
X117279954Y-71656015D01*
X117135733Y-71686670D01*
X117135728Y-71686672D01*
X116972408Y-71759387D01*
X116827768Y-71864475D01*
X116708140Y-71997336D01*
X116618750Y-72152164D01*
X116618747Y-72152170D01*
X116563504Y-72322192D01*
X116563503Y-72322194D01*
X116544815Y-72500000D01*
X111494205Y-72500000D01*
X111627593Y-72440612D01*
X111772230Y-72335526D01*
X111891859Y-72202665D01*
X111981250Y-72047835D01*
X112036497Y-71877803D01*
X112055185Y-71700000D01*
X112036497Y-71522197D01*
X112004003Y-71422192D01*
X111981252Y-71352170D01*
X111981249Y-71352164D01*
X111891859Y-71197335D01*
X111845003Y-71145296D01*
X111772235Y-71064478D01*
X111772232Y-71064476D01*
X111772231Y-71064475D01*
X111772230Y-71064474D01*
X111627593Y-70959388D01*
X111464267Y-70886671D01*
X111464265Y-70886670D01*
X111335910Y-70859388D01*
X111289391Y-70849500D01*
X111110609Y-70849500D01*
X111079954Y-70856015D01*
X110935733Y-70886670D01*
X110935728Y-70886672D01*
X110772408Y-70959387D01*
X110627768Y-71064475D01*
X110508140Y-71197336D01*
X110418750Y-71352164D01*
X110418747Y-71352170D01*
X110363504Y-71522192D01*
X110363503Y-71522194D01*
X110344815Y-71700000D01*
X94644674Y-71700000D01*
X94655185Y-71600000D01*
X94636497Y-71422197D01*
X94592462Y-71286671D01*
X94581252Y-71252170D01*
X94581249Y-71252164D01*
X94579711Y-71249500D01*
X94491859Y-71097335D01*
X94445003Y-71045296D01*
X94372235Y-70964478D01*
X94372232Y-70964476D01*
X94372231Y-70964475D01*
X94372230Y-70964474D01*
X94283926Y-70900316D01*
X94241262Y-70844988D01*
X94235283Y-70775374D01*
X94267889Y-70713579D01*
X94283923Y-70699685D01*
X94372230Y-70635526D01*
X94491859Y-70502665D01*
X94581250Y-70347835D01*
X94636497Y-70177803D01*
X94655185Y-70000000D01*
X94636497Y-69822197D01*
X94581250Y-69652165D01*
X94491859Y-69497335D01*
X94388886Y-69382972D01*
X94358656Y-69319981D01*
X94367281Y-69250645D01*
X94388886Y-69217028D01*
X94417964Y-69184733D01*
X94491859Y-69102665D01*
X94581250Y-68947835D01*
X94636497Y-68777803D01*
X94655185Y-68600000D01*
X94636497Y-68422197D01*
X94608873Y-68337181D01*
X94581252Y-68252170D01*
X94581250Y-68252167D01*
X94581250Y-68252165D01*
X94500326Y-68112000D01*
X94483853Y-68044099D01*
X94500326Y-67988000D01*
X94543437Y-67913329D01*
X94581250Y-67847835D01*
X94636497Y-67677803D01*
X94655185Y-67500000D01*
X94636497Y-67322197D01*
X94601753Y-67215266D01*
X94581252Y-67152170D01*
X94581249Y-67152164D01*
X94491859Y-66997335D01*
X94478926Y-66982972D01*
X94448697Y-66919982D01*
X94457321Y-66850647D01*
X94478927Y-66817027D01*
X94491859Y-66802665D01*
X94581250Y-66647835D01*
X94636497Y-66477803D01*
X94655185Y-66300000D01*
X103844815Y-66300000D01*
X103863503Y-66477805D01*
X103863504Y-66477807D01*
X103918747Y-66647829D01*
X103918750Y-66647835D01*
X104008141Y-66802665D01*
X104049812Y-66848946D01*
X104127764Y-66935521D01*
X104127767Y-66935523D01*
X104127770Y-66935526D01*
X104272407Y-67040612D01*
X104435733Y-67113329D01*
X104610609Y-67150500D01*
X104610610Y-67150500D01*
X104789389Y-67150500D01*
X104789391Y-67150500D01*
X104964267Y-67113329D01*
X105127593Y-67040612D01*
X105127597Y-67040608D01*
X105133224Y-67037361D01*
X105133904Y-67038539D01*
X105192911Y-67017480D01*
X105260966Y-67033300D01*
X105271783Y-67040252D01*
X105272402Y-67040609D01*
X105272404Y-67040610D01*
X105272407Y-67040612D01*
X105435733Y-67113329D01*
X105610609Y-67150500D01*
X105610610Y-67150500D01*
X105789389Y-67150500D01*
X105789391Y-67150500D01*
X105964267Y-67113329D01*
X106127593Y-67040612D01*
X106272230Y-66935526D01*
X106284235Y-66922194D01*
X106313542Y-66889645D01*
X106373028Y-66852996D01*
X106442885Y-66854326D01*
X106500934Y-66893213D01*
X106506011Y-66899733D01*
X106508141Y-66902665D01*
X106627764Y-67035521D01*
X106627767Y-67035523D01*
X106627770Y-67035526D01*
X106772407Y-67140612D01*
X106935733Y-67213329D01*
X107110609Y-67250500D01*
X107110610Y-67250500D01*
X107289389Y-67250500D01*
X107289391Y-67250500D01*
X107464267Y-67213329D01*
X107627593Y-67140612D01*
X107683490Y-67100000D01*
X109644815Y-67100000D01*
X109663503Y-67277805D01*
X109663504Y-67277807D01*
X109718747Y-67447829D01*
X109718750Y-67447835D01*
X109808141Y-67602665D01*
X109849812Y-67648946D01*
X109927764Y-67735521D01*
X109927767Y-67735523D01*
X109927770Y-67735526D01*
X110072407Y-67840612D01*
X110235733Y-67913329D01*
X110410609Y-67950500D01*
X110410610Y-67950500D01*
X110589389Y-67950500D01*
X110589391Y-67950500D01*
X110764267Y-67913329D01*
X110927593Y-67840612D01*
X111072230Y-67735526D01*
X111191859Y-67602665D01*
X111281250Y-67447835D01*
X111336497Y-67277803D01*
X111355185Y-67100000D01*
X111336497Y-66922197D01*
X111285125Y-66764090D01*
X111281252Y-66752170D01*
X111281249Y-66752164D01*
X111278750Y-66747835D01*
X111191859Y-66597335D01*
X111140783Y-66540610D01*
X111072235Y-66464478D01*
X111072232Y-66464476D01*
X111072231Y-66464475D01*
X111072230Y-66464474D01*
X110927593Y-66359388D01*
X110764267Y-66286671D01*
X110764265Y-66286670D01*
X110636594Y-66259533D01*
X110589391Y-66249500D01*
X110410609Y-66249500D01*
X110379954Y-66256015D01*
X110235733Y-66286670D01*
X110235728Y-66286672D01*
X110072408Y-66359387D01*
X109927768Y-66464475D01*
X109808140Y-66597336D01*
X109718750Y-66752164D01*
X109718747Y-66752170D01*
X109663504Y-66922192D01*
X109663503Y-66922194D01*
X109644815Y-67100000D01*
X107683490Y-67100000D01*
X107772230Y-67035526D01*
X107774235Y-67033300D01*
X107798148Y-67006741D01*
X107891859Y-66902665D01*
X107981250Y-66747835D01*
X108036497Y-66577803D01*
X108055185Y-66400000D01*
X108036497Y-66222197D01*
X107996955Y-66100500D01*
X107981252Y-66052170D01*
X107981249Y-66052164D01*
X107891859Y-65897335D01*
X107845003Y-65845296D01*
X107804219Y-65800000D01*
X118744815Y-65800000D01*
X118763503Y-65977805D01*
X118763504Y-65977807D01*
X118818747Y-66147829D01*
X118818750Y-66147835D01*
X118908141Y-66302665D01*
X118949812Y-66348946D01*
X119027764Y-66435521D01*
X119027767Y-66435523D01*
X119027770Y-66435526D01*
X119172407Y-66540612D01*
X119335733Y-66613329D01*
X119510609Y-66650500D01*
X119510610Y-66650500D01*
X119689389Y-66650500D01*
X119689391Y-66650500D01*
X119864267Y-66613329D01*
X120027593Y-66540612D01*
X120172230Y-66435526D01*
X120291859Y-66302665D01*
X120381250Y-66147835D01*
X120436497Y-65977803D01*
X120455185Y-65800000D01*
X120436497Y-65622197D01*
X120392462Y-65486671D01*
X120381252Y-65452170D01*
X120381249Y-65452164D01*
X120379711Y-65449500D01*
X120291859Y-65297335D01*
X120245003Y-65245296D01*
X120172235Y-65164478D01*
X120172232Y-65164476D01*
X120172231Y-65164475D01*
X120172230Y-65164474D01*
X120027593Y-65059388D01*
X119864267Y-64986671D01*
X119864265Y-64986670D01*
X119736594Y-64959533D01*
X119689391Y-64949500D01*
X119510609Y-64949500D01*
X119479954Y-64956015D01*
X119335733Y-64986670D01*
X119335728Y-64986672D01*
X119172408Y-65059387D01*
X119027768Y-65164475D01*
X118908140Y-65297336D01*
X118818750Y-65452164D01*
X118818747Y-65452170D01*
X118763504Y-65622192D01*
X118763503Y-65622194D01*
X118744815Y-65800000D01*
X107804219Y-65800000D01*
X107772235Y-65764478D01*
X107772232Y-65764476D01*
X107772231Y-65764475D01*
X107772230Y-65764474D01*
X107627593Y-65659388D01*
X107464267Y-65586671D01*
X107464265Y-65586670D01*
X107335906Y-65559387D01*
X107289391Y-65549500D01*
X107110609Y-65549500D01*
X107079954Y-65556015D01*
X106935733Y-65586670D01*
X106935728Y-65586672D01*
X106772408Y-65659387D01*
X106627768Y-65764475D01*
X106586457Y-65810356D01*
X106526971Y-65847004D01*
X106457114Y-65845673D01*
X106399066Y-65806786D01*
X106393989Y-65800267D01*
X106391860Y-65797336D01*
X106391859Y-65797335D01*
X106383904Y-65788501D01*
X106272235Y-65664478D01*
X106272232Y-65664476D01*
X106272231Y-65664475D01*
X106272230Y-65664474D01*
X106127593Y-65559388D01*
X105964267Y-65486671D01*
X105964265Y-65486670D01*
X105801952Y-65452170D01*
X105789391Y-65449500D01*
X105610609Y-65449500D01*
X105598048Y-65452170D01*
X105435733Y-65486670D01*
X105435728Y-65486672D01*
X105272408Y-65559388D01*
X105266775Y-65562640D01*
X105266097Y-65561465D01*
X105207064Y-65582521D01*
X105139012Y-65566687D01*
X105128207Y-65559742D01*
X105127597Y-65559390D01*
X105127593Y-65559388D01*
X104964267Y-65486671D01*
X104964265Y-65486670D01*
X104801952Y-65452170D01*
X104789391Y-65449500D01*
X104610609Y-65449500D01*
X104598048Y-65452170D01*
X104435733Y-65486670D01*
X104435728Y-65486672D01*
X104272408Y-65559387D01*
X104127768Y-65664475D01*
X104008140Y-65797336D01*
X103918750Y-65952164D01*
X103918747Y-65952170D01*
X103863504Y-66122192D01*
X103863503Y-66122194D01*
X103844815Y-66300000D01*
X94655185Y-66300000D01*
X94636497Y-66122197D01*
X94589581Y-65977805D01*
X94581252Y-65952170D01*
X94581249Y-65952164D01*
X94578867Y-65948038D01*
X94491859Y-65797335D01*
X94445003Y-65745296D01*
X94372235Y-65664478D01*
X94372232Y-65664476D01*
X94372231Y-65664475D01*
X94372230Y-65664474D01*
X94227593Y-65559388D01*
X94064267Y-65486671D01*
X94064265Y-65486670D01*
X93901952Y-65452170D01*
X93889391Y-65449500D01*
X93710609Y-65449500D01*
X93698048Y-65452170D01*
X93535733Y-65486670D01*
X93535728Y-65486672D01*
X93372408Y-65559387D01*
X93227768Y-65664475D01*
X93108140Y-65797336D01*
X93018750Y-65952164D01*
X93018747Y-65952170D01*
X92963504Y-66122192D01*
X92963503Y-66122194D01*
X92944815Y-66300000D01*
X92963503Y-66477805D01*
X92963504Y-66477807D01*
X93018747Y-66647829D01*
X93018750Y-66647835D01*
X93108140Y-66802664D01*
X93121074Y-66817029D01*
X93151303Y-66880021D01*
X93142677Y-66949356D01*
X93121074Y-66982971D01*
X93108140Y-66997335D01*
X93018750Y-67152164D01*
X93018747Y-67152170D01*
X92963504Y-67322192D01*
X92963503Y-67322194D01*
X92944815Y-67500000D01*
X92963503Y-67677805D01*
X92963504Y-67677807D01*
X93018747Y-67847829D01*
X93018749Y-67847832D01*
X93018750Y-67847835D01*
X93056563Y-67913329D01*
X93099674Y-67988001D01*
X93116146Y-68055901D01*
X93099674Y-68111999D01*
X93018749Y-68252167D01*
X93018747Y-68252170D01*
X92963504Y-68422192D01*
X92963503Y-68422194D01*
X92944815Y-68600000D01*
X92963503Y-68777805D01*
X92963504Y-68777807D01*
X93018747Y-68947829D01*
X93018750Y-68947835D01*
X93108140Y-69102664D01*
X93211113Y-69217028D01*
X93241343Y-69280020D01*
X93232717Y-69349355D01*
X93211113Y-69382972D01*
X93108140Y-69497335D01*
X93018750Y-69652164D01*
X93018747Y-69652170D01*
X92963504Y-69822192D01*
X92963503Y-69822194D01*
X92944815Y-70000000D01*
X92963503Y-70177805D01*
X92963504Y-70177807D01*
X93018747Y-70347829D01*
X93018750Y-70347835D01*
X93108141Y-70502665D01*
X93149812Y-70548946D01*
X93227764Y-70635521D01*
X93227767Y-70635523D01*
X93227770Y-70635526D01*
X93316073Y-70699683D01*
X93358738Y-70755012D01*
X93364717Y-70824626D01*
X93332111Y-70886421D01*
X93316073Y-70900318D01*
X93227768Y-70964475D01*
X93108140Y-71097336D01*
X93018750Y-71252164D01*
X93018747Y-71252170D01*
X92963504Y-71422192D01*
X92963503Y-71422194D01*
X92944815Y-71600000D01*
X92963503Y-71777805D01*
X92963504Y-71777807D01*
X93018747Y-71947829D01*
X93018750Y-71947835D01*
X93108141Y-72102665D01*
X93149812Y-72148946D01*
X93227764Y-72235521D01*
X93227773Y-72235528D01*
X93256663Y-72256519D01*
X93299329Y-72311849D01*
X93305307Y-72381463D01*
X93272700Y-72443257D01*
X93256663Y-72457153D01*
X93177773Y-72514471D01*
X93177770Y-72514473D01*
X93058140Y-72647336D01*
X92968750Y-72802164D01*
X92968747Y-72802170D01*
X92913504Y-72972192D01*
X92913503Y-72972194D01*
X92894815Y-73150000D01*
X82215632Y-73150000D01*
X82215977Y-73149655D01*
X82330941Y-72977598D01*
X82410130Y-72786420D01*
X82450500Y-72583465D01*
X82450500Y-72376535D01*
X82410130Y-72173580D01*
X82330941Y-71982402D01*
X82215977Y-71810345D01*
X82215975Y-71810342D01*
X82069657Y-71664024D01*
X81969849Y-71597335D01*
X81897598Y-71549059D01*
X81872753Y-71538768D01*
X81706420Y-71469870D01*
X81706412Y-71469868D01*
X81503469Y-71429500D01*
X81503465Y-71429500D01*
X80396535Y-71429500D01*
X80396530Y-71429500D01*
X80193587Y-71469868D01*
X80193579Y-71469870D01*
X80002403Y-71549058D01*
X79830342Y-71664024D01*
X79684024Y-71810342D01*
X79569058Y-71982403D01*
X79489870Y-72173579D01*
X79489868Y-72173587D01*
X79449500Y-72376530D01*
X79449500Y-72583469D01*
X78137830Y-72583469D01*
X78140500Y-72566611D01*
X78140500Y-72393389D01*
X78113402Y-72222299D01*
X78059873Y-72057555D01*
X77981232Y-71903212D01*
X77879414Y-71763072D01*
X77756928Y-71640586D01*
X77616788Y-71538768D01*
X77470984Y-71464478D01*
X77462447Y-71460128D01*
X77462446Y-71460127D01*
X77462445Y-71460127D01*
X77297701Y-71406598D01*
X77297699Y-71406597D01*
X77297698Y-71406597D01*
X77166271Y-71385781D01*
X77126611Y-71379500D01*
X76353389Y-71379500D01*
X76313728Y-71385781D01*
X76182302Y-71406597D01*
X76017552Y-71460128D01*
X75863211Y-71538768D01*
X75783256Y-71596859D01*
X75723072Y-71640586D01*
X75723070Y-71640588D01*
X75723069Y-71640588D01*
X75600588Y-71763069D01*
X75600588Y-71763070D01*
X75600586Y-71763072D01*
X75566242Y-71810342D01*
X75498768Y-71903211D01*
X75420128Y-72057552D01*
X75366597Y-72222302D01*
X75346973Y-72346206D01*
X75317044Y-72409341D01*
X75257732Y-72446272D01*
X75187870Y-72445274D01*
X75129637Y-72406664D01*
X75101523Y-72342701D01*
X75100500Y-72326808D01*
X75100500Y-71960439D01*
X75090252Y-71922194D01*
X75080021Y-71884011D01*
X75068742Y-71864475D01*
X75040464Y-71815495D01*
X75040458Y-71815487D01*
X74984511Y-71759540D01*
X73474971Y-70250000D01*
X74394815Y-70250000D01*
X74413503Y-70427805D01*
X74413504Y-70427807D01*
X74468747Y-70597829D01*
X74468750Y-70597835D01*
X74558141Y-70752665D01*
X74599812Y-70798946D01*
X74677764Y-70885521D01*
X74677767Y-70885523D01*
X74677770Y-70885526D01*
X74822407Y-70990612D01*
X74985733Y-71063329D01*
X75160609Y-71100500D01*
X75160610Y-71100500D01*
X75339389Y-71100500D01*
X75339391Y-71100500D01*
X75514267Y-71063329D01*
X75677593Y-70990612D01*
X75822230Y-70885526D01*
X75941859Y-70752665D01*
X76031250Y-70597835D01*
X76086497Y-70427803D01*
X76105185Y-70250000D01*
X76086497Y-70072197D01*
X76031250Y-69902165D01*
X75941859Y-69747335D01*
X75856172Y-69652170D01*
X75822235Y-69614478D01*
X75822232Y-69614476D01*
X75822231Y-69614475D01*
X75822230Y-69614474D01*
X75677593Y-69509388D01*
X75514267Y-69436671D01*
X75514265Y-69436670D01*
X75386594Y-69409533D01*
X75339391Y-69399500D01*
X75160609Y-69399500D01*
X75129954Y-69406015D01*
X74985733Y-69436670D01*
X74985728Y-69436672D01*
X74822408Y-69509387D01*
X74677768Y-69614475D01*
X74558140Y-69747336D01*
X74468750Y-69902164D01*
X74468747Y-69902170D01*
X74413504Y-70072192D01*
X74413503Y-70072194D01*
X74394815Y-70250000D01*
X73474971Y-70250000D01*
X72024971Y-68800000D01*
X81794659Y-68800000D01*
X81813975Y-68996129D01*
X81871188Y-69184733D01*
X81964086Y-69358532D01*
X81964090Y-69358539D01*
X82089116Y-69510883D01*
X82241460Y-69635909D01*
X82241467Y-69635913D01*
X82415266Y-69728811D01*
X82415269Y-69728811D01*
X82415273Y-69728814D01*
X82603868Y-69786024D01*
X82800000Y-69805341D01*
X82996132Y-69786024D01*
X83184727Y-69728814D01*
X83358538Y-69635910D01*
X83510883Y-69510883D01*
X83635910Y-69358538D01*
X83728814Y-69184727D01*
X83786024Y-68996132D01*
X83805341Y-68800000D01*
X83786024Y-68603868D01*
X83728814Y-68415273D01*
X83644990Y-68258449D01*
X83630749Y-68190051D01*
X83644989Y-68141551D01*
X83728814Y-67984727D01*
X83786024Y-67796132D01*
X83805341Y-67600000D01*
X83786024Y-67403868D01*
X83728814Y-67215273D01*
X83728811Y-67215269D01*
X83728811Y-67215266D01*
X83635913Y-67041467D01*
X83635909Y-67041460D01*
X83510883Y-66889116D01*
X83475405Y-66860000D01*
X84574659Y-66860000D01*
X84593975Y-67056129D01*
X84593976Y-67056132D01*
X84641661Y-67213329D01*
X84651188Y-67244733D01*
X84744086Y-67418532D01*
X84744090Y-67418539D01*
X84869116Y-67570883D01*
X85021460Y-67695909D01*
X85021467Y-67695913D01*
X85195266Y-67788811D01*
X85195269Y-67788811D01*
X85195273Y-67788814D01*
X85383868Y-67846024D01*
X85580000Y-67865341D01*
X85776132Y-67846024D01*
X85964727Y-67788814D01*
X86138538Y-67695910D01*
X86290883Y-67570883D01*
X86415910Y-67418538D01*
X86491132Y-67277807D01*
X86508811Y-67244733D01*
X86508811Y-67244732D01*
X86508814Y-67244727D01*
X86566024Y-67056132D01*
X86585341Y-66860000D01*
X86566024Y-66663868D01*
X86508814Y-66475273D01*
X86508811Y-66475269D01*
X86508811Y-66475266D01*
X86415913Y-66301467D01*
X86415909Y-66301460D01*
X86290883Y-66149116D01*
X86138539Y-66024090D01*
X86138532Y-66024086D01*
X85964733Y-65931188D01*
X85964727Y-65931186D01*
X85776132Y-65873976D01*
X85776129Y-65873975D01*
X85580000Y-65854659D01*
X85383870Y-65873975D01*
X85195266Y-65931188D01*
X85021467Y-66024086D01*
X85021460Y-66024090D01*
X84869116Y-66149116D01*
X84744090Y-66301460D01*
X84744086Y-66301467D01*
X84651188Y-66475266D01*
X84593975Y-66663870D01*
X84574659Y-66860000D01*
X83475405Y-66860000D01*
X83358539Y-66764090D01*
X83358532Y-66764086D01*
X83184733Y-66671188D01*
X83184727Y-66671186D01*
X82996132Y-66613976D01*
X82996129Y-66613975D01*
X82800000Y-66594659D01*
X82603870Y-66613975D01*
X82415266Y-66671188D01*
X82241467Y-66764086D01*
X82241460Y-66764090D01*
X82089116Y-66889116D01*
X81964090Y-67041460D01*
X81964086Y-67041467D01*
X81871188Y-67215266D01*
X81813975Y-67403870D01*
X81794659Y-67600000D01*
X81813975Y-67796129D01*
X81871188Y-67984733D01*
X81955007Y-68141547D01*
X81969249Y-68209950D01*
X81955007Y-68258453D01*
X81871188Y-68415266D01*
X81813975Y-68603870D01*
X81794659Y-68800000D01*
X72024971Y-68800000D01*
X69765581Y-66540610D01*
X68474971Y-65250000D01*
X88894815Y-65250000D01*
X88913503Y-65427805D01*
X88913504Y-65427807D01*
X88968747Y-65597829D01*
X88968750Y-65597835D01*
X89058141Y-65752665D01*
X89068775Y-65764475D01*
X89177764Y-65885521D01*
X89177767Y-65885523D01*
X89177770Y-65885526D01*
X89322407Y-65990612D01*
X89485733Y-66063329D01*
X89660609Y-66100500D01*
X89660610Y-66100500D01*
X89839389Y-66100500D01*
X89839391Y-66100500D01*
X90014267Y-66063329D01*
X90177593Y-65990612D01*
X90322230Y-65885526D01*
X90441859Y-65752665D01*
X90531250Y-65597835D01*
X90586497Y-65427803D01*
X90605185Y-65250000D01*
X90586497Y-65072197D01*
X90546630Y-64949500D01*
X90531252Y-64902170D01*
X90531249Y-64902164D01*
X90495711Y-64840610D01*
X90441859Y-64747335D01*
X90395003Y-64695296D01*
X90322235Y-64614478D01*
X90322232Y-64614476D01*
X90322231Y-64614475D01*
X90322230Y-64614474D01*
X90177593Y-64509388D01*
X90014267Y-64436671D01*
X90014265Y-64436670D01*
X89886594Y-64409533D01*
X89839391Y-64399500D01*
X89660609Y-64399500D01*
X89629954Y-64406015D01*
X89485733Y-64436670D01*
X89485728Y-64436672D01*
X89322408Y-64509387D01*
X89177768Y-64614475D01*
X89058140Y-64747336D01*
X88968750Y-64902164D01*
X88968747Y-64902170D01*
X88913504Y-65072192D01*
X88913503Y-65072194D01*
X88894815Y-65250000D01*
X68474971Y-65250000D01*
X66327642Y-63102671D01*
X76695500Y-63102671D01*
X76727621Y-63305472D01*
X76791070Y-63500751D01*
X76791071Y-63500754D01*
X76884291Y-63683707D01*
X77004983Y-63849825D01*
X77150175Y-63995017D01*
X77316293Y-64115709D01*
X77406026Y-64161430D01*
X77499245Y-64208928D01*
X77499248Y-64208929D01*
X77596887Y-64240653D01*
X77694529Y-64272379D01*
X77788457Y-64287255D01*
X77897329Y-64304500D01*
X77897334Y-64304500D01*
X78102671Y-64304500D01*
X78200986Y-64288927D01*
X78305471Y-64272379D01*
X78500754Y-64208928D01*
X78683707Y-64115709D01*
X78705329Y-64100000D01*
X112144815Y-64100000D01*
X112163503Y-64277805D01*
X112163504Y-64277807D01*
X112218747Y-64447829D01*
X112218750Y-64447835D01*
X112308141Y-64602665D01*
X112318775Y-64614475D01*
X112427764Y-64735521D01*
X112427767Y-64735523D01*
X112427770Y-64735526D01*
X112572407Y-64840612D01*
X112735733Y-64913329D01*
X112910609Y-64950500D01*
X112910610Y-64950500D01*
X113089389Y-64950500D01*
X113089391Y-64950500D01*
X113264267Y-64913329D01*
X113427593Y-64840612D01*
X113572230Y-64735526D01*
X113691859Y-64602665D01*
X113781250Y-64447835D01*
X113836497Y-64277803D01*
X113855185Y-64100000D01*
X113836497Y-63922197D01*
X113781250Y-63752165D01*
X113691859Y-63597335D01*
X113630162Y-63528814D01*
X113572235Y-63464478D01*
X113572232Y-63464476D01*
X113572231Y-63464475D01*
X113572230Y-63464474D01*
X113427593Y-63359388D01*
X113264267Y-63286671D01*
X113264265Y-63286670D01*
X113136594Y-63259533D01*
X113089391Y-63249500D01*
X112910609Y-63249500D01*
X112879954Y-63256015D01*
X112735733Y-63286670D01*
X112735728Y-63286672D01*
X112572408Y-63359387D01*
X112427768Y-63464475D01*
X112308140Y-63597336D01*
X112218750Y-63752164D01*
X112218747Y-63752170D01*
X112163504Y-63922192D01*
X112163503Y-63922194D01*
X112144815Y-64100000D01*
X78705329Y-64100000D01*
X78849825Y-63995017D01*
X78995017Y-63849825D01*
X79115709Y-63683707D01*
X79208928Y-63500754D01*
X79272379Y-63305471D01*
X79295652Y-63158532D01*
X79304500Y-63102671D01*
X79304500Y-62897328D01*
X79285813Y-62779349D01*
X79272379Y-62694529D01*
X79241665Y-62600000D01*
X91994659Y-62600000D01*
X92013975Y-62796129D01*
X92013976Y-62796132D01*
X92044675Y-62897334D01*
X92071188Y-62984733D01*
X92164086Y-63158532D01*
X92164090Y-63158539D01*
X92289116Y-63310883D01*
X92441460Y-63435909D01*
X92441467Y-63435913D01*
X92615266Y-63528811D01*
X92615269Y-63528811D01*
X92615273Y-63528814D01*
X92803868Y-63586024D01*
X93000000Y-63605341D01*
X93196132Y-63586024D01*
X93384727Y-63528814D01*
X93558538Y-63435910D01*
X93710883Y-63310883D01*
X93835910Y-63158538D01*
X93865772Y-63102671D01*
X120695500Y-63102671D01*
X120727621Y-63305472D01*
X120791070Y-63500751D01*
X120791071Y-63500754D01*
X120884291Y-63683707D01*
X121004983Y-63849825D01*
X121150175Y-63995017D01*
X121316293Y-64115709D01*
X121406026Y-64161430D01*
X121499245Y-64208928D01*
X121499248Y-64208929D01*
X121596887Y-64240653D01*
X121694529Y-64272379D01*
X121788457Y-64287255D01*
X121897329Y-64304500D01*
X121897334Y-64304500D01*
X122102671Y-64304500D01*
X122200986Y-64288927D01*
X122305471Y-64272379D01*
X122500754Y-64208928D01*
X122683707Y-64115709D01*
X122849825Y-63995017D01*
X122995017Y-63849825D01*
X123115709Y-63683707D01*
X123208928Y-63500754D01*
X123272379Y-63305471D01*
X123295652Y-63158532D01*
X123304500Y-63102671D01*
X123304500Y-62897328D01*
X123285813Y-62779349D01*
X123272379Y-62694529D01*
X123208928Y-62499246D01*
X123208928Y-62499245D01*
X123115708Y-62316292D01*
X122995017Y-62150175D01*
X122849825Y-62004983D01*
X122683707Y-61884291D01*
X122500754Y-61791071D01*
X122500751Y-61791070D01*
X122305472Y-61727621D01*
X122102671Y-61695500D01*
X122102666Y-61695500D01*
X121897334Y-61695500D01*
X121897329Y-61695500D01*
X121694527Y-61727621D01*
X121499248Y-61791070D01*
X121499245Y-61791071D01*
X121316292Y-61884291D01*
X121245781Y-61935521D01*
X121150175Y-62004983D01*
X121150173Y-62004985D01*
X121150172Y-62004985D01*
X121004985Y-62150172D01*
X121004985Y-62150173D01*
X121004983Y-62150175D01*
X120953150Y-62221516D01*
X120884291Y-62316292D01*
X120791071Y-62499245D01*
X120791070Y-62499248D01*
X120727621Y-62694527D01*
X120695500Y-62897328D01*
X120695500Y-63102671D01*
X93865772Y-63102671D01*
X93928814Y-62984727D01*
X93986024Y-62796132D01*
X94005341Y-62600000D01*
X93986024Y-62403868D01*
X93928814Y-62215273D01*
X93928811Y-62215269D01*
X93928811Y-62215266D01*
X93835913Y-62041467D01*
X93835909Y-62041460D01*
X93710883Y-61889116D01*
X93558539Y-61764090D01*
X93558532Y-61764086D01*
X93384733Y-61671188D01*
X93384727Y-61671186D01*
X93196132Y-61613976D01*
X93196129Y-61613975D01*
X93000000Y-61594659D01*
X92803870Y-61613975D01*
X92615266Y-61671188D01*
X92441467Y-61764086D01*
X92441460Y-61764090D01*
X92289116Y-61889116D01*
X92164090Y-62041460D01*
X92164086Y-62041467D01*
X92071188Y-62215266D01*
X92013975Y-62403870D01*
X91994659Y-62600000D01*
X79241665Y-62600000D01*
X79208928Y-62499246D01*
X79208928Y-62499245D01*
X79115708Y-62316292D01*
X78995017Y-62150175D01*
X78849825Y-62004983D01*
X78683707Y-61884291D01*
X78500754Y-61791071D01*
X78500751Y-61791070D01*
X78305472Y-61727621D01*
X78102671Y-61695500D01*
X78102666Y-61695500D01*
X77897334Y-61695500D01*
X77897329Y-61695500D01*
X77694527Y-61727621D01*
X77499248Y-61791070D01*
X77499245Y-61791071D01*
X77316292Y-61884291D01*
X77245781Y-61935521D01*
X77150175Y-62004983D01*
X77150173Y-62004985D01*
X77150172Y-62004985D01*
X77004985Y-62150172D01*
X77004985Y-62150173D01*
X77004983Y-62150175D01*
X76953150Y-62221516D01*
X76884291Y-62316292D01*
X76791071Y-62499245D01*
X76791070Y-62499248D01*
X76727621Y-62694527D01*
X76695500Y-62897328D01*
X76695500Y-63102671D01*
X66327642Y-63102671D01*
X60175338Y-56950366D01*
X60141854Y-56889044D01*
X60139029Y-56864139D01*
X60135970Y-56600002D01*
X63144723Y-56600002D01*
X63163793Y-56817975D01*
X63163793Y-56817979D01*
X63220422Y-57029322D01*
X63220424Y-57029326D01*
X63220425Y-57029330D01*
X63266661Y-57128484D01*
X63312897Y-57227638D01*
X63312898Y-57227639D01*
X63438402Y-57406877D01*
X63593123Y-57561598D01*
X63772361Y-57687102D01*
X63970670Y-57779575D01*
X64182023Y-57836207D01*
X64364926Y-57852208D01*
X64399998Y-57855277D01*
X64400000Y-57855277D01*
X64400002Y-57855277D01*
X64428254Y-57852805D01*
X64617977Y-57836207D01*
X64829330Y-57779575D01*
X65027639Y-57687102D01*
X65206877Y-57561598D01*
X65361598Y-57406877D01*
X65487102Y-57227639D01*
X65579575Y-57029330D01*
X65636207Y-56817977D01*
X65655277Y-56600000D01*
X65636207Y-56382023D01*
X65579575Y-56170670D01*
X65487102Y-55972362D01*
X65487100Y-55972359D01*
X65487099Y-55972357D01*
X65361599Y-55793124D01*
X65361596Y-55793121D01*
X65206877Y-55638402D01*
X65027639Y-55512898D01*
X65027640Y-55512898D01*
X65027638Y-55512897D01*
X64999980Y-55500000D01*
X75644815Y-55500000D01*
X75663503Y-55677805D01*
X75663504Y-55677807D01*
X75718747Y-55847829D01*
X75718750Y-55847835D01*
X75808141Y-56002665D01*
X75849812Y-56048946D01*
X75927764Y-56135521D01*
X75927767Y-56135523D01*
X75927770Y-56135526D01*
X76072407Y-56240612D01*
X76235733Y-56313329D01*
X76410609Y-56350500D01*
X76410610Y-56350500D01*
X76589389Y-56350500D01*
X76589391Y-56350500D01*
X76764267Y-56313329D01*
X76927593Y-56240612D01*
X77072230Y-56135526D01*
X77191859Y-56002665D01*
X77281250Y-55847835D01*
X77336497Y-55677803D01*
X77355185Y-55500000D01*
X77336497Y-55322197D01*
X77281250Y-55152165D01*
X77191859Y-54997335D01*
X77145003Y-54945296D01*
X77072235Y-54864478D01*
X77072232Y-54864476D01*
X77072231Y-54864475D01*
X77072230Y-54864474D01*
X76927593Y-54759388D01*
X76764267Y-54686671D01*
X76764265Y-54686670D01*
X76636594Y-54659533D01*
X76589391Y-54649500D01*
X76410609Y-54649500D01*
X76379954Y-54656015D01*
X76235733Y-54686670D01*
X76235728Y-54686672D01*
X76072408Y-54759387D01*
X75927768Y-54864475D01*
X75808140Y-54997336D01*
X75718750Y-55152164D01*
X75718747Y-55152170D01*
X75663504Y-55322192D01*
X75663503Y-55322194D01*
X75644815Y-55500000D01*
X64999980Y-55500000D01*
X64928484Y-55466661D01*
X64829330Y-55420425D01*
X64829326Y-55420424D01*
X64829322Y-55420422D01*
X64617977Y-55363793D01*
X64400002Y-55344723D01*
X64399998Y-55344723D01*
X64254682Y-55357436D01*
X64182023Y-55363793D01*
X64182020Y-55363793D01*
X63970677Y-55420422D01*
X63970668Y-55420426D01*
X63772361Y-55512898D01*
X63772357Y-55512900D01*
X63593121Y-55638402D01*
X63438402Y-55793121D01*
X63312900Y-55972357D01*
X63312898Y-55972361D01*
X63220426Y-56170668D01*
X63220422Y-56170677D01*
X63163793Y-56382020D01*
X63163793Y-56382024D01*
X63144723Y-56599997D01*
X63144723Y-56600002D01*
X60135970Y-56600002D01*
X60089650Y-52600941D01*
X60108557Y-52533679D01*
X60127569Y-52510245D01*
X60182837Y-52456951D01*
X61459260Y-51226114D01*
X61521179Y-51193752D01*
X61590768Y-51200002D01*
X61645932Y-51242883D01*
X61663261Y-51277059D01*
X61718747Y-51447828D01*
X61718750Y-51447835D01*
X61808141Y-51602665D01*
X61849812Y-51648946D01*
X61927764Y-51735521D01*
X61927767Y-51735523D01*
X61927770Y-51735526D01*
X62072407Y-51840612D01*
X62235733Y-51913329D01*
X62410609Y-51950500D01*
X62410610Y-51950500D01*
X62589389Y-51950500D01*
X62589391Y-51950500D01*
X62764267Y-51913329D01*
X62927593Y-51840612D01*
X62939110Y-51832243D01*
X63004915Y-51808763D01*
X63072970Y-51824587D01*
X63121666Y-51874692D01*
X63135542Y-51943170D01*
X63135318Y-51945523D01*
X63121709Y-52074999D01*
X63140397Y-52252805D01*
X63140398Y-52252807D01*
X63184035Y-52387109D01*
X63186030Y-52456951D01*
X63149949Y-52516783D01*
X63091886Y-52546717D01*
X63012626Y-52563565D01*
X63012622Y-52563566D01*
X62849302Y-52636281D01*
X62704662Y-52741369D01*
X62585034Y-52874230D01*
X62495644Y-53029058D01*
X62495641Y-53029064D01*
X62440398Y-53199086D01*
X62440397Y-53199088D01*
X62421709Y-53376894D01*
X62440397Y-53554699D01*
X62440398Y-53554701D01*
X62495641Y-53724723D01*
X62495644Y-53724729D01*
X62585035Y-53879559D01*
X62626706Y-53925840D01*
X62704658Y-54012415D01*
X62704661Y-54012417D01*
X62704664Y-54012420D01*
X62849301Y-54117506D01*
X63012627Y-54190223D01*
X63187503Y-54227394D01*
X63187504Y-54227394D01*
X63366283Y-54227394D01*
X63366285Y-54227394D01*
X63541161Y-54190223D01*
X63704487Y-54117506D01*
X63849124Y-54012420D01*
X63968753Y-53879559D01*
X64058144Y-53724729D01*
X64113391Y-53554697D01*
X64132079Y-53376894D01*
X64113391Y-53199091D01*
X64069752Y-53064784D01*
X64067757Y-52994943D01*
X64103837Y-52935110D01*
X64161902Y-52905176D01*
X64162612Y-52905025D01*
X64241161Y-52888329D01*
X64404487Y-52815612D01*
X64549124Y-52710526D01*
X64668753Y-52577665D01*
X64758144Y-52422835D01*
X64813391Y-52252803D01*
X64832079Y-52075000D01*
X64813391Y-51897197D01*
X64758144Y-51727165D01*
X64668753Y-51572335D01*
X64621897Y-51520296D01*
X64549129Y-51439478D01*
X64549126Y-51439476D01*
X64549125Y-51439475D01*
X64549124Y-51439474D01*
X64404487Y-51334388D01*
X64241161Y-51261671D01*
X64241159Y-51261670D01*
X64089695Y-51229476D01*
X64066285Y-51224500D01*
X63887503Y-51224500D01*
X63879910Y-51226114D01*
X63712627Y-51261670D01*
X63712622Y-51261672D01*
X63549302Y-51334388D01*
X63549300Y-51334388D01*
X63537778Y-51342760D01*
X63471971Y-51366237D01*
X63403917Y-51350409D01*
X63355224Y-51300302D01*
X63341351Y-51231823D01*
X63341561Y-51229622D01*
X63355185Y-51100000D01*
X63336497Y-50922197D01*
X63308873Y-50837181D01*
X63281252Y-50752170D01*
X63281249Y-50752164D01*
X63191859Y-50597335D01*
X63145003Y-50545296D01*
X63072235Y-50464478D01*
X63072232Y-50464476D01*
X63072231Y-50464475D01*
X63072230Y-50464474D01*
X62927593Y-50359388D01*
X62764267Y-50286671D01*
X62764265Y-50286670D01*
X62721554Y-50277592D01*
X62670445Y-50250000D01*
X66644815Y-50250000D01*
X66663503Y-50427805D01*
X66663504Y-50427807D01*
X66718747Y-50597829D01*
X66718750Y-50597835D01*
X66808141Y-50752665D01*
X66849812Y-50798946D01*
X66927764Y-50885521D01*
X66927767Y-50885523D01*
X66927770Y-50885526D01*
X67072407Y-50990612D01*
X67235733Y-51063329D01*
X67410609Y-51100500D01*
X67410610Y-51100500D01*
X67589389Y-51100500D01*
X67589391Y-51100500D01*
X67764267Y-51063329D01*
X67927593Y-50990612D01*
X68072230Y-50885526D01*
X68191859Y-50752665D01*
X68281250Y-50597835D01*
X68281413Y-50597335D01*
X68323959Y-50466390D01*
X68336497Y-50427803D01*
X68355185Y-50250000D01*
X68336497Y-50072197D01*
X68308873Y-49987181D01*
X68281252Y-49902170D01*
X68281249Y-49902164D01*
X68240159Y-49830994D01*
X68191859Y-49747335D01*
X68145003Y-49695296D01*
X68072235Y-49614478D01*
X68072232Y-49614476D01*
X68072231Y-49614475D01*
X68072230Y-49614474D01*
X67927593Y-49509388D01*
X67764267Y-49436671D01*
X67764265Y-49436670D01*
X67636594Y-49409533D01*
X67589391Y-49399500D01*
X67410609Y-49399500D01*
X67379954Y-49406015D01*
X67235733Y-49436670D01*
X67235728Y-49436672D01*
X67072408Y-49509387D01*
X66927768Y-49614475D01*
X66808140Y-49747336D01*
X66718750Y-49902164D01*
X66718747Y-49902170D01*
X66663504Y-50072192D01*
X66663503Y-50072194D01*
X66644815Y-50250000D01*
X62670445Y-50250000D01*
X62660072Y-50244400D01*
X62626296Y-50183237D01*
X62630948Y-50113522D01*
X62661262Y-50067041D01*
X62827354Y-49906881D01*
X67054024Y-45831163D01*
X67115943Y-45798801D01*
X67137644Y-45796451D01*
X72413790Y-45692589D01*
X72481203Y-45710950D01*
X72503911Y-45728884D01*
X83593004Y-56817975D01*
X87215489Y-60440460D01*
X87274829Y-60474720D01*
X87284008Y-60480020D01*
X87284012Y-60480022D01*
X87360438Y-60500500D01*
X87439562Y-60500500D01*
X93996904Y-60500500D01*
X94063943Y-60520185D01*
X94109698Y-60572989D01*
X94119642Y-60642147D01*
X94090617Y-60705703D01*
X94089054Y-60707472D01*
X94008140Y-60797336D01*
X93918750Y-60952164D01*
X93918747Y-60952170D01*
X93863504Y-61122192D01*
X93863503Y-61122194D01*
X93844815Y-61300000D01*
X93863503Y-61477805D01*
X93863504Y-61477807D01*
X93918747Y-61647829D01*
X93918750Y-61647835D01*
X94008141Y-61802665D01*
X94049812Y-61848946D01*
X94127764Y-61935521D01*
X94127767Y-61935523D01*
X94127770Y-61935526D01*
X94272407Y-62040612D01*
X94435733Y-62113329D01*
X94610609Y-62150500D01*
X94610610Y-62150500D01*
X94789389Y-62150500D01*
X94789391Y-62150500D01*
X94964267Y-62113329D01*
X95127593Y-62040612D01*
X95272230Y-61935526D01*
X95391859Y-61802665D01*
X95481250Y-61647835D01*
X95536497Y-61477803D01*
X95555185Y-61300000D01*
X95536497Y-61122197D01*
X95481250Y-60952165D01*
X95391859Y-60797335D01*
X95310946Y-60707472D01*
X95280716Y-60644481D01*
X95289341Y-60575145D01*
X95334083Y-60521480D01*
X95400735Y-60500522D01*
X95403096Y-60500500D01*
X112239560Y-60500500D01*
X112239562Y-60500500D01*
X112315989Y-60480021D01*
X112384511Y-60440460D01*
X112440460Y-60384511D01*
X112440459Y-60384511D01*
X120074971Y-52750000D01*
X133894815Y-52750000D01*
X133913503Y-52927805D01*
X133913504Y-52927807D01*
X133968747Y-53097829D01*
X133968750Y-53097835D01*
X134058141Y-53252665D01*
X134099812Y-53298946D01*
X134177764Y-53385521D01*
X134177767Y-53385523D01*
X134177770Y-53385526D01*
X134322407Y-53490612D01*
X134485733Y-53563329D01*
X134660609Y-53600500D01*
X134660610Y-53600500D01*
X134839389Y-53600500D01*
X134839391Y-53600500D01*
X135014267Y-53563329D01*
X135177593Y-53490612D01*
X135322230Y-53385526D01*
X135330003Y-53376894D01*
X135348148Y-53356741D01*
X135441859Y-53252665D01*
X135531250Y-53097835D01*
X135586497Y-52927803D01*
X135588891Y-52905025D01*
X135989790Y-52905025D01*
X136008478Y-53082830D01*
X136008479Y-53082832D01*
X136063722Y-53252854D01*
X136063725Y-53252860D01*
X136153116Y-53407690D01*
X136194787Y-53453971D01*
X136272739Y-53540546D01*
X136272742Y-53540548D01*
X136272745Y-53540551D01*
X136417382Y-53645637D01*
X136580708Y-53718354D01*
X136755584Y-53755525D01*
X136755585Y-53755525D01*
X136934364Y-53755525D01*
X136934366Y-53755525D01*
X137109242Y-53718354D01*
X137272568Y-53645637D01*
X137417205Y-53540551D01*
X137536834Y-53407690D01*
X137626225Y-53252860D01*
X137681472Y-53082828D01*
X137700160Y-52905025D01*
X137681472Y-52727222D01*
X137631100Y-52572194D01*
X137626227Y-52557195D01*
X137626224Y-52557189D01*
X137620178Y-52546717D01*
X137536834Y-52402360D01*
X137489978Y-52350321D01*
X137417210Y-52269503D01*
X137417207Y-52269501D01*
X137417206Y-52269500D01*
X137417205Y-52269499D01*
X137272568Y-52164413D01*
X137109242Y-52091696D01*
X137109240Y-52091695D01*
X136981569Y-52064558D01*
X136934366Y-52054525D01*
X136755584Y-52054525D01*
X136724929Y-52061040D01*
X136580708Y-52091695D01*
X136580703Y-52091697D01*
X136417383Y-52164412D01*
X136272743Y-52269500D01*
X136153115Y-52402361D01*
X136063725Y-52557189D01*
X136063722Y-52557195D01*
X136008479Y-52727217D01*
X136008478Y-52727219D01*
X135989790Y-52905025D01*
X135588891Y-52905025D01*
X135605185Y-52750000D01*
X135586497Y-52572197D01*
X135531314Y-52402361D01*
X135531252Y-52402170D01*
X135531249Y-52402164D01*
X135522557Y-52387109D01*
X135441859Y-52247335D01*
X135395003Y-52195296D01*
X135322235Y-52114478D01*
X135322232Y-52114476D01*
X135322231Y-52114475D01*
X135322230Y-52114474D01*
X135177593Y-52009388D01*
X135014267Y-51936671D01*
X135014265Y-51936670D01*
X134886594Y-51909533D01*
X134839391Y-51899500D01*
X134660609Y-51899500D01*
X134629954Y-51906015D01*
X134485733Y-51936670D01*
X134485728Y-51936672D01*
X134322408Y-52009387D01*
X134177768Y-52114475D01*
X134058140Y-52247336D01*
X133968750Y-52402164D01*
X133968747Y-52402170D01*
X133913504Y-52572192D01*
X133913503Y-52572194D01*
X133894815Y-52750000D01*
X120074971Y-52750000D01*
X123724969Y-49100002D01*
X126344723Y-49100002D01*
X126363793Y-49317975D01*
X126363793Y-49317979D01*
X126420422Y-49529322D01*
X126420424Y-49529326D01*
X126420425Y-49529330D01*
X126460128Y-49614474D01*
X126512897Y-49727638D01*
X126512898Y-49727639D01*
X126638402Y-49906877D01*
X126793123Y-50061598D01*
X126972361Y-50187102D01*
X127170670Y-50279575D01*
X127382023Y-50336207D01*
X127564926Y-50352208D01*
X127599998Y-50355277D01*
X127600000Y-50355277D01*
X127600002Y-50355277D01*
X127628254Y-50352805D01*
X127817977Y-50336207D01*
X128029330Y-50279575D01*
X128227639Y-50187102D01*
X128406877Y-50061598D01*
X128561598Y-49906877D01*
X128687102Y-49727639D01*
X128779575Y-49529330D01*
X128836207Y-49317977D01*
X128855277Y-49100000D01*
X128836207Y-48882023D01*
X128799418Y-48744724D01*
X128779577Y-48670677D01*
X128779576Y-48670676D01*
X128779575Y-48670670D01*
X128687102Y-48472362D01*
X128687100Y-48472359D01*
X128687099Y-48472357D01*
X128561599Y-48293124D01*
X128512079Y-48243604D01*
X128406877Y-48138402D01*
X128227639Y-48012898D01*
X128227640Y-48012898D01*
X128227638Y-48012897D01*
X128128484Y-47966661D01*
X128029330Y-47920425D01*
X128029326Y-47920424D01*
X128029322Y-47920422D01*
X127817977Y-47863793D01*
X127600002Y-47844723D01*
X127599998Y-47844723D01*
X127488222Y-47854502D01*
X127382023Y-47863793D01*
X127382020Y-47863793D01*
X127170677Y-47920422D01*
X127170668Y-47920426D01*
X126972361Y-48012898D01*
X126972357Y-48012900D01*
X126793121Y-48138402D01*
X126638402Y-48293121D01*
X126512900Y-48472357D01*
X126512898Y-48472361D01*
X126420426Y-48670668D01*
X126420422Y-48670677D01*
X126363793Y-48882020D01*
X126363793Y-48882024D01*
X126344723Y-49099997D01*
X126344723Y-49100002D01*
X123724969Y-49100002D01*
X128195840Y-44629131D01*
X128257159Y-44595649D01*
X128281070Y-44592839D01*
X130540152Y-44548370D01*
X130607565Y-44566731D01*
G37*
%TD.AperFunction*%
%TD*%
%TA.AperFunction,NonConductor*%
G36*
X138505542Y-118335307D02*
G01*
X138561275Y-118377443D01*
X138585381Y-118443023D01*
X138570204Y-118511225D01*
X138547935Y-118540343D01*
X138105409Y-118969040D01*
X138043562Y-119001547D01*
X137973958Y-118995457D01*
X137918696Y-118952704D01*
X137895321Y-118886860D01*
X137911255Y-118818831D01*
X137926975Y-118797012D01*
X137941859Y-118780482D01*
X138031250Y-118625652D01*
X138086497Y-118455620D01*
X138086497Y-118455618D01*
X138086498Y-118455616D01*
X138087850Y-118449258D01*
X138090687Y-118449861D01*
X138112435Y-118396955D01*
X138169719Y-118356952D01*
X138209196Y-118350500D01*
X138339389Y-118350500D01*
X138339391Y-118350500D01*
X138435877Y-118329991D01*
X138505542Y-118335307D01*
G37*
%TD.AperFunction*%
M02*
