%TF.GenerationSoftware,KiCad,Pcbnew,8.0.1-8.0.1-1~ubuntu22.04.1*%
%TF.CreationDate,2024-03-26T19:18:49+01:00*%
%TF.ProjectId,espdrone,65737064-726f-46e6-952e-6b696361645f,rev?*%
%TF.SameCoordinates,Original*%
%TF.FileFunction,Legend,Bot*%
%TF.FilePolarity,Positive*%
%FSLAX46Y46*%
G04 Gerber Fmt 4.6, Leading zero omitted, Abs format (unit mm)*
G04 Created by KiCad (PCBNEW 8.0.1-8.0.1-1~ubuntu22.04.1) date 2024-03-26 19:18:49*
%MOMM*%
%LPD*%
G01*
G04 APERTURE LIST*
G04 Aperture macros list*
%AMRoundRect*
0 Rectangle with rounded corners*
0 $1 Rounding radius*
0 $2 $3 $4 $5 $6 $7 $8 $9 X,Y pos of 4 corners*
0 Add a 4 corners polygon primitive as box body*
4,1,4,$2,$3,$4,$5,$6,$7,$8,$9,$2,$3,0*
0 Add four circle primitives for the rounded corners*
1,1,$1+$1,$2,$3*
1,1,$1+$1,$4,$5*
1,1,$1+$1,$6,$7*
1,1,$1+$1,$8,$9*
0 Add four rect primitives between the rounded corners*
20,1,$1+$1,$2,$3,$4,$5,0*
20,1,$1+$1,$4,$5,$6,$7,0*
20,1,$1+$1,$6,$7,$8,$9,0*
20,1,$1+$1,$8,$9,$2,$3,0*%
%AMRotRect*
0 Rectangle, with rotation*
0 The origin of the aperture is its center*
0 $1 length*
0 $2 width*
0 $3 Rotation angle, in degrees counterclockwise*
0 Add horizontal line*
21,1,$1,$2,0,0,$3*%
G04 Aperture macros list end*
%ADD10C,0.200000*%
%ADD11C,0.100000*%
%ADD12C,0.150000*%
%ADD13C,0.300000*%
%ADD14C,0.120000*%
%ADD15C,0.000000*%
%ADD16C,1.300000*%
%ADD17C,1.000000*%
%ADD18C,0.700000*%
%ADD19O,2.000000X1.100000*%
%ADD20O,1.800000X1.200000*%
%ADD21C,2.100000*%
%ADD22C,3.800000*%
%ADD23C,0.900000*%
%ADD24RoundRect,0.225000X0.335876X0.017678X0.017678X0.335876X-0.335876X-0.017678X-0.017678X-0.335876X0*%
%ADD25RoundRect,0.500000X-0.500000X0.500000X-0.500000X-0.500000X0.500000X-0.500000X0.500000X0.500000X0*%
%ADD26RoundRect,0.225000X-0.017678X0.335876X-0.335876X0.017678X0.017678X-0.335876X0.335876X-0.017678X0*%
%ADD27RotRect,0.700000X0.700000X45.000000*%
%ADD28RotRect,0.700000X0.700000X135.000000*%
%ADD29RoundRect,0.225000X0.017678X-0.335876X0.335876X-0.017678X-0.017678X0.335876X-0.335876X0.017678X0*%
%ADD30RotRect,0.700000X0.700000X225.000000*%
%ADD31RoundRect,0.225000X-0.335876X-0.017678X-0.017678X-0.335876X0.335876X0.017678X0.017678X0.335876X0*%
%ADD32RotRect,0.700000X0.700000X315.000000*%
G04 APERTURE END LIST*
D10*
X103344612Y-107117219D02*
X103344612Y-107831504D01*
X103344612Y-107831504D02*
X103392231Y-107974361D01*
X103392231Y-107974361D02*
X103487469Y-108069600D01*
X103487469Y-108069600D02*
X103630326Y-108117219D01*
X103630326Y-108117219D02*
X103725564Y-108117219D01*
X102392231Y-108117219D02*
X102868421Y-108117219D01*
X102868421Y-108117219D02*
X102868421Y-107117219D01*
X101487469Y-108021980D02*
X101535088Y-108069600D01*
X101535088Y-108069600D02*
X101677945Y-108117219D01*
X101677945Y-108117219D02*
X101773183Y-108117219D01*
X101773183Y-108117219D02*
X101916040Y-108069600D01*
X101916040Y-108069600D02*
X102011278Y-107974361D01*
X102011278Y-107974361D02*
X102058897Y-107879123D01*
X102058897Y-107879123D02*
X102106516Y-107688647D01*
X102106516Y-107688647D02*
X102106516Y-107545790D01*
X102106516Y-107545790D02*
X102058897Y-107355314D01*
X102058897Y-107355314D02*
X102011278Y-107260076D01*
X102011278Y-107260076D02*
X101916040Y-107164838D01*
X101916040Y-107164838D02*
X101773183Y-107117219D01*
X101773183Y-107117219D02*
X101677945Y-107117219D01*
X101677945Y-107117219D02*
X101535088Y-107164838D01*
X101535088Y-107164838D02*
X101487469Y-107212457D01*
X100773183Y-107117219D02*
X100773183Y-107831504D01*
X100773183Y-107831504D02*
X100820802Y-107974361D01*
X100820802Y-107974361D02*
X100916040Y-108069600D01*
X100916040Y-108069600D02*
X101058897Y-108117219D01*
X101058897Y-108117219D02*
X101154135Y-108117219D01*
X99820802Y-108117219D02*
X100296992Y-108117219D01*
X100296992Y-108117219D02*
X100296992Y-107117219D01*
X98916040Y-108021980D02*
X98963659Y-108069600D01*
X98963659Y-108069600D02*
X99106516Y-108117219D01*
X99106516Y-108117219D02*
X99201754Y-108117219D01*
X99201754Y-108117219D02*
X99344611Y-108069600D01*
X99344611Y-108069600D02*
X99439849Y-107974361D01*
X99439849Y-107974361D02*
X99487468Y-107879123D01*
X99487468Y-107879123D02*
X99535087Y-107688647D01*
X99535087Y-107688647D02*
X99535087Y-107545790D01*
X99535087Y-107545790D02*
X99487468Y-107355314D01*
X99487468Y-107355314D02*
X99439849Y-107260076D01*
X99439849Y-107260076D02*
X99344611Y-107164838D01*
X99344611Y-107164838D02*
X99201754Y-107117219D01*
X99201754Y-107117219D02*
X99106516Y-107117219D01*
X99106516Y-107117219D02*
X98963659Y-107164838D01*
X98963659Y-107164838D02*
X98916040Y-107212457D01*
X98201754Y-107117219D02*
X98201754Y-107831504D01*
X98201754Y-107831504D02*
X98249373Y-107974361D01*
X98249373Y-107974361D02*
X98344611Y-108069600D01*
X98344611Y-108069600D02*
X98487468Y-108117219D01*
X98487468Y-108117219D02*
X98582706Y-108117219D01*
X97249373Y-108117219D02*
X97725563Y-108117219D01*
X97725563Y-108117219D02*
X97725563Y-107117219D01*
X96344611Y-108021980D02*
X96392230Y-108069600D01*
X96392230Y-108069600D02*
X96535087Y-108117219D01*
X96535087Y-108117219D02*
X96630325Y-108117219D01*
X96630325Y-108117219D02*
X96773182Y-108069600D01*
X96773182Y-108069600D02*
X96868420Y-107974361D01*
X96868420Y-107974361D02*
X96916039Y-107879123D01*
X96916039Y-107879123D02*
X96963658Y-107688647D01*
X96963658Y-107688647D02*
X96963658Y-107545790D01*
X96963658Y-107545790D02*
X96916039Y-107355314D01*
X96916039Y-107355314D02*
X96868420Y-107260076D01*
X96868420Y-107260076D02*
X96773182Y-107164838D01*
X96773182Y-107164838D02*
X96630325Y-107117219D01*
X96630325Y-107117219D02*
X96535087Y-107117219D01*
X96535087Y-107117219D02*
X96392230Y-107164838D01*
X96392230Y-107164838D02*
X96344611Y-107212457D01*
X95630325Y-107117219D02*
X95630325Y-107831504D01*
X95630325Y-107831504D02*
X95677944Y-107974361D01*
X95677944Y-107974361D02*
X95773182Y-108069600D01*
X95773182Y-108069600D02*
X95916039Y-108117219D01*
X95916039Y-108117219D02*
X96011277Y-108117219D01*
X94677944Y-108117219D02*
X95154134Y-108117219D01*
X95154134Y-108117219D02*
X95154134Y-107117219D01*
X93773182Y-108021980D02*
X93820801Y-108069600D01*
X93820801Y-108069600D02*
X93963658Y-108117219D01*
X93963658Y-108117219D02*
X94058896Y-108117219D01*
X94058896Y-108117219D02*
X94201753Y-108069600D01*
X94201753Y-108069600D02*
X94296991Y-107974361D01*
X94296991Y-107974361D02*
X94344610Y-107879123D01*
X94344610Y-107879123D02*
X94392229Y-107688647D01*
X94392229Y-107688647D02*
X94392229Y-107545790D01*
X94392229Y-107545790D02*
X94344610Y-107355314D01*
X94344610Y-107355314D02*
X94296991Y-107260076D01*
X94296991Y-107260076D02*
X94201753Y-107164838D01*
X94201753Y-107164838D02*
X94058896Y-107117219D01*
X94058896Y-107117219D02*
X93963658Y-107117219D01*
X93963658Y-107117219D02*
X93820801Y-107164838D01*
X93820801Y-107164838D02*
X93773182Y-107212457D01*
D11*
X118100990Y-77646741D02*
X118053371Y-77551503D01*
X118053371Y-77551503D02*
X118005752Y-77503884D01*
X118005752Y-77503884D02*
X117910514Y-77456265D01*
X117910514Y-77456265D02*
X117862895Y-77456265D01*
X117862895Y-77456265D02*
X117767657Y-77503884D01*
X117767657Y-77503884D02*
X117720038Y-77551503D01*
X117720038Y-77551503D02*
X117672419Y-77646741D01*
X117672419Y-77646741D02*
X117672419Y-77837217D01*
X117672419Y-77837217D02*
X117720038Y-77932455D01*
X117720038Y-77932455D02*
X117767657Y-77980074D01*
X117767657Y-77980074D02*
X117862895Y-78027693D01*
X117862895Y-78027693D02*
X117910514Y-78027693D01*
X117910514Y-78027693D02*
X118005752Y-77980074D01*
X118005752Y-77980074D02*
X118053371Y-77932455D01*
X118053371Y-77932455D02*
X118100990Y-77837217D01*
X118100990Y-77837217D02*
X118100990Y-77646741D01*
X118100990Y-77646741D02*
X118148609Y-77551503D01*
X118148609Y-77551503D02*
X118196228Y-77503884D01*
X118196228Y-77503884D02*
X118291466Y-77456265D01*
X118291466Y-77456265D02*
X118481942Y-77456265D01*
X118481942Y-77456265D02*
X118577180Y-77503884D01*
X118577180Y-77503884D02*
X118624800Y-77551503D01*
X118624800Y-77551503D02*
X118672419Y-77646741D01*
X118672419Y-77646741D02*
X118672419Y-77837217D01*
X118672419Y-77837217D02*
X118624800Y-77932455D01*
X118624800Y-77932455D02*
X118577180Y-77980074D01*
X118577180Y-77980074D02*
X118481942Y-78027693D01*
X118481942Y-78027693D02*
X118291466Y-78027693D01*
X118291466Y-78027693D02*
X118196228Y-77980074D01*
X118196228Y-77980074D02*
X118148609Y-77932455D01*
X118148609Y-77932455D02*
X118100990Y-77837217D01*
D12*
X131550867Y-124866763D02*
X131921256Y-124496374D01*
X131921256Y-124496374D02*
X132022271Y-124462702D01*
X132022271Y-124462702D02*
X132123286Y-124496374D01*
X132123286Y-124496374D02*
X132257973Y-124631061D01*
X132257973Y-124631061D02*
X132291645Y-124732076D01*
X131584538Y-124833091D02*
X131618210Y-124934107D01*
X131618210Y-124934107D02*
X131786569Y-125102465D01*
X131786569Y-125102465D02*
X131887584Y-125136137D01*
X131887584Y-125136137D02*
X131988599Y-125102465D01*
X131988599Y-125102465D02*
X132055943Y-125035122D01*
X132055943Y-125035122D02*
X132089615Y-124934107D01*
X132089615Y-124934107D02*
X132055943Y-124833091D01*
X132055943Y-124833091D02*
X131887584Y-124664733D01*
X131887584Y-124664733D02*
X131853912Y-124563717D01*
X131382508Y-123755595D02*
X130911103Y-124227000D01*
X131685554Y-124058641D02*
X131315164Y-124429030D01*
X131315164Y-124429030D02*
X131214149Y-124462702D01*
X131214149Y-124462702D02*
X131113134Y-124429030D01*
X131113134Y-124429030D02*
X131012119Y-124328015D01*
X131012119Y-124328015D02*
X130978447Y-124227000D01*
X130978447Y-124227000D02*
X130978447Y-124159656D01*
X130271340Y-123587236D02*
X130978447Y-122880130D01*
X130305012Y-123553565D02*
X130338683Y-123654580D01*
X130338683Y-123654580D02*
X130473371Y-123789267D01*
X130473371Y-123789267D02*
X130574386Y-123822939D01*
X130574386Y-123822939D02*
X130641729Y-123822939D01*
X130641729Y-123822939D02*
X130742745Y-123789267D01*
X130742745Y-123789267D02*
X130944775Y-123587236D01*
X130944775Y-123587236D02*
X130978447Y-123486221D01*
X130978447Y-123486221D02*
X130978447Y-123418878D01*
X130978447Y-123418878D02*
X130944775Y-123317862D01*
X130944775Y-123317862D02*
X130810088Y-123183175D01*
X130810088Y-123183175D02*
X130709073Y-123149504D01*
X129934622Y-123250519D02*
X130406027Y-122779114D01*
X130641729Y-122543412D02*
X130641729Y-122610755D01*
X130641729Y-122610755D02*
X130574386Y-122610755D01*
X130574386Y-122610755D02*
X130574386Y-122543412D01*
X130574386Y-122543412D02*
X130641729Y-122543412D01*
X130641729Y-122543412D02*
X130574386Y-122610755D01*
X129530562Y-121903649D02*
X129059157Y-122375053D01*
X129463218Y-121970992D02*
X129463218Y-121903649D01*
X129463218Y-121903649D02*
X129429546Y-121802634D01*
X129429546Y-121802634D02*
X129328531Y-121701618D01*
X129328531Y-121701618D02*
X129227516Y-121667947D01*
X129227516Y-121667947D02*
X129126501Y-121701618D01*
X129126501Y-121701618D02*
X128756111Y-122072008D01*
X128318378Y-121634275D02*
X128419394Y-121667947D01*
X128419394Y-121667947D02*
X128486737Y-121667947D01*
X128486737Y-121667947D02*
X128587752Y-121634275D01*
X128587752Y-121634275D02*
X128789783Y-121432244D01*
X128789783Y-121432244D02*
X128823455Y-121331229D01*
X128823455Y-121331229D02*
X128823455Y-121263886D01*
X128823455Y-121263886D02*
X128789783Y-121162870D01*
X128789783Y-121162870D02*
X128688768Y-121061855D01*
X128688768Y-121061855D02*
X128587752Y-121028183D01*
X128587752Y-121028183D02*
X128520409Y-121028183D01*
X128520409Y-121028183D02*
X128419394Y-121061855D01*
X128419394Y-121061855D02*
X128217363Y-121263886D01*
X128217363Y-121263886D02*
X128183691Y-121364901D01*
X128183691Y-121364901D02*
X128183691Y-121432244D01*
X128183691Y-121432244D02*
X128217363Y-121533260D01*
X128217363Y-121533260D02*
X128318378Y-121634275D01*
X127678615Y-120994511D02*
X127779630Y-121028183D01*
X127779630Y-121028183D02*
X127846974Y-121028183D01*
X127846974Y-121028183D02*
X127947989Y-120994511D01*
X127947989Y-120994511D02*
X128150020Y-120792481D01*
X128150020Y-120792481D02*
X128183691Y-120691466D01*
X128183691Y-120691466D02*
X128183691Y-120624122D01*
X128183691Y-120624122D02*
X128150020Y-120523107D01*
X128150020Y-120523107D02*
X128049004Y-120422092D01*
X128049004Y-120422092D02*
X127947989Y-120388420D01*
X127947989Y-120388420D02*
X127880646Y-120388420D01*
X127880646Y-120388420D02*
X127779630Y-120422092D01*
X127779630Y-120422092D02*
X127577600Y-120624122D01*
X127577600Y-120624122D02*
X127543928Y-120725137D01*
X127543928Y-120725137D02*
X127543928Y-120792481D01*
X127543928Y-120792481D02*
X127577600Y-120893496D01*
X127577600Y-120893496D02*
X127678615Y-120994511D01*
X127139867Y-120455763D02*
X127846974Y-119748657D01*
X127577600Y-120018031D02*
X127543928Y-119917015D01*
X127543928Y-119917015D02*
X127409241Y-119782328D01*
X127409241Y-119782328D02*
X127308226Y-119748657D01*
X127308226Y-119748657D02*
X127240882Y-119748657D01*
X127240882Y-119748657D02*
X127139867Y-119782328D01*
X127139867Y-119782328D02*
X126937836Y-119984359D01*
X126937836Y-119984359D02*
X126904165Y-120085374D01*
X126904165Y-120085374D02*
X126904165Y-120152718D01*
X126904165Y-120152718D02*
X126937836Y-120253733D01*
X126937836Y-120253733D02*
X127072524Y-120388420D01*
X127072524Y-120388420D02*
X127173539Y-120422092D01*
X132254651Y-53480689D02*
X132254651Y-53548033D01*
X132254651Y-53548033D02*
X132321995Y-53682720D01*
X132321995Y-53682720D02*
X132389338Y-53750063D01*
X132389338Y-53750063D02*
X132524025Y-53817407D01*
X132524025Y-53817407D02*
X132658712Y-53817407D01*
X132658712Y-53817407D02*
X132759727Y-53783735D01*
X132759727Y-53783735D02*
X132928086Y-53682720D01*
X132928086Y-53682720D02*
X133029101Y-53581705D01*
X133029101Y-53581705D02*
X133130117Y-53413346D01*
X133130117Y-53413346D02*
X133163788Y-53312331D01*
X133163788Y-53312331D02*
X133163788Y-53177644D01*
X133163788Y-53177644D02*
X133096445Y-53042957D01*
X133096445Y-53042957D02*
X133029101Y-52975613D01*
X133029101Y-52975613D02*
X132894414Y-52908270D01*
X132894414Y-52908270D02*
X132827071Y-52908270D01*
X132557697Y-52638896D02*
X132557697Y-52571552D01*
X132557697Y-52571552D02*
X132524025Y-52470537D01*
X132524025Y-52470537D02*
X132355666Y-52302178D01*
X132355666Y-52302178D02*
X132254651Y-52268506D01*
X132254651Y-52268506D02*
X132187308Y-52268506D01*
X132187308Y-52268506D02*
X132086292Y-52302178D01*
X132086292Y-52302178D02*
X132018949Y-52369522D01*
X132018949Y-52369522D02*
X131951605Y-52504209D01*
X131951605Y-52504209D02*
X131951605Y-53312331D01*
X131951605Y-53312331D02*
X131513873Y-52874598D01*
X131783246Y-51729758D02*
X131715903Y-51662415D01*
X131715903Y-51662415D02*
X131614888Y-51628743D01*
X131614888Y-51628743D02*
X131547544Y-51628743D01*
X131547544Y-51628743D02*
X131446529Y-51662415D01*
X131446529Y-51662415D02*
X131278170Y-51763430D01*
X131278170Y-51763430D02*
X131109811Y-51931789D01*
X131109811Y-51931789D02*
X131008796Y-52100147D01*
X131008796Y-52100147D02*
X130975124Y-52201163D01*
X130975124Y-52201163D02*
X130975124Y-52268506D01*
X130975124Y-52268506D02*
X131008796Y-52369521D01*
X131008796Y-52369521D02*
X131076140Y-52436865D01*
X131076140Y-52436865D02*
X131177155Y-52470537D01*
X131177155Y-52470537D02*
X131244498Y-52470537D01*
X131244498Y-52470537D02*
X131345514Y-52436865D01*
X131345514Y-52436865D02*
X131513872Y-52335850D01*
X131513872Y-52335850D02*
X131682231Y-52167491D01*
X131682231Y-52167491D02*
X131783246Y-51999132D01*
X131783246Y-51999132D02*
X131816918Y-51898117D01*
X131816918Y-51898117D02*
X131816918Y-51830773D01*
X131816918Y-51830773D02*
X131783246Y-51729758D01*
D11*
X115083333Y-67207419D02*
X115083333Y-67921704D01*
X115083333Y-67921704D02*
X115130952Y-68064561D01*
X115130952Y-68064561D02*
X115226190Y-68159800D01*
X115226190Y-68159800D02*
X115369047Y-68207419D01*
X115369047Y-68207419D02*
X115464285Y-68207419D01*
X114178571Y-67540752D02*
X114178571Y-68207419D01*
X114416666Y-67159800D02*
X114654761Y-67874085D01*
X114654761Y-67874085D02*
X114035714Y-67874085D01*
X111172419Y-70527693D02*
X111172419Y-69956265D01*
X111172419Y-70241979D02*
X110172419Y-70241979D01*
X110172419Y-70241979D02*
X110315276Y-70146741D01*
X110315276Y-70146741D02*
X110410514Y-70051503D01*
X110410514Y-70051503D02*
X110458133Y-69956265D01*
X117672419Y-72932455D02*
X117672419Y-72741979D01*
X117672419Y-72741979D02*
X117720038Y-72646741D01*
X117720038Y-72646741D02*
X117767657Y-72599122D01*
X117767657Y-72599122D02*
X117910514Y-72503884D01*
X117910514Y-72503884D02*
X118100990Y-72456265D01*
X118100990Y-72456265D02*
X118481942Y-72456265D01*
X118481942Y-72456265D02*
X118577180Y-72503884D01*
X118577180Y-72503884D02*
X118624800Y-72551503D01*
X118624800Y-72551503D02*
X118672419Y-72646741D01*
X118672419Y-72646741D02*
X118672419Y-72837217D01*
X118672419Y-72837217D02*
X118624800Y-72932455D01*
X118624800Y-72932455D02*
X118577180Y-72980074D01*
X118577180Y-72980074D02*
X118481942Y-73027693D01*
X118481942Y-73027693D02*
X118243847Y-73027693D01*
X118243847Y-73027693D02*
X118148609Y-72980074D01*
X118148609Y-72980074D02*
X118100990Y-72932455D01*
X118100990Y-72932455D02*
X118053371Y-72837217D01*
X118053371Y-72837217D02*
X118053371Y-72646741D01*
X118053371Y-72646741D02*
X118100990Y-72551503D01*
X118100990Y-72551503D02*
X118148609Y-72503884D01*
X118148609Y-72503884D02*
X118243847Y-72456265D01*
X117672419Y-74908646D02*
X117672419Y-75575312D01*
X117672419Y-75575312D02*
X118672419Y-75146741D01*
X117672419Y-70480074D02*
X117672419Y-70003884D01*
X117672419Y-70003884D02*
X118148609Y-69956265D01*
X118148609Y-69956265D02*
X118100990Y-70003884D01*
X118100990Y-70003884D02*
X118053371Y-70099122D01*
X118053371Y-70099122D02*
X118053371Y-70337217D01*
X118053371Y-70337217D02*
X118100990Y-70432455D01*
X118100990Y-70432455D02*
X118148609Y-70480074D01*
X118148609Y-70480074D02*
X118243847Y-70527693D01*
X118243847Y-70527693D02*
X118481942Y-70527693D01*
X118481942Y-70527693D02*
X118577180Y-70480074D01*
X118577180Y-70480074D02*
X118624800Y-70432455D01*
X118624800Y-70432455D02*
X118672419Y-70337217D01*
X118672419Y-70337217D02*
X118672419Y-70099122D01*
X118672419Y-70099122D02*
X118624800Y-70003884D01*
X118624800Y-70003884D02*
X118577180Y-69956265D01*
X110505752Y-77932455D02*
X111172419Y-77932455D01*
X110124800Y-77694360D02*
X110839085Y-77456265D01*
X110839085Y-77456265D02*
X110839085Y-78075312D01*
X110172419Y-74908646D02*
X110172419Y-75527693D01*
X110172419Y-75527693D02*
X110553371Y-75194360D01*
X110553371Y-75194360D02*
X110553371Y-75337217D01*
X110553371Y-75337217D02*
X110600990Y-75432455D01*
X110600990Y-75432455D02*
X110648609Y-75480074D01*
X110648609Y-75480074D02*
X110743847Y-75527693D01*
X110743847Y-75527693D02*
X110981942Y-75527693D01*
X110981942Y-75527693D02*
X111077180Y-75480074D01*
X111077180Y-75480074D02*
X111124800Y-75432455D01*
X111124800Y-75432455D02*
X111172419Y-75337217D01*
X111172419Y-75337217D02*
X111172419Y-75051503D01*
X111172419Y-75051503D02*
X111124800Y-74956265D01*
X111124800Y-74956265D02*
X111077180Y-74908646D01*
X110267657Y-72456265D02*
X110220038Y-72503884D01*
X110220038Y-72503884D02*
X110172419Y-72599122D01*
X110172419Y-72599122D02*
X110172419Y-72837217D01*
X110172419Y-72837217D02*
X110220038Y-72932455D01*
X110220038Y-72932455D02*
X110267657Y-72980074D01*
X110267657Y-72980074D02*
X110362895Y-73027693D01*
X110362895Y-73027693D02*
X110458133Y-73027693D01*
X110458133Y-73027693D02*
X110600990Y-72980074D01*
X110600990Y-72980074D02*
X111172419Y-72408646D01*
X111172419Y-72408646D02*
X111172419Y-73027693D01*
D12*
X67578752Y-52745079D02*
X67646096Y-52745079D01*
X67646096Y-52745079D02*
X67780783Y-52677735D01*
X67780783Y-52677735D02*
X67848126Y-52610392D01*
X67848126Y-52610392D02*
X67915470Y-52475705D01*
X67915470Y-52475705D02*
X67915470Y-52341018D01*
X67915470Y-52341018D02*
X67881798Y-52240003D01*
X67881798Y-52240003D02*
X67780783Y-52071644D01*
X67780783Y-52071644D02*
X67679768Y-51970629D01*
X67679768Y-51970629D02*
X67511409Y-51869613D01*
X67511409Y-51869613D02*
X67410394Y-51835942D01*
X67410394Y-51835942D02*
X67275707Y-51835942D01*
X67275707Y-51835942D02*
X67141020Y-51903285D01*
X67141020Y-51903285D02*
X67073676Y-51970629D01*
X67073676Y-51970629D02*
X67006333Y-52105316D01*
X67006333Y-52105316D02*
X67006333Y-52172659D01*
X66972661Y-53485857D02*
X67376722Y-53081796D01*
X67174691Y-53283827D02*
X66467585Y-52576720D01*
X66467585Y-52576720D02*
X66635943Y-52610392D01*
X66635943Y-52610392D02*
X66770630Y-52610392D01*
X66770630Y-52610392D02*
X66871646Y-52576720D01*
X137257731Y-120963907D02*
X136550624Y-120256801D01*
X136550624Y-120256801D02*
X136382265Y-120425159D01*
X136382265Y-120425159D02*
X136314922Y-120559846D01*
X136314922Y-120559846D02*
X136314922Y-120694533D01*
X136314922Y-120694533D02*
X136348594Y-120795549D01*
X136348594Y-120795549D02*
X136449609Y-120963907D01*
X136449609Y-120963907D02*
X136550624Y-121064923D01*
X136550624Y-121064923D02*
X136718983Y-121165938D01*
X136718983Y-121165938D02*
X136819998Y-121199610D01*
X136819998Y-121199610D02*
X136954685Y-121199610D01*
X136954685Y-121199610D02*
X137089372Y-121132266D01*
X137089372Y-121132266D02*
X137257731Y-120963907D01*
X135910861Y-120896564D02*
X135473128Y-121334297D01*
X135473128Y-121334297D02*
X135978204Y-121367968D01*
X135978204Y-121367968D02*
X135877189Y-121468984D01*
X135877189Y-121468984D02*
X135843517Y-121569999D01*
X135843517Y-121569999D02*
X135843517Y-121637342D01*
X135843517Y-121637342D02*
X135877189Y-121738358D01*
X135877189Y-121738358D02*
X136045548Y-121906716D01*
X136045548Y-121906716D02*
X136146563Y-121940388D01*
X136146563Y-121940388D02*
X136213907Y-121940388D01*
X136213907Y-121940388D02*
X136314922Y-121906716D01*
X136314922Y-121906716D02*
X136516952Y-121704686D01*
X136516952Y-121704686D02*
X136550624Y-121603671D01*
X136550624Y-121603671D02*
X136550624Y-121536327D01*
X136578609Y-49171209D02*
X137285715Y-48464102D01*
X137285715Y-48464102D02*
X137117357Y-48295743D01*
X137117357Y-48295743D02*
X136982670Y-48228400D01*
X136982670Y-48228400D02*
X136847983Y-48228400D01*
X136847983Y-48228400D02*
X136746967Y-48262072D01*
X136746967Y-48262072D02*
X136578609Y-48363087D01*
X136578609Y-48363087D02*
X136477593Y-48464102D01*
X136477593Y-48464102D02*
X136376578Y-48632461D01*
X136376578Y-48632461D02*
X136342906Y-48733476D01*
X136342906Y-48733476D02*
X136342906Y-48868163D01*
X136342906Y-48868163D02*
X136410250Y-49002850D01*
X136410250Y-49002850D02*
X136578609Y-49171209D01*
X136544937Y-47858011D02*
X136544937Y-47790667D01*
X136544937Y-47790667D02*
X136511265Y-47689652D01*
X136511265Y-47689652D02*
X136342906Y-47521293D01*
X136342906Y-47521293D02*
X136241891Y-47487621D01*
X136241891Y-47487621D02*
X136174548Y-47487621D01*
X136174548Y-47487621D02*
X136073532Y-47521293D01*
X136073532Y-47521293D02*
X136006189Y-47588637D01*
X136006189Y-47588637D02*
X135938845Y-47723324D01*
X135938845Y-47723324D02*
X135938845Y-48531446D01*
X135938845Y-48531446D02*
X135501113Y-48093713D01*
X132855654Y-116816725D02*
X132922998Y-116816725D01*
X132922998Y-116816725D02*
X133057685Y-116749381D01*
X133057685Y-116749381D02*
X133125028Y-116682038D01*
X133125028Y-116682038D02*
X133192372Y-116547351D01*
X133192372Y-116547351D02*
X133192372Y-116412664D01*
X133192372Y-116412664D02*
X133158700Y-116311649D01*
X133158700Y-116311649D02*
X133057685Y-116143290D01*
X133057685Y-116143290D02*
X132956670Y-116042275D01*
X132956670Y-116042275D02*
X132788311Y-115941259D01*
X132788311Y-115941259D02*
X132687296Y-115907588D01*
X132687296Y-115907588D02*
X132552609Y-115907588D01*
X132552609Y-115907588D02*
X132417922Y-115974931D01*
X132417922Y-115974931D02*
X132350578Y-116042275D01*
X132350578Y-116042275D02*
X132283235Y-116176962D01*
X132283235Y-116176962D02*
X132283235Y-116244305D01*
X132249563Y-117557503D02*
X132653624Y-117153442D01*
X132451593Y-117355473D02*
X131744487Y-116648366D01*
X131744487Y-116648366D02*
X131912845Y-116682038D01*
X131912845Y-116682038D02*
X132047532Y-116682038D01*
X132047532Y-116682038D02*
X132148548Y-116648366D01*
X131912845Y-117894221D02*
X131778158Y-118028908D01*
X131778158Y-118028908D02*
X131677143Y-118062580D01*
X131677143Y-118062580D02*
X131609799Y-118062580D01*
X131609799Y-118062580D02*
X131441441Y-118028908D01*
X131441441Y-118028908D02*
X131273082Y-117927893D01*
X131273082Y-117927893D02*
X131003708Y-117658519D01*
X131003708Y-117658519D02*
X130970036Y-117557504D01*
X130970036Y-117557504D02*
X130970036Y-117490160D01*
X130970036Y-117490160D02*
X131003708Y-117389145D01*
X131003708Y-117389145D02*
X131138395Y-117254458D01*
X131138395Y-117254458D02*
X131239410Y-117220786D01*
X131239410Y-117220786D02*
X131306754Y-117220786D01*
X131306754Y-117220786D02*
X131407769Y-117254458D01*
X131407769Y-117254458D02*
X131576128Y-117422817D01*
X131576128Y-117422817D02*
X131609799Y-117523832D01*
X131609799Y-117523832D02*
X131609799Y-117591175D01*
X131609799Y-117591175D02*
X131576128Y-117692191D01*
X131576128Y-117692191D02*
X131441441Y-117826878D01*
X131441441Y-117826878D02*
X131340425Y-117860549D01*
X131340425Y-117860549D02*
X131273082Y-117860549D01*
X131273082Y-117860549D02*
X131172067Y-117826878D01*
X63989596Y-48358407D02*
X63282489Y-47651301D01*
X63282489Y-47651301D02*
X63114130Y-47819659D01*
X63114130Y-47819659D02*
X63046787Y-47954346D01*
X63046787Y-47954346D02*
X63046787Y-48089033D01*
X63046787Y-48089033D02*
X63080459Y-48190049D01*
X63080459Y-48190049D02*
X63181474Y-48358407D01*
X63181474Y-48358407D02*
X63282489Y-48459423D01*
X63282489Y-48459423D02*
X63450848Y-48560438D01*
X63450848Y-48560438D02*
X63551863Y-48594110D01*
X63551863Y-48594110D02*
X63686550Y-48594110D01*
X63686550Y-48594110D02*
X63821237Y-48526766D01*
X63821237Y-48526766D02*
X63989596Y-48358407D01*
X62238665Y-48695125D02*
X62575382Y-48358407D01*
X62575382Y-48358407D02*
X62945772Y-48661453D01*
X62945772Y-48661453D02*
X62878428Y-48661453D01*
X62878428Y-48661453D02*
X62777413Y-48695125D01*
X62777413Y-48695125D02*
X62609054Y-48863484D01*
X62609054Y-48863484D02*
X62575382Y-48964499D01*
X62575382Y-48964499D02*
X62575382Y-49031842D01*
X62575382Y-49031842D02*
X62609054Y-49132858D01*
X62609054Y-49132858D02*
X62777413Y-49301216D01*
X62777413Y-49301216D02*
X62878428Y-49334888D01*
X62878428Y-49334888D02*
X62945772Y-49334888D01*
X62945772Y-49334888D02*
X63046787Y-49301216D01*
X63046787Y-49301216D02*
X63215146Y-49132858D01*
X63215146Y-49132858D02*
X63248817Y-49031842D01*
X63248817Y-49031842D02*
X63248817Y-48964499D01*
D13*
X121715959Y-101181993D02*
X121715959Y-99681993D01*
X121715959Y-100253422D02*
X121573102Y-100181993D01*
X121573102Y-100181993D02*
X121287387Y-100181993D01*
X121287387Y-100181993D02*
X121144530Y-100253422D01*
X121144530Y-100253422D02*
X121073102Y-100324850D01*
X121073102Y-100324850D02*
X121001673Y-100467707D01*
X121001673Y-100467707D02*
X121001673Y-100896279D01*
X121001673Y-100896279D02*
X121073102Y-101039136D01*
X121073102Y-101039136D02*
X121144530Y-101110565D01*
X121144530Y-101110565D02*
X121287387Y-101181993D01*
X121287387Y-101181993D02*
X121573102Y-101181993D01*
X121573102Y-101181993D02*
X121715959Y-101110565D01*
X119715959Y-100181993D02*
X119715959Y-101181993D01*
X120358816Y-100181993D02*
X120358816Y-100967707D01*
X120358816Y-100967707D02*
X120287387Y-101110565D01*
X120287387Y-101110565D02*
X120144530Y-101181993D01*
X120144530Y-101181993D02*
X119930244Y-101181993D01*
X119930244Y-101181993D02*
X119787387Y-101110565D01*
X119787387Y-101110565D02*
X119715959Y-101039136D01*
X119215958Y-100181993D02*
X118644530Y-100181993D01*
X119001673Y-99681993D02*
X119001673Y-100967707D01*
X119001673Y-100967707D02*
X118930244Y-101110565D01*
X118930244Y-101110565D02*
X118787387Y-101181993D01*
X118787387Y-101181993D02*
X118644530Y-101181993D01*
X117144530Y-100181993D02*
X116858816Y-101181993D01*
X116858816Y-101181993D02*
X116573101Y-100467707D01*
X116573101Y-100467707D02*
X116287387Y-101181993D01*
X116287387Y-101181993D02*
X116001673Y-100181993D01*
X114858815Y-101110565D02*
X115001672Y-101181993D01*
X115001672Y-101181993D02*
X115287387Y-101181993D01*
X115287387Y-101181993D02*
X115430244Y-101110565D01*
X115430244Y-101110565D02*
X115501672Y-100967707D01*
X115501672Y-100967707D02*
X115501672Y-100396279D01*
X115501672Y-100396279D02*
X115430244Y-100253422D01*
X115430244Y-100253422D02*
X115287387Y-100181993D01*
X115287387Y-100181993D02*
X115001672Y-100181993D01*
X115001672Y-100181993D02*
X114858815Y-100253422D01*
X114858815Y-100253422D02*
X114787387Y-100396279D01*
X114787387Y-100396279D02*
X114787387Y-100539136D01*
X114787387Y-100539136D02*
X115501672Y-100681993D01*
X113073101Y-101110565D02*
X112930244Y-101181993D01*
X112930244Y-101181993D02*
X112644530Y-101181993D01*
X112644530Y-101181993D02*
X112501673Y-101110565D01*
X112501673Y-101110565D02*
X112430244Y-100967707D01*
X112430244Y-100967707D02*
X112430244Y-100896279D01*
X112430244Y-100896279D02*
X112501673Y-100753422D01*
X112501673Y-100753422D02*
X112644530Y-100681993D01*
X112644530Y-100681993D02*
X112858816Y-100681993D01*
X112858816Y-100681993D02*
X113001673Y-100610565D01*
X113001673Y-100610565D02*
X113073101Y-100467707D01*
X113073101Y-100467707D02*
X113073101Y-100396279D01*
X113073101Y-100396279D02*
X113001673Y-100253422D01*
X113001673Y-100253422D02*
X112858816Y-100181993D01*
X112858816Y-100181993D02*
X112644530Y-100181993D01*
X112644530Y-100181993D02*
X112501673Y-100253422D01*
X112001672Y-100181993D02*
X111430244Y-100181993D01*
X111787387Y-99681993D02*
X111787387Y-100967707D01*
X111787387Y-100967707D02*
X111715958Y-101110565D01*
X111715958Y-101110565D02*
X111573101Y-101181993D01*
X111573101Y-101181993D02*
X111430244Y-101181993D01*
X110930244Y-101181993D02*
X110930244Y-100181993D01*
X110930244Y-99681993D02*
X111001672Y-99753422D01*
X111001672Y-99753422D02*
X110930244Y-99824850D01*
X110930244Y-99824850D02*
X110858815Y-99753422D01*
X110858815Y-99753422D02*
X110930244Y-99681993D01*
X110930244Y-99681993D02*
X110930244Y-99824850D01*
X110001672Y-101181993D02*
X110144529Y-101110565D01*
X110144529Y-101110565D02*
X110215958Y-100967707D01*
X110215958Y-100967707D02*
X110215958Y-99681993D01*
X109215958Y-101181993D02*
X109358815Y-101110565D01*
X109358815Y-101110565D02*
X109430244Y-100967707D01*
X109430244Y-100967707D02*
X109430244Y-99681993D01*
X107501673Y-101181993D02*
X107501673Y-99681993D01*
X106858816Y-101181993D02*
X106858816Y-100396279D01*
X106858816Y-100396279D02*
X106930244Y-100253422D01*
X106930244Y-100253422D02*
X107073101Y-100181993D01*
X107073101Y-100181993D02*
X107287387Y-100181993D01*
X107287387Y-100181993D02*
X107430244Y-100253422D01*
X107430244Y-100253422D02*
X107501673Y-100324850D01*
X105501673Y-101181993D02*
X105501673Y-100396279D01*
X105501673Y-100396279D02*
X105573101Y-100253422D01*
X105573101Y-100253422D02*
X105715958Y-100181993D01*
X105715958Y-100181993D02*
X106001673Y-100181993D01*
X106001673Y-100181993D02*
X106144530Y-100253422D01*
X105501673Y-101110565D02*
X105644530Y-101181993D01*
X105644530Y-101181993D02*
X106001673Y-101181993D01*
X106001673Y-101181993D02*
X106144530Y-101110565D01*
X106144530Y-101110565D02*
X106215958Y-100967707D01*
X106215958Y-100967707D02*
X106215958Y-100824850D01*
X106215958Y-100824850D02*
X106144530Y-100681993D01*
X106144530Y-100681993D02*
X106001673Y-100610565D01*
X106001673Y-100610565D02*
X105644530Y-100610565D01*
X105644530Y-100610565D02*
X105501673Y-100539136D01*
X104930244Y-100181993D02*
X104573101Y-101181993D01*
X104573101Y-101181993D02*
X104215958Y-100181993D01*
X103073101Y-101110565D02*
X103215958Y-101181993D01*
X103215958Y-101181993D02*
X103501673Y-101181993D01*
X103501673Y-101181993D02*
X103644530Y-101110565D01*
X103644530Y-101110565D02*
X103715958Y-100967707D01*
X103715958Y-100967707D02*
X103715958Y-100396279D01*
X103715958Y-100396279D02*
X103644530Y-100253422D01*
X103644530Y-100253422D02*
X103501673Y-100181993D01*
X103501673Y-100181993D02*
X103215958Y-100181993D01*
X103215958Y-100181993D02*
X103073101Y-100253422D01*
X103073101Y-100253422D02*
X103001673Y-100396279D01*
X103001673Y-100396279D02*
X103001673Y-100539136D01*
X103001673Y-100539136D02*
X103715958Y-100681993D01*
X101215959Y-101181993D02*
X101215959Y-99681993D01*
X100573102Y-101181993D02*
X100573102Y-100396279D01*
X100573102Y-100396279D02*
X100644530Y-100253422D01*
X100644530Y-100253422D02*
X100787387Y-100181993D01*
X100787387Y-100181993D02*
X101001673Y-100181993D01*
X101001673Y-100181993D02*
X101144530Y-100253422D01*
X101144530Y-100253422D02*
X101215959Y-100324850D01*
X99644530Y-101181993D02*
X99787387Y-101110565D01*
X99787387Y-101110565D02*
X99858816Y-101039136D01*
X99858816Y-101039136D02*
X99930244Y-100896279D01*
X99930244Y-100896279D02*
X99930244Y-100467707D01*
X99930244Y-100467707D02*
X99858816Y-100324850D01*
X99858816Y-100324850D02*
X99787387Y-100253422D01*
X99787387Y-100253422D02*
X99644530Y-100181993D01*
X99644530Y-100181993D02*
X99430244Y-100181993D01*
X99430244Y-100181993D02*
X99287387Y-100253422D01*
X99287387Y-100253422D02*
X99215959Y-100324850D01*
X99215959Y-100324850D02*
X99144530Y-100467707D01*
X99144530Y-100467707D02*
X99144530Y-100896279D01*
X99144530Y-100896279D02*
X99215959Y-101039136D01*
X99215959Y-101039136D02*
X99287387Y-101110565D01*
X99287387Y-101110565D02*
X99430244Y-101181993D01*
X99430244Y-101181993D02*
X99644530Y-101181993D01*
X98501673Y-100181993D02*
X98501673Y-101681993D01*
X98501673Y-100253422D02*
X98358816Y-100181993D01*
X98358816Y-100181993D02*
X98073101Y-100181993D01*
X98073101Y-100181993D02*
X97930244Y-100253422D01*
X97930244Y-100253422D02*
X97858816Y-100324850D01*
X97858816Y-100324850D02*
X97787387Y-100467707D01*
X97787387Y-100467707D02*
X97787387Y-100896279D01*
X97787387Y-100896279D02*
X97858816Y-101039136D01*
X97858816Y-101039136D02*
X97930244Y-101110565D01*
X97930244Y-101110565D02*
X98073101Y-101181993D01*
X98073101Y-101181993D02*
X98358816Y-101181993D01*
X98358816Y-101181993D02*
X98501673Y-101110565D01*
X96573101Y-101110565D02*
X96715958Y-101181993D01*
X96715958Y-101181993D02*
X97001673Y-101181993D01*
X97001673Y-101181993D02*
X97144530Y-101110565D01*
X97144530Y-101110565D02*
X97215958Y-100967707D01*
X97215958Y-100967707D02*
X97215958Y-100396279D01*
X97215958Y-100396279D02*
X97144530Y-100253422D01*
X97144530Y-100253422D02*
X97001673Y-100181993D01*
X97001673Y-100181993D02*
X96715958Y-100181993D01*
X96715958Y-100181993D02*
X96573101Y-100253422D01*
X96573101Y-100253422D02*
X96501673Y-100396279D01*
X96501673Y-100396279D02*
X96501673Y-100539136D01*
X96501673Y-100539136D02*
X97215958Y-100681993D01*
X122930244Y-82681993D02*
X122358816Y-82681993D01*
X122715959Y-82181993D02*
X122715959Y-83467707D01*
X122715959Y-83467707D02*
X122644530Y-83610565D01*
X122644530Y-83610565D02*
X122501673Y-83681993D01*
X122501673Y-83681993D02*
X122358816Y-83681993D01*
X121858816Y-83681993D02*
X121858816Y-82181993D01*
X121215959Y-83681993D02*
X121215959Y-82896279D01*
X121215959Y-82896279D02*
X121287387Y-82753422D01*
X121287387Y-82753422D02*
X121430244Y-82681993D01*
X121430244Y-82681993D02*
X121644530Y-82681993D01*
X121644530Y-82681993D02*
X121787387Y-82753422D01*
X121787387Y-82753422D02*
X121858816Y-82824850D01*
X119930244Y-83610565D02*
X120073101Y-83681993D01*
X120073101Y-83681993D02*
X120358816Y-83681993D01*
X120358816Y-83681993D02*
X120501673Y-83610565D01*
X120501673Y-83610565D02*
X120573101Y-83467707D01*
X120573101Y-83467707D02*
X120573101Y-82896279D01*
X120573101Y-82896279D02*
X120501673Y-82753422D01*
X120501673Y-82753422D02*
X120358816Y-82681993D01*
X120358816Y-82681993D02*
X120073101Y-82681993D01*
X120073101Y-82681993D02*
X119930244Y-82753422D01*
X119930244Y-82753422D02*
X119858816Y-82896279D01*
X119858816Y-82896279D02*
X119858816Y-83039136D01*
X119858816Y-83039136D02*
X120573101Y-83181993D01*
X118287387Y-82681993D02*
X117715959Y-82681993D01*
X118073102Y-83681993D02*
X118073102Y-82396279D01*
X118073102Y-82396279D02*
X118001673Y-82253422D01*
X118001673Y-82253422D02*
X117858816Y-82181993D01*
X117858816Y-82181993D02*
X117715959Y-82181993D01*
X116573102Y-82681993D02*
X116573102Y-83681993D01*
X117215959Y-82681993D02*
X117215959Y-83467707D01*
X117215959Y-83467707D02*
X117144530Y-83610565D01*
X117144530Y-83610565D02*
X117001673Y-83681993D01*
X117001673Y-83681993D02*
X116787387Y-83681993D01*
X116787387Y-83681993D02*
X116644530Y-83610565D01*
X116644530Y-83610565D02*
X116573102Y-83539136D01*
X116073101Y-82681993D02*
X115501673Y-82681993D01*
X115858816Y-82181993D02*
X115858816Y-83467707D01*
X115858816Y-83467707D02*
X115787387Y-83610565D01*
X115787387Y-83610565D02*
X115644530Y-83681993D01*
X115644530Y-83681993D02*
X115501673Y-83681993D01*
X114358816Y-82681993D02*
X114358816Y-83681993D01*
X115001673Y-82681993D02*
X115001673Y-83467707D01*
X115001673Y-83467707D02*
X114930244Y-83610565D01*
X114930244Y-83610565D02*
X114787387Y-83681993D01*
X114787387Y-83681993D02*
X114573101Y-83681993D01*
X114573101Y-83681993D02*
X114430244Y-83610565D01*
X114430244Y-83610565D02*
X114358816Y-83539136D01*
X113644530Y-83681993D02*
X113644530Y-82681993D01*
X113644530Y-82967707D02*
X113573101Y-82824850D01*
X113573101Y-82824850D02*
X113501673Y-82753422D01*
X113501673Y-82753422D02*
X113358815Y-82681993D01*
X113358815Y-82681993D02*
X113215958Y-82681993D01*
X112144530Y-83610565D02*
X112287387Y-83681993D01*
X112287387Y-83681993D02*
X112573102Y-83681993D01*
X112573102Y-83681993D02*
X112715959Y-83610565D01*
X112715959Y-83610565D02*
X112787387Y-83467707D01*
X112787387Y-83467707D02*
X112787387Y-82896279D01*
X112787387Y-82896279D02*
X112715959Y-82753422D01*
X112715959Y-82753422D02*
X112573102Y-82681993D01*
X112573102Y-82681993D02*
X112287387Y-82681993D01*
X112287387Y-82681993D02*
X112144530Y-82753422D01*
X112144530Y-82753422D02*
X112073102Y-82896279D01*
X112073102Y-82896279D02*
X112073102Y-83039136D01*
X112073102Y-83039136D02*
X112787387Y-83181993D01*
X110287388Y-83681993D02*
X110287388Y-82681993D01*
X110287388Y-82181993D02*
X110358816Y-82253422D01*
X110358816Y-82253422D02*
X110287388Y-82324850D01*
X110287388Y-82324850D02*
X110215959Y-82253422D01*
X110215959Y-82253422D02*
X110287388Y-82181993D01*
X110287388Y-82181993D02*
X110287388Y-82324850D01*
X109644530Y-83610565D02*
X109501673Y-83681993D01*
X109501673Y-83681993D02*
X109215959Y-83681993D01*
X109215959Y-83681993D02*
X109073102Y-83610565D01*
X109073102Y-83610565D02*
X109001673Y-83467707D01*
X109001673Y-83467707D02*
X109001673Y-83396279D01*
X109001673Y-83396279D02*
X109073102Y-83253422D01*
X109073102Y-83253422D02*
X109215959Y-83181993D01*
X109215959Y-83181993D02*
X109430245Y-83181993D01*
X109430245Y-83181993D02*
X109573102Y-83110565D01*
X109573102Y-83110565D02*
X109644530Y-82967707D01*
X109644530Y-82967707D02*
X109644530Y-82896279D01*
X109644530Y-82896279D02*
X109573102Y-82753422D01*
X109573102Y-82753422D02*
X109430245Y-82681993D01*
X109430245Y-82681993D02*
X109215959Y-82681993D01*
X109215959Y-82681993D02*
X109073102Y-82753422D01*
X106573102Y-82681993D02*
X106573102Y-83681993D01*
X107215959Y-82681993D02*
X107215959Y-83467707D01*
X107215959Y-83467707D02*
X107144530Y-83610565D01*
X107144530Y-83610565D02*
X107001673Y-83681993D01*
X107001673Y-83681993D02*
X106787387Y-83681993D01*
X106787387Y-83681993D02*
X106644530Y-83610565D01*
X106644530Y-83610565D02*
X106573102Y-83539136D01*
X105858816Y-82681993D02*
X105858816Y-83681993D01*
X105858816Y-82824850D02*
X105787387Y-82753422D01*
X105787387Y-82753422D02*
X105644530Y-82681993D01*
X105644530Y-82681993D02*
X105430244Y-82681993D01*
X105430244Y-82681993D02*
X105287387Y-82753422D01*
X105287387Y-82753422D02*
X105215959Y-82896279D01*
X105215959Y-82896279D02*
X105215959Y-83681993D01*
X103858816Y-83610565D02*
X104001673Y-83681993D01*
X104001673Y-83681993D02*
X104287387Y-83681993D01*
X104287387Y-83681993D02*
X104430244Y-83610565D01*
X104430244Y-83610565D02*
X104501673Y-83539136D01*
X104501673Y-83539136D02*
X104573101Y-83396279D01*
X104573101Y-83396279D02*
X104573101Y-82967707D01*
X104573101Y-82967707D02*
X104501673Y-82824850D01*
X104501673Y-82824850D02*
X104430244Y-82753422D01*
X104430244Y-82753422D02*
X104287387Y-82681993D01*
X104287387Y-82681993D02*
X104001673Y-82681993D01*
X104001673Y-82681993D02*
X103858816Y-82753422D01*
X102644530Y-83610565D02*
X102787387Y-83681993D01*
X102787387Y-83681993D02*
X103073102Y-83681993D01*
X103073102Y-83681993D02*
X103215959Y-83610565D01*
X103215959Y-83610565D02*
X103287387Y-83467707D01*
X103287387Y-83467707D02*
X103287387Y-82896279D01*
X103287387Y-82896279D02*
X103215959Y-82753422D01*
X103215959Y-82753422D02*
X103073102Y-82681993D01*
X103073102Y-82681993D02*
X102787387Y-82681993D01*
X102787387Y-82681993D02*
X102644530Y-82753422D01*
X102644530Y-82753422D02*
X102573102Y-82896279D01*
X102573102Y-82896279D02*
X102573102Y-83039136D01*
X102573102Y-83039136D02*
X103287387Y-83181993D01*
X101930245Y-83681993D02*
X101930245Y-82681993D01*
X101930245Y-82967707D02*
X101858816Y-82824850D01*
X101858816Y-82824850D02*
X101787388Y-82753422D01*
X101787388Y-82753422D02*
X101644530Y-82681993D01*
X101644530Y-82681993D02*
X101501673Y-82681993D01*
X101215959Y-82681993D02*
X100644531Y-82681993D01*
X101001674Y-82181993D02*
X101001674Y-83467707D01*
X101001674Y-83467707D02*
X100930245Y-83610565D01*
X100930245Y-83610565D02*
X100787388Y-83681993D01*
X100787388Y-83681993D02*
X100644531Y-83681993D01*
X99501674Y-83681993D02*
X99501674Y-82896279D01*
X99501674Y-82896279D02*
X99573102Y-82753422D01*
X99573102Y-82753422D02*
X99715959Y-82681993D01*
X99715959Y-82681993D02*
X100001674Y-82681993D01*
X100001674Y-82681993D02*
X100144531Y-82753422D01*
X99501674Y-83610565D02*
X99644531Y-83681993D01*
X99644531Y-83681993D02*
X100001674Y-83681993D01*
X100001674Y-83681993D02*
X100144531Y-83610565D01*
X100144531Y-83610565D02*
X100215959Y-83467707D01*
X100215959Y-83467707D02*
X100215959Y-83324850D01*
X100215959Y-83324850D02*
X100144531Y-83181993D01*
X100144531Y-83181993D02*
X100001674Y-83110565D01*
X100001674Y-83110565D02*
X99644531Y-83110565D01*
X99644531Y-83110565D02*
X99501674Y-83039136D01*
X98787388Y-83681993D02*
X98787388Y-82681993D01*
X98787388Y-82181993D02*
X98858816Y-82253422D01*
X98858816Y-82253422D02*
X98787388Y-82324850D01*
X98787388Y-82324850D02*
X98715959Y-82253422D01*
X98715959Y-82253422D02*
X98787388Y-82181993D01*
X98787388Y-82181993D02*
X98787388Y-82324850D01*
X98073102Y-82681993D02*
X98073102Y-83681993D01*
X98073102Y-82824850D02*
X98001673Y-82753422D01*
X98001673Y-82753422D02*
X97858816Y-82681993D01*
X97858816Y-82681993D02*
X97644530Y-82681993D01*
X97644530Y-82681993D02*
X97501673Y-82753422D01*
X97501673Y-82753422D02*
X97430245Y-82896279D01*
X97430245Y-82896279D02*
X97430245Y-83681993D01*
D12*
X67641495Y-117536058D02*
X67641495Y-117603402D01*
X67641495Y-117603402D02*
X67708839Y-117738089D01*
X67708839Y-117738089D02*
X67776182Y-117805432D01*
X67776182Y-117805432D02*
X67910869Y-117872776D01*
X67910869Y-117872776D02*
X68045556Y-117872776D01*
X68045556Y-117872776D02*
X68146571Y-117839104D01*
X68146571Y-117839104D02*
X68314930Y-117738089D01*
X68314930Y-117738089D02*
X68415945Y-117637074D01*
X68415945Y-117637074D02*
X68516961Y-117468715D01*
X68516961Y-117468715D02*
X68550632Y-117367700D01*
X68550632Y-117367700D02*
X68550632Y-117233013D01*
X68550632Y-117233013D02*
X68483289Y-117098326D01*
X68483289Y-117098326D02*
X68415945Y-117030982D01*
X68415945Y-117030982D02*
X68281258Y-116963639D01*
X68281258Y-116963639D02*
X68213915Y-116963639D01*
X67944541Y-116694265D02*
X67944541Y-116626921D01*
X67944541Y-116626921D02*
X67910869Y-116525906D01*
X67910869Y-116525906D02*
X67742510Y-116357547D01*
X67742510Y-116357547D02*
X67641495Y-116323875D01*
X67641495Y-116323875D02*
X67574152Y-116323875D01*
X67574152Y-116323875D02*
X67473136Y-116357547D01*
X67473136Y-116357547D02*
X67405793Y-116424891D01*
X67405793Y-116424891D02*
X67338449Y-116559578D01*
X67338449Y-116559578D02*
X67338449Y-117367700D01*
X67338449Y-117367700D02*
X66900717Y-116929967D01*
X63777998Y-122221820D02*
X64485104Y-121514713D01*
X64485104Y-121514713D02*
X64316746Y-121346354D01*
X64316746Y-121346354D02*
X64182059Y-121279011D01*
X64182059Y-121279011D02*
X64047372Y-121279011D01*
X64047372Y-121279011D02*
X63946356Y-121312683D01*
X63946356Y-121312683D02*
X63777998Y-121413698D01*
X63777998Y-121413698D02*
X63676982Y-121514713D01*
X63676982Y-121514713D02*
X63575967Y-121683072D01*
X63575967Y-121683072D02*
X63542295Y-121784087D01*
X63542295Y-121784087D02*
X63542295Y-121918774D01*
X63542295Y-121918774D02*
X63609639Y-122053461D01*
X63609639Y-122053461D02*
X63777998Y-122221820D01*
X63239250Y-120740263D02*
X62767845Y-121211667D01*
X63676982Y-120639248D02*
X63340265Y-121312683D01*
X63340265Y-121312683D02*
X62902532Y-120874950D01*
D14*
%TO.C,C20*%
X133008529Y-51618864D02*
X133207340Y-51817675D01*
X133729778Y-50897615D02*
X133928589Y-51096426D01*
%TO.C,J4*%
D11*
X117300000Y-79200000D02*
X111800000Y-79200000D01*
X111800000Y-68700000D01*
X117300000Y-68700000D01*
X117300000Y-79200000D01*
X112300000Y-68700000D02*
G75*
G02*
X111800000Y-69200000I-500001J1D01*
G01*
D14*
%TO.C,C1*%
X65685950Y-51286789D02*
X65884761Y-51087978D01*
X66407199Y-52008038D02*
X66606010Y-51809227D01*
%TO.C,D3*%
X134349462Y-121107645D02*
X134809081Y-121567264D01*
X135190919Y-117932736D02*
X133182736Y-119940919D01*
X136817264Y-119559081D02*
X134809081Y-121567264D01*
%TO.C,D2*%
X133146825Y-49550987D02*
X135155008Y-51559170D01*
X134773170Y-47924642D02*
X136781353Y-49932825D01*
X136321734Y-50392444D02*
X136781353Y-49932825D01*
%TO.C,C19*%
X133176075Y-117741406D02*
X132977264Y-117940217D01*
X133897324Y-118462655D02*
X133698513Y-118661466D01*
%TO.C,D5*%
X62743029Y-50163847D02*
X64751212Y-48155664D01*
X64369374Y-51790192D02*
X66377557Y-49782009D01*
X65210831Y-48615283D02*
X64751212Y-48155664D01*
D15*
%TO.C,G\u002A\u002A\u002A*%
G36*
X76779195Y-89498950D02*
G01*
X76736578Y-89541568D01*
X76693960Y-89498950D01*
X76736578Y-89456333D01*
X76779195Y-89498950D01*
G37*
G36*
X78569128Y-93845930D02*
G01*
X78526510Y-93888548D01*
X78483893Y-93845930D01*
X78526510Y-93803313D01*
X78569128Y-93845930D01*
G37*
G36*
X78824833Y-88476132D02*
G01*
X78782215Y-88518749D01*
X78739598Y-88476132D01*
X78782215Y-88433514D01*
X78824833Y-88476132D01*
G37*
G36*
X78824833Y-90521769D02*
G01*
X78782215Y-90564387D01*
X78739598Y-90521769D01*
X78782215Y-90479152D01*
X78824833Y-90521769D01*
G37*
G36*
X79251007Y-90862709D02*
G01*
X79208390Y-90905326D01*
X79165772Y-90862709D01*
X79208390Y-90820091D01*
X79251007Y-90862709D01*
G37*
G36*
X80018121Y-93845930D02*
G01*
X79975504Y-93888548D01*
X79932886Y-93845930D01*
X79975504Y-93803313D01*
X80018121Y-93845930D01*
G37*
G36*
X80103356Y-94868749D02*
G01*
X80060739Y-94911366D01*
X80018121Y-94868749D01*
X80060739Y-94826132D01*
X80103356Y-94868749D01*
G37*
G36*
X80614765Y-88731836D02*
G01*
X80572148Y-88774454D01*
X80529531Y-88731836D01*
X80572148Y-88689219D01*
X80614765Y-88731836D01*
G37*
G36*
X80870470Y-88987541D02*
G01*
X80827853Y-89030158D01*
X80785235Y-88987541D01*
X80827853Y-88944923D01*
X80870470Y-88987541D01*
G37*
G36*
X80870470Y-89498950D02*
G01*
X80827853Y-89541568D01*
X80785235Y-89498950D01*
X80827853Y-89456333D01*
X80870470Y-89498950D01*
G37*
G36*
X81126175Y-94442574D02*
G01*
X81083557Y-94485192D01*
X81040940Y-94442574D01*
X81083557Y-94399957D01*
X81126175Y-94442574D01*
G37*
G36*
X82148994Y-90777474D02*
G01*
X82106376Y-90820091D01*
X82063759Y-90777474D01*
X82106376Y-90734856D01*
X82148994Y-90777474D01*
G37*
G36*
X82148994Y-95635863D02*
G01*
X82106376Y-95678481D01*
X82063759Y-95635863D01*
X82106376Y-95593246D01*
X82148994Y-95635863D01*
G37*
G36*
X83257047Y-90862709D02*
G01*
X83214430Y-90905326D01*
X83171812Y-90862709D01*
X83214430Y-90820091D01*
X83257047Y-90862709D01*
G37*
G36*
X83427517Y-90777474D02*
G01*
X83384900Y-90820091D01*
X83342282Y-90777474D01*
X83384900Y-90734856D01*
X83427517Y-90777474D01*
G37*
G36*
X84194631Y-91544588D02*
G01*
X84152014Y-91587205D01*
X84109396Y-91544588D01*
X84152014Y-91501970D01*
X84194631Y-91544588D01*
G37*
G36*
X84706041Y-91374118D02*
G01*
X84663423Y-91416736D01*
X84620806Y-91374118D01*
X84663423Y-91331501D01*
X84706041Y-91374118D01*
G37*
G36*
X85302685Y-92908346D02*
G01*
X85260067Y-92950964D01*
X85217450Y-92908346D01*
X85260067Y-92865729D01*
X85302685Y-92908346D01*
G37*
G36*
X85984564Y-90180829D02*
G01*
X85941947Y-90223447D01*
X85899329Y-90180829D01*
X85941947Y-90138212D01*
X85984564Y-90180829D01*
G37*
G36*
X86240269Y-91033178D02*
G01*
X86197651Y-91075796D01*
X86155034Y-91033178D01*
X86197651Y-90990561D01*
X86240269Y-91033178D01*
G37*
G36*
X86240269Y-93590225D02*
G01*
X86197651Y-93632843D01*
X86155034Y-93590225D01*
X86197651Y-93547608D01*
X86240269Y-93590225D01*
G37*
G36*
X86495974Y-90521769D02*
G01*
X86453356Y-90564387D01*
X86410739Y-90521769D01*
X86453356Y-90479152D01*
X86495974Y-90521769D01*
G37*
G36*
X87007383Y-90266064D02*
G01*
X86964765Y-90308682D01*
X86922148Y-90266064D01*
X86964765Y-90223447D01*
X87007383Y-90266064D01*
G37*
G36*
X87859732Y-90010360D02*
G01*
X87817114Y-90052977D01*
X87774497Y-90010360D01*
X87817114Y-89967742D01*
X87859732Y-90010360D01*
G37*
G36*
X90842953Y-95124454D02*
G01*
X90800336Y-95167071D01*
X90757718Y-95124454D01*
X90800336Y-95081836D01*
X90842953Y-95124454D01*
G37*
G36*
X91098658Y-92567407D02*
G01*
X91056041Y-92610024D01*
X91013423Y-92567407D01*
X91056041Y-92524789D01*
X91098658Y-92567407D01*
G37*
G36*
X91098658Y-95380158D02*
G01*
X91056041Y-95422776D01*
X91013423Y-95380158D01*
X91056041Y-95337541D01*
X91098658Y-95380158D01*
G37*
G36*
X91524833Y-94953984D02*
G01*
X91482215Y-94996601D01*
X91439598Y-94953984D01*
X91482215Y-94911366D01*
X91524833Y-94953984D01*
G37*
G36*
X92121477Y-89754655D02*
G01*
X92078859Y-89797272D01*
X92036242Y-89754655D01*
X92078859Y-89712038D01*
X92121477Y-89754655D01*
G37*
G36*
X92888591Y-72111031D02*
G01*
X92845974Y-72153648D01*
X92803356Y-72111031D01*
X92845974Y-72068413D01*
X92888591Y-72111031D01*
G37*
G36*
X92888591Y-92823111D02*
G01*
X92845974Y-92865729D01*
X92803356Y-92823111D01*
X92845974Y-92780494D01*
X92888591Y-92823111D01*
G37*
G36*
X93144296Y-93078816D02*
G01*
X93101678Y-93121434D01*
X93059061Y-93078816D01*
X93101678Y-93036199D01*
X93144296Y-93078816D01*
G37*
G36*
X93314765Y-90777474D02*
G01*
X93272148Y-90820091D01*
X93229531Y-90777474D01*
X93272148Y-90734856D01*
X93314765Y-90777474D01*
G37*
G36*
X94934229Y-91033178D02*
G01*
X94891611Y-91075796D01*
X94848994Y-91033178D01*
X94891611Y-90990561D01*
X94934229Y-91033178D01*
G37*
G36*
X94934229Y-93078816D02*
G01*
X94891611Y-93121434D01*
X94848994Y-93078816D01*
X94891611Y-93036199D01*
X94934229Y-93078816D01*
G37*
G36*
X101071141Y-92823111D02*
G01*
X101028524Y-92865729D01*
X100985906Y-92823111D01*
X101028524Y-92780494D01*
X101071141Y-92823111D01*
G37*
G36*
X101497316Y-90777474D02*
G01*
X101454698Y-90820091D01*
X101412081Y-90777474D01*
X101454698Y-90734856D01*
X101497316Y-90777474D01*
G37*
G36*
X103116779Y-91033178D02*
G01*
X103074161Y-91075796D01*
X103031544Y-91033178D01*
X103074161Y-90990561D01*
X103116779Y-91033178D01*
G37*
G36*
X103116779Y-93078816D02*
G01*
X103074161Y-93121434D01*
X103031544Y-93078816D01*
X103074161Y-93036199D01*
X103116779Y-93078816D01*
G37*
G36*
X106696645Y-93590225D02*
G01*
X106654027Y-93632843D01*
X106611410Y-93590225D01*
X106654027Y-93547608D01*
X106696645Y-93590225D01*
G37*
G36*
X109509396Y-89498950D02*
G01*
X109466779Y-89541568D01*
X109424161Y-89498950D01*
X109466779Y-89456333D01*
X109509396Y-89498950D01*
G37*
G36*
X111299329Y-93845930D02*
G01*
X111256712Y-93888548D01*
X111214094Y-93845930D01*
X111256712Y-93803313D01*
X111299329Y-93845930D01*
G37*
G36*
X111555034Y-88476132D02*
G01*
X111512416Y-88518749D01*
X111469799Y-88476132D01*
X111512416Y-88433514D01*
X111555034Y-88476132D01*
G37*
G36*
X111555034Y-90521769D02*
G01*
X111512416Y-90564387D01*
X111469799Y-90521769D01*
X111512416Y-90479152D01*
X111555034Y-90521769D01*
G37*
G36*
X111981208Y-90862709D02*
G01*
X111938591Y-90905326D01*
X111895974Y-90862709D01*
X111938591Y-90820091D01*
X111981208Y-90862709D01*
G37*
G36*
X112748323Y-93845930D02*
G01*
X112705705Y-93888548D01*
X112663088Y-93845930D01*
X112705705Y-93803313D01*
X112748323Y-93845930D01*
G37*
G36*
X112833557Y-94868749D02*
G01*
X112790940Y-94911366D01*
X112748323Y-94868749D01*
X112790940Y-94826132D01*
X112833557Y-94868749D01*
G37*
G36*
X113344967Y-88731836D02*
G01*
X113302349Y-88774454D01*
X113259732Y-88731836D01*
X113302349Y-88689219D01*
X113344967Y-88731836D01*
G37*
G36*
X113600671Y-88987541D02*
G01*
X113558054Y-89030158D01*
X113515437Y-88987541D01*
X113558054Y-88944923D01*
X113600671Y-88987541D01*
G37*
G36*
X113600671Y-89498950D02*
G01*
X113558054Y-89541568D01*
X113515437Y-89498950D01*
X113558054Y-89456333D01*
X113600671Y-89498950D01*
G37*
G36*
X113856376Y-94442574D02*
G01*
X113813759Y-94485192D01*
X113771141Y-94442574D01*
X113813759Y-94399957D01*
X113856376Y-94442574D01*
G37*
G36*
X114879195Y-90777474D02*
G01*
X114836578Y-90820091D01*
X114793960Y-90777474D01*
X114836578Y-90734856D01*
X114879195Y-90777474D01*
G37*
G36*
X114879195Y-95635863D02*
G01*
X114836578Y-95678481D01*
X114793960Y-95635863D01*
X114836578Y-95593246D01*
X114879195Y-95635863D01*
G37*
G36*
X115987249Y-90862709D02*
G01*
X115944631Y-90905326D01*
X115902014Y-90862709D01*
X115944631Y-90820091D01*
X115987249Y-90862709D01*
G37*
G36*
X116157718Y-90777474D02*
G01*
X116115101Y-90820091D01*
X116072484Y-90777474D01*
X116115101Y-90734856D01*
X116157718Y-90777474D01*
G37*
G36*
X116924833Y-91544588D02*
G01*
X116882215Y-91587205D01*
X116839598Y-91544588D01*
X116882215Y-91501970D01*
X116924833Y-91544588D01*
G37*
G36*
X117351007Y-91288883D02*
G01*
X117308390Y-91331501D01*
X117265772Y-91288883D01*
X117308390Y-91246266D01*
X117351007Y-91288883D01*
G37*
G36*
X118203356Y-90010360D02*
G01*
X118160739Y-90052977D01*
X118118121Y-90010360D01*
X118160739Y-89967742D01*
X118203356Y-90010360D01*
G37*
G36*
X119481880Y-91033178D02*
G01*
X119439262Y-91075796D01*
X119396645Y-91033178D01*
X119439262Y-90990561D01*
X119481880Y-91033178D01*
G37*
G36*
X120248994Y-92396937D02*
G01*
X120206376Y-92439554D01*
X120163759Y-92396937D01*
X120206376Y-92354319D01*
X120248994Y-92396937D01*
G37*
G36*
X86467562Y-89740449D02*
G01*
X86480897Y-89766086D01*
X86410739Y-89797272D01*
X86365616Y-89791121D01*
X86353915Y-89740449D01*
X86366408Y-89730248D01*
X86467562Y-89740449D01*
G37*
G36*
X92904573Y-89483343D02*
G01*
X92944025Y-89514023D01*
X92853076Y-89534839D01*
X92766626Y-89528812D01*
X92741206Y-89490072D01*
X92771361Y-89473181D01*
X92904573Y-89483343D01*
G37*
G36*
X77360780Y-93841428D02*
G01*
X77355847Y-93912617D01*
X77247987Y-93973783D01*
X77169604Y-93951380D01*
X77136361Y-93824621D01*
X77189659Y-93716634D01*
X77287022Y-93710506D01*
X77360780Y-93841428D01*
G37*
G36*
X81661546Y-93994163D02*
G01*
X81722819Y-94101635D01*
X81704189Y-94173246D01*
X81590465Y-94214428D01*
X81474313Y-94158703D01*
X81453579Y-94061050D01*
X81573658Y-93990009D01*
X81661546Y-93994163D01*
G37*
G36*
X87588968Y-93841428D02*
G01*
X87584035Y-93912617D01*
X87476175Y-93973783D01*
X87397792Y-93951380D01*
X87364549Y-93824621D01*
X87417847Y-93716634D01*
X87515210Y-93710506D01*
X87588968Y-93841428D01*
G37*
G36*
X89634606Y-91795790D02*
G01*
X89629672Y-91866980D01*
X89521812Y-91928145D01*
X89443430Y-91905742D01*
X89410186Y-91778984D01*
X89463485Y-91670997D01*
X89560848Y-91664868D01*
X89634606Y-91795790D01*
G37*
G36*
X110090982Y-93841428D02*
G01*
X110086048Y-93912617D01*
X109978188Y-93973783D01*
X109899806Y-93951380D01*
X109866562Y-93824621D01*
X109919861Y-93716634D01*
X110017223Y-93710506D01*
X110090982Y-93841428D01*
G37*
G36*
X114391747Y-93994163D02*
G01*
X114453020Y-94101635D01*
X114434390Y-94173246D01*
X114320666Y-94214428D01*
X114204514Y-94158703D01*
X114183781Y-94061050D01*
X114303859Y-93990009D01*
X114391747Y-93994163D01*
G37*
G36*
X75261974Y-89641653D02*
G01*
X75330202Y-89754655D01*
X75315351Y-89814280D01*
X75202349Y-89882507D01*
X75142725Y-89867657D01*
X75074497Y-89754655D01*
X75089348Y-89695030D01*
X75202349Y-89626803D01*
X75261974Y-89641653D01*
G37*
G36*
X77835640Y-87851034D02*
G01*
X77933166Y-87933776D01*
X77913343Y-88038068D01*
X77829505Y-88086803D01*
X77695106Y-88071936D01*
X77631544Y-87964722D01*
X77645754Y-87905208D01*
X77754366Y-87836870D01*
X77835640Y-87851034D01*
G37*
G36*
X78330430Y-87851720D02*
G01*
X78398658Y-87964722D01*
X78383808Y-88024347D01*
X78270806Y-88092574D01*
X78211181Y-88077724D01*
X78142953Y-87964722D01*
X78157804Y-87905097D01*
X78270806Y-87836870D01*
X78330430Y-87851720D01*
G37*
G36*
X78624887Y-90117530D02*
G01*
X78654363Y-90268739D01*
X78629428Y-90405203D01*
X78526510Y-90479152D01*
X78454469Y-90450907D01*
X78398658Y-90317801D01*
X78418709Y-90223626D01*
X78526510Y-90107389D01*
X78624887Y-90117530D01*
G37*
G36*
X79613637Y-91175777D02*
G01*
X79677182Y-91288883D01*
X79646104Y-91362808D01*
X79509387Y-91416736D01*
X79404512Y-91393999D01*
X79390654Y-91288883D01*
X79426866Y-91229784D01*
X79558448Y-91161031D01*
X79613637Y-91175777D01*
G37*
G36*
X80138544Y-94001636D02*
G01*
X80189486Y-94120075D01*
X80134085Y-94255582D01*
X80080772Y-94283539D01*
X79980072Y-94236117D01*
X79932886Y-94096605D01*
X79947678Y-94039432D01*
X80060739Y-93973783D01*
X80138544Y-94001636D01*
G37*
G36*
X80380751Y-87851616D02*
G01*
X80444296Y-87964722D01*
X80413218Y-88038647D01*
X80276501Y-88092574D01*
X80171626Y-88069838D01*
X80157768Y-87964722D01*
X80193980Y-87905623D01*
X80325562Y-87836870D01*
X80380751Y-87851616D01*
G37*
G36*
X81396339Y-94253167D02*
G01*
X81467114Y-94357340D01*
X81453420Y-94416767D01*
X81348381Y-94485192D01*
X81287905Y-94470619D01*
X81180587Y-94357340D01*
X81177211Y-94270782D01*
X81299320Y-94229487D01*
X81396339Y-94253167D01*
G37*
G36*
X82677410Y-95778566D02*
G01*
X82745638Y-95891568D01*
X82730787Y-95951192D01*
X82617786Y-96019420D01*
X82558161Y-96004570D01*
X82489933Y-95891568D01*
X82504784Y-95831943D01*
X82617786Y-95763715D01*
X82677410Y-95778566D01*
G37*
G36*
X84723048Y-91687291D02*
G01*
X84791276Y-91800293D01*
X84776425Y-91859917D01*
X84663423Y-91928145D01*
X84603799Y-91913294D01*
X84535571Y-91800293D01*
X84550421Y-91740668D01*
X84663423Y-91672440D01*
X84723048Y-91687291D01*
G37*
G36*
X87604027Y-80421434D02*
G01*
X87604027Y-80932843D01*
X86964765Y-80932843D01*
X86325504Y-80932843D01*
X86325504Y-80421434D01*
X86325504Y-79910024D01*
X86964765Y-79910024D01*
X87604027Y-79910024D01*
X87604027Y-80421434D01*
G37*
G36*
X87604027Y-86558346D02*
G01*
X87604027Y-86814051D01*
X86964765Y-86814051D01*
X86325504Y-86814051D01*
X86325504Y-86558346D01*
X86325504Y-86302642D01*
X86964765Y-86302642D01*
X87604027Y-86302642D01*
X87604027Y-86558346D01*
G37*
G36*
X87859732Y-85663380D02*
G01*
X87859732Y-86046937D01*
X87220470Y-86046937D01*
X86581208Y-86046937D01*
X86581208Y-85663380D01*
X86581208Y-85279823D01*
X87220470Y-85279823D01*
X87859732Y-85279823D01*
X87859732Y-85663380D01*
G37*
G36*
X86768685Y-93732928D02*
G01*
X86836913Y-93845930D01*
X86822063Y-93905555D01*
X86709061Y-93973783D01*
X86649436Y-93958932D01*
X86581208Y-93845930D01*
X86596059Y-93786306D01*
X86709061Y-93718078D01*
X86768685Y-93732928D01*
G37*
G36*
X88047209Y-89641653D02*
G01*
X88115437Y-89754655D01*
X88100586Y-89814280D01*
X87987584Y-89882507D01*
X87927960Y-89867657D01*
X87859732Y-89754655D01*
X87874582Y-89695030D01*
X87987584Y-89626803D01*
X88047209Y-89641653D01*
G37*
G36*
X90365170Y-93987947D02*
G01*
X90462696Y-94070689D01*
X90442873Y-94174981D01*
X90359035Y-94223716D01*
X90224636Y-94208849D01*
X90161074Y-94101635D01*
X90175284Y-94042121D01*
X90283896Y-93973783D01*
X90365170Y-93987947D01*
G37*
G36*
X90890070Y-94026482D02*
G01*
X90928188Y-94229487D01*
X90901839Y-94408955D01*
X90800336Y-94485192D01*
X90710602Y-94432493D01*
X90672484Y-94229487D01*
X90698833Y-94050019D01*
X90800336Y-93973783D01*
X90890070Y-94026482D01*
G37*
G36*
X92718121Y-85663380D02*
G01*
X92718121Y-86046937D01*
X92078859Y-86046937D01*
X91439598Y-86046937D01*
X91439598Y-85663380D01*
X91439598Y-85279823D01*
X92078859Y-85279823D01*
X92718121Y-85279823D01*
X92718121Y-85663380D01*
G37*
G36*
X91887462Y-95267052D02*
G01*
X91951007Y-95380158D01*
X91919930Y-95454083D01*
X91783212Y-95508011D01*
X91678338Y-95485274D01*
X91664479Y-95380158D01*
X91700691Y-95321059D01*
X91832274Y-95252306D01*
X91887462Y-95267052D01*
G37*
G36*
X92922217Y-91942309D02*
G01*
X93019743Y-92025051D01*
X92999920Y-92129344D01*
X92916082Y-92178078D01*
X92781683Y-92163212D01*
X92718121Y-92055997D01*
X92732331Y-91996483D01*
X92840943Y-91928145D01*
X92922217Y-91942309D01*
G37*
G36*
X93431308Y-89913585D02*
G01*
X93485235Y-90050302D01*
X93462499Y-90155177D01*
X93357383Y-90169035D01*
X93298283Y-90132823D01*
X93229531Y-90001241D01*
X93244276Y-89946052D01*
X93357383Y-89882507D01*
X93431308Y-89913585D01*
G37*
G36*
X93417008Y-92710110D02*
G01*
X93485235Y-92823111D01*
X93470385Y-92882736D01*
X93357383Y-92950964D01*
X93297758Y-92936113D01*
X93229531Y-92823111D01*
X93244381Y-92763487D01*
X93357383Y-92695259D01*
X93417008Y-92710110D01*
G37*
G36*
X93672187Y-90910715D02*
G01*
X93740940Y-91042298D01*
X93726194Y-91097486D01*
X93613088Y-91161031D01*
X93539163Y-91129953D01*
X93485235Y-90993236D01*
X93507972Y-90888361D01*
X93613088Y-90874503D01*
X93672187Y-90910715D01*
G37*
G36*
X94175854Y-91942718D02*
G01*
X94283173Y-92055997D01*
X94286548Y-92142555D01*
X94164439Y-92183850D01*
X94067420Y-92160170D01*
X93996645Y-92055997D01*
X94010339Y-91996570D01*
X94115378Y-91928145D01*
X94175854Y-91942718D01*
G37*
G36*
X94695531Y-92710110D02*
G01*
X94763759Y-92823111D01*
X94748908Y-92882736D01*
X94635906Y-92950964D01*
X94576282Y-92936113D01*
X94508054Y-92823111D01*
X94522905Y-92763487D01*
X94635906Y-92695259D01*
X94695531Y-92710110D01*
G37*
G36*
X95206940Y-93221519D02*
G01*
X95275168Y-93334521D01*
X95260318Y-93394145D01*
X95147316Y-93462373D01*
X95087691Y-93447523D01*
X95019463Y-93334521D01*
X95034314Y-93274896D01*
X95147316Y-93206668D01*
X95206940Y-93221519D01*
G37*
G36*
X95454378Y-90664195D02*
G01*
X95561696Y-90777474D01*
X95565072Y-90864032D01*
X95442963Y-90905326D01*
X95345943Y-90881646D01*
X95275168Y-90777474D01*
X95288862Y-90718047D01*
X95393901Y-90649621D01*
X95454378Y-90664195D01*
G37*
G36*
X95547838Y-92717996D02*
G01*
X95561696Y-92823111D01*
X95525484Y-92882211D01*
X95393901Y-92950964D01*
X95338713Y-92936218D01*
X95275168Y-92823111D01*
X95306246Y-92749187D01*
X95442963Y-92695259D01*
X95547838Y-92717996D01*
G37*
G36*
X95718350Y-91175881D02*
G01*
X95786578Y-91288883D01*
X95771727Y-91348508D01*
X95658725Y-91416736D01*
X95599101Y-91401885D01*
X95530873Y-91288883D01*
X95545723Y-91229259D01*
X95658725Y-91161031D01*
X95718350Y-91175881D01*
G37*
G36*
X96002219Y-92206475D02*
G01*
X96033556Y-92315059D01*
X95935739Y-92482527D01*
X95837173Y-92584532D01*
X95793919Y-92566809D01*
X95786578Y-92396937D01*
X95811601Y-92257945D01*
X95914430Y-92183850D01*
X96002219Y-92206475D01*
G37*
G36*
X97256901Y-90924520D02*
G01*
X97320806Y-91026929D01*
X97289757Y-91106885D01*
X97143233Y-91161031D01*
X97092246Y-91156326D01*
X97004885Y-91090048D01*
X97036630Y-90991563D01*
X97178708Y-90920385D01*
X97256901Y-90924520D01*
G37*
G36*
X97787308Y-91625607D02*
G01*
X97832215Y-91750572D01*
X97808768Y-91856447D01*
X97698113Y-91928145D01*
X97628286Y-91907695D01*
X97591569Y-91786047D01*
X97606593Y-91732152D01*
X97692262Y-91622391D01*
X97787308Y-91625607D01*
G37*
G36*
X98019692Y-93221519D02*
G01*
X98087920Y-93334521D01*
X98073069Y-93394145D01*
X97960067Y-93462373D01*
X97900443Y-93447523D01*
X97832215Y-93334521D01*
X97847066Y-93274896D01*
X97960067Y-93206668D01*
X98019692Y-93221519D01*
G37*
G36*
X101599558Y-89897358D02*
G01*
X101667786Y-90010360D01*
X101652935Y-90069984D01*
X101539933Y-90138212D01*
X101480309Y-90123361D01*
X101412081Y-90010360D01*
X101426931Y-89950735D01*
X101539933Y-89882507D01*
X101599558Y-89897358D01*
G37*
G36*
X101854737Y-90910715D02*
G01*
X101923490Y-91042298D01*
X101908744Y-91097486D01*
X101795638Y-91161031D01*
X101721713Y-91129953D01*
X101667786Y-90993236D01*
X101690522Y-90888361D01*
X101795638Y-90874503D01*
X101854737Y-90910715D01*
G37*
G36*
X102358405Y-91942718D02*
G01*
X102465723Y-92055997D01*
X102469099Y-92142555D01*
X102346990Y-92183850D01*
X102249970Y-92160170D01*
X102179195Y-92055997D01*
X102192889Y-91996570D01*
X102297928Y-91928145D01*
X102358405Y-91942718D01*
G37*
G36*
X102878081Y-92710110D02*
G01*
X102946309Y-92823111D01*
X102931459Y-92882736D01*
X102818457Y-92950964D01*
X102758832Y-92936113D01*
X102690604Y-92823111D01*
X102705455Y-92763487D01*
X102818457Y-92695259D01*
X102878081Y-92710110D01*
G37*
G36*
X103389491Y-93221519D02*
G01*
X103457718Y-93334521D01*
X103442868Y-93394145D01*
X103329866Y-93462373D01*
X103270242Y-93447523D01*
X103202014Y-93334521D01*
X103216864Y-93274896D01*
X103329866Y-93206668D01*
X103389491Y-93221519D01*
G37*
G36*
X103636928Y-90664195D02*
G01*
X103744246Y-90777474D01*
X103747622Y-90864032D01*
X103625513Y-90905326D01*
X103528494Y-90881646D01*
X103457718Y-90777474D01*
X103471413Y-90718047D01*
X103576452Y-90649621D01*
X103636928Y-90664195D01*
G37*
G36*
X103730388Y-92717996D02*
G01*
X103744246Y-92823111D01*
X103708034Y-92882211D01*
X103576452Y-92950964D01*
X103521263Y-92936218D01*
X103457718Y-92823111D01*
X103488796Y-92749187D01*
X103625513Y-92695259D01*
X103730388Y-92717996D01*
G37*
G36*
X103900900Y-91175881D02*
G01*
X103969128Y-91288883D01*
X103954277Y-91348508D01*
X103841276Y-91416736D01*
X103781651Y-91401885D01*
X103713423Y-91288883D01*
X103728274Y-91229259D01*
X103841276Y-91161031D01*
X103900900Y-91175881D01*
G37*
G36*
X104184769Y-92206475D02*
G01*
X104216106Y-92315059D01*
X104118289Y-92482527D01*
X104019723Y-92584532D01*
X103976470Y-92566809D01*
X103969128Y-92396937D01*
X103994152Y-92257945D01*
X104096980Y-92183850D01*
X104184769Y-92206475D01*
G37*
G36*
X104560860Y-76933685D02*
G01*
X104629088Y-77046687D01*
X104614237Y-77106312D01*
X104501235Y-77174539D01*
X104441611Y-77159689D01*
X104373383Y-77046687D01*
X104388233Y-76987062D01*
X104501235Y-76918835D01*
X104560860Y-76933685D01*
G37*
G36*
X107225061Y-93732928D02*
G01*
X107293289Y-93845930D01*
X107278438Y-93905555D01*
X107165437Y-93973783D01*
X107105812Y-93958932D01*
X107037584Y-93845930D01*
X107052435Y-93786306D01*
X107165437Y-93718078D01*
X107225061Y-93732928D01*
G37*
G36*
X107992175Y-89641653D02*
G01*
X108060403Y-89754655D01*
X108045552Y-89814280D01*
X107932551Y-89882507D01*
X107872926Y-89867657D01*
X107804698Y-89754655D01*
X107819549Y-89695030D01*
X107932551Y-89626803D01*
X107992175Y-89641653D01*
G37*
G36*
X110565842Y-87851034D02*
G01*
X110663367Y-87933776D01*
X110643544Y-88038068D01*
X110559707Y-88086803D01*
X110425307Y-88071936D01*
X110361745Y-87964722D01*
X110375955Y-87905208D01*
X110484567Y-87836870D01*
X110565842Y-87851034D01*
G37*
G36*
X111060632Y-87851720D02*
G01*
X111128859Y-87964722D01*
X111114009Y-88024347D01*
X111001007Y-88092574D01*
X110941382Y-88077724D01*
X110873155Y-87964722D01*
X110888005Y-87905097D01*
X111001007Y-87836870D01*
X111060632Y-87851720D01*
G37*
G36*
X111355088Y-90117530D02*
G01*
X111384564Y-90268739D01*
X111359629Y-90405203D01*
X111256712Y-90479152D01*
X111184670Y-90450907D01*
X111128859Y-90317801D01*
X111148910Y-90223626D01*
X111256712Y-90107389D01*
X111355088Y-90117530D01*
G37*
G36*
X112343838Y-91175777D02*
G01*
X112407383Y-91288883D01*
X112376305Y-91362808D01*
X112239588Y-91416736D01*
X112134714Y-91393999D01*
X112120855Y-91288883D01*
X112157067Y-91229784D01*
X112288650Y-91161031D01*
X112343838Y-91175777D01*
G37*
G36*
X112868746Y-94001636D02*
G01*
X112919687Y-94120075D01*
X112864286Y-94255582D01*
X112810973Y-94283539D01*
X112710274Y-94236117D01*
X112663088Y-94096605D01*
X112677879Y-94039432D01*
X112790940Y-93973783D01*
X112868746Y-94001636D01*
G37*
G36*
X113110952Y-87851616D02*
G01*
X113174497Y-87964722D01*
X113143419Y-88038647D01*
X113006702Y-88092574D01*
X112901828Y-88069838D01*
X112887969Y-87964722D01*
X112924181Y-87905623D01*
X113055764Y-87836870D01*
X113110952Y-87851616D01*
G37*
G36*
X114126541Y-94253167D02*
G01*
X114197316Y-94357340D01*
X114183622Y-94416767D01*
X114078583Y-94485192D01*
X114018106Y-94470619D01*
X113910788Y-94357340D01*
X113907412Y-94270782D01*
X114029521Y-94229487D01*
X114126541Y-94253167D01*
G37*
G36*
X115407612Y-95778566D02*
G01*
X115475839Y-95891568D01*
X115460989Y-95951192D01*
X115347987Y-96019420D01*
X115288362Y-96004570D01*
X115220135Y-95891568D01*
X115234985Y-95831943D01*
X115347987Y-95763715D01*
X115407612Y-95778566D01*
G37*
G36*
X117453249Y-91687291D02*
G01*
X117521477Y-91800293D01*
X117506626Y-91859917D01*
X117393625Y-91928145D01*
X117334000Y-91913294D01*
X117265772Y-91800293D01*
X117280623Y-91740668D01*
X117393625Y-91672440D01*
X117453249Y-91687291D01*
G37*
G36*
X117708954Y-91175881D02*
G01*
X117777182Y-91288883D01*
X117762331Y-91348508D01*
X117649329Y-91416736D01*
X117589705Y-91401885D01*
X117521477Y-91288883D01*
X117536327Y-91229259D01*
X117649329Y-91161031D01*
X117708954Y-91175881D01*
G37*
G36*
X117982840Y-89910361D02*
G01*
X118033781Y-90028800D01*
X117978380Y-90164306D01*
X117925067Y-90192264D01*
X117824367Y-90144842D01*
X117777182Y-90005329D01*
X117791973Y-89948157D01*
X117905034Y-89882507D01*
X117982840Y-89910361D01*
G37*
G36*
X117964659Y-92710110D02*
G01*
X118032886Y-92823111D01*
X118018036Y-92882736D01*
X117905034Y-92950964D01*
X117845409Y-92936113D01*
X117777182Y-92823111D01*
X117792032Y-92763487D01*
X117905034Y-92695259D01*
X117964659Y-92710110D01*
G37*
G36*
X118234918Y-90862828D02*
G01*
X118288591Y-90990561D01*
X118265341Y-91090063D01*
X118165769Y-91161031D01*
X118108247Y-91155260D01*
X117995585Y-91075715D01*
X118017202Y-90943874D01*
X118114860Y-90858447D01*
X118234918Y-90862828D01*
G37*
G36*
X118731773Y-91942995D02*
G01*
X118800000Y-92055997D01*
X118785150Y-92115622D01*
X118672148Y-92183850D01*
X118612523Y-92168999D01*
X118544296Y-92055997D01*
X118559146Y-91996373D01*
X118672148Y-91928145D01*
X118731773Y-91942995D01*
G37*
G36*
X119243182Y-92710110D02*
G01*
X119311410Y-92823111D01*
X119296559Y-92882736D01*
X119183557Y-92950964D01*
X119123933Y-92936113D01*
X119055705Y-92823111D01*
X119070556Y-92763487D01*
X119183557Y-92695259D01*
X119243182Y-92710110D01*
G37*
G36*
X120002029Y-90664195D02*
G01*
X120109347Y-90777474D01*
X120112723Y-90864032D01*
X119990614Y-90905326D01*
X119893594Y-90881646D01*
X119822819Y-90777474D01*
X119836513Y-90718047D01*
X119941552Y-90649621D01*
X120002029Y-90664195D01*
G37*
G36*
X120026915Y-92709423D02*
G01*
X120124441Y-92792165D01*
X120104618Y-92896458D01*
X120020780Y-92945192D01*
X119886381Y-92930326D01*
X119822819Y-92823111D01*
X119837029Y-92763597D01*
X119945641Y-92695259D01*
X120026915Y-92709423D01*
G37*
G36*
X120266001Y-91175881D02*
G01*
X120334229Y-91288883D01*
X120319378Y-91348508D01*
X120206376Y-91416736D01*
X120146752Y-91401885D01*
X120078524Y-91288883D01*
X120093374Y-91229259D01*
X120206376Y-91161031D01*
X120266001Y-91175881D01*
G37*
G36*
X120549870Y-92206475D02*
G01*
X120581207Y-92315059D01*
X120483390Y-92482527D01*
X120384824Y-92584532D01*
X120341570Y-92566809D01*
X120334229Y-92396937D01*
X120359252Y-92257945D01*
X120462081Y-92183850D01*
X120549870Y-92206475D01*
G37*
G36*
X124372209Y-89914147D02*
G01*
X124425504Y-90052977D01*
X124401774Y-90152387D01*
X124297651Y-90223447D01*
X124223094Y-90191807D01*
X124169799Y-90052977D01*
X124193529Y-89953567D01*
X124297651Y-89882507D01*
X124372209Y-89914147D01*
G37*
G36*
X82952100Y-95266781D02*
G01*
X83001343Y-95380158D01*
X82958100Y-95464600D01*
X82782167Y-95508011D01*
X82680913Y-95505142D01*
X82617938Y-95473049D01*
X82690844Y-95380158D01*
X82780340Y-95307135D01*
X82910020Y-95252306D01*
X82952100Y-95266781D01*
G37*
G36*
X97275091Y-91408596D02*
G01*
X97320806Y-91549618D01*
X97291733Y-91626138D01*
X97172451Y-91672852D01*
X97037429Y-91616356D01*
X97023824Y-91595202D01*
X97047245Y-91487956D01*
X97142074Y-91392343D01*
X97245229Y-91380087D01*
X97275091Y-91408596D01*
G37*
G36*
X115682302Y-95266781D02*
G01*
X115731544Y-95380158D01*
X115688302Y-95464600D01*
X115512369Y-95508011D01*
X115411114Y-95505142D01*
X115348140Y-95473049D01*
X115421045Y-95380158D01*
X115510541Y-95307135D01*
X115640221Y-95252306D01*
X115682302Y-95266781D01*
G37*
G36*
X80834169Y-94996728D02*
G01*
X80936912Y-95059877D01*
X80943972Y-95182199D01*
X80849161Y-95281091D01*
X80807409Y-95297800D01*
X80721309Y-95330812D01*
X80708900Y-95302626D01*
X80700000Y-95167071D01*
X80723730Y-95067661D01*
X80827853Y-94996601D01*
X80834169Y-94996728D01*
G37*
G36*
X113564370Y-94996728D02*
G01*
X113667113Y-95059877D01*
X113674173Y-95182199D01*
X113579363Y-95281091D01*
X113537611Y-95297800D01*
X113451510Y-95330812D01*
X113439101Y-95302626D01*
X113430202Y-95167071D01*
X113453932Y-95067661D01*
X113558054Y-94996601D01*
X113564370Y-94996728D01*
G37*
G36*
X83441203Y-90162056D02*
G01*
X83512752Y-90266064D01*
X83466728Y-90352161D01*
X83278356Y-90387188D01*
X83274121Y-90387059D01*
X83143513Y-90369455D01*
X83151035Y-90337290D01*
X83192009Y-90311447D01*
X83209931Y-90216167D01*
X83217472Y-90168390D01*
X83337252Y-90138212D01*
X83441203Y-90162056D01*
G37*
G36*
X87604027Y-87321726D02*
G01*
X87604027Y-87581165D01*
X86959104Y-87581165D01*
X86314181Y-87581165D01*
X86341151Y-87346769D01*
X86351327Y-87272736D01*
X86387950Y-87180691D01*
X86480517Y-87129339D01*
X86667176Y-87103334D01*
X86986074Y-87087330D01*
X87604027Y-87062287D01*
X87604027Y-87321726D01*
G37*
G36*
X88079155Y-90194447D02*
G01*
X88115437Y-90400167D01*
X88114769Y-90442979D01*
X88080438Y-90605124D01*
X87983082Y-90634562D01*
X87920473Y-90613613D01*
X87855230Y-90543078D01*
X87857681Y-90480607D01*
X87859732Y-90308682D01*
X87883462Y-90209272D01*
X87987584Y-90138212D01*
X88079155Y-90194447D01*
G37*
G36*
X116171405Y-90162056D02*
G01*
X116242953Y-90266064D01*
X116196930Y-90352161D01*
X116008557Y-90387188D01*
X116004322Y-90387059D01*
X115873714Y-90369455D01*
X115881236Y-90337290D01*
X115922210Y-90311447D01*
X115940132Y-90216167D01*
X115947673Y-90168390D01*
X116067453Y-90138212D01*
X116171405Y-90162056D01*
G37*
G36*
X117971132Y-91698927D02*
G01*
X118019036Y-91828873D01*
X118032886Y-92095940D01*
X118032832Y-92122845D01*
X118021398Y-92362982D01*
X117982453Y-92468125D01*
X117905034Y-92470378D01*
X117893087Y-92464993D01*
X117805650Y-92331410D01*
X117777182Y-92046878D01*
X117781743Y-91897583D01*
X117819846Y-91723792D01*
X117905034Y-91672440D01*
X117971132Y-91698927D01*
G37*
G36*
X80615027Y-93997166D02*
G01*
X80775064Y-94135733D01*
X80903237Y-94346297D01*
X80955705Y-94567752D01*
X80920066Y-94738225D01*
X80835505Y-94780277D01*
X80743023Y-94697189D01*
X80683657Y-94499287D01*
X80637494Y-94350141D01*
X80550839Y-94293413D01*
X80487703Y-94272662D01*
X80444296Y-94144252D01*
X80460279Y-94045171D01*
X80529531Y-93973783D01*
X80615027Y-93997166D01*
G37*
G36*
X93021378Y-89181692D02*
G01*
X93122903Y-89285863D01*
X93129862Y-89312334D01*
X93134192Y-89370484D01*
X93066855Y-89285863D01*
X93005679Y-89218548D01*
X92975131Y-89264554D01*
X92973050Y-89287073D01*
X92900973Y-89364414D01*
X92780298Y-89345641D01*
X92685145Y-89237634D01*
X92674613Y-89204950D01*
X92702200Y-89132534D01*
X92861231Y-89131091D01*
X93021378Y-89181692D01*
G37*
G36*
X113345228Y-93997166D02*
G01*
X113505265Y-94135733D01*
X113633439Y-94346297D01*
X113685906Y-94567752D01*
X113650267Y-94738225D01*
X113565706Y-94780277D01*
X113473224Y-94697189D01*
X113413858Y-94499287D01*
X113367695Y-94350141D01*
X113281041Y-94293413D01*
X113217904Y-94272662D01*
X113174497Y-94144252D01*
X113190480Y-94045171D01*
X113259732Y-93973783D01*
X113345228Y-93997166D01*
G37*
G36*
X122589890Y-91942564D02*
G01*
X122635571Y-92055997D01*
X122620720Y-92115622D01*
X122507718Y-92183850D01*
X122448094Y-92198700D01*
X122379866Y-92311702D01*
X122329918Y-92407691D01*
X122203692Y-92437849D01*
X122089481Y-92367163D01*
X122085060Y-92351308D01*
X122138442Y-92241685D01*
X122269169Y-92101056D01*
X122424323Y-91979763D01*
X122550984Y-91928145D01*
X122589890Y-91942564D01*
G37*
G36*
X79209442Y-90256793D02*
G01*
X79357801Y-90405009D01*
X79421477Y-90560823D01*
X79435931Y-90601712D01*
X79549329Y-90649621D01*
X79608954Y-90664472D01*
X79677182Y-90777474D01*
X79661334Y-90867411D01*
X79580592Y-90890733D01*
X79419746Y-90791533D01*
X79165768Y-90564382D01*
X79081241Y-90481852D01*
X78931119Y-90316195D01*
X78892516Y-90221328D01*
X78950497Y-90169875D01*
X79040402Y-90169303D01*
X79209442Y-90256793D01*
G37*
G36*
X91300390Y-94248978D02*
G01*
X91474750Y-94343327D01*
X91628905Y-94497214D01*
X91695302Y-94652098D01*
X91709756Y-94692987D01*
X91823155Y-94740897D01*
X91882779Y-94755747D01*
X91951007Y-94868749D01*
X91936184Y-94955774D01*
X91851346Y-94983173D01*
X91684639Y-94877163D01*
X91428503Y-94634353D01*
X91348572Y-94550800D01*
X91200440Y-94377236D01*
X91162984Y-94282875D01*
X91223269Y-94243052D01*
X91300390Y-94248978D01*
G37*
G36*
X97401128Y-68495430D02*
G01*
X97469356Y-68608432D01*
X97454505Y-68668057D01*
X97341504Y-68736284D01*
X97281879Y-68751135D01*
X97213651Y-68864137D01*
X97198801Y-68923761D01*
X97085799Y-68991989D01*
X97026174Y-68977139D01*
X96957947Y-68864137D01*
X96972797Y-68804512D01*
X97085799Y-68736284D01*
X97145424Y-68721434D01*
X97213651Y-68608432D01*
X97228502Y-68548807D01*
X97341504Y-68480580D01*
X97401128Y-68495430D01*
G37*
G36*
X105327974Y-76422276D02*
G01*
X105396202Y-76535278D01*
X105381351Y-76594902D01*
X105268349Y-76663130D01*
X105208725Y-76677981D01*
X105140497Y-76790982D01*
X105125646Y-76850607D01*
X105012645Y-76918835D01*
X104953020Y-76903984D01*
X104884792Y-76790982D01*
X104899643Y-76731358D01*
X105012645Y-76663130D01*
X105072269Y-76648280D01*
X105140497Y-76535278D01*
X105155347Y-76475653D01*
X105268349Y-76407425D01*
X105327974Y-76422276D01*
G37*
G36*
X111939643Y-90256793D02*
G01*
X112088002Y-90405009D01*
X112151678Y-90560823D01*
X112166132Y-90601712D01*
X112279531Y-90649621D01*
X112339155Y-90664472D01*
X112407383Y-90777474D01*
X112391535Y-90867411D01*
X112310794Y-90890733D01*
X112149947Y-90791533D01*
X111895969Y-90564382D01*
X111811443Y-90481852D01*
X111661320Y-90316195D01*
X111622718Y-90221328D01*
X111680698Y-90169875D01*
X111770603Y-90169303D01*
X111939643Y-90256793D01*
G37*
G36*
X86325504Y-85535527D02*
G01*
X86325504Y-85791232D01*
X85686242Y-85791232D01*
X85440844Y-85788303D01*
X85201479Y-85770404D01*
X85080467Y-85730818D01*
X85046980Y-85663380D01*
X85032130Y-85603755D01*
X84919128Y-85535527D01*
X84859503Y-85520677D01*
X84791276Y-85407675D01*
X84791680Y-85398384D01*
X84829922Y-85339230D01*
X84951033Y-85302989D01*
X85184145Y-85284805D01*
X85558390Y-85279823D01*
X86325504Y-85279823D01*
X86325504Y-85535527D01*
G37*
G36*
X88840544Y-73330171D02*
G01*
X88898459Y-73538715D01*
X88898926Y-73543440D01*
X88947832Y-73734813D01*
X89031712Y-73794420D01*
X89082798Y-73799962D01*
X89138255Y-73900964D01*
X89123405Y-73960588D01*
X89010403Y-74028816D01*
X88950778Y-74013966D01*
X88882551Y-73900964D01*
X88867700Y-73841339D01*
X88754698Y-73773111D01*
X88664964Y-73720412D01*
X88626846Y-73517407D01*
X88662631Y-73320863D01*
X88747891Y-73256452D01*
X88840544Y-73330171D01*
G37*
G36*
X93796686Y-85279890D02*
G01*
X94151608Y-85286264D01*
X94369055Y-85306449D01*
X94478160Y-85345301D01*
X94508054Y-85407675D01*
X94493203Y-85467300D01*
X94380202Y-85535527D01*
X94320577Y-85550378D01*
X94252349Y-85663380D01*
X94237702Y-85712459D01*
X94148210Y-85760332D01*
X93950281Y-85784535D01*
X93613088Y-85791232D01*
X92973826Y-85791232D01*
X92973826Y-85535527D01*
X92973826Y-85279823D01*
X93740940Y-85279823D01*
X93796686Y-85279890D01*
G37*
G36*
X97546983Y-92237666D02*
G01*
X97597819Y-92338073D01*
X97603328Y-92386664D01*
X97704363Y-92439554D01*
X97763987Y-92454405D01*
X97832215Y-92567407D01*
X97847066Y-92627031D01*
X97960067Y-92695259D01*
X98019692Y-92710110D01*
X98087920Y-92823111D01*
X98082234Y-92883053D01*
X98013566Y-92943069D01*
X97862187Y-92866078D01*
X97621969Y-92649800D01*
X97483200Y-92502347D01*
X97347207Y-92313308D01*
X97341901Y-92211224D01*
X97469967Y-92203971D01*
X97546983Y-92237666D01*
G37*
G36*
X82391572Y-89909984D02*
G01*
X82575168Y-90052977D01*
X82578970Y-90056817D01*
X82685441Y-90203043D01*
X82741643Y-90347788D01*
X82736716Y-90441883D01*
X82659801Y-90436162D01*
X82607285Y-90428233D01*
X82522830Y-90516367D01*
X82512217Y-90540029D01*
X82406420Y-90636097D01*
X82289437Y-90630466D01*
X82234229Y-90521769D01*
X82249079Y-90462144D01*
X82362081Y-90393917D01*
X82421706Y-90379066D01*
X82489933Y-90266064D01*
X82475083Y-90206440D01*
X82362081Y-90138212D01*
X82302456Y-90123361D01*
X82234229Y-90010360D01*
X82271958Y-89901437D01*
X82391572Y-89909984D01*
G37*
G36*
X87348323Y-81439999D02*
G01*
X87321224Y-81625021D01*
X87220470Y-81699957D01*
X87160846Y-81714808D01*
X87092618Y-81827809D01*
X87077767Y-81887434D01*
X86964765Y-81955662D01*
X86905141Y-81970512D01*
X86836913Y-82083514D01*
X86822063Y-82143139D01*
X86709061Y-82211366D01*
X86649436Y-82226217D01*
X86581208Y-82339219D01*
X86565006Y-82400493D01*
X86449622Y-82467071D01*
X86393321Y-82450784D01*
X86350657Y-82364883D01*
X86335807Y-82175332D01*
X86343078Y-81849118D01*
X86368121Y-81231165D01*
X86858222Y-81205603D01*
X87348323Y-81180041D01*
X87348323Y-81439999D01*
G37*
G36*
X115121774Y-89909984D02*
G01*
X115305369Y-90052977D01*
X115309171Y-90056817D01*
X115415642Y-90203043D01*
X115471844Y-90347788D01*
X115466917Y-90441883D01*
X115390002Y-90436162D01*
X115337486Y-90428233D01*
X115253031Y-90516367D01*
X115242418Y-90540029D01*
X115136622Y-90636097D01*
X115019638Y-90630466D01*
X114964430Y-90521769D01*
X114979280Y-90462144D01*
X115092282Y-90393917D01*
X115151907Y-90379066D01*
X115220135Y-90266064D01*
X115205284Y-90206440D01*
X115092282Y-90138212D01*
X115032658Y-90123361D01*
X114964430Y-90010360D01*
X115002159Y-89901437D01*
X115121774Y-89909984D01*
G37*
G36*
X88429888Y-72495163D02*
G01*
X88563042Y-72520288D01*
X88616828Y-72618424D01*
X88626846Y-72838203D01*
X88595886Y-73103323D01*
X88498994Y-73230879D01*
X88468854Y-73254205D01*
X88437359Y-73325348D01*
X88413257Y-73459356D01*
X88395619Y-73674163D01*
X88383517Y-73987699D01*
X88376023Y-74417899D01*
X88372207Y-74982693D01*
X88371141Y-75700016D01*
X88370278Y-76386527D01*
X88366930Y-76952803D01*
X88360146Y-77383329D01*
X88348976Y-77695830D01*
X88332470Y-77908032D01*
X88309677Y-78037660D01*
X88279649Y-78102437D01*
X88241434Y-78120091D01*
X88218145Y-78113860D01*
X88187085Y-78070949D01*
X88162765Y-77973062D01*
X88144459Y-77803699D01*
X88131442Y-77546364D01*
X88122988Y-77184558D01*
X88118371Y-76701784D01*
X88116868Y-76081544D01*
X88117751Y-75307340D01*
X88123776Y-72494588D01*
X88375311Y-72494588D01*
X88429888Y-72495163D01*
G37*
G36*
X93224548Y-86439806D02*
G01*
X93229531Y-86814051D01*
X93229531Y-87581165D01*
X92456755Y-87581165D01*
X91683979Y-87581165D01*
X91710950Y-87346769D01*
X91721833Y-87269987D01*
X91760299Y-87179024D01*
X91856161Y-87125860D01*
X92047020Y-87094701D01*
X92370478Y-87069756D01*
X92677596Y-87039551D01*
X92932898Y-86986733D01*
X93038151Y-86920595D01*
X93038544Y-86892640D01*
X92960581Y-86846578D01*
X92755703Y-86821582D01*
X92402415Y-86814051D01*
X91731563Y-86814051D01*
X91712079Y-86558346D01*
X91702337Y-86430494D01*
X93059061Y-86430494D01*
X93101678Y-86473111D01*
X93144296Y-86430494D01*
X93101678Y-86387876D01*
X93059061Y-86430494D01*
X91702337Y-86430494D01*
X91692595Y-86302642D01*
X92333210Y-86302642D01*
X92580435Y-86299677D01*
X92819526Y-86281746D01*
X92940386Y-86242167D01*
X92973826Y-86174789D01*
X92988676Y-86115165D01*
X93101678Y-86046937D01*
X93110969Y-86047341D01*
X93170123Y-86085584D01*
X93206364Y-86206694D01*
X93223822Y-86430494D01*
X93224548Y-86439806D01*
G37*
G36*
X92259804Y-89117542D02*
G01*
X92432935Y-89136243D01*
X92496466Y-89186983D01*
X92487364Y-89284904D01*
X92445237Y-89377634D01*
X92367491Y-89407726D01*
X92328931Y-89402635D01*
X92291947Y-89493920D01*
X92331893Y-89581008D01*
X92505034Y-89626803D01*
X92639112Y-89657746D01*
X92723787Y-89765088D01*
X92673501Y-89898716D01*
X92602235Y-89926415D01*
X92437516Y-89907069D01*
X92278167Y-89837428D01*
X92206712Y-89744719D01*
X92197548Y-89694869D01*
X92109565Y-89626803D01*
X92027045Y-89596938D01*
X91890670Y-89477642D01*
X91818904Y-89398131D01*
X91791083Y-89418040D01*
X91813965Y-89584185D01*
X91818042Y-89608038D01*
X91832059Y-89737955D01*
X91812669Y-89733346D01*
X91776637Y-89683618D01*
X91643321Y-89630392D01*
X91504011Y-89655611D01*
X91439598Y-89754655D01*
X91424747Y-89814280D01*
X91311745Y-89882507D01*
X91252121Y-89867657D01*
X91183893Y-89754655D01*
X91197484Y-89695245D01*
X91301804Y-89626803D01*
X91381924Y-89590802D01*
X91466537Y-89447757D01*
X91516086Y-89343066D01*
X91618815Y-89333887D01*
X91682983Y-89353098D01*
X91669845Y-89257228D01*
X91657662Y-89215921D01*
X91682886Y-89152097D01*
X91810167Y-89122576D01*
X92073555Y-89115393D01*
X92259804Y-89117542D01*
G37*
G36*
X89241510Y-68169987D02*
G01*
X89326064Y-68266382D01*
X89378313Y-68431195D01*
X89369111Y-68602498D01*
X89271769Y-68659017D01*
X89208252Y-68677879D01*
X89153787Y-68793036D01*
X89138255Y-69042574D01*
X89133057Y-69205256D01*
X89094672Y-69375935D01*
X89010403Y-69426132D01*
X88972360Y-69432821D01*
X88903334Y-69531675D01*
X88882551Y-69769746D01*
X88851591Y-70034867D01*
X88754698Y-70162422D01*
X88714337Y-70191388D01*
X88671189Y-70288788D01*
X88644390Y-70475561D01*
X88630691Y-70778696D01*
X88626846Y-71225184D01*
X88626846Y-72238883D01*
X88371141Y-72238883D01*
X88115437Y-72238883D01*
X88115437Y-71343917D01*
X88116449Y-71108102D01*
X88125416Y-70778445D01*
X88146924Y-70577047D01*
X88184905Y-70476388D01*
X88243289Y-70448950D01*
X88258694Y-70447942D01*
X88326515Y-70393925D01*
X88361322Y-70234493D01*
X88371141Y-69937541D01*
X88371393Y-69875922D01*
X88384898Y-69604636D01*
X88424756Y-69465407D01*
X88498994Y-69426132D01*
X88588728Y-69373432D01*
X88626846Y-69170427D01*
X88653196Y-68990959D01*
X88754698Y-68914722D01*
X88844432Y-68862023D01*
X88882551Y-68659017D01*
X88908900Y-68479549D01*
X89010403Y-68403313D01*
X89073100Y-68385857D01*
X89138255Y-68268357D01*
X89165543Y-68169746D01*
X89241510Y-68169987D01*
G37*
G36*
X86587774Y-89868956D02*
G01*
X86644143Y-89982812D01*
X86625196Y-90079717D01*
X86490676Y-90138212D01*
X86477963Y-90138437D01*
X86358954Y-90193899D01*
X86324199Y-90372608D01*
X86322305Y-90447194D01*
X86299344Y-90536808D01*
X86240269Y-90479152D01*
X86193228Y-90415677D01*
X86149236Y-90393917D01*
X86125256Y-90552717D01*
X86124781Y-90745415D01*
X86169278Y-90820091D01*
X86185909Y-90817714D01*
X86240269Y-90734856D01*
X86246908Y-90704873D01*
X86343611Y-90649621D01*
X86355648Y-90648303D01*
X86483495Y-90572269D01*
X86638867Y-90415225D01*
X86830783Y-90180829D01*
X86833848Y-90415225D01*
X86868755Y-90590319D01*
X86986688Y-90649621D01*
X86990930Y-90649646D01*
X87080313Y-90679281D01*
X87114320Y-90793182D01*
X87105958Y-91033178D01*
X87100508Y-91092268D01*
X87047303Y-91336089D01*
X86956183Y-91416736D01*
X86886598Y-91384499D01*
X86836913Y-91246266D01*
X86817086Y-91146271D01*
X86730369Y-91069067D01*
X86667559Y-91057857D01*
X86730369Y-91019347D01*
X86817105Y-90943815D01*
X86818675Y-90807904D01*
X86699571Y-90700391D01*
X86610120Y-90686620D01*
X86611661Y-90776507D01*
X86615122Y-90786174D01*
X86605140Y-90859797D01*
X86490081Y-90895801D01*
X86237594Y-90905326D01*
X85814094Y-90905326D01*
X85814094Y-90601974D01*
X85815057Y-90552451D01*
X85838707Y-90386744D01*
X85884125Y-90341903D01*
X85947232Y-90334924D01*
X86072151Y-90241135D01*
X86188770Y-90102308D01*
X86240269Y-89976704D01*
X86284551Y-89921327D01*
X86436353Y-89864896D01*
X86587774Y-89868956D01*
G37*
G36*
X94542883Y-91166229D02*
G01*
X94713562Y-91204614D01*
X94763759Y-91288883D01*
X94816458Y-91378617D01*
X95019463Y-91416736D01*
X95154423Y-91424569D01*
X95254048Y-91491325D01*
X95275168Y-91672440D01*
X95301518Y-91851909D01*
X95403020Y-91928145D01*
X95412751Y-91928518D01*
X95502627Y-92004209D01*
X95530873Y-92223792D01*
X95527381Y-92336143D01*
X95491239Y-92464831D01*
X95403020Y-92470378D01*
X95327576Y-92461507D01*
X95275168Y-92558287D01*
X95258160Y-92626337D01*
X95147316Y-92695259D01*
X95036100Y-92647926D01*
X95042684Y-92531196D01*
X95168491Y-92391994D01*
X95245282Y-92309556D01*
X95246757Y-92212261D01*
X95179702Y-92200568D01*
X95067024Y-92290527D01*
X94931447Y-92414514D01*
X94813509Y-92424316D01*
X94763759Y-92311702D01*
X94732119Y-92237145D01*
X94593289Y-92183850D01*
X94459867Y-92148233D01*
X94433752Y-92053094D01*
X94554767Y-91957397D01*
X94657167Y-91956821D01*
X94803502Y-92066481D01*
X94892631Y-92154011D01*
X94982791Y-92163698D01*
X94990292Y-92149143D01*
X94950576Y-92036081D01*
X94820581Y-91876486D01*
X94684037Y-91750629D01*
X94595231Y-91716483D01*
X94542842Y-91789960D01*
X94452370Y-91900188D01*
X94308654Y-91914318D01*
X94197938Y-91800293D01*
X94165938Y-91740271D01*
X94072760Y-91672440D01*
X94037825Y-91686795D01*
X93996645Y-91800293D01*
X93981794Y-91859917D01*
X93868792Y-91928145D01*
X93779058Y-91875446D01*
X93740940Y-91672440D01*
X93767290Y-91492972D01*
X93868792Y-91416736D01*
X93928417Y-91401885D01*
X93996645Y-91288883D01*
X94012240Y-91234656D01*
X94127394Y-91177763D01*
X94380202Y-91161031D01*
X94542883Y-91166229D01*
G37*
G36*
X119090534Y-91166229D02*
G01*
X119261213Y-91204614D01*
X119311410Y-91288883D01*
X119364109Y-91378617D01*
X119567114Y-91416736D01*
X119702074Y-91424569D01*
X119801699Y-91491325D01*
X119822819Y-91672440D01*
X119849169Y-91851909D01*
X119950671Y-91928145D01*
X119960402Y-91928518D01*
X120050278Y-92004209D01*
X120078524Y-92223792D01*
X120076859Y-92300528D01*
X120044235Y-92456169D01*
X119961873Y-92474676D01*
X119879507Y-92481524D01*
X119797140Y-92613779D01*
X119746203Y-92717540D01*
X119658086Y-92741422D01*
X119600710Y-92691106D01*
X119582619Y-92548102D01*
X119716142Y-92391994D01*
X119792933Y-92309556D01*
X119794408Y-92212261D01*
X119727353Y-92200568D01*
X119614675Y-92290527D01*
X119479098Y-92414514D01*
X119361160Y-92424316D01*
X119311410Y-92311702D01*
X119279770Y-92237145D01*
X119140940Y-92183850D01*
X119007518Y-92148233D01*
X118981403Y-92053094D01*
X119102418Y-91957397D01*
X119204818Y-91956821D01*
X119351153Y-92066481D01*
X119440282Y-92154011D01*
X119530442Y-92163698D01*
X119537943Y-92149143D01*
X119498227Y-92036081D01*
X119368232Y-91876486D01*
X119231688Y-91750629D01*
X119142882Y-91716483D01*
X119090493Y-91789960D01*
X119000021Y-91900188D01*
X118856305Y-91914318D01*
X118745589Y-91800293D01*
X118713589Y-91740271D01*
X118620411Y-91672440D01*
X118585476Y-91686795D01*
X118544296Y-91800293D01*
X118529445Y-91859917D01*
X118416443Y-91928145D01*
X118326709Y-91875446D01*
X118288591Y-91672440D01*
X118314941Y-91492972D01*
X118416443Y-91416736D01*
X118476068Y-91401885D01*
X118544296Y-91288883D01*
X118559891Y-91234656D01*
X118675045Y-91177763D01*
X118927853Y-91161031D01*
X119090534Y-91166229D01*
G37*
G36*
X102725434Y-91166229D02*
G01*
X102896113Y-91204614D01*
X102946309Y-91288883D01*
X102999008Y-91378617D01*
X103202014Y-91416736D01*
X103336974Y-91424569D01*
X103436598Y-91491325D01*
X103457718Y-91672440D01*
X103484068Y-91851909D01*
X103585571Y-91928145D01*
X103595301Y-91928518D01*
X103685177Y-92004209D01*
X103713423Y-92223792D01*
X103709931Y-92336143D01*
X103673789Y-92464831D01*
X103585571Y-92470378D01*
X103510126Y-92461507D01*
X103457718Y-92558287D01*
X103440711Y-92626337D01*
X103329866Y-92695259D01*
X103218650Y-92647926D01*
X103225234Y-92531196D01*
X103351041Y-92391994D01*
X103427832Y-92309556D01*
X103429307Y-92212261D01*
X103362252Y-92200568D01*
X103249575Y-92290527D01*
X103113997Y-92414514D01*
X102996059Y-92424316D01*
X102946309Y-92311702D01*
X102914669Y-92237145D01*
X102775839Y-92183850D01*
X102642417Y-92148233D01*
X102616303Y-92053094D01*
X102737317Y-91957397D01*
X102839717Y-91956821D01*
X102986053Y-92066481D01*
X103077288Y-92152201D01*
X103173602Y-92155438D01*
X103185295Y-92088383D01*
X103095336Y-91975706D01*
X103008312Y-91893665D01*
X102946309Y-91769587D01*
X102907596Y-91684858D01*
X102809596Y-91691805D01*
X102721428Y-91800293D01*
X102684953Y-91859344D01*
X102550958Y-91928145D01*
X102489300Y-91913597D01*
X102380488Y-91800293D01*
X102348488Y-91740271D01*
X102255311Y-91672440D01*
X102220375Y-91686795D01*
X102179195Y-91800293D01*
X102164344Y-91859917D01*
X102051343Y-91928145D01*
X101961608Y-91875446D01*
X101923490Y-91672440D01*
X101949840Y-91492972D01*
X102051343Y-91416736D01*
X102110967Y-91401885D01*
X102179195Y-91288883D01*
X102194791Y-91234656D01*
X102309945Y-91177763D01*
X102562752Y-91161031D01*
X102725434Y-91166229D01*
G37*
G36*
X123870511Y-91110835D02*
G01*
X123786242Y-91161031D01*
X123726617Y-91175881D01*
X123658390Y-91288883D01*
X123627312Y-91362808D01*
X123490595Y-91416736D01*
X123385720Y-91393999D01*
X123371862Y-91288883D01*
X123382115Y-91251190D01*
X123335671Y-91180781D01*
X123151069Y-91161031D01*
X123143604Y-91161053D01*
X122965820Y-91185780D01*
X122937439Y-91252003D01*
X122933156Y-91319122D01*
X122814617Y-91389796D01*
X122707253Y-91441581D01*
X122641880Y-91544588D01*
X122635571Y-91554529D01*
X122620834Y-91609320D01*
X122507718Y-91672440D01*
X122448094Y-91687291D01*
X122379866Y-91800293D01*
X122317132Y-91900398D01*
X122159572Y-91925597D01*
X121962989Y-91876693D01*
X121783222Y-91757675D01*
X121709550Y-91670758D01*
X121645506Y-91544588D01*
X121868457Y-91544588D01*
X121883307Y-91604213D01*
X121996309Y-91672440D01*
X122055934Y-91657590D01*
X122124161Y-91544588D01*
X122109311Y-91484963D01*
X121996309Y-91416736D01*
X121936684Y-91431586D01*
X121868457Y-91544588D01*
X121645506Y-91544588D01*
X121626588Y-91507319D01*
X121623258Y-91384902D01*
X121708641Y-91352809D01*
X121759238Y-91357717D01*
X121834335Y-91306435D01*
X121810630Y-91210195D01*
X121692896Y-91135003D01*
X121647981Y-91121472D01*
X121550857Y-91053441D01*
X121593212Y-90982948D01*
X121751291Y-90927680D01*
X122001339Y-90905326D01*
X122156665Y-90910173D01*
X122329041Y-90948407D01*
X122379866Y-91033178D01*
X122394717Y-91092803D01*
X122507718Y-91161031D01*
X122567343Y-91146180D01*
X122635571Y-91033178D01*
X122649906Y-90975620D01*
X123410099Y-90975620D01*
X123462673Y-91084643D01*
X123517177Y-91124986D01*
X123607542Y-91089112D01*
X123610780Y-91000314D01*
X123527142Y-90923528D01*
X123424005Y-90940829D01*
X123410099Y-90975620D01*
X122649906Y-90975620D01*
X122650421Y-90973554D01*
X122763423Y-90905326D01*
X122823048Y-90890476D01*
X122891276Y-90777474D01*
X122943975Y-90687740D01*
X123146980Y-90649621D01*
X123326449Y-90623272D01*
X123402685Y-90521769D01*
X123455384Y-90432035D01*
X123658390Y-90393917D01*
X123754857Y-90396085D01*
X123863883Y-90429910D01*
X123906682Y-90541619D01*
X123914094Y-90777474D01*
X123908896Y-90940156D01*
X123895367Y-91000314D01*
X123870511Y-91110835D01*
G37*
G36*
X88275898Y-79667360D02*
G01*
X88306842Y-79726490D01*
X88330430Y-79849791D01*
X88347609Y-80054977D01*
X88359323Y-80359763D01*
X88366519Y-80781865D01*
X88370143Y-81338997D01*
X88371141Y-82048876D01*
X88370825Y-82686137D01*
X88368937Y-83250070D01*
X88364153Y-83679425D01*
X88355154Y-83993107D01*
X88340617Y-84210018D01*
X88319221Y-84349061D01*
X88289646Y-84429139D01*
X88250569Y-84469155D01*
X88200671Y-84488012D01*
X88101613Y-84536015D01*
X88030202Y-84650502D01*
X88022239Y-84700122D01*
X87944967Y-84768413D01*
X87905756Y-84782838D01*
X87859732Y-84896266D01*
X87859228Y-84904813D01*
X87829636Y-84948846D01*
X87738735Y-84980794D01*
X87564698Y-85002477D01*
X87285699Y-85015712D01*
X86879909Y-85022320D01*
X86325504Y-85024118D01*
X84791276Y-85024118D01*
X84791276Y-84768413D01*
X84817625Y-84588945D01*
X84919128Y-84512709D01*
X84978753Y-84497858D01*
X85046980Y-84384856D01*
X85061831Y-84325232D01*
X85174833Y-84257004D01*
X85234457Y-84242153D01*
X85302685Y-84129152D01*
X85317535Y-84069527D01*
X85430537Y-84001299D01*
X85490162Y-83986449D01*
X85558390Y-83873447D01*
X85573240Y-83813822D01*
X85686242Y-83745595D01*
X85745867Y-83730744D01*
X85814094Y-83617742D01*
X85828945Y-83558118D01*
X85941947Y-83489890D01*
X86001571Y-83475039D01*
X86069799Y-83362038D01*
X86084650Y-83302413D01*
X86197651Y-83234185D01*
X86257276Y-83219335D01*
X86325504Y-83106333D01*
X86340354Y-83046708D01*
X86453356Y-82978481D01*
X86512981Y-82963630D01*
X86581208Y-82850628D01*
X86596059Y-82791004D01*
X86709061Y-82722776D01*
X86768685Y-82707925D01*
X86836913Y-82594923D01*
X86851764Y-82535299D01*
X86964765Y-82467071D01*
X87024390Y-82452221D01*
X87092618Y-82339219D01*
X87107468Y-82279594D01*
X87220470Y-82211366D01*
X87280095Y-82196516D01*
X87348323Y-82083514D01*
X87363173Y-82023889D01*
X87476175Y-81955662D01*
X87565909Y-81902962D01*
X87604027Y-81699957D01*
X87630377Y-81520489D01*
X87731880Y-81444252D01*
X87789135Y-81426318D01*
X87843742Y-81307679D01*
X87859732Y-81051576D01*
X87869339Y-80820403D01*
X87907955Y-80710727D01*
X87987584Y-80707961D01*
X88033648Y-80716423D01*
X88084309Y-80665032D01*
X88108960Y-80505041D01*
X88115437Y-80205671D01*
X88116321Y-80083862D01*
X88131562Y-79824010D01*
X88171425Y-79691438D01*
X88243289Y-79654319D01*
X88275898Y-79667360D01*
G37*
G36*
X87117315Y-89285863D02*
G01*
X87065553Y-89384887D01*
X86938407Y-89454943D01*
X86933516Y-89457638D01*
X86913725Y-89457943D01*
X86840781Y-89475240D01*
X86922148Y-89541568D01*
X87058794Y-89594960D01*
X87281721Y-89625497D01*
X87310417Y-89625314D01*
X87455633Y-89594405D01*
X87464381Y-89498950D01*
X87425245Y-89438556D01*
X87275277Y-89364369D01*
X87204913Y-89352574D01*
X87242310Y-89314471D01*
X87283284Y-89288629D01*
X87301206Y-89193348D01*
X87320325Y-89141942D01*
X87456742Y-89115393D01*
X87506446Y-89120847D01*
X87667853Y-89204383D01*
X87793715Y-89348759D01*
X87848599Y-89502181D01*
X87797068Y-89612853D01*
X87718013Y-89721758D01*
X87654879Y-89920036D01*
X87594592Y-90107536D01*
X87500516Y-90236546D01*
X87436857Y-90288155D01*
X87497484Y-90307377D01*
X87512703Y-90310400D01*
X87565308Y-90397512D01*
X87594815Y-90618240D01*
X87604027Y-90990561D01*
X87599957Y-91292583D01*
X87581144Y-91523794D01*
X87541775Y-91640323D01*
X87476175Y-91672440D01*
X87455765Y-91670591D01*
X87390885Y-91612208D01*
X87357666Y-91448163D01*
X87348323Y-91146434D01*
X87342278Y-90926413D01*
X87297588Y-90637942D01*
X87202945Y-90459786D01*
X87179120Y-90432627D01*
X87104704Y-90288028D01*
X87160327Y-90134601D01*
X87222056Y-90022064D01*
X87261782Y-89904973D01*
X87246502Y-89890712D01*
X87177853Y-89967742D01*
X87113174Y-90044722D01*
X87093923Y-89979110D01*
X87066406Y-89915219D01*
X86928525Y-89905536D01*
X86827394Y-89914804D01*
X86805493Y-89841444D01*
X86810210Y-89817307D01*
X86736802Y-89723518D01*
X86540991Y-89655328D01*
X86261578Y-89627967D01*
X86142525Y-89651399D01*
X86069799Y-89754655D01*
X86054948Y-89814280D01*
X85941947Y-89882507D01*
X85882322Y-89867657D01*
X85814094Y-89754655D01*
X85827596Y-89695260D01*
X85931292Y-89626803D01*
X85932952Y-89626777D01*
X86029870Y-89550494D01*
X86047957Y-89503981D01*
X86325504Y-89503981D01*
X86341493Y-89521802D01*
X86458386Y-89541568D01*
X86519213Y-89529066D01*
X86537732Y-89454943D01*
X86500346Y-89422648D01*
X86387962Y-89424421D01*
X86325504Y-89503981D01*
X86047957Y-89503981D01*
X86099631Y-89371098D01*
X86103633Y-89351270D01*
X86134820Y-89243246D01*
X86240269Y-89243246D01*
X86282886Y-89285863D01*
X86325504Y-89243246D01*
X86282886Y-89200628D01*
X86240269Y-89243246D01*
X86134820Y-89243246D01*
X86142302Y-89217330D01*
X86217560Y-89147034D01*
X86374030Y-89119888D01*
X86656333Y-89115393D01*
X86908478Y-89118995D01*
X87069510Y-89139752D01*
X87127179Y-89190958D01*
X87121744Y-89243246D01*
X87117315Y-89285863D01*
G37*
G36*
X117521477Y-90393917D02*
G01*
X117539205Y-90514666D01*
X117547826Y-90573385D01*
X117649329Y-90649621D01*
X117708954Y-90664472D01*
X117777182Y-90777474D01*
X117771518Y-90800215D01*
X117762331Y-90837098D01*
X117649329Y-90905326D01*
X117589705Y-90920177D01*
X117521477Y-91033178D01*
X117507783Y-91092606D01*
X117402744Y-91161031D01*
X117342267Y-91146458D01*
X117234949Y-91033178D01*
X117197086Y-90974363D01*
X117050330Y-90905326D01*
X116987291Y-90892550D01*
X116967822Y-90819489D01*
X116975751Y-90766973D01*
X116962977Y-90754732D01*
X117301498Y-90754732D01*
X117343727Y-90858209D01*
X117370883Y-90869600D01*
X117474360Y-90827371D01*
X117485751Y-90800215D01*
X117443522Y-90696738D01*
X117416366Y-90685347D01*
X117312889Y-90727576D01*
X117301498Y-90754732D01*
X116962977Y-90754732D01*
X116887617Y-90682518D01*
X116823336Y-90643025D01*
X116773279Y-90548405D01*
X117029600Y-90548405D01*
X117031408Y-90600063D01*
X117130817Y-90649621D01*
X117197145Y-90632081D01*
X117265772Y-90514666D01*
X117216573Y-90421535D01*
X117114439Y-90435847D01*
X117029600Y-90548405D01*
X116773279Y-90548405D01*
X116754363Y-90512650D01*
X116739617Y-90457461D01*
X116626510Y-90393917D01*
X116566886Y-90379066D01*
X116498658Y-90266064D01*
X116495468Y-90252704D01*
X116790407Y-90252704D01*
X116826281Y-90343069D01*
X116863723Y-90356509D01*
X116970095Y-90304401D01*
X116997918Y-90219700D01*
X116945342Y-90149380D01*
X116830750Y-90198200D01*
X116790407Y-90252704D01*
X116495468Y-90252704D01*
X116484448Y-90206550D01*
X116375836Y-90138212D01*
X116238864Y-90096143D01*
X116196787Y-90000631D01*
X116284264Y-89913832D01*
X116382672Y-89907944D01*
X116532360Y-90012581D01*
X116622967Y-90101566D01*
X116704137Y-90065287D01*
X116716707Y-90005706D01*
X116631913Y-89915404D01*
X116567631Y-89875910D01*
X116498658Y-89745536D01*
X116483912Y-89690347D01*
X116370806Y-89626803D01*
X116311181Y-89641653D01*
X116242953Y-89754655D01*
X116190254Y-89844389D01*
X115987249Y-89882507D01*
X115807780Y-89856158D01*
X115731544Y-89754655D01*
X115746395Y-89695030D01*
X115859396Y-89626803D01*
X115919021Y-89611952D01*
X115987249Y-89498950D01*
X115973657Y-89439540D01*
X115869333Y-89371098D01*
X115807315Y-89338339D01*
X115726659Y-89199935D01*
X115686924Y-89027750D01*
X115715335Y-88904309D01*
X115826207Y-88857703D01*
X116006820Y-88858416D01*
X116171192Y-88905711D01*
X116242953Y-88987541D01*
X116295653Y-89077275D01*
X116498658Y-89115393D01*
X116678126Y-89141743D01*
X116754363Y-89243246D01*
X116769213Y-89302870D01*
X116882215Y-89371098D01*
X116941840Y-89385949D01*
X117010067Y-89498950D01*
X117024918Y-89558575D01*
X117137920Y-89626803D01*
X117227654Y-89679502D01*
X117265772Y-89882507D01*
X117292122Y-90061976D01*
X117393625Y-90138212D01*
X117483359Y-90190911D01*
X117488765Y-90219700D01*
X117521477Y-90393917D01*
G37*
G36*
X87071309Y-71743121D02*
G01*
X87101326Y-71746887D01*
X87237242Y-71789555D01*
X87302772Y-71901112D01*
X87331915Y-72132340D01*
X87336797Y-72189274D01*
X87387884Y-72419760D01*
X87481076Y-72494588D01*
X87567117Y-72549927D01*
X87604027Y-72750293D01*
X87630984Y-72931440D01*
X87732956Y-73005997D01*
X87766915Y-73022349D01*
X87794187Y-73082238D01*
X87815150Y-73201531D01*
X87830359Y-73396091D01*
X87840368Y-73681782D01*
X87845732Y-74074469D01*
X87847005Y-74590015D01*
X87844743Y-75244286D01*
X87839500Y-76053145D01*
X87833817Y-76724365D01*
X87825229Y-77434343D01*
X87814579Y-77997625D01*
X87801301Y-78427508D01*
X87784828Y-78737288D01*
X87764593Y-78940263D01*
X87740029Y-79049729D01*
X87710571Y-79078984D01*
X87708672Y-79078631D01*
X87630929Y-79141167D01*
X87604027Y-79355997D01*
X87604027Y-79654319D01*
X86964765Y-79654319D01*
X86325504Y-79654319D01*
X86325504Y-79142910D01*
X86325504Y-78631501D01*
X87014486Y-78631501D01*
X87212380Y-78629787D01*
X87494991Y-78614605D01*
X87639816Y-78580829D01*
X87668352Y-78524957D01*
X87593716Y-78469877D01*
X87363944Y-78414327D01*
X87000679Y-78375796D01*
X86368121Y-78333178D01*
X86342559Y-77843078D01*
X86316997Y-77352977D01*
X86988924Y-77352977D01*
X87277879Y-77349178D01*
X87510908Y-77330562D01*
X87628432Y-77291139D01*
X87660850Y-77225125D01*
X87641611Y-77170868D01*
X87544849Y-77126093D01*
X87338857Y-77103506D01*
X86993177Y-77097272D01*
X86325504Y-77097272D01*
X86325504Y-76585863D01*
X86325504Y-76074454D01*
X87004708Y-76074454D01*
X87026720Y-76074443D01*
X87359201Y-76069095D01*
X87551998Y-76049939D01*
X87634188Y-76011075D01*
X87634850Y-75946601D01*
X87617795Y-75916807D01*
X87514930Y-75858425D01*
X87304588Y-75827691D01*
X86955646Y-75818749D01*
X86325504Y-75818749D01*
X86325504Y-75307340D01*
X86325504Y-74795930D01*
X87007383Y-74795930D01*
X87309405Y-74791860D01*
X87540616Y-74773047D01*
X87657145Y-74733678D01*
X87689262Y-74668078D01*
X87667555Y-74611449D01*
X87567217Y-74568097D01*
X87357249Y-74546247D01*
X87007383Y-74540225D01*
X86325504Y-74540225D01*
X86325504Y-74028816D01*
X86325504Y-73517407D01*
X86955646Y-73517407D01*
X87102928Y-73516266D01*
X87396942Y-73499941D01*
X87563875Y-73459656D01*
X87634850Y-73389554D01*
X87636384Y-73385410D01*
X87632140Y-73322438D01*
X87544832Y-73284763D01*
X87345381Y-73266484D01*
X87004708Y-73261702D01*
X86706189Y-73257705D01*
X86474494Y-73238944D01*
X86357701Y-73199560D01*
X86325504Y-73133850D01*
X86340354Y-73074225D01*
X86453356Y-73005997D01*
X86543090Y-72953298D01*
X86581208Y-72750293D01*
X86607558Y-72570824D01*
X86709061Y-72494588D01*
X86765193Y-72477552D01*
X86820649Y-72360226D01*
X86836913Y-72105369D01*
X86838400Y-71953780D01*
X86859594Y-71793815D01*
X86928052Y-71737781D01*
X87071309Y-71743121D01*
G37*
G36*
X76864430Y-88689219D02*
G01*
X76819102Y-88792273D01*
X76693960Y-88944923D01*
X76526358Y-89079513D01*
X76399424Y-89101784D01*
X76353020Y-88987541D01*
X76300321Y-88897807D01*
X76097316Y-88859689D01*
X75917848Y-88886038D01*
X75841611Y-88987541D01*
X75826761Y-89047166D01*
X75713759Y-89115393D01*
X75654134Y-89130244D01*
X75585906Y-89243246D01*
X75571056Y-89302870D01*
X75458054Y-89371098D01*
X75398429Y-89356247D01*
X75330202Y-89243246D01*
X75345052Y-89183621D01*
X75458054Y-89115393D01*
X75547788Y-89062694D01*
X75585906Y-88859689D01*
X75611673Y-88684188D01*
X76353020Y-88684188D01*
X76361821Y-88731396D01*
X76447969Y-88817786D01*
X76554219Y-88800548D01*
X76577361Y-88774009D01*
X76598424Y-88656329D01*
X76480873Y-88603984D01*
X76422133Y-88613008D01*
X76353020Y-88684188D01*
X75611673Y-88684188D01*
X75612256Y-88680220D01*
X75713759Y-88603984D01*
X75773383Y-88589133D01*
X75841611Y-88476132D01*
X75894310Y-88386397D01*
X76097316Y-88348279D01*
X76276784Y-88321930D01*
X76353020Y-88220427D01*
X76354029Y-88205022D01*
X76408045Y-88137201D01*
X76567478Y-88102393D01*
X76864430Y-88092574D01*
X76926049Y-88092827D01*
X77197335Y-88106331D01*
X77336564Y-88146189D01*
X77375839Y-88220427D01*
X77391435Y-88274654D01*
X77506589Y-88331547D01*
X77759396Y-88348279D01*
X77922078Y-88353478D01*
X78092757Y-88391862D01*
X78142953Y-88476132D01*
X78157804Y-88535756D01*
X78270806Y-88603984D01*
X78330430Y-88618834D01*
X78398658Y-88731836D01*
X78413509Y-88791461D01*
X78526510Y-88859689D01*
X78580738Y-88875284D01*
X78636200Y-88987541D01*
X78637631Y-88990438D01*
X78654363Y-89243246D01*
X78659561Y-89405927D01*
X78697946Y-89576606D01*
X78782215Y-89626803D01*
X78841840Y-89641653D01*
X78910067Y-89754655D01*
X78908524Y-89778090D01*
X78839093Y-89870878D01*
X78719087Y-89860810D01*
X78621467Y-89749253D01*
X78581943Y-89687429D01*
X78484495Y-89669048D01*
X78431686Y-89664295D01*
X78398658Y-89546598D01*
X78370705Y-89431934D01*
X78230863Y-89371098D01*
X78125989Y-89348361D01*
X78112130Y-89243246D01*
X78123438Y-89177285D01*
X78064163Y-89115393D01*
X78013301Y-89130196D01*
X77918072Y-89243246D01*
X77881860Y-89302345D01*
X77750277Y-89371098D01*
X77695089Y-89356352D01*
X77631544Y-89243246D01*
X77617233Y-89183714D01*
X77507927Y-89115393D01*
X77425578Y-89090383D01*
X77322028Y-88987541D01*
X77631544Y-88987541D01*
X77646395Y-89047166D01*
X77759396Y-89115393D01*
X77819021Y-89100543D01*
X77887249Y-88987541D01*
X77872398Y-88927916D01*
X77759396Y-88859689D01*
X77699772Y-88874539D01*
X77631544Y-88987541D01*
X77322028Y-88987541D01*
X77300572Y-88966232D01*
X77268031Y-88909974D01*
X77212077Y-88862298D01*
X77159365Y-88966232D01*
X77141827Y-89002917D01*
X77033047Y-89099837D01*
X76917917Y-89100089D01*
X76864430Y-88996660D01*
X76879003Y-88936184D01*
X76992282Y-88828865D01*
X77052021Y-88795689D01*
X77120135Y-88691894D01*
X77105688Y-88651424D01*
X76992282Y-88603984D01*
X76933467Y-88613600D01*
X76894457Y-88656329D01*
X76864430Y-88689219D01*
G37*
G36*
X109594631Y-88689219D02*
G01*
X109568200Y-88763699D01*
X109450055Y-88915891D01*
X109295211Y-89054719D01*
X109168457Y-89115393D01*
X109129246Y-89100969D01*
X109083222Y-88987541D01*
X109030523Y-88897807D01*
X108827517Y-88859689D01*
X108648049Y-88886038D01*
X108571812Y-88987541D01*
X108556962Y-89047166D01*
X108443960Y-89115393D01*
X108384335Y-89130244D01*
X108316108Y-89243246D01*
X108301257Y-89302870D01*
X108188255Y-89371098D01*
X108128631Y-89356247D01*
X108060403Y-89243246D01*
X108075254Y-89183621D01*
X108188255Y-89115393D01*
X108277990Y-89062694D01*
X108316108Y-88859689D01*
X108341874Y-88684188D01*
X109083222Y-88684188D01*
X109092022Y-88731396D01*
X109178171Y-88817786D01*
X109284421Y-88800548D01*
X109307562Y-88774009D01*
X109328625Y-88656329D01*
X109211074Y-88603984D01*
X109152334Y-88613008D01*
X109083222Y-88684188D01*
X108341874Y-88684188D01*
X108342457Y-88680220D01*
X108443960Y-88603984D01*
X108503585Y-88589133D01*
X108571812Y-88476132D01*
X108624512Y-88386397D01*
X108827517Y-88348279D01*
X109006985Y-88321930D01*
X109083222Y-88220427D01*
X109084230Y-88205022D01*
X109138247Y-88137201D01*
X109297679Y-88102393D01*
X109594631Y-88092574D01*
X109656250Y-88092827D01*
X109927536Y-88106331D01*
X110066765Y-88146189D01*
X110106041Y-88220427D01*
X110121636Y-88274654D01*
X110236790Y-88331547D01*
X110489598Y-88348279D01*
X110652279Y-88353478D01*
X110822958Y-88391862D01*
X110873155Y-88476132D01*
X110888005Y-88535756D01*
X111001007Y-88603984D01*
X111060632Y-88618834D01*
X111128859Y-88731836D01*
X111143710Y-88791461D01*
X111256712Y-88859689D01*
X111310939Y-88875284D01*
X111366401Y-88987541D01*
X111367832Y-88990438D01*
X111384564Y-89243246D01*
X111389763Y-89405927D01*
X111428147Y-89576606D01*
X111512416Y-89626803D01*
X111572041Y-89641653D01*
X111640269Y-89754655D01*
X111638726Y-89778090D01*
X111569295Y-89870878D01*
X111449288Y-89860810D01*
X111351668Y-89749253D01*
X111312144Y-89687429D01*
X111214696Y-89669048D01*
X111161888Y-89664295D01*
X111128859Y-89546598D01*
X111100907Y-89431934D01*
X110961065Y-89371098D01*
X110856190Y-89348361D01*
X110842332Y-89243246D01*
X110853639Y-89177285D01*
X110794364Y-89115393D01*
X110743502Y-89130196D01*
X110648273Y-89243246D01*
X110612061Y-89302345D01*
X110480478Y-89371098D01*
X110425290Y-89356352D01*
X110361745Y-89243246D01*
X110347435Y-89183714D01*
X110238128Y-89115393D01*
X110155780Y-89090383D01*
X110052229Y-88987541D01*
X110361745Y-88987541D01*
X110376596Y-89047166D01*
X110489598Y-89115393D01*
X110549222Y-89100543D01*
X110617450Y-88987541D01*
X110602599Y-88927916D01*
X110489598Y-88859689D01*
X110429973Y-88874539D01*
X110361745Y-88987541D01*
X110052229Y-88987541D01*
X110030773Y-88966232D01*
X109998232Y-88909974D01*
X109942278Y-88862298D01*
X109889566Y-88966232D01*
X109872028Y-89002917D01*
X109763249Y-89099837D01*
X109648118Y-89100089D01*
X109594631Y-88996660D01*
X109609204Y-88936184D01*
X109722484Y-88828865D01*
X109782222Y-88795689D01*
X109850336Y-88691894D01*
X109835890Y-88651424D01*
X109722484Y-88603984D01*
X109663668Y-88613600D01*
X109624658Y-88656329D01*
X109594631Y-88689219D01*
G37*
G36*
X106796730Y-91604213D02*
G01*
X106909732Y-91672440D01*
X106999466Y-91725139D01*
X107037584Y-91928145D01*
X107063934Y-92107613D01*
X107165437Y-92183850D01*
X107255171Y-92236549D01*
X107260577Y-92265338D01*
X107293289Y-92439554D01*
X107305253Y-92521043D01*
X107319639Y-92619023D01*
X107421141Y-92695259D01*
X107480766Y-92710110D01*
X107548994Y-92823111D01*
X107535300Y-92882538D01*
X107430260Y-92950964D01*
X107369784Y-92936391D01*
X107262466Y-92823111D01*
X107229289Y-92763373D01*
X107125494Y-92695259D01*
X107085024Y-92709705D01*
X107037584Y-92823111D01*
X107052435Y-92882736D01*
X107165437Y-92950964D01*
X107225061Y-92965814D01*
X107293289Y-93078816D01*
X107308140Y-93138441D01*
X107421141Y-93206668D01*
X107480766Y-93221519D01*
X107548994Y-93334521D01*
X107534143Y-93394145D01*
X107421141Y-93462373D01*
X107361517Y-93447523D01*
X107293289Y-93334521D01*
X107261649Y-93259963D01*
X107122819Y-93206668D01*
X107026234Y-93192083D01*
X106973658Y-93131700D01*
X106973954Y-93116281D01*
X106907450Y-92997662D01*
X106760571Y-92837447D01*
X106724856Y-92802993D01*
X106583468Y-92640799D01*
X106539066Y-92554046D01*
X106817924Y-92554046D01*
X106853798Y-92644412D01*
X106891239Y-92657851D01*
X106997612Y-92605744D01*
X107025434Y-92521043D01*
X106972859Y-92450722D01*
X106858267Y-92499543D01*
X106817924Y-92554046D01*
X106539066Y-92554046D01*
X106526175Y-92528859D01*
X106511717Y-92487731D01*
X106398323Y-92439554D01*
X106338698Y-92424704D01*
X106270470Y-92311702D01*
X106267143Y-92298342D01*
X106562220Y-92298342D01*
X106598093Y-92388707D01*
X106635535Y-92402146D01*
X106741908Y-92350039D01*
X106769730Y-92265338D01*
X106717154Y-92195017D01*
X106602562Y-92243838D01*
X106562220Y-92298342D01*
X106267143Y-92298342D01*
X106255620Y-92252077D01*
X106142618Y-92183850D01*
X106082993Y-92198700D01*
X106014765Y-92311702D01*
X105999915Y-92371327D01*
X105886913Y-92439554D01*
X105786682Y-92410590D01*
X105778127Y-92293768D01*
X105905856Y-92099589D01*
X106041618Y-91975230D01*
X106196864Y-91940479D01*
X106303366Y-92061400D01*
X106344852Y-92122670D01*
X106453250Y-92133624D01*
X106497452Y-92071863D01*
X106411235Y-91969664D01*
X106332346Y-91895176D01*
X106270470Y-91769587D01*
X106255943Y-91724748D01*
X106142618Y-91672440D01*
X106082993Y-91687291D01*
X106014765Y-91800293D01*
X105952031Y-91900398D01*
X105794472Y-91925597D01*
X105597888Y-91876693D01*
X105418121Y-91757675D01*
X105344449Y-91670758D01*
X105280405Y-91544588D01*
X105503356Y-91544588D01*
X105518207Y-91604213D01*
X105631208Y-91672440D01*
X105690833Y-91657590D01*
X105759061Y-91544588D01*
X105744210Y-91484963D01*
X105631208Y-91416736D01*
X105571584Y-91431586D01*
X105503356Y-91544588D01*
X105280405Y-91544588D01*
X105261487Y-91507319D01*
X105258157Y-91384902D01*
X105343541Y-91352809D01*
X105394138Y-91357717D01*
X105469234Y-91306435D01*
X105445530Y-91210195D01*
X105327796Y-91135003D01*
X105282881Y-91121472D01*
X105185757Y-91053441D01*
X105228111Y-90982948D01*
X105386190Y-90927680D01*
X105636239Y-90905326D01*
X105791564Y-90910173D01*
X105963941Y-90948407D01*
X106014765Y-91033178D01*
X106067465Y-91122913D01*
X106270470Y-91161031D01*
X106449938Y-91187380D01*
X106526175Y-91288883D01*
X106541025Y-91348508D01*
X106654027Y-91416736D01*
X106713652Y-91431586D01*
X106781880Y-91544588D01*
X106796730Y-91604213D01*
G37*
G36*
X89138255Y-92780494D02*
G01*
X89092928Y-92883549D01*
X88967786Y-93036199D01*
X88800183Y-93170788D01*
X88673249Y-93193059D01*
X88626846Y-93078816D01*
X88574147Y-92989082D01*
X88371141Y-92950964D01*
X88191673Y-92977313D01*
X88115437Y-93078816D01*
X88101846Y-93138226D01*
X87997525Y-93206668D01*
X87917406Y-93242670D01*
X87832793Y-93385714D01*
X87783533Y-93485166D01*
X87694999Y-93508536D01*
X87612446Y-93396708D01*
X87626068Y-93267754D01*
X87731880Y-93206668D01*
X87821614Y-93153969D01*
X87859732Y-92950964D01*
X87885499Y-92775464D01*
X88626846Y-92775464D01*
X88635646Y-92822671D01*
X88721795Y-92909061D01*
X88828045Y-92891823D01*
X88851186Y-92865285D01*
X88872249Y-92747605D01*
X88754698Y-92695259D01*
X88695958Y-92704283D01*
X88626846Y-92775464D01*
X87885499Y-92775464D01*
X87886082Y-92771495D01*
X87987584Y-92695259D01*
X88047209Y-92680408D01*
X88115437Y-92567407D01*
X88168136Y-92477673D01*
X88371141Y-92439554D01*
X88550610Y-92413205D01*
X88626846Y-92311702D01*
X88627250Y-92302411D01*
X88665493Y-92243257D01*
X88786603Y-92207016D01*
X89019715Y-92188832D01*
X89393960Y-92183850D01*
X89449706Y-92183917D01*
X89804628Y-92190291D01*
X90022075Y-92210476D01*
X90131180Y-92249328D01*
X90161074Y-92311702D01*
X90213773Y-92401436D01*
X90416779Y-92439554D01*
X90596247Y-92465904D01*
X90672484Y-92567407D01*
X90687334Y-92627031D01*
X90800336Y-92695259D01*
X90859961Y-92710110D01*
X90928188Y-92823111D01*
X90943039Y-92882736D01*
X91056041Y-92950964D01*
X91071445Y-92951972D01*
X91139267Y-93005989D01*
X91174074Y-93165421D01*
X91179665Y-93334521D01*
X91183893Y-93462373D01*
X91183641Y-93523992D01*
X91182652Y-93543861D01*
X91170137Y-93795278D01*
X91130279Y-93934507D01*
X91056041Y-93973783D01*
X90996416Y-93958932D01*
X90928188Y-93845930D01*
X90918255Y-93787072D01*
X90840278Y-93718078D01*
X90793481Y-93732989D01*
X90703307Y-93845930D01*
X90667095Y-93905030D01*
X90535512Y-93973783D01*
X90480324Y-93959037D01*
X90416779Y-93845930D01*
X90401928Y-93786306D01*
X90288927Y-93718078D01*
X90229302Y-93703227D01*
X90161074Y-93590225D01*
X90157747Y-93576865D01*
X90452824Y-93576865D01*
X90488697Y-93667230D01*
X90526139Y-93680670D01*
X90632512Y-93628562D01*
X90660334Y-93543861D01*
X90607758Y-93473541D01*
X90493166Y-93522361D01*
X90452824Y-93576865D01*
X90157747Y-93576865D01*
X90146224Y-93530601D01*
X90033222Y-93462373D01*
X89973597Y-93447523D01*
X89905369Y-93334521D01*
X90233524Y-93334521D01*
X90237090Y-93358041D01*
X90325151Y-93446036D01*
X90373531Y-93440602D01*
X90416779Y-93334521D01*
X90402872Y-93264150D01*
X90325151Y-93223005D01*
X90299881Y-93234580D01*
X90233524Y-93334521D01*
X89905369Y-93334521D01*
X89920220Y-93274896D01*
X90033222Y-93206668D01*
X90092846Y-93191818D01*
X90161074Y-93078816D01*
X90146224Y-93019191D01*
X90033222Y-92950964D01*
X89973597Y-92965814D01*
X89905369Y-93078816D01*
X89890519Y-93138441D01*
X89777517Y-93206668D01*
X89717893Y-93221519D01*
X89649665Y-93334521D01*
X89634814Y-93394145D01*
X89521812Y-93462373D01*
X89410597Y-93415040D01*
X89417180Y-93298310D01*
X89542987Y-93159108D01*
X89619778Y-93076670D01*
X89621253Y-92979375D01*
X89554198Y-92967682D01*
X89441521Y-93057641D01*
X89359480Y-93144665D01*
X89235402Y-93206668D01*
X89214799Y-93204926D01*
X89143569Y-93133711D01*
X89163395Y-93013374D01*
X89266108Y-92920141D01*
X89325846Y-92886964D01*
X89393960Y-92783169D01*
X89379514Y-92742699D01*
X89266108Y-92695259D01*
X89207292Y-92704875D01*
X89168281Y-92747605D01*
X89138255Y-92780494D01*
G37*
G36*
X92441108Y-71743121D02*
G01*
X92565757Y-71767040D01*
X92643086Y-71833127D01*
X92680936Y-71983086D01*
X92701066Y-72260192D01*
X92724119Y-72522592D01*
X92772195Y-72697645D01*
X92850227Y-72750293D01*
X92905744Y-72763025D01*
X92973826Y-72869026D01*
X92988399Y-72929502D01*
X93101678Y-73036820D01*
X93108464Y-73040235D01*
X93135049Y-73075707D01*
X93157515Y-73154326D01*
X93176197Y-73288825D01*
X93191428Y-73491936D01*
X93203543Y-73776390D01*
X93212877Y-74154920D01*
X93219764Y-74640258D01*
X93224539Y-75245136D01*
X93227535Y-75982286D01*
X93229087Y-76864439D01*
X93229531Y-77904329D01*
X93229494Y-78243334D01*
X93228773Y-79231033D01*
X93226877Y-80064788D01*
X93223471Y-80757214D01*
X93218220Y-81320927D01*
X93210788Y-81768546D01*
X93200843Y-82112685D01*
X93188048Y-82365962D01*
X93172068Y-82540993D01*
X93152570Y-82650394D01*
X93129218Y-82706783D01*
X93101678Y-82722776D01*
X93042054Y-82707925D01*
X92973826Y-82594923D01*
X92958975Y-82535299D01*
X92845974Y-82467071D01*
X92772049Y-82435994D01*
X92718121Y-82299276D01*
X92695385Y-82194402D01*
X92590269Y-82180543D01*
X92514824Y-82189413D01*
X92462416Y-82092633D01*
X92445409Y-82024584D01*
X92334564Y-81955662D01*
X92274939Y-81940811D01*
X92206712Y-81827809D01*
X92191861Y-81768185D01*
X92078859Y-81699957D01*
X91989125Y-81647258D01*
X91951007Y-81444252D01*
X91951007Y-81188548D01*
X92512137Y-81188548D01*
X92547986Y-81188472D01*
X92850925Y-81176954D01*
X93007266Y-81142883D01*
X93038014Y-81082004D01*
X92971199Y-81030204D01*
X92738969Y-80979570D01*
X92349032Y-80950566D01*
X91695302Y-80925672D01*
X91695302Y-80417848D01*
X91695302Y-79910024D01*
X92374506Y-79910024D01*
X92396518Y-79910013D01*
X92729000Y-79904666D01*
X92921797Y-79885510D01*
X93003987Y-79846645D01*
X93004649Y-79782172D01*
X92987593Y-79752378D01*
X92884729Y-79693995D01*
X92674387Y-79663262D01*
X92325445Y-79654319D01*
X91695302Y-79654319D01*
X91695302Y-79142910D01*
X91695302Y-78631501D01*
X92384284Y-78631501D01*
X92582471Y-78629783D01*
X92864906Y-78614597D01*
X93009585Y-78580823D01*
X93038014Y-78524957D01*
X92971199Y-78473157D01*
X92738969Y-78422523D01*
X92349032Y-78393519D01*
X91695302Y-78368625D01*
X91695302Y-77860801D01*
X91695302Y-77352977D01*
X92362976Y-77352977D01*
X92646319Y-77349293D01*
X92880141Y-77330764D01*
X92998098Y-77291319D01*
X93030649Y-77225125D01*
X93011410Y-77170868D01*
X92914648Y-77126093D01*
X92708656Y-77103506D01*
X92362976Y-77097272D01*
X91695302Y-77097272D01*
X91695302Y-76585863D01*
X91695302Y-76074454D01*
X92334564Y-76074454D01*
X92579962Y-76071524D01*
X92819327Y-76053626D01*
X92940339Y-76014040D01*
X92973826Y-75946601D01*
X92959179Y-75897522D01*
X92869686Y-75849649D01*
X92671757Y-75825446D01*
X92334564Y-75818749D01*
X91695302Y-75818749D01*
X91695302Y-75307340D01*
X91695302Y-74795930D01*
X92384284Y-74795930D01*
X92582471Y-74794212D01*
X92864906Y-74779026D01*
X93009585Y-74745253D01*
X93038014Y-74689387D01*
X92971199Y-74637586D01*
X92738969Y-74586953D01*
X92349032Y-74557949D01*
X91695302Y-74533055D01*
X91695302Y-74025231D01*
X91695302Y-73517407D01*
X92334564Y-73517407D01*
X92579962Y-73514477D01*
X92819327Y-73496579D01*
X92940339Y-73456993D01*
X92973826Y-73389554D01*
X92959179Y-73340475D01*
X92869686Y-73292602D01*
X92671757Y-73268399D01*
X92334564Y-73261702D01*
X92089167Y-73258773D01*
X91849801Y-73240874D01*
X91728789Y-73201288D01*
X91695302Y-73133850D01*
X91710153Y-73074225D01*
X91823155Y-73005997D01*
X91912889Y-72953298D01*
X91951007Y-72750293D01*
X91977357Y-72570824D01*
X92078859Y-72494588D01*
X92134992Y-72477552D01*
X92190447Y-72360226D01*
X92206712Y-72105369D01*
X92208199Y-71953780D01*
X92229393Y-71793815D01*
X92297851Y-71737781D01*
X92441108Y-71743121D01*
G37*
G36*
X121120086Y-90348816D02*
G01*
X121229195Y-90363094D01*
X121259995Y-90355761D01*
X121309406Y-90387691D01*
X121338962Y-90507575D01*
X121353298Y-90742884D01*
X121353641Y-90777474D01*
X121357047Y-91121088D01*
X121356783Y-91234709D01*
X121349777Y-91567329D01*
X121349489Y-91581005D01*
X121328815Y-91792935D01*
X121290228Y-91899111D01*
X121229195Y-91928145D01*
X121166853Y-91945281D01*
X121101343Y-92062247D01*
X121079017Y-92135264D01*
X120952182Y-92166690D01*
X120860723Y-92116922D01*
X120829785Y-91946771D01*
X120822671Y-91824233D01*
X120723242Y-91705357D01*
X120622926Y-91630969D01*
X120606528Y-91521846D01*
X120881364Y-91521846D01*
X120923593Y-91625324D01*
X120950749Y-91636715D01*
X121054226Y-91594485D01*
X121065617Y-91567329D01*
X121023388Y-91463852D01*
X120996232Y-91452461D01*
X120892755Y-91494691D01*
X120881364Y-91521846D01*
X120606528Y-91521846D01*
X120602455Y-91494739D01*
X120717786Y-91385912D01*
X120777524Y-91352736D01*
X120845638Y-91248941D01*
X120831192Y-91208471D01*
X120717786Y-91161031D01*
X120658161Y-91146180D01*
X120589933Y-91033178D01*
X120579747Y-90974286D01*
X120499894Y-90905326D01*
X120469828Y-90896842D01*
X120334291Y-90801460D01*
X120162203Y-90634183D01*
X120149178Y-90619965D01*
X120077030Y-90548405D01*
X120353762Y-90548405D01*
X120355569Y-90600063D01*
X120454978Y-90649621D01*
X120521158Y-90666159D01*
X120589933Y-90777474D01*
X120604784Y-90837098D01*
X120717786Y-90905326D01*
X120777410Y-90890476D01*
X120845638Y-90777474D01*
X120830787Y-90717849D01*
X120717786Y-90649621D01*
X120655089Y-90632165D01*
X120589933Y-90514666D01*
X120540734Y-90421535D01*
X120438600Y-90435847D01*
X120353762Y-90548405D01*
X120077030Y-90548405D01*
X119995836Y-90467873D01*
X119910737Y-90434827D01*
X119859567Y-90506331D01*
X119819557Y-90581181D01*
X119728465Y-90649621D01*
X119653732Y-90620702D01*
X119505849Y-90500834D01*
X119370594Y-90346805D01*
X119320946Y-90243323D01*
X119602840Y-90243323D01*
X119645069Y-90346800D01*
X119672225Y-90358191D01*
X119775702Y-90315962D01*
X119787093Y-90288806D01*
X119744864Y-90185329D01*
X119717708Y-90173938D01*
X119614231Y-90216167D01*
X119602840Y-90243323D01*
X119320946Y-90243323D01*
X119311410Y-90223447D01*
X119296985Y-90184236D01*
X119183557Y-90138212D01*
X119124742Y-90147828D01*
X119055705Y-90223447D01*
X119022944Y-90303733D01*
X118991302Y-90344717D01*
X118908042Y-90452561D01*
X118767034Y-90589523D01*
X118660236Y-90649621D01*
X118605905Y-90620036D01*
X118495640Y-90500460D01*
X118447584Y-90438164D01*
X118378907Y-90403519D01*
X118315774Y-90521769D01*
X118286372Y-90583346D01*
X118174333Y-90701232D01*
X118075445Y-90680706D01*
X118032886Y-90521769D01*
X118057910Y-90382777D01*
X118160739Y-90308682D01*
X118244134Y-90266976D01*
X118246213Y-90258961D01*
X118544296Y-90258961D01*
X118561836Y-90325290D01*
X118679251Y-90393917D01*
X118772382Y-90344717D01*
X118758070Y-90242583D01*
X118645512Y-90157745D01*
X118593855Y-90159553D01*
X118544296Y-90258961D01*
X118246213Y-90258961D01*
X118288591Y-90095595D01*
X118313615Y-89956602D01*
X118416443Y-89882507D01*
X118476068Y-89867657D01*
X118544296Y-89754655D01*
X118535750Y-89695973D01*
X118468180Y-89626803D01*
X118426667Y-89641865D01*
X118343003Y-89754655D01*
X118326843Y-89787781D01*
X118214045Y-89873086D01*
X118090804Y-89858262D01*
X118032886Y-89745536D01*
X118014142Y-89671903D01*
X117905034Y-89657626D01*
X117807257Y-89648491D01*
X117777182Y-89498950D01*
X117805896Y-89351099D01*
X117905034Y-89340275D01*
X117980478Y-89349145D01*
X118032886Y-89252365D01*
X118053485Y-89183517D01*
X118168534Y-89130301D01*
X118416443Y-89115393D01*
X118579125Y-89120592D01*
X118749804Y-89158976D01*
X118800000Y-89243246D01*
X118814851Y-89302870D01*
X118927853Y-89371098D01*
X119017587Y-89423797D01*
X119055705Y-89626803D01*
X119082055Y-89806271D01*
X119183557Y-89882507D01*
X119243182Y-89867657D01*
X119311410Y-89754655D01*
X119326057Y-89705575D01*
X119415549Y-89657702D01*
X119613478Y-89633500D01*
X119950671Y-89626803D01*
X120196069Y-89629732D01*
X120435434Y-89647631D01*
X120556447Y-89687216D01*
X120589933Y-89754655D01*
X120604784Y-89814280D01*
X120717786Y-89882507D01*
X120777410Y-89897358D01*
X120845638Y-90010360D01*
X120860488Y-90069984D01*
X120973490Y-90138212D01*
X121037009Y-90156433D01*
X121101343Y-90275184D01*
X121104810Y-90288806D01*
X121120086Y-90348816D01*
G37*
G36*
X96568542Y-90325689D02*
G01*
X96681544Y-90393917D01*
X96690835Y-90394321D01*
X96749989Y-90432563D01*
X96786230Y-90553674D01*
X96803688Y-90777474D01*
X96804414Y-90786786D01*
X96809396Y-91161031D01*
X96809329Y-91216777D01*
X96803033Y-91567329D01*
X96802955Y-91571699D01*
X96782770Y-91789146D01*
X96743918Y-91898251D01*
X96681544Y-91928145D01*
X96619202Y-91945281D01*
X96553692Y-92062247D01*
X96531366Y-92135264D01*
X96404531Y-92166690D01*
X96313072Y-92116922D01*
X96282134Y-91946771D01*
X96275020Y-91824233D01*
X96175591Y-91705357D01*
X96075275Y-91630969D01*
X96058877Y-91521846D01*
X96333713Y-91521846D01*
X96375942Y-91625324D01*
X96403098Y-91636715D01*
X96506575Y-91594485D01*
X96517966Y-91567329D01*
X96475737Y-91463852D01*
X96448581Y-91452461D01*
X96345104Y-91494691D01*
X96333713Y-91521846D01*
X96058877Y-91521846D01*
X96054804Y-91494739D01*
X96170135Y-91385912D01*
X96229873Y-91352736D01*
X96297987Y-91248941D01*
X96283541Y-91208471D01*
X96170135Y-91161031D01*
X96110510Y-91146180D01*
X96042282Y-91033178D01*
X96032096Y-90974286D01*
X95952243Y-90905326D01*
X95922177Y-90896842D01*
X95786640Y-90801460D01*
X95614552Y-90634183D01*
X95601527Y-90619965D01*
X95529379Y-90548405D01*
X95806111Y-90548405D01*
X95807918Y-90600063D01*
X95907327Y-90649621D01*
X95973507Y-90666159D01*
X96042282Y-90777474D01*
X96057133Y-90837098D01*
X96170135Y-90905326D01*
X96229759Y-90890476D01*
X96297987Y-90777474D01*
X96283136Y-90717849D01*
X96170135Y-90649621D01*
X96107438Y-90632165D01*
X96042282Y-90514666D01*
X95993083Y-90421535D01*
X95890949Y-90435847D01*
X95806111Y-90548405D01*
X95529379Y-90548405D01*
X95448185Y-90467873D01*
X95363086Y-90434827D01*
X95311916Y-90506331D01*
X95271906Y-90581181D01*
X95180814Y-90649621D01*
X95106081Y-90620702D01*
X94958198Y-90500834D01*
X94822943Y-90346805D01*
X94773295Y-90243323D01*
X95055189Y-90243323D01*
X95097418Y-90346800D01*
X95124574Y-90358191D01*
X95228051Y-90315962D01*
X95239442Y-90288806D01*
X95197213Y-90185329D01*
X95170057Y-90173938D01*
X95066580Y-90216167D01*
X95055189Y-90243323D01*
X94773295Y-90243323D01*
X94763759Y-90223447D01*
X94749334Y-90184236D01*
X94635906Y-90138212D01*
X94577091Y-90147828D01*
X94508054Y-90223447D01*
X94462727Y-90326502D01*
X94337584Y-90479152D01*
X94169982Y-90613741D01*
X94043048Y-90636012D01*
X93996645Y-90521769D01*
X94014101Y-90459073D01*
X94131600Y-90393917D01*
X94224731Y-90344717D01*
X94210419Y-90242583D01*
X94097861Y-90157745D01*
X94046204Y-90159553D01*
X93996645Y-90258961D01*
X93980107Y-90325141D01*
X93868792Y-90393917D01*
X93809365Y-90407611D01*
X93740940Y-90512650D01*
X93726367Y-90573126D01*
X93613088Y-90680445D01*
X93514711Y-90670303D01*
X93485235Y-90519094D01*
X93509430Y-90385038D01*
X93591779Y-90329991D01*
X93672472Y-90281798D01*
X93725293Y-90116903D01*
X93774426Y-89957603D01*
X93874454Y-89882507D01*
X93931320Y-89867723D01*
X93996645Y-89754655D01*
X93974867Y-89646773D01*
X93891149Y-89659479D01*
X93734784Y-89818581D01*
X93573451Y-90010360D01*
X93519402Y-89818581D01*
X93452775Y-89676098D01*
X93352024Y-89636493D01*
X93260354Y-89754655D01*
X93224141Y-89813755D01*
X93092559Y-89882507D01*
X93037371Y-89867762D01*
X92973826Y-89754655D01*
X92988676Y-89695030D01*
X93101678Y-89626803D01*
X93161303Y-89611952D01*
X93229531Y-89498950D01*
X93244381Y-89439326D01*
X93357383Y-89371098D01*
X93417008Y-89356247D01*
X93485235Y-89243246D01*
X93500831Y-89189018D01*
X93615985Y-89132125D01*
X93868792Y-89115393D01*
X94031474Y-89120592D01*
X94202153Y-89158976D01*
X94252349Y-89243246D01*
X94267200Y-89302870D01*
X94380202Y-89371098D01*
X94469936Y-89423797D01*
X94508054Y-89626803D01*
X94534404Y-89806271D01*
X94635906Y-89882507D01*
X94695531Y-89867657D01*
X94763759Y-89754655D01*
X94778406Y-89705575D01*
X94867898Y-89657702D01*
X95065827Y-89633500D01*
X95403020Y-89626803D01*
X95648418Y-89629732D01*
X95887783Y-89647631D01*
X96008796Y-89687216D01*
X96042282Y-89754655D01*
X96057133Y-89814280D01*
X96170135Y-89882507D01*
X96229759Y-89897358D01*
X96297987Y-90010360D01*
X96312837Y-90069984D01*
X96425839Y-90138212D01*
X96485464Y-90153063D01*
X96553692Y-90266064D01*
X96559356Y-90288806D01*
X96568542Y-90325689D01*
G37*
G36*
X104751093Y-90325689D02*
G01*
X104864094Y-90393917D01*
X104873385Y-90394321D01*
X104932539Y-90432563D01*
X104968780Y-90553674D01*
X104986238Y-90777474D01*
X104986964Y-90786786D01*
X104991947Y-91161031D01*
X104991879Y-91216777D01*
X104985584Y-91567329D01*
X104985506Y-91571699D01*
X104965320Y-91789146D01*
X104926468Y-91898251D01*
X104864094Y-91928145D01*
X104801752Y-91945281D01*
X104736242Y-92062247D01*
X104713916Y-92135264D01*
X104587081Y-92166690D01*
X104495623Y-92116922D01*
X104464685Y-91946771D01*
X104457571Y-91824233D01*
X104358141Y-91705357D01*
X104257825Y-91630969D01*
X104241428Y-91521846D01*
X104516263Y-91521846D01*
X104558492Y-91625324D01*
X104585648Y-91636715D01*
X104689125Y-91594485D01*
X104700516Y-91567329D01*
X104658287Y-91463852D01*
X104631131Y-91452461D01*
X104527654Y-91494691D01*
X104516263Y-91521846D01*
X104241428Y-91521846D01*
X104237355Y-91494739D01*
X104352685Y-91385912D01*
X104412424Y-91352736D01*
X104480537Y-91248941D01*
X104466091Y-91208471D01*
X104352685Y-91161031D01*
X104293060Y-91146180D01*
X104224833Y-91033178D01*
X104214646Y-90974286D01*
X104134793Y-90905326D01*
X104104727Y-90896842D01*
X103969191Y-90801460D01*
X103797102Y-90634183D01*
X103784078Y-90619965D01*
X103711930Y-90548405D01*
X103988661Y-90548405D01*
X103990469Y-90600063D01*
X104089877Y-90649621D01*
X104156057Y-90666159D01*
X104224833Y-90777474D01*
X104239683Y-90837098D01*
X104352685Y-90905326D01*
X104412310Y-90890476D01*
X104480537Y-90777474D01*
X104465687Y-90717849D01*
X104352685Y-90649621D01*
X104289988Y-90632165D01*
X104224833Y-90514666D01*
X104175633Y-90421535D01*
X104073499Y-90435847D01*
X103988661Y-90548405D01*
X103711930Y-90548405D01*
X103630736Y-90467873D01*
X103545636Y-90434827D01*
X103494466Y-90506331D01*
X103454457Y-90581181D01*
X103363364Y-90649621D01*
X103288631Y-90620702D01*
X103140749Y-90500834D01*
X103005493Y-90346805D01*
X102955845Y-90243323D01*
X103237739Y-90243323D01*
X103279969Y-90346800D01*
X103307125Y-90358191D01*
X103410602Y-90315962D01*
X103421993Y-90288806D01*
X103379764Y-90185329D01*
X103352608Y-90173938D01*
X103249130Y-90216167D01*
X103237739Y-90243323D01*
X102955845Y-90243323D01*
X102946309Y-90223447D01*
X102931885Y-90184236D01*
X102818457Y-90138212D01*
X102759228Y-90150684D01*
X102690604Y-90247122D01*
X102676220Y-90301495D01*
X102674878Y-90303355D01*
X102568218Y-90451169D01*
X102410961Y-90589076D01*
X102272575Y-90649621D01*
X102231500Y-90634546D01*
X102148372Y-90521769D01*
X102072470Y-90418767D01*
X101972058Y-90406439D01*
X101923490Y-90512650D01*
X101908917Y-90573126D01*
X101795638Y-90680445D01*
X101697262Y-90670303D01*
X101667786Y-90519094D01*
X101691980Y-90385038D01*
X101774329Y-90329991D01*
X101855023Y-90281798D01*
X101872008Y-90228774D01*
X102195177Y-90228774D01*
X102215164Y-90270020D01*
X102344338Y-90377935D01*
X102395651Y-90382604D01*
X102418918Y-90303355D01*
X102398931Y-90262108D01*
X102269757Y-90154194D01*
X102218444Y-90149525D01*
X102195177Y-90228774D01*
X101872008Y-90228774D01*
X101907843Y-90116903D01*
X101956976Y-89957603D01*
X102057004Y-89882507D01*
X102113870Y-89867723D01*
X102179195Y-89754655D01*
X102141357Y-89640565D01*
X102038588Y-89661801D01*
X101894533Y-89818581D01*
X101759548Y-90010360D01*
X101703726Y-89818581D01*
X101636027Y-89676336D01*
X101534659Y-89636513D01*
X101442904Y-89754655D01*
X101432167Y-89777442D01*
X101330053Y-89865101D01*
X101212571Y-89875923D01*
X101156376Y-89798247D01*
X101167857Y-89743729D01*
X101270376Y-89582259D01*
X101425701Y-89435275D01*
X101567995Y-89371098D01*
X101625126Y-89353372D01*
X101636962Y-89243246D01*
X101634024Y-89235117D01*
X101643569Y-89161296D01*
X101758660Y-89125042D01*
X102011400Y-89115393D01*
X102230344Y-89123389D01*
X102389023Y-89162620D01*
X102434900Y-89243246D01*
X102449750Y-89302870D01*
X102562752Y-89371098D01*
X102652486Y-89423797D01*
X102690604Y-89626803D01*
X102716954Y-89806271D01*
X102818457Y-89882507D01*
X102878081Y-89867657D01*
X102946309Y-89754655D01*
X102960956Y-89705575D01*
X103050449Y-89657702D01*
X103248378Y-89633500D01*
X103585571Y-89626803D01*
X103830968Y-89629732D01*
X104070334Y-89647631D01*
X104191346Y-89687216D01*
X104224833Y-89754655D01*
X104239683Y-89814280D01*
X104352685Y-89882507D01*
X104412310Y-89897358D01*
X104480537Y-90010360D01*
X104495388Y-90069984D01*
X104608390Y-90138212D01*
X104668014Y-90153063D01*
X104736242Y-90266064D01*
X104741906Y-90288806D01*
X104751093Y-90325689D01*
G37*
G36*
X92973826Y-90777474D02*
G01*
X92988676Y-90837098D01*
X93101678Y-90905326D01*
X93155905Y-90920922D01*
X93212798Y-91036076D01*
X93229531Y-91288883D01*
X93234729Y-91451565D01*
X93245222Y-91498224D01*
X93273114Y-91622244D01*
X93357383Y-91672440D01*
X93423481Y-91698927D01*
X93471385Y-91828873D01*
X93485235Y-92095940D01*
X93485181Y-92122845D01*
X93473747Y-92362982D01*
X93434802Y-92468125D01*
X93357383Y-92470378D01*
X93270484Y-92374445D01*
X93229531Y-92174730D01*
X93203447Y-92003935D01*
X93101678Y-91928145D01*
X93042356Y-91915087D01*
X92973826Y-91814498D01*
X92959135Y-91761767D01*
X92845974Y-91700852D01*
X92786651Y-91713910D01*
X92718121Y-91814498D01*
X92703431Y-91867230D01*
X92590269Y-91928145D01*
X92530644Y-91942995D01*
X92462416Y-92055997D01*
X92447566Y-92115622D01*
X92334564Y-92183850D01*
X92274939Y-92168999D01*
X92206712Y-92055997D01*
X92221562Y-91996373D01*
X92334564Y-91928145D01*
X92394189Y-91913294D01*
X92462416Y-91800293D01*
X92447566Y-91740668D01*
X92334564Y-91672440D01*
X92274939Y-91657590D01*
X92206712Y-91544588D01*
X92203384Y-91531228D01*
X92498461Y-91531228D01*
X92534335Y-91621593D01*
X92571776Y-91635032D01*
X92678149Y-91582925D01*
X92705971Y-91498224D01*
X92653396Y-91427903D01*
X92538804Y-91476724D01*
X92498461Y-91531228D01*
X92203384Y-91531228D01*
X92191861Y-91484963D01*
X92078859Y-91416736D01*
X92019235Y-91401885D01*
X91951007Y-91288883D01*
X92279161Y-91288883D01*
X92282728Y-91312404D01*
X92370789Y-91400399D01*
X92419168Y-91394964D01*
X92462416Y-91288883D01*
X92448509Y-91218512D01*
X92370789Y-91177368D01*
X92345519Y-91188942D01*
X92279161Y-91288883D01*
X91951007Y-91288883D01*
X91965858Y-91229259D01*
X92078859Y-91161031D01*
X92138484Y-91146180D01*
X92206712Y-91033178D01*
X92191861Y-90973554D01*
X92078859Y-90905326D01*
X92019235Y-90920177D01*
X91979001Y-90986814D01*
X91951007Y-91033178D01*
X91936157Y-91092803D01*
X91823155Y-91161031D01*
X91763530Y-91175881D01*
X91695302Y-91288883D01*
X91680452Y-91348508D01*
X91567450Y-91416736D01*
X91507825Y-91401885D01*
X91439598Y-91288883D01*
X91424747Y-91229259D01*
X91311745Y-91161031D01*
X91252121Y-91146180D01*
X91183893Y-91033178D01*
X91180565Y-91019818D01*
X91475642Y-91019818D01*
X91511516Y-91110183D01*
X91548958Y-91123623D01*
X91655330Y-91071516D01*
X91683153Y-90986814D01*
X91630577Y-90916494D01*
X91515985Y-90965314D01*
X91475642Y-91019818D01*
X91180565Y-91019818D01*
X91169042Y-90973554D01*
X91056041Y-90905326D01*
X90996416Y-90920177D01*
X90928188Y-91033178D01*
X90913338Y-91092803D01*
X90800336Y-91161031D01*
X90740711Y-91146180D01*
X90672484Y-91033178D01*
X90619784Y-90943444D01*
X90416779Y-90905326D01*
X90237311Y-90931676D01*
X90161074Y-91033178D01*
X90147483Y-91092588D01*
X90043163Y-91161031D01*
X89963044Y-91197032D01*
X89878430Y-91340077D01*
X89829170Y-91439529D01*
X89740637Y-91462899D01*
X89658083Y-91351070D01*
X89671706Y-91222116D01*
X89777517Y-91161031D01*
X89867251Y-91108332D01*
X89905369Y-90905326D01*
X89931136Y-90729826D01*
X90672484Y-90729826D01*
X90681284Y-90777034D01*
X90767432Y-90863423D01*
X90873682Y-90846186D01*
X90896824Y-90819647D01*
X90912901Y-90729826D01*
X91183893Y-90729826D01*
X91192693Y-90777034D01*
X91278842Y-90863423D01*
X91385092Y-90846186D01*
X91408233Y-90819647D01*
X91429296Y-90701967D01*
X91311745Y-90649621D01*
X91253005Y-90658645D01*
X91210942Y-90701967D01*
X91183893Y-90729826D01*
X90912901Y-90729826D01*
X90917887Y-90701967D01*
X90800336Y-90649621D01*
X90741596Y-90658645D01*
X90672484Y-90729826D01*
X89931136Y-90729826D01*
X89931719Y-90725858D01*
X90033222Y-90649621D01*
X90092846Y-90634771D01*
X90161074Y-90521769D01*
X90213773Y-90432035D01*
X90416779Y-90393917D01*
X90596247Y-90367567D01*
X90672484Y-90266064D01*
X90673756Y-90248891D01*
X90729290Y-90182108D01*
X90890319Y-90147862D01*
X91188923Y-90138212D01*
X91408901Y-90132029D01*
X91607389Y-90102846D01*
X91652313Y-90052375D01*
X91648807Y-89993404D01*
X91748715Y-89909188D01*
X91837612Y-89892994D01*
X91934905Y-89962052D01*
X91975472Y-90026779D01*
X92045255Y-89956078D01*
X92103450Y-89889760D01*
X92120172Y-89975841D01*
X92139385Y-90063375D01*
X92256891Y-90229624D01*
X92427223Y-90347487D01*
X92587094Y-90364312D01*
X92677771Y-90360106D01*
X92718121Y-90481827D01*
X92741801Y-90578846D01*
X92845974Y-90649621D01*
X92905598Y-90664472D01*
X92928237Y-90701967D01*
X92973826Y-90777474D01*
G37*
G36*
X81581236Y-87536022D02*
G01*
X81762762Y-87581165D01*
X81904286Y-87606277D01*
X81978524Y-87709017D01*
X81993374Y-87768642D01*
X82106376Y-87836870D01*
X82190238Y-87879249D01*
X82192767Y-87889215D01*
X82234229Y-88052632D01*
X82264781Y-88203936D01*
X82362081Y-88317456D01*
X82439033Y-88396916D01*
X82490802Y-88591475D01*
X82490955Y-88731836D01*
X82491060Y-88827468D01*
X82453133Y-88987541D01*
X82441337Y-89037326D01*
X82343161Y-89153477D01*
X82326352Y-89160056D01*
X82245130Y-89216271D01*
X82321257Y-89286972D01*
X82422740Y-89311715D01*
X82507375Y-89198571D01*
X82545395Y-89129864D01*
X82658596Y-89074176D01*
X82755846Y-89134688D01*
X82769692Y-89288320D01*
X82729744Y-89377676D01*
X82640605Y-89431976D01*
X82603784Y-89433308D01*
X82514793Y-89520259D01*
X82514055Y-89575072D01*
X82610683Y-89626803D01*
X82689252Y-89656013D01*
X82745638Y-89797272D01*
X82740024Y-89896006D01*
X82715467Y-89967742D01*
X82690358Y-89959404D01*
X82570662Y-89866386D01*
X82419248Y-89714794D01*
X82289357Y-89560757D01*
X82234229Y-89460403D01*
X82219771Y-89419275D01*
X82106376Y-89371098D01*
X82046752Y-89356247D01*
X81978524Y-89243246D01*
X81963673Y-89183621D01*
X81850671Y-89115393D01*
X81791047Y-89100543D01*
X81722819Y-88987541D01*
X82063759Y-88987541D01*
X82073375Y-89046357D01*
X82148994Y-89115393D01*
X82188204Y-89100969D01*
X82234229Y-88987541D01*
X82224612Y-88928725D01*
X82148994Y-88859689D01*
X82109783Y-88874113D01*
X82063759Y-88987541D01*
X81722819Y-88987541D01*
X81707969Y-88927916D01*
X81594967Y-88859689D01*
X81535342Y-88844838D01*
X81467114Y-88731836D01*
X81457613Y-88673035D01*
X81382854Y-88603984D01*
X81325419Y-88590984D01*
X81165605Y-88488534D01*
X81019576Y-88337224D01*
X80957153Y-88204561D01*
X81240132Y-88204561D01*
X81326350Y-88306760D01*
X81405238Y-88381248D01*
X81467114Y-88506837D01*
X81478506Y-88548237D01*
X81585848Y-88603984D01*
X81646324Y-88618557D01*
X81753642Y-88731836D01*
X81786819Y-88791575D01*
X81890614Y-88859689D01*
X81931084Y-88845242D01*
X81978524Y-88731836D01*
X81963673Y-88672212D01*
X81850671Y-88603984D01*
X81791047Y-88589133D01*
X81722819Y-88476132D01*
X81709125Y-88416704D01*
X81604086Y-88348279D01*
X81540424Y-88331640D01*
X81434218Y-88215024D01*
X81392733Y-88153754D01*
X81284334Y-88142800D01*
X81240132Y-88204561D01*
X80957153Y-88204561D01*
X80955705Y-88201484D01*
X80941064Y-88151031D01*
X80827853Y-88092574D01*
X80768228Y-88077724D01*
X80700000Y-87964722D01*
X80691088Y-87917074D01*
X80955705Y-87917074D01*
X80964505Y-87964282D01*
X81050654Y-88050672D01*
X81156904Y-88033434D01*
X81180045Y-88006895D01*
X81201108Y-87889215D01*
X81083557Y-87836870D01*
X81024817Y-87845894D01*
X80955705Y-87917074D01*
X80691088Y-87917074D01*
X80688962Y-87905710D01*
X80602853Y-87836870D01*
X80525093Y-87808474D01*
X80395853Y-87687709D01*
X80346425Y-87622998D01*
X80281666Y-87584879D01*
X80228177Y-87687709D01*
X80183105Y-87768014D01*
X80082325Y-87836870D01*
X80009523Y-87808230D01*
X79884444Y-87687709D01*
X79835016Y-87622998D01*
X79770257Y-87584879D01*
X79716767Y-87687709D01*
X79632522Y-87802877D01*
X79497035Y-87823556D01*
X79388581Y-87703615D01*
X79348814Y-87641884D01*
X79250219Y-87624270D01*
X79222851Y-87648128D01*
X79212030Y-87757524D01*
X79207280Y-87805228D01*
X79091817Y-87836870D01*
X78990567Y-87811269D01*
X78895009Y-87693795D01*
X78879485Y-87627239D01*
X78834043Y-87597749D01*
X78724377Y-87693795D01*
X78576936Y-87806731D01*
X78448389Y-87822357D01*
X78398658Y-87709017D01*
X78388725Y-87650160D01*
X78310748Y-87581165D01*
X78263950Y-87596076D01*
X78173777Y-87709017D01*
X78137564Y-87768117D01*
X78005982Y-87836870D01*
X77950793Y-87822124D01*
X77887249Y-87709017D01*
X77902099Y-87649393D01*
X78015101Y-87581165D01*
X78074726Y-87566315D01*
X78142953Y-87453313D01*
X78156647Y-87393886D01*
X78261687Y-87325460D01*
X78322163Y-87340033D01*
X78429481Y-87453313D01*
X78451851Y-87502495D01*
X78541960Y-87580291D01*
X78620662Y-87514913D01*
X78640096Y-87405665D01*
X78910067Y-87405665D01*
X78918867Y-87452872D01*
X79005016Y-87539262D01*
X79111266Y-87522025D01*
X79134408Y-87495486D01*
X79141956Y-87453313D01*
X79421477Y-87453313D01*
X79436327Y-87512937D01*
X79549329Y-87581165D01*
X79608954Y-87566315D01*
X79677182Y-87453313D01*
X79662331Y-87393688D01*
X79549329Y-87325460D01*
X79489705Y-87340311D01*
X79467066Y-87377806D01*
X79421477Y-87453313D01*
X79141956Y-87453313D01*
X79155471Y-87377806D01*
X79037920Y-87325460D01*
X78979180Y-87334484D01*
X78910067Y-87405665D01*
X78640096Y-87405665D01*
X78654363Y-87325460D01*
X78654363Y-87069756D01*
X79805034Y-87069756D01*
X79935323Y-87069897D01*
X80368823Y-87074110D01*
X80662800Y-87086232D01*
X80842066Y-87109017D01*
X80931430Y-87145224D01*
X80955705Y-87197608D01*
X81006012Y-87286164D01*
X81202291Y-87325460D01*
X81382343Y-87357911D01*
X81497938Y-87453313D01*
X81581236Y-87536022D01*
G37*
G36*
X114311437Y-87536022D02*
G01*
X114492963Y-87581165D01*
X114634487Y-87606277D01*
X114708725Y-87709017D01*
X114723576Y-87768642D01*
X114836578Y-87836870D01*
X114920439Y-87879249D01*
X114922968Y-87889215D01*
X114964430Y-88052632D01*
X114994982Y-88203936D01*
X115092282Y-88317456D01*
X115169235Y-88396916D01*
X115221004Y-88591475D01*
X115221157Y-88731836D01*
X115221262Y-88827468D01*
X115183334Y-88987541D01*
X115171538Y-89037326D01*
X115073362Y-89153477D01*
X115056553Y-89160056D01*
X114975332Y-89216271D01*
X115051458Y-89286972D01*
X115152941Y-89311715D01*
X115237576Y-89198571D01*
X115275596Y-89129864D01*
X115388797Y-89074176D01*
X115486047Y-89134688D01*
X115499894Y-89288320D01*
X115459946Y-89377676D01*
X115370806Y-89431976D01*
X115333985Y-89433308D01*
X115244995Y-89520259D01*
X115244256Y-89575072D01*
X115340884Y-89626803D01*
X115419454Y-89656013D01*
X115475839Y-89797272D01*
X115470226Y-89896006D01*
X115445668Y-89967742D01*
X115420559Y-89959404D01*
X115300863Y-89866386D01*
X115149449Y-89714794D01*
X115019558Y-89560757D01*
X114964430Y-89460403D01*
X114949972Y-89419275D01*
X114836578Y-89371098D01*
X114776953Y-89356247D01*
X114708725Y-89243246D01*
X114693875Y-89183621D01*
X114580873Y-89115393D01*
X114521248Y-89100543D01*
X114453020Y-88987541D01*
X114793960Y-88987541D01*
X114803576Y-89046357D01*
X114879195Y-89115393D01*
X114918405Y-89100969D01*
X114964430Y-88987541D01*
X114954814Y-88928725D01*
X114879195Y-88859689D01*
X114839985Y-88874113D01*
X114793960Y-88987541D01*
X114453020Y-88987541D01*
X114438170Y-88927916D01*
X114325168Y-88859689D01*
X114265544Y-88844838D01*
X114197316Y-88731836D01*
X114187815Y-88673035D01*
X114113055Y-88603984D01*
X114055620Y-88590984D01*
X113895806Y-88488534D01*
X113749777Y-88337224D01*
X113687354Y-88204561D01*
X113970334Y-88204561D01*
X114056551Y-88306760D01*
X114135440Y-88381248D01*
X114197316Y-88506837D01*
X114208707Y-88548237D01*
X114316049Y-88603984D01*
X114376525Y-88618557D01*
X114483844Y-88731836D01*
X114517020Y-88791575D01*
X114620815Y-88859689D01*
X114661285Y-88845242D01*
X114708725Y-88731836D01*
X114693875Y-88672212D01*
X114580873Y-88603984D01*
X114521248Y-88589133D01*
X114453020Y-88476132D01*
X114439326Y-88416704D01*
X114334287Y-88348279D01*
X114270626Y-88331640D01*
X114164420Y-88215024D01*
X114122934Y-88153754D01*
X114014536Y-88142800D01*
X113970334Y-88204561D01*
X113687354Y-88204561D01*
X113685906Y-88201484D01*
X113671265Y-88151031D01*
X113558054Y-88092574D01*
X113498429Y-88077724D01*
X113430202Y-87964722D01*
X113421289Y-87917074D01*
X113685906Y-87917074D01*
X113694706Y-87964282D01*
X113780855Y-88050672D01*
X113887105Y-88033434D01*
X113910247Y-88006895D01*
X113931310Y-87889215D01*
X113813759Y-87836870D01*
X113755019Y-87845894D01*
X113685906Y-87917074D01*
X113421289Y-87917074D01*
X113419163Y-87905710D01*
X113333055Y-87836870D01*
X113255294Y-87808474D01*
X113126055Y-87687709D01*
X113076627Y-87622998D01*
X113011867Y-87584879D01*
X112958378Y-87687709D01*
X112913306Y-87768014D01*
X112812526Y-87836870D01*
X112739724Y-87808230D01*
X112614645Y-87687709D01*
X112565217Y-87622998D01*
X112500458Y-87584879D01*
X112446969Y-87687709D01*
X112362724Y-87802877D01*
X112227237Y-87823556D01*
X112118782Y-87703615D01*
X112079015Y-87641884D01*
X111980420Y-87624270D01*
X111953052Y-87648128D01*
X111942231Y-87757524D01*
X111937481Y-87805228D01*
X111822019Y-87836870D01*
X111720768Y-87811269D01*
X111625210Y-87693795D01*
X111609686Y-87627239D01*
X111564244Y-87597749D01*
X111454578Y-87693795D01*
X111307138Y-87806731D01*
X111178590Y-87822357D01*
X111128859Y-87709017D01*
X111118926Y-87650160D01*
X111040949Y-87581165D01*
X110994152Y-87596076D01*
X110903978Y-87709017D01*
X110867766Y-87768117D01*
X110736183Y-87836870D01*
X110680995Y-87822124D01*
X110617450Y-87709017D01*
X110632301Y-87649393D01*
X110745302Y-87581165D01*
X110804927Y-87566315D01*
X110873155Y-87453313D01*
X110886849Y-87393886D01*
X110991888Y-87325460D01*
X111052364Y-87340033D01*
X111159683Y-87453313D01*
X111182052Y-87502495D01*
X111272161Y-87580291D01*
X111350864Y-87514913D01*
X111370297Y-87405665D01*
X111640269Y-87405665D01*
X111649069Y-87452872D01*
X111735218Y-87539262D01*
X111841467Y-87522025D01*
X111864609Y-87495486D01*
X111872157Y-87453313D01*
X112151678Y-87453313D01*
X112166529Y-87512937D01*
X112279531Y-87581165D01*
X112339155Y-87566315D01*
X112407383Y-87453313D01*
X112392532Y-87393688D01*
X112279531Y-87325460D01*
X112219906Y-87340311D01*
X112197267Y-87377806D01*
X112151678Y-87453313D01*
X111872157Y-87453313D01*
X111885672Y-87377806D01*
X111768121Y-87325460D01*
X111709381Y-87334484D01*
X111640269Y-87405665D01*
X111370297Y-87405665D01*
X111384564Y-87325460D01*
X111384564Y-87069756D01*
X112535235Y-87069756D01*
X112665525Y-87069897D01*
X113099025Y-87074110D01*
X113393002Y-87086232D01*
X113572267Y-87109017D01*
X113661632Y-87145224D01*
X113685906Y-87197608D01*
X113736214Y-87286164D01*
X113932492Y-87325460D01*
X114112545Y-87357911D01*
X114228139Y-87453313D01*
X114311437Y-87536022D01*
G37*
G36*
X101156376Y-90777474D02*
G01*
X101171227Y-90837098D01*
X101284229Y-90905326D01*
X101338456Y-90920922D01*
X101395349Y-91036076D01*
X101412081Y-91288883D01*
X101417280Y-91451565D01*
X101427773Y-91498224D01*
X101455664Y-91622244D01*
X101539933Y-91672440D01*
X101606031Y-91698927D01*
X101653936Y-91828873D01*
X101667786Y-92095940D01*
X101667731Y-92122845D01*
X101656297Y-92362982D01*
X101617352Y-92468125D01*
X101539933Y-92470378D01*
X101464489Y-92461507D01*
X101412081Y-92558287D01*
X101429089Y-92626337D01*
X101539933Y-92695259D01*
X101599558Y-92710110D01*
X101667786Y-92823111D01*
X101652935Y-92882736D01*
X101539933Y-92950964D01*
X101480309Y-92965814D01*
X101412081Y-93078816D01*
X101397230Y-93138441D01*
X101284229Y-93206668D01*
X101173033Y-93159369D01*
X101179629Y-93042443D01*
X101305537Y-92902522D01*
X101370248Y-92853094D01*
X101408367Y-92788334D01*
X101305537Y-92734845D01*
X101213383Y-92657404D01*
X101156376Y-92470378D01*
X101127397Y-92328620D01*
X101028524Y-92214673D01*
X100969424Y-92178461D01*
X100900671Y-92046878D01*
X100915417Y-91991690D01*
X101028524Y-91928145D01*
X101088148Y-91942995D01*
X101156376Y-92055997D01*
X101171227Y-92115622D01*
X101284229Y-92183850D01*
X101343853Y-92168999D01*
X101412081Y-92055997D01*
X101397230Y-91996373D01*
X101284229Y-91928145D01*
X101224604Y-91913294D01*
X101156376Y-91800293D01*
X101141526Y-91740668D01*
X101028524Y-91672440D01*
X100968899Y-91687291D01*
X100900671Y-91800293D01*
X100887081Y-91859703D01*
X100782760Y-91928145D01*
X100702641Y-91964146D01*
X100618027Y-92107191D01*
X100568767Y-92206643D01*
X100480234Y-92230013D01*
X100397681Y-92118184D01*
X100411303Y-91989230D01*
X100517114Y-91928145D01*
X100576739Y-91913294D01*
X100644967Y-91800293D01*
X100630116Y-91740668D01*
X100517114Y-91672440D01*
X100457490Y-91657590D01*
X100389262Y-91544588D01*
X100385935Y-91531228D01*
X100681011Y-91531228D01*
X100716885Y-91621593D01*
X100754327Y-91635032D01*
X100860700Y-91582925D01*
X100888522Y-91498224D01*
X100835946Y-91427903D01*
X100721354Y-91476724D01*
X100681011Y-91531228D01*
X100385935Y-91531228D01*
X100374412Y-91484963D01*
X100261410Y-91416736D01*
X100201785Y-91401885D01*
X100133557Y-91288883D01*
X100461712Y-91288883D01*
X100465278Y-91312404D01*
X100553339Y-91400399D01*
X100601719Y-91394964D01*
X100644967Y-91288883D01*
X100631060Y-91218512D01*
X100553339Y-91177368D01*
X100528069Y-91188942D01*
X100461712Y-91288883D01*
X100133557Y-91288883D01*
X100146616Y-91229561D01*
X100247204Y-91161031D01*
X100299935Y-91146340D01*
X100360850Y-91033178D01*
X100347792Y-90973856D01*
X100247204Y-90905326D01*
X100194473Y-90920017D01*
X100158515Y-90986814D01*
X100133557Y-91033178D01*
X100118707Y-91092803D01*
X100005705Y-91161031D01*
X99946080Y-91175881D01*
X99877853Y-91288883D01*
X99868236Y-91347699D01*
X99792618Y-91416736D01*
X99718138Y-91390304D01*
X99565946Y-91272160D01*
X99427117Y-91117315D01*
X99380448Y-91019818D01*
X99658193Y-91019818D01*
X99694067Y-91110183D01*
X99731508Y-91123623D01*
X99837881Y-91071516D01*
X99865703Y-90986814D01*
X99813127Y-90916494D01*
X99698536Y-90965314D01*
X99658193Y-91019818D01*
X99380448Y-91019818D01*
X99366443Y-90990561D01*
X99352019Y-90951351D01*
X99238591Y-90905326D01*
X99178966Y-90920177D01*
X99110739Y-91033178D01*
X99095888Y-91092803D01*
X98982886Y-91161031D01*
X98923262Y-91146180D01*
X98855034Y-91033178D01*
X98802335Y-90943444D01*
X98599329Y-90905326D01*
X98419861Y-90931676D01*
X98343625Y-91033178D01*
X98330034Y-91092588D01*
X98225713Y-91161031D01*
X98145594Y-91197032D01*
X98060980Y-91340077D01*
X98011720Y-91439529D01*
X97923187Y-91462899D01*
X97840634Y-91351070D01*
X97854256Y-91222116D01*
X97960067Y-91161031D01*
X98049802Y-91108332D01*
X98087920Y-90905326D01*
X98113686Y-90729826D01*
X98855034Y-90729826D01*
X98863834Y-90777034D01*
X98949983Y-90863423D01*
X99056233Y-90846186D01*
X99079374Y-90819647D01*
X99095451Y-90729826D01*
X99366443Y-90729826D01*
X99375243Y-90777034D01*
X99461392Y-90863423D01*
X99567642Y-90846186D01*
X99590784Y-90819647D01*
X99611847Y-90701967D01*
X99494296Y-90649621D01*
X99435556Y-90658645D01*
X99393493Y-90701967D01*
X99366443Y-90729826D01*
X99095451Y-90729826D01*
X99100437Y-90701967D01*
X98982886Y-90649621D01*
X98924146Y-90658645D01*
X98855034Y-90729826D01*
X98113686Y-90729826D01*
X98114269Y-90725858D01*
X98215772Y-90649621D01*
X98275397Y-90634771D01*
X98343625Y-90521769D01*
X98396324Y-90432035D01*
X98599329Y-90393917D01*
X98778798Y-90367567D01*
X98855034Y-90266064D01*
X98855438Y-90256773D01*
X98893681Y-90197620D01*
X99014791Y-90161379D01*
X99247903Y-90143194D01*
X99622148Y-90138212D01*
X99677894Y-90138279D01*
X100032816Y-90144653D01*
X100250263Y-90164838D01*
X100359368Y-90203690D01*
X100389262Y-90266064D01*
X100441961Y-90355799D01*
X100644967Y-90393917D01*
X100824435Y-90420266D01*
X100900671Y-90521769D01*
X100915522Y-90581394D01*
X101028524Y-90649621D01*
X101088148Y-90664472D01*
X101110787Y-90701967D01*
X101156376Y-90777474D01*
G37*
G36*
X96889719Y-69262544D02*
G01*
X96957947Y-69375546D01*
X96943096Y-69435171D01*
X96830094Y-69503399D01*
X96740360Y-69556098D01*
X96702242Y-69759103D01*
X96675892Y-69938572D01*
X96574390Y-70014808D01*
X96520162Y-70030404D01*
X96463269Y-70145558D01*
X96446537Y-70398365D01*
X96441339Y-70561047D01*
X96402954Y-70731726D01*
X96318685Y-70781922D01*
X96288301Y-70788866D01*
X96246893Y-70844497D01*
X96218813Y-70975776D01*
X96201688Y-71206397D01*
X96193152Y-71560055D01*
X96190832Y-72060446D01*
X96191527Y-72364289D01*
X96197090Y-72778359D01*
X96210218Y-73059168D01*
X96233280Y-73230409D01*
X96268646Y-73315778D01*
X96318685Y-73338969D01*
X96372912Y-73354565D01*
X96429805Y-73469719D01*
X96446537Y-73722526D01*
X96451736Y-73885208D01*
X96490120Y-74055887D01*
X96574390Y-74106083D01*
X96664124Y-74158782D01*
X96702242Y-74361788D01*
X96728592Y-74541256D01*
X96830094Y-74617492D01*
X96919828Y-74670192D01*
X96957947Y-74873197D01*
X96984296Y-75052665D01*
X97085799Y-75128902D01*
X97145424Y-75143752D01*
X97213651Y-75256754D01*
X97228502Y-75316379D01*
X97341504Y-75384607D01*
X97431238Y-75437306D01*
X97469356Y-75640311D01*
X97495706Y-75819780D01*
X97597208Y-75896016D01*
X97656833Y-75910867D01*
X97725061Y-76023868D01*
X97739911Y-76083493D01*
X97852913Y-76151721D01*
X97912538Y-76166571D01*
X97980765Y-76279573D01*
X98033465Y-76369307D01*
X98236470Y-76407425D01*
X98415938Y-76433775D01*
X98492175Y-76535278D01*
X98507025Y-76594902D01*
X98620027Y-76663130D01*
X98679652Y-76677981D01*
X98747879Y-76790982D01*
X98800579Y-76880717D01*
X99003584Y-76918835D01*
X99183052Y-76945184D01*
X99259289Y-77046687D01*
X99311988Y-77136421D01*
X99514994Y-77174539D01*
X99694462Y-77200889D01*
X99770698Y-77302392D01*
X99786294Y-77356619D01*
X99901448Y-77413512D01*
X100154255Y-77430244D01*
X100316937Y-77435443D01*
X100487616Y-77473827D01*
X100537812Y-77558097D01*
X100544756Y-77588481D01*
X100600387Y-77629888D01*
X100731666Y-77657969D01*
X100962287Y-77675093D01*
X101315946Y-77683630D01*
X101816336Y-77685949D01*
X102120179Y-77685255D01*
X102534250Y-77679691D01*
X102815058Y-77666564D01*
X102986300Y-77643501D01*
X103071669Y-77608136D01*
X103094859Y-77558097D01*
X103110455Y-77503869D01*
X103225609Y-77446976D01*
X103478416Y-77430244D01*
X103660887Y-77423678D01*
X103817354Y-77383593D01*
X103861973Y-77296730D01*
X103912280Y-77202295D01*
X104089796Y-77190187D01*
X104257414Y-77232534D01*
X104351927Y-77315761D01*
X104309655Y-77394970D01*
X104124781Y-77430244D01*
X103936055Y-77457839D01*
X103861973Y-77558097D01*
X103809274Y-77647831D01*
X103606269Y-77685949D01*
X103426800Y-77712298D01*
X103350564Y-77813801D01*
X103334968Y-77868028D01*
X103219814Y-77924921D01*
X102967007Y-77941654D01*
X102804325Y-77946852D01*
X102633646Y-77985237D01*
X102583450Y-78069506D01*
X102576506Y-78099890D01*
X102520875Y-78141297D01*
X102389596Y-78169378D01*
X102158975Y-78186502D01*
X101805317Y-78195039D01*
X101304926Y-78197358D01*
X101001083Y-78196664D01*
X100587013Y-78191101D01*
X100306204Y-78177973D01*
X100134963Y-78154911D01*
X100049594Y-78119545D01*
X100026403Y-78069506D01*
X100010807Y-78015279D01*
X99895653Y-77958386D01*
X99642846Y-77941654D01*
X99480164Y-77936455D01*
X99309485Y-77898070D01*
X99259289Y-77813801D01*
X99206590Y-77724067D01*
X99003584Y-77685949D01*
X98824116Y-77659599D01*
X98747879Y-77558097D01*
X98695180Y-77468362D01*
X98492175Y-77430244D01*
X98312706Y-77403895D01*
X98236470Y-77302392D01*
X98221620Y-77242767D01*
X98108618Y-77174539D01*
X98048993Y-77159689D01*
X97980765Y-77046687D01*
X97928066Y-76956953D01*
X97725061Y-76918835D01*
X97545592Y-76892485D01*
X97469356Y-76790982D01*
X97454505Y-76731358D01*
X97341504Y-76663130D01*
X97281879Y-76648280D01*
X97213651Y-76535278D01*
X97198801Y-76475653D01*
X97085799Y-76407425D01*
X96996065Y-76354726D01*
X96957947Y-76151721D01*
X96931597Y-75972252D01*
X96830094Y-75896016D01*
X96770470Y-75881165D01*
X96702242Y-75768164D01*
X96687391Y-75708539D01*
X96574390Y-75640311D01*
X96484655Y-75587612D01*
X96446537Y-75384607D01*
X96420188Y-75205138D01*
X96318685Y-75128902D01*
X96228951Y-75076203D01*
X96190832Y-74873197D01*
X96164483Y-74693729D01*
X96062980Y-74617492D01*
X96008753Y-74601897D01*
X95951860Y-74486743D01*
X95935128Y-74233935D01*
X95929929Y-74071254D01*
X95891545Y-73900575D01*
X95807275Y-73850378D01*
X95776891Y-73843435D01*
X95735484Y-73787804D01*
X95707403Y-73656525D01*
X95690279Y-73425903D01*
X95681742Y-73072245D01*
X95679423Y-72571855D01*
X95680117Y-72268012D01*
X95685681Y-71853941D01*
X95698808Y-71573132D01*
X95721871Y-71401891D01*
X95757236Y-71316522D01*
X95807275Y-71293331D01*
X95861503Y-71277736D01*
X95918396Y-71162582D01*
X95935128Y-70909774D01*
X95940326Y-70747093D01*
X95978711Y-70576414D01*
X96062980Y-70526217D01*
X96152714Y-70473518D01*
X96190832Y-70270513D01*
X96217182Y-70091044D01*
X96318685Y-70014808D01*
X96408419Y-69962109D01*
X96446537Y-69759103D01*
X96472887Y-69579635D01*
X96574390Y-69503399D01*
X96634014Y-69488548D01*
X96702242Y-69375546D01*
X96717092Y-69315922D01*
X96830094Y-69247694D01*
X96889719Y-69262544D01*
G37*
G36*
X78910067Y-92780494D02*
G01*
X78864740Y-92883549D01*
X78739598Y-93036199D01*
X78571995Y-93170788D01*
X78445061Y-93193059D01*
X78398658Y-93078816D01*
X78345959Y-92989082D01*
X78142953Y-92950964D01*
X77963485Y-92977313D01*
X77887249Y-93078816D01*
X77873658Y-93138226D01*
X77769337Y-93206668D01*
X77689218Y-93242670D01*
X77604605Y-93385714D01*
X77555345Y-93485166D01*
X77466811Y-93508536D01*
X77384258Y-93396708D01*
X77397880Y-93267754D01*
X77503692Y-93206668D01*
X77593426Y-93153969D01*
X77631544Y-92950964D01*
X77657311Y-92775464D01*
X78398658Y-92775464D01*
X78407458Y-92822671D01*
X78493607Y-92909061D01*
X78599857Y-92891823D01*
X78622998Y-92865285D01*
X78644061Y-92747605D01*
X78526510Y-92695259D01*
X78467770Y-92704283D01*
X78398658Y-92775464D01*
X77657311Y-92775464D01*
X77657894Y-92771495D01*
X77759396Y-92695259D01*
X77819021Y-92680408D01*
X77887249Y-92567407D01*
X77939948Y-92477673D01*
X78142953Y-92439554D01*
X78322422Y-92413205D01*
X78398658Y-92311702D01*
X78399063Y-92302411D01*
X78437305Y-92243257D01*
X78558416Y-92207016D01*
X78791527Y-92188832D01*
X79165772Y-92183850D01*
X79221518Y-92183917D01*
X79576440Y-92190291D01*
X79793887Y-92210476D01*
X79902992Y-92249328D01*
X79932886Y-92311702D01*
X79985585Y-92401436D01*
X80188591Y-92439554D01*
X80368059Y-92465904D01*
X80444296Y-92567407D01*
X80459146Y-92627031D01*
X80572148Y-92695259D01*
X80631773Y-92710110D01*
X80700000Y-92823111D01*
X80715596Y-92877339D01*
X80830750Y-92934232D01*
X81083557Y-92950964D01*
X81246239Y-92956162D01*
X81416918Y-92994547D01*
X81467114Y-93078816D01*
X81519814Y-93168550D01*
X81722819Y-93206668D01*
X81902287Y-93233018D01*
X81978524Y-93334521D01*
X81993374Y-93394145D01*
X82106376Y-93462373D01*
X82166001Y-93477224D01*
X82234229Y-93590225D01*
X82235998Y-93597328D01*
X82249079Y-93649850D01*
X82362081Y-93718078D01*
X82451815Y-93770777D01*
X82489933Y-93973783D01*
X82516283Y-94153251D01*
X82617786Y-94229487D01*
X82707520Y-94282186D01*
X82725902Y-94380081D01*
X82745638Y-94485192D01*
X82758501Y-94572801D01*
X82771988Y-94664660D01*
X82873490Y-94740897D01*
X82933115Y-94755747D01*
X83001343Y-94868749D01*
X82987649Y-94928176D01*
X82882609Y-94996601D01*
X82822133Y-94982028D01*
X82714815Y-94868749D01*
X82681638Y-94809010D01*
X82577843Y-94740897D01*
X82537373Y-94755343D01*
X82489933Y-94868749D01*
X82504784Y-94928374D01*
X82617786Y-94996601D01*
X82677410Y-95011452D01*
X82745638Y-95124454D01*
X82713998Y-95199011D01*
X82575168Y-95252306D01*
X82478620Y-95238818D01*
X82426007Y-95182916D01*
X82416293Y-95142983D01*
X82320903Y-95004174D01*
X82154457Y-94820668D01*
X82052897Y-94724315D01*
X81887683Y-94591802D01*
X81792209Y-94549118D01*
X81753447Y-94534382D01*
X82336959Y-94534382D01*
X82337597Y-94667445D01*
X82374883Y-94731639D01*
X82440246Y-94667101D01*
X82469211Y-94572801D01*
X82435175Y-94488416D01*
X82353202Y-94508276D01*
X82336959Y-94534382D01*
X81753447Y-94534382D01*
X81733240Y-94526700D01*
X81723408Y-94417092D01*
X81750159Y-94334598D01*
X82014250Y-94334598D01*
X82056479Y-94438075D01*
X82083635Y-94449466D01*
X82187112Y-94407237D01*
X82198503Y-94380081D01*
X82156274Y-94276604D01*
X82129118Y-94265213D01*
X82025641Y-94307442D01*
X82014250Y-94334598D01*
X81750159Y-94334598D01*
X81766458Y-94284334D01*
X81850671Y-94198664D01*
X81910410Y-94165487D01*
X81978524Y-94061692D01*
X81964078Y-94021223D01*
X81850671Y-93973783D01*
X81791047Y-93958932D01*
X81722819Y-93845930D01*
X81707969Y-93786306D01*
X81594967Y-93718078D01*
X81535342Y-93732928D01*
X81467114Y-93845930D01*
X81451519Y-93900157D01*
X81336365Y-93957050D01*
X81083557Y-93973783D01*
X80920876Y-93968584D01*
X80750197Y-93930199D01*
X80700000Y-93845930D01*
X80685150Y-93786306D01*
X80572148Y-93718078D01*
X80512523Y-93732928D01*
X80444296Y-93845930D01*
X80429445Y-93905555D01*
X80316443Y-93973783D01*
X80256819Y-93958932D01*
X80188591Y-93845930D01*
X80173740Y-93786306D01*
X80060739Y-93718078D01*
X80001114Y-93703227D01*
X79932886Y-93590225D01*
X79929559Y-93576865D01*
X80224636Y-93576865D01*
X80260510Y-93667230D01*
X80297951Y-93680670D01*
X80404324Y-93628562D01*
X80425666Y-93563590D01*
X80975238Y-93563590D01*
X81059493Y-93675785D01*
X81161725Y-93690669D01*
X81211410Y-93597328D01*
X81193869Y-93531000D01*
X81076454Y-93462373D01*
X81012334Y-93476643D01*
X80983655Y-93543861D01*
X80975238Y-93563590D01*
X80425666Y-93563590D01*
X80432146Y-93543861D01*
X80379570Y-93473541D01*
X80264979Y-93522361D01*
X80224636Y-93576865D01*
X79929559Y-93576865D01*
X79918036Y-93530601D01*
X79805034Y-93462373D01*
X79745409Y-93447523D01*
X79677182Y-93334521D01*
X80005336Y-93334521D01*
X80008902Y-93358041D01*
X80096963Y-93446036D01*
X80145343Y-93440602D01*
X80188591Y-93334521D01*
X80174684Y-93264150D01*
X80096963Y-93223005D01*
X80071693Y-93234580D01*
X80005336Y-93334521D01*
X79677182Y-93334521D01*
X79692032Y-93274896D01*
X79805034Y-93206668D01*
X79864659Y-93191818D01*
X79932886Y-93078816D01*
X79918036Y-93019191D01*
X79805034Y-92950964D01*
X79745409Y-92965814D01*
X79705175Y-93032452D01*
X79677182Y-93078816D01*
X79663591Y-93138226D01*
X79559270Y-93206668D01*
X79482262Y-93238781D01*
X79396688Y-93377490D01*
X79374057Y-93430720D01*
X79261980Y-93500286D01*
X79138645Y-93460979D01*
X79080537Y-93325402D01*
X79072436Y-93275026D01*
X78995302Y-93206668D01*
X78974481Y-93204583D01*
X78912653Y-93131977D01*
X78926440Y-93065456D01*
X79201817Y-93065456D01*
X79237691Y-93155821D01*
X79275132Y-93169261D01*
X79381505Y-93117153D01*
X79409327Y-93032452D01*
X79356751Y-92962131D01*
X79242160Y-93010952D01*
X79201817Y-93065456D01*
X78926440Y-93065456D01*
X78937598Y-93011621D01*
X79037920Y-92920141D01*
X79097658Y-92886964D01*
X79165772Y-92783169D01*
X79151326Y-92742699D01*
X79037920Y-92695259D01*
X78979104Y-92704875D01*
X78940093Y-92747605D01*
X78910067Y-92780494D01*
G37*
G36*
X111640269Y-92780494D02*
G01*
X111613838Y-92854974D01*
X111495693Y-93007166D01*
X111340848Y-93145995D01*
X111214094Y-93206668D01*
X111174884Y-93192244D01*
X111128859Y-93078816D01*
X111076160Y-92989082D01*
X110873155Y-92950964D01*
X110693686Y-92977313D01*
X110617450Y-93078816D01*
X110603859Y-93138226D01*
X110499539Y-93206668D01*
X110419419Y-93242670D01*
X110334806Y-93385714D01*
X110285546Y-93485166D01*
X110197013Y-93508536D01*
X110114459Y-93396708D01*
X110128082Y-93267754D01*
X110233893Y-93206668D01*
X110323627Y-93153969D01*
X110361745Y-92950964D01*
X110387512Y-92775464D01*
X111128859Y-92775464D01*
X111137659Y-92822671D01*
X111223808Y-92909061D01*
X111330058Y-92891823D01*
X111353200Y-92865285D01*
X111374263Y-92747605D01*
X111256712Y-92695259D01*
X111197972Y-92704283D01*
X111128859Y-92775464D01*
X110387512Y-92775464D01*
X110388095Y-92771495D01*
X110489598Y-92695259D01*
X110549222Y-92680408D01*
X110617450Y-92567407D01*
X110670149Y-92477673D01*
X110873155Y-92439554D01*
X111052623Y-92413205D01*
X111128859Y-92311702D01*
X111129264Y-92302411D01*
X111167506Y-92243257D01*
X111288617Y-92207016D01*
X111521729Y-92188832D01*
X111895974Y-92183850D01*
X111951720Y-92183917D01*
X112306641Y-92190291D01*
X112524089Y-92210476D01*
X112633193Y-92249328D01*
X112663088Y-92311702D01*
X112715787Y-92401436D01*
X112918792Y-92439554D01*
X113098261Y-92465904D01*
X113174497Y-92567407D01*
X113189348Y-92627031D01*
X113302349Y-92695259D01*
X113361974Y-92710110D01*
X113430202Y-92823111D01*
X113445798Y-92877339D01*
X113560951Y-92934232D01*
X113813759Y-92950964D01*
X113976441Y-92956162D01*
X114147119Y-92994547D01*
X114197316Y-93078816D01*
X114250015Y-93168550D01*
X114453020Y-93206668D01*
X114632489Y-93233018D01*
X114708725Y-93334521D01*
X114723576Y-93394145D01*
X114836578Y-93462373D01*
X114896202Y-93477224D01*
X114964430Y-93590225D01*
X114966199Y-93597328D01*
X114979280Y-93649850D01*
X115092282Y-93718078D01*
X115182016Y-93770777D01*
X115220135Y-93973783D01*
X115246484Y-94153251D01*
X115347987Y-94229487D01*
X115437721Y-94282186D01*
X115456103Y-94380081D01*
X115475839Y-94485192D01*
X115488702Y-94572801D01*
X115502189Y-94664660D01*
X115603692Y-94740897D01*
X115663316Y-94755747D01*
X115731544Y-94868749D01*
X115717850Y-94928176D01*
X115612811Y-94996601D01*
X115552334Y-94982028D01*
X115445016Y-94868749D01*
X115411839Y-94809010D01*
X115308045Y-94740897D01*
X115267575Y-94755343D01*
X115220135Y-94868749D01*
X115234985Y-94928374D01*
X115347987Y-94996601D01*
X115407612Y-95011452D01*
X115475839Y-95124454D01*
X115444199Y-95199011D01*
X115305369Y-95252306D01*
X115208821Y-95238818D01*
X115156208Y-95182916D01*
X115156829Y-95170489D01*
X115093134Y-95056892D01*
X114951747Y-94891860D01*
X114778767Y-94721490D01*
X114620289Y-94591877D01*
X114522410Y-94549118D01*
X114483648Y-94534382D01*
X115067160Y-94534382D01*
X115067798Y-94667445D01*
X115105084Y-94731639D01*
X115170447Y-94667101D01*
X115199412Y-94572801D01*
X115165377Y-94488416D01*
X115083404Y-94508276D01*
X115067160Y-94534382D01*
X114483648Y-94534382D01*
X114463441Y-94526700D01*
X114453610Y-94417092D01*
X114480360Y-94334598D01*
X114744451Y-94334598D01*
X114786680Y-94438075D01*
X114813836Y-94449466D01*
X114917313Y-94407237D01*
X114928704Y-94380081D01*
X114886475Y-94276604D01*
X114859319Y-94265213D01*
X114755842Y-94307442D01*
X114744451Y-94334598D01*
X114480360Y-94334598D01*
X114496659Y-94284334D01*
X114580873Y-94198664D01*
X114640611Y-94165487D01*
X114708725Y-94061692D01*
X114694279Y-94021223D01*
X114580873Y-93973783D01*
X114521248Y-93958932D01*
X114453020Y-93845930D01*
X114438170Y-93786306D01*
X114325168Y-93718078D01*
X114265544Y-93732928D01*
X114197316Y-93845930D01*
X114181720Y-93900157D01*
X114066566Y-93957050D01*
X113813759Y-93973783D01*
X113651077Y-93968584D01*
X113480398Y-93930199D01*
X113430202Y-93845930D01*
X113415351Y-93786306D01*
X113302349Y-93718078D01*
X113242725Y-93732928D01*
X113174497Y-93845930D01*
X113159646Y-93905555D01*
X113046645Y-93973783D01*
X112987020Y-93958932D01*
X112918792Y-93845930D01*
X112903942Y-93786306D01*
X112790940Y-93718078D01*
X112731315Y-93703227D01*
X112663088Y-93590225D01*
X112659760Y-93576865D01*
X112954837Y-93576865D01*
X112990711Y-93667230D01*
X113028152Y-93680670D01*
X113134525Y-93628562D01*
X113155867Y-93563590D01*
X113705439Y-93563590D01*
X113789694Y-93675785D01*
X113891926Y-93690669D01*
X113941611Y-93597328D01*
X113924071Y-93531000D01*
X113806656Y-93462373D01*
X113742536Y-93476643D01*
X113713857Y-93543861D01*
X113705439Y-93563590D01*
X113155867Y-93563590D01*
X113162347Y-93543861D01*
X113109771Y-93473541D01*
X112995180Y-93522361D01*
X112954837Y-93576865D01*
X112659760Y-93576865D01*
X112648237Y-93530601D01*
X112535235Y-93462373D01*
X112475611Y-93447523D01*
X112407383Y-93334521D01*
X112735537Y-93334521D01*
X112739103Y-93358041D01*
X112827165Y-93446036D01*
X112875544Y-93440602D01*
X112918792Y-93334521D01*
X112904885Y-93264150D01*
X112827165Y-93223005D01*
X112801894Y-93234580D01*
X112735537Y-93334521D01*
X112407383Y-93334521D01*
X112422233Y-93274896D01*
X112535235Y-93206668D01*
X112594860Y-93191818D01*
X112663088Y-93078816D01*
X112648237Y-93019191D01*
X112535235Y-92950964D01*
X112475611Y-92965814D01*
X112435377Y-93032452D01*
X112407383Y-93078816D01*
X112393792Y-93138226D01*
X112289472Y-93206668D01*
X112212463Y-93238781D01*
X112126890Y-93377490D01*
X112104258Y-93430720D01*
X111992182Y-93500286D01*
X111868847Y-93460979D01*
X111810739Y-93325402D01*
X111802637Y-93275026D01*
X111725504Y-93206668D01*
X111704683Y-93204583D01*
X111642854Y-93131977D01*
X111656641Y-93065456D01*
X111932018Y-93065456D01*
X111967892Y-93155821D01*
X112005333Y-93169261D01*
X112111706Y-93117153D01*
X112139528Y-93032452D01*
X112086953Y-92962131D01*
X111972361Y-93010952D01*
X111932018Y-93065456D01*
X111656641Y-93065456D01*
X111667799Y-93011621D01*
X111768121Y-92920141D01*
X111827860Y-92886964D01*
X111895974Y-92783169D01*
X111881527Y-92742699D01*
X111768121Y-92695259D01*
X111709305Y-92704875D01*
X111670295Y-92747605D01*
X111640269Y-92780494D01*
G37*
G36*
X84791276Y-90393917D02*
G01*
X84810084Y-90522020D01*
X84817625Y-90573385D01*
X84919128Y-90649621D01*
X84978753Y-90664472D01*
X85046980Y-90777474D01*
X85068880Y-90814764D01*
X85099679Y-90867208D01*
X85302685Y-90905326D01*
X85482153Y-90931676D01*
X85558390Y-91033178D01*
X85571746Y-91055920D01*
X85611089Y-91122913D01*
X85814094Y-91161031D01*
X85993563Y-91187380D01*
X86069799Y-91288883D01*
X86084650Y-91348508D01*
X86197651Y-91416736D01*
X86257276Y-91431586D01*
X86325504Y-91544588D01*
X86340354Y-91604213D01*
X86453356Y-91672440D01*
X86543090Y-91725139D01*
X86581208Y-91928145D01*
X86607558Y-92107613D01*
X86709061Y-92183850D01*
X86798795Y-92236549D01*
X86804201Y-92265338D01*
X86836913Y-92439554D01*
X86859024Y-92590148D01*
X86863263Y-92619023D01*
X86964765Y-92695259D01*
X87024390Y-92710110D01*
X87092618Y-92823111D01*
X87088901Y-92838036D01*
X87077767Y-92882736D01*
X86964765Y-92950964D01*
X86905141Y-92965814D01*
X86836913Y-93078816D01*
X86851764Y-93138441D01*
X86964765Y-93206668D01*
X87024390Y-93221519D01*
X87092618Y-93334521D01*
X87077767Y-93394145D01*
X86964765Y-93462373D01*
X86905141Y-93447523D01*
X86836913Y-93334521D01*
X86804183Y-93258792D01*
X86661413Y-93206668D01*
X86562696Y-93188522D01*
X86542137Y-93115697D01*
X86538153Y-93048843D01*
X86420273Y-92978154D01*
X86319036Y-92935008D01*
X86290979Y-92879935D01*
X86581208Y-92879935D01*
X86582748Y-92893776D01*
X86661413Y-92950964D01*
X86732570Y-92930617D01*
X86800784Y-92838036D01*
X86764957Y-92746083D01*
X86752229Y-92739258D01*
X86636810Y-92756411D01*
X86581208Y-92879935D01*
X86290979Y-92879935D01*
X86283355Y-92864970D01*
X86286782Y-92825127D01*
X86197162Y-92749483D01*
X86138735Y-92712424D01*
X86069799Y-92570082D01*
X86063457Y-92544665D01*
X86361229Y-92544665D01*
X86403459Y-92648142D01*
X86430614Y-92659533D01*
X86534092Y-92617304D01*
X86545483Y-92590148D01*
X86503253Y-92486671D01*
X86476098Y-92475280D01*
X86372620Y-92517509D01*
X86361229Y-92544665D01*
X86063457Y-92544665D01*
X86054308Y-92507995D01*
X85941947Y-92439554D01*
X85882322Y-92424704D01*
X85814094Y-92311702D01*
X85810767Y-92298342D01*
X86105844Y-92298342D01*
X86141718Y-92388707D01*
X86179159Y-92402146D01*
X86285532Y-92350039D01*
X86313354Y-92265338D01*
X86260778Y-92195017D01*
X86146187Y-92243838D01*
X86105844Y-92298342D01*
X85810767Y-92298342D01*
X85799244Y-92252077D01*
X85686242Y-92183850D01*
X85626617Y-92198700D01*
X85558390Y-92311702D01*
X85544696Y-92371129D01*
X85439656Y-92439554D01*
X85379180Y-92424981D01*
X85271862Y-92311702D01*
X85261590Y-92242969D01*
X85338858Y-92183850D01*
X85398153Y-92169251D01*
X85503978Y-92055997D01*
X85591228Y-91952781D01*
X85735326Y-91944067D01*
X85846991Y-92061400D01*
X85886514Y-92123224D01*
X85983962Y-92141604D01*
X86043700Y-92087994D01*
X86056475Y-91979970D01*
X85941947Y-91928145D01*
X85882322Y-91913294D01*
X85814094Y-91800293D01*
X85799244Y-91740668D01*
X85686242Y-91672440D01*
X85626617Y-91687291D01*
X85558390Y-91800293D01*
X85505690Y-91890027D01*
X85302685Y-91928145D01*
X85240900Y-91926603D01*
X85088383Y-91883487D01*
X85046980Y-91760350D01*
X85069717Y-91655476D01*
X85174833Y-91641617D01*
X85250277Y-91650487D01*
X85302685Y-91553707D01*
X85244405Y-91451000D01*
X85046980Y-91416736D01*
X84867512Y-91390386D01*
X84791276Y-91288883D01*
X84776425Y-91229259D01*
X84663423Y-91161031D01*
X84603799Y-91146180D01*
X84535571Y-91033178D01*
X84525742Y-91010437D01*
X84827001Y-91010437D01*
X84869230Y-91113914D01*
X84896386Y-91125305D01*
X84999864Y-91083076D01*
X85011255Y-91055920D01*
X84969025Y-90952443D01*
X84941869Y-90941052D01*
X84838392Y-90983281D01*
X84827001Y-91010437D01*
X84525742Y-91010437D01*
X84502841Y-90957450D01*
X84360071Y-90905326D01*
X84263402Y-90887039D01*
X84237621Y-90819489D01*
X84245550Y-90766973D01*
X84217594Y-90740184D01*
X84551552Y-90740184D01*
X84571540Y-90781430D01*
X84700713Y-90889345D01*
X84752027Y-90894013D01*
X84775294Y-90814764D01*
X84755306Y-90773518D01*
X84626133Y-90665603D01*
X84574820Y-90660934D01*
X84551552Y-90740184D01*
X84217594Y-90740184D01*
X84157416Y-90682518D01*
X84093134Y-90643025D01*
X84054193Y-90569417D01*
X84279866Y-90569417D01*
X84281462Y-90585326D01*
X84360071Y-90649621D01*
X84432334Y-90623909D01*
X84513586Y-90522020D01*
X84507159Y-90422328D01*
X84447676Y-90405198D01*
X84336489Y-90461834D01*
X84279866Y-90569417D01*
X84054193Y-90569417D01*
X84024161Y-90512650D01*
X84009416Y-90457461D01*
X83896309Y-90393917D01*
X83836899Y-90380326D01*
X83768457Y-90276005D01*
X83757987Y-90252704D01*
X84060206Y-90252704D01*
X84096080Y-90343069D01*
X84133521Y-90356509D01*
X84239894Y-90304401D01*
X84267716Y-90219700D01*
X84215141Y-90149380D01*
X84100549Y-90198200D01*
X84060206Y-90252704D01*
X83757987Y-90252704D01*
X83732456Y-90195886D01*
X83589411Y-90111273D01*
X83489959Y-90062013D01*
X83466589Y-89973479D01*
X83539595Y-89904830D01*
X83688469Y-89898522D01*
X83801353Y-90015762D01*
X83840877Y-90077586D01*
X83938325Y-90095967D01*
X83998062Y-90042356D01*
X84010837Y-89934332D01*
X83896309Y-89882507D01*
X83836684Y-89867657D01*
X83768457Y-89754655D01*
X83753606Y-89695030D01*
X83640604Y-89626803D01*
X83580980Y-89641653D01*
X83512752Y-89754655D01*
X83460053Y-89844389D01*
X83257047Y-89882507D01*
X83077579Y-89856158D01*
X83001343Y-89754655D01*
X83016193Y-89695030D01*
X83129195Y-89626803D01*
X83188820Y-89611952D01*
X83257047Y-89498950D01*
X83243456Y-89439540D01*
X83139131Y-89371098D01*
X83077114Y-89338339D01*
X82996457Y-89199935D01*
X82956722Y-89027750D01*
X82985134Y-88904309D01*
X83096005Y-88857703D01*
X83276618Y-88858416D01*
X83440990Y-88905711D01*
X83512752Y-88987541D01*
X83565451Y-89077275D01*
X83768457Y-89115393D01*
X83947925Y-89141743D01*
X84024161Y-89243246D01*
X84039012Y-89302870D01*
X84152014Y-89371098D01*
X84211638Y-89385949D01*
X84279866Y-89498950D01*
X84294717Y-89558575D01*
X84407718Y-89626803D01*
X84497453Y-89679502D01*
X84535571Y-89882507D01*
X84561920Y-90061976D01*
X84663423Y-90138212D01*
X84753157Y-90190911D01*
X84758563Y-90219700D01*
X84791276Y-90393917D01*
G37*
G36*
X91437946Y-76220006D02*
G01*
X91434662Y-76969420D01*
X91434521Y-77001660D01*
X91430858Y-77418026D01*
X91428900Y-77640632D01*
X91420798Y-78148402D01*
X91409928Y-78536453D01*
X91396005Y-78816267D01*
X91378742Y-78999325D01*
X91357854Y-79097110D01*
X91333054Y-79121102D01*
X91300750Y-79095331D01*
X91245622Y-78921293D01*
X91226510Y-78602434D01*
X91225481Y-78479085D01*
X91209107Y-78254220D01*
X91163634Y-78147134D01*
X91077349Y-78119936D01*
X91036451Y-78124435D01*
X90979862Y-78170263D01*
X90947054Y-78291579D01*
X90931880Y-78520015D01*
X90928188Y-78887205D01*
X90928256Y-78942951D01*
X90928668Y-78965892D01*
X90934629Y-79297873D01*
X90954815Y-79515320D01*
X90993666Y-79624425D01*
X91056041Y-79654319D01*
X91071445Y-79655328D01*
X91139267Y-79709344D01*
X91174074Y-79868777D01*
X91183893Y-80165729D01*
X91184145Y-80227348D01*
X91197649Y-80498634D01*
X91237507Y-80637863D01*
X91311745Y-80677138D01*
X91365973Y-80692734D01*
X91421435Y-80804991D01*
X91422866Y-80807888D01*
X91439598Y-81060695D01*
X91444796Y-81223377D01*
X91483181Y-81394056D01*
X91567450Y-81444252D01*
X91657184Y-81496952D01*
X91695302Y-81699957D01*
X91721652Y-81879425D01*
X91823155Y-81955662D01*
X91882779Y-81970512D01*
X91951007Y-82083514D01*
X91965858Y-82143139D01*
X92078859Y-82211366D01*
X92138484Y-82226217D01*
X92206712Y-82339219D01*
X92221562Y-82398843D01*
X92334564Y-82467071D01*
X92394189Y-82481922D01*
X92462416Y-82594923D01*
X92477267Y-82654548D01*
X92590269Y-82722776D01*
X92649893Y-82737626D01*
X92718121Y-82850628D01*
X92732972Y-82910253D01*
X92845974Y-82978481D01*
X92905598Y-82993331D01*
X92973826Y-83106333D01*
X92988676Y-83165957D01*
X93101678Y-83234185D01*
X93161303Y-83249036D01*
X93229531Y-83362038D01*
X93244381Y-83421662D01*
X93357383Y-83489890D01*
X93417008Y-83504740D01*
X93485235Y-83617742D01*
X93500086Y-83677367D01*
X93613088Y-83745595D01*
X93672712Y-83760445D01*
X93740940Y-83873447D01*
X93755791Y-83933072D01*
X93868792Y-84001299D01*
X93928417Y-84016150D01*
X93996645Y-84129152D01*
X94011495Y-84188776D01*
X94124497Y-84257004D01*
X94184122Y-84271855D01*
X94252349Y-84384856D01*
X94267200Y-84444481D01*
X94380202Y-84512709D01*
X94469936Y-84565408D01*
X94508054Y-84768413D01*
X94508054Y-85024118D01*
X92973826Y-85024118D01*
X92871259Y-85024076D01*
X92342862Y-85021610D01*
X91959481Y-85014035D01*
X91699292Y-84999532D01*
X91540466Y-84976282D01*
X91461177Y-84942466D01*
X91439598Y-84896266D01*
X91424747Y-84836641D01*
X91311745Y-84768413D01*
X91252121Y-84753563D01*
X91183893Y-84640561D01*
X91169042Y-84580936D01*
X91056041Y-84512709D01*
X90996416Y-84497858D01*
X90928188Y-84384856D01*
X90875489Y-84295122D01*
X90672484Y-84257004D01*
X92419799Y-84257004D01*
X92423155Y-84369539D01*
X92461691Y-84468059D01*
X92580500Y-84506292D01*
X92824665Y-84512709D01*
X93002845Y-84510589D01*
X93158836Y-84486251D01*
X93219370Y-84411213D01*
X93229531Y-84257004D01*
X93226174Y-84144469D01*
X93187639Y-84045949D01*
X93068830Y-84007716D01*
X92824665Y-84001299D01*
X92646485Y-84003419D01*
X92490494Y-84027757D01*
X92429959Y-84102795D01*
X92428222Y-84129152D01*
X92419799Y-84257004D01*
X90672484Y-84257004D01*
X90493015Y-84283354D01*
X90416779Y-84384856D01*
X90469478Y-84474590D01*
X90672484Y-84512709D01*
X90851952Y-84539058D01*
X90928188Y-84640561D01*
X90943039Y-84700186D01*
X91056041Y-84768413D01*
X91065332Y-84768818D01*
X91124485Y-84807060D01*
X91160726Y-84928171D01*
X91178911Y-85161283D01*
X91183893Y-85535527D01*
X91183826Y-85591274D01*
X91177452Y-85946195D01*
X91157267Y-86163643D01*
X91118415Y-86272747D01*
X91056041Y-86302642D01*
X90966306Y-86355341D01*
X90928188Y-86558346D01*
X90920355Y-86693306D01*
X90853599Y-86792931D01*
X90672484Y-86814051D01*
X90493015Y-86787701D01*
X90416779Y-86686199D01*
X90364080Y-86596464D01*
X90161074Y-86558346D01*
X89905369Y-86558346D01*
X89905369Y-85535527D01*
X89905369Y-84512709D01*
X89649665Y-84512709D01*
X89393960Y-84512709D01*
X89393960Y-85535527D01*
X89393960Y-86558346D01*
X89147375Y-86558346D01*
X88967322Y-86590797D01*
X88851728Y-86686199D01*
X88768429Y-86768908D01*
X88586904Y-86814051D01*
X88491458Y-86807796D01*
X88393922Y-86740939D01*
X88371141Y-86558346D01*
X88344792Y-86378878D01*
X88243289Y-86302642D01*
X88233998Y-86302237D01*
X88174844Y-86263995D01*
X88138603Y-86142884D01*
X88120419Y-85909772D01*
X88115437Y-85535527D01*
X88115504Y-85479781D01*
X88121878Y-85124860D01*
X88142063Y-84907412D01*
X88180915Y-84798308D01*
X88243289Y-84768413D01*
X88302914Y-84753563D01*
X88371141Y-84640561D01*
X88423841Y-84550827D01*
X88626846Y-84512709D01*
X88806314Y-84486359D01*
X88882551Y-84384856D01*
X88882554Y-84383911D01*
X88951714Y-84287677D01*
X89166667Y-84257004D01*
X89168769Y-84257002D01*
X89382622Y-84225880D01*
X89406527Y-84191956D01*
X89610489Y-84191956D01*
X89689346Y-84243102D01*
X89905369Y-84257004D01*
X90067916Y-84251004D01*
X90187768Y-84213484D01*
X90191897Y-84129152D01*
X90097754Y-84042997D01*
X89905369Y-84001299D01*
X89732731Y-84034186D01*
X89618842Y-84129152D01*
X89610489Y-84191956D01*
X89406527Y-84191956D01*
X89450783Y-84129152D01*
X89427604Y-84066132D01*
X89301811Y-84015890D01*
X89038815Y-84001299D01*
X88626846Y-84001299D01*
X88626846Y-83362038D01*
X88626846Y-82722776D01*
X89010403Y-82722776D01*
X89173085Y-82717577D01*
X89343764Y-82679193D01*
X89393960Y-82594923D01*
X89592842Y-82594923D01*
X89596211Y-82622839D01*
X89686243Y-82699381D01*
X89916900Y-82722776D01*
X90065163Y-82717510D01*
X90187406Y-82680321D01*
X90191897Y-82594923D01*
X90089787Y-82505710D01*
X89867839Y-82467071D01*
X89663432Y-82496724D01*
X89592842Y-82594923D01*
X89393960Y-82594923D01*
X89378364Y-82540696D01*
X89263210Y-82483803D01*
X89010403Y-82467071D01*
X88626846Y-82467071D01*
X88626846Y-81699957D01*
X88626846Y-80932843D01*
X89010403Y-80932843D01*
X89173085Y-80927644D01*
X89343764Y-80889260D01*
X89393960Y-80804991D01*
X89592842Y-80804991D01*
X89592845Y-80805936D01*
X89662005Y-80902170D01*
X89876958Y-80932843D01*
X89879060Y-80932841D01*
X90092913Y-80901719D01*
X90161074Y-80804991D01*
X90161071Y-80804045D01*
X90091911Y-80707811D01*
X89876958Y-80677138D01*
X89874856Y-80677140D01*
X89661003Y-80708262D01*
X89592842Y-80804991D01*
X89393960Y-80804991D01*
X89378364Y-80750763D01*
X89263210Y-80693870D01*
X89010403Y-80677138D01*
X88626846Y-80677138D01*
X88626846Y-79910024D01*
X88626846Y-79142910D01*
X89001284Y-79142910D01*
X89036378Y-79142637D01*
X89305557Y-79108481D01*
X89424783Y-79015058D01*
X89649665Y-79015058D01*
X89699972Y-79103613D01*
X89896250Y-79142910D01*
X90076303Y-79110459D01*
X90191897Y-79015058D01*
X90202689Y-78965892D01*
X90142770Y-78904243D01*
X89945312Y-78887205D01*
X89922812Y-78887367D01*
X89714981Y-78920099D01*
X89649665Y-79015058D01*
X89424783Y-79015058D01*
X89427722Y-79006929D01*
X89418177Y-78933108D01*
X89303085Y-78896854D01*
X89050345Y-78887205D01*
X88626846Y-78887205D01*
X88626846Y-78247944D01*
X88626846Y-77608682D01*
X89010403Y-77608682D01*
X89173085Y-77603483D01*
X89343764Y-77565099D01*
X89393960Y-77480829D01*
X89618842Y-77480829D01*
X89712985Y-77566984D01*
X89905369Y-77608682D01*
X90078008Y-77575795D01*
X90191897Y-77480829D01*
X90200250Y-77418026D01*
X90121393Y-77366879D01*
X89905369Y-77352977D01*
X89742823Y-77358977D01*
X89622971Y-77396497D01*
X89618842Y-77480829D01*
X89393960Y-77480829D01*
X89378364Y-77426602D01*
X89263210Y-77369709D01*
X89010403Y-77352977D01*
X88626846Y-77352977D01*
X88626846Y-76969420D01*
X88882551Y-76969420D01*
X88935250Y-77059154D01*
X89138255Y-77097272D01*
X89317724Y-77070923D01*
X89393960Y-76969420D01*
X89905369Y-76969420D01*
X89958069Y-77059154D01*
X90161074Y-77097272D01*
X90340542Y-77070923D01*
X90416779Y-76969420D01*
X90364080Y-76879686D01*
X90161074Y-76841568D01*
X89981606Y-76867917D01*
X89905369Y-76969420D01*
X89393960Y-76969420D01*
X89341261Y-76879686D01*
X89138255Y-76841568D01*
X88958787Y-76867917D01*
X88882551Y-76969420D01*
X88626846Y-76969420D01*
X88626846Y-76585863D01*
X88626913Y-76530117D01*
X88633287Y-76175195D01*
X88642639Y-76074454D01*
X88882551Y-76074454D01*
X88890384Y-76209414D01*
X88957140Y-76309038D01*
X89138255Y-76330158D01*
X89317724Y-76303809D01*
X89393960Y-76202306D01*
X89446659Y-76112572D01*
X89649665Y-76074454D01*
X89829133Y-76100803D01*
X89905369Y-76202306D01*
X89958069Y-76292040D01*
X90161074Y-76330158D01*
X90296034Y-76322325D01*
X90395659Y-76255569D01*
X90416779Y-76074454D01*
X90390429Y-75894985D01*
X90288927Y-75818749D01*
X90229302Y-75803898D01*
X90161074Y-75690897D01*
X90160066Y-75675492D01*
X90106049Y-75607670D01*
X89946617Y-75572863D01*
X89649665Y-75563044D01*
X89588046Y-75563296D01*
X89316760Y-75576800D01*
X89177531Y-75616659D01*
X89138255Y-75690897D01*
X89123405Y-75750521D01*
X89010403Y-75818749D01*
X88920669Y-75871448D01*
X88882551Y-76074454D01*
X88642639Y-76074454D01*
X88653472Y-75957748D01*
X88692324Y-75848643D01*
X88754698Y-75818749D01*
X88803778Y-75804102D01*
X88851651Y-75714609D01*
X88875853Y-75516680D01*
X88882551Y-75179487D01*
X88885480Y-74934090D01*
X88903379Y-74694724D01*
X88942964Y-74573712D01*
X89010403Y-74540225D01*
X89070028Y-74525375D01*
X89138255Y-74412373D01*
X89139264Y-74396968D01*
X89193280Y-74329147D01*
X89352713Y-74294340D01*
X89649665Y-74284521D01*
X89711284Y-74284773D01*
X89982570Y-74298277D01*
X90121799Y-74338135D01*
X90161074Y-74412373D01*
X90175925Y-74471998D01*
X90288927Y-74540225D01*
X90338006Y-74554872D01*
X90385879Y-74644365D01*
X90410082Y-74842294D01*
X90416779Y-75179487D01*
X90416779Y-75818749D01*
X90672484Y-75818749D01*
X90851952Y-75792399D01*
X90928188Y-75690897D01*
X90913338Y-75631272D01*
X90800336Y-75563044D01*
X90784931Y-75562036D01*
X90717110Y-75508019D01*
X90682302Y-75348587D01*
X90672484Y-75051635D01*
X90672231Y-74990016D01*
X90658727Y-74718730D01*
X90618869Y-74579501D01*
X90544631Y-74540225D01*
X90461236Y-74498519D01*
X90416779Y-74327138D01*
X90399544Y-74222287D01*
X90297032Y-74015258D01*
X90144368Y-73844276D01*
X89990604Y-73773111D01*
X89951394Y-73758687D01*
X89905369Y-73645259D01*
X89852670Y-73555525D01*
X89649665Y-73517407D01*
X89460296Y-73547599D01*
X89393960Y-73652362D01*
X89366673Y-73750974D01*
X89290705Y-73750733D01*
X89206151Y-73654337D01*
X89153903Y-73489525D01*
X89104902Y-73336140D01*
X89004742Y-73261702D01*
X88960714Y-73249929D01*
X88900779Y-73135215D01*
X88882551Y-72878145D01*
X88882551Y-72494588D01*
X90061633Y-72494588D01*
X90231225Y-72494354D01*
X90660110Y-72489815D01*
X90950951Y-72477446D01*
X91128299Y-72454584D01*
X91216704Y-72418568D01*
X91240716Y-72366736D01*
X91238563Y-72348346D01*
X91196703Y-72301840D01*
X91082631Y-72270303D01*
X90871796Y-72251073D01*
X90539647Y-72241487D01*
X90061633Y-72238883D01*
X88882551Y-72238883D01*
X88882551Y-71216064D01*
X88882974Y-71055849D01*
X88890597Y-70649435D01*
X88909409Y-70387059D01*
X88941533Y-70248754D01*
X88989094Y-70214554D01*
X89012935Y-70213570D01*
X89082909Y-70104471D01*
X89121617Y-69830997D01*
X89133425Y-69698705D01*
X89183850Y-69491221D01*
X89270778Y-69426132D01*
X89299806Y-69421751D01*
X89371683Y-69324178D01*
X89393960Y-69082517D01*
X89424920Y-68817396D01*
X89521812Y-68689841D01*
X89589536Y-68626496D01*
X89635775Y-68449003D01*
X89649665Y-68132827D01*
X89649700Y-68066339D01*
X89655401Y-67813432D01*
X89683923Y-67685477D01*
X89753823Y-67644330D01*
X89883656Y-67651846D01*
X89937901Y-67660001D01*
X90092349Y-67740175D01*
X90165408Y-67934521D01*
X90166829Y-67941892D01*
X90230475Y-68111072D01*
X90314974Y-68168917D01*
X90363725Y-68174428D01*
X90416779Y-68275460D01*
X90431629Y-68335085D01*
X90544631Y-68403313D01*
X90633187Y-68453620D01*
X90672484Y-68649898D01*
X90704934Y-68829951D01*
X90800336Y-68945545D01*
X90883045Y-69028843D01*
X90928188Y-69210369D01*
X90953301Y-69351893D01*
X91056041Y-69426132D01*
X91068113Y-69426734D01*
X91137889Y-69477963D01*
X91173755Y-69634480D01*
X91183893Y-69928422D01*
X91192879Y-70192524D01*
X91233035Y-70393664D01*
X91311745Y-70479773D01*
X91329731Y-70492503D01*
X91355928Y-70543906D01*
X91377694Y-70644684D01*
X91395422Y-70808291D01*
X91409508Y-71048183D01*
X91420345Y-71377815D01*
X91428327Y-71810640D01*
X91433849Y-72360114D01*
X91437306Y-73039692D01*
X91439090Y-73862827D01*
X91439598Y-74842975D01*
X91439462Y-75284186D01*
X91438182Y-76074454D01*
X91437946Y-76220006D01*
G37*
D14*
%TO.C,C2*%
X66279251Y-118861413D02*
X66080440Y-118662602D01*
X67000500Y-118140164D02*
X66801689Y-117941353D01*
%TO.C,D4*%
X63634261Y-119313551D02*
X63174642Y-119773170D01*
X65182825Y-121781353D02*
X63174642Y-119773170D01*
X66809170Y-120155008D02*
X64800987Y-118146825D01*
%TD*%
%LPC*%
D16*
%TO.C,REF\u002A\u002A*%
X144250000Y-129500000D03*
%TD*%
D17*
%TO.C,Card1*%
X120400000Y-94600000D03*
X120400000Y-86600000D03*
%TD*%
%TO.C,BAT_PWR*%
X77750000Y-87500000D03*
X80750000Y-87500000D03*
%TD*%
D18*
%TO.C,USB1*%
X80420000Y-73910000D03*
X80420000Y-79690000D03*
D19*
X80950000Y-72480000D03*
D20*
X76740000Y-72480000D03*
D19*
X80950000Y-81120000D03*
D20*
X76740000Y-81120000D03*
%TD*%
D21*
%TO.C,H1*%
X78000000Y-107000000D03*
%TD*%
D22*
%TO.C,TP10*%
X81250000Y-97400000D03*
%TD*%
%TO.C,TP9*%
X86500000Y-97400000D03*
%TD*%
D21*
%TO.C,H2*%
X122000000Y-107000000D03*
%TD*%
%TO.C,H4*%
X78000000Y-63000000D03*
%TD*%
D16*
%TO.C,REF\u002A\u002A*%
X144250000Y-39750000D03*
%TD*%
D23*
%TO.C,BOOT*%
X122855000Y-75900000D03*
X122855000Y-72900000D03*
%TD*%
D21*
%TO.C,H3*%
X122000000Y-63000000D03*
%TD*%
D16*
%TO.C,REF\u002A\u002A*%
X55250000Y-129000000D03*
%TD*%
D24*
%TO.C,C20*%
X134016567Y-51905653D03*
X132920551Y-50809637D03*
%TD*%
D25*
%TO.C,J4*%
X113300000Y-70200000D03*
X113300000Y-72700000D03*
X113300000Y-75200000D03*
X113300000Y-77700000D03*
X115800000Y-70200000D03*
X115800000Y-72700000D03*
X115800000Y-75200000D03*
X115800000Y-77700000D03*
%TD*%
D26*
%TO.C,C1*%
X66693988Y-51000000D03*
X65597972Y-52096016D03*
%TD*%
D27*
%TO.C,D3*%
X134741906Y-120785911D03*
X133964089Y-120008094D03*
X135258094Y-118714089D03*
X136035911Y-119491906D03*
%TD*%
D28*
%TO.C,D2*%
X136000000Y-50000000D03*
X135222183Y-50777817D03*
X133928178Y-49483812D03*
X134705995Y-48705995D03*
%TD*%
D29*
%TO.C,C19*%
X132889286Y-118749444D03*
X133985302Y-117653428D03*
%TD*%
D30*
%TO.C,D5*%
X64818387Y-48937017D03*
X65596204Y-49714834D03*
X64302199Y-51008839D03*
X63524382Y-50231022D03*
%TD*%
D31*
%TO.C,C2*%
X65992462Y-117853375D03*
X67088478Y-118949391D03*
%TD*%
D32*
%TO.C,D4*%
X63955995Y-119705995D03*
X64733812Y-118928178D03*
X66027817Y-120222183D03*
X65250000Y-121000000D03*
%TD*%
%LPD*%
M02*
