%TF.GenerationSoftware,KiCad,Pcbnew,8.0.1-8.0.1-1~ubuntu22.04.1*%
%TF.CreationDate,2024-03-26T19:18:49+01:00*%
%TF.ProjectId,espdrone,65737064-726f-46e6-952e-6b696361645f,rev?*%
%TF.SameCoordinates,Original*%
%TF.FileFunction,Legend,Top*%
%TF.FilePolarity,Positive*%
%FSLAX46Y46*%
G04 Gerber Fmt 4.6, Leading zero omitted, Abs format (unit mm)*
G04 Created by KiCad (PCBNEW 8.0.1-8.0.1-1~ubuntu22.04.1) date 2024-03-26 19:18:49*
%MOMM*%
%LPD*%
G01*
G04 APERTURE LIST*
G04 Aperture macros list*
%AMRoundRect*
0 Rectangle with rounded corners*
0 $1 Rounding radius*
0 $2 $3 $4 $5 $6 $7 $8 $9 X,Y pos of 4 corners*
0 Add a 4 corners polygon primitive as box body*
4,1,4,$2,$3,$4,$5,$6,$7,$8,$9,$2,$3,0*
0 Add four circle primitives for the rounded corners*
1,1,$1+$1,$2,$3*
1,1,$1+$1,$4,$5*
1,1,$1+$1,$6,$7*
1,1,$1+$1,$8,$9*
0 Add four rect primitives between the rounded corners*
20,1,$1+$1,$2,$3,$4,$5,0*
20,1,$1+$1,$4,$5,$6,$7,0*
20,1,$1+$1,$6,$7,$8,$9,0*
20,1,$1+$1,$8,$9,$2,$3,0*%
%AMRotRect*
0 Rectangle, with rotation*
0 The origin of the aperture is its center*
0 $1 length*
0 $2 width*
0 $3 Rotation angle, in degrees counterclockwise*
0 Add horizontal line*
21,1,$1,$2,0,0,$3*%
G04 Aperture macros list end*
%ADD10C,0.150000*%
%ADD11C,0.200000*%
%ADD12C,0.300000*%
%ADD13C,0.120000*%
%ADD14C,0.100000*%
%ADD15C,0.250000*%
%ADD16RoundRect,0.250000X-0.325000X-0.650000X0.325000X-0.650000X0.325000X0.650000X-0.325000X0.650000X0*%
%ADD17RoundRect,0.200000X0.275000X-0.200000X0.275000X0.200000X-0.275000X0.200000X-0.275000X-0.200000X0*%
%ADD18R,2.000000X2.000000*%
%ADD19C,1.300000*%
%ADD20RoundRect,0.150000X-0.309359X-0.521491X0.521491X0.309359X0.309359X0.521491X-0.521491X-0.309359X0*%
%ADD21RoundRect,0.250000X-0.689429X-0.229810X-0.229810X-0.689429X0.689429X0.229810X0.229810X0.689429X0*%
%ADD22RoundRect,0.200000X-0.200000X-0.275000X0.200000X-0.275000X0.200000X0.275000X-0.200000X0.275000X0*%
%ADD23RoundRect,0.225000X-0.017678X0.335876X-0.335876X0.017678X0.017678X-0.335876X0.335876X-0.017678X0*%
%ADD24C,1.000000*%
%ADD25R,1.600000X0.700000*%
%ADD26R,1.500000X1.200000*%
%ADD27R,2.200000X1.200000*%
%ADD28R,1.500000X1.600000*%
%ADD29RoundRect,0.112500X0.212132X-0.053033X-0.053033X0.212132X-0.212132X0.053033X0.053033X-0.212132X0*%
%ADD30RoundRect,0.135000X0.135000X0.185000X-0.135000X0.185000X-0.135000X-0.185000X0.135000X-0.185000X0*%
%ADD31RoundRect,0.200000X-0.275000X0.200000X-0.275000X-0.200000X0.275000X-0.200000X0.275000X0.200000X0*%
%ADD32R,1.000000X1.500000*%
%ADD33RoundRect,0.250000X-0.475000X0.250000X-0.475000X-0.250000X0.475000X-0.250000X0.475000X0.250000X0*%
%ADD34RoundRect,0.225000X0.225000X0.250000X-0.225000X0.250000X-0.225000X-0.250000X0.225000X-0.250000X0*%
%ADD35RotRect,0.700000X0.700000X225.000000*%
%ADD36RoundRect,0.250000X0.250000X0.475000X-0.250000X0.475000X-0.250000X-0.475000X0.250000X-0.475000X0*%
%ADD37C,0.700000*%
%ADD38R,1.100000X0.550000*%
%ADD39R,1.100000X0.300000*%
%ADD40O,2.000000X1.100000*%
%ADD41O,1.800000X1.200000*%
%ADD42RoundRect,0.250000X0.229810X-0.689429X0.689429X-0.229810X-0.229810X0.689429X-0.689429X0.229810X0*%
%ADD43RotRect,2.000000X2.000000X45.000000*%
%ADD44RoundRect,0.200000X0.335876X0.053033X0.053033X0.335876X-0.335876X-0.053033X-0.053033X-0.335876X0*%
%ADD45RoundRect,0.112500X0.053033X0.212132X-0.212132X-0.053033X-0.053033X-0.212132X0.212132X0.053033X0*%
%ADD46C,2.100000*%
%ADD47RoundRect,0.150000X0.512500X0.150000X-0.512500X0.150000X-0.512500X-0.150000X0.512500X-0.150000X0*%
%ADD48RoundRect,0.225000X-0.225000X-0.250000X0.225000X-0.250000X0.225000X0.250000X-0.225000X0.250000X0*%
%ADD49RoundRect,0.225000X-0.335876X-0.017678X-0.017678X-0.335876X0.335876X0.017678X0.017678X0.335876X0*%
%ADD50C,3.800000*%
%ADD51RoundRect,0.225000X0.250000X-0.225000X0.250000X0.225000X-0.250000X0.225000X-0.250000X-0.225000X0*%
%ADD52R,1.500000X0.900000*%
%ADD53R,0.900000X1.500000*%
%ADD54R,0.900000X0.900000*%
%ADD55RoundRect,0.150000X-0.521491X0.309359X0.309359X-0.521491X0.521491X-0.309359X-0.309359X0.521491X0*%
%ADD56RoundRect,0.150000X0.521491X-0.309359X-0.309359X0.521491X-0.521491X0.309359X0.309359X-0.521491X0*%
%ADD57RoundRect,0.225000X0.335876X0.017678X0.017678X0.335876X-0.335876X-0.017678X-0.017678X-0.335876X0*%
%ADD58RoundRect,0.200000X-0.335876X-0.053033X-0.053033X-0.335876X0.335876X0.053033X0.053033X0.335876X0*%
%ADD59R,0.300000X1.200000*%
%ADD60R,2.000000X1.800000*%
%ADD61RotRect,0.700000X0.700000X45.000000*%
%ADD62RoundRect,0.225000X0.017678X-0.335876X0.335876X-0.017678X-0.017678X0.335876X-0.335876X0.017678X0*%
%ADD63RotRect,2.000000X2.000000X315.000000*%
%ADD64RotRect,2.000000X2.000000X135.000000*%
%ADD65RotRect,0.700000X0.700000X315.000000*%
%ADD66RotRect,0.700000X0.700000X135.000000*%
%ADD67RoundRect,0.250000X0.325000X0.650000X-0.325000X0.650000X-0.325000X-0.650000X0.325000X-0.650000X0*%
%ADD68RoundRect,0.200000X0.053033X-0.335876X0.335876X-0.053033X-0.053033X0.335876X-0.335876X0.053033X0*%
%ADD69RoundRect,0.225000X-0.250000X0.225000X-0.250000X-0.225000X0.250000X-0.225000X0.250000X0.225000X0*%
%ADD70RoundRect,0.250000X0.475000X-0.250000X0.475000X0.250000X-0.475000X0.250000X-0.475000X-0.250000X0*%
%ADD71RoundRect,0.200000X-0.053033X0.335876X-0.335876X0.053033X0.053033X-0.335876X0.335876X-0.053033X0*%
%ADD72R,0.800000X1.000000*%
%ADD73C,0.900000*%
%ADD74R,1.500000X0.700000*%
%ADD75RoundRect,0.150000X0.150000X-0.512500X0.150000X0.512500X-0.150000X0.512500X-0.150000X-0.512500X0*%
%ADD76RotRect,2.000000X2.000000X225.000000*%
%ADD77RoundRect,0.112500X-0.053033X-0.212132X0.212132X0.053033X0.053033X0.212132X-0.212132X-0.053033X0*%
%ADD78RoundRect,0.250000X-0.229810X0.689429X-0.689429X0.229810X0.229810X-0.689429X0.689429X-0.229810X0*%
%ADD79RoundRect,0.112500X-0.212132X0.053033X0.053033X-0.212132X0.212132X-0.053033X-0.053033X0.212132X0*%
%ADD80RoundRect,0.150000X0.309359X0.521491X-0.521491X-0.309359X-0.309359X-0.521491X0.521491X0.309359X0*%
%ADD81RoundRect,0.087500X0.087500X-0.225000X0.087500X0.225000X-0.087500X0.225000X-0.087500X-0.225000X0*%
%ADD82RoundRect,0.087500X0.225000X-0.087500X0.225000X0.087500X-0.225000X0.087500X-0.225000X-0.087500X0*%
%ADD83RoundRect,0.250000X0.689429X0.229810X0.229810X0.689429X-0.689429X-0.229810X-0.229810X-0.689429X0*%
G04 APERTURE END LIST*
D10*
X138089160Y-118665057D02*
X138136779Y-118617438D01*
X138136779Y-118617438D02*
X138232017Y-118569819D01*
X138232017Y-118569819D02*
X138470112Y-118569819D01*
X138470112Y-118569819D02*
X138565350Y-118617438D01*
X138565350Y-118617438D02*
X138612969Y-118665057D01*
X138612969Y-118665057D02*
X138660588Y-118760295D01*
X138660588Y-118760295D02*
X138660588Y-118855533D01*
X138660588Y-118855533D02*
X138612969Y-118998390D01*
X138612969Y-118998390D02*
X138041541Y-119569819D01*
X138041541Y-119569819D02*
X138660588Y-119569819D01*
X139660588Y-119474580D02*
X139612969Y-119522200D01*
X139612969Y-119522200D02*
X139470112Y-119569819D01*
X139470112Y-119569819D02*
X139374874Y-119569819D01*
X139374874Y-119569819D02*
X139232017Y-119522200D01*
X139232017Y-119522200D02*
X139136779Y-119426961D01*
X139136779Y-119426961D02*
X139089160Y-119331723D01*
X139089160Y-119331723D02*
X139041541Y-119141247D01*
X139041541Y-119141247D02*
X139041541Y-118998390D01*
X139041541Y-118998390D02*
X139089160Y-118807914D01*
X139089160Y-118807914D02*
X139136779Y-118712676D01*
X139136779Y-118712676D02*
X139232017Y-118617438D01*
X139232017Y-118617438D02*
X139374874Y-118569819D01*
X139374874Y-118569819D02*
X139470112Y-118569819D01*
X139470112Y-118569819D02*
X139612969Y-118617438D01*
X139612969Y-118617438D02*
X139660588Y-118665057D01*
X140660588Y-119474580D02*
X140612969Y-119522200D01*
X140612969Y-119522200D02*
X140470112Y-119569819D01*
X140470112Y-119569819D02*
X140374874Y-119569819D01*
X140374874Y-119569819D02*
X140232017Y-119522200D01*
X140232017Y-119522200D02*
X140136779Y-119426961D01*
X140136779Y-119426961D02*
X140089160Y-119331723D01*
X140089160Y-119331723D02*
X140041541Y-119141247D01*
X140041541Y-119141247D02*
X140041541Y-118998390D01*
X140041541Y-118998390D02*
X140089160Y-118807914D01*
X140089160Y-118807914D02*
X140136779Y-118712676D01*
X140136779Y-118712676D02*
X140232017Y-118617438D01*
X140232017Y-118617438D02*
X140374874Y-118569819D01*
X140374874Y-118569819D02*
X140470112Y-118569819D01*
X140470112Y-118569819D02*
X140612969Y-118617438D01*
X140612969Y-118617438D02*
X140660588Y-118665057D01*
X140993922Y-118569819D02*
X141232017Y-119569819D01*
X141232017Y-119569819D02*
X141422493Y-118855533D01*
X141422493Y-118855533D02*
X141612969Y-119569819D01*
X141612969Y-119569819D02*
X141851065Y-118569819D01*
X76277255Y-91619819D02*
X76467731Y-91619819D01*
X76467731Y-91619819D02*
X76562969Y-91667438D01*
X76562969Y-91667438D02*
X76658207Y-91762676D01*
X76658207Y-91762676D02*
X76705826Y-91953152D01*
X76705826Y-91953152D02*
X76705826Y-92286485D01*
X76705826Y-92286485D02*
X76658207Y-92476961D01*
X76658207Y-92476961D02*
X76562969Y-92572200D01*
X76562969Y-92572200D02*
X76467731Y-92619819D01*
X76467731Y-92619819D02*
X76277255Y-92619819D01*
X76277255Y-92619819D02*
X76182017Y-92572200D01*
X76182017Y-92572200D02*
X76086779Y-92476961D01*
X76086779Y-92476961D02*
X76039160Y-92286485D01*
X76039160Y-92286485D02*
X76039160Y-91953152D01*
X76039160Y-91953152D02*
X76086779Y-91762676D01*
X76086779Y-91762676D02*
X76182017Y-91667438D01*
X76182017Y-91667438D02*
X76277255Y-91619819D01*
X77134398Y-92619819D02*
X77134398Y-91619819D01*
X77134398Y-91619819D02*
X77705826Y-92619819D01*
X77705826Y-92619819D02*
X77705826Y-91619819D01*
X79182017Y-92953152D02*
X79182017Y-91524580D01*
X80848684Y-91619819D02*
X81039160Y-91619819D01*
X81039160Y-91619819D02*
X81134398Y-91667438D01*
X81134398Y-91667438D02*
X81229636Y-91762676D01*
X81229636Y-91762676D02*
X81277255Y-91953152D01*
X81277255Y-91953152D02*
X81277255Y-92286485D01*
X81277255Y-92286485D02*
X81229636Y-92476961D01*
X81229636Y-92476961D02*
X81134398Y-92572200D01*
X81134398Y-92572200D02*
X81039160Y-92619819D01*
X81039160Y-92619819D02*
X80848684Y-92619819D01*
X80848684Y-92619819D02*
X80753446Y-92572200D01*
X80753446Y-92572200D02*
X80658208Y-92476961D01*
X80658208Y-92476961D02*
X80610589Y-92286485D01*
X80610589Y-92286485D02*
X80610589Y-91953152D01*
X80610589Y-91953152D02*
X80658208Y-91762676D01*
X80658208Y-91762676D02*
X80753446Y-91667438D01*
X80753446Y-91667438D02*
X80848684Y-91619819D01*
X82039160Y-92096009D02*
X81705827Y-92096009D01*
X81705827Y-92619819D02*
X81705827Y-91619819D01*
X81705827Y-91619819D02*
X82182017Y-91619819D01*
X82896303Y-92096009D02*
X82562970Y-92096009D01*
X82562970Y-92619819D02*
X82562970Y-91619819D01*
X82562970Y-91619819D02*
X83039160Y-91619819D01*
D11*
X130869673Y-119986266D02*
X131631578Y-119986266D01*
X64119673Y-115986266D02*
X64881578Y-115986266D01*
X134869673Y-53486266D02*
X135631578Y-53486266D01*
D12*
G36*
X99390977Y-82991680D02*
G01*
X99429643Y-83028671D01*
X99476138Y-83118222D01*
X99478389Y-83475855D01*
X99435086Y-83565867D01*
X99398095Y-83604532D01*
X99308368Y-83651119D01*
X99093370Y-83653086D01*
X99060402Y-83637226D01*
X99059134Y-82964676D01*
X99086369Y-82950536D01*
X99301365Y-82948569D01*
X99390977Y-82991680D01*
G37*
G36*
X98033834Y-82991680D02*
G01*
X98072500Y-83028671D01*
X98118995Y-83118222D01*
X98121246Y-83475855D01*
X98077943Y-83565867D01*
X98040952Y-83604532D01*
X97951056Y-83651206D01*
X97807284Y-83652908D01*
X97718042Y-83609975D01*
X97679377Y-83572984D01*
X97632882Y-83483434D01*
X97630631Y-83125800D01*
X97673934Y-83035788D01*
X97710923Y-82997125D01*
X97800823Y-82950449D01*
X97944593Y-82948747D01*
X98033834Y-82991680D01*
G37*
G36*
X101585424Y-82982136D02*
G01*
X101613663Y-83036524D01*
X101202274Y-83120431D01*
X101201958Y-83054583D01*
X101235818Y-82984199D01*
X101300655Y-82950536D01*
X101515651Y-82948569D01*
X101585424Y-82982136D01*
G37*
G36*
X106105262Y-82491680D02*
G01*
X106143928Y-82528671D01*
X106196540Y-82630004D01*
X106261719Y-82881196D01*
X106264108Y-83201432D01*
X106203509Y-83453334D01*
X106149371Y-83565867D01*
X106112380Y-83604532D01*
X106022171Y-83651369D01*
X105949473Y-83652586D01*
X105860899Y-83609975D01*
X105822236Y-83572986D01*
X105769620Y-83471649D01*
X105704443Y-83220460D01*
X105702054Y-82900223D01*
X105762653Y-82648320D01*
X105816790Y-82535789D01*
X105853780Y-82497125D01*
X105943993Y-82450286D01*
X106016689Y-82449069D01*
X106105262Y-82491680D01*
G37*
G36*
X92491261Y-83223055D02*
G01*
X92189299Y-83224226D01*
X92339574Y-82770696D01*
X92491261Y-83223055D01*
G37*
G36*
X108868295Y-84614613D02*
G01*
X91524736Y-84614613D01*
X91524736Y-83782067D01*
X91691403Y-83782067D01*
X91695552Y-83840448D01*
X91721726Y-83892795D01*
X91765940Y-83931142D01*
X91821464Y-83949650D01*
X91879845Y-83945501D01*
X91932192Y-83919327D01*
X91970539Y-83875113D01*
X91982527Y-83848262D01*
X92090685Y-83521839D01*
X92590800Y-83519901D01*
X92709911Y-83875113D01*
X92748258Y-83919328D01*
X92800606Y-83945501D01*
X92858986Y-83949651D01*
X92914510Y-83931142D01*
X92958724Y-83892795D01*
X92984898Y-83840448D01*
X92989048Y-83782068D01*
X92982528Y-83753394D01*
X92663110Y-82800828D01*
X93190224Y-82800828D01*
X93193106Y-83830092D01*
X93215504Y-83884164D01*
X93256888Y-83925548D01*
X93310960Y-83947946D01*
X93369488Y-83947946D01*
X93423560Y-83925548D01*
X93464944Y-83884164D01*
X93487342Y-83830092D01*
X93490224Y-83800828D01*
X93487998Y-83006155D01*
X93496637Y-82997125D01*
X93586537Y-82950449D01*
X93730307Y-82948747D01*
X93799709Y-82982136D01*
X93833193Y-83046625D01*
X93835964Y-83830092D01*
X93858362Y-83884164D01*
X93899746Y-83925548D01*
X93953818Y-83947946D01*
X94012346Y-83947946D01*
X94066418Y-83925548D01*
X94107802Y-83884164D01*
X94130200Y-83830092D01*
X94133082Y-83800828D01*
X94130385Y-83038429D01*
X94131904Y-83033875D01*
X94130289Y-83011157D01*
X94130200Y-82985850D01*
X94128136Y-82980869D01*
X94127755Y-82975495D01*
X94117246Y-82948031D01*
X94056010Y-82830092D01*
X94335964Y-82830092D01*
X94358362Y-82884164D01*
X94399746Y-82925548D01*
X94453818Y-82947946D01*
X94483082Y-82950828D01*
X94548790Y-82950512D01*
X94550133Y-83563015D01*
X94548545Y-83567780D01*
X94550194Y-83590997D01*
X94550249Y-83615806D01*
X94552310Y-83620783D01*
X94552693Y-83626161D01*
X94563203Y-83653624D01*
X94633759Y-83789515D01*
X94638482Y-83803684D01*
X94645043Y-83811249D01*
X94650297Y-83821368D01*
X94664508Y-83833692D01*
X94676829Y-83847899D01*
X94691636Y-83857220D01*
X94694512Y-83859714D01*
X94696820Y-83860483D01*
X94701714Y-83863564D01*
X94826239Y-83923470D01*
X94828317Y-83925548D01*
X94844439Y-83932226D01*
X94872035Y-83945502D01*
X94877410Y-83945883D01*
X94882389Y-83947946D01*
X94911653Y-83950828D01*
X95083774Y-83947946D01*
X95137846Y-83925548D01*
X95179230Y-83884164D01*
X95201628Y-83830092D01*
X95201628Y-83771564D01*
X95179230Y-83717492D01*
X95137846Y-83676108D01*
X95083774Y-83653710D01*
X95054510Y-83650828D01*
X94949473Y-83652586D01*
X94880738Y-83619520D01*
X94847298Y-83555112D01*
X94845969Y-82949086D01*
X95083774Y-82947946D01*
X95137846Y-82925548D01*
X95179230Y-82884164D01*
X95201628Y-82830092D01*
X95201628Y-82800828D01*
X95404510Y-82800828D01*
X95407392Y-83830092D01*
X95429790Y-83884164D01*
X95471174Y-83925548D01*
X95525246Y-83947946D01*
X95583774Y-83947946D01*
X95637846Y-83925548D01*
X95679230Y-83884164D01*
X95701628Y-83830092D01*
X95704510Y-83800828D01*
X95702510Y-83086542D01*
X96047368Y-83086542D01*
X96049921Y-83492225D01*
X96048546Y-83496352D01*
X96050083Y-83517997D01*
X96050250Y-83544378D01*
X96052312Y-83549356D01*
X96052694Y-83554732D01*
X96063204Y-83582196D01*
X96137212Y-83724737D01*
X96144075Y-83741306D01*
X96148810Y-83747076D01*
X96150297Y-83749939D01*
X96153290Y-83752535D01*
X96162730Y-83764037D01*
X96237885Y-83835938D01*
X96248258Y-83847899D01*
X96254481Y-83851816D01*
X96256890Y-83854121D01*
X96260551Y-83855637D01*
X96273143Y-83863564D01*
X96397668Y-83923470D01*
X96399746Y-83925548D01*
X96415868Y-83932226D01*
X96443464Y-83945502D01*
X96448839Y-83945883D01*
X96453818Y-83947946D01*
X96483082Y-83950828D01*
X96746341Y-83948419D01*
X96750034Y-83949650D01*
X96770462Y-83948198D01*
X96798060Y-83947946D01*
X96803038Y-83945883D01*
X96808414Y-83945502D01*
X96835877Y-83934992D01*
X97003621Y-83847899D01*
X97041968Y-83803685D01*
X97060476Y-83748162D01*
X97056328Y-83689782D01*
X97030154Y-83637433D01*
X96985939Y-83599086D01*
X96930417Y-83580578D01*
X96872036Y-83584726D01*
X96844573Y-83595235D01*
X96736937Y-83651119D01*
X96521941Y-83653086D01*
X96432328Y-83609975D01*
X96393663Y-83572984D01*
X96347168Y-83483434D01*
X96344917Y-83125800D01*
X96363803Y-83086542D01*
X97333082Y-83086542D01*
X97335635Y-83492225D01*
X97334260Y-83496352D01*
X97335797Y-83517997D01*
X97335964Y-83544378D01*
X97338026Y-83549356D01*
X97338408Y-83554732D01*
X97348918Y-83582196D01*
X97422926Y-83724737D01*
X97429789Y-83741306D01*
X97434524Y-83747076D01*
X97436011Y-83749939D01*
X97439004Y-83752535D01*
X97448444Y-83764037D01*
X97523599Y-83835938D01*
X97533972Y-83847899D01*
X97540195Y-83851816D01*
X97542604Y-83854121D01*
X97546265Y-83855637D01*
X97558857Y-83863564D01*
X97683382Y-83923470D01*
X97685460Y-83925548D01*
X97701582Y-83932226D01*
X97729178Y-83945502D01*
X97734553Y-83945883D01*
X97739532Y-83947946D01*
X97768796Y-83950828D01*
X97961029Y-83948553D01*
X97964320Y-83949650D01*
X97983498Y-83948287D01*
X98012346Y-83947946D01*
X98017324Y-83945883D01*
X98022700Y-83945502D01*
X98050164Y-83934992D01*
X98192705Y-83860983D01*
X98209274Y-83854121D01*
X98215044Y-83849385D01*
X98217907Y-83847899D01*
X98220503Y-83844905D01*
X98232005Y-83835466D01*
X98303906Y-83760310D01*
X98315867Y-83749938D01*
X98319784Y-83743714D01*
X98322089Y-83741306D01*
X98323605Y-83737644D01*
X98331532Y-83725053D01*
X98391438Y-83600527D01*
X98393516Y-83598450D01*
X98400194Y-83582327D01*
X98413470Y-83554732D01*
X98413851Y-83549356D01*
X98415914Y-83544378D01*
X98418796Y-83515114D01*
X98416242Y-83109431D01*
X98417618Y-83105304D01*
X98416080Y-83083658D01*
X98415914Y-83057278D01*
X98413851Y-83052299D01*
X98413470Y-83046924D01*
X98402960Y-83019461D01*
X98328951Y-82876918D01*
X98322088Y-82860349D01*
X98317352Y-82854578D01*
X98315867Y-82851718D01*
X98312875Y-82849123D01*
X98303433Y-82837618D01*
X98264978Y-82800828D01*
X98761653Y-82800828D01*
X98763422Y-83739835D01*
X98762831Y-83748162D01*
X98763441Y-83749994D01*
X98764535Y-84330092D01*
X98786933Y-84384164D01*
X98828317Y-84425548D01*
X98882389Y-84447946D01*
X98940917Y-84447946D01*
X98994989Y-84425548D01*
X99036373Y-84384164D01*
X99058771Y-84330092D01*
X99061653Y-84300828D01*
X99060993Y-83950768D01*
X99317770Y-83948419D01*
X99321463Y-83949650D01*
X99341891Y-83948198D01*
X99369489Y-83947946D01*
X99374467Y-83945883D01*
X99379843Y-83945502D01*
X99407307Y-83934992D01*
X99549848Y-83860983D01*
X99566417Y-83854121D01*
X99572187Y-83849385D01*
X99575050Y-83847899D01*
X99577646Y-83844905D01*
X99589148Y-83835466D01*
X99661049Y-83760310D01*
X99673010Y-83749938D01*
X99676927Y-83743714D01*
X99679232Y-83741306D01*
X99680748Y-83737644D01*
X99688675Y-83725053D01*
X99748581Y-83600527D01*
X99750659Y-83598450D01*
X99757337Y-83582327D01*
X99770613Y-83554732D01*
X99770994Y-83549356D01*
X99773057Y-83544378D01*
X99775939Y-83515114D01*
X99773385Y-83109431D01*
X99774761Y-83105304D01*
X99773223Y-83083658D01*
X99773057Y-83057278D01*
X99770994Y-83052299D01*
X99770613Y-83046924D01*
X99760103Y-83019461D01*
X99686094Y-82876918D01*
X99679231Y-82860349D01*
X99674495Y-82854578D01*
X99673010Y-82851718D01*
X99670018Y-82849123D01*
X99660576Y-82837618D01*
X99652709Y-82830092D01*
X99907393Y-82830092D01*
X99929791Y-82884164D01*
X99971175Y-82925548D01*
X100025247Y-82947946D01*
X100054511Y-82950828D01*
X100120219Y-82950512D01*
X100121562Y-83563015D01*
X100119974Y-83567780D01*
X100121623Y-83590997D01*
X100121678Y-83615806D01*
X100123739Y-83620783D01*
X100124122Y-83626161D01*
X100134632Y-83653624D01*
X100205188Y-83789515D01*
X100209911Y-83803684D01*
X100216472Y-83811249D01*
X100221726Y-83821368D01*
X100235937Y-83833692D01*
X100248258Y-83847899D01*
X100263065Y-83857220D01*
X100265941Y-83859714D01*
X100268249Y-83860483D01*
X100273143Y-83863564D01*
X100397668Y-83923470D01*
X100399746Y-83925548D01*
X100415868Y-83932226D01*
X100443464Y-83945502D01*
X100448839Y-83945883D01*
X100453818Y-83947946D01*
X100483082Y-83950828D01*
X100655203Y-83947946D01*
X100709275Y-83925548D01*
X100750659Y-83884164D01*
X100773057Y-83830092D01*
X100773057Y-83771564D01*
X100750659Y-83717492D01*
X100709275Y-83676108D01*
X100655203Y-83653710D01*
X100625939Y-83650828D01*
X100520902Y-83652586D01*
X100452167Y-83619520D01*
X100418727Y-83555112D01*
X100418170Y-83300984D01*
X100904511Y-83300984D01*
X100905916Y-83308010D01*
X100907141Y-83563422D01*
X100905689Y-83567780D01*
X100907269Y-83590021D01*
X100907393Y-83615806D01*
X100909455Y-83620784D01*
X100909837Y-83626160D01*
X100920347Y-83653623D01*
X100990900Y-83789510D01*
X100995625Y-83803685D01*
X101002189Y-83811253D01*
X101007440Y-83821367D01*
X101021646Y-83833688D01*
X101033972Y-83847900D01*
X101048776Y-83857218D01*
X101051654Y-83859714D01*
X101053965Y-83860484D01*
X101058858Y-83863564D01*
X101183383Y-83923470D01*
X101185461Y-83925548D01*
X101201583Y-83932226D01*
X101229179Y-83945502D01*
X101234554Y-83945883D01*
X101239533Y-83947946D01*
X101268797Y-83950828D01*
X101532056Y-83948419D01*
X101535749Y-83949650D01*
X101556177Y-83948198D01*
X101583775Y-83947946D01*
X101588753Y-83945883D01*
X101594129Y-83945502D01*
X101621593Y-83934992D01*
X101789336Y-83847899D01*
X101827682Y-83803684D01*
X101846190Y-83748162D01*
X101842042Y-83689782D01*
X101815868Y-83637433D01*
X101771653Y-83599086D01*
X101716130Y-83580578D01*
X101657750Y-83584726D01*
X101630287Y-83595236D01*
X101522654Y-83651119D01*
X101307656Y-83653086D01*
X101237882Y-83619520D01*
X101204359Y-83554953D01*
X101203728Y-83423480D01*
X101784199Y-83305089D01*
X101798061Y-83305089D01*
X101811506Y-83299519D01*
X101826345Y-83296493D01*
X101838556Y-83288314D01*
X101852133Y-83282691D01*
X101862634Y-83272189D01*
X101874975Y-83263925D01*
X101883127Y-83251697D01*
X101893517Y-83241307D01*
X101899199Y-83227587D01*
X101907439Y-83215229D01*
X101910291Y-83200811D01*
X101915915Y-83187235D01*
X101918797Y-83157971D01*
X101918794Y-83157830D01*
X101918798Y-83157814D01*
X101918794Y-83157794D01*
X101916762Y-83036445D01*
X101917619Y-83033875D01*
X101916441Y-83017310D01*
X101915915Y-82985850D01*
X101913851Y-82980869D01*
X101913470Y-82975495D01*
X101902961Y-82948031D01*
X101832404Y-82812139D01*
X101828634Y-82800828D01*
X102261653Y-82800828D01*
X102264535Y-83830092D01*
X102286933Y-83884164D01*
X102328317Y-83925548D01*
X102382389Y-83947946D01*
X102440917Y-83947946D01*
X102494989Y-83925548D01*
X102536373Y-83884164D01*
X102558771Y-83830092D01*
X102561653Y-83800828D01*
X102559759Y-83124642D01*
X102602505Y-83035789D01*
X102639495Y-82997125D01*
X102729708Y-82950286D01*
X102869489Y-82947946D01*
X102923561Y-82925548D01*
X102964945Y-82884164D01*
X102987343Y-82830092D01*
X102987343Y-82822750D01*
X104191834Y-82822750D01*
X104198963Y-82851278D01*
X104551533Y-83830303D01*
X104551884Y-83837361D01*
X104561021Y-83856650D01*
X104568662Y-83877868D01*
X104573715Y-83883450D01*
X104576938Y-83890253D01*
X104593210Y-83904984D01*
X104607942Y-83921257D01*
X104614744Y-83924479D01*
X104620327Y-83929533D01*
X104641001Y-83936916D01*
X104660834Y-83946311D01*
X104668352Y-83946684D01*
X104675445Y-83949218D01*
X104697367Y-83948127D01*
X104719289Y-83949218D01*
X104726381Y-83946684D01*
X104733900Y-83946311D01*
X104753732Y-83936916D01*
X104774407Y-83929533D01*
X104779989Y-83924479D01*
X104786792Y-83921257D01*
X104801523Y-83904984D01*
X104817796Y-83890253D01*
X104821018Y-83883450D01*
X104826072Y-83877868D01*
X104838628Y-83851278D01*
X105185366Y-82872257D01*
X105404510Y-82872257D01*
X105407106Y-83220430D01*
X105404687Y-83236691D01*
X105407363Y-83254785D01*
X105407392Y-83258664D01*
X105408239Y-83260708D01*
X105408989Y-83265780D01*
X105480246Y-83540400D01*
X105481265Y-83554733D01*
X105489653Y-83576653D01*
X105490310Y-83579185D01*
X105490954Y-83580055D01*
X105491774Y-83582196D01*
X105565783Y-83724738D01*
X105572646Y-83741306D01*
X105577381Y-83747076D01*
X105578868Y-83749939D01*
X105581861Y-83752535D01*
X105591301Y-83764037D01*
X105666456Y-83835938D01*
X105676829Y-83847899D01*
X105683052Y-83851816D01*
X105685461Y-83854121D01*
X105689122Y-83855637D01*
X105701714Y-83863564D01*
X105826239Y-83923470D01*
X105828317Y-83925548D01*
X105844439Y-83932226D01*
X105872035Y-83945502D01*
X105877410Y-83945883D01*
X105882389Y-83947946D01*
X105911653Y-83950828D01*
X106033177Y-83948793D01*
X106035748Y-83949650D01*
X106052317Y-83948472D01*
X106083774Y-83947946D01*
X106088752Y-83945883D01*
X106094128Y-83945502D01*
X106121592Y-83934992D01*
X106264133Y-83860983D01*
X106280702Y-83854121D01*
X106286472Y-83849385D01*
X106289335Y-83847899D01*
X106291931Y-83844905D01*
X106303433Y-83835466D01*
X106375334Y-83760310D01*
X106377233Y-83758663D01*
X106835963Y-83758663D01*
X106858360Y-83812735D01*
X106877015Y-83835466D01*
X106971173Y-83925549D01*
X106993570Y-83934825D01*
X107025245Y-83947946D01*
X107083773Y-83947946D01*
X107128225Y-83929533D01*
X107137844Y-83925549D01*
X107137848Y-83925544D01*
X107160574Y-83906895D01*
X107250658Y-83812736D01*
X107250659Y-83812735D01*
X107273056Y-83758663D01*
X107273056Y-83700137D01*
X107250659Y-83646065D01*
X107232004Y-83623334D01*
X107137844Y-83533250D01*
X107104346Y-83519375D01*
X107083773Y-83510853D01*
X107025245Y-83510853D01*
X107004672Y-83519375D01*
X106971174Y-83533250D01*
X106971173Y-83533251D01*
X106948442Y-83551906D01*
X106858382Y-83646042D01*
X106858360Y-83646065D01*
X106835963Y-83700137D01*
X106835963Y-83758663D01*
X106377233Y-83758663D01*
X106387295Y-83749938D01*
X106391212Y-83743714D01*
X106393517Y-83741306D01*
X106395033Y-83737644D01*
X106402960Y-83725053D01*
X106468101Y-83589645D01*
X106475852Y-83579186D01*
X106483695Y-83557231D01*
X106484898Y-83554732D01*
X106484974Y-83553650D01*
X106485745Y-83551495D01*
X106552615Y-83273524D01*
X106558771Y-83258664D01*
X106560559Y-83240500D01*
X106561476Y-83236692D01*
X106561150Y-83234503D01*
X106561653Y-83229400D01*
X106559056Y-82881225D01*
X106561476Y-82864965D01*
X106558799Y-82846870D01*
X106558771Y-82842993D01*
X106557924Y-82840948D01*
X106557174Y-82835876D01*
X106524678Y-82710639D01*
X107548545Y-82710639D01*
X107552694Y-82769019D01*
X107578868Y-82821368D01*
X107623083Y-82859715D01*
X107678606Y-82878222D01*
X107736986Y-82874073D01*
X107764449Y-82863564D01*
X107906991Y-82789554D01*
X107923559Y-82782692D01*
X107929329Y-82777956D01*
X107932192Y-82776470D01*
X107934788Y-82773476D01*
X107946290Y-82764037D01*
X107976752Y-82732806D01*
X107978485Y-83652700D01*
X107668103Y-83653710D01*
X107614031Y-83676108D01*
X107572647Y-83717492D01*
X107550249Y-83771564D01*
X107550249Y-83830092D01*
X107572647Y-83884164D01*
X107614031Y-83925548D01*
X107668103Y-83947946D01*
X107697367Y-83950828D01*
X108583774Y-83947946D01*
X108637846Y-83925548D01*
X108679230Y-83884164D01*
X108701628Y-83830092D01*
X108701628Y-83771564D01*
X108679230Y-83717492D01*
X108637846Y-83676108D01*
X108583774Y-83653710D01*
X108554510Y-83650828D01*
X108275657Y-83651734D01*
X108273137Y-82314827D01*
X108275938Y-82300670D01*
X108273083Y-82286400D01*
X108273056Y-82271564D01*
X108267372Y-82257843D01*
X108264460Y-82243281D01*
X108256281Y-82231068D01*
X108250658Y-82217492D01*
X108240159Y-82206993D01*
X108231894Y-82194651D01*
X108219663Y-82186497D01*
X108209274Y-82176108D01*
X108195555Y-82170425D01*
X108183195Y-82162185D01*
X108168776Y-82159332D01*
X108155202Y-82153710D01*
X108140351Y-82153710D01*
X108125781Y-82150828D01*
X108111371Y-82153710D01*
X108096674Y-82153710D01*
X108082952Y-82159393D01*
X108068391Y-82162306D01*
X108056178Y-82170484D01*
X108042602Y-82176108D01*
X108032103Y-82186606D01*
X108019761Y-82194872D01*
X108001329Y-82217380D01*
X108001218Y-82217492D01*
X108001197Y-82217542D01*
X108001131Y-82217623D01*
X107874779Y-82411339D01*
X107756810Y-82532286D01*
X107605399Y-82610901D01*
X107567052Y-82655116D01*
X107548545Y-82710639D01*
X106524678Y-82710639D01*
X106485916Y-82561257D01*
X106484898Y-82546924D01*
X106476510Y-82525005D01*
X106475852Y-82522470D01*
X106475205Y-82521597D01*
X106474388Y-82519461D01*
X106400379Y-82376918D01*
X106393516Y-82360349D01*
X106388780Y-82354578D01*
X106387295Y-82351718D01*
X106384303Y-82349123D01*
X106374861Y-82337618D01*
X106299714Y-82265725D01*
X106289335Y-82253758D01*
X106283106Y-82249837D01*
X106280701Y-82247536D01*
X106277044Y-82246021D01*
X106264449Y-82238093D01*
X106139924Y-82178186D01*
X106137846Y-82176108D01*
X106121714Y-82169426D01*
X106094129Y-82156155D01*
X106088754Y-82155773D01*
X106083774Y-82153710D01*
X106054510Y-82150828D01*
X105932984Y-82152862D01*
X105930414Y-82152006D01*
X105913849Y-82153183D01*
X105882389Y-82153710D01*
X105877408Y-82155773D01*
X105872034Y-82156155D01*
X105844570Y-82166664D01*
X105702026Y-82240674D01*
X105685461Y-82247536D01*
X105679690Y-82252271D01*
X105676828Y-82253758D01*
X105674231Y-82256751D01*
X105662731Y-82266190D01*
X105590833Y-82341339D01*
X105578868Y-82351717D01*
X105574949Y-82357942D01*
X105572647Y-82360349D01*
X105571131Y-82364007D01*
X105563203Y-82376603D01*
X105498061Y-82512010D01*
X105490310Y-82522471D01*
X105482466Y-82544425D01*
X105481265Y-82546923D01*
X105481188Y-82548003D01*
X105480417Y-82550162D01*
X105413547Y-82828131D01*
X105407392Y-82842993D01*
X105405603Y-82861158D01*
X105404687Y-82864966D01*
X105405012Y-82867153D01*
X105404510Y-82872257D01*
X105185366Y-82872257D01*
X105202900Y-82822750D01*
X105199993Y-82764295D01*
X105174939Y-82711403D01*
X105131550Y-82672123D01*
X105076432Y-82652438D01*
X105017977Y-82655345D01*
X104965085Y-82680399D01*
X104925805Y-82723788D01*
X104913249Y-82750378D01*
X104697689Y-83359014D01*
X104468929Y-82723788D01*
X104429649Y-82680399D01*
X104376757Y-82655345D01*
X104318302Y-82652438D01*
X104263184Y-82672123D01*
X104219795Y-82711403D01*
X104194741Y-82764295D01*
X104191834Y-82822750D01*
X102987343Y-82822750D01*
X102987343Y-82771564D01*
X102964945Y-82717492D01*
X102923561Y-82676108D01*
X102869489Y-82653710D01*
X102840225Y-82650828D01*
X102718699Y-82652862D01*
X102716129Y-82652006D01*
X102699564Y-82653183D01*
X102668104Y-82653710D01*
X102663123Y-82655773D01*
X102657749Y-82656155D01*
X102630285Y-82666664D01*
X102535012Y-82716131D01*
X102494989Y-82676108D01*
X102440917Y-82653710D01*
X102382389Y-82653710D01*
X102328317Y-82676108D01*
X102286933Y-82717492D01*
X102264535Y-82771564D01*
X102261653Y-82800828D01*
X101828634Y-82800828D01*
X101827682Y-82797973D01*
X101821120Y-82790407D01*
X101815867Y-82780289D01*
X101801657Y-82767965D01*
X101789336Y-82753758D01*
X101774530Y-82744438D01*
X101771652Y-82741942D01*
X101769340Y-82741171D01*
X101764450Y-82738093D01*
X101639925Y-82678186D01*
X101637847Y-82676108D01*
X101621715Y-82669426D01*
X101594130Y-82656155D01*
X101588755Y-82655773D01*
X101583775Y-82653710D01*
X101554511Y-82650828D01*
X101291250Y-82653236D01*
X101287558Y-82652006D01*
X101267129Y-82653457D01*
X101239533Y-82653710D01*
X101234555Y-82655771D01*
X101229178Y-82656154D01*
X101201715Y-82666664D01*
X101065823Y-82737220D01*
X101051655Y-82741943D01*
X101044089Y-82748504D01*
X101033971Y-82753758D01*
X101021648Y-82767966D01*
X101007440Y-82780289D01*
X100998117Y-82795098D01*
X100995625Y-82797973D01*
X100994855Y-82800280D01*
X100991775Y-82805175D01*
X100931868Y-82929700D01*
X100929791Y-82931778D01*
X100923112Y-82947900D01*
X100909837Y-82975496D01*
X100909455Y-82980871D01*
X100907393Y-82985850D01*
X100904511Y-83015114D01*
X100905850Y-83294215D01*
X100904511Y-83300984D01*
X100418170Y-83300984D01*
X100417398Y-82949086D01*
X100655203Y-82947946D01*
X100709275Y-82925548D01*
X100750659Y-82884164D01*
X100773057Y-82830092D01*
X100773057Y-82771564D01*
X100750659Y-82717492D01*
X100709275Y-82676108D01*
X100655203Y-82653710D01*
X100625939Y-82650828D01*
X100416747Y-82651831D01*
X100415914Y-82271564D01*
X100393516Y-82217492D01*
X100352132Y-82176108D01*
X100298060Y-82153710D01*
X100239532Y-82153710D01*
X100185460Y-82176108D01*
X100144076Y-82217492D01*
X100121678Y-82271564D01*
X100118796Y-82300828D01*
X100119568Y-82653257D01*
X100025247Y-82653710D01*
X99971175Y-82676108D01*
X99929791Y-82717492D01*
X99907393Y-82771564D01*
X99907393Y-82830092D01*
X99652709Y-82830092D01*
X99585429Y-82765725D01*
X99575050Y-82753758D01*
X99568821Y-82749837D01*
X99566416Y-82747536D01*
X99562759Y-82746021D01*
X99550164Y-82738093D01*
X99425639Y-82678186D01*
X99423561Y-82676108D01*
X99407429Y-82669426D01*
X99379844Y-82656155D01*
X99374469Y-82655773D01*
X99369489Y-82653710D01*
X99340225Y-82650828D01*
X99076964Y-82653236D01*
X99073272Y-82652006D01*
X99052843Y-82653457D01*
X99025247Y-82653710D01*
X99020269Y-82655771D01*
X99014892Y-82656154D01*
X98987429Y-82666664D01*
X98980666Y-82670175D01*
X98940917Y-82653710D01*
X98882389Y-82653710D01*
X98828317Y-82676108D01*
X98786933Y-82717492D01*
X98764535Y-82771564D01*
X98761653Y-82800828D01*
X98264978Y-82800828D01*
X98228286Y-82765725D01*
X98217907Y-82753758D01*
X98211678Y-82749837D01*
X98209273Y-82747536D01*
X98205616Y-82746021D01*
X98193021Y-82738093D01*
X98068496Y-82678186D01*
X98066418Y-82676108D01*
X98050286Y-82669426D01*
X98022701Y-82656155D01*
X98017326Y-82655773D01*
X98012346Y-82653710D01*
X97983082Y-82650828D01*
X97790847Y-82653102D01*
X97787557Y-82652006D01*
X97768384Y-82653368D01*
X97739532Y-82653710D01*
X97734551Y-82655773D01*
X97729177Y-82656155D01*
X97701713Y-82666664D01*
X97559169Y-82740674D01*
X97542604Y-82747536D01*
X97536833Y-82752271D01*
X97533971Y-82753758D01*
X97531374Y-82756751D01*
X97519874Y-82766190D01*
X97447976Y-82841339D01*
X97436011Y-82851717D01*
X97432092Y-82857942D01*
X97429790Y-82860349D01*
X97428274Y-82864007D01*
X97420346Y-82876603D01*
X97360439Y-83001128D01*
X97358362Y-83003206D01*
X97351683Y-83019328D01*
X97338408Y-83046924D01*
X97338026Y-83052299D01*
X97335964Y-83057278D01*
X97333082Y-83086542D01*
X96363803Y-83086542D01*
X96388220Y-83035788D01*
X96425209Y-82997125D01*
X96514940Y-82950536D01*
X96729936Y-82948569D01*
X96872035Y-83016931D01*
X96930415Y-83021079D01*
X96985938Y-83002571D01*
X97030153Y-82964225D01*
X97056328Y-82911876D01*
X97060476Y-82853495D01*
X97041968Y-82797973D01*
X97003622Y-82753758D01*
X96978736Y-82738093D01*
X96854208Y-82678184D01*
X96852132Y-82676108D01*
X96836014Y-82669431D01*
X96808415Y-82656154D01*
X96803037Y-82655771D01*
X96798060Y-82653710D01*
X96768796Y-82650828D01*
X96505535Y-82653236D01*
X96501843Y-82652006D01*
X96481419Y-82653457D01*
X96453818Y-82653710D01*
X96448837Y-82655773D01*
X96443463Y-82656155D01*
X96415999Y-82666664D01*
X96273455Y-82740674D01*
X96256890Y-82747536D01*
X96251119Y-82752271D01*
X96248257Y-82753758D01*
X96245660Y-82756751D01*
X96234160Y-82766190D01*
X96162262Y-82841339D01*
X96150297Y-82851717D01*
X96146378Y-82857942D01*
X96144076Y-82860349D01*
X96142560Y-82864007D01*
X96134632Y-82876603D01*
X96074725Y-83001128D01*
X96072648Y-83003206D01*
X96065969Y-83019328D01*
X96052694Y-83046924D01*
X96052312Y-83052299D01*
X96050250Y-83057278D01*
X96047368Y-83086542D01*
X95702510Y-83086542D01*
X95701628Y-82771564D01*
X95679230Y-82717492D01*
X95637846Y-82676108D01*
X95583774Y-82653710D01*
X95525246Y-82653710D01*
X95471174Y-82676108D01*
X95429790Y-82717492D01*
X95407392Y-82771564D01*
X95404510Y-82800828D01*
X95201628Y-82800828D01*
X95201628Y-82771564D01*
X95179230Y-82717492D01*
X95137846Y-82676108D01*
X95083774Y-82653710D01*
X95054510Y-82650828D01*
X94845318Y-82651831D01*
X94844770Y-82401521D01*
X95335964Y-82401521D01*
X95341308Y-82414421D01*
X95358361Y-82455592D01*
X95377016Y-82478323D01*
X95471174Y-82568406D01*
X95493571Y-82577682D01*
X95525246Y-82590803D01*
X95583774Y-82590803D01*
X95622008Y-82574965D01*
X95637845Y-82568406D01*
X95637849Y-82568401D01*
X95660575Y-82549752D01*
X95750659Y-82455593D01*
X95750660Y-82455592D01*
X95773057Y-82401520D01*
X95773057Y-82342994D01*
X95750660Y-82288922D01*
X95732005Y-82266191D01*
X95637845Y-82176107D01*
X95604234Y-82162185D01*
X95583774Y-82153710D01*
X95525246Y-82153710D01*
X95504786Y-82162185D01*
X95471175Y-82176107D01*
X95471174Y-82176108D01*
X95448443Y-82194763D01*
X95358383Y-82288899D01*
X95358361Y-82288922D01*
X95338191Y-82337619D01*
X95335964Y-82342995D01*
X95335964Y-82401521D01*
X94844770Y-82401521D01*
X94844485Y-82271564D01*
X94822087Y-82217492D01*
X94780703Y-82176108D01*
X94726631Y-82153710D01*
X94668103Y-82153710D01*
X94614031Y-82176108D01*
X94572647Y-82217492D01*
X94550249Y-82271564D01*
X94547367Y-82300828D01*
X94548139Y-82653257D01*
X94453818Y-82653710D01*
X94399746Y-82676108D01*
X94358362Y-82717492D01*
X94335964Y-82771564D01*
X94335964Y-82830092D01*
X94056010Y-82830092D01*
X94046689Y-82812139D01*
X94041967Y-82797973D01*
X94035405Y-82790407D01*
X94030152Y-82780289D01*
X94015942Y-82767965D01*
X94003621Y-82753758D01*
X93988815Y-82744438D01*
X93985937Y-82741942D01*
X93983625Y-82741171D01*
X93978735Y-82738093D01*
X93854210Y-82678186D01*
X93852132Y-82676108D01*
X93836000Y-82669426D01*
X93808415Y-82656155D01*
X93803040Y-82655773D01*
X93798060Y-82653710D01*
X93768796Y-82650828D01*
X93576561Y-82653102D01*
X93573271Y-82652006D01*
X93554098Y-82653368D01*
X93525246Y-82653710D01*
X93520265Y-82655773D01*
X93514891Y-82656155D01*
X93487427Y-82666664D01*
X93439171Y-82691719D01*
X93423560Y-82676108D01*
X93369488Y-82653710D01*
X93310960Y-82653710D01*
X93256888Y-82676108D01*
X93215504Y-82717492D01*
X93193106Y-82771564D01*
X93190224Y-82800828D01*
X92663110Y-82800828D01*
X92485633Y-82271558D01*
X92484898Y-82261208D01*
X92476594Y-82244600D01*
X92470539Y-82226543D01*
X92463516Y-82218446D01*
X92458724Y-82208861D01*
X92444515Y-82196537D01*
X92432192Y-82182329D01*
X92422606Y-82177536D01*
X92414510Y-82170514D01*
X92396666Y-82164565D01*
X92379845Y-82156155D01*
X92369156Y-82155395D01*
X92358986Y-82152005D01*
X92340220Y-82153338D01*
X92321464Y-82152006D01*
X92311296Y-82155395D01*
X92300606Y-82156155D01*
X92283782Y-82164566D01*
X92265940Y-82170514D01*
X92257845Y-82177534D01*
X92248258Y-82182328D01*
X92235932Y-82196539D01*
X92221726Y-82208861D01*
X92216933Y-82218445D01*
X92209911Y-82226543D01*
X92197923Y-82253394D01*
X91840584Y-83331838D01*
X91835964Y-83342993D01*
X91835964Y-83345783D01*
X91691403Y-83782067D01*
X91524736Y-83782067D01*
X91524736Y-81984161D01*
X108868295Y-81984161D01*
X108868295Y-84614613D01*
G37*
D11*
X64119673Y-53736266D02*
X64881578Y-53736266D01*
X64500625Y-54117219D02*
X64500625Y-53355314D01*
X68119673Y-49736266D02*
X68881578Y-49736266D01*
X130619673Y-49486266D02*
X131381578Y-49486266D01*
X131000625Y-49867219D02*
X131000625Y-49105314D01*
D10*
X58741541Y-118119819D02*
X59360588Y-118119819D01*
X59360588Y-118119819D02*
X59027255Y-118500771D01*
X59027255Y-118500771D02*
X59170112Y-118500771D01*
X59170112Y-118500771D02*
X59265350Y-118548390D01*
X59265350Y-118548390D02*
X59312969Y-118596009D01*
X59312969Y-118596009D02*
X59360588Y-118691247D01*
X59360588Y-118691247D02*
X59360588Y-118929342D01*
X59360588Y-118929342D02*
X59312969Y-119024580D01*
X59312969Y-119024580D02*
X59265350Y-119072200D01*
X59265350Y-119072200D02*
X59170112Y-119119819D01*
X59170112Y-119119819D02*
X58884398Y-119119819D01*
X58884398Y-119119819D02*
X58789160Y-119072200D01*
X58789160Y-119072200D02*
X58741541Y-119024580D01*
X60360588Y-119024580D02*
X60312969Y-119072200D01*
X60312969Y-119072200D02*
X60170112Y-119119819D01*
X60170112Y-119119819D02*
X60074874Y-119119819D01*
X60074874Y-119119819D02*
X59932017Y-119072200D01*
X59932017Y-119072200D02*
X59836779Y-118976961D01*
X59836779Y-118976961D02*
X59789160Y-118881723D01*
X59789160Y-118881723D02*
X59741541Y-118691247D01*
X59741541Y-118691247D02*
X59741541Y-118548390D01*
X59741541Y-118548390D02*
X59789160Y-118357914D01*
X59789160Y-118357914D02*
X59836779Y-118262676D01*
X59836779Y-118262676D02*
X59932017Y-118167438D01*
X59932017Y-118167438D02*
X60074874Y-118119819D01*
X60074874Y-118119819D02*
X60170112Y-118119819D01*
X60170112Y-118119819D02*
X60312969Y-118167438D01*
X60312969Y-118167438D02*
X60360588Y-118215057D01*
X60693922Y-118119819D02*
X60932017Y-119119819D01*
X60932017Y-119119819D02*
X61122493Y-118405533D01*
X61122493Y-118405533D02*
X61312969Y-119119819D01*
X61312969Y-119119819D02*
X61551065Y-118119819D01*
X58515350Y-50703152D02*
X58515350Y-51369819D01*
X58277255Y-50322200D02*
X58039160Y-51036485D01*
X58039160Y-51036485D02*
X58658207Y-51036485D01*
X59610588Y-51274580D02*
X59562969Y-51322200D01*
X59562969Y-51322200D02*
X59420112Y-51369819D01*
X59420112Y-51369819D02*
X59324874Y-51369819D01*
X59324874Y-51369819D02*
X59182017Y-51322200D01*
X59182017Y-51322200D02*
X59086779Y-51226961D01*
X59086779Y-51226961D02*
X59039160Y-51131723D01*
X59039160Y-51131723D02*
X58991541Y-50941247D01*
X58991541Y-50941247D02*
X58991541Y-50798390D01*
X58991541Y-50798390D02*
X59039160Y-50607914D01*
X59039160Y-50607914D02*
X59086779Y-50512676D01*
X59086779Y-50512676D02*
X59182017Y-50417438D01*
X59182017Y-50417438D02*
X59324874Y-50369819D01*
X59324874Y-50369819D02*
X59420112Y-50369819D01*
X59420112Y-50369819D02*
X59562969Y-50417438D01*
X59562969Y-50417438D02*
X59610588Y-50465057D01*
X60610588Y-51274580D02*
X60562969Y-51322200D01*
X60562969Y-51322200D02*
X60420112Y-51369819D01*
X60420112Y-51369819D02*
X60324874Y-51369819D01*
X60324874Y-51369819D02*
X60182017Y-51322200D01*
X60182017Y-51322200D02*
X60086779Y-51226961D01*
X60086779Y-51226961D02*
X60039160Y-51131723D01*
X60039160Y-51131723D02*
X59991541Y-50941247D01*
X59991541Y-50941247D02*
X59991541Y-50798390D01*
X59991541Y-50798390D02*
X60039160Y-50607914D01*
X60039160Y-50607914D02*
X60086779Y-50512676D01*
X60086779Y-50512676D02*
X60182017Y-50417438D01*
X60182017Y-50417438D02*
X60324874Y-50369819D01*
X60324874Y-50369819D02*
X60420112Y-50369819D01*
X60420112Y-50369819D02*
X60562969Y-50417438D01*
X60562969Y-50417438D02*
X60610588Y-50465057D01*
X60943922Y-50369819D02*
X61182017Y-51369819D01*
X61182017Y-51369819D02*
X61372493Y-50655533D01*
X61372493Y-50655533D02*
X61562969Y-51369819D01*
X61562969Y-51369819D02*
X61801065Y-50369819D01*
X139110588Y-51369819D02*
X138539160Y-51369819D01*
X138824874Y-51369819D02*
X138824874Y-50369819D01*
X138824874Y-50369819D02*
X138729636Y-50512676D01*
X138729636Y-50512676D02*
X138634398Y-50607914D01*
X138634398Y-50607914D02*
X138539160Y-50655533D01*
X140110588Y-51274580D02*
X140062969Y-51322200D01*
X140062969Y-51322200D02*
X139920112Y-51369819D01*
X139920112Y-51369819D02*
X139824874Y-51369819D01*
X139824874Y-51369819D02*
X139682017Y-51322200D01*
X139682017Y-51322200D02*
X139586779Y-51226961D01*
X139586779Y-51226961D02*
X139539160Y-51131723D01*
X139539160Y-51131723D02*
X139491541Y-50941247D01*
X139491541Y-50941247D02*
X139491541Y-50798390D01*
X139491541Y-50798390D02*
X139539160Y-50607914D01*
X139539160Y-50607914D02*
X139586779Y-50512676D01*
X139586779Y-50512676D02*
X139682017Y-50417438D01*
X139682017Y-50417438D02*
X139824874Y-50369819D01*
X139824874Y-50369819D02*
X139920112Y-50369819D01*
X139920112Y-50369819D02*
X140062969Y-50417438D01*
X140062969Y-50417438D02*
X140110588Y-50465057D01*
X140443922Y-50369819D02*
X140682017Y-51369819D01*
X140682017Y-51369819D02*
X140872493Y-50655533D01*
X140872493Y-50655533D02*
X141062969Y-51369819D01*
X141062969Y-51369819D02*
X141301065Y-50369819D01*
D11*
X68369673Y-120236266D02*
X69131578Y-120236266D01*
X68750625Y-120617219D02*
X68750625Y-119855314D01*
X134869673Y-115986266D02*
X135631578Y-115986266D01*
X135250625Y-116367219D02*
X135250625Y-115605314D01*
D10*
X83107142Y-108859580D02*
X83059523Y-108907200D01*
X83059523Y-108907200D02*
X82916666Y-108954819D01*
X82916666Y-108954819D02*
X82821428Y-108954819D01*
X82821428Y-108954819D02*
X82678571Y-108907200D01*
X82678571Y-108907200D02*
X82583333Y-108811961D01*
X82583333Y-108811961D02*
X82535714Y-108716723D01*
X82535714Y-108716723D02*
X82488095Y-108526247D01*
X82488095Y-108526247D02*
X82488095Y-108383390D01*
X82488095Y-108383390D02*
X82535714Y-108192914D01*
X82535714Y-108192914D02*
X82583333Y-108097676D01*
X82583333Y-108097676D02*
X82678571Y-108002438D01*
X82678571Y-108002438D02*
X82821428Y-107954819D01*
X82821428Y-107954819D02*
X82916666Y-107954819D01*
X82916666Y-107954819D02*
X83059523Y-108002438D01*
X83059523Y-108002438D02*
X83107142Y-108050057D01*
X83488095Y-108050057D02*
X83535714Y-108002438D01*
X83535714Y-108002438D02*
X83630952Y-107954819D01*
X83630952Y-107954819D02*
X83869047Y-107954819D01*
X83869047Y-107954819D02*
X83964285Y-108002438D01*
X83964285Y-108002438D02*
X84011904Y-108050057D01*
X84011904Y-108050057D02*
X84059523Y-108145295D01*
X84059523Y-108145295D02*
X84059523Y-108240533D01*
X84059523Y-108240533D02*
X84011904Y-108383390D01*
X84011904Y-108383390D02*
X83440476Y-108954819D01*
X83440476Y-108954819D02*
X84059523Y-108954819D01*
X84535714Y-108954819D02*
X84726190Y-108954819D01*
X84726190Y-108954819D02*
X84821428Y-108907200D01*
X84821428Y-108907200D02*
X84869047Y-108859580D01*
X84869047Y-108859580D02*
X84964285Y-108716723D01*
X84964285Y-108716723D02*
X85011904Y-108526247D01*
X85011904Y-108526247D02*
X85011904Y-108145295D01*
X85011904Y-108145295D02*
X84964285Y-108050057D01*
X84964285Y-108050057D02*
X84916666Y-108002438D01*
X84916666Y-108002438D02*
X84821428Y-107954819D01*
X84821428Y-107954819D02*
X84630952Y-107954819D01*
X84630952Y-107954819D02*
X84535714Y-108002438D01*
X84535714Y-108002438D02*
X84488095Y-108050057D01*
X84488095Y-108050057D02*
X84440476Y-108145295D01*
X84440476Y-108145295D02*
X84440476Y-108383390D01*
X84440476Y-108383390D02*
X84488095Y-108478628D01*
X84488095Y-108478628D02*
X84535714Y-108526247D01*
X84535714Y-108526247D02*
X84630952Y-108573866D01*
X84630952Y-108573866D02*
X84821428Y-108573866D01*
X84821428Y-108573866D02*
X84916666Y-108526247D01*
X84916666Y-108526247D02*
X84964285Y-108478628D01*
X84964285Y-108478628D02*
X85011904Y-108383390D01*
X110357142Y-101454819D02*
X110023809Y-100978628D01*
X109785714Y-101454819D02*
X109785714Y-100454819D01*
X109785714Y-100454819D02*
X110166666Y-100454819D01*
X110166666Y-100454819D02*
X110261904Y-100502438D01*
X110261904Y-100502438D02*
X110309523Y-100550057D01*
X110309523Y-100550057D02*
X110357142Y-100645295D01*
X110357142Y-100645295D02*
X110357142Y-100788152D01*
X110357142Y-100788152D02*
X110309523Y-100883390D01*
X110309523Y-100883390D02*
X110261904Y-100931009D01*
X110261904Y-100931009D02*
X110166666Y-100978628D01*
X110166666Y-100978628D02*
X109785714Y-100978628D01*
X111309523Y-101454819D02*
X110738095Y-101454819D01*
X111023809Y-101454819D02*
X111023809Y-100454819D01*
X111023809Y-100454819D02*
X110928571Y-100597676D01*
X110928571Y-100597676D02*
X110833333Y-100692914D01*
X110833333Y-100692914D02*
X110738095Y-100740533D01*
X111642857Y-100454819D02*
X112261904Y-100454819D01*
X112261904Y-100454819D02*
X111928571Y-100835771D01*
X111928571Y-100835771D02*
X112071428Y-100835771D01*
X112071428Y-100835771D02*
X112166666Y-100883390D01*
X112166666Y-100883390D02*
X112214285Y-100931009D01*
X112214285Y-100931009D02*
X112261904Y-101026247D01*
X112261904Y-101026247D02*
X112261904Y-101264342D01*
X112261904Y-101264342D02*
X112214285Y-101359580D01*
X112214285Y-101359580D02*
X112166666Y-101407200D01*
X112166666Y-101407200D02*
X112071428Y-101454819D01*
X112071428Y-101454819D02*
X111785714Y-101454819D01*
X111785714Y-101454819D02*
X111690476Y-101407200D01*
X111690476Y-101407200D02*
X111642857Y-101359580D01*
X118833333Y-77354819D02*
X118500000Y-76878628D01*
X118261905Y-77354819D02*
X118261905Y-76354819D01*
X118261905Y-76354819D02*
X118642857Y-76354819D01*
X118642857Y-76354819D02*
X118738095Y-76402438D01*
X118738095Y-76402438D02*
X118785714Y-76450057D01*
X118785714Y-76450057D02*
X118833333Y-76545295D01*
X118833333Y-76545295D02*
X118833333Y-76688152D01*
X118833333Y-76688152D02*
X118785714Y-76783390D01*
X118785714Y-76783390D02*
X118738095Y-76831009D01*
X118738095Y-76831009D02*
X118642857Y-76878628D01*
X118642857Y-76878628D02*
X118261905Y-76878628D01*
X119690476Y-76688152D02*
X119690476Y-77354819D01*
X119452381Y-76307200D02*
X119214286Y-77021485D01*
X119214286Y-77021485D02*
X119833333Y-77021485D01*
X85142857Y-104181009D02*
X85285714Y-104228628D01*
X85285714Y-104228628D02*
X85333333Y-104276247D01*
X85333333Y-104276247D02*
X85380952Y-104371485D01*
X85380952Y-104371485D02*
X85380952Y-104514342D01*
X85380952Y-104514342D02*
X85333333Y-104609580D01*
X85333333Y-104609580D02*
X85285714Y-104657200D01*
X85285714Y-104657200D02*
X85190476Y-104704819D01*
X85190476Y-104704819D02*
X84809524Y-104704819D01*
X84809524Y-104704819D02*
X84809524Y-103704819D01*
X84809524Y-103704819D02*
X85142857Y-103704819D01*
X85142857Y-103704819D02*
X85238095Y-103752438D01*
X85238095Y-103752438D02*
X85285714Y-103800057D01*
X85285714Y-103800057D02*
X85333333Y-103895295D01*
X85333333Y-103895295D02*
X85333333Y-103990533D01*
X85333333Y-103990533D02*
X85285714Y-104085771D01*
X85285714Y-104085771D02*
X85238095Y-104133390D01*
X85238095Y-104133390D02*
X85142857Y-104181009D01*
X85142857Y-104181009D02*
X84809524Y-104181009D01*
X85761905Y-104419104D02*
X86238095Y-104419104D01*
X85666667Y-104704819D02*
X86000000Y-103704819D01*
X86000000Y-103704819D02*
X86333333Y-104704819D01*
X86523810Y-103704819D02*
X87095238Y-103704819D01*
X86809524Y-104704819D02*
X86809524Y-103704819D01*
X87428572Y-104323866D02*
X88190477Y-104323866D01*
X87809524Y-104704819D02*
X87809524Y-103942914D01*
X73798479Y-52440844D02*
X73764807Y-52339829D01*
X73764807Y-52339829D02*
X73764807Y-52205142D01*
X73764807Y-52205142D02*
X73764807Y-52003111D01*
X73764807Y-52003111D02*
X73731135Y-51902096D01*
X73731135Y-51902096D02*
X73663792Y-51834753D01*
X73529105Y-52036783D02*
X73495433Y-51935768D01*
X73495433Y-51935768D02*
X73495433Y-51801081D01*
X73495433Y-51801081D02*
X73596448Y-51632722D01*
X73596448Y-51632722D02*
X73832151Y-51397020D01*
X73832151Y-51397020D02*
X74000509Y-51296005D01*
X74000509Y-51296005D02*
X74135196Y-51296005D01*
X74135196Y-51296005D02*
X74236212Y-51329676D01*
X74236212Y-51329676D02*
X74370899Y-51464363D01*
X74370899Y-51464363D02*
X74404570Y-51565379D01*
X74404570Y-51565379D02*
X74404570Y-51700066D01*
X74404570Y-51700066D02*
X74303555Y-51868424D01*
X74303555Y-51868424D02*
X74067853Y-52104127D01*
X74067853Y-52104127D02*
X73899494Y-52205142D01*
X73899494Y-52205142D02*
X73764807Y-52205142D01*
X73764807Y-52205142D02*
X73663792Y-52171470D01*
X73663792Y-52171470D02*
X73529105Y-52036783D01*
X74909647Y-52474516D02*
X74438242Y-52945920D01*
X75010662Y-52036783D02*
X74337227Y-52373501D01*
X74337227Y-52373501D02*
X74774960Y-52811233D01*
X70063441Y-60598668D02*
X69996097Y-60598668D01*
X69996097Y-60598668D02*
X69861410Y-60531324D01*
X69861410Y-60531324D02*
X69794067Y-60463981D01*
X69794067Y-60463981D02*
X69726723Y-60329294D01*
X69726723Y-60329294D02*
X69726723Y-60194607D01*
X69726723Y-60194607D02*
X69760395Y-60093592D01*
X69760395Y-60093592D02*
X69861410Y-59925233D01*
X69861410Y-59925233D02*
X69962425Y-59824218D01*
X69962425Y-59824218D02*
X70130784Y-59723202D01*
X70130784Y-59723202D02*
X70231799Y-59689531D01*
X70231799Y-59689531D02*
X70366486Y-59689531D01*
X70366486Y-59689531D02*
X70501173Y-59756874D01*
X70501173Y-59756874D02*
X70568517Y-59824218D01*
X70568517Y-59824218D02*
X70635860Y-59958905D01*
X70635860Y-59958905D02*
X70635860Y-60026248D01*
X70905234Y-60295622D02*
X70972578Y-60295622D01*
X70972578Y-60295622D02*
X71073593Y-60329294D01*
X71073593Y-60329294D02*
X71241952Y-60497653D01*
X71241952Y-60497653D02*
X71275624Y-60598668D01*
X71275624Y-60598668D02*
X71275624Y-60666011D01*
X71275624Y-60666011D02*
X71241952Y-60767027D01*
X71241952Y-60767027D02*
X71174608Y-60834370D01*
X71174608Y-60834370D02*
X71039921Y-60901714D01*
X71039921Y-60901714D02*
X70231799Y-60901714D01*
X70231799Y-60901714D02*
X70669532Y-61339446D01*
X71477654Y-61339447D02*
X71443983Y-61238431D01*
X71443983Y-61238431D02*
X71443983Y-61171088D01*
X71443983Y-61171088D02*
X71477654Y-61070073D01*
X71477654Y-61070073D02*
X71511326Y-61036401D01*
X71511326Y-61036401D02*
X71612341Y-61002729D01*
X71612341Y-61002729D02*
X71679685Y-61002729D01*
X71679685Y-61002729D02*
X71780700Y-61036401D01*
X71780700Y-61036401D02*
X71915387Y-61171088D01*
X71915387Y-61171088D02*
X71949059Y-61272103D01*
X71949059Y-61272103D02*
X71949059Y-61339447D01*
X71949059Y-61339447D02*
X71915387Y-61440462D01*
X71915387Y-61440462D02*
X71881715Y-61474134D01*
X71881715Y-61474134D02*
X71780700Y-61507805D01*
X71780700Y-61507805D02*
X71713357Y-61507805D01*
X71713357Y-61507805D02*
X71612341Y-61474134D01*
X71612341Y-61474134D02*
X71477654Y-61339447D01*
X71477654Y-61339447D02*
X71376639Y-61305775D01*
X71376639Y-61305775D02*
X71309296Y-61305775D01*
X71309296Y-61305775D02*
X71208280Y-61339447D01*
X71208280Y-61339447D02*
X71073593Y-61474134D01*
X71073593Y-61474134D02*
X71039922Y-61575149D01*
X71039922Y-61575149D02*
X71039922Y-61642492D01*
X71039922Y-61642492D02*
X71073593Y-61743508D01*
X71073593Y-61743508D02*
X71208280Y-61878195D01*
X71208280Y-61878195D02*
X71309296Y-61911866D01*
X71309296Y-61911866D02*
X71376639Y-61911866D01*
X71376639Y-61911866D02*
X71477654Y-61878195D01*
X71477654Y-61878195D02*
X71612341Y-61743508D01*
X71612341Y-61743508D02*
X71646013Y-61642492D01*
X71646013Y-61642492D02*
X71646013Y-61575149D01*
X71646013Y-61575149D02*
X71612341Y-61474134D01*
X97858333Y-96254819D02*
X97525000Y-95778628D01*
X97286905Y-96254819D02*
X97286905Y-95254819D01*
X97286905Y-95254819D02*
X97667857Y-95254819D01*
X97667857Y-95254819D02*
X97763095Y-95302438D01*
X97763095Y-95302438D02*
X97810714Y-95350057D01*
X97810714Y-95350057D02*
X97858333Y-95445295D01*
X97858333Y-95445295D02*
X97858333Y-95588152D01*
X97858333Y-95588152D02*
X97810714Y-95683390D01*
X97810714Y-95683390D02*
X97763095Y-95731009D01*
X97763095Y-95731009D02*
X97667857Y-95778628D01*
X97667857Y-95778628D02*
X97286905Y-95778628D01*
X98239286Y-95350057D02*
X98286905Y-95302438D01*
X98286905Y-95302438D02*
X98382143Y-95254819D01*
X98382143Y-95254819D02*
X98620238Y-95254819D01*
X98620238Y-95254819D02*
X98715476Y-95302438D01*
X98715476Y-95302438D02*
X98763095Y-95350057D01*
X98763095Y-95350057D02*
X98810714Y-95445295D01*
X98810714Y-95445295D02*
X98810714Y-95540533D01*
X98810714Y-95540533D02*
X98763095Y-95683390D01*
X98763095Y-95683390D02*
X98191667Y-96254819D01*
X98191667Y-96254819D02*
X98810714Y-96254819D01*
X119369047Y-99859580D02*
X119321428Y-99907200D01*
X119321428Y-99907200D02*
X119178571Y-99954819D01*
X119178571Y-99954819D02*
X119083333Y-99954819D01*
X119083333Y-99954819D02*
X118940476Y-99907200D01*
X118940476Y-99907200D02*
X118845238Y-99811961D01*
X118845238Y-99811961D02*
X118797619Y-99716723D01*
X118797619Y-99716723D02*
X118750000Y-99526247D01*
X118750000Y-99526247D02*
X118750000Y-99383390D01*
X118750000Y-99383390D02*
X118797619Y-99192914D01*
X118797619Y-99192914D02*
X118845238Y-99097676D01*
X118845238Y-99097676D02*
X118940476Y-99002438D01*
X118940476Y-99002438D02*
X119083333Y-98954819D01*
X119083333Y-98954819D02*
X119178571Y-98954819D01*
X119178571Y-98954819D02*
X119321428Y-99002438D01*
X119321428Y-99002438D02*
X119369047Y-99050057D01*
X120226190Y-99954819D02*
X120226190Y-99431009D01*
X120226190Y-99431009D02*
X120178571Y-99335771D01*
X120178571Y-99335771D02*
X120083333Y-99288152D01*
X120083333Y-99288152D02*
X119892857Y-99288152D01*
X119892857Y-99288152D02*
X119797619Y-99335771D01*
X120226190Y-99907200D02*
X120130952Y-99954819D01*
X120130952Y-99954819D02*
X119892857Y-99954819D01*
X119892857Y-99954819D02*
X119797619Y-99907200D01*
X119797619Y-99907200D02*
X119750000Y-99811961D01*
X119750000Y-99811961D02*
X119750000Y-99716723D01*
X119750000Y-99716723D02*
X119797619Y-99621485D01*
X119797619Y-99621485D02*
X119892857Y-99573866D01*
X119892857Y-99573866D02*
X120130952Y-99573866D01*
X120130952Y-99573866D02*
X120226190Y-99526247D01*
X120702381Y-99954819D02*
X120702381Y-99288152D01*
X120702381Y-99478628D02*
X120750000Y-99383390D01*
X120750000Y-99383390D02*
X120797619Y-99335771D01*
X120797619Y-99335771D02*
X120892857Y-99288152D01*
X120892857Y-99288152D02*
X120988095Y-99288152D01*
X121750000Y-99954819D02*
X121750000Y-98954819D01*
X121750000Y-99907200D02*
X121654762Y-99954819D01*
X121654762Y-99954819D02*
X121464286Y-99954819D01*
X121464286Y-99954819D02*
X121369048Y-99907200D01*
X121369048Y-99907200D02*
X121321429Y-99859580D01*
X121321429Y-99859580D02*
X121273810Y-99764342D01*
X121273810Y-99764342D02*
X121273810Y-99478628D01*
X121273810Y-99478628D02*
X121321429Y-99383390D01*
X121321429Y-99383390D02*
X121369048Y-99335771D01*
X121369048Y-99335771D02*
X121464286Y-99288152D01*
X121464286Y-99288152D02*
X121654762Y-99288152D01*
X121654762Y-99288152D02*
X121750000Y-99335771D01*
X122750000Y-99954819D02*
X122178572Y-99954819D01*
X122464286Y-99954819D02*
X122464286Y-98954819D01*
X122464286Y-98954819D02*
X122369048Y-99097676D01*
X122369048Y-99097676D02*
X122273810Y-99192914D01*
X122273810Y-99192914D02*
X122178572Y-99240533D01*
X103367142Y-87454819D02*
X103033809Y-86978628D01*
X102795714Y-87454819D02*
X102795714Y-86454819D01*
X102795714Y-86454819D02*
X103176666Y-86454819D01*
X103176666Y-86454819D02*
X103271904Y-86502438D01*
X103271904Y-86502438D02*
X103319523Y-86550057D01*
X103319523Y-86550057D02*
X103367142Y-86645295D01*
X103367142Y-86645295D02*
X103367142Y-86788152D01*
X103367142Y-86788152D02*
X103319523Y-86883390D01*
X103319523Y-86883390D02*
X103271904Y-86931009D01*
X103271904Y-86931009D02*
X103176666Y-86978628D01*
X103176666Y-86978628D02*
X102795714Y-86978628D01*
X104319523Y-87454819D02*
X103748095Y-87454819D01*
X104033809Y-87454819D02*
X104033809Y-86454819D01*
X104033809Y-86454819D02*
X103938571Y-86597676D01*
X103938571Y-86597676D02*
X103843333Y-86692914D01*
X103843333Y-86692914D02*
X103748095Y-86740533D01*
X105271904Y-87454819D02*
X104700476Y-87454819D01*
X104986190Y-87454819D02*
X104986190Y-86454819D01*
X104986190Y-86454819D02*
X104890952Y-86597676D01*
X104890952Y-86597676D02*
X104795714Y-86692914D01*
X104795714Y-86692914D02*
X104700476Y-86740533D01*
X103358334Y-99709818D02*
X103025001Y-99233627D01*
X102786906Y-99709818D02*
X102786906Y-98709818D01*
X102786906Y-98709818D02*
X103167858Y-98709818D01*
X103167858Y-98709818D02*
X103263096Y-98757437D01*
X103263096Y-98757437D02*
X103310715Y-98805056D01*
X103310715Y-98805056D02*
X103358334Y-98900294D01*
X103358334Y-98900294D02*
X103358334Y-99043151D01*
X103358334Y-99043151D02*
X103310715Y-99138389D01*
X103310715Y-99138389D02*
X103263096Y-99186008D01*
X103263096Y-99186008D02*
X103167858Y-99233627D01*
X103167858Y-99233627D02*
X102786906Y-99233627D01*
X104310715Y-99709818D02*
X103739287Y-99709818D01*
X104025001Y-99709818D02*
X104025001Y-98709818D01*
X104025001Y-98709818D02*
X103929763Y-98852675D01*
X103929763Y-98852675D02*
X103834525Y-98947913D01*
X103834525Y-98947913D02*
X103739287Y-98995532D01*
X76559523Y-94181009D02*
X76702380Y-94228628D01*
X76702380Y-94228628D02*
X76749999Y-94276247D01*
X76749999Y-94276247D02*
X76797618Y-94371485D01*
X76797618Y-94371485D02*
X76797618Y-94514342D01*
X76797618Y-94514342D02*
X76749999Y-94609580D01*
X76749999Y-94609580D02*
X76702380Y-94657200D01*
X76702380Y-94657200D02*
X76607142Y-94704819D01*
X76607142Y-94704819D02*
X76226190Y-94704819D01*
X76226190Y-94704819D02*
X76226190Y-93704819D01*
X76226190Y-93704819D02*
X76559523Y-93704819D01*
X76559523Y-93704819D02*
X76654761Y-93752438D01*
X76654761Y-93752438D02*
X76702380Y-93800057D01*
X76702380Y-93800057D02*
X76749999Y-93895295D01*
X76749999Y-93895295D02*
X76749999Y-93990533D01*
X76749999Y-93990533D02*
X76702380Y-94085771D01*
X76702380Y-94085771D02*
X76654761Y-94133390D01*
X76654761Y-94133390D02*
X76559523Y-94181009D01*
X76559523Y-94181009D02*
X76226190Y-94181009D01*
X77178571Y-94419104D02*
X77654761Y-94419104D01*
X77083333Y-94704819D02*
X77416666Y-93704819D01*
X77416666Y-93704819D02*
X77749999Y-94704819D01*
X77940476Y-93704819D02*
X78511904Y-93704819D01*
X78226190Y-94704819D02*
X78226190Y-93704819D01*
X78607143Y-94800057D02*
X79369047Y-94800057D01*
X79607143Y-94704819D02*
X79607143Y-93704819D01*
X79607143Y-93704819D02*
X79988095Y-93704819D01*
X79988095Y-93704819D02*
X80083333Y-93752438D01*
X80083333Y-93752438D02*
X80130952Y-93800057D01*
X80130952Y-93800057D02*
X80178571Y-93895295D01*
X80178571Y-93895295D02*
X80178571Y-94038152D01*
X80178571Y-94038152D02*
X80130952Y-94133390D01*
X80130952Y-94133390D02*
X80083333Y-94181009D01*
X80083333Y-94181009D02*
X79988095Y-94228628D01*
X79988095Y-94228628D02*
X79607143Y-94228628D01*
X80511905Y-93704819D02*
X80750000Y-94704819D01*
X80750000Y-94704819D02*
X80940476Y-93990533D01*
X80940476Y-93990533D02*
X81130952Y-94704819D01*
X81130952Y-94704819D02*
X81369048Y-93704819D01*
X82321428Y-94704819D02*
X81988095Y-94228628D01*
X81750000Y-94704819D02*
X81750000Y-93704819D01*
X81750000Y-93704819D02*
X82130952Y-93704819D01*
X82130952Y-93704819D02*
X82226190Y-93752438D01*
X82226190Y-93752438D02*
X82273809Y-93800057D01*
X82273809Y-93800057D02*
X82321428Y-93895295D01*
X82321428Y-93895295D02*
X82321428Y-94038152D01*
X82321428Y-94038152D02*
X82273809Y-94133390D01*
X82273809Y-94133390D02*
X82226190Y-94181009D01*
X82226190Y-94181009D02*
X82130952Y-94228628D01*
X82130952Y-94228628D02*
X81750000Y-94228628D01*
X86107142Y-93359580D02*
X86059523Y-93407200D01*
X86059523Y-93407200D02*
X85916666Y-93454819D01*
X85916666Y-93454819D02*
X85821428Y-93454819D01*
X85821428Y-93454819D02*
X85678571Y-93407200D01*
X85678571Y-93407200D02*
X85583333Y-93311961D01*
X85583333Y-93311961D02*
X85535714Y-93216723D01*
X85535714Y-93216723D02*
X85488095Y-93026247D01*
X85488095Y-93026247D02*
X85488095Y-92883390D01*
X85488095Y-92883390D02*
X85535714Y-92692914D01*
X85535714Y-92692914D02*
X85583333Y-92597676D01*
X85583333Y-92597676D02*
X85678571Y-92502438D01*
X85678571Y-92502438D02*
X85821428Y-92454819D01*
X85821428Y-92454819D02*
X85916666Y-92454819D01*
X85916666Y-92454819D02*
X86059523Y-92502438D01*
X86059523Y-92502438D02*
X86107142Y-92550057D01*
X87059523Y-93454819D02*
X86488095Y-93454819D01*
X86773809Y-93454819D02*
X86773809Y-92454819D01*
X86773809Y-92454819D02*
X86678571Y-92597676D01*
X86678571Y-92597676D02*
X86583333Y-92692914D01*
X86583333Y-92692914D02*
X86488095Y-92740533D01*
X87916666Y-92454819D02*
X87726190Y-92454819D01*
X87726190Y-92454819D02*
X87630952Y-92502438D01*
X87630952Y-92502438D02*
X87583333Y-92550057D01*
X87583333Y-92550057D02*
X87488095Y-92692914D01*
X87488095Y-92692914D02*
X87440476Y-92883390D01*
X87440476Y-92883390D02*
X87440476Y-93264342D01*
X87440476Y-93264342D02*
X87488095Y-93359580D01*
X87488095Y-93359580D02*
X87535714Y-93407200D01*
X87535714Y-93407200D02*
X87630952Y-93454819D01*
X87630952Y-93454819D02*
X87821428Y-93454819D01*
X87821428Y-93454819D02*
X87916666Y-93407200D01*
X87916666Y-93407200D02*
X87964285Y-93359580D01*
X87964285Y-93359580D02*
X88011904Y-93264342D01*
X88011904Y-93264342D02*
X88011904Y-93026247D01*
X88011904Y-93026247D02*
X87964285Y-92931009D01*
X87964285Y-92931009D02*
X87916666Y-92883390D01*
X87916666Y-92883390D02*
X87821428Y-92835771D01*
X87821428Y-92835771D02*
X87630952Y-92835771D01*
X87630952Y-92835771D02*
X87535714Y-92883390D01*
X87535714Y-92883390D02*
X87488095Y-92931009D01*
X87488095Y-92931009D02*
X87440476Y-93026247D01*
X96682142Y-94184580D02*
X96634523Y-94232200D01*
X96634523Y-94232200D02*
X96491666Y-94279819D01*
X96491666Y-94279819D02*
X96396428Y-94279819D01*
X96396428Y-94279819D02*
X96253571Y-94232200D01*
X96253571Y-94232200D02*
X96158333Y-94136961D01*
X96158333Y-94136961D02*
X96110714Y-94041723D01*
X96110714Y-94041723D02*
X96063095Y-93851247D01*
X96063095Y-93851247D02*
X96063095Y-93708390D01*
X96063095Y-93708390D02*
X96110714Y-93517914D01*
X96110714Y-93517914D02*
X96158333Y-93422676D01*
X96158333Y-93422676D02*
X96253571Y-93327438D01*
X96253571Y-93327438D02*
X96396428Y-93279819D01*
X96396428Y-93279819D02*
X96491666Y-93279819D01*
X96491666Y-93279819D02*
X96634523Y-93327438D01*
X96634523Y-93327438D02*
X96682142Y-93375057D01*
X97634523Y-94279819D02*
X97063095Y-94279819D01*
X97348809Y-94279819D02*
X97348809Y-93279819D01*
X97348809Y-93279819D02*
X97253571Y-93422676D01*
X97253571Y-93422676D02*
X97158333Y-93517914D01*
X97158333Y-93517914D02*
X97063095Y-93565533D01*
X98253571Y-93279819D02*
X98348809Y-93279819D01*
X98348809Y-93279819D02*
X98444047Y-93327438D01*
X98444047Y-93327438D02*
X98491666Y-93375057D01*
X98491666Y-93375057D02*
X98539285Y-93470295D01*
X98539285Y-93470295D02*
X98586904Y-93660771D01*
X98586904Y-93660771D02*
X98586904Y-93898866D01*
X98586904Y-93898866D02*
X98539285Y-94089342D01*
X98539285Y-94089342D02*
X98491666Y-94184580D01*
X98491666Y-94184580D02*
X98444047Y-94232200D01*
X98444047Y-94232200D02*
X98348809Y-94279819D01*
X98348809Y-94279819D02*
X98253571Y-94279819D01*
X98253571Y-94279819D02*
X98158333Y-94232200D01*
X98158333Y-94232200D02*
X98110714Y-94184580D01*
X98110714Y-94184580D02*
X98063095Y-94089342D01*
X98063095Y-94089342D02*
X98015476Y-93898866D01*
X98015476Y-93898866D02*
X98015476Y-93660771D01*
X98015476Y-93660771D02*
X98063095Y-93470295D01*
X98063095Y-93470295D02*
X98110714Y-93375057D01*
X98110714Y-93375057D02*
X98158333Y-93327438D01*
X98158333Y-93327438D02*
X98253571Y-93279819D01*
X136249818Y-122099637D02*
X135542712Y-121392530D01*
X135542712Y-121392530D02*
X135711070Y-121224171D01*
X135711070Y-121224171D02*
X135845757Y-121156828D01*
X135845757Y-121156828D02*
X135980444Y-121156828D01*
X135980444Y-121156828D02*
X136081460Y-121190500D01*
X136081460Y-121190500D02*
X136249818Y-121291515D01*
X136249818Y-121291515D02*
X136350834Y-121392530D01*
X136350834Y-121392530D02*
X136451849Y-121560889D01*
X136451849Y-121560889D02*
X136485521Y-121661904D01*
X136485521Y-121661904D02*
X136485521Y-121796591D01*
X136485521Y-121796591D02*
X136418177Y-121931278D01*
X136418177Y-121931278D02*
X136249818Y-122099637D01*
X136182475Y-120752767D02*
X136620208Y-120315034D01*
X136620208Y-120315034D02*
X136653879Y-120820110D01*
X136653879Y-120820110D02*
X136754895Y-120719095D01*
X136754895Y-120719095D02*
X136855910Y-120685423D01*
X136855910Y-120685423D02*
X136923253Y-120685423D01*
X136923253Y-120685423D02*
X137024269Y-120719095D01*
X137024269Y-120719095D02*
X137192627Y-120887454D01*
X137192627Y-120887454D02*
X137226299Y-120988469D01*
X137226299Y-120988469D02*
X137226299Y-121055813D01*
X137226299Y-121055813D02*
X137192627Y-121156828D01*
X137192627Y-121156828D02*
X136990597Y-121358858D01*
X136990597Y-121358858D02*
X136889582Y-121392530D01*
X136889582Y-121392530D02*
X136822238Y-121392530D01*
X104633333Y-93754819D02*
X104300000Y-93278628D01*
X104061905Y-93754819D02*
X104061905Y-92754819D01*
X104061905Y-92754819D02*
X104442857Y-92754819D01*
X104442857Y-92754819D02*
X104538095Y-92802438D01*
X104538095Y-92802438D02*
X104585714Y-92850057D01*
X104585714Y-92850057D02*
X104633333Y-92945295D01*
X104633333Y-92945295D02*
X104633333Y-93088152D01*
X104633333Y-93088152D02*
X104585714Y-93183390D01*
X104585714Y-93183390D02*
X104538095Y-93231009D01*
X104538095Y-93231009D02*
X104442857Y-93278628D01*
X104442857Y-93278628D02*
X104061905Y-93278628D01*
X104966667Y-92754819D02*
X105633333Y-92754819D01*
X105633333Y-92754819D02*
X105204762Y-93754819D01*
X79892857Y-104181009D02*
X80035714Y-104228628D01*
X80035714Y-104228628D02*
X80083333Y-104276247D01*
X80083333Y-104276247D02*
X80130952Y-104371485D01*
X80130952Y-104371485D02*
X80130952Y-104514342D01*
X80130952Y-104514342D02*
X80083333Y-104609580D01*
X80083333Y-104609580D02*
X80035714Y-104657200D01*
X80035714Y-104657200D02*
X79940476Y-104704819D01*
X79940476Y-104704819D02*
X79559524Y-104704819D01*
X79559524Y-104704819D02*
X79559524Y-103704819D01*
X79559524Y-103704819D02*
X79892857Y-103704819D01*
X79892857Y-103704819D02*
X79988095Y-103752438D01*
X79988095Y-103752438D02*
X80035714Y-103800057D01*
X80035714Y-103800057D02*
X80083333Y-103895295D01*
X80083333Y-103895295D02*
X80083333Y-103990533D01*
X80083333Y-103990533D02*
X80035714Y-104085771D01*
X80035714Y-104085771D02*
X79988095Y-104133390D01*
X79988095Y-104133390D02*
X79892857Y-104181009D01*
X79892857Y-104181009D02*
X79559524Y-104181009D01*
X80511905Y-104419104D02*
X80988095Y-104419104D01*
X80416667Y-104704819D02*
X80750000Y-103704819D01*
X80750000Y-103704819D02*
X81083333Y-104704819D01*
X81273810Y-103704819D02*
X81845238Y-103704819D01*
X81559524Y-104704819D02*
X81559524Y-103704819D01*
X82178572Y-104323866D02*
X82940477Y-104323866D01*
X76533333Y-68859580D02*
X76485714Y-68907200D01*
X76485714Y-68907200D02*
X76342857Y-68954819D01*
X76342857Y-68954819D02*
X76247619Y-68954819D01*
X76247619Y-68954819D02*
X76104762Y-68907200D01*
X76104762Y-68907200D02*
X76009524Y-68811961D01*
X76009524Y-68811961D02*
X75961905Y-68716723D01*
X75961905Y-68716723D02*
X75914286Y-68526247D01*
X75914286Y-68526247D02*
X75914286Y-68383390D01*
X75914286Y-68383390D02*
X75961905Y-68192914D01*
X75961905Y-68192914D02*
X76009524Y-68097676D01*
X76009524Y-68097676D02*
X76104762Y-68002438D01*
X76104762Y-68002438D02*
X76247619Y-67954819D01*
X76247619Y-67954819D02*
X76342857Y-67954819D01*
X76342857Y-67954819D02*
X76485714Y-68002438D01*
X76485714Y-68002438D02*
X76533333Y-68050057D01*
X77104762Y-68383390D02*
X77009524Y-68335771D01*
X77009524Y-68335771D02*
X76961905Y-68288152D01*
X76961905Y-68288152D02*
X76914286Y-68192914D01*
X76914286Y-68192914D02*
X76914286Y-68145295D01*
X76914286Y-68145295D02*
X76961905Y-68050057D01*
X76961905Y-68050057D02*
X77009524Y-68002438D01*
X77009524Y-68002438D02*
X77104762Y-67954819D01*
X77104762Y-67954819D02*
X77295238Y-67954819D01*
X77295238Y-67954819D02*
X77390476Y-68002438D01*
X77390476Y-68002438D02*
X77438095Y-68050057D01*
X77438095Y-68050057D02*
X77485714Y-68145295D01*
X77485714Y-68145295D02*
X77485714Y-68192914D01*
X77485714Y-68192914D02*
X77438095Y-68288152D01*
X77438095Y-68288152D02*
X77390476Y-68335771D01*
X77390476Y-68335771D02*
X77295238Y-68383390D01*
X77295238Y-68383390D02*
X77104762Y-68383390D01*
X77104762Y-68383390D02*
X77009524Y-68431009D01*
X77009524Y-68431009D02*
X76961905Y-68478628D01*
X76961905Y-68478628D02*
X76914286Y-68573866D01*
X76914286Y-68573866D02*
X76914286Y-68764342D01*
X76914286Y-68764342D02*
X76961905Y-68859580D01*
X76961905Y-68859580D02*
X77009524Y-68907200D01*
X77009524Y-68907200D02*
X77104762Y-68954819D01*
X77104762Y-68954819D02*
X77295238Y-68954819D01*
X77295238Y-68954819D02*
X77390476Y-68907200D01*
X77390476Y-68907200D02*
X77438095Y-68859580D01*
X77438095Y-68859580D02*
X77485714Y-68764342D01*
X77485714Y-68764342D02*
X77485714Y-68573866D01*
X77485714Y-68573866D02*
X77438095Y-68478628D01*
X77438095Y-68478628D02*
X77390476Y-68431009D01*
X77390476Y-68431009D02*
X77295238Y-68383390D01*
X75511905Y-82454819D02*
X75511905Y-83264342D01*
X75511905Y-83264342D02*
X75559524Y-83359580D01*
X75559524Y-83359580D02*
X75607143Y-83407200D01*
X75607143Y-83407200D02*
X75702381Y-83454819D01*
X75702381Y-83454819D02*
X75892857Y-83454819D01*
X75892857Y-83454819D02*
X75988095Y-83407200D01*
X75988095Y-83407200D02*
X76035714Y-83359580D01*
X76035714Y-83359580D02*
X76083333Y-83264342D01*
X76083333Y-83264342D02*
X76083333Y-82454819D01*
X76511905Y-83407200D02*
X76654762Y-83454819D01*
X76654762Y-83454819D02*
X76892857Y-83454819D01*
X76892857Y-83454819D02*
X76988095Y-83407200D01*
X76988095Y-83407200D02*
X77035714Y-83359580D01*
X77035714Y-83359580D02*
X77083333Y-83264342D01*
X77083333Y-83264342D02*
X77083333Y-83169104D01*
X77083333Y-83169104D02*
X77035714Y-83073866D01*
X77035714Y-83073866D02*
X76988095Y-83026247D01*
X76988095Y-83026247D02*
X76892857Y-82978628D01*
X76892857Y-82978628D02*
X76702381Y-82931009D01*
X76702381Y-82931009D02*
X76607143Y-82883390D01*
X76607143Y-82883390D02*
X76559524Y-82835771D01*
X76559524Y-82835771D02*
X76511905Y-82740533D01*
X76511905Y-82740533D02*
X76511905Y-82645295D01*
X76511905Y-82645295D02*
X76559524Y-82550057D01*
X76559524Y-82550057D02*
X76607143Y-82502438D01*
X76607143Y-82502438D02*
X76702381Y-82454819D01*
X76702381Y-82454819D02*
X76940476Y-82454819D01*
X76940476Y-82454819D02*
X77083333Y-82502438D01*
X77845238Y-82931009D02*
X77988095Y-82978628D01*
X77988095Y-82978628D02*
X78035714Y-83026247D01*
X78035714Y-83026247D02*
X78083333Y-83121485D01*
X78083333Y-83121485D02*
X78083333Y-83264342D01*
X78083333Y-83264342D02*
X78035714Y-83359580D01*
X78035714Y-83359580D02*
X77988095Y-83407200D01*
X77988095Y-83407200D02*
X77892857Y-83454819D01*
X77892857Y-83454819D02*
X77511905Y-83454819D01*
X77511905Y-83454819D02*
X77511905Y-82454819D01*
X77511905Y-82454819D02*
X77845238Y-82454819D01*
X77845238Y-82454819D02*
X77940476Y-82502438D01*
X77940476Y-82502438D02*
X77988095Y-82550057D01*
X77988095Y-82550057D02*
X78035714Y-82645295D01*
X78035714Y-82645295D02*
X78035714Y-82740533D01*
X78035714Y-82740533D02*
X77988095Y-82835771D01*
X77988095Y-82835771D02*
X77940476Y-82883390D01*
X77940476Y-82883390D02*
X77845238Y-82931009D01*
X77845238Y-82931009D02*
X77511905Y-82931009D01*
X79035714Y-83454819D02*
X78464286Y-83454819D01*
X78750000Y-83454819D02*
X78750000Y-82454819D01*
X78750000Y-82454819D02*
X78654762Y-82597676D01*
X78654762Y-82597676D02*
X78559524Y-82692914D01*
X78559524Y-82692914D02*
X78464286Y-82740533D01*
X75286357Y-114530314D02*
X75286357Y-114597658D01*
X75286357Y-114597658D02*
X75219013Y-114732345D01*
X75219013Y-114732345D02*
X75151670Y-114799688D01*
X75151670Y-114799688D02*
X75016983Y-114867032D01*
X75016983Y-114867032D02*
X74882296Y-114867032D01*
X74882296Y-114867032D02*
X74781281Y-114833360D01*
X74781281Y-114833360D02*
X74612922Y-114732345D01*
X74612922Y-114732345D02*
X74511907Y-114631330D01*
X74511907Y-114631330D02*
X74410891Y-114462971D01*
X74410891Y-114462971D02*
X74377220Y-114361956D01*
X74377220Y-114361956D02*
X74377220Y-114227269D01*
X74377220Y-114227269D02*
X74444563Y-114092582D01*
X74444563Y-114092582D02*
X74511907Y-114025238D01*
X74511907Y-114025238D02*
X74646594Y-113957895D01*
X74646594Y-113957895D02*
X74713937Y-113957895D01*
X74983311Y-113688521D02*
X74983311Y-113621177D01*
X74983311Y-113621177D02*
X75016983Y-113520162D01*
X75016983Y-113520162D02*
X75185342Y-113351803D01*
X75185342Y-113351803D02*
X75286357Y-113318131D01*
X75286357Y-113318131D02*
X75353700Y-113318131D01*
X75353700Y-113318131D02*
X75454716Y-113351803D01*
X75454716Y-113351803D02*
X75522059Y-113419147D01*
X75522059Y-113419147D02*
X75589403Y-113553834D01*
X75589403Y-113553834D02*
X75589403Y-114361956D01*
X75589403Y-114361956D02*
X76027135Y-113924223D01*
X75926120Y-112611024D02*
X75791433Y-112745711D01*
X75791433Y-112745711D02*
X75757762Y-112846727D01*
X75757762Y-112846727D02*
X75757762Y-112914070D01*
X75757762Y-112914070D02*
X75791433Y-113082429D01*
X75791433Y-113082429D02*
X75892449Y-113250788D01*
X75892449Y-113250788D02*
X76161823Y-113520162D01*
X76161823Y-113520162D02*
X76262838Y-113553833D01*
X76262838Y-113553833D02*
X76330181Y-113553833D01*
X76330181Y-113553833D02*
X76431197Y-113520162D01*
X76431197Y-113520162D02*
X76565884Y-113385475D01*
X76565884Y-113385475D02*
X76599555Y-113284459D01*
X76599555Y-113284459D02*
X76599555Y-113217116D01*
X76599555Y-113217116D02*
X76565884Y-113116101D01*
X76565884Y-113116101D02*
X76397525Y-112947742D01*
X76397525Y-112947742D02*
X76296510Y-112914070D01*
X76296510Y-112914070D02*
X76229166Y-112914070D01*
X76229166Y-112914070D02*
X76128151Y-112947742D01*
X76128151Y-112947742D02*
X75993464Y-113082429D01*
X75993464Y-113082429D02*
X75959792Y-113183444D01*
X75959792Y-113183444D02*
X75959792Y-113250788D01*
X75959792Y-113250788D02*
X75993464Y-113351803D01*
X69732201Y-109011514D02*
X69159782Y-108910499D01*
X69328140Y-109415575D02*
X68621034Y-108708468D01*
X68621034Y-108708468D02*
X68890408Y-108439094D01*
X68890408Y-108439094D02*
X68991423Y-108405422D01*
X68991423Y-108405422D02*
X69058766Y-108405422D01*
X69058766Y-108405422D02*
X69159782Y-108439094D01*
X69159782Y-108439094D02*
X69260797Y-108540109D01*
X69260797Y-108540109D02*
X69294469Y-108641125D01*
X69294469Y-108641125D02*
X69294469Y-108708468D01*
X69294469Y-108708468D02*
X69260797Y-108809483D01*
X69260797Y-108809483D02*
X68991423Y-109078857D01*
X70405636Y-108338079D02*
X70001575Y-108742140D01*
X70203606Y-108540109D02*
X69496499Y-107833003D01*
X69496499Y-107833003D02*
X69530171Y-108001361D01*
X69530171Y-108001361D02*
X69530171Y-108136048D01*
X69530171Y-108136048D02*
X69496499Y-108237064D01*
X70304621Y-107024880D02*
X70169934Y-107159567D01*
X70169934Y-107159567D02*
X70136263Y-107260583D01*
X70136263Y-107260583D02*
X70136263Y-107327926D01*
X70136263Y-107327926D02*
X70169934Y-107496285D01*
X70169934Y-107496285D02*
X70270950Y-107664644D01*
X70270950Y-107664644D02*
X70540324Y-107934018D01*
X70540324Y-107934018D02*
X70641339Y-107967689D01*
X70641339Y-107967689D02*
X70708682Y-107967689D01*
X70708682Y-107967689D02*
X70809698Y-107934018D01*
X70809698Y-107934018D02*
X70944385Y-107799331D01*
X70944385Y-107799331D02*
X70978056Y-107698315D01*
X70978056Y-107698315D02*
X70978056Y-107630972D01*
X70978056Y-107630972D02*
X70944385Y-107529957D01*
X70944385Y-107529957D02*
X70776026Y-107361598D01*
X70776026Y-107361598D02*
X70675011Y-107327926D01*
X70675011Y-107327926D02*
X70607667Y-107327926D01*
X70607667Y-107327926D02*
X70506652Y-107361598D01*
X70506652Y-107361598D02*
X70371965Y-107496285D01*
X70371965Y-107496285D02*
X70338293Y-107597300D01*
X70338293Y-107597300D02*
X70338293Y-107664644D01*
X70338293Y-107664644D02*
X70371965Y-107765659D01*
X87688095Y-83042319D02*
X87688095Y-83851842D01*
X87688095Y-83851842D02*
X87735714Y-83947080D01*
X87735714Y-83947080D02*
X87783333Y-83994700D01*
X87783333Y-83994700D02*
X87878571Y-84042319D01*
X87878571Y-84042319D02*
X88069047Y-84042319D01*
X88069047Y-84042319D02*
X88164285Y-83994700D01*
X88164285Y-83994700D02*
X88211904Y-83947080D01*
X88211904Y-83947080D02*
X88259523Y-83851842D01*
X88259523Y-83851842D02*
X88259523Y-83042319D01*
X88640476Y-83042319D02*
X89259523Y-83042319D01*
X89259523Y-83042319D02*
X88926190Y-83423271D01*
X88926190Y-83423271D02*
X89069047Y-83423271D01*
X89069047Y-83423271D02*
X89164285Y-83470890D01*
X89164285Y-83470890D02*
X89211904Y-83518509D01*
X89211904Y-83518509D02*
X89259523Y-83613747D01*
X89259523Y-83613747D02*
X89259523Y-83851842D01*
X89259523Y-83851842D02*
X89211904Y-83947080D01*
X89211904Y-83947080D02*
X89164285Y-83994700D01*
X89164285Y-83994700D02*
X89069047Y-84042319D01*
X89069047Y-84042319D02*
X88783333Y-84042319D01*
X88783333Y-84042319D02*
X88688095Y-83994700D01*
X88688095Y-83994700D02*
X88640476Y-83947080D01*
X89238095Y-92704819D02*
X89238095Y-93514342D01*
X89238095Y-93514342D02*
X89285714Y-93609580D01*
X89285714Y-93609580D02*
X89333333Y-93657200D01*
X89333333Y-93657200D02*
X89428571Y-93704819D01*
X89428571Y-93704819D02*
X89619047Y-93704819D01*
X89619047Y-93704819D02*
X89714285Y-93657200D01*
X89714285Y-93657200D02*
X89761904Y-93609580D01*
X89761904Y-93609580D02*
X89809523Y-93514342D01*
X89809523Y-93514342D02*
X89809523Y-92704819D01*
X90714285Y-93038152D02*
X90714285Y-93704819D01*
X90476190Y-92657200D02*
X90238095Y-93371485D01*
X90238095Y-93371485D02*
X90857142Y-93371485D01*
X96907142Y-97859580D02*
X96859523Y-97907200D01*
X96859523Y-97907200D02*
X96716666Y-97954819D01*
X96716666Y-97954819D02*
X96621428Y-97954819D01*
X96621428Y-97954819D02*
X96478571Y-97907200D01*
X96478571Y-97907200D02*
X96383333Y-97811961D01*
X96383333Y-97811961D02*
X96335714Y-97716723D01*
X96335714Y-97716723D02*
X96288095Y-97526247D01*
X96288095Y-97526247D02*
X96288095Y-97383390D01*
X96288095Y-97383390D02*
X96335714Y-97192914D01*
X96335714Y-97192914D02*
X96383333Y-97097676D01*
X96383333Y-97097676D02*
X96478571Y-97002438D01*
X96478571Y-97002438D02*
X96621428Y-96954819D01*
X96621428Y-96954819D02*
X96716666Y-96954819D01*
X96716666Y-96954819D02*
X96859523Y-97002438D01*
X96859523Y-97002438D02*
X96907142Y-97050057D01*
X97859523Y-97954819D02*
X97288095Y-97954819D01*
X97573809Y-97954819D02*
X97573809Y-96954819D01*
X97573809Y-96954819D02*
X97478571Y-97097676D01*
X97478571Y-97097676D02*
X97383333Y-97192914D01*
X97383333Y-97192914D02*
X97288095Y-97240533D01*
X98192857Y-96954819D02*
X98811904Y-96954819D01*
X98811904Y-96954819D02*
X98478571Y-97335771D01*
X98478571Y-97335771D02*
X98621428Y-97335771D01*
X98621428Y-97335771D02*
X98716666Y-97383390D01*
X98716666Y-97383390D02*
X98764285Y-97431009D01*
X98764285Y-97431009D02*
X98811904Y-97526247D01*
X98811904Y-97526247D02*
X98811904Y-97764342D01*
X98811904Y-97764342D02*
X98764285Y-97859580D01*
X98764285Y-97859580D02*
X98716666Y-97907200D01*
X98716666Y-97907200D02*
X98621428Y-97954819D01*
X98621428Y-97954819D02*
X98335714Y-97954819D01*
X98335714Y-97954819D02*
X98240476Y-97907200D01*
X98240476Y-97907200D02*
X98192857Y-97859580D01*
X84533333Y-64359580D02*
X84485714Y-64407200D01*
X84485714Y-64407200D02*
X84342857Y-64454819D01*
X84342857Y-64454819D02*
X84247619Y-64454819D01*
X84247619Y-64454819D02*
X84104762Y-64407200D01*
X84104762Y-64407200D02*
X84009524Y-64311961D01*
X84009524Y-64311961D02*
X83961905Y-64216723D01*
X83961905Y-64216723D02*
X83914286Y-64026247D01*
X83914286Y-64026247D02*
X83914286Y-63883390D01*
X83914286Y-63883390D02*
X83961905Y-63692914D01*
X83961905Y-63692914D02*
X84009524Y-63597676D01*
X84009524Y-63597676D02*
X84104762Y-63502438D01*
X84104762Y-63502438D02*
X84247619Y-63454819D01*
X84247619Y-63454819D02*
X84342857Y-63454819D01*
X84342857Y-63454819D02*
X84485714Y-63502438D01*
X84485714Y-63502438D02*
X84533333Y-63550057D01*
X85438095Y-63454819D02*
X84961905Y-63454819D01*
X84961905Y-63454819D02*
X84914286Y-63931009D01*
X84914286Y-63931009D02*
X84961905Y-63883390D01*
X84961905Y-63883390D02*
X85057143Y-63835771D01*
X85057143Y-63835771D02*
X85295238Y-63835771D01*
X85295238Y-63835771D02*
X85390476Y-63883390D01*
X85390476Y-63883390D02*
X85438095Y-63931009D01*
X85438095Y-63931009D02*
X85485714Y-64026247D01*
X85485714Y-64026247D02*
X85485714Y-64264342D01*
X85485714Y-64264342D02*
X85438095Y-64359580D01*
X85438095Y-64359580D02*
X85390476Y-64407200D01*
X85390476Y-64407200D02*
X85295238Y-64454819D01*
X85295238Y-64454819D02*
X85057143Y-64454819D01*
X85057143Y-64454819D02*
X84961905Y-64407200D01*
X84961905Y-64407200D02*
X84914286Y-64359580D01*
X95238094Y-61709104D02*
X95714284Y-61709104D01*
X95142856Y-61994819D02*
X95476189Y-60994819D01*
X95476189Y-60994819D02*
X95809522Y-61994819D01*
X96142856Y-61328152D02*
X96142856Y-61994819D01*
X96142856Y-61423390D02*
X96190475Y-61375771D01*
X96190475Y-61375771D02*
X96285713Y-61328152D01*
X96285713Y-61328152D02*
X96428570Y-61328152D01*
X96428570Y-61328152D02*
X96523808Y-61375771D01*
X96523808Y-61375771D02*
X96571427Y-61471009D01*
X96571427Y-61471009D02*
X96571427Y-61994819D01*
X96904761Y-61328152D02*
X97285713Y-61328152D01*
X97047618Y-60994819D02*
X97047618Y-61851961D01*
X97047618Y-61851961D02*
X97095237Y-61947200D01*
X97095237Y-61947200D02*
X97190475Y-61994819D01*
X97190475Y-61994819D02*
X97285713Y-61994819D01*
X97999999Y-61947200D02*
X97904761Y-61994819D01*
X97904761Y-61994819D02*
X97714285Y-61994819D01*
X97714285Y-61994819D02*
X97619047Y-61947200D01*
X97619047Y-61947200D02*
X97571428Y-61851961D01*
X97571428Y-61851961D02*
X97571428Y-61471009D01*
X97571428Y-61471009D02*
X97619047Y-61375771D01*
X97619047Y-61375771D02*
X97714285Y-61328152D01*
X97714285Y-61328152D02*
X97904761Y-61328152D01*
X97904761Y-61328152D02*
X97999999Y-61375771D01*
X97999999Y-61375771D02*
X98047618Y-61471009D01*
X98047618Y-61471009D02*
X98047618Y-61566247D01*
X98047618Y-61566247D02*
X97571428Y-61661485D01*
X98476190Y-61328152D02*
X98476190Y-61994819D01*
X98476190Y-61423390D02*
X98523809Y-61375771D01*
X98523809Y-61375771D02*
X98619047Y-61328152D01*
X98619047Y-61328152D02*
X98761904Y-61328152D01*
X98761904Y-61328152D02*
X98857142Y-61375771D01*
X98857142Y-61375771D02*
X98904761Y-61471009D01*
X98904761Y-61471009D02*
X98904761Y-61994819D01*
X99380952Y-61328152D02*
X99380952Y-61994819D01*
X99380952Y-61423390D02*
X99428571Y-61375771D01*
X99428571Y-61375771D02*
X99523809Y-61328152D01*
X99523809Y-61328152D02*
X99666666Y-61328152D01*
X99666666Y-61328152D02*
X99761904Y-61375771D01*
X99761904Y-61375771D02*
X99809523Y-61471009D01*
X99809523Y-61471009D02*
X99809523Y-61994819D01*
X100714285Y-61994819D02*
X100714285Y-61471009D01*
X100714285Y-61471009D02*
X100666666Y-61375771D01*
X100666666Y-61375771D02*
X100571428Y-61328152D01*
X100571428Y-61328152D02*
X100380952Y-61328152D01*
X100380952Y-61328152D02*
X100285714Y-61375771D01*
X100714285Y-61947200D02*
X100619047Y-61994819D01*
X100619047Y-61994819D02*
X100380952Y-61994819D01*
X100380952Y-61994819D02*
X100285714Y-61947200D01*
X100285714Y-61947200D02*
X100238095Y-61851961D01*
X100238095Y-61851961D02*
X100238095Y-61756723D01*
X100238095Y-61756723D02*
X100285714Y-61661485D01*
X100285714Y-61661485D02*
X100380952Y-61613866D01*
X100380952Y-61613866D02*
X100619047Y-61613866D01*
X100619047Y-61613866D02*
X100714285Y-61566247D01*
X101904762Y-61709104D02*
X102380952Y-61709104D01*
X101809524Y-61994819D02*
X102142857Y-60994819D01*
X102142857Y-60994819D02*
X102476190Y-61994819D01*
X102809524Y-61994819D02*
X102809524Y-61328152D01*
X102809524Y-61518628D02*
X102857143Y-61423390D01*
X102857143Y-61423390D02*
X102904762Y-61375771D01*
X102904762Y-61375771D02*
X103000000Y-61328152D01*
X103000000Y-61328152D02*
X103095238Y-61328152D01*
X103809524Y-61947200D02*
X103714286Y-61994819D01*
X103714286Y-61994819D02*
X103523810Y-61994819D01*
X103523810Y-61994819D02*
X103428572Y-61947200D01*
X103428572Y-61947200D02*
X103380953Y-61851961D01*
X103380953Y-61851961D02*
X103380953Y-61471009D01*
X103380953Y-61471009D02*
X103428572Y-61375771D01*
X103428572Y-61375771D02*
X103523810Y-61328152D01*
X103523810Y-61328152D02*
X103714286Y-61328152D01*
X103714286Y-61328152D02*
X103809524Y-61375771D01*
X103809524Y-61375771D02*
X103857143Y-61471009D01*
X103857143Y-61471009D02*
X103857143Y-61566247D01*
X103857143Y-61566247D02*
X103380953Y-61661485D01*
X104714286Y-61994819D02*
X104714286Y-61471009D01*
X104714286Y-61471009D02*
X104666667Y-61375771D01*
X104666667Y-61375771D02*
X104571429Y-61328152D01*
X104571429Y-61328152D02*
X104380953Y-61328152D01*
X104380953Y-61328152D02*
X104285715Y-61375771D01*
X104714286Y-61947200D02*
X104619048Y-61994819D01*
X104619048Y-61994819D02*
X104380953Y-61994819D01*
X104380953Y-61994819D02*
X104285715Y-61947200D01*
X104285715Y-61947200D02*
X104238096Y-61851961D01*
X104238096Y-61851961D02*
X104238096Y-61756723D01*
X104238096Y-61756723D02*
X104285715Y-61661485D01*
X104285715Y-61661485D02*
X104380953Y-61613866D01*
X104380953Y-61613866D02*
X104619048Y-61613866D01*
X104619048Y-61613866D02*
X104714286Y-61566247D01*
X66828427Y-58212183D02*
X66761083Y-58212183D01*
X66761083Y-58212183D02*
X66626396Y-58144839D01*
X66626396Y-58144839D02*
X66559053Y-58077496D01*
X66559053Y-58077496D02*
X66491709Y-57942809D01*
X66491709Y-57942809D02*
X66491709Y-57808122D01*
X66491709Y-57808122D02*
X66525381Y-57707107D01*
X66525381Y-57707107D02*
X66626396Y-57538748D01*
X66626396Y-57538748D02*
X66727411Y-57437733D01*
X66727411Y-57437733D02*
X66895770Y-57336717D01*
X66895770Y-57336717D02*
X66996785Y-57303046D01*
X66996785Y-57303046D02*
X67131472Y-57303046D01*
X67131472Y-57303046D02*
X67266159Y-57370389D01*
X67266159Y-57370389D02*
X67333503Y-57437733D01*
X67333503Y-57437733D02*
X67400846Y-57572420D01*
X67400846Y-57572420D02*
X67400846Y-57639763D01*
X67670220Y-57909137D02*
X67737564Y-57909137D01*
X67737564Y-57909137D02*
X67838579Y-57942809D01*
X67838579Y-57942809D02*
X68006938Y-58111168D01*
X68006938Y-58111168D02*
X68040610Y-58212183D01*
X68040610Y-58212183D02*
X68040610Y-58279526D01*
X68040610Y-58279526D02*
X68006938Y-58380542D01*
X68006938Y-58380542D02*
X67939594Y-58447885D01*
X67939594Y-58447885D02*
X67804907Y-58515229D01*
X67804907Y-58515229D02*
X66996785Y-58515229D01*
X66996785Y-58515229D02*
X67434518Y-58952961D01*
X68377327Y-58481557D02*
X68848732Y-58952962D01*
X68848732Y-58952962D02*
X67838579Y-59357023D01*
X133821605Y-58456292D02*
X133720590Y-58489964D01*
X133720590Y-58489964D02*
X133585903Y-58489964D01*
X133585903Y-58489964D02*
X133383872Y-58489964D01*
X133383872Y-58489964D02*
X133282857Y-58523636D01*
X133282857Y-58523636D02*
X133215514Y-58590979D01*
X133417544Y-58725666D02*
X133316529Y-58759338D01*
X133316529Y-58759338D02*
X133181842Y-58759338D01*
X133181842Y-58759338D02*
X133013483Y-58658323D01*
X133013483Y-58658323D02*
X132777781Y-58422620D01*
X132777781Y-58422620D02*
X132676766Y-58254262D01*
X132676766Y-58254262D02*
X132676766Y-58119575D01*
X132676766Y-58119575D02*
X132710437Y-58018559D01*
X132710437Y-58018559D02*
X132845124Y-57883872D01*
X132845124Y-57883872D02*
X132946140Y-57850201D01*
X132946140Y-57850201D02*
X133080827Y-57850201D01*
X133080827Y-57850201D02*
X133249185Y-57951216D01*
X133249185Y-57951216D02*
X133484888Y-58186918D01*
X133484888Y-58186918D02*
X133585903Y-58355277D01*
X133585903Y-58355277D02*
X133585903Y-58489964D01*
X133585903Y-58489964D02*
X133552231Y-58590979D01*
X133552231Y-58590979D02*
X133417544Y-58725666D01*
X134394025Y-57749185D02*
X133989964Y-58153246D01*
X134191994Y-57951216D02*
X133484888Y-57244109D01*
X133484888Y-57244109D02*
X133518559Y-57412468D01*
X133518559Y-57412468D02*
X133518559Y-57547155D01*
X133518559Y-57547155D02*
X133484888Y-57648170D01*
X66321605Y-112206291D02*
X66220590Y-112239963D01*
X66220590Y-112239963D02*
X66085903Y-112239963D01*
X66085903Y-112239963D02*
X65883872Y-112239963D01*
X65883872Y-112239963D02*
X65782857Y-112273635D01*
X65782857Y-112273635D02*
X65715514Y-112340978D01*
X65917544Y-112475665D02*
X65816529Y-112509337D01*
X65816529Y-112509337D02*
X65681842Y-112509337D01*
X65681842Y-112509337D02*
X65513483Y-112408322D01*
X65513483Y-112408322D02*
X65277781Y-112172619D01*
X65277781Y-112172619D02*
X65176766Y-112004261D01*
X65176766Y-112004261D02*
X65176766Y-111869574D01*
X65176766Y-111869574D02*
X65210437Y-111768558D01*
X65210437Y-111768558D02*
X65345124Y-111633871D01*
X65345124Y-111633871D02*
X65446140Y-111600200D01*
X65446140Y-111600200D02*
X65580827Y-111600200D01*
X65580827Y-111600200D02*
X65749185Y-111701215D01*
X65749185Y-111701215D02*
X65984888Y-111936917D01*
X65984888Y-111936917D02*
X66085903Y-112105276D01*
X66085903Y-112105276D02*
X66085903Y-112239963D01*
X66085903Y-112239963D02*
X66052231Y-112340978D01*
X66052231Y-112340978D02*
X65917544Y-112475665D01*
X65749185Y-111229810D02*
X66186918Y-110792078D01*
X66186918Y-110792078D02*
X66220590Y-111297154D01*
X66220590Y-111297154D02*
X66321605Y-111196139D01*
X66321605Y-111196139D02*
X66422620Y-111162467D01*
X66422620Y-111162467D02*
X66489964Y-111162467D01*
X66489964Y-111162467D02*
X66590979Y-111196139D01*
X66590979Y-111196139D02*
X66759338Y-111364497D01*
X66759338Y-111364497D02*
X66793010Y-111465513D01*
X66793010Y-111465513D02*
X66793010Y-111532856D01*
X66793010Y-111532856D02*
X66759338Y-111633871D01*
X66759338Y-111633871D02*
X66557307Y-111835902D01*
X66557307Y-111835902D02*
X66456292Y-111869574D01*
X66456292Y-111869574D02*
X66388949Y-111869574D01*
X110957142Y-68054819D02*
X110623809Y-67578628D01*
X110385714Y-68054819D02*
X110385714Y-67054819D01*
X110385714Y-67054819D02*
X110766666Y-67054819D01*
X110766666Y-67054819D02*
X110861904Y-67102438D01*
X110861904Y-67102438D02*
X110909523Y-67150057D01*
X110909523Y-67150057D02*
X110957142Y-67245295D01*
X110957142Y-67245295D02*
X110957142Y-67388152D01*
X110957142Y-67388152D02*
X110909523Y-67483390D01*
X110909523Y-67483390D02*
X110861904Y-67531009D01*
X110861904Y-67531009D02*
X110766666Y-67578628D01*
X110766666Y-67578628D02*
X110385714Y-67578628D01*
X111909523Y-68054819D02*
X111338095Y-68054819D01*
X111623809Y-68054819D02*
X111623809Y-67054819D01*
X111623809Y-67054819D02*
X111528571Y-67197676D01*
X111528571Y-67197676D02*
X111433333Y-67292914D01*
X111433333Y-67292914D02*
X111338095Y-67340533D01*
X112766666Y-67388152D02*
X112766666Y-68054819D01*
X112528571Y-67007200D02*
X112290476Y-67721485D01*
X112290476Y-67721485D02*
X112909523Y-67721485D01*
X129809498Y-62112749D02*
X129237079Y-62011734D01*
X129405437Y-62516810D02*
X128698331Y-61809703D01*
X128698331Y-61809703D02*
X128967705Y-61540329D01*
X128967705Y-61540329D02*
X129068720Y-61506657D01*
X129068720Y-61506657D02*
X129136063Y-61506657D01*
X129136063Y-61506657D02*
X129237079Y-61540329D01*
X129237079Y-61540329D02*
X129338094Y-61641344D01*
X129338094Y-61641344D02*
X129371766Y-61742360D01*
X129371766Y-61742360D02*
X129371766Y-61809703D01*
X129371766Y-61809703D02*
X129338094Y-61910718D01*
X129338094Y-61910718D02*
X129068720Y-62180092D01*
X130482933Y-61439314D02*
X130078872Y-61843375D01*
X130280903Y-61641344D02*
X129573796Y-60934238D01*
X129573796Y-60934238D02*
X129607468Y-61102596D01*
X129607468Y-61102596D02*
X129607468Y-61237283D01*
X129607468Y-61237283D02*
X129573796Y-61338299D01*
X130112544Y-60530176D02*
X130112544Y-60462833D01*
X130112544Y-60462833D02*
X130146216Y-60361818D01*
X130146216Y-60361818D02*
X130314575Y-60193459D01*
X130314575Y-60193459D02*
X130415590Y-60159787D01*
X130415590Y-60159787D02*
X130482934Y-60159787D01*
X130482934Y-60159787D02*
X130583949Y-60193459D01*
X130583949Y-60193459D02*
X130651292Y-60260802D01*
X130651292Y-60260802D02*
X130718636Y-60395489D01*
X130718636Y-60395489D02*
X130718636Y-61203611D01*
X130718636Y-61203611D02*
X131156369Y-60765879D01*
X111557142Y-103159580D02*
X111509523Y-103207200D01*
X111509523Y-103207200D02*
X111366666Y-103254819D01*
X111366666Y-103254819D02*
X111271428Y-103254819D01*
X111271428Y-103254819D02*
X111128571Y-103207200D01*
X111128571Y-103207200D02*
X111033333Y-103111961D01*
X111033333Y-103111961D02*
X110985714Y-103016723D01*
X110985714Y-103016723D02*
X110938095Y-102826247D01*
X110938095Y-102826247D02*
X110938095Y-102683390D01*
X110938095Y-102683390D02*
X110985714Y-102492914D01*
X110985714Y-102492914D02*
X111033333Y-102397676D01*
X111033333Y-102397676D02*
X111128571Y-102302438D01*
X111128571Y-102302438D02*
X111271428Y-102254819D01*
X111271428Y-102254819D02*
X111366666Y-102254819D01*
X111366666Y-102254819D02*
X111509523Y-102302438D01*
X111509523Y-102302438D02*
X111557142Y-102350057D01*
X112509523Y-103254819D02*
X111938095Y-103254819D01*
X112223809Y-103254819D02*
X112223809Y-102254819D01*
X112223809Y-102254819D02*
X112128571Y-102397676D01*
X112128571Y-102397676D02*
X112033333Y-102492914D01*
X112033333Y-102492914D02*
X111938095Y-102540533D01*
X113414285Y-102254819D02*
X112938095Y-102254819D01*
X112938095Y-102254819D02*
X112890476Y-102731009D01*
X112890476Y-102731009D02*
X112938095Y-102683390D01*
X112938095Y-102683390D02*
X113033333Y-102635771D01*
X113033333Y-102635771D02*
X113271428Y-102635771D01*
X113271428Y-102635771D02*
X113366666Y-102683390D01*
X113366666Y-102683390D02*
X113414285Y-102731009D01*
X113414285Y-102731009D02*
X113461904Y-102826247D01*
X113461904Y-102826247D02*
X113461904Y-103064342D01*
X113461904Y-103064342D02*
X113414285Y-103159580D01*
X113414285Y-103159580D02*
X113366666Y-103207200D01*
X113366666Y-103207200D02*
X113271428Y-103254819D01*
X113271428Y-103254819D02*
X113033333Y-103254819D01*
X113033333Y-103254819D02*
X112938095Y-103207200D01*
X112938095Y-103207200D02*
X112890476Y-103159580D01*
X92357142Y-92859580D02*
X92309523Y-92907200D01*
X92309523Y-92907200D02*
X92166666Y-92954819D01*
X92166666Y-92954819D02*
X92071428Y-92954819D01*
X92071428Y-92954819D02*
X91928571Y-92907200D01*
X91928571Y-92907200D02*
X91833333Y-92811961D01*
X91833333Y-92811961D02*
X91785714Y-92716723D01*
X91785714Y-92716723D02*
X91738095Y-92526247D01*
X91738095Y-92526247D02*
X91738095Y-92383390D01*
X91738095Y-92383390D02*
X91785714Y-92192914D01*
X91785714Y-92192914D02*
X91833333Y-92097676D01*
X91833333Y-92097676D02*
X91928571Y-92002438D01*
X91928571Y-92002438D02*
X92071428Y-91954819D01*
X92071428Y-91954819D02*
X92166666Y-91954819D01*
X92166666Y-91954819D02*
X92309523Y-92002438D01*
X92309523Y-92002438D02*
X92357142Y-92050057D01*
X93309523Y-92954819D02*
X92738095Y-92954819D01*
X93023809Y-92954819D02*
X93023809Y-91954819D01*
X93023809Y-91954819D02*
X92928571Y-92097676D01*
X92928571Y-92097676D02*
X92833333Y-92192914D01*
X92833333Y-92192914D02*
X92738095Y-92240533D01*
X93690476Y-92050057D02*
X93738095Y-92002438D01*
X93738095Y-92002438D02*
X93833333Y-91954819D01*
X93833333Y-91954819D02*
X94071428Y-91954819D01*
X94071428Y-91954819D02*
X94166666Y-92002438D01*
X94166666Y-92002438D02*
X94214285Y-92050057D01*
X94214285Y-92050057D02*
X94261904Y-92145295D01*
X94261904Y-92145295D02*
X94261904Y-92240533D01*
X94261904Y-92240533D02*
X94214285Y-92383390D01*
X94214285Y-92383390D02*
X93642857Y-92954819D01*
X93642857Y-92954819D02*
X94261904Y-92954819D01*
X97366666Y-107786009D02*
X97033333Y-107786009D01*
X97033333Y-108309819D02*
X97033333Y-107309819D01*
X97033333Y-107309819D02*
X97509523Y-107309819D01*
X97890476Y-108309819D02*
X97890476Y-107309819D01*
X97890476Y-107309819D02*
X98271428Y-107309819D01*
X98271428Y-107309819D02*
X98366666Y-107357438D01*
X98366666Y-107357438D02*
X98414285Y-107405057D01*
X98414285Y-107405057D02*
X98461904Y-107500295D01*
X98461904Y-107500295D02*
X98461904Y-107643152D01*
X98461904Y-107643152D02*
X98414285Y-107738390D01*
X98414285Y-107738390D02*
X98366666Y-107786009D01*
X98366666Y-107786009D02*
X98271428Y-107833628D01*
X98271428Y-107833628D02*
X97890476Y-107833628D01*
X99461904Y-108214580D02*
X99414285Y-108262200D01*
X99414285Y-108262200D02*
X99271428Y-108309819D01*
X99271428Y-108309819D02*
X99176190Y-108309819D01*
X99176190Y-108309819D02*
X99033333Y-108262200D01*
X99033333Y-108262200D02*
X98938095Y-108166961D01*
X98938095Y-108166961D02*
X98890476Y-108071723D01*
X98890476Y-108071723D02*
X98842857Y-107881247D01*
X98842857Y-107881247D02*
X98842857Y-107738390D01*
X98842857Y-107738390D02*
X98890476Y-107547914D01*
X98890476Y-107547914D02*
X98938095Y-107452676D01*
X98938095Y-107452676D02*
X99033333Y-107357438D01*
X99033333Y-107357438D02*
X99176190Y-107309819D01*
X99176190Y-107309819D02*
X99271428Y-107309819D01*
X99271428Y-107309819D02*
X99414285Y-107357438D01*
X99414285Y-107357438D02*
X99461904Y-107405057D01*
X100414285Y-108309819D02*
X99842857Y-108309819D01*
X100128571Y-108309819D02*
X100128571Y-107309819D01*
X100128571Y-107309819D02*
X100033333Y-107452676D01*
X100033333Y-107452676D02*
X99938095Y-107547914D01*
X99938095Y-107547914D02*
X99842857Y-107595533D01*
X62910399Y-49443616D02*
X62203293Y-48736509D01*
X62203293Y-48736509D02*
X62371651Y-48568150D01*
X62371651Y-48568150D02*
X62506338Y-48500807D01*
X62506338Y-48500807D02*
X62641025Y-48500807D01*
X62641025Y-48500807D02*
X62742041Y-48534479D01*
X62742041Y-48534479D02*
X62910399Y-48635494D01*
X62910399Y-48635494D02*
X63011415Y-48736509D01*
X63011415Y-48736509D02*
X63112430Y-48904868D01*
X63112430Y-48904868D02*
X63146102Y-49005883D01*
X63146102Y-49005883D02*
X63146102Y-49140570D01*
X63146102Y-49140570D02*
X63078758Y-49275257D01*
X63078758Y-49275257D02*
X62910399Y-49443616D01*
X63247117Y-47692685D02*
X62910399Y-48029402D01*
X62910399Y-48029402D02*
X63213445Y-48399792D01*
X63213445Y-48399792D02*
X63213445Y-48332448D01*
X63213445Y-48332448D02*
X63247117Y-48231433D01*
X63247117Y-48231433D02*
X63415476Y-48063074D01*
X63415476Y-48063074D02*
X63516491Y-48029402D01*
X63516491Y-48029402D02*
X63583834Y-48029402D01*
X63583834Y-48029402D02*
X63684850Y-48063074D01*
X63684850Y-48063074D02*
X63853208Y-48231433D01*
X63853208Y-48231433D02*
X63886880Y-48332448D01*
X63886880Y-48332448D02*
X63886880Y-48399792D01*
X63886880Y-48399792D02*
X63853208Y-48500807D01*
X63853208Y-48500807D02*
X63684850Y-48669166D01*
X63684850Y-48669166D02*
X63583834Y-48702837D01*
X63583834Y-48702837D02*
X63516491Y-48702837D01*
X126091716Y-53127020D02*
X126091716Y-53194364D01*
X126091716Y-53194364D02*
X126024372Y-53329051D01*
X126024372Y-53329051D02*
X125957029Y-53396394D01*
X125957029Y-53396394D02*
X125822342Y-53463738D01*
X125822342Y-53463738D02*
X125687655Y-53463738D01*
X125687655Y-53463738D02*
X125586640Y-53430066D01*
X125586640Y-53430066D02*
X125418281Y-53329051D01*
X125418281Y-53329051D02*
X125317266Y-53228036D01*
X125317266Y-53228036D02*
X125216250Y-53059677D01*
X125216250Y-53059677D02*
X125182579Y-52958662D01*
X125182579Y-52958662D02*
X125182579Y-52823975D01*
X125182579Y-52823975D02*
X125249922Y-52689288D01*
X125249922Y-52689288D02*
X125317266Y-52621944D01*
X125317266Y-52621944D02*
X125451953Y-52554601D01*
X125451953Y-52554601D02*
X125519296Y-52554601D01*
X126832494Y-52520929D02*
X126428433Y-52924990D01*
X126630464Y-52722959D02*
X125923357Y-52015853D01*
X125923357Y-52015853D02*
X125957029Y-52184211D01*
X125957029Y-52184211D02*
X125957029Y-52318898D01*
X125957029Y-52318898D02*
X125923357Y-52419914D01*
X126832495Y-51712807D02*
X126731479Y-51746478D01*
X126731479Y-51746478D02*
X126664136Y-51746478D01*
X126664136Y-51746478D02*
X126563121Y-51712807D01*
X126563121Y-51712807D02*
X126529449Y-51679135D01*
X126529449Y-51679135D02*
X126495777Y-51578120D01*
X126495777Y-51578120D02*
X126495777Y-51510776D01*
X126495777Y-51510776D02*
X126529449Y-51409761D01*
X126529449Y-51409761D02*
X126664136Y-51275074D01*
X126664136Y-51275074D02*
X126765151Y-51241402D01*
X126765151Y-51241402D02*
X126832495Y-51241402D01*
X126832495Y-51241402D02*
X126933510Y-51275074D01*
X126933510Y-51275074D02*
X126967182Y-51308746D01*
X126967182Y-51308746D02*
X127000853Y-51409761D01*
X127000853Y-51409761D02*
X127000853Y-51477104D01*
X127000853Y-51477104D02*
X126967182Y-51578120D01*
X126967182Y-51578120D02*
X126832495Y-51712807D01*
X126832495Y-51712807D02*
X126798823Y-51813822D01*
X126798823Y-51813822D02*
X126798823Y-51881165D01*
X126798823Y-51881165D02*
X126832495Y-51982181D01*
X126832495Y-51982181D02*
X126967182Y-52116868D01*
X126967182Y-52116868D02*
X127068197Y-52150539D01*
X127068197Y-52150539D02*
X127135540Y-52150539D01*
X127135540Y-52150539D02*
X127236556Y-52116868D01*
X127236556Y-52116868D02*
X127371243Y-51982181D01*
X127371243Y-51982181D02*
X127404914Y-51881165D01*
X127404914Y-51881165D02*
X127404914Y-51813822D01*
X127404914Y-51813822D02*
X127371243Y-51712807D01*
X127371243Y-51712807D02*
X127236556Y-51578120D01*
X127236556Y-51578120D02*
X127135540Y-51544448D01*
X127135540Y-51544448D02*
X127068197Y-51544448D01*
X127068197Y-51544448D02*
X126967182Y-51578120D01*
X93333333Y-87359580D02*
X93285714Y-87407200D01*
X93285714Y-87407200D02*
X93142857Y-87454819D01*
X93142857Y-87454819D02*
X93047619Y-87454819D01*
X93047619Y-87454819D02*
X92904762Y-87407200D01*
X92904762Y-87407200D02*
X92809524Y-87311961D01*
X92809524Y-87311961D02*
X92761905Y-87216723D01*
X92761905Y-87216723D02*
X92714286Y-87026247D01*
X92714286Y-87026247D02*
X92714286Y-86883390D01*
X92714286Y-86883390D02*
X92761905Y-86692914D01*
X92761905Y-86692914D02*
X92809524Y-86597676D01*
X92809524Y-86597676D02*
X92904762Y-86502438D01*
X92904762Y-86502438D02*
X93047619Y-86454819D01*
X93047619Y-86454819D02*
X93142857Y-86454819D01*
X93142857Y-86454819D02*
X93285714Y-86502438D01*
X93285714Y-86502438D02*
X93333333Y-86550057D01*
X93809524Y-87454819D02*
X94000000Y-87454819D01*
X94000000Y-87454819D02*
X94095238Y-87407200D01*
X94095238Y-87407200D02*
X94142857Y-87359580D01*
X94142857Y-87359580D02*
X94238095Y-87216723D01*
X94238095Y-87216723D02*
X94285714Y-87026247D01*
X94285714Y-87026247D02*
X94285714Y-86645295D01*
X94285714Y-86645295D02*
X94238095Y-86550057D01*
X94238095Y-86550057D02*
X94190476Y-86502438D01*
X94190476Y-86502438D02*
X94095238Y-86454819D01*
X94095238Y-86454819D02*
X93904762Y-86454819D01*
X93904762Y-86454819D02*
X93809524Y-86502438D01*
X93809524Y-86502438D02*
X93761905Y-86550057D01*
X93761905Y-86550057D02*
X93714286Y-86645295D01*
X93714286Y-86645295D02*
X93714286Y-86883390D01*
X93714286Y-86883390D02*
X93761905Y-86978628D01*
X93761905Y-86978628D02*
X93809524Y-87026247D01*
X93809524Y-87026247D02*
X93904762Y-87073866D01*
X93904762Y-87073866D02*
X94095238Y-87073866D01*
X94095238Y-87073866D02*
X94190476Y-87026247D01*
X94190476Y-87026247D02*
X94238095Y-86978628D01*
X94238095Y-86978628D02*
X94285714Y-86883390D01*
X135606607Y-48143573D02*
X136313714Y-47436467D01*
X136313714Y-47436467D02*
X136482073Y-47604825D01*
X136482073Y-47604825D02*
X136549416Y-47739512D01*
X136549416Y-47739512D02*
X136549416Y-47874199D01*
X136549416Y-47874199D02*
X136515744Y-47975215D01*
X136515744Y-47975215D02*
X136414729Y-48143573D01*
X136414729Y-48143573D02*
X136313714Y-48244589D01*
X136313714Y-48244589D02*
X136145355Y-48345604D01*
X136145355Y-48345604D02*
X136044340Y-48379276D01*
X136044340Y-48379276D02*
X135909653Y-48379276D01*
X135909653Y-48379276D02*
X135774966Y-48311932D01*
X135774966Y-48311932D02*
X135606607Y-48143573D01*
X136919805Y-48177245D02*
X136987149Y-48177245D01*
X136987149Y-48177245D02*
X137088164Y-48210917D01*
X137088164Y-48210917D02*
X137256523Y-48379276D01*
X137256523Y-48379276D02*
X137290195Y-48480291D01*
X137290195Y-48480291D02*
X137290195Y-48547634D01*
X137290195Y-48547634D02*
X137256523Y-48648650D01*
X137256523Y-48648650D02*
X137189179Y-48715993D01*
X137189179Y-48715993D02*
X137054492Y-48783337D01*
X137054492Y-48783337D02*
X136246370Y-48783337D01*
X136246370Y-48783337D02*
X136684103Y-49221069D01*
X62657900Y-121180148D02*
X63365007Y-120473042D01*
X63365007Y-120473042D02*
X63533366Y-120641400D01*
X63533366Y-120641400D02*
X63600709Y-120776087D01*
X63600709Y-120776087D02*
X63600709Y-120910774D01*
X63600709Y-120910774D02*
X63567037Y-121011790D01*
X63567037Y-121011790D02*
X63466022Y-121180148D01*
X63466022Y-121180148D02*
X63365007Y-121281164D01*
X63365007Y-121281164D02*
X63196648Y-121382179D01*
X63196648Y-121382179D02*
X63095633Y-121415851D01*
X63095633Y-121415851D02*
X62960946Y-121415851D01*
X62960946Y-121415851D02*
X62826259Y-121348507D01*
X62826259Y-121348507D02*
X62657900Y-121180148D01*
X64139457Y-121718896D02*
X63668053Y-122190301D01*
X64240472Y-121281164D02*
X63567037Y-121617881D01*
X63567037Y-121617881D02*
X64004770Y-122055614D01*
X72882194Y-117783006D02*
X72882194Y-117850350D01*
X72882194Y-117850350D02*
X72814850Y-117985037D01*
X72814850Y-117985037D02*
X72747507Y-118052380D01*
X72747507Y-118052380D02*
X72612820Y-118119724D01*
X72612820Y-118119724D02*
X72478133Y-118119724D01*
X72478133Y-118119724D02*
X72377118Y-118086052D01*
X72377118Y-118086052D02*
X72208759Y-117985037D01*
X72208759Y-117985037D02*
X72107744Y-117884022D01*
X72107744Y-117884022D02*
X72006728Y-117715663D01*
X72006728Y-117715663D02*
X71973057Y-117614648D01*
X71973057Y-117614648D02*
X71973057Y-117479961D01*
X71973057Y-117479961D02*
X72040400Y-117345274D01*
X72040400Y-117345274D02*
X72107744Y-117277930D01*
X72107744Y-117277930D02*
X72242431Y-117210587D01*
X72242431Y-117210587D02*
X72309774Y-117210587D01*
X72579148Y-116941213D02*
X72579148Y-116873869D01*
X72579148Y-116873869D02*
X72612820Y-116772854D01*
X72612820Y-116772854D02*
X72781179Y-116604495D01*
X72781179Y-116604495D02*
X72882194Y-116570823D01*
X72882194Y-116570823D02*
X72949537Y-116570823D01*
X72949537Y-116570823D02*
X73050553Y-116604495D01*
X73050553Y-116604495D02*
X73117896Y-116671839D01*
X73117896Y-116671839D02*
X73185240Y-116806526D01*
X73185240Y-116806526D02*
X73185240Y-117614648D01*
X73185240Y-117614648D02*
X73622972Y-117176915D01*
X73555629Y-115830045D02*
X73218911Y-116166762D01*
X73218911Y-116166762D02*
X73521957Y-116537151D01*
X73521957Y-116537151D02*
X73521957Y-116469808D01*
X73521957Y-116469808D02*
X73555629Y-116368793D01*
X73555629Y-116368793D02*
X73723988Y-116200434D01*
X73723988Y-116200434D02*
X73825003Y-116166762D01*
X73825003Y-116166762D02*
X73892347Y-116166762D01*
X73892347Y-116166762D02*
X73993362Y-116200434D01*
X73993362Y-116200434D02*
X74161721Y-116368793D01*
X74161721Y-116368793D02*
X74195392Y-116469808D01*
X74195392Y-116469808D02*
X74195392Y-116537151D01*
X74195392Y-116537151D02*
X74161721Y-116638167D01*
X74161721Y-116638167D02*
X73993362Y-116806525D01*
X73993362Y-116806525D02*
X73892347Y-116840197D01*
X73892347Y-116840197D02*
X73825003Y-116840197D01*
X81133333Y-64459580D02*
X81085714Y-64507200D01*
X81085714Y-64507200D02*
X80942857Y-64554819D01*
X80942857Y-64554819D02*
X80847619Y-64554819D01*
X80847619Y-64554819D02*
X80704762Y-64507200D01*
X80704762Y-64507200D02*
X80609524Y-64411961D01*
X80609524Y-64411961D02*
X80561905Y-64316723D01*
X80561905Y-64316723D02*
X80514286Y-64126247D01*
X80514286Y-64126247D02*
X80514286Y-63983390D01*
X80514286Y-63983390D02*
X80561905Y-63792914D01*
X80561905Y-63792914D02*
X80609524Y-63697676D01*
X80609524Y-63697676D02*
X80704762Y-63602438D01*
X80704762Y-63602438D02*
X80847619Y-63554819D01*
X80847619Y-63554819D02*
X80942857Y-63554819D01*
X80942857Y-63554819D02*
X81085714Y-63602438D01*
X81085714Y-63602438D02*
X81133333Y-63650057D01*
X81990476Y-63554819D02*
X81800000Y-63554819D01*
X81800000Y-63554819D02*
X81704762Y-63602438D01*
X81704762Y-63602438D02*
X81657143Y-63650057D01*
X81657143Y-63650057D02*
X81561905Y-63792914D01*
X81561905Y-63792914D02*
X81514286Y-63983390D01*
X81514286Y-63983390D02*
X81514286Y-64364342D01*
X81514286Y-64364342D02*
X81561905Y-64459580D01*
X81561905Y-64459580D02*
X81609524Y-64507200D01*
X81609524Y-64507200D02*
X81704762Y-64554819D01*
X81704762Y-64554819D02*
X81895238Y-64554819D01*
X81895238Y-64554819D02*
X81990476Y-64507200D01*
X81990476Y-64507200D02*
X82038095Y-64459580D01*
X82038095Y-64459580D02*
X82085714Y-64364342D01*
X82085714Y-64364342D02*
X82085714Y-64126247D01*
X82085714Y-64126247D02*
X82038095Y-64031009D01*
X82038095Y-64031009D02*
X81990476Y-63983390D01*
X81990476Y-63983390D02*
X81895238Y-63935771D01*
X81895238Y-63935771D02*
X81704762Y-63935771D01*
X81704762Y-63935771D02*
X81609524Y-63983390D01*
X81609524Y-63983390D02*
X81561905Y-64031009D01*
X81561905Y-64031009D02*
X81514286Y-64126247D01*
X103357142Y-88864819D02*
X103023809Y-88388628D01*
X102785714Y-88864819D02*
X102785714Y-87864819D01*
X102785714Y-87864819D02*
X103166666Y-87864819D01*
X103166666Y-87864819D02*
X103261904Y-87912438D01*
X103261904Y-87912438D02*
X103309523Y-87960057D01*
X103309523Y-87960057D02*
X103357142Y-88055295D01*
X103357142Y-88055295D02*
X103357142Y-88198152D01*
X103357142Y-88198152D02*
X103309523Y-88293390D01*
X103309523Y-88293390D02*
X103261904Y-88341009D01*
X103261904Y-88341009D02*
X103166666Y-88388628D01*
X103166666Y-88388628D02*
X102785714Y-88388628D01*
X104309523Y-88864819D02*
X103738095Y-88864819D01*
X104023809Y-88864819D02*
X104023809Y-87864819D01*
X104023809Y-87864819D02*
X103928571Y-88007676D01*
X103928571Y-88007676D02*
X103833333Y-88102914D01*
X103833333Y-88102914D02*
X103738095Y-88150533D01*
X104928571Y-87864819D02*
X105023809Y-87864819D01*
X105023809Y-87864819D02*
X105119047Y-87912438D01*
X105119047Y-87912438D02*
X105166666Y-87960057D01*
X105166666Y-87960057D02*
X105214285Y-88055295D01*
X105214285Y-88055295D02*
X105261904Y-88245771D01*
X105261904Y-88245771D02*
X105261904Y-88483866D01*
X105261904Y-88483866D02*
X105214285Y-88674342D01*
X105214285Y-88674342D02*
X105166666Y-88769580D01*
X105166666Y-88769580D02*
X105119047Y-88817200D01*
X105119047Y-88817200D02*
X105023809Y-88864819D01*
X105023809Y-88864819D02*
X104928571Y-88864819D01*
X104928571Y-88864819D02*
X104833333Y-88817200D01*
X104833333Y-88817200D02*
X104785714Y-88769580D01*
X104785714Y-88769580D02*
X104738095Y-88674342D01*
X104738095Y-88674342D02*
X104690476Y-88483866D01*
X104690476Y-88483866D02*
X104690476Y-88245771D01*
X104690476Y-88245771D02*
X104738095Y-88055295D01*
X104738095Y-88055295D02*
X104785714Y-87960057D01*
X104785714Y-87960057D02*
X104833333Y-87912438D01*
X104833333Y-87912438D02*
X104928571Y-87864819D01*
X75023825Y-57867036D02*
X75124840Y-57294617D01*
X74619764Y-57462975D02*
X75326871Y-56755869D01*
X75326871Y-56755869D02*
X75596245Y-57025243D01*
X75596245Y-57025243D02*
X75629917Y-57126258D01*
X75629917Y-57126258D02*
X75629917Y-57193601D01*
X75629917Y-57193601D02*
X75596245Y-57294617D01*
X75596245Y-57294617D02*
X75495230Y-57395632D01*
X75495230Y-57395632D02*
X75394214Y-57429304D01*
X75394214Y-57429304D02*
X75326871Y-57429304D01*
X75326871Y-57429304D02*
X75225856Y-57395632D01*
X75225856Y-57395632D02*
X74956482Y-57126258D01*
X75697260Y-58540471D02*
X75293199Y-58136410D01*
X75495230Y-58338441D02*
X76202336Y-57631334D01*
X76202336Y-57631334D02*
X76033978Y-57665006D01*
X76033978Y-57665006D02*
X75899291Y-57665006D01*
X75899291Y-57665006D02*
X75798275Y-57631334D01*
X76640069Y-58069067D02*
X77111474Y-58540472D01*
X77111474Y-58540472D02*
X76101321Y-58944533D01*
X117822142Y-67544580D02*
X117774523Y-67592200D01*
X117774523Y-67592200D02*
X117631666Y-67639819D01*
X117631666Y-67639819D02*
X117536428Y-67639819D01*
X117536428Y-67639819D02*
X117393571Y-67592200D01*
X117393571Y-67592200D02*
X117298333Y-67496961D01*
X117298333Y-67496961D02*
X117250714Y-67401723D01*
X117250714Y-67401723D02*
X117203095Y-67211247D01*
X117203095Y-67211247D02*
X117203095Y-67068390D01*
X117203095Y-67068390D02*
X117250714Y-66877914D01*
X117250714Y-66877914D02*
X117298333Y-66782676D01*
X117298333Y-66782676D02*
X117393571Y-66687438D01*
X117393571Y-66687438D02*
X117536428Y-66639819D01*
X117536428Y-66639819D02*
X117631666Y-66639819D01*
X117631666Y-66639819D02*
X117774523Y-66687438D01*
X117774523Y-66687438D02*
X117822142Y-66735057D01*
X118203095Y-66735057D02*
X118250714Y-66687438D01*
X118250714Y-66687438D02*
X118345952Y-66639819D01*
X118345952Y-66639819D02*
X118584047Y-66639819D01*
X118584047Y-66639819D02*
X118679285Y-66687438D01*
X118679285Y-66687438D02*
X118726904Y-66735057D01*
X118726904Y-66735057D02*
X118774523Y-66830295D01*
X118774523Y-66830295D02*
X118774523Y-66925533D01*
X118774523Y-66925533D02*
X118726904Y-67068390D01*
X118726904Y-67068390D02*
X118155476Y-67639819D01*
X118155476Y-67639819D02*
X118774523Y-67639819D01*
X119726904Y-67639819D02*
X119155476Y-67639819D01*
X119441190Y-67639819D02*
X119441190Y-66639819D01*
X119441190Y-66639819D02*
X119345952Y-66782676D01*
X119345952Y-66782676D02*
X119250714Y-66877914D01*
X119250714Y-66877914D02*
X119155476Y-66925533D01*
X108733333Y-107909819D02*
X108400000Y-107433628D01*
X108161905Y-107909819D02*
X108161905Y-106909819D01*
X108161905Y-106909819D02*
X108542857Y-106909819D01*
X108542857Y-106909819D02*
X108638095Y-106957438D01*
X108638095Y-106957438D02*
X108685714Y-107005057D01*
X108685714Y-107005057D02*
X108733333Y-107100295D01*
X108733333Y-107100295D02*
X108733333Y-107243152D01*
X108733333Y-107243152D02*
X108685714Y-107338390D01*
X108685714Y-107338390D02*
X108638095Y-107386009D01*
X108638095Y-107386009D02*
X108542857Y-107433628D01*
X108542857Y-107433628D02*
X108161905Y-107433628D01*
X109638095Y-106909819D02*
X109161905Y-106909819D01*
X109161905Y-106909819D02*
X109114286Y-107386009D01*
X109114286Y-107386009D02*
X109161905Y-107338390D01*
X109161905Y-107338390D02*
X109257143Y-107290771D01*
X109257143Y-107290771D02*
X109495238Y-107290771D01*
X109495238Y-107290771D02*
X109590476Y-107338390D01*
X109590476Y-107338390D02*
X109638095Y-107386009D01*
X109638095Y-107386009D02*
X109685714Y-107481247D01*
X109685714Y-107481247D02*
X109685714Y-107719342D01*
X109685714Y-107719342D02*
X109638095Y-107814580D01*
X109638095Y-107814580D02*
X109590476Y-107862200D01*
X109590476Y-107862200D02*
X109495238Y-107909819D01*
X109495238Y-107909819D02*
X109257143Y-107909819D01*
X109257143Y-107909819D02*
X109161905Y-107862200D01*
X109161905Y-107862200D02*
X109114286Y-107814580D01*
X84533333Y-62459580D02*
X84485714Y-62507200D01*
X84485714Y-62507200D02*
X84342857Y-62554819D01*
X84342857Y-62554819D02*
X84247619Y-62554819D01*
X84247619Y-62554819D02*
X84104762Y-62507200D01*
X84104762Y-62507200D02*
X84009524Y-62411961D01*
X84009524Y-62411961D02*
X83961905Y-62316723D01*
X83961905Y-62316723D02*
X83914286Y-62126247D01*
X83914286Y-62126247D02*
X83914286Y-61983390D01*
X83914286Y-61983390D02*
X83961905Y-61792914D01*
X83961905Y-61792914D02*
X84009524Y-61697676D01*
X84009524Y-61697676D02*
X84104762Y-61602438D01*
X84104762Y-61602438D02*
X84247619Y-61554819D01*
X84247619Y-61554819D02*
X84342857Y-61554819D01*
X84342857Y-61554819D02*
X84485714Y-61602438D01*
X84485714Y-61602438D02*
X84533333Y-61650057D01*
X85390476Y-61888152D02*
X85390476Y-62554819D01*
X85152381Y-61507200D02*
X84914286Y-62221485D01*
X84914286Y-62221485D02*
X85533333Y-62221485D01*
X131347667Y-111334869D02*
X131280323Y-111334869D01*
X131280323Y-111334869D02*
X131145636Y-111267525D01*
X131145636Y-111267525D02*
X131078293Y-111200182D01*
X131078293Y-111200182D02*
X131010949Y-111065495D01*
X131010949Y-111065495D02*
X131010949Y-110930808D01*
X131010949Y-110930808D02*
X131044621Y-110829793D01*
X131044621Y-110829793D02*
X131145636Y-110661434D01*
X131145636Y-110661434D02*
X131246651Y-110560419D01*
X131246651Y-110560419D02*
X131415010Y-110459403D01*
X131415010Y-110459403D02*
X131516025Y-110425732D01*
X131516025Y-110425732D02*
X131650712Y-110425732D01*
X131650712Y-110425732D02*
X131785399Y-110493075D01*
X131785399Y-110493075D02*
X131852743Y-110560419D01*
X131852743Y-110560419D02*
X131920086Y-110695106D01*
X131920086Y-110695106D02*
X131920086Y-110762449D01*
X132189460Y-111031823D02*
X132256804Y-111031823D01*
X132256804Y-111031823D02*
X132357819Y-111065495D01*
X132357819Y-111065495D02*
X132526178Y-111233854D01*
X132526178Y-111233854D02*
X132559850Y-111334869D01*
X132559850Y-111334869D02*
X132559850Y-111402212D01*
X132559850Y-111402212D02*
X132526178Y-111503228D01*
X132526178Y-111503228D02*
X132458834Y-111570571D01*
X132458834Y-111570571D02*
X132324147Y-111637915D01*
X132324147Y-111637915D02*
X131516025Y-111637915D01*
X131516025Y-111637915D02*
X131953758Y-112075647D01*
X132896567Y-111604243D02*
X133334300Y-112041976D01*
X133334300Y-112041976D02*
X132829224Y-112075648D01*
X132829224Y-112075648D02*
X132930239Y-112176663D01*
X132930239Y-112176663D02*
X132963911Y-112277678D01*
X132963911Y-112277678D02*
X132963911Y-112345022D01*
X132963911Y-112345022D02*
X132930239Y-112446037D01*
X132930239Y-112446037D02*
X132761880Y-112614396D01*
X132761880Y-112614396D02*
X132660865Y-112648067D01*
X132660865Y-112648067D02*
X132593522Y-112648067D01*
X132593522Y-112648067D02*
X132492506Y-112614396D01*
X132492506Y-112614396D02*
X132290476Y-112412365D01*
X132290476Y-112412365D02*
X132256804Y-112311350D01*
X132256804Y-112311350D02*
X132256804Y-112244006D01*
X122565232Y-114814003D02*
X122666247Y-114241584D01*
X122161171Y-114409942D02*
X122868278Y-113702836D01*
X122868278Y-113702836D02*
X123137652Y-113972210D01*
X123137652Y-113972210D02*
X123171324Y-114073225D01*
X123171324Y-114073225D02*
X123171324Y-114140568D01*
X123171324Y-114140568D02*
X123137652Y-114241584D01*
X123137652Y-114241584D02*
X123036637Y-114342599D01*
X123036637Y-114342599D02*
X122935621Y-114376271D01*
X122935621Y-114376271D02*
X122868278Y-114376271D01*
X122868278Y-114376271D02*
X122767263Y-114342599D01*
X122767263Y-114342599D02*
X122497889Y-114073225D01*
X123238667Y-115487438D02*
X122834606Y-115083377D01*
X123036637Y-115285408D02*
X123743743Y-114578301D01*
X123743743Y-114578301D02*
X123575385Y-114611973D01*
X123575385Y-114611973D02*
X123440698Y-114611973D01*
X123440698Y-114611973D02*
X123339682Y-114578301D01*
X124585537Y-115420095D02*
X124248820Y-115083377D01*
X124248820Y-115083377D02*
X123878431Y-115386423D01*
X123878431Y-115386423D02*
X123945774Y-115386423D01*
X123945774Y-115386423D02*
X124046789Y-115420095D01*
X124046789Y-115420095D02*
X124215148Y-115588454D01*
X124215148Y-115588454D02*
X124248820Y-115689469D01*
X124248820Y-115689469D02*
X124248820Y-115756813D01*
X124248820Y-115756813D02*
X124215148Y-115857828D01*
X124215148Y-115857828D02*
X124046789Y-116026187D01*
X124046789Y-116026187D02*
X123945774Y-116059858D01*
X123945774Y-116059858D02*
X123878431Y-116059858D01*
X123878431Y-116059858D02*
X123777415Y-116026187D01*
X123777415Y-116026187D02*
X123609057Y-115857828D01*
X123609057Y-115857828D02*
X123575385Y-115756813D01*
X123575385Y-115756813D02*
X123575385Y-115689469D01*
X121142857Y-79631009D02*
X121285714Y-79678628D01*
X121285714Y-79678628D02*
X121333333Y-79726247D01*
X121333333Y-79726247D02*
X121380952Y-79821485D01*
X121380952Y-79821485D02*
X121380952Y-79964342D01*
X121380952Y-79964342D02*
X121333333Y-80059580D01*
X121333333Y-80059580D02*
X121285714Y-80107200D01*
X121285714Y-80107200D02*
X121190476Y-80154819D01*
X121190476Y-80154819D02*
X120809524Y-80154819D01*
X120809524Y-80154819D02*
X120809524Y-79154819D01*
X120809524Y-79154819D02*
X121142857Y-79154819D01*
X121142857Y-79154819D02*
X121238095Y-79202438D01*
X121238095Y-79202438D02*
X121285714Y-79250057D01*
X121285714Y-79250057D02*
X121333333Y-79345295D01*
X121333333Y-79345295D02*
X121333333Y-79440533D01*
X121333333Y-79440533D02*
X121285714Y-79535771D01*
X121285714Y-79535771D02*
X121238095Y-79583390D01*
X121238095Y-79583390D02*
X121142857Y-79631009D01*
X121142857Y-79631009D02*
X120809524Y-79631009D01*
X122000000Y-79154819D02*
X122190476Y-79154819D01*
X122190476Y-79154819D02*
X122285714Y-79202438D01*
X122285714Y-79202438D02*
X122380952Y-79297676D01*
X122380952Y-79297676D02*
X122428571Y-79488152D01*
X122428571Y-79488152D02*
X122428571Y-79821485D01*
X122428571Y-79821485D02*
X122380952Y-80011961D01*
X122380952Y-80011961D02*
X122285714Y-80107200D01*
X122285714Y-80107200D02*
X122190476Y-80154819D01*
X122190476Y-80154819D02*
X122000000Y-80154819D01*
X122000000Y-80154819D02*
X121904762Y-80107200D01*
X121904762Y-80107200D02*
X121809524Y-80011961D01*
X121809524Y-80011961D02*
X121761905Y-79821485D01*
X121761905Y-79821485D02*
X121761905Y-79488152D01*
X121761905Y-79488152D02*
X121809524Y-79297676D01*
X121809524Y-79297676D02*
X121904762Y-79202438D01*
X121904762Y-79202438D02*
X122000000Y-79154819D01*
X123047619Y-79154819D02*
X123238095Y-79154819D01*
X123238095Y-79154819D02*
X123333333Y-79202438D01*
X123333333Y-79202438D02*
X123428571Y-79297676D01*
X123428571Y-79297676D02*
X123476190Y-79488152D01*
X123476190Y-79488152D02*
X123476190Y-79821485D01*
X123476190Y-79821485D02*
X123428571Y-80011961D01*
X123428571Y-80011961D02*
X123333333Y-80107200D01*
X123333333Y-80107200D02*
X123238095Y-80154819D01*
X123238095Y-80154819D02*
X123047619Y-80154819D01*
X123047619Y-80154819D02*
X122952381Y-80107200D01*
X122952381Y-80107200D02*
X122857143Y-80011961D01*
X122857143Y-80011961D02*
X122809524Y-79821485D01*
X122809524Y-79821485D02*
X122809524Y-79488152D01*
X122809524Y-79488152D02*
X122857143Y-79297676D01*
X122857143Y-79297676D02*
X122952381Y-79202438D01*
X122952381Y-79202438D02*
X123047619Y-79154819D01*
X123761905Y-79154819D02*
X124333333Y-79154819D01*
X124047619Y-80154819D02*
X124047619Y-79154819D01*
X104433333Y-95354819D02*
X104100000Y-94878628D01*
X103861905Y-95354819D02*
X103861905Y-94354819D01*
X103861905Y-94354819D02*
X104242857Y-94354819D01*
X104242857Y-94354819D02*
X104338095Y-94402438D01*
X104338095Y-94402438D02*
X104385714Y-94450057D01*
X104385714Y-94450057D02*
X104433333Y-94545295D01*
X104433333Y-94545295D02*
X104433333Y-94688152D01*
X104433333Y-94688152D02*
X104385714Y-94783390D01*
X104385714Y-94783390D02*
X104338095Y-94831009D01*
X104338095Y-94831009D02*
X104242857Y-94878628D01*
X104242857Y-94878628D02*
X103861905Y-94878628D01*
X105290476Y-94354819D02*
X105100000Y-94354819D01*
X105100000Y-94354819D02*
X105004762Y-94402438D01*
X105004762Y-94402438D02*
X104957143Y-94450057D01*
X104957143Y-94450057D02*
X104861905Y-94592914D01*
X104861905Y-94592914D02*
X104814286Y-94783390D01*
X104814286Y-94783390D02*
X104814286Y-95164342D01*
X104814286Y-95164342D02*
X104861905Y-95259580D01*
X104861905Y-95259580D02*
X104909524Y-95307200D01*
X104909524Y-95307200D02*
X105004762Y-95354819D01*
X105004762Y-95354819D02*
X105195238Y-95354819D01*
X105195238Y-95354819D02*
X105290476Y-95307200D01*
X105290476Y-95307200D02*
X105338095Y-95259580D01*
X105338095Y-95259580D02*
X105385714Y-95164342D01*
X105385714Y-95164342D02*
X105385714Y-94926247D01*
X105385714Y-94926247D02*
X105338095Y-94831009D01*
X105338095Y-94831009D02*
X105290476Y-94783390D01*
X105290476Y-94783390D02*
X105195238Y-94735771D01*
X105195238Y-94735771D02*
X105004762Y-94735771D01*
X105004762Y-94735771D02*
X104909524Y-94783390D01*
X104909524Y-94783390D02*
X104861905Y-94831009D01*
X104861905Y-94831009D02*
X104814286Y-94926247D01*
X84738095Y-72704819D02*
X84738095Y-73514342D01*
X84738095Y-73514342D02*
X84785714Y-73609580D01*
X84785714Y-73609580D02*
X84833333Y-73657200D01*
X84833333Y-73657200D02*
X84928571Y-73704819D01*
X84928571Y-73704819D02*
X85119047Y-73704819D01*
X85119047Y-73704819D02*
X85214285Y-73657200D01*
X85214285Y-73657200D02*
X85261904Y-73609580D01*
X85261904Y-73609580D02*
X85309523Y-73514342D01*
X85309523Y-73514342D02*
X85309523Y-72704819D01*
X85738095Y-72800057D02*
X85785714Y-72752438D01*
X85785714Y-72752438D02*
X85880952Y-72704819D01*
X85880952Y-72704819D02*
X86119047Y-72704819D01*
X86119047Y-72704819D02*
X86214285Y-72752438D01*
X86214285Y-72752438D02*
X86261904Y-72800057D01*
X86261904Y-72800057D02*
X86309523Y-72895295D01*
X86309523Y-72895295D02*
X86309523Y-72990533D01*
X86309523Y-72990533D02*
X86261904Y-73133390D01*
X86261904Y-73133390D02*
X85690476Y-73704819D01*
X85690476Y-73704819D02*
X86309523Y-73704819D01*
X88733333Y-70409580D02*
X88685714Y-70457200D01*
X88685714Y-70457200D02*
X88542857Y-70504819D01*
X88542857Y-70504819D02*
X88447619Y-70504819D01*
X88447619Y-70504819D02*
X88304762Y-70457200D01*
X88304762Y-70457200D02*
X88209524Y-70361961D01*
X88209524Y-70361961D02*
X88161905Y-70266723D01*
X88161905Y-70266723D02*
X88114286Y-70076247D01*
X88114286Y-70076247D02*
X88114286Y-69933390D01*
X88114286Y-69933390D02*
X88161905Y-69742914D01*
X88161905Y-69742914D02*
X88209524Y-69647676D01*
X88209524Y-69647676D02*
X88304762Y-69552438D01*
X88304762Y-69552438D02*
X88447619Y-69504819D01*
X88447619Y-69504819D02*
X88542857Y-69504819D01*
X88542857Y-69504819D02*
X88685714Y-69552438D01*
X88685714Y-69552438D02*
X88733333Y-69600057D01*
X89066667Y-69504819D02*
X89733333Y-69504819D01*
X89733333Y-69504819D02*
X89304762Y-70504819D01*
X91357142Y-96609580D02*
X91309523Y-96657200D01*
X91309523Y-96657200D02*
X91166666Y-96704819D01*
X91166666Y-96704819D02*
X91071428Y-96704819D01*
X91071428Y-96704819D02*
X90928571Y-96657200D01*
X90928571Y-96657200D02*
X90833333Y-96561961D01*
X90833333Y-96561961D02*
X90785714Y-96466723D01*
X90785714Y-96466723D02*
X90738095Y-96276247D01*
X90738095Y-96276247D02*
X90738095Y-96133390D01*
X90738095Y-96133390D02*
X90785714Y-95942914D01*
X90785714Y-95942914D02*
X90833333Y-95847676D01*
X90833333Y-95847676D02*
X90928571Y-95752438D01*
X90928571Y-95752438D02*
X91071428Y-95704819D01*
X91071428Y-95704819D02*
X91166666Y-95704819D01*
X91166666Y-95704819D02*
X91309523Y-95752438D01*
X91309523Y-95752438D02*
X91357142Y-95800057D01*
X92309523Y-96704819D02*
X91738095Y-96704819D01*
X92023809Y-96704819D02*
X92023809Y-95704819D01*
X92023809Y-95704819D02*
X91928571Y-95847676D01*
X91928571Y-95847676D02*
X91833333Y-95942914D01*
X91833333Y-95942914D02*
X91738095Y-95990533D01*
X93166666Y-96038152D02*
X93166666Y-96704819D01*
X92928571Y-95657200D02*
X92690476Y-96371485D01*
X92690476Y-96371485D02*
X93309523Y-96371485D01*
X88583333Y-68704819D02*
X88250000Y-68228628D01*
X88011905Y-68704819D02*
X88011905Y-67704819D01*
X88011905Y-67704819D02*
X88392857Y-67704819D01*
X88392857Y-67704819D02*
X88488095Y-67752438D01*
X88488095Y-67752438D02*
X88535714Y-67800057D01*
X88535714Y-67800057D02*
X88583333Y-67895295D01*
X88583333Y-67895295D02*
X88583333Y-68038152D01*
X88583333Y-68038152D02*
X88535714Y-68133390D01*
X88535714Y-68133390D02*
X88488095Y-68181009D01*
X88488095Y-68181009D02*
X88392857Y-68228628D01*
X88392857Y-68228628D02*
X88011905Y-68228628D01*
X88916667Y-67704819D02*
X89535714Y-67704819D01*
X89535714Y-67704819D02*
X89202381Y-68085771D01*
X89202381Y-68085771D02*
X89345238Y-68085771D01*
X89345238Y-68085771D02*
X89440476Y-68133390D01*
X89440476Y-68133390D02*
X89488095Y-68181009D01*
X89488095Y-68181009D02*
X89535714Y-68276247D01*
X89535714Y-68276247D02*
X89535714Y-68514342D01*
X89535714Y-68514342D02*
X89488095Y-68609580D01*
X89488095Y-68609580D02*
X89440476Y-68657200D01*
X89440476Y-68657200D02*
X89345238Y-68704819D01*
X89345238Y-68704819D02*
X89059524Y-68704819D01*
X89059524Y-68704819D02*
X88964286Y-68657200D01*
X88964286Y-68657200D02*
X88916667Y-68609580D01*
X84144642Y-84359580D02*
X84097023Y-84407200D01*
X84097023Y-84407200D02*
X83954166Y-84454819D01*
X83954166Y-84454819D02*
X83858928Y-84454819D01*
X83858928Y-84454819D02*
X83716071Y-84407200D01*
X83716071Y-84407200D02*
X83620833Y-84311961D01*
X83620833Y-84311961D02*
X83573214Y-84216723D01*
X83573214Y-84216723D02*
X83525595Y-84026247D01*
X83525595Y-84026247D02*
X83525595Y-83883390D01*
X83525595Y-83883390D02*
X83573214Y-83692914D01*
X83573214Y-83692914D02*
X83620833Y-83597676D01*
X83620833Y-83597676D02*
X83716071Y-83502438D01*
X83716071Y-83502438D02*
X83858928Y-83454819D01*
X83858928Y-83454819D02*
X83954166Y-83454819D01*
X83954166Y-83454819D02*
X84097023Y-83502438D01*
X84097023Y-83502438D02*
X84144642Y-83550057D01*
X85097023Y-84454819D02*
X84525595Y-84454819D01*
X84811309Y-84454819D02*
X84811309Y-83454819D01*
X84811309Y-83454819D02*
X84716071Y-83597676D01*
X84716071Y-83597676D02*
X84620833Y-83692914D01*
X84620833Y-83692914D02*
X84525595Y-83740533D01*
X86049404Y-84454819D02*
X85477976Y-84454819D01*
X85763690Y-84454819D02*
X85763690Y-83454819D01*
X85763690Y-83454819D02*
X85668452Y-83597676D01*
X85668452Y-83597676D02*
X85573214Y-83692914D01*
X85573214Y-83692914D02*
X85477976Y-83740533D01*
X104333333Y-90254819D02*
X104000000Y-89778628D01*
X103761905Y-90254819D02*
X103761905Y-89254819D01*
X103761905Y-89254819D02*
X104142857Y-89254819D01*
X104142857Y-89254819D02*
X104238095Y-89302438D01*
X104238095Y-89302438D02*
X104285714Y-89350057D01*
X104285714Y-89350057D02*
X104333333Y-89445295D01*
X104333333Y-89445295D02*
X104333333Y-89588152D01*
X104333333Y-89588152D02*
X104285714Y-89683390D01*
X104285714Y-89683390D02*
X104238095Y-89731009D01*
X104238095Y-89731009D02*
X104142857Y-89778628D01*
X104142857Y-89778628D02*
X103761905Y-89778628D01*
X104809524Y-90254819D02*
X105000000Y-90254819D01*
X105000000Y-90254819D02*
X105095238Y-90207200D01*
X105095238Y-90207200D02*
X105142857Y-90159580D01*
X105142857Y-90159580D02*
X105238095Y-90016723D01*
X105238095Y-90016723D02*
X105285714Y-89826247D01*
X105285714Y-89826247D02*
X105285714Y-89445295D01*
X105285714Y-89445295D02*
X105238095Y-89350057D01*
X105238095Y-89350057D02*
X105190476Y-89302438D01*
X105190476Y-89302438D02*
X105095238Y-89254819D01*
X105095238Y-89254819D02*
X104904762Y-89254819D01*
X104904762Y-89254819D02*
X104809524Y-89302438D01*
X104809524Y-89302438D02*
X104761905Y-89350057D01*
X104761905Y-89350057D02*
X104714286Y-89445295D01*
X104714286Y-89445295D02*
X104714286Y-89683390D01*
X104714286Y-89683390D02*
X104761905Y-89778628D01*
X104761905Y-89778628D02*
X104809524Y-89826247D01*
X104809524Y-89826247D02*
X104904762Y-89873866D01*
X104904762Y-89873866D02*
X105095238Y-89873866D01*
X105095238Y-89873866D02*
X105190476Y-89826247D01*
X105190476Y-89826247D02*
X105238095Y-89778628D01*
X105238095Y-89778628D02*
X105285714Y-89683390D01*
X123599693Y-56608830D02*
X123599693Y-56676174D01*
X123599693Y-56676174D02*
X123532349Y-56810861D01*
X123532349Y-56810861D02*
X123465006Y-56878204D01*
X123465006Y-56878204D02*
X123330319Y-56945548D01*
X123330319Y-56945548D02*
X123195632Y-56945548D01*
X123195632Y-56945548D02*
X123094617Y-56911876D01*
X123094617Y-56911876D02*
X122926258Y-56810861D01*
X122926258Y-56810861D02*
X122825243Y-56709846D01*
X122825243Y-56709846D02*
X122724227Y-56541487D01*
X122724227Y-56541487D02*
X122690556Y-56440472D01*
X122690556Y-56440472D02*
X122690556Y-56305785D01*
X122690556Y-56305785D02*
X122757899Y-56171098D01*
X122757899Y-56171098D02*
X122825243Y-56103754D01*
X122825243Y-56103754D02*
X122959930Y-56036411D01*
X122959930Y-56036411D02*
X123027273Y-56036411D01*
X124340471Y-56002739D02*
X123936410Y-56406800D01*
X124138441Y-56204769D02*
X123431334Y-55497663D01*
X123431334Y-55497663D02*
X123465006Y-55666021D01*
X123465006Y-55666021D02*
X123465006Y-55800708D01*
X123465006Y-55800708D02*
X123431334Y-55901724D01*
X123869067Y-55059930D02*
X124340472Y-54588525D01*
X124340472Y-54588525D02*
X124744533Y-55598678D01*
X126043707Y-119071604D02*
X126010035Y-118970589D01*
X126010035Y-118970589D02*
X126010035Y-118835902D01*
X126010035Y-118835902D02*
X126010035Y-118633871D01*
X126010035Y-118633871D02*
X125976363Y-118532856D01*
X125976363Y-118532856D02*
X125909020Y-118465513D01*
X125774333Y-118667543D02*
X125740661Y-118566528D01*
X125740661Y-118566528D02*
X125740661Y-118431841D01*
X125740661Y-118431841D02*
X125841676Y-118263482D01*
X125841676Y-118263482D02*
X126077379Y-118027780D01*
X126077379Y-118027780D02*
X126245737Y-117926765D01*
X126245737Y-117926765D02*
X126380424Y-117926765D01*
X126380424Y-117926765D02*
X126481440Y-117960436D01*
X126481440Y-117960436D02*
X126616127Y-118095123D01*
X126616127Y-118095123D02*
X126649798Y-118196139D01*
X126649798Y-118196139D02*
X126649798Y-118330826D01*
X126649798Y-118330826D02*
X126548783Y-118499184D01*
X126548783Y-118499184D02*
X126313081Y-118734887D01*
X126313081Y-118734887D02*
X126144722Y-118835902D01*
X126144722Y-118835902D02*
X126010035Y-118835902D01*
X126010035Y-118835902D02*
X125909020Y-118802230D01*
X125909020Y-118802230D02*
X125774333Y-118667543D01*
X126986516Y-118600200D02*
X127053859Y-118600200D01*
X127053859Y-118600200D02*
X127154875Y-118633871D01*
X127154875Y-118633871D02*
X127323233Y-118802230D01*
X127323233Y-118802230D02*
X127356905Y-118903245D01*
X127356905Y-118903245D02*
X127356905Y-118970589D01*
X127356905Y-118970589D02*
X127323233Y-119071604D01*
X127323233Y-119071604D02*
X127255890Y-119138948D01*
X127255890Y-119138948D02*
X127121203Y-119206291D01*
X127121203Y-119206291D02*
X126313081Y-119206291D01*
X126313081Y-119206291D02*
X126750814Y-119644024D01*
X113107142Y-61954819D02*
X112773809Y-61478628D01*
X112535714Y-61954819D02*
X112535714Y-60954819D01*
X112535714Y-60954819D02*
X112916666Y-60954819D01*
X112916666Y-60954819D02*
X113011904Y-61002438D01*
X113011904Y-61002438D02*
X113059523Y-61050057D01*
X113059523Y-61050057D02*
X113107142Y-61145295D01*
X113107142Y-61145295D02*
X113107142Y-61288152D01*
X113107142Y-61288152D02*
X113059523Y-61383390D01*
X113059523Y-61383390D02*
X113011904Y-61431009D01*
X113011904Y-61431009D02*
X112916666Y-61478628D01*
X112916666Y-61478628D02*
X112535714Y-61478628D01*
X114059523Y-61954819D02*
X113488095Y-61954819D01*
X113773809Y-61954819D02*
X113773809Y-60954819D01*
X113773809Y-60954819D02*
X113678571Y-61097676D01*
X113678571Y-61097676D02*
X113583333Y-61192914D01*
X113583333Y-61192914D02*
X113488095Y-61240533D01*
X114630952Y-61383390D02*
X114535714Y-61335771D01*
X114535714Y-61335771D02*
X114488095Y-61288152D01*
X114488095Y-61288152D02*
X114440476Y-61192914D01*
X114440476Y-61192914D02*
X114440476Y-61145295D01*
X114440476Y-61145295D02*
X114488095Y-61050057D01*
X114488095Y-61050057D02*
X114535714Y-61002438D01*
X114535714Y-61002438D02*
X114630952Y-60954819D01*
X114630952Y-60954819D02*
X114821428Y-60954819D01*
X114821428Y-60954819D02*
X114916666Y-61002438D01*
X114916666Y-61002438D02*
X114964285Y-61050057D01*
X114964285Y-61050057D02*
X115011904Y-61145295D01*
X115011904Y-61145295D02*
X115011904Y-61192914D01*
X115011904Y-61192914D02*
X114964285Y-61288152D01*
X114964285Y-61288152D02*
X114916666Y-61335771D01*
X114916666Y-61335771D02*
X114821428Y-61383390D01*
X114821428Y-61383390D02*
X114630952Y-61383390D01*
X114630952Y-61383390D02*
X114535714Y-61431009D01*
X114535714Y-61431009D02*
X114488095Y-61478628D01*
X114488095Y-61478628D02*
X114440476Y-61573866D01*
X114440476Y-61573866D02*
X114440476Y-61764342D01*
X114440476Y-61764342D02*
X114488095Y-61859580D01*
X114488095Y-61859580D02*
X114535714Y-61907200D01*
X114535714Y-61907200D02*
X114630952Y-61954819D01*
X114630952Y-61954819D02*
X114821428Y-61954819D01*
X114821428Y-61954819D02*
X114916666Y-61907200D01*
X114916666Y-61907200D02*
X114964285Y-61859580D01*
X114964285Y-61859580D02*
X115011904Y-61764342D01*
X115011904Y-61764342D02*
X115011904Y-61573866D01*
X115011904Y-61573866D02*
X114964285Y-61478628D01*
X114964285Y-61478628D02*
X114916666Y-61431009D01*
X114916666Y-61431009D02*
X114821428Y-61383390D01*
X114275595Y-67354819D02*
X114275595Y-68164342D01*
X114275595Y-68164342D02*
X114323214Y-68259580D01*
X114323214Y-68259580D02*
X114370833Y-68307200D01*
X114370833Y-68307200D02*
X114466071Y-68354819D01*
X114466071Y-68354819D02*
X114656547Y-68354819D01*
X114656547Y-68354819D02*
X114751785Y-68307200D01*
X114751785Y-68307200D02*
X114799404Y-68259580D01*
X114799404Y-68259580D02*
X114847023Y-68164342D01*
X114847023Y-68164342D02*
X114847023Y-67354819D01*
X115799404Y-67354819D02*
X115323214Y-67354819D01*
X115323214Y-67354819D02*
X115275595Y-67831009D01*
X115275595Y-67831009D02*
X115323214Y-67783390D01*
X115323214Y-67783390D02*
X115418452Y-67735771D01*
X115418452Y-67735771D02*
X115656547Y-67735771D01*
X115656547Y-67735771D02*
X115751785Y-67783390D01*
X115751785Y-67783390D02*
X115799404Y-67831009D01*
X115799404Y-67831009D02*
X115847023Y-67926247D01*
X115847023Y-67926247D02*
X115847023Y-68164342D01*
X115847023Y-68164342D02*
X115799404Y-68259580D01*
X115799404Y-68259580D02*
X115751785Y-68307200D01*
X115751785Y-68307200D02*
X115656547Y-68354819D01*
X115656547Y-68354819D02*
X115418452Y-68354819D01*
X115418452Y-68354819D02*
X115323214Y-68307200D01*
X115323214Y-68307200D02*
X115275595Y-68259580D01*
X104333333Y-92284819D02*
X104000000Y-91808628D01*
X103761905Y-92284819D02*
X103761905Y-91284819D01*
X103761905Y-91284819D02*
X104142857Y-91284819D01*
X104142857Y-91284819D02*
X104238095Y-91332438D01*
X104238095Y-91332438D02*
X104285714Y-91380057D01*
X104285714Y-91380057D02*
X104333333Y-91475295D01*
X104333333Y-91475295D02*
X104333333Y-91618152D01*
X104333333Y-91618152D02*
X104285714Y-91713390D01*
X104285714Y-91713390D02*
X104238095Y-91761009D01*
X104238095Y-91761009D02*
X104142857Y-91808628D01*
X104142857Y-91808628D02*
X103761905Y-91808628D01*
X104904762Y-91713390D02*
X104809524Y-91665771D01*
X104809524Y-91665771D02*
X104761905Y-91618152D01*
X104761905Y-91618152D02*
X104714286Y-91522914D01*
X104714286Y-91522914D02*
X104714286Y-91475295D01*
X104714286Y-91475295D02*
X104761905Y-91380057D01*
X104761905Y-91380057D02*
X104809524Y-91332438D01*
X104809524Y-91332438D02*
X104904762Y-91284819D01*
X104904762Y-91284819D02*
X105095238Y-91284819D01*
X105095238Y-91284819D02*
X105190476Y-91332438D01*
X105190476Y-91332438D02*
X105238095Y-91380057D01*
X105238095Y-91380057D02*
X105285714Y-91475295D01*
X105285714Y-91475295D02*
X105285714Y-91522914D01*
X105285714Y-91522914D02*
X105238095Y-91618152D01*
X105238095Y-91618152D02*
X105190476Y-91665771D01*
X105190476Y-91665771D02*
X105095238Y-91713390D01*
X105095238Y-91713390D02*
X104904762Y-91713390D01*
X104904762Y-91713390D02*
X104809524Y-91761009D01*
X104809524Y-91761009D02*
X104761905Y-91808628D01*
X104761905Y-91808628D02*
X104714286Y-91903866D01*
X104714286Y-91903866D02*
X104714286Y-92094342D01*
X104714286Y-92094342D02*
X104761905Y-92189580D01*
X104761905Y-92189580D02*
X104809524Y-92237200D01*
X104809524Y-92237200D02*
X104904762Y-92284819D01*
X104904762Y-92284819D02*
X105095238Y-92284819D01*
X105095238Y-92284819D02*
X105190476Y-92237200D01*
X105190476Y-92237200D02*
X105238095Y-92189580D01*
X105238095Y-92189580D02*
X105285714Y-92094342D01*
X105285714Y-92094342D02*
X105285714Y-91903866D01*
X105285714Y-91903866D02*
X105238095Y-91808628D01*
X105238095Y-91808628D02*
X105190476Y-91761009D01*
X105190476Y-91761009D02*
X105095238Y-91713390D01*
X127291169Y-108299693D02*
X127223825Y-108299693D01*
X127223825Y-108299693D02*
X127089138Y-108232349D01*
X127089138Y-108232349D02*
X127021795Y-108165006D01*
X127021795Y-108165006D02*
X126954451Y-108030319D01*
X126954451Y-108030319D02*
X126954451Y-107895632D01*
X126954451Y-107895632D02*
X126988123Y-107794617D01*
X126988123Y-107794617D02*
X127089138Y-107626258D01*
X127089138Y-107626258D02*
X127190153Y-107525243D01*
X127190153Y-107525243D02*
X127358512Y-107424227D01*
X127358512Y-107424227D02*
X127459527Y-107390556D01*
X127459527Y-107390556D02*
X127594214Y-107390556D01*
X127594214Y-107390556D02*
X127728901Y-107457899D01*
X127728901Y-107457899D02*
X127796245Y-107525243D01*
X127796245Y-107525243D02*
X127863588Y-107659930D01*
X127863588Y-107659930D02*
X127863588Y-107727273D01*
X128132962Y-107996647D02*
X128200306Y-107996647D01*
X128200306Y-107996647D02*
X128301321Y-108030319D01*
X128301321Y-108030319D02*
X128469680Y-108198678D01*
X128469680Y-108198678D02*
X128503352Y-108299693D01*
X128503352Y-108299693D02*
X128503352Y-108367036D01*
X128503352Y-108367036D02*
X128469680Y-108468052D01*
X128469680Y-108468052D02*
X128402336Y-108535395D01*
X128402336Y-108535395D02*
X128267649Y-108602739D01*
X128267649Y-108602739D02*
X127459527Y-108602739D01*
X127459527Y-108602739D02*
X127897260Y-109040471D01*
X128974756Y-109175159D02*
X128503352Y-109646563D01*
X129075772Y-108737426D02*
X128402337Y-109074143D01*
X128402337Y-109074143D02*
X128840069Y-109511876D01*
D13*
%TO.C,C29*%
X83063748Y-105340000D02*
X84486252Y-105340000D01*
X83063748Y-107160000D02*
X84486252Y-107160000D01*
%TO.C,R13*%
X108377500Y-102267258D02*
X108377500Y-101792742D01*
X109422500Y-102267258D02*
X109422500Y-101792742D01*
%TO.C,R4*%
X118652500Y-74837258D02*
X118652500Y-74362742D01*
X119697500Y-74837258D02*
X119697500Y-74362742D01*
%TO.C,BAT+*%
X85300000Y-100550000D02*
X87700000Y-100550000D01*
X85300000Y-102950000D02*
X85300000Y-100550000D01*
X87700000Y-100550000D02*
X87700000Y-102950000D01*
X87700000Y-102950000D02*
X85300000Y-102950000D01*
%TO.C,Q4*%
X71074559Y-53093278D02*
X70614940Y-53552898D01*
X71074559Y-53093278D02*
X71534179Y-52633659D01*
X73280733Y-55299452D02*
X72821113Y-55759071D01*
X73280733Y-55299452D02*
X73740352Y-54839832D01*
X70287903Y-53950645D02*
X69884852Y-53887006D01*
X70224264Y-53547595D01*
X70287903Y-53950645D01*
G36*
X70287903Y-53950645D02*
G01*
X69884852Y-53887006D01*
X70224264Y-53547595D01*
X70287903Y-53950645D01*
G37*
%TO.C,C28*%
X70845633Y-59154066D02*
X71851495Y-60159928D01*
X72132567Y-57867132D02*
X73138429Y-58872994D01*
%TO.C,R2*%
X100287742Y-95277500D02*
X100762258Y-95277500D01*
X100287742Y-96322500D02*
X100762258Y-96322500D01*
%TO.C,C19*%
X133226128Y-117819170D02*
X133027317Y-118017981D01*
X133947377Y-118540419D02*
X133748566Y-118739230D01*
D14*
%TO.C,Card1*%
X109770000Y-86910000D02*
X109770000Y-83810000D01*
D15*
X111340000Y-97060000D02*
X118720000Y-97040000D01*
X118610000Y-82330000D02*
X111420000Y-82330000D01*
X121330000Y-97040000D02*
X123490000Y-97040000D01*
X123490000Y-89670000D02*
X124380000Y-86010000D01*
X123490000Y-97040000D02*
X123490000Y-89670000D01*
X124380000Y-82250000D02*
X121330000Y-82250000D01*
X124380000Y-86010000D02*
X124380000Y-82250000D01*
D13*
%TO.C,D8*%
X68640344Y-54777961D02*
X66759440Y-52897057D01*
X68640344Y-54777961D02*
X69842426Y-53575879D01*
X69842426Y-53575879D02*
X67961522Y-51694975D01*
%TO.C,R11*%
X106653641Y-86820000D02*
X106346359Y-86820000D01*
X106653641Y-87580000D02*
X106346359Y-87580000D01*
%TO.C,R1*%
X102877500Y-96717742D02*
X102877500Y-97192258D01*
X103922500Y-96717742D02*
X103922500Y-97192258D01*
D15*
%TO.C,BAT_PWR*%
X75690000Y-85720000D02*
X75690000Y-89280000D01*
X75690000Y-89280000D02*
X76190000Y-89280000D01*
X76190000Y-85720000D02*
X75690000Y-85720000D01*
X77310000Y-89280000D02*
X78690000Y-89280000D01*
X78690000Y-85720000D02*
X77310000Y-85720000D01*
X79810000Y-89280000D02*
X81190000Y-89280000D01*
X81190000Y-85720000D02*
X79810000Y-85720000D01*
X82310000Y-89280000D02*
X82810000Y-89280000D01*
X82810000Y-85720000D02*
X82310000Y-85720000D01*
X82810000Y-89280000D02*
X82810000Y-85720000D01*
D13*
%TO.C,C16*%
X84040000Y-90438748D02*
X84040000Y-90961252D01*
X85510000Y-90438748D02*
X85510000Y-90961252D01*
%TO.C,C10*%
X100465580Y-93290000D02*
X100184420Y-93290000D01*
X100465580Y-94310000D02*
X100184420Y-94310000D01*
%TO.C,D3*%
X135226830Y-118024642D02*
X133218647Y-120032825D01*
X136853175Y-119650987D02*
X134844992Y-121659170D01*
X136853175Y-119650987D02*
X136393556Y-119191368D01*
%TO.C,R7*%
X106653641Y-93620000D02*
X106346359Y-93620000D01*
X106653641Y-94380000D02*
X106346359Y-94380000D01*
%TO.C,BAT-*%
X80050000Y-100550000D02*
X82450000Y-100550000D01*
X80050000Y-102950000D02*
X80050000Y-100550000D01*
X82450000Y-100550000D02*
X82450000Y-102950000D01*
X82450000Y-102950000D02*
X80050000Y-102950000D01*
%TO.C,C8*%
X80561252Y-67765000D02*
X80038748Y-67765000D01*
X80561252Y-69235000D02*
X80038748Y-69235000D01*
D15*
%TO.C,USB1*%
X78120000Y-72300000D02*
X79720000Y-72300000D01*
X78120000Y-81370000D02*
X79720000Y-81370000D01*
D13*
%TO.C,C26*%
X72466433Y-112832420D02*
X73472295Y-111826558D01*
X73753367Y-114119354D02*
X74759229Y-113113492D01*
%TO.C,TP1*%
X128271922Y-51251464D02*
X129968978Y-49554408D01*
X129968978Y-49554408D02*
X131666034Y-51251464D01*
X129968978Y-52948520D02*
X128271922Y-51251464D01*
X131666034Y-51251464D02*
X129968978Y-52948520D01*
%TO.C,R16*%
X70953938Y-110876213D02*
X70618405Y-110540680D01*
X71692865Y-110137286D02*
X71357332Y-109801753D01*
%TO.C,D7*%
X68437401Y-114760517D02*
X66556497Y-116641421D01*
X69639483Y-115962599D02*
X67758579Y-117843503D01*
X69639483Y-115962599D02*
X68437401Y-114760517D01*
%TO.C,U3*%
X88112500Y-84490000D02*
X87312500Y-84490000D01*
X88112500Y-84490000D02*
X88912500Y-84490000D01*
X88112500Y-87610000D02*
X87312500Y-87610000D01*
X88112500Y-87610000D02*
X88912500Y-87610000D01*
X89652500Y-87890000D02*
X89172500Y-87890000D01*
X89412500Y-87560000D01*
X89652500Y-87890000D01*
G36*
X89652500Y-87890000D02*
G01*
X89172500Y-87890000D01*
X89412500Y-87560000D01*
X89652500Y-87890000D01*
G37*
%TO.C,U4*%
X88112500Y-88390000D02*
X87312500Y-88390000D01*
X88112500Y-88390000D02*
X88912500Y-88390000D01*
X88112500Y-91510000D02*
X87312500Y-91510000D01*
X88112500Y-91510000D02*
X88912500Y-91510000D01*
X89652500Y-91790000D02*
X89172500Y-91790000D01*
X89412500Y-91460000D01*
X89652500Y-91790000D01*
G36*
X89652500Y-91790000D02*
G01*
X89172500Y-91790000D01*
X89412500Y-91460000D01*
X89652500Y-91790000D01*
G37*
%TO.C,C13*%
X100384420Y-96890000D02*
X100665580Y-96890000D01*
X100384420Y-97910000D02*
X100665580Y-97910000D01*
%TO.C,C20*%
X132960142Y-51514843D02*
X133158953Y-51713654D01*
X133681391Y-50793594D02*
X133880202Y-50992405D01*
%TO.C,C5*%
X87589420Y-64485000D02*
X87870580Y-64485000D01*
X87589420Y-65505000D02*
X87870580Y-65505000D01*
%TO.C,C3*%
X88220000Y-62585580D02*
X88220000Y-62304420D01*
X89240000Y-62585580D02*
X89240000Y-62304420D01*
%TO.C,U1*%
X91000000Y-78540000D02*
X91000000Y-79290000D01*
X91000000Y-79290000D02*
X92000000Y-79290000D01*
X109000000Y-59730000D02*
X91000000Y-59730000D01*
X109000000Y-78540000D02*
X109000000Y-79290000D01*
X109000000Y-79290000D02*
X108000000Y-79290000D01*
%TO.C,C27*%
X69096839Y-56379147D02*
X68898028Y-56577958D01*
X69818088Y-57100396D02*
X69619277Y-57299207D01*
%TO.C,Q1*%
X129431577Y-58294248D02*
X128971958Y-57834628D01*
X129431577Y-58294248D02*
X129891197Y-58753867D01*
X131637751Y-56088074D02*
X131178131Y-55628455D01*
X131637751Y-56088074D02*
X132097370Y-56547694D01*
X131183434Y-55237779D02*
X130780384Y-55301418D01*
X130844023Y-54898367D01*
X131183434Y-55237779D01*
G36*
X131183434Y-55237779D02*
G01*
X130780384Y-55301418D01*
X130844023Y-54898367D01*
X131183434Y-55237779D01*
G37*
%TO.C,Q3*%
X68028454Y-113660618D02*
X67568835Y-113200998D01*
X68028454Y-113660618D02*
X68488074Y-114120237D01*
X70234628Y-111454444D02*
X69775008Y-110994825D01*
X70234628Y-111454444D02*
X70694247Y-111914064D01*
X68822182Y-114850325D02*
X68482771Y-114510913D01*
X68885821Y-114447274D01*
X68822182Y-114850325D01*
G36*
X68822182Y-114850325D02*
G01*
X68482771Y-114510913D01*
X68885821Y-114447274D01*
X68822182Y-114850325D01*
G37*
%TO.C,C2*%
X66217119Y-118877707D02*
X66018308Y-118678896D01*
X66938368Y-118156458D02*
X66739557Y-117957647D01*
%TO.C,R14*%
X111077500Y-64987742D02*
X111077500Y-65462258D01*
X112122500Y-64987742D02*
X112122500Y-65462258D01*
%TO.C,R12*%
X127991018Y-59558373D02*
X128326551Y-59893906D01*
X128729945Y-58819446D02*
X129065478Y-59154979D01*
%TO.C,C15*%
X111215000Y-105265580D02*
X111215000Y-104984420D01*
X112235000Y-105265580D02*
X112235000Y-104984420D01*
%TO.C,C12*%
X90765000Y-89688748D02*
X90765000Y-90211252D01*
X92235000Y-89688748D02*
X92235000Y-90211252D01*
D15*
%TO.C,FPC1*%
X90950000Y-101060000D02*
X92570000Y-101060000D01*
X90950000Y-103070000D02*
X90950000Y-101060000D01*
X90950000Y-106460000D02*
X90950000Y-105340000D01*
X106450000Y-101080000D02*
X104830000Y-101080000D01*
X106450000Y-103070000D02*
X106450000Y-101080000D01*
X106450000Y-106460000D02*
X90950000Y-106460000D01*
X106450000Y-106460000D02*
X106450000Y-105340000D01*
X105330000Y-100580000D02*
G75*
G02*
X105070000Y-100580000I-130000J0D01*
G01*
X105070000Y-100580000D02*
G75*
G02*
X105330000Y-100580000I130000J0D01*
G01*
D13*
%TO.C,D5*%
X62707656Y-50205232D02*
X63167275Y-50664851D01*
X62707656Y-50205232D02*
X64715839Y-48197049D01*
X64334001Y-51831577D02*
X66342184Y-49823394D01*
%TO.C,C18*%
X127745538Y-54557599D02*
X127546727Y-54358788D01*
X128466787Y-53836350D02*
X128267976Y-53637539D01*
%TO.C,C1*%
X65639970Y-51338781D02*
X65838781Y-51139970D01*
X66361219Y-52060030D02*
X66560030Y-51861219D01*
%TO.C,C9*%
X90765000Y-85938748D02*
X90765000Y-86461252D01*
X92235000Y-85938748D02*
X92235000Y-86461252D01*
%TO.C,TP3*%
X131702944Y-115000000D02*
X133400000Y-113302944D01*
X133400000Y-113302944D02*
X135097056Y-115000000D01*
X133400000Y-116697056D02*
X131702944Y-115000000D01*
X135097056Y-115000000D02*
X133400000Y-116697056D01*
%TO.C,TP7*%
X64567410Y-54735534D02*
X66264466Y-53038478D01*
X66264466Y-53038478D02*
X67961522Y-54735534D01*
X66264466Y-56432590D02*
X64567410Y-54735534D01*
X67961522Y-54735534D02*
X66264466Y-56432590D01*
%TO.C,D2*%
X133218647Y-49567175D02*
X135226830Y-51575358D01*
X134844992Y-47940830D02*
X134385373Y-48400449D01*
X134844992Y-47940830D02*
X136853175Y-49949013D01*
%TO.C,D4*%
X65106551Y-121783505D02*
X63098368Y-119775322D01*
X65106551Y-121783505D02*
X65566170Y-121323886D01*
X66732896Y-120157160D02*
X64724713Y-118148977D01*
%TO.C,C25*%
X71049158Y-115762082D02*
X71247969Y-115960893D01*
X71770407Y-115040833D02*
X71969218Y-115239644D01*
%TO.C,TP4*%
X128167410Y-118535534D02*
X129864466Y-116838478D01*
X129864466Y-116838478D02*
X131561522Y-118535534D01*
X129864466Y-120232590D02*
X128167410Y-118535534D01*
X131561522Y-118535534D02*
X129864466Y-120232590D01*
%TO.C,C6*%
X82986252Y-65090000D02*
X81563748Y-65090000D01*
X82986252Y-66910000D02*
X81563748Y-66910000D01*
%TO.C,R10*%
X106653641Y-88020000D02*
X106346359Y-88020000D01*
X106653641Y-88780000D02*
X106346359Y-88780000D01*
%TO.C,R17*%
X73735220Y-56177860D02*
X74070753Y-55842327D01*
X74474147Y-56916787D02*
X74809680Y-56581254D01*
%TO.C,C21*%
X117755000Y-64794420D02*
X117755000Y-65075580D01*
X118775000Y-64794420D02*
X118775000Y-65075580D01*
%TO.C,R5*%
X108377500Y-104942742D02*
X108377500Y-105417258D01*
X109422500Y-104942742D02*
X109422500Y-105417258D01*
%TO.C,C4*%
X85995000Y-62531252D02*
X85995000Y-62008748D01*
X87465000Y-62531252D02*
X87465000Y-62008748D01*
%TO.C,C23*%
X130023155Y-112847270D02*
X130221966Y-112648459D01*
X130744404Y-113568519D02*
X130943215Y-113369708D01*
%TO.C,R15*%
X125101931Y-112977846D02*
X124766398Y-113313379D01*
X125840858Y-113716773D02*
X125505325Y-114052306D01*
%TO.C,BOOT*%
X121405000Y-73000000D02*
X121405000Y-72800000D01*
X121405000Y-76000000D02*
X121405000Y-74300000D01*
X122455000Y-77850000D02*
X123245000Y-77850000D01*
X123245000Y-70950000D02*
X122455000Y-70950000D01*
X124255000Y-75800000D02*
X125545000Y-75800000D01*
X124255000Y-77250000D02*
X124255000Y-71550000D01*
X125545000Y-74500000D02*
X124255000Y-74500000D01*
X125545000Y-74500000D02*
X125755000Y-74700000D01*
X125545000Y-75800000D02*
X125755000Y-75600000D01*
X125755000Y-75600000D02*
X125755000Y-74700000D01*
%TO.C,R6*%
X106653641Y-94820000D02*
X106346359Y-94820000D01*
X106653641Y-95580000D02*
X106346359Y-95580000D01*
%TO.C,U2*%
X83490000Y-70137500D02*
X83490000Y-69337500D01*
X83490000Y-70137500D02*
X83490000Y-70937500D01*
X86610000Y-70137500D02*
X86610000Y-69337500D01*
X86610000Y-70137500D02*
X86610000Y-70937500D01*
X83540000Y-71437500D02*
X83210000Y-71677500D01*
X83210000Y-71197500D01*
X83540000Y-71437500D01*
G36*
X83540000Y-71437500D02*
G01*
X83210000Y-71677500D01*
X83210000Y-71197500D01*
X83540000Y-71437500D01*
G37*
%TO.C,TP5*%
X67902944Y-118300000D02*
X69600000Y-116602944D01*
X69600000Y-116602944D02*
X71297056Y-118300000D01*
X69600000Y-119997056D02*
X67902944Y-118300000D01*
X71297056Y-118300000D02*
X69600000Y-119997056D01*
%TO.C,C7*%
X88065000Y-72088748D02*
X88065000Y-72611252D01*
X89535000Y-72088748D02*
X89535000Y-72611252D01*
%TO.C,C14*%
X91290000Y-98565580D02*
X91290000Y-98284420D01*
X92310000Y-98565580D02*
X92310000Y-98284420D01*
%TO.C,R3*%
X87467742Y-66297500D02*
X87942258Y-66297500D01*
X87467742Y-67342500D02*
X87942258Y-67342500D01*
%TO.C,D1*%
X129926552Y-53627343D02*
X131128634Y-54829425D01*
X129926552Y-53627343D02*
X131807456Y-51746439D01*
X131128634Y-54829425D02*
X133009538Y-52948521D01*
%TO.C,C11*%
X84015000Y-86188748D02*
X84015000Y-86711252D01*
X85485000Y-86188748D02*
X85485000Y-86711252D01*
%TO.C,TP8*%
X68102944Y-51200000D02*
X69800000Y-49502944D01*
X69800000Y-49502944D02*
X71497056Y-51200000D01*
X69800000Y-52897056D02*
X68102944Y-51200000D01*
X71497056Y-51200000D02*
X69800000Y-52897056D01*
%TO.C,R9*%
X106653641Y-89220000D02*
X106346359Y-89220000D01*
X106653641Y-89980000D02*
X106346359Y-89980000D01*
%TO.C,C17*%
X125815612Y-55532111D02*
X124809750Y-56537973D01*
X127102546Y-56819045D02*
X126096684Y-57824907D01*
%TO.C,D6*%
X129822040Y-116159655D02*
X131702944Y-118040559D01*
X131024122Y-114957573D02*
X129822040Y-116159655D01*
X131024122Y-114957573D02*
X132905026Y-116838477D01*
%TO.C,Q2*%
X126383733Y-114436082D02*
X125924114Y-114895702D01*
X126383733Y-114436082D02*
X126843353Y-113976463D01*
X128589907Y-116642256D02*
X128130287Y-117101875D01*
X128589907Y-116642256D02*
X129049526Y-116182636D01*
X129779614Y-115848528D02*
X129440202Y-116187939D01*
X129376563Y-115784889D01*
X129779614Y-115848528D01*
G36*
X129779614Y-115848528D02*
G01*
X129440202Y-116187939D01*
X129376563Y-115784889D01*
X129779614Y-115848528D01*
G37*
%TO.C,TP2*%
X131807456Y-54786998D02*
X133504512Y-53089942D01*
X133504512Y-53089942D02*
X135201568Y-54786998D01*
X133504512Y-56484054D02*
X131807456Y-54786998D01*
X135201568Y-54786998D02*
X133504512Y-56484054D01*
%TO.C,R18*%
X111077500Y-61587742D02*
X111077500Y-62062258D01*
X112122500Y-61587742D02*
X112122500Y-62062258D01*
%TO.C,U5*%
X113990000Y-63690000D02*
X114165000Y-63690000D01*
X113990000Y-64365000D02*
X113990000Y-63690000D01*
X113990000Y-66235000D02*
X113990000Y-66610000D01*
X116710000Y-63690000D02*
X116535000Y-63690000D01*
X116710000Y-64365000D02*
X116710000Y-63690000D01*
X116710000Y-66235000D02*
X116710000Y-66910000D01*
X116710000Y-66910000D02*
X116535000Y-66910000D01*
X113990000Y-66910000D02*
X113800000Y-67050000D01*
X113800000Y-66770000D01*
X113990000Y-66910000D01*
G36*
X113990000Y-66910000D02*
G01*
X113800000Y-67050000D01*
X113800000Y-66770000D01*
X113990000Y-66910000D01*
G37*
%TO.C,TP6*%
X64402944Y-114800000D02*
X66100000Y-113102944D01*
X66100000Y-113102944D02*
X67797056Y-114800000D01*
X66100000Y-116497056D02*
X64402944Y-114800000D01*
X67797056Y-114800000D02*
X66100000Y-116497056D01*
%TO.C,R8*%
X106653641Y-91420000D02*
X106346359Y-91420000D01*
X106653641Y-92180000D02*
X106346359Y-92180000D01*
%TO.C,C24*%
X127761709Y-112204278D02*
X126755847Y-111198416D01*
X129048643Y-110917344D02*
X128042781Y-109911482D01*
%TD*%
%LPC*%
D16*
%TO.C,C29*%
X82300000Y-106250000D03*
X85250000Y-106250000D03*
%TD*%
D17*
%TO.C,R13*%
X108900000Y-102855000D03*
X108900000Y-101205000D03*
%TD*%
%TO.C,R4*%
X119175000Y-75425000D03*
X119175000Y-73775000D03*
%TD*%
D18*
%TO.C,BAT+*%
X86500000Y-101750000D03*
%TD*%
D19*
%TO.C,REF\u002A\u002A*%
X144250000Y-129500000D03*
%TD*%
D20*
%TO.C,Q4*%
X70842982Y-54187526D03*
X72186485Y-55531029D03*
X72840559Y-53533452D03*
%TD*%
D21*
%TO.C,C28*%
X70949048Y-57970547D03*
X73035014Y-60056513D03*
%TD*%
D22*
%TO.C,R2*%
X99700000Y-95800000D03*
X101350000Y-95800000D03*
%TD*%
D23*
%TO.C,C19*%
X134035355Y-117731192D03*
X132939339Y-118827208D03*
%TD*%
D24*
%TO.C,Card1*%
X120400000Y-94600000D03*
X120400000Y-86600000D03*
D25*
X109400000Y-87410000D03*
X109400000Y-88500000D03*
X109400000Y-89600000D03*
X109400000Y-90700000D03*
X109400000Y-91800000D03*
X109400000Y-92900000D03*
X109400000Y-94000000D03*
X109400000Y-95100000D03*
X109400000Y-96200000D03*
D26*
X110400000Y-97400000D03*
D27*
X120000000Y-97400000D03*
X120000000Y-81900000D03*
D28*
X110400000Y-82800000D03*
%TD*%
D29*
%TO.C,D8*%
X68845405Y-53780940D03*
X67360481Y-52296016D03*
%TD*%
D30*
%TO.C,R11*%
X107010000Y-87200000D03*
X105990000Y-87200000D03*
%TD*%
D31*
%TO.C,R1*%
X103400000Y-96130000D03*
X103400000Y-97780000D03*
%TD*%
D24*
%TO.C,BAT_PWR*%
X77750000Y-87500000D03*
X80750000Y-87500000D03*
D32*
X76750000Y-84750000D03*
X79250000Y-84750000D03*
X81750000Y-84750000D03*
X76750000Y-90250000D03*
X79250000Y-90250000D03*
X81750000Y-90250000D03*
%TD*%
D33*
%TO.C,C16*%
X84775000Y-89750000D03*
X84775000Y-91650000D03*
%TD*%
D34*
%TO.C,C10*%
X101100000Y-93800000D03*
X99550000Y-93800000D03*
%TD*%
D35*
%TO.C,D3*%
X136071822Y-119583812D03*
X135294005Y-118805995D03*
X134000000Y-120100000D03*
X134777817Y-120877817D03*
%TD*%
D30*
%TO.C,R7*%
X107010000Y-94000000D03*
X105990000Y-94000000D03*
%TD*%
D18*
%TO.C,BAT-*%
X81250000Y-101750000D03*
%TD*%
D36*
%TO.C,C8*%
X81250000Y-68500000D03*
X79350000Y-68500000D03*
%TD*%
D37*
%TO.C,USB1*%
X80420000Y-73910000D03*
X80420000Y-79690000D03*
D38*
X81500000Y-73600000D03*
X81500000Y-74400000D03*
D39*
X81500000Y-75050000D03*
X81500000Y-75550000D03*
X81500000Y-76050000D03*
X81500000Y-76550000D03*
X81500000Y-77050000D03*
X81500000Y-77550000D03*
X81500000Y-78050000D03*
X81500000Y-78550000D03*
D38*
X81500000Y-79200000D03*
X81500000Y-80000000D03*
D40*
X80950000Y-72480000D03*
D41*
X76740000Y-72480000D03*
D40*
X80950000Y-81120000D03*
D41*
X76740000Y-81120000D03*
%TD*%
D42*
%TO.C,C26*%
X72569848Y-114015939D03*
X74655814Y-111929973D03*
%TD*%
D43*
%TO.C,TP1*%
X129968978Y-51251464D03*
%TD*%
D44*
%TO.C,R16*%
X71738998Y-110922346D03*
X70572272Y-109755620D03*
%TD*%
D45*
%TO.C,D7*%
X68642462Y-115757538D03*
X67157538Y-117242462D03*
%TD*%
D46*
%TO.C,H1*%
X78000000Y-107000000D03*
%TD*%
D47*
%TO.C,U3*%
X89250000Y-87000000D03*
X89250000Y-85100000D03*
X86975000Y-86050000D03*
%TD*%
%TO.C,U4*%
X89250000Y-90900000D03*
X89250000Y-89000000D03*
X86975000Y-89950000D03*
%TD*%
D48*
%TO.C,C13*%
X99750000Y-97400000D03*
X101300000Y-97400000D03*
%TD*%
D49*
%TO.C,C20*%
X132872164Y-50705616D03*
X133968180Y-51801632D03*
%TD*%
D50*
%TO.C,TP10*%
X81250000Y-97400000D03*
%TD*%
D48*
%TO.C,C5*%
X86955000Y-64995000D03*
X88505000Y-64995000D03*
%TD*%
D51*
%TO.C,C3*%
X88730000Y-63220000D03*
X88730000Y-61670000D03*
%TD*%
D52*
%TO.C,U1*%
X91250000Y-61280000D03*
X91250000Y-62550000D03*
X91250000Y-63820000D03*
X91250000Y-65090000D03*
X91250000Y-66360000D03*
X91250000Y-67630000D03*
X91250000Y-68900000D03*
X91250000Y-70170000D03*
X91250000Y-71440000D03*
X91250000Y-72710000D03*
X91250000Y-73980000D03*
X91250000Y-75250000D03*
X91250000Y-76520000D03*
X91250000Y-77790000D03*
D53*
X93015000Y-79040000D03*
X94285000Y-79040000D03*
X95555000Y-79040000D03*
X96825000Y-79040000D03*
X98095000Y-79040000D03*
X99365000Y-79040000D03*
X100635000Y-79040000D03*
X101905000Y-79040000D03*
X103175000Y-79040000D03*
X104445000Y-79040000D03*
X105715000Y-79040000D03*
X106985000Y-79040000D03*
D52*
X108750000Y-77790000D03*
X108750000Y-76520000D03*
X108750000Y-75250000D03*
X108750000Y-73980000D03*
X108750000Y-72710000D03*
X108750000Y-71440000D03*
X108750000Y-70170000D03*
X108750000Y-68900000D03*
X108750000Y-67630000D03*
X108750000Y-66360000D03*
X108750000Y-65090000D03*
X108750000Y-63820000D03*
X108750000Y-62550000D03*
X108750000Y-61280000D03*
D54*
X97100000Y-67600000D03*
X97100000Y-69000000D03*
X97100000Y-70400000D03*
X97100000Y-70400000D03*
X98500000Y-67600000D03*
X98500000Y-67600000D03*
X98500000Y-69000000D03*
X98500000Y-70400000D03*
X99900000Y-67600000D03*
X99900000Y-69000000D03*
X99900000Y-70400000D03*
%TD*%
D23*
%TO.C,C27*%
X69906066Y-56291169D03*
X68810050Y-57387185D03*
%TD*%
D50*
%TO.C,TP9*%
X86500000Y-97400000D03*
%TD*%
D55*
%TO.C,Q1*%
X130543503Y-55856497D03*
X129200000Y-57200000D03*
X131197577Y-57854074D03*
%TD*%
D56*
%TO.C,Q3*%
X69122702Y-113892195D03*
X70466205Y-112548692D03*
X68468628Y-111894618D03*
%TD*%
D57*
%TO.C,C2*%
X67026346Y-118965685D03*
X65930330Y-117869669D03*
%TD*%
D31*
%TO.C,R14*%
X111600000Y-64400000D03*
X111600000Y-66050000D03*
%TD*%
D58*
%TO.C,R12*%
X127944885Y-58773313D03*
X129111611Y-59940039D03*
%TD*%
D51*
%TO.C,C15*%
X111725000Y-105900000D03*
X111725000Y-104350000D03*
%TD*%
D33*
%TO.C,C12*%
X91500000Y-89000000D03*
X91500000Y-90900000D03*
%TD*%
D46*
%TO.C,H2*%
X122000000Y-107000000D03*
%TD*%
D59*
%TO.C,FPC1*%
X104450000Y-100960000D03*
X103950000Y-100960000D03*
X103450000Y-100960000D03*
X102950000Y-100960000D03*
X102450000Y-100960000D03*
X101950000Y-100960000D03*
X101450000Y-100960000D03*
X100950000Y-100960000D03*
X100450000Y-100960000D03*
X99950000Y-100960000D03*
X99450000Y-100960000D03*
X98950000Y-100960000D03*
X98450000Y-100960000D03*
X97950000Y-100960000D03*
X97450000Y-100960000D03*
X96950000Y-100960000D03*
X96450000Y-100960000D03*
X95950000Y-100960000D03*
X95450000Y-100960000D03*
X94950000Y-100960000D03*
X94450000Y-100960000D03*
X93950000Y-100960000D03*
X93450000Y-100960000D03*
X92950000Y-100960000D03*
D60*
X91400000Y-104200000D03*
X106000000Y-104200000D03*
%TD*%
D61*
%TO.C,D5*%
X63489009Y-50272407D03*
X64266826Y-51050224D03*
X65560831Y-49756219D03*
X64783014Y-48978402D03*
%TD*%
D57*
%TO.C,C18*%
X128554765Y-54645577D03*
X127458749Y-53549561D03*
%TD*%
D62*
%TO.C,C1*%
X65551992Y-52148008D03*
X66648008Y-51051992D03*
%TD*%
D33*
%TO.C,C9*%
X91500000Y-85250000D03*
X91500000Y-87150000D03*
%TD*%
D63*
%TO.C,TP3*%
X133400000Y-115000000D03*
%TD*%
D64*
%TO.C,TP7*%
X66264466Y-54735534D03*
%TD*%
D65*
%TO.C,D2*%
X134777817Y-48722183D03*
X134000000Y-49500000D03*
X135294005Y-50794005D03*
X136071822Y-50016188D03*
%TD*%
D66*
%TO.C,D4*%
X65173726Y-121002152D03*
X65951543Y-120224335D03*
X64657538Y-118930330D03*
X63879721Y-119708147D03*
%TD*%
D49*
%TO.C,C25*%
X70961180Y-114952855D03*
X72057196Y-116048871D03*
%TD*%
D63*
%TO.C,TP4*%
X129864466Y-118535534D03*
%TD*%
D67*
%TO.C,C6*%
X83750000Y-66000000D03*
X80800000Y-66000000D03*
%TD*%
D46*
%TO.C,H4*%
X78000000Y-63000000D03*
%TD*%
D30*
%TO.C,R10*%
X107010000Y-88400000D03*
X105990000Y-88400000D03*
%TD*%
D68*
%TO.C,R17*%
X73689087Y-56962920D03*
X74855813Y-55796194D03*
%TD*%
D19*
%TO.C,REF\u002A\u002A*%
X144250000Y-39750000D03*
%TD*%
D69*
%TO.C,C21*%
X118265000Y-64160000D03*
X118265000Y-65710000D03*
%TD*%
D31*
%TO.C,R5*%
X108900000Y-104355000D03*
X108900000Y-106005000D03*
%TD*%
D70*
%TO.C,C4*%
X86730000Y-63220000D03*
X86730000Y-61320000D03*
%TD*%
D62*
%TO.C,C23*%
X129935177Y-113656497D03*
X131031193Y-112560481D03*
%TD*%
D71*
%TO.C,R15*%
X125886991Y-112931713D03*
X124720265Y-114098439D03*
%TD*%
D72*
%TO.C,BOOT*%
X121745000Y-78050000D03*
X123955000Y-78050000D03*
D73*
X122855000Y-75900000D03*
X122855000Y-72900000D03*
D72*
X121745000Y-70750000D03*
X123955000Y-70750000D03*
D74*
X121095000Y-76650000D03*
X121095000Y-73650000D03*
X121095000Y-72150000D03*
%TD*%
D30*
%TO.C,R6*%
X107010000Y-95200000D03*
X105990000Y-95200000D03*
%TD*%
D75*
%TO.C,U2*%
X84100000Y-71275000D03*
X85050000Y-71275000D03*
X86000000Y-71275000D03*
X86000000Y-69000000D03*
X84100000Y-69000000D03*
%TD*%
D76*
%TO.C,TP5*%
X69600000Y-118300000D03*
%TD*%
D33*
%TO.C,C7*%
X88800000Y-71400000D03*
X88800000Y-73300000D03*
%TD*%
D51*
%TO.C,C14*%
X91800000Y-99200000D03*
X91800000Y-97650000D03*
%TD*%
D22*
%TO.C,R3*%
X86880000Y-66820000D03*
X88530000Y-66820000D03*
%TD*%
D46*
%TO.C,H3*%
X122000000Y-63000000D03*
%TD*%
D77*
%TO.C,D1*%
X130923573Y-53832404D03*
X132408497Y-52347480D03*
%TD*%
D33*
%TO.C,C11*%
X84750000Y-85500000D03*
X84750000Y-87400000D03*
%TD*%
D64*
%TO.C,TP8*%
X69800000Y-51200000D03*
%TD*%
D19*
%TO.C,REF\u002A\u002A*%
X55250000Y-129000000D03*
%TD*%
D30*
%TO.C,R9*%
X107010000Y-89600000D03*
X105990000Y-89600000D03*
%TD*%
D78*
%TO.C,C17*%
X126999131Y-55635526D03*
X124913165Y-57721492D03*
%TD*%
D79*
%TO.C,D6*%
X130819061Y-115954594D03*
X132303985Y-117439518D03*
%TD*%
D80*
%TO.C,Q2*%
X128821484Y-115548008D03*
X127477981Y-114204505D03*
X126823907Y-116202082D03*
%TD*%
D43*
%TO.C,TP2*%
X133504512Y-54786998D03*
%TD*%
D31*
%TO.C,R18*%
X111600000Y-61000000D03*
X111600000Y-62650000D03*
%TD*%
D81*
%TO.C,U5*%
X114600000Y-66462500D03*
X115100000Y-66462500D03*
X115600000Y-66462500D03*
X116100000Y-66462500D03*
D82*
X116262500Y-65800000D03*
X116262500Y-65300000D03*
X116262500Y-64800000D03*
D81*
X116100000Y-64137500D03*
X115600000Y-64137500D03*
X115100000Y-64137500D03*
X114600000Y-64137500D03*
D82*
X114437500Y-64800000D03*
X114437500Y-65300000D03*
X114437500Y-65800000D03*
%TD*%
D76*
%TO.C,TP6*%
X66100000Y-114800000D03*
%TD*%
D30*
%TO.C,R8*%
X107010000Y-91800000D03*
X105990000Y-91800000D03*
%TD*%
D83*
%TO.C,C24*%
X128945228Y-112100863D03*
X126859262Y-110014897D03*
%TD*%
%LPD*%
M02*
