M48
; DRILL file {KiCad 8.0.1-8.0.1-1~ubuntu22.04.1} date 2024-03-26T19:18:49+0100
; FORMAT={-:-/ absolute / inch / decimal}
; #@! TF.CreationDate,2024-03-26T19:18:49+01:00
; #@! TF.GenerationSoftware,Kicad,Pcbnew,8.0.1-8.0.1-1~ubuntu22.04.1
; #@! TF.FileFunction,Plated,1,4,PTH
FMAT,2
INCH
; #@! TA.AperFunction,Plated,PTH,ViaDrill
T1C0.0118
; #@! TA.AperFunction,Plated,PTH,ViaDrill
T2C0.0157
; #@! TA.AperFunction,Plated,PTH,ComponentDrill
T3C0.0236
; #@! TA.AperFunction,Plated,PTH,ComponentDrill
T4C0.0276
; #@! TA.AperFunction,Plated,PTH,ViaDrill
T5C0.0315
; #@! TA.AperFunction,Plated,PTH,ComponentDrill
T6C0.0394
; #@! TA.AperFunction,Plated,PTH,ComponentDrill
T7C0.0866
%
G90
G05
T1
X2.4606Y-2.0118
X2.4912Y-2.1015
X2.5092Y-4.6469
X2.5188Y-2.0502
X2.5492Y-2.0866
X2.5591Y-4.6063
X2.6063Y-4.8012
X2.6299Y-1.9488
X2.6388Y-4.7436
X2.6575Y-1.9783
X2.676Y-4.7547
X2.6772Y-4.7146
X2.9626Y-2.7657
X3.0118Y-2.185
X3.1398Y-3.248
X3.262Y-2.8837
X3.2677Y-3.1654
X3.4173Y-2.9764
X3.4449Y-4.2421
X3.4567Y-2.9764
X3.5236Y-3.0193
X3.5236Y-3.0587
X3.5236Y-3.4646
X3.5236Y-3.6319
X3.5335Y-2.5689
X3.6654Y-3.4882
X3.6654Y-3.8425
X3.6654Y-3.9055
X3.6713Y-3.3661
X3.6909Y-2.8799
X3.6929Y-2.6102
X3.6929Y-2.6575
X3.6929Y-2.7008
X3.6929Y-2.7559
X3.6929Y-2.8189
X3.7283Y-2.4134
X3.8071Y-3.3462
X3.8101Y-3.4786
X3.815Y-3.189
X3.8309Y-3.5443
X3.8329Y-3.4145
X3.9016Y-3.7362
X3.9193Y-3.6437
X3.9358Y-3.874
X3.9606Y-3.8031
X3.9646Y-3.7362
X3.9803Y-3.6417
X4.0039Y-4.0315
X4.0906Y-4.0512
X4.122Y-2.6102
X4.1614Y-2.6102
X4.176Y-3.5771
X4.189Y-3.6559
X4.2205Y-2.6142
X4.2205Y-2.8858
X4.2323Y-3.7913
X4.248Y-3.4843
X4.2509Y-3.6927
X4.2518Y-3.5671
X4.252Y-3.5276
X4.252Y-3.6142
X4.252Y-3.7441
X4.2524Y-3.4413
X4.2598Y-3.9291
X4.2815Y-3.1201
X4.2874Y-3.3937
X4.3307Y-4.0906
X4.3386Y-4.1732
X4.3504Y-2.6417
X4.378Y-2.8228
X4.4488Y-2.5236
X4.4528Y-4.1063
X4.4587Y-4.1634
X4.6142Y-2.5551
X4.622Y-2.8543
X4.6575Y-3.1417
X4.7008Y-2.8386
X4.7008Y-3.0787
X4.7087Y-2.5906
X4.7343Y-3.1496
X5.1969Y-1.9685
X5.1969Y-4.7047
X5.2283Y-4.7559
X5.2638Y-1.8858
X5.3051Y-2.0768
X5.3051Y-4.5965
X5.3465Y-4.626
X5.3504Y-2.0354
X5.3876Y-2.0829
X5.4035Y-4.6566
X5.4429Y-4.498
X5.4429Y-4.626
T2
X2.6457Y-4.3543
X2.7362Y-2.3327
X2.9331Y-2.1358
X2.9843Y-4.3583
X3.122Y-2.6299
X3.2598Y-2.6614
X3.2598Y-2.7087
X3.2751Y-3.4409
X3.2756Y-2.9524
X3.2756Y-3.0941
X3.3345Y-3.6635
X3.3693Y-2.5614
X3.3693Y-2.6323
X3.4291Y-2.8898
X3.4291Y-3.1024
X3.5315Y-3.185
X3.6614Y-2.4646
X3.6712Y-3.2067
X3.6772Y-3.0394
X3.7087Y-2.4646
X3.7835Y-4.0354
X3.8386Y-4.0394
X4.0709Y-3.6772
X4.1496Y-3.8228
X4.1535Y-3.9134
X4.189Y-2.9488
X4.2047Y-2.4134
X4.2283Y-3.9961
X4.3661Y-2.7047
X4.378Y-3.0118
X4.9449Y-4.622
X4.9488Y-2.1417
X5.0945Y-4.3386
X5.2165Y-2.3268
T4
X3.1661Y-2.9098
X3.1661Y-3.1374
T5
X2.5354Y-2.2283
X2.8307Y-4.748
X3.3661Y-3.7323
X3.4409Y-3.7323
X3.5157Y-3.7717
X3.5157Y-3.8504
X5.0236Y-1.9331
X5.3425Y-4.4528
T6
X3.061Y-3.4449
X3.1791Y-3.4449
X4.7402Y-3.4094
X4.7402Y-3.7244
T7
X3.1988Y-3.8346
X3.4055Y-3.8346
T3
G00X3.0331Y-2.8535
M15
G01X3.0094Y-2.8535
M16
G05
G00X3.0331Y-3.1937
M15
G01X3.0094Y-3.1937
M16
G05
G00X3.2047Y-2.8535
M15
G01X3.1693Y-2.8535
M16
G05
G00X3.2047Y-3.1937
M15
G01X3.1693Y-3.1937
M16
G05
M30
